<svg xmlns="http://www.w3.org/2000/svg" width="715.748" height="123.661"><g><path d="M545.852 31.417c7.01 0 12.208.962 15.73 3.142 1.93 1.194 3.392 2.645 4.334 4.432.938 1.784 1.41 4.008 1.41 6.67 0 3.89-1.55 7.146-4.672 9.735-1.716 1.427-3.616 2.785-5.736 3.615-.345.132-.605.32-.605.7 0 .567.53.695.966.8 3.49.857 6.412 2.232 8.684 4.135 3.383 2.842 5.062 6.622 5.062 11.295 0 3.375-.745 6.264-2.24 8.665-1.49 2.405-3.603 4.417-6.33 6.04-2.336 1.363-5.093 2.353-8.275 2.966-2.348.457-4.937.637-7.687.706-1.354.035-2.713.043-4.068.06-6.717.035-12.93.115-17.53.043-2.582-.036-4.734-.413-6.113-.63l.008-.016-.38-.112c-.554-.252-.93-.8-.927-1.443 0-.677.433-1.262 1.038-1.487.382-.136.867-.096 1.268-.124 2.585-.207 4.3-.812 5.046-1.81.938-1.263 1.41-4.562 1.41-9.884l.2-32.212c.033-5.26-.424-8.542-1.265-9.836-.655-1.01-2.134-1.627-4.418-1.848l-.998-.108c-.64-.208-1.11-.81-1.11-1.523 0-.698.46-1.3 1.094-1.504l.28-.068h-.004c1.143-.193 2.778-.393 4.802-.44 4.285-.105 10.297.027 16.906.03 1.387 0 2.753.01 4.12.01m-.156 58.917c2.97-.145 5.53-1.107 7.51-2.902 2.59-2.345 3.896-5.844 3.896-10.513 0-4.81-1.466-8.032-4.428-10.353-1.776-1.39-4.04-2.373-6.557-2.938-1.323-.293-3.267-.466-4.55-.033-1.122.377-2 1.29-2.328 2.437-.182.63-.137 1.275-.137 1.92l-.13 11.68c-.04 3.695.15 6.196.442 7.458.29 1.263.942 2.193 1.996 2.677 1.336.617 2.843.63 4.286.565m-.642-31.64c2.31-.436 4.265-1.25 5.72-2.448 2.276-1.876 3.407-5.2 3.407-9.227 0-4.152-1.17-7.202-3.502-9.15-1.39-1.158-3.263-2.132-5.475-2.553-1.295-.245-2.626-.245-3.936-.14-2.225.176-2.164 1.202-2.164 3.35v15.43c0 .76-.073 1.612.152 2.346.357 1.174 1.31 2.108 2.517 2.425 1.014.268 2.252.16 3.282-.033M246.25 53.533l.108-1.082.59-.576 1.166-.173c.38-.043.77-.087 1.166-.14 2.45-.303 4.465-.564 6.012-.772.477-.064 1.194-.217 1.68-.217.488 0 .91.298 1.09.727l.092.942c0 11.073.032 22.115.032 33.205.08 2.637.62 5.407 3.68 5.567h.06l.24.016.064.004v.008c.73.14 1.286.733 1.286 1.56 0 .825-.717 1.638-1.59 1.59l-.125-.008h-9.346l-.312.008c-1.515 0-2.902-.58-3.948-1.54-.966-.764-1.423-2.023-2.156-2.295-.882-.33-2.277.108-4.36 1.47-1.624 1.04-4.105 2.065-5.404 2.518-1.295.457-2.693.685-4.184.685-4.024 0-7.126-1.186-9.3-3.555-2.175-2.37-3.26-5.503-3.26-9.4 0-7.422-.057-14.76-.057-22.135 0-1.752-.18-2.906-.538-3.455-.352-.553-1.186-.926-2.484-1.122-.5-.08-1.194-.103-1.675-.332-.537-.26-.898-.8-.894-1.435.005-.597.398-1.182.955-1.443.4-.184.93-.144 1.363-.164 1.864-.092 3.968-.228 6.29-.517 2.455-.306 4.467-.566 6.02-.775.468-.064 1.185-.22 1.678-.22.485 0 .91.3 1.086.73l.092.933c0 8.782.044 18.718.044 27.503 0 2.727.602 4.74 1.804 6.037 1.198 1.3 2.806 1.948 4.818 1.948 1.675 0 3.386-.49 5.142-1.467 2.144-1.174 3.082-3.274 3.118-5.102-.036-9.17-.06-18.353-.04-27.523m183.65 26.97l-.003-7.39v-.093c0-1.034-.842-1.872-1.872-1.872l-.99.285-3.667 2.076c-3.47 1.97-5.295 5.13-5.223 8.408.068 3.246 2.637 5.888 5.86 5.888 2.52 0 4.68-1.592 5.515-3.828.433-1.154.38-2.273.38-3.475m11.49-18.49V83.78c0 1.947.246 3.358.73 4.236.414.74.927 1.166 1.552 1.28.998.163 1.764 1.033 1.764 2.08 0 .78-.43 1.458-1.06 1.822l.005.004c-1.778 1.026-3.902 1.804-6.107 1.828-2.004 0-3.69-.48-5.038-1.383-1.535-1.018-2.296-2.78-4.43-2.78-1.85 0-3.097 1.554-4.488 2.524-1.463 1.025-2.93 1.638-5.27 1.638-3.555 0-6.477-1.255-8.782-3.752-2.288-2.5-3.443-5.242-3.443-8.228 0-4.87 2.5-8.31 7.5-10.32 2.79-1.103 5.59-2.22 8.372-3.407 2.072-.885 3.764-1.655 5.066-2.312l.012-.008c1.26-.573 2.133-1.844 2.133-3.31l-.004-.14v-1.243c0-4.43-1.326-8.18-5.182-8.33-6.86-.263-7.443 5.656-8.292 10.065-.32 1.64-1.712 2.55-3.175 2.55-1.105 0-2.275-.418-3.506-1.263-1.495-1.035-1.503-2.146-1.503-3.316 0-6.906 7.532-12.288 16.49-12.168 10.285.136 16.66 2.565 16.66 12.168m22.362 12.938l.004 17.988v.032c0 .657-.533 1.19-1.19 1.19l-.044-.004v.004h-9.463c-.65 0-1.184-.533-1.184-1.19V76.368h-.02v-14.53c0-2.08-.212-3.458-.633-4.14-.33-.54-.974-.857-1.996-.973-.822-.09-1.72.048-2.5-.27-.55-.227-.943-.753-.975-1.382-.028-.597.333-1.202.874-1.49l.85-.205c2.376-.333 4.613-.742 6.717-1.183 1.475-.304 4.12-.565 7.735-1.45.834-.18 1.684-.097 1.772.825.112 3.158 1.57 3.987 5.607 1.354 1.623-1.038 3.163-1.635 4.457-2.088 1.3-.457 2.697-.686 4.188-.686 4.025 0 7.127 1.187 9.3 3.555 2.17 2.37 3.262 5.503 3.262 9.395 0 4.714.02 8.93.036 13.267h-.024l.004 8.148c0 2.866.276 6.293 3.687 6.47h.06l.245.015.06.004-.004.008c.733.14 1.286.733 1.286 1.56 0 .825-.71 1.638-1.587 1.586l-.124-.004h-9.343l-.316.008c-3.22 0-5.86-2.637-5.86-5.888l.016-.4V76.367c-.012-3.61-.016-7.22-.016-10.83 0-2.73-.6-4.737-1.8-6.04-1.202-1.295-2.81-1.948-4.82-1.948-1.677 0-3.388.492-5.144 1.466-2.144 1.174-3.082 3.28-3.118 5.102.016 3.61.008 7.223 0 10.834m-71.79-44.52c2.015 0 3.702.684 5.065 2.043 1.363 1.367 2.044 3.054 2.044 5.066 0 1.95-.68 3.604-2.043 4.967-1.363 1.363-3.05 2.044-5.066 2.044-1.88 0-3.534-.68-4.96-2.043-1.432-1.363-2.145-3.018-2.145-4.966 0-1.947.7-3.622 2.092-5.013 1.4-1.395 3.07-2.096 5.014-2.096m1.235 63.724l-.312.008c-3.22 0-5.864-2.637-5.864-5.888l.015-.4V62.996c0-2.62.37-5.347-2.533-6.084-.63-.16-1.744-.245-2.28-.5-.554-.266-.922-.827-.918-1.472.004-.617.404-1.214.978-1.48.404-.19.993-.223 1.422-.284 1.992-.308 3.888-.605 5.668-.99 2.545-.55 5.234-1.014 7.763-1.635.834-.18 1.68-.095 1.768.827l.012 33.138c0 2.866.276 6.293 3.69 6.47h.057l.245.02h.06v.007c.733.14 1.282.737 1.282 1.56 0 .825-.71 1.638-1.588 1.59l-.124-.008h-9.343zM-486.89-160.005c.016.092.024-.28.024.29 0 .568-.204 1.586-1.347 1.77-1.142.185-1.875-.497-2.14-1.234-1.35-3.66-4.18-6.5-8.573-6.5-1.555 0-3.976.552-5.078 1.654-1.107 1.102-1.66 2.4-1.66 3.896 0 1.363.637 2.645 1.9 3.843 4.184 3.97 11.542 3.937 16.132 8.23 2.53 2.337 3.8 5.36 3.8 9.058 0 4.605-1.95 8.244-5.845 10.902-3.438 2.34-7.498 3.507-12.172 3.507-2.66 0-5.146-.39-7.447-1.167-2.076-.7-3.667-1.54-4.77-2.505v-.004l-.492-.74v-.008c-.28-.918-.573-2.56-.874-4.922-.16-1.27-.285-2.43-.377-3.47l-.004-.702c.126-.89.903-1.59 1.83-1.59.79 0 1.466.492 1.738 1.18 2.32 6.12 5.427 9.62 11.664 9.84 1.815.06 3.294-.57 4.433-1.707 1.134-1.133 1.703-2.608 1.703-4.428 0-1.623-.585-3.082-1.752-4.38-1.17-1.3-3.054-2.465-5.65-3.503-5.91-2.278-13.432-6.96-13.484-14.226-.048-7.094 5.55-10.853 11.8-12.228 4.773-1.05 9.623-.31 14.176 1.535l.257.113.49.48.203.522c.26.774.57 1.904.922 3.38.37 1.562.324 1.598.597 3.117h-.004zm-36.487 64.058l-.004-7.39v-.093c0-1.034-.838-1.872-1.872-1.872-.365 0-.7.104-.99.285l-3.667 2.076c-3.47 1.972-5.295 5.13-5.223 8.41.07 3.245 2.642 5.886 5.86 5.886 2.525 0 4.682-1.59 5.52-3.827.428-1.155.376-2.273.376-3.475m11.49-18.49v21.764c0 1.948.245 3.36.73 4.237.413.742.926 1.167 1.547 1.28 1.006.164 1.772 1.033 1.772 2.08 0 .78-.43 1.458-1.062 1.823l.004.004c-1.78 1.026-3.9 1.804-6.108 1.828-2 0-3.69-.48-5.04-1.383-1.53-1.018-2.296-2.782-4.428-2.782-1.848 0-3.098 1.555-4.49 2.525-1.462 1.026-2.93 1.64-5.274 1.64-3.55 0-6.473-1.255-8.777-3.752-2.288-2.5-3.442-5.242-3.442-8.228 0-4.87 2.5-8.31 7.5-10.32 2.792-1.103 5.59-2.22 8.372-3.408 2.076-.885 3.767-1.655 5.066-2.312l.012-.008h.004c1.254-.573 2.124-1.844 2.124-3.31v-1.384c0-4.428-1.327-8.18-5.178-8.328-6.87-.265-7.443 5.655-8.297 10.064-.32 1.638-1.71 2.548-3.173 2.548-1.107 0-2.273-.417-3.503-1.263-1.5-1.034-1.507-2.144-1.507-3.314 0-6.905 7.53-12.288 16.493-12.167 10.28.136 16.657 2.565 16.657 12.168m-60.926 32.153l-.315.012c-3.22 0-5.86-2.64-5.86-5.888l.016-.4V-3.636c0-2.617.366-5.347-2.536-6.08-.63-.16-1.74-.25-2.273-.505-.552-.26-.924-.826-.92-1.47.004-.62.404-1.216.977-1.48.405-.19.99-.22 1.423-.285 1.992-.308 3.888-.6 5.668-.986 2.545-.55 5.234-1.02 7.763-1.636.835-.18 1.68-.096 1.77.822.02.962.043 2.412.06 3.058.035 1.318 1.22 1.703 2.3.693.452-.43 1.174-1.098 1.462-1.375 1.375-1.174 2.726-2.048 4.3-2.853.927-.47 1.94-.755 3.087-.755 1.883 0 3.438.58 4.672 1.752 1.23 1.166 1.848 2.565 1.848 4.184 0 1.56-.453 2.99-1.363 4.29-.91 1.294-1.98 2.172-3.214 2.625-.517.196-.942.292-1.267.292-.58 0-1.166-.224-1.75-.68-1.688-1.364-3.312-2.045-4.87-2.045-1.103 0-2.06.31-2.87.926-2.193 1.667-2.39 4.104-2.39 6.565v16.465c0 2.865.28 6.288 3.692 6.47h.06l.24.015h.065v.012c.73.14 1.282.733 1.282 1.56 0 .824-.71 1.634-1.587 1.586l-.124-.007h-9.343zm-15.93-106.024c5.137.003 9.87-.082 13.718-.074 2.818.004 5.158.35 6.85.52l.044.013c.593.06 1.058.557 1.066 1.162l.004.02v.004l.68 9.387c.038.513.074.962-.167 1.458-.345.71-1.074 1.208-1.916 1.208-.786 0-1.484-.45-1.844-1.09l-.265-.662c-.756-2.384-1.626-4.084-2.592-5.074-1.427-1.46-4.938-3.162-10.517-3.162h-3.8c-1.874 0-3 .144-3.353.437-.357.292-.537 1.29-.537 2.97v15.71c0 .763-.073 1.612.148 2.346.357 1.178 1.31 2.108 2.52 2.43.642.167 1.336.12 1.993.12h2.45c4.152 0 6.665-.374 7.543-1.12.7-.6 1.29-2.236 1.763-4.91l.19-.93c.27-.708.957-1.217 1.75-1.217.834 0 1.535.537 1.788 1.27l-.004 18.806c-.257.713-.954 1.242-1.764 1.246-.733-.004-1.367-.43-1.675-1.034-.17-.345-.2-.73-.264-1.106-.44-2.565-1.034-4.176-1.783-4.822-.942-.813-3.455-1.218-7.543-1.218h-2.67c-.677 0-1.318-.028-1.98.196-1.118.377-1.996 1.29-2.324 2.433-.18.63-.136 1.275-.136 1.924l-.13 10.983c-.04 3.695.15 6.196.438 7.46.29 1.26.946 2.187 1.996 2.676.766.352 1.74.536 2.874.632 1.134.097 2.942.21 5.403.15 7.668-.19 11.127-2.02 14.205-9.957.337-.738.59-2.036 2.277-2.072 1.018 0 1.87.71 2.092 1.65.128.558-.028 1.115-.13 1.664-.243 1.33-.524 2.762-.832 4.29-.597 2.98-1.114 5.177-1.527 6.624l-.02.033c-.153.43-.54.746-1.01.79l-.016.004c-1.508.376-3.456.557-5.92.565-4.398.008-10.11.2-16.378.236-6.72.036-12.93.116-17.53.048-2.586-.044-4.738-.416-6.117-.633l.008-.016-.377-.112c-.553-.253-.93-.802-.926-1.443 0-.677.433-1.26 1.038-1.487.38-.136.866-.092 1.267-.124 2.585-.204 4.3-.817 5.046-1.81.94-1.26 1.412-4.558 1.412-9.885l.2-32.212c.032-5.258-.43-8.537-1.266-9.832-.658-1.013-2.133-1.63-4.417-1.85l-1-.112c-.64-.2-1.11-.806-1.11-1.52 0-.7.462-1.298 1.09-1.502l.28-.065v-.003c1.14-.192 2.78-.392 4.803-.445 4.285-.1 10.297.033 16.906.037m412.306 49.778l-.008-7.39v-.093c0-1.034-.838-1.872-1.872-1.872l-.99.28-3.667 2.08c-3.472 1.97-5.296 5.13-5.224 8.41.068 3.246 2.642 5.887 5.86 5.887 2.52 0 4.68-1.595 5.52-3.827.428-1.158.38-2.273.38-3.475m11.49-18.485v21.76c0 1.947.24 3.358.726 4.236.413.74.93 1.17 1.55 1.28 1.003.162 1.77 1.032 1.77 2.078 0 .78-.43 1.46-1.063 1.823l.003.005c-1.78 1.022-3.9 1.804-6.105 1.824-2.004 0-3.69-.482-5.038-1.376-1.535-1.018-2.3-2.785-4.432-2.785-1.848 0-3.1 1.554-4.49 2.528-1.462 1.018-2.93 1.63-5.27 1.63-3.555 0-6.477-1.246-8.78-3.747-2.29-2.5-3.44-5.24-3.44-8.227 0-4.87 2.497-8.31 7.495-10.32 2.793-1.103 5.59-2.225 8.372-3.407 2.077-.886 3.768-1.66 5.07-2.313l.01-.008h.003c1.254-.577 2.128-1.84 2.128-3.31l-.004-.145v-1.234c0-4.433-1.327-8.185-5.18-8.333-6.864-.265-7.44 5.66-8.295 10.064-.32 1.64-1.708 2.55-3.174 2.55-1.103 0-2.277-.418-3.503-1.263-1.5-1.034-1.507-2.145-1.507-3.31 0-6.91 7.53-12.294 16.492-12.173 10.285.137 16.662 2.566 16.662 12.173m22.356 12.63l.008 17.983v.036c0 .654-.532 1.187-1.19 1.187h-9.506c-.65 0-1.186-.534-1.186-1.188l.004-.036h-.004v-16.568h-.02v-14.534c0-2.076-.21-3.455-.63-4.14-.328-.537-.978-.862-2-.974-.82-.088-1.72.048-2.497-.273-.552-.224-.94-.75-.973-1.378-.028-.6.33-1.2.87-1.492l.854-.2c2.374-.338 4.61-.746 6.714-1.183 1.475-.31 4.12-.57 7.74-1.455.83-.18 1.68-.092 1.767.826.117 3.158 1.572 3.992 5.612 1.354 1.624-1.038 3.16-1.635 4.457-2.088 1.298-.453 2.693-.68 4.184-.68 4.028 0 7.126 1.185 9.302 3.55 2.173 2.37 3.26 5.503 3.26 9.4 0 4.712.02 8.924.04 13.265h-.025v8.144c0 2.867.28 6.294 3.692 6.474h.06l.237.016h.063v.008c.733.14 1.286.734 1.286 1.56 0 .83-.714 1.64-1.588 1.59l-.124-.007h-9.347l-.31.01c-3.224 0-5.865-2.643-5.865-5.89l.016-.4v-11.503c-.007-3.615-.015-7.222-.015-10.834 0-2.725-.597-4.737-1.8-6.036-1.198-1.298-2.81-1.948-4.817-1.948-1.676 0-3.39.484-5.142 1.466-2.15 1.17-3.083 3.275-3.123 5.1.016 3.614.012 7.22 0 10.836m36.874-31.63c0 16.3.008 33.322.008 49.622h.004l-.005.036c0 .654.525 1.18 1.174 1.18h9.414c.653 0 1.178-.53 1.178-1.18v-.036c0-5.475.024-10.966.053-16.453.008-1.87 1.703-2.235 2.57-.812l10.327 14.77c1.39 1.987 2.453 3.498 5.26 3.562l.307-.008h11.194l.124.008c.85.048 1.547-.757 1.547-1.575s-.54-1.403-1.254-1.543v-.008l-.06-.004-.232-.016h-.06c-3.134-.108-5.956-4-8.738-7.403-1.25-1.522-6.757-8.893-9.715-12.985-1.916-2.288-1.13-3.587.822-5.535l6.565-6.805c4.276-4.758 6.91-3.095 6.918-5.664.032-.912-.718-1.758-2.19-1.694-3.57-.016-8.66-.096-11.446.028-2.184 0-2.228 2.918-.356 3.307 2.388.458 1.45 2.538.505 3.724l-8.52 11.295c-.923 1.26-1.753 1.638-2.45 1.397-.537-.188-1.054-.653-1.078-2.036.064-11.995.208-24.712-.004-36.68-.088-.914-.925-.994-1.75-.818-2.506.614-5.275 1.075-7.796 1.62-1.768.384-3.644.673-5.616.978-.43.064-1.01.096-1.414.28-.566.27-.962.858-.966 1.467-.004.64.36 1.2.91 1.46.532.252 1.63.34 2.256.496 2.874.73 2.513 3.43 2.513 6.028" fill="#2f4889"/><g><path d="M55.88 118.86c2.417.933 4.99 1.402 7.57 1.406 2.582 0 5.163-.46 7.588-1.395 27.88-16.007 50.742-55.45 52.212-87.438C121.635 5.38 82.56 3.69 63.467 3.805 44.767 3.69 5.263 5.95 3.684 31.445c1.48 31.975 24.328 71.402 52.196 87.414" fill="#fb255b"/><g><path d="M64.798 5.702c-.665 0-1.31 0-1.944.004-.457 0-.93-.004-1.41-.004-18.373 0-53.884 2.22-55.363 25.13.67 13.92 4.237 28.954 12.862 43.05 16.38-25.735 103.042-42.99 98.37-51.543C108.103 7.116 81.434 5.7 64.797 5.7" fill="#eb7a8c"/><g><path d="M63.25 93.773l.14-.156c12.564-13.764 22.368-24.505 34.933-38.265 3.888-4.256 6.505-6.55 2.85-10.994l-7.616-9.254-18.665-4.826H51.61l-18.665 4.826c-2.862 3.475-4.902 5.952-7.76 9.427-2.717 3.295-.216 7.18 2.66 10.333l35.268 38.754.136.156z" fill="#fff"/><g><path d="M93.106 36.7c-3.992 2.785-8.986 3.995-14.056 5.065 2.63-.232 4-.353 6.633-.59 1.716-.15 3.038-.368 4.24.85l5.808 5.852-3.534-6.416c-.733-1.334-.757-1.298-.096-2.67.337-.692.673-1.394 1.006-2.09" fill="#fc255c"/><g><path d="M31.906 53.443c3.106.69 3.603.798 6.71 1.487 2.04.45 5.266.02 6.184-1.852l3.326-6.78c-.288 4.628-2.785 10.23 2.537 11.297l9.78 3.415c-4.257-.337-8.156-1.48-9.924-.47-2.08 1.184-.83 3.14-.21 4.582l8.718 20.205c-5.54-10.13-10.373-17.928-17.326-24.56-2.83-2.695-6.137-4.583-9.796-7.324" fill="#fc255c"/><g><path d="M33.395 36.7c3.46 2.504 8.73 3.807 14.06 5.065-2.697-.236-5.395-.477-8.088-.717-1.67-.15-1.667-.15-2.854 1.046l-5.743 5.783c1.258-2.284 2.513-4.573 3.775-6.86.51-.92.493-.883.044-1.83-.4-.83-.802-1.654-1.195-2.488" fill="#fc255c"/><g><path d="M63.36 55.326l-.124.53-.096-.53c-.513-2.41-1.03-4.822-1.548-7.23-.6-2.83-.368-2.77-3.13-3.608-2.42-.737-4.837-1.47-7.254-2.2 8.028 1.387 16.056 1.387 24.084 0-11.098 3.367-9.503 1.667-11.932 13.038" fill="#fc255c"/><path d="M95.48 53.443l-6.708 1.487c-2.04.45-5.267.02-6.185-1.852l-3.322-6.78c.284 4.628 2.785 10.23-2.537 11.297l-9.78 3.415c4.253-.337 8.152-1.48 9.92-.47 2.08 1.184.83 3.14.208 4.582L68.36 85.327c5.538-10.13 10.376-17.928 17.325-24.56 2.83-2.695 6.137-4.583 9.796-7.324" fill="#fc255c"/></g></g></g></g></g></g></g></g></svg>