<svg xmlns="http://www.w3.org/2000/svg" width="400" height="400"><g><path d="M200 390c104.628 0 190-85.372 190-190S304.628 10 200 10 10 95.372 10 200s85.372 190 190 190z" fill="#ffca19"/><path d="M200 382.52c100.526 0 182.52-81.994 182.52-182.52 0-100.526-81.994-182.52-182.52-182.52C99.474 17.48 17.48 99.474 17.48 200c0 100.526 81.994 182.52 182.52 182.52z" fill="#214b89"/><path d="M200 343.96c79.29 0 143.96-64.717 143.96-143.96 0-79.29-64.67-143.96-143.96-143.96-79.243 0-143.96 64.67-143.96 143.96 0 79.243 64.717 143.96 143.96 143.96z" fill="#ffca19"/><path d="M200 336.48c75.19 0 136.48-61.29 136.48-136.48S275.19 63.52 200 63.52 63.52 124.81 63.52 200 124.81 336.48 200 336.48z" fill="#fff"/><path d="M200 238.85c34.99 0 63.607-28.57 63.607-63.56 0-35.036-28.618-63.606-63.607-63.606-34.99 0-63.607 28.57-63.607 63.607 0 34.99 28.618 63.56 63.607 63.56z" fill="#214b89"/><path d="M255.21 126.5c2.51-2.51 11.05-17.953 11.05-17.953s-15.49 8.542-18 11.052c-4.73 4.68 2.268 11.58 6.95 6.9z" fill="#ffca19"/><path d="M263.56 138.18c2.942-1.98 14.38-15.493 14.38-15.493s-16.89 5.357-19.835 7.336c-5.55 3.716-.048 11.824 5.454 8.156z" fill="#ffca19"/><path d="M269.495 151.257c3.28-1.35 17.132-12.354 17.132-12.354s-17.615 1.93-20.897 3.28c-6.177 2.56-2.364 11.584 3.765 9.074z" fill="#ffca19"/><path d="M272.728 165.204c3.475-.675 19.207-8.783 19.207-8.783s-17.614-1.495-21.137-.82c-6.516 1.304-4.585 10.907 1.93 9.604z" fill="#ffca19"/><path d="M273.162 179.538c3.572 0 20.56-4.875 20.56-4.875s-16.988-4.922-20.56-4.922c-6.708 0-6.61 9.798 0 9.798z" fill="#ffca19"/><path d="M270.798 193.678c3.523.724 21.137-.772 21.137-.772s-15.732-8.108-19.207-8.784c-6.563-1.35-8.397 8.3-1.93 9.556z" fill="#ffca19"/><path d="M265.73 207.046c3.282 1.35 20.897 3.33 20.897 3.33s-13.85-10.955-17.132-12.306c-6.178-2.558-9.894 6.466-3.765 8.976z" fill="#ffca19"/><path d="M258.105 219.256c2.944 1.93 19.835 7.287 19.835 7.287s-11.438-13.465-14.38-15.443c-5.55-3.716-10.956 4.44-5.455 8.156z" fill="#ffca19"/><path d="M248.26 229.68c2.51 2.51 18 11.052 18 11.052s-8.54-15.444-11.05-17.953c-4.73-4.73-11.63 2.22-6.95 6.9z" fill="#ffca19"/><path d="M236.58 238.03c1.98 2.943 15.493 14.332 15.493 14.332s-5.357-16.843-7.336-19.786c-3.716-5.55-11.872-.05-8.156 5.453z" fill="#ffca19"/><path d="M223.454 243.917c1.352 3.28 12.403 17.084 12.403 17.084s-1.978-17.566-3.33-20.848c-2.557-6.13-11.63-2.364-9.073 3.765z" fill="#ffca19"/><path d="M209.46 247.15c.675 3.475 8.83 19.16 8.83 19.16s1.497-17.567.773-21.09c-1.303-6.515-10.907-4.537-9.604 1.93z" fill="#ffca19"/><path d="M195.126 247.584c0 3.572 4.874 20.51 4.874 20.51s4.874-16.938 4.874-20.51c0-6.66-9.748-6.61-9.748 0z" fill="#ffca19"/><path d="M180.937 245.22c-.724 3.523.772 21.09.772 21.09s8.155-15.685 8.88-19.16c1.254-6.563-8.35-8.397-9.653-1.93z" fill="#ffca19"/><path d="M167.473 240.152c-1.352 3.282-3.33 20.85-3.33 20.85s11.05-13.804 12.403-17.085c2.557-6.178-6.516-9.845-9.073-3.765z" fill="#ffca19"/><path d="M155.263 232.576c-1.98 2.943-7.336 19.786-7.336 19.786s13.56-11.39 15.492-14.333c3.763-5.55-4.44-10.956-8.157-5.454z" fill="#ffca19"/><path d="M144.79 222.78c-2.51 2.508-11.05 17.952-11.05 17.952s15.49-8.543 18-11.052c4.73-4.73-2.268-11.582-6.95-6.9z" fill="#ffca19"/><path d="M136.44 211.1c-2.942 1.978-14.38 15.443-14.38 15.443s16.89-5.357 19.835-7.287c5.55-3.716.048-11.872-5.454-8.156z" fill="#ffca19"/><path d="M130.554 198.07c-3.33 1.35-17.133 12.306-17.133 12.306s17.568-1.98 20.85-3.33c6.177-2.558 2.364-11.534-3.716-8.976z" fill="#ffca19"/><path d="M127.272 184.122c-3.475.676-19.207 8.784-19.207 8.784s17.614 1.496 21.137.772c6.564-1.255 4.585-10.86-1.93-9.556z" fill="#ffca19"/><path d="M126.838 169.74c-3.572 0-20.56 4.923-20.56 4.923s16.988 4.875 20.56 4.875c6.66 0 6.61-9.797 0-9.797z" fill="#ffca19"/><path d="M129.202 155.6c-3.523-.675-21.137.82-21.137.82s15.732 8.11 19.207 8.784c6.612 1.303 8.397-8.3 1.93-9.603z" fill="#ffca19"/><path d="M134.27 142.184c-3.282-1.35-20.85-3.28-20.85-3.28s13.804 11.002 17.134 12.353c6.13 2.558 9.845-6.515 3.716-9.073z" fill="#ffca19"/><path d="M141.895 130.023c-2.944-1.98-19.835-7.336-19.835-7.336s11.438 13.513 14.38 15.492c5.55 3.715 10.956-4.49 5.455-8.157z" fill="#ffca19"/><path d="M151.74 119.6c-2.51-2.51-18-11.053-18-11.053s8.54 15.443 11.05 17.953c4.73 4.73 11.63-2.22 6.95-6.9z" fill="#ffca19"/><path d="M163.42 111.25c-1.932-2.944-15.493-14.334-15.493-14.334s5.357 16.795 7.336 19.787c3.764 5.502 11.872.048 8.156-5.453z" fill="#ffca19"/><path d="M176.546 105.362c-1.352-3.282-12.403-17.084-12.403-17.084s1.978 17.518 3.33 20.8c2.557 6.177 11.63 2.365 9.073-3.716z" fill="#ffca19"/><path d="M190.59 102.13c-.725-3.524-8.88-19.16-8.88-19.16s-1.497 17.566-.773 21.04c1.303 6.564 10.907 4.585 9.652-1.88z" fill="#ffca19"/><path d="M204.874 101.694c0-3.57-4.874-20.56-4.874-20.56s-4.874 16.99-4.874 20.56c0 6.612 9.748 6.612 9.748 0z" fill="#ffca19"/><path d="M219.063 104.01c.724-3.474-.772-21.04-.772-21.04s-8.155 15.636-8.83 19.16c-1.304 6.514 8.3 8.396 9.603 1.88z" fill="#ffca19"/><path d="M232.527 109.078c1.352-3.282 3.33-20.8 3.33-20.8s-11.05 13.802-12.403 17.084c-2.557 6.13 6.564 9.845 9.073 3.716z" fill="#ffca19"/><path d="M244.737 116.703c1.98-2.992 7.336-19.787 7.336-19.787s-13.513 11.39-15.492 14.334c-3.763 5.55 4.44 10.955 8.157 5.453z" fill="#ffca19"/><path d="M98.364 187.115s-2.22-.82-2.51 1.158c-.723 4.778 1.304 19.4.532 18.387-1.4-1.834-11.824-29.342-13.706-26.35-2.558 4.005 11.68 35.326 10.858 36.243-2.847 3.33-19.16-30.548-20.51-28.087-4.97 9.555 20.172 40.345 20.028 41.648-.58 4.102-19.16-16.6-20.704-14.38-3.475 4.97 20.028 23.212 21.234 24.61 3.668 4.152-12.885-7.382-13.368-3.377-.434 3.234 8.012 9.797 13.03 12.644 5.02 2.85 6.66 1.932 8.06 4.393 1.11 1.834-9.41-1.206-9.12 1.11.578 4.488 11.533 3.57 13.222 5.598 1.64 2.028-7.48.484-7.142 2.125.627 2.944 9.94 3.426 10.086 4.633.145 1.303-5.84.434-5.453 2.847.29 2.075 9.46 1.64 11.68 3.09 2.22 1.446-8.205.192-.097 4.197 8.108 3.958 17.374 8.397 30.018 10.86 12.693 2.412 19.112-.29 19.594-1.11.435-.822-5.984.674-15.008-.966-8.977-1.593-20.994-7.19-25.868-10.04-1.544-.867 4.73-2.653 3.427-4.342-1.303-1.737-6.42.24-8.398-2.22-1.254-1.592 2.413-1.64 2.317-2.606-.048-.965-6.998-2.558-8.253-4.247-1.205-1.736 3.138-1.447 3.33-2.605.098-.82-4.39-2.316-4.68-3.426-.338-1.16 5.02-.822 2.51-2.22-2.655-1.45-9.894-3.283-11.245-5.84-1.35-2.51 5.502.337 3.716-2.028-1.205-1.64-7.865-4.44-9.265-8.252-.917-2.558 4.68-.338 4.778-1.93.145-2.607-3.33-.966-4.44-8.398-.338-2.413 4.44-.772 4.44-.772l.627-1.303s5.598 3.09 12.886 11.39c7.287 8.3 9.314 16.166 16.167 21.813 3.282 2.702 3.33-1.11 10.762 3.475 7.432 4.536 10.52 7.72 18.242 14.285 1.11.917 6.177-.917 21.09 2.123 8.01 1.64 9.7 5.84 9.7 5.84.048.144 4.488-2.703 6.612-5.888.82-1.255 1.688-.048 1.93-.29.82-.724-.146-1.737-.146-1.737-50.77.193-96.81-38.705-100.96-90.053z" fill="#214b89"/><path d="M316.808 180.658c-.484-.083-1 .46-1.36.86-1.498 1.833-3.43 6.132-5.552 10.765-3.137 6.853-6.572 14.368-7.248 15.333-.772.965.78-14.556.105-19.333-.29-1.98-2.555-1.173-2.555-1.173-3.137 48.55-50.59 84.655-88.33 89.964-9.846 1.4-12.92 5.982-23.586 11.918-3.62 2.027-9.187 2.938-14.013 5.593-4.78 2.654-8.19 6.67-9.783 9.132-.772 1.207.327 4.72 1.34 5.153 1.014.434.964-2.66 2.074-3.142 1.16-.58 1.17 1.075 2.473 1.027 1.303-.097 2.786-1.362 2.786-1.362s26.696.003 38.037-.335c2.027-.048 5.444-.865 6.89-2.41-.433-1.205-3.514-.53-5.445-.48-8.06-.532-18.528 0-26.057-.482 0 0-1.248-.093-1.152-1.3.05-.482 4.818-5.55 4.818-5.55h-3.81s-2.222 1.307-3.332 1.404c-1.158.096-1.586-.584-1.152-.922 5.743-4.344 22.77-11.92 22.77-11.92s4.493-1.694 12.504-3.287c14.96-3.088 20.115-2.07 21.176-3.036 11.872-12.934 20.567-13.993 29.157-17.323 6.853-5.645 9.072-13.754 16.36-22.055 7.238-8.3 11.54-8.986 11.54-8.986l.964 1.842s3.853-2.9 3.708-.44c-.338 3.668-3.364 7.197-3.268 9.803.097 1.64 5.342-.72 4.86.775-1.207 3.86-5.392 6.22-6.598 7.813-1.787 2.413 4.764-.813 3.413 1.697-1.35 2.558-7.95 5.062-10.557 6.703-1.593 1.013 1.72 1.194 1.382 2.304-.337 1.158-7.134 3.634-7.037 4.503.145 1.158 1.826 1.24 1.006 2.157-1.448 1.545-7.088 1.737-7.185 2.703-.095.965 1.214 1.995-.04 3.54-1.98 2.46-3.58-.017-4.4 2.01-.482 1.11 3.285 3.435.776 3.917-3.475.58-6.042 2.083-8.986 3.917-1.11.676-6.174 1.574-9.07 2.346-1.93.435-12.5 1.756-12.065 2.577.435.82 7.148.716 21.24-1.697 6.13-1.014 9.652-1.742 19.207-4.734 10.86-3.378-2.854-3.663-.586-5.11 2.22-1.45 11.685-.732 12.023-2.808.385-2.413-5.215-1.692-5.07-2.995.145-1.255 11.542-1.203 12.17-4.147.338-1.69-6.522-.53-4.88-2.556 1.64-2.027 10.77-2.465 11.06-6.325.144-2.317-7.445.436-6.432-1.446.386-.725 3.474-1.543 6.515-3.666 4.73-3.234 12.304-8.867 11.918-12.15-.53-3.956-15.713 9.257-14.41 4.19.483-1.786 24.805-20.754 20.8-25.387-2.703-3.137-20.032 17.278-20.61 13.175-.194-1.303 27.068-31.61 22.097-41.117-1.35-2.51-21.82 36.2-24.717 32.823-.82-.917 17.474-38.17 14.58-41.935-.146-.193-.3-.307-.462-.335zm15.932 540.282c.37-.005.652.06.67.314.048.58-.522 1.064-1.487 1.257-.965.242-2.13.538-2.178-.04-.05-.58.48-1.016 1.445-1.258.09-.03.932-.263 1.55-.272z" fill="#214b89"/><path d="M237.353 293.914c-1.69-.145-1.447 1.303-1.447 1.303.144 2.027-1.352 4.2-3.04 4.633-1.352.338-.677 1.303-1.11 2.172l-5.55-.24c-8.832 4.728-19.884 6.37-33.06 4.92 0 0-2.798 2.076-5.308 4.2-2.46 2.17-4.198 2.654-4.68 4.39-.532 1.74 1.302 2.656 3.57 2.704 2.317.096 5.26-2.027 5.26-2.027s.387 1.736 2.51 1.93c2.124.144 5.936-1.255 5.936-1.255s3.186 1.447 5.647 1.11c2.462-.29 4.585-1.834 4.585-1.834s.628 2.8 3.04 2.945c2.462.096 6.226-3.04 6.226-3.04s1.787 2.074 4.055 1.785c2.268-.24 4.97-2.847 4.97-2.847s2.8 1.158 5.406.386c2.655-.725 5.117-3.38 5.117-3.38s2.365 1.883 4.44 1.207c2.123-.676 3.523-3.57 3.523-3.57s5.646 2.17 9.41.433c2.606-1.255 1.93-5.357 1.93-5.357s15.492 2.22 14.817-7.77c-.05-.965-22.49-.724-34.17-2.46-.674-.098-1.398-.29-2.074-.34z" fill="#214b89"/><path d="M332.908 315.39l3.09-4.054-19.98-15.347-3.09 4.053 19.98 15.347z" fill="#fff"/><path d="M149.657 31.04l-4.86 1.445.713 2.408c-3.282.966-5.346 2.37-6.263 4.253-.965 1.882-.98 4.247-.063 7.142.82 2.896 2.13 4.93 3.917 5.99 1.787 1.063 4.35 1.113 7.584.147l1.403 4.63 4.86-1.488-1.34-4.587c3.232-.965 5.345-2.412 6.262-4.294.916-1.93.93-4.295.062-7.142-.82-2.8-2.132-4.776-3.917-5.886-1.786-1.11-4.343-1.17-7.625-.252l-.733-2.367zm76.12 354.095c.76-.022 1.406.174 1.95.566.868.628 1.563 1.84 2.094 3.624.58 1.883.66 3.33.273 4.294-.386.966-1.344 1.646-2.744 2.032l-3.038-10.242c.525-.163 1.012-.26 1.466-.273zm-4.76 4.55l3.038 10.286c-1.448.435-2.615.33-3.435-.25-.87-.58-1.543-1.826-2.074-3.708-.58-1.786-.658-3.176-.272-4.19.386-1.013 1.296-1.7 2.744-2.136z" fill="#fff"/><path d="M174.76 51.31l4.826-.627L183.4 24.72l-4.393.578-1.64 13.368-5.406-12.45-5.018.675 8.928 17.81-1.11 6.61z" fill="#fff"/><path d="M201.448 49.284l.193-21.428 5.502.048v-3.812l-16.022-.145-.048 3.813 5.502.048-.145 21.427 5.018.05z" fill="#fff"/><path d="M216.35 24.776l-2.828 25.094 7.227.817c5.26.676 8.007-1.206 8.587-6.514.24-2.22.055-3.863-.524-5.07-1.255-2.46-3.81-3.193-6.368-3.434l-2.136-.232.69-6.284 7.33.817.44-3.81-12.42-1.384zm109.16 359.666l1.82.21c2.414.24 2.804 1.74 2.515 3.96-.194 2.267-.815 3.855-3.373 3.518l-1.78-.252.817-7.436z" fill="#fff"/><path d="M246.596 30.222c-.404-.01-.814.007-1.194.042-1.303.145-2.4.675-3.414 1.592-.965.965-1.788 2.477-2.367 4.504l-2.22 8.106c-.675 2.365-.92 4.333-.774 5.78.145 1.497.69 2.658 1.655 3.478 1.98 1.738 6.22 2.885 8.777 2.45 1.255-.24 2.31-1.013 3.226-2.22.87-1.254 1.69-3.083 2.367-5.592l2.178-7.813c.724-2.993.566-5.27-.544-6.767-1.605-2.238-4.86-3.48-7.688-3.56zM488.24 730.112c1.113-.124 2.414.44 2.85 1.382.288.724.188 1.922-.294 3.708l-2.662 9.656c-.386 1.496-.866 2.463-1.445 2.85-1.158.867-3.33.185-3.96-1.07-.288-.675-.28-1.777.106-3.225l2.66-9.7c.53-1.737 1.11-2.84 1.738-3.225.29-.205.634-.336 1.005-.377z" fill="#fff"/><path d="M267.998 37.75l-7.19 16.6c-.965 2.22-1.593 3.67-3.91 2.173l-1.35 3.233c4.39 3.957 7.72 1.98 9.893-3.233l5.744-13.224 3.667 1.592-8.54 19.642 4.68 2.027 10.04-23.116-13.032-5.694z" fill="#fff"/><path d="M302.753 61.747c-.267-.008-.515.01-.775.04-2.075.243-4.06 1.54-5.99 3.856-1.98 2.268-2.946 4.44-2.85 6.514.097 2.123 1.395 4.294 4.002 6.514l-3.12 3.667 3.895 3.33 3.1-3.665c2.606 2.17 4.914 3.18 7.038 2.89 2.075-.24 4.06-1.496 5.99-3.812 1.882-2.22 2.84-4.39 2.744-6.514-.048-2.124-1.353-4.295-3.96-6.515l1.656-1.884-3.917-3.33-1.592 1.885c-2.28-1.942-4.352-2.92-6.22-2.973zM599.877 793.3c.94-.044 1.898.37 2.87 1.213l-6.892 8.148c-1.158-.964-1.745-1.974-1.697-3.036 0-1.013.687-2.274 1.99-3.77 1.207-1.448 2.317-2.272 3.33-2.514.133-.024.265-.035.4-.04zm7.22 6.842c1.11.965 1.688 1.975 1.59 3.037-.047 1.06-.678 2.307-1.884 3.706-1.254 1.545-2.4 2.405-3.413 2.598-1.014.193-2.09-.18-3.247-1.194l6.954-8.148z" fill="#fff"/><path d="M336.673 89.34l-8.3-9.363-18.823 16.746 8.253 9.363 2.896-2.51-4.924-5.55 5.453-4.777 4.44 5.018 2.847-2.51-4.44-5.067 4.874-4.343 4.875 5.55 2.848-2.557z" fill="#fff"/><path d="M343.954 99.324l-5.697 3.77c-2.365 1.593-4.678 2.898-6.85 3.96-2.17 1.06-4.3 1.82-6.472 2.303l-.963-1.53-7.08 6.118 2.555 3.958 4.336-3.477 5.362 8.17-4.817 2.66 2.597 3.895 8.358-4.188-1.362-2.073 17.805-11.836-7.77-11.73zM680.4 869.544l2.072 3.183-14.62 9.72-3.142-4.733c1.93-.53 3.965-1.306 6.137-2.367 2.124-1.014 4.388-2.36 6.85-4l2.702-1.802z" fill="#fff"/><path d="M362.78 133.74l-5.21-11.39-22.876 10.52 5.164 11.34 3.474-1.543-3.04-6.756 6.563-2.992 2.8 6.13 3.474-1.545-2.8-6.177 5.936-2.703 3.04 6.708 3.475-1.59z" fill="#fff"/><path d="M366.41 143.73l-24.13 7.185 1.444 4.922 9.656-2.89.566 1.926c.434 1.64 1.008 3.038 1.78 4.148 1.207 1.93 3.05 2.38 5.174 2.137.87-.096 1.83-.34 2.89-.628 1.303-.435 2.378-.93 3.247-1.51 1.64-1.157 2.302-2.497 2.158-4.524-.05-1.013-.278-2.267-.713-3.812l-2.073-6.954zM723.1 957.26l.63 2.116c.626 2.317-.733 3.282-2.808 3.812-1.255.435-2.215.53-2.89.336-.725-.242-1.263-1.066-1.697-2.514l-.482-1.592 7.247-2.157z" fill="#fff"/><path d="M347.725 170.416l.628 4.964 5.593.293.67 5.467-5.3 1.676.67 5.027 24.236-9.028-.817-6.074-25.68-2.324zm180.34 422.3l11.374.587-10.852 3.52-.523-4.106z" fill="#fff"/><path d="M375.425 199.47l.05-5.116-25.145-.193-.096 12.355-5.502-.482v4.68l9.266 1.256v-2.51l21.38.192.047-5.164-21.38-.145.05-5.02 21.33.146z" fill="#fff"/><path d="M374.17 222.393l-24.805-4.15-.87 5.067 15.59 9.024-16.602-2.8-.724 4.345 24.805 4.15.82-4.78-16.264-9.41 17.327 2.896.724-4.343z" fill="#fff"/><path d="M344.918 240.774l-1.676 4.985c.82.482 1.722.855 2.64 1.193l3.812 1.508c1.93.773 2.944 1.774 2.22 3.897l-.524 1.508-9.74-3.288-1.592 4.88 23.837 8.002 2.304-6.997c1.544-4.633 1.066-7.73-4.002-9.468-.434-.145-.864-.24-1.298-.335-2.558-.435-4.403.002-5.802 2.367.434-2.896-1.198-4.286-3.708-5.3l-3.917-1.654c-.868-.386-1.735-.816-2.555-1.3zm181.766 462.043c.63-.054 1.343.088 2.158.377 2.268.724 3.23 1.825 2.408 4.19l-.48 1.508-6.893-2.325.482-1.53c.482-1.477 1.274-2.13 2.324-2.22z" fill="#fff"/><path d="M340.003 275.575l-1.352-.675c-1.398-.724-3.136-1.93-2.22-3.716.58-1.062 1.497-1.448 2.704-1.207 1.255.24 2.606.772 4.054 1.544l5.55 2.8c1.544.724 2.8 1.497 3.57 2.27.82.77 1.014 1.64.532 2.7-.193.387-.435.677-.676.87-1.062.772-2.51.193-3.57-.29l-.773-.386-2.316 4.585.724.337c2.8 1.4 5.743 1.93 8.06-.53.723-.677 1.35-1.642 1.93-2.8 1.786-3.668 1.737-7.046-1.786-9.41-1.013-.725-2.17-1.352-3.378-1.93l-5.502-2.752c-1.4-.724-2.75-1.303-4.005-1.69-2.268-.723-4.585-.626-6.37 1.063-.773.772-1.545 1.882-2.27 3.33-1.253 2.606-1.784 5.356.436 7.625.917.917 2.123 1.737 3.667 2.51l.724.337 2.27-4.585z" fill="#fff"/><path d="M326.4 282.436l-4.44 5.78c-1.688 2.173-2.47 4.114-2.324 5.803.145 1.688 1.305 3.323 3.477 4.963 1.737 1.303 3.284 2.02 4.587 2.116 1.303.096 2.464-.178 3.477-.902.965-.675 1.882-1.655 2.702-2.765l1.34-1.738 8.022 6.18 3.08-4.106-19.92-15.334zm159.652 478.41l5.885 4.546-1.11 1.446c-.627.917-1.308 1.355-2.032 1.403-.675 0-1.577-.393-2.64-1.214-1.11-.87-1.796-1.643-1.99-2.367-.192-.676.06-1.5.734-2.368l1.152-1.445z" fill="#fff"/><path d="M65.79 268.234l-18.77 17.763 3.143 5.32 24.55-7.918-2.557-4.357-5.257 1.948-2.745-4.69 4.19-3.667-2.556-4.4zm26.967 475.594l2.073 3.56-10.703 3.918 8.63-7.478z" fill="#fff"/><path d="M47.498 263.848l3.523-1.4-.53-1.4c-.965-2.315.242-3.715 2.413-4.632 1.786-.724 3.813-.917 4.633 1.207 1.303 2.895-1.592 3.812-3.716 4.633l1.882 4.777c2.27-.868 4.537-1.882 5.743-4.198.82-1.64.724-3.813-.338-6.564-1.882-4.632-5.308-6.514-10.086-4.632-3.04 1.207-4.053 3.523-3.522 6.66-1.592-2.22-4.295-3.04-6.853-2.075-4.536 1.786-5.26 5.453-3.57 9.7.482 1.207 1.012 2.22 1.64 2.992 2.413 3.09 5.598 2.27 8.735 1.014l-1.834-4.78c-1.303.484-3.282 1.4-4.44.242-.24-.24-.483-.53-.627-.917-.822-2.026.578-2.943 2.267-3.57 1.544-.628 3.233-.58 3.957 1.11l.724 1.833z" fill="#fff"/><path d="M52.027 227.117l-23.104 11.5 1.445 5.97 25.827-.378-1.215-4.88-5.55.292-1.257-5.258 5.07-2.325-1.216-4.923zm17.37 453.524l.964 4.022-11.394.67 10.432-4.69z" fill="#fff"/><path d="M41.707 187.983l1.544.097c1.546.096 3.62.53 3.476 2.51-.338 2.895-4.343 2.51-6.37 2.364l-6.178-.386c-1.978-.097-5.84-.145-5.743-2.992.097-2.027 2.076-2.268 3.668-2.172l.917.048.29-5.115c-5.31-.386-8.35 1.255-8.64 6.95-.24 4.005.966 7.142 5.26 7.962 1.256.24 2.51.385 3.91.434l6.13.386c6.177.482 10.134-.58 10.52-7.432.435-6.13-3.137-7.53-8.494-7.77l-.29 5.115z" fill="#fff"/><path d="M53.338 167.714l-20.85-4.633 1.16-5.356-3.717-.82-3.473 15.78 3.716.773 1.158-5.357 20.898 4.633 1.11-5.02z" fill="#fff"/><path d="M35.48 138.808l-1.928 5.844 22.057 13.363 1.59-4.733-4.88-2.744 1.74-5.11 5.507.753 1.592-4.817-25.68-2.555zm20.08 405.747l11.332 1.634-1.3 3.853-10.032-5.488z" fill="#fff"/><path d="M44.41 118.682l-2.51 4.488 21.91 12.403 2.51-4.44-9.797-5.598 2.46-4.392 9.846 5.55 2.51-4.488-21.912-12.403-2.51 4.488 8.784 4.97-2.51 4.393-8.783-4.97z" fill="#fff"/><path d="M58.887 95.565l-3.136 4.102 19.98 15.347 3.09-4.102-8.93-6.853 3.09-4.007 8.928 6.853 3.136-4.054-19.98-15.395-3.136 4.103 8.01 6.177-3.04 4.005-8.01-6.177z" fill="#fff"/><path d="M90.208 62.555l-3.86 3.427 16.697 18.87 3.86-3.38L90.21 62.556z" fill="#fff"/><path d="M77.476 73.895l-3.812 3.373 16.632 18.914 5.508-4.817c3.958-3.475 4.5-6.76.88-10.767-1.448-1.64-2.802-2.657-4.105-2.995-2.607-.724-4.927.692-6.81 2.43l-1.59 1.445-6.704-7.583zm49.747 377.69c.97-.04 1.84.65 2.744 1.677 1.496 1.69 2.314 3.17.335 4.86l-1.34 1.214-4.964-5.592 1.34-1.215c.688-.635 1.303-.92 1.885-.944z" fill="#fff"/><path d="M104.155 52.71l-4.295 2.848 13.9 21.04 4.294-2.846-6.225-9.41 4.197-2.8 6.226 9.41 2.316-1.544 1.737 4.392 4.198-2.124-3.136-8.83c-1.16.626-2.125 1.11-3.283 1.59L112.6 47.065l-4.246 2.847 5.55 8.447-4.2 2.8-5.55-8.447z" fill="#fff"/><path d="M39.583 216.65c-.096-1.303-.53-3.282.435-4.344.53-.482 1.4-.82 2.702-1.013l4.44-.58c1.014-.096 2.027-.337 3.04-.627l-.24-2.654h.482l5.502.193-.193-4.68-9.314-.773c.05 1.206.145 2.413.097 3.57l-4.247.628c-1.737.242-2.992.676-3.764 1.255-.724.627-1.207 1.69-1.448 3.09-.483-.822-1.062-1.4-1.64-1.74-.628-.336-1.4-.53-2.22-.48l-2.703.047c-.772 0-1.35-.048-1.69-.145-.867-.29-.626-1.11-.433-1.737l-3.57.29c-.532 1.447-.435 3.667.578 4.874.53.627 1.4.965 2.654.965l4.39-.05c1.16 0 1.93.242 2.462.676.965.87.82 2.317.917 3.523l-10.28.82.434 5.115 25.095-1.978-.435-5.116-11.052.87z" fill="#fff"/><path d="M75.44 302.746c-1.93-2.413-3.28-3.62-.385-6.178 1.93-1.69 3.91-3.233 5.5-5.212l-1.543-1.978c2.123-1.014 3.523-2.075 5.164-3.09l-2.75-3.81-8.205 4.487c.676.917 1.45 1.834 1.98 2.8l-3.282 2.99c-2.22 1.98-3.234 3.717-1.882 6.613-1.593-.773-2.993-.82-4.44.24l-2.22 1.497c-1.303.917-2.27 1.448-2.8-.338l-2.8 2.268c.388 1.496 1.74 3.234 3.235 3.716 1.93.484 4.875-2.17 6.37-3.232 2.656-1.786 3.524-.386 5.117 1.64l-8.06 6.37 3.186 4.055 19.69-15.733-3.185-4.054-8.687 6.95z" fill="#fff"/><path d="M244.4 160.86l-.58-21.233s3.764 1.06 6.805 2.22c5.936 9.072 9.46 19.93 9.99 30.74-1.786 2.704-4.2 5.792-4.2 5.792L244.4 160.86z" fill="#fff"/><path d="M227.412 213.03l20.028-7.094s.144 3.91 0 7.142c-6.757 8.446-16.023 15.154-26.157 19.015-3.137-.87-6.805-2.22-6.805-2.22l12.934-16.843z" fill="#fff"/><path d="M172.588 213.03l12.934 16.843s-3.668 1.35-6.805 2.22c-10.134-3.86-19.4-10.57-26.157-19.015-.144-3.233 0-7.142 0-7.142l20.028 7.094z" fill="#fff"/><path d="M155.6 160.86l-12.016 17.52s-2.413-3.09-4.2-5.792c.532-10.81 4.055-21.67 9.99-30.74 3.042-1.16 6.806-2.22 6.806-2.22l-.58 21.233z" fill="#fff"/><path d="M200 128.575l-20.366-6.032s2.172-3.234 4.247-5.743c10.425-2.896 21.815-2.896 32.24 0 2.074 2.51 4.246 5.743 4.246 5.743L200 128.575z" fill="#fff"/><path d="M221.862 213.61c-2.22 3.378-6.033 9.12-7.143 10.858-1.593 2.365-4.682 4.392-7.578 3.91-1.69-.29-3.233-1.352-4.584-3.138-1.448-1.882-2.268-4.392-2.558-7.046-.29 2.654-1.11 5.164-2.558 7.046-1.35 1.786-2.895 2.847-4.584 3.137-2.896.483-5.985-1.544-7.577-3.91-1.11-1.736-4.922-7.48-7.142-10.858-1.882-2.848-1.4-6.37.435-8.832-1.834 2.46-4.97 4.054-8.253 3.137-3.91-1.062-10.57-2.896-12.548-3.475-2.75-.724-5.646-3.04-6.032-5.936-.24-1.69.24-3.475 1.544-5.31 1.352-1.93 3.475-3.473 5.888-4.632-2.606.483-5.26.483-7.53-.29-2.074-.723-3.57-1.88-4.342-3.377-1.4-2.606-.434-6.178 1.35-8.398 1.304-1.592 5.6-7.046 8.11-10.183 2.17-2.654 5.645-3.233 8.54-2.316-2.895-.917-5.356-3.475-5.55-6.9-.192-4.007-.482-10.908-.578-12.983-.145-2.848 1.206-6.274 3.86-7.577 1.497-.772 3.38-.82 5.502-.193 2.27.676 4.392 2.268 6.226 4.2-1.255-2.366-2.075-4.876-2.027-7.24.048-2.22.676-3.958 1.882-5.164 2.027-2.17 5.743-2.316 8.397-1.35 1.93.723 8.398 3.185 12.162 4.584 3.185 1.255 4.826 4.344 4.826 7.432 0-3.088 1.64-6.177 4.826-7.432 3.764-1.4 10.23-3.86 12.162-4.585 2.654-.966 6.37-.82 8.397 1.35 1.206 1.207 1.834 2.945 1.882 5.165.048 2.364-.772 4.874-2.027 7.24 1.834-1.932 3.957-3.524 6.226-4.2 2.123-.627 4.005-.58 5.5.193 2.656 1.303 4.007 4.73 3.862 7.577-.096 2.075-.386 8.976-.58 12.982-.192 3.426-2.653 5.984-5.55 6.9 2.897-.916 6.37-.337 8.543 2.317 2.51 3.137 6.806 8.59 8.11 10.183 1.784 2.22 2.75 5.792 1.35 8.398-.772 1.496-2.268 2.654-4.343 3.378-2.27.772-4.923.772-7.53.29 2.414 1.158 4.537 2.702 5.89 4.632 1.302 1.834 1.784 3.62 1.543 5.31-.386 2.895-3.282 5.21-6.032 5.935-1.98.58-8.64 2.413-12.548 3.475-3.282.917-6.42-.676-8.253-3.137 1.834 2.46 2.317 5.984.435 8.83z" fill="#fff"/><path d="M178.186 167.81l21.428-16.6c-.193-2.8-.338-6.227-.338-9.508 0-4.392-1.98-6.13-6.467-8.06-12.162-4.39-13.658-4.536-14.913.82-.965 7.578 8.108 4.634 7.72 4.923-2.363 1.738-2.99 2.172-6.61 1.352 14.478 15.25 12.258-2.172 12.982-1.352 2.315 2.558 1.59 16.698-9.557 9.604-1.35-.87-2.75-2.076-4.054-3.524.916 1.737 1.64 3.427 2.026 4.97 3.33 12.79-10.327 9.122-12.065 6.13-.53-.965 15.348 6.515 5.31-11.92-.338 3.667-.917 4.15-3.33 5.84-.386.29 5.212-7.385-2.316-8.832-5.454-.483-5.792 1.013-5.357 13.898.482 4.875 1.447 7.288 5.646 8.64 3.523 1.157 7.143 2.557 9.893 3.62z" fill="#214b89"/><path d="M186.198 193.726l-8.253-25.24c-2.847-.724-6.61-1.737-10.134-2.847-4.15-1.352-6.37 0-9.603 3.667-7.963 10.182-8.542 11.582-3.86 14.43 6.948 3.233 6.948-6.274 7.093-5.84.917 2.8 1.11 3.523-.772 6.708 18.966-9.073 1.737-12.306 2.703-12.79 3.186-1.398 16.41 3.67 6.178 12.066-1.207 1.015-2.8 1.98-4.585 2.8 1.93-.386 3.764-.53 5.357-.434 13.175.82 5.502 12.644 2.123 13.368-1.11.24 10.907-12.548-9.748-8.735 3.378 1.495 3.668 2.17 4.585 5.018.144.434-5.454-7.287-9.17-.58-2.123 5.02-.82 5.792 11.63 9.363 4.73 1.063 7.336.87 9.942-2.7 2.172-2.945 4.633-5.986 6.516-8.254z" fill="#214b89"/><path d="M213.223 194.112c-8.83.386-17.615.386-26.446 0-1.593 2.51-3.716 5.79-5.888 8.784-2.607 3.523-1.98 6.08.482 10.28 7.287 10.713 8.397 11.678 12.547 8.107 5.21-5.598-3.813-8.542-3.33-8.542 2.943 0 3.715.05 6.128 2.8-2.75-20.752-11.196-5.454-11.293-6.515-.386-3.475 8.494-14.382 13.368-2.124.58 1.45 1.014 3.235 1.207 5.165.193-1.93.627-3.716 1.207-5.164 4.874-12.257 13.754-1.35 13.368 2.125-.097 1.06-8.542-14.237-11.293 6.515 2.413-2.75 3.185-2.8 6.13-2.8.48 0-8.543 2.945-3.33 8.543 4.15 3.57 5.26 2.606 12.546-8.108 2.462-4.2 3.09-6.756.483-10.28-2.17-2.992-4.294-6.273-5.887-8.783z" fill="#214b89"/><path d="M222.055 168.486l-8.253 25.24c1.883 2.268 4.344 5.31 6.516 8.253 2.606 3.57 5.212 3.763 9.94 2.7 12.452-3.57 13.755-4.342 11.632-9.36-3.716-6.71-9.314 1.012-9.17.578.917-2.847 1.207-3.523 4.585-5.02-20.655-3.812-8.64 8.977-9.748 8.736-3.38-.724-11.052-12.548 2.123-13.368 1.593-.097 3.426.048 5.357.434-1.786-.82-3.378-1.785-4.585-2.8-10.23-8.396 2.992-13.463 6.177-12.064.965.483-16.264 3.716 2.702 12.79-1.882-3.186-1.69-3.91-.772-6.71.145-.433.145 9.074 7.094 5.84 4.68-2.847 4.102-4.247-3.86-14.43-3.234-3.667-5.454-5.018-9.605-3.667-3.524 1.11-7.288 2.122-10.135 2.846z" fill="#214b89"/><path d="M200.386 151.21l21.428 16.6c2.75-1.06 6.37-2.46 9.893-3.62 4.2-1.35 5.164-3.763 5.646-8.638.435-12.885.097-14.38-5.357-13.898-7.528 1.447-1.93 9.12-2.316 8.83-2.413-1.688-2.992-2.17-3.33-5.838-10.038 18.435 5.84 10.955 5.31 11.92-1.74 2.992-15.396 6.66-12.066-6.13.386-1.543 1.11-3.233 2.027-4.97-1.302 1.448-2.702 2.654-4.053 3.523-11.148 7.093-11.872-7.047-9.556-9.605.725-.82-1.495 16.602 12.983 1.352-3.62.82-4.247.386-6.61-1.352-.388-.29 8.685 2.655 7.72-4.922-1.255-5.357-2.75-5.212-14.912-.82-4.487 1.93-6.466 3.667-6.466 8.06 0 3.28-.145 6.707-.338 9.506z" fill="#214b89"/></g></svg>