<?xml version="1.0" encoding="UTF-8" standalone="no"?>
<!-- Created with Inkscape (http://www.inkscape.org/) -->
<!DOCTYPE svg PUBLIC "-//W3C//DTD SVG 1.1//EN" "http://www.w3.org/Graphics/SVG/1.1/DTD/svg11.dtd">
<svg
   xmlns:svg="http://www.w3.org/2000/svg"
   xmlns="http://www.w3.org/2000/svg"
   version="1.1"
   width="400"
   height="400"
   id="svg2">
  <defs
     id="defs398" />
  <g
     transform="matrix(0.67027912,0,0,0.67027912,0.54102059,-223.24775)"
     id="g3336">
    <path
       d="m 297.576,914.914 c 156.096,0 283.464,-127.368 283.464,-283.464 0,-156.096 -127.368,-283.464 -283.464,-283.464 -156.096,0 -283.464,127.368 -283.464,283.464 0,156.096 127.368,283.464 283.464,283.464 z"
       id="path6"
       style="fill:#ffca19;fill-opacity:1" />
    <path
       d="m 297.576,903.754 c 149.976,0 272.304,-122.328 272.304,-272.304 0,-149.976 -122.328,-272.304 -272.304,-272.304 -149.976,0 -272.304,122.328 -272.304,272.304 0,149.976 122.328,272.304 272.304,272.304 z"
       id="path10"
       style="fill:#214b89;fill-opacity:1" />
    <path
       d="m 297.576,846.226 c 118.296,0 214.776,-96.552 214.776,-214.776 0,-118.296 -96.48,-214.776 -214.776,-214.776 -118.224,0 -214.776,96.48 -214.776,214.776 0,118.224 96.552,214.776 214.776,214.776 z"
       id="path14"
       style="fill:#ffca19;fill-opacity:1" />
    <path
       d="m 297.576,835.066 c 112.176,0 203.616,-91.44 203.616,-203.616 0,-112.176 -91.44,-203.616 -203.616,-203.616 -112.176,0 -203.616,91.44 -203.616,203.616 0,112.176 91.44,203.616 203.616,203.616 z"
       id="path18"
       style="fill:white" />
    <path
       d="m 297.576,689.41 c 52.2,0 94.896,-42.624 94.896,-94.824 0,-52.272 -42.696,-94.896 -94.896,-94.896 -52.2,0 -94.896,42.624 -94.896,94.896 0,52.2 42.696,94.824 94.896,94.824 z"
       id="path22"
       style="fill:#214b89;fill-opacity:1" />
    <path
       d="m 379.944,521.794 c 3.744,-3.744 16.488,-26.784 16.488,-26.784 0,0 -23.112,12.744 -26.856,16.488 -7.056,6.984 3.384,17.28 10.368,10.296 z"
       id="path26"
       style="fill:#ffca19;fill-opacity:1" />
    <path
       d="m 392.4,539.218 c 4.392,-2.952 21.456,-23.112 21.456,-23.112 0,0 -25.2,7.992 -29.592,10.944 -8.28,5.544 -0.072,17.64 8.136,12.168 z"
       id="path30"
       style="fill:#ffca19;fill-opacity:1" />
    <path
       d="m 401.256,558.73 c 4.896,-2.016 25.56,-18.432 25.56,-18.432 0,0 -26.28,2.88 -31.176,4.896 -9.216,3.816 -3.528,17.28 5.616,13.536 z"
       id="path34"
       style="fill:#ffca19;fill-opacity:1" />
    <path
       d="m 406.08,579.538 c 5.184,-1.008 28.656,-13.104 28.656,-13.104 0,0 -26.28,-2.232 -31.536,-1.224 -9.72,1.944 -6.84,16.272 2.88,14.328 z"
       id="path38"
       style="fill:#ffca19;fill-opacity:1" />
    <path
       d="m 406.728,600.922 c 5.328,0 30.672,-7.272 30.672,-7.272 0,0 -25.344,-7.344 -30.672,-7.344 -10.008,0 -9.864,14.616 0,14.616 z"
       id="path42"
       style="fill:#ffca19;fill-opacity:1" />
    <path
       d="m 403.2,622.018 c 5.256,1.08 31.536,-1.152 31.536,-1.152 0,0 -23.472,-12.096 -28.656,-13.104 -9.792,-2.016 -12.528,12.384 -2.88,14.256 z"
       id="path46"
       style="fill:#ffca19;fill-opacity:1" />
    <path
       d="m 395.64,641.962 c 4.896,2.016 31.176,4.968 31.176,4.968 0,0 -20.664,-16.344 -25.56,-18.36 -9.216,-3.816 -14.76,9.648 -5.616,13.392 z"
       id="path50"
       style="fill:#ffca19;fill-opacity:1" />
    <path
       d="m 384.264,660.178 c 4.392,2.88 29.592,10.872 29.592,10.872 0,0 -17.064,-20.088 -21.456,-23.04 -8.28,-5.544 -16.344,6.624 -8.136,12.168 z"
       id="path54"
       style="fill:#ffca19;fill-opacity:1" />
    <path
       d="m 369.576,675.73 c 3.744,3.744 26.856,16.488 26.856,16.488 0,0 -12.744,-23.04 -16.488,-26.784 -7.056,-7.056 -17.352,3.312 -10.368,10.296 z"
       id="path58"
       style="fill:#ffca19;fill-opacity:1" />
    <path
       d="m 352.152,688.186 c 2.952,4.392 23.112,21.384 23.112,21.384 0,0 -7.992,-25.128 -10.944,-29.52 -5.544,-8.28 -17.712,-0.072 -12.168,8.136 z"
       id="path62"
       style="fill:#ffca19;fill-opacity:1" />
    <path
       d="m 332.568,696.97 c 2.016,4.896 18.504,25.488 18.504,25.488 0,0 -2.952,-26.208 -4.968,-31.104 -3.816,-9.144 -17.352,-3.528 -13.536,5.616 z"
       id="path66"
       style="fill:#ffca19;fill-opacity:1" />
    <path
       d="m 311.688,701.794 c 1.008,5.184 13.176,28.584 13.176,28.584 0,0 2.232,-26.208 1.152,-31.464 -1.944,-9.72 -16.272,-6.768 -14.328,2.88 z"
       id="path70"
       style="fill:#ffca19;fill-opacity:1" />
    <path
       d="m 290.304,702.442 c 0,5.328 7.272,30.6 7.272,30.6 0,0 7.272,-25.272 7.272,-30.6 0,-9.936 -14.544,-9.864 -14.544,0 z"
       id="path74"
       style="fill:#ffca19;fill-opacity:1" />
    <path
       d="m 269.136,698.914 c -1.08,5.256 1.152,31.464 1.152,31.464 0,0 12.168,-23.4 13.248,-28.584 1.872,-9.792 -12.456,-12.528 -14.4,-2.88 z"
       id="path78"
       style="fill:#ffca19;fill-opacity:1" />
    <path
       d="m 249.048,691.354 c -2.016,4.896 -4.968,31.104 -4.968,31.104 0,0 16.488,-20.592 18.504,-25.488 3.816,-9.216 -9.72,-14.688 -13.536,-5.616 z"
       id="path82"
       style="fill:#ffca19;fill-opacity:1" />
    <path
       d="m 230.832,680.05 c -2.952,4.392 -10.944,29.52 -10.944,29.52 0,0 20.232,-16.992 23.112,-21.384 5.616,-8.28 -6.624,-16.344 -12.168,-8.136 z"
       id="path86"
       style="fill:#ffca19;fill-opacity:1" />
    <path
       d="m 215.208,665.434 c -3.744,3.744 -16.488,26.784 -16.488,26.784 0,0 23.112,-12.744 26.856,-16.488 7.056,-7.056 -3.384,-17.28 -10.368,-10.296 z"
       id="path90"
       style="fill:#ffca19;fill-opacity:1" />
    <path
       d="m 202.752,648.01 c -4.392,2.952 -21.456,23.04 -21.456,23.04 0,0 25.2,-7.992 29.592,-10.872 8.28,-5.544 0.072,-17.712 -8.136,-12.168 z"
       id="path94"
       style="fill:#ffca19;fill-opacity:1" />
    <path
       d="m 193.968,628.57 c -4.968,2.016 -25.56,18.36 -25.56,18.36 0,0 26.208,-2.952 31.104,-4.968 9.216,-3.816 3.528,-17.208 -5.544,-13.392 z"
       id="path98"
       style="fill:#ffca19;fill-opacity:1" />
    <path
       d="m 189.072,607.762 c -5.184,1.008 -28.656,13.104 -28.656,13.104 0,0 26.28,2.232 31.536,1.152 9.792,-1.872 6.84,-16.2 -2.88,-14.256 z"
       id="path102"
       style="fill:#ffca19;fill-opacity:1" />
    <path
       d="m 188.424,586.306 c -5.328,0 -30.672,7.344 -30.672,7.344 0,0 25.344,7.272 30.672,7.272 9.936,0 9.864,-14.616 0,-14.616 z"
       id="path106"
       style="fill:#ffca19;fill-opacity:1" />
    <path
       d="m 191.952,565.21 c -5.256,-1.008 -31.536,1.224 -31.536,1.224 0,0 23.472,12.096 28.656,13.104 9.864,1.944 12.528,-12.384 2.88,-14.328 z"
       id="path110"
       style="fill:#ffca19;fill-opacity:1" />
    <path
       d="m 199.512,545.194 c -4.896,-2.016 -31.104,-4.896 -31.104,-4.896 0,0 20.592,16.416 25.56,18.432 9.144,3.816 14.688,-9.72 5.544,-13.536 z"
       id="path114"
       style="fill:#ffca19;fill-opacity:1" />
    <path
       d="m 210.888,527.05 c -4.392,-2.952 -29.592,-10.944 -29.592,-10.944 0,0 17.064,20.16 21.456,23.112 8.28,5.544 16.344,-6.696 8.136,-12.168 z"
       id="path118"
       style="fill:#ffca19;fill-opacity:1" />
    <path
       d="m 225.576,511.498 c -3.744,-3.744 -26.856,-16.488 -26.856,-16.488 0,0 12.744,23.04 16.488,26.784 7.056,7.056 17.352,-3.312 10.368,-10.296 z"
       id="path122"
       style="fill:#ffca19;fill-opacity:1" />
    <path
       d="m 243,499.042 c -2.88,-4.392 -23.112,-21.384 -23.112,-21.384 0,0 7.992,25.056 10.944,29.52 5.616,8.208 17.712,0.072 12.168,-8.136 z"
       id="path126"
       style="fill:#ffca19;fill-opacity:1" />
    <path
       d="m 262.584,490.258 c -2.016,-4.896 -18.504,-25.488 -18.504,-25.488 0,0 2.952,26.136 4.968,31.032 3.816,9.216 17.352,3.528 13.536,-5.544 z"
       id="path130"
       style="fill:#ffca19;fill-opacity:1" />
    <path
       d="m 283.536,485.434 c -1.08,-5.256 -13.248,-28.584 -13.248,-28.584 0,0 -2.232,26.208 -1.152,31.392 1.944,9.792 16.272,6.84 14.4,-2.808 z"
       id="path134"
       style="fill:#ffca19;fill-opacity:1" />
    <path
       d="m 304.848,484.786 c 0,-5.328 -7.272,-30.672 -7.272,-30.672 0,0 -7.272,25.344 -7.272,30.672 0,9.864 14.544,9.864 14.544,0 z"
       id="path138"
       style="fill:#ffca19;fill-opacity:1" />
    <path
       d="m 326.016,488.242 c 1.08,-5.184 -1.152,-31.392 -1.152,-31.392 0,0 -12.168,23.328 -13.176,28.584 -1.944,9.72 12.384,12.528 14.328,2.808 z"
       id="path142"
       style="fill:#ffca19;fill-opacity:1" />
    <path
       d="m 346.104,495.802 c 2.016,-4.896 4.968,-31.032 4.968,-31.032 0,0 -16.488,20.592 -18.504,25.488 -3.816,9.144 9.792,14.688 13.536,5.544 z"
       id="path146"
       style="fill:#ffca19;fill-opacity:1" />
    <path
       d="m 364.32,507.178 c 2.952,-4.464 10.944,-29.52 10.944,-29.52 0,0 -20.16,16.992 -23.112,21.384 -5.616,8.28 6.624,16.344 12.168,8.136 z"
       id="path150"
       style="fill:#ffca19;fill-opacity:1" />
    <path
       d="m 145.944,612.226 c 0,0 -3.312,-1.224 -3.744,1.728 -1.08,7.128 1.944,28.944 0.792,27.432 -2.088,-2.736 -17.64,-43.776 -20.448,-39.312 -3.816,5.976 17.424,52.704 16.2,54.072 -4.248,4.968 -28.584,-45.576 -30.6,-41.904 -7.416,14.256 30.096,60.192 29.88,62.136 -0.864,6.12 -28.584,-24.768 -30.888,-21.456 -5.184,7.416 29.88,34.632 31.68,36.72 5.472,6.192 -19.224,-11.016 -19.944,-5.04 -0.648,4.824 11.952,14.616 19.44,18.864 7.488,4.248 9.936,2.88 12.024,6.552 1.656,2.736 -14.04,-1.8 -13.608,1.656 0.864,6.696 17.208,5.328 19.728,8.352 2.448,3.024 -11.16,0.72 -10.656,3.168 0.936,4.392 14.832,5.112 15.048,6.912 0.216,1.944 -8.712,0.648 -8.136,4.248 0.432,3.096 14.112,2.448 17.424,4.608 3.312,2.16 -12.24,0.288 -0.144,6.264 12.096,5.904 25.92,12.528 44.784,16.2 18.936,3.6 28.512,-0.432 29.232,-1.656 0.648,-1.224 -8.928,1.008 -22.392,-1.44 -13.392,-2.376 -31.32,-10.728 -38.592,-14.976 -2.304,-1.296 7.056,-3.96 5.112,-6.48 -1.944,-2.592 -9.576,0.36 -12.528,-3.312 -1.872,-2.376 3.6,-2.448 3.456,-3.888 -0.072,-1.44 -10.44,-3.816 -12.312,-6.336 -1.8,-2.592 4.68,-2.16 4.968,-3.888 0.144,-1.224 -6.552,-3.456 -6.984,-5.112 -0.504,-1.728 7.488,-1.224 3.744,-3.312 -3.96,-2.16 -14.76,-4.896 -16.776,-8.712 -2.016,-3.744 8.208,0.504 5.544,-3.024 -1.8,-2.448 -11.736,-6.624 -13.824,-12.312 -1.368,-3.816 6.984,-0.504 7.128,-2.88 0.216,-3.888 -4.968,-1.44 -6.624,-12.528 -0.504,-3.6 6.624,-1.152 6.624,-1.152 l 0.936,-1.944 c 0,0 8.352,4.608 19.224,16.992 10.872,12.384 13.896,24.12 24.12,32.544 4.896,4.032 4.968,-1.656 16.056,5.184 11.088,6.768 15.696,11.52 27.216,21.312 1.656,1.368 9.216,-1.368 31.464,3.168 11.952,2.448 14.472,8.712 14.472,8.712 0.072,0.216 6.696,-4.032 9.864,-8.784 1.224,-1.872 2.52,-0.072 2.88,-0.432 1.224,-1.08 -0.216,-2.592 -0.216,-2.592 -75.744,0.288 -144.432,-57.744 -150.624,-134.352 z"
       id="path154"
       style="fill:#214b89;fill-opacity:1" />
    <path
       d="m 471.84375,602.59375 c -0.72225,-0.12487 -1.49125,0.68725 -2.03125,1.28125 -2.232,2.736 -5.11325,9.1505 -8.28125,16.0625 -4.68,10.224 -9.8045,21.435 -10.8125,22.875 -1.152,1.44 1.16425,-21.71575 0.15625,-28.84375 -0.432,-2.952 -3.8125,-1.75 -3.8125,-1.75 -4.68,72.432 -75.47725,126.29875 -131.78125,134.21875 -14.688,2.088 -19.2755,8.92525 -35.1875,17.78125 -5.4,3.024 -13.70625,4.38375 -20.90625,8.34375 -7.128,3.96 -12.21775,9.953 -14.59375,13.625 -1.152,1.8 0.488,7.0395 2,7.6875 1.512,0.648 1.43775,-3.9675 3.09375,-4.6875 1.728,-0.864 1.7435,1.60325 3.6875,1.53125 1.944,-0.144 4.15625,-2.03125 4.15625,-2.03125 0,0 39.83,0.004 56.75,-0.5 3.024,-0.072 8.12125,-1.28975 10.28125,-3.59375 -0.648,-1.8 -5.245,-0.79075 -8.125,-0.71875 -12.024,-0.792 -27.643,10e-4 -38.875,-0.71875 0,0 -1.86275,-0.1375 -1.71875,-1.9375 0.072,-0.72 7.1875,-8.28125 7.1875,-8.28125 l -5.6875,0 c 0,0 -3.31275,1.94975 -4.96875,2.09375 -1.728,0.144 -2.36675,-0.871 -1.71875,-1.375 8.568,-6.48 33.96875,-17.78125 33.96875,-17.78125 0,0 6.70425,-2.53025 18.65625,-4.90625 22.32,-4.608 30.00975,-3.09125 31.59375,-4.53125 17.712,-19.296 30.684,-20.87575 43.5,-25.84375 10.224,-8.424 13.53425,-20.52225 24.40625,-32.90625 C 433.58125,675.3035 440,674.28125 440,674.28125 l 1.4375,2.75 c 0,0 5.74725,-4.32825 5.53125,-0.65625 -0.504,5.472 -5.019,10.737 -4.875,14.625 0.144,2.448 7.97,-1.07575 7.25,1.15625 -1.8,5.76 -8.04375,9.28025 -9.84375,11.65625 -2.664,3.6 7.10975,-1.21275 5.09375,2.53125 -2.016,3.816 -11.862,7.552 -15.75,10 -2.376,1.512 2.5665,1.7815 2.0625,3.4375 -0.504,1.728 -10.644,5.42275 -10.5,6.71875 0.216,1.728 2.724,1.85075 1.5,3.21875 -2.16,2.304 -10.57475,2.59125 -10.71875,4.03125 -0.144,1.44 1.8095,2.97725 -0.0625,5.28125 -2.952,3.672 -5.3385,-0.024 -6.5625,3 -0.72,1.656 4.90025,5.12375 1.15625,5.84375 -5.184,0.864 -9.01425,3.10775 -13.40625,5.84375 -1.656,1.008 -9.21125,2.348 -13.53125,3.5 -2.88,0.648 -18.648,2.61975 -18,3.84375 0.648,1.224 10.6635,1.06875 31.6875,-2.53125 9.144,-1.512 14.40025,-2.5985 28.65625,-7.0625 16.2,-5.04 -4.259,-5.465 -0.875,-7.625 3.312,-2.16 17.4335,-1.0915 17.9375,-4.1875 0.576,-3.6 -7.7785,-2.52475 -7.5625,-4.46875 0.216,-1.872 17.22025,-1.7955 18.15625,-6.1875 0.504,-2.52 -9.72925,-0.7885 -7.28125,-3.8125 2.448,-3.024 16.068,-3.6775 16.5,-9.4375 0.216,-3.456 -11.10575,0.65175 -9.59375,-2.15625 0.576,-1.08 5.18275,-2.30075 9.71875,-5.46875 7.056,-4.824 18.35725,-13.229 17.78125,-18.125 -0.792,-5.904 -23.444,13.81 -21.5,6.25 0.72,-2.664 37.00725,-30.963 31.03125,-37.875 -4.032,-4.68 -29.886,25.77625 -30.75,19.65625 -0.288,-1.944 40.38475,-47.15975 32.96875,-61.34375 -2.016,-3.744 -32.555,54.00875 -36.875,48.96875 -1.224,-1.368 26.07,-56.9465 21.75,-62.5625 -0.216,-0.288 -0.44675,-0.45838 -0.6875,-0.5 z M 264.3125,779.15625 c 0.5535,-0.008 0.973,0.0907 1,0.46875 0.072,0.864 -0.77875,1.587 -2.21875,1.875 -1.44,0.36 -3.178,0.8015 -3.25,-0.0625 -0.072,-0.864 0.71625,-1.515 2.15625,-1.875 0.135,-0.045 1.39,-0.39289 2.3125,-0.40625 z"
       id="path158"
       style="fill:#214b89;fill-opacity:1" />
    <path
       d="m 353.304,771.562 c -2.52,-0.216 -2.16,1.944 -2.16,1.944 0.216,3.024 -2.016,6.264 -4.536,6.912 -2.016,0.504 -1.008,1.944 -1.656,3.24 l -8.28,-0.36 c -13.176,7.056 -29.664,9.504 -49.32,7.344 0,0 -4.176,3.096 -7.92,6.264 -3.672,3.24 -6.264,3.96 -6.984,6.552 -0.792,2.592 1.944,3.96 5.328,4.032 3.456,0.144 7.848,-3.024 7.848,-3.024 0,0 0.576,2.592 3.744,2.88 3.168,0.216 8.856,-1.872 8.856,-1.872 0,0 4.752,2.16 8.424,1.656 3.672,-0.432 6.84,-2.736 6.84,-2.736 0,0 0.936,4.176 4.536,4.392 3.672,0.144 9.288,-4.536 9.288,-4.536 0,0 2.664,3.096 6.048,2.664 3.384,-0.36 7.416,-4.248 7.416,-4.248 0,0 4.176,1.728 8.064,0.576 3.96,-1.08 7.632,-5.04 7.632,-5.04 0,0 3.528,2.808 6.624,1.8 3.168,-1.008 5.256,-5.328 5.256,-5.328 0,0 8.424,3.24 14.04,0.648 3.888,-1.872 2.88,-7.992 2.88,-7.992 0,0 23.112,3.312 22.104,-11.592 -0.072,-1.44 -33.552,-1.08 -50.976,-3.672 -1.008,-0.144 -2.088,-0.432 -3.096,-0.504 z"
       id="path162"
       style="fill:#214b89;fill-opacity:1" />
    <path
       d="m 495.864,803.602 4.608,-6.048 -29.808,-22.896 -4.608,6.048 29.808,22.896 z"
       id="path166"
       style="fill:white" />
    <path
       d="m 222.46875,379.375 -7.25,2.15625 1.0625,3.59375 c -4.896,1.44 -7.97575,3.53575 -9.34375,6.34375 -1.44,2.808 -1.46175,6.33625 -0.0937,10.65625 1.224,4.32 3.17975,7.3535 5.84375,8.9375 2.664,1.584 6.4885,1.65875 11.3125,0.21875 l 2.09375,6.90625 7.25,-2.21875 -2,-6.84375 c 4.824,-1.44 7.97575,-3.59825 9.34375,-6.40625 1.368,-2.88 1.38975,-6.40825 0.0937,-10.65625 -1.224,-4.176 -3.17975,-7.12525 -5.84375,-8.78125 -2.664,-1.656 -6.479,-1.743 -11.375,-0.375 l -1.09375,-3.53125 z m 4.9375,8.59375 c 1.12992,-0.0337 2.09625,0.25875 2.90625,0.84375 1.296,0.936 2.333,2.74225 3.125,5.40625 0.864,2.808 0.98225,4.96625 0.40625,6.40625 -0.576,1.44 -2.00575,2.45525 -4.09375,3.03125 L 225.21875,388.375 c 0.783,-0.243 1.50955,-0.386 2.1875,-0.40625 z m -9.53125,2.5625 4.53125,15.34375 c -2.16,0.648 -3.901,0.489 -5.125,-0.375 -1.296,-0.864 -2.30175,-2.72325 -3.09375,-5.53125 -0.864,-2.664 -0.98225,-4.738 -0.40625,-6.25 0.576,-1.512 1.93375,-2.5395 4.09375,-3.1875 z"
       id="path170"
       style="fill:white" />
    <path
       d="m 259.92,409.618 7.2,-0.936 5.688,-38.736 -6.552,0.864 -2.448,19.944 -8.064,-18.576 -7.488,1.008 13.32,26.568 -1.656,9.864 z"
       id="path182"
       style="fill:white" />
    <path
       d="m 299.736,406.594 0.288,-31.968 8.208,0.072 0,-5.688 -23.904,-0.216 -0.072,5.688 8.208,0.072 -0.216,31.968 7.488,0.072 z"
       id="path186"
       style="fill:white" />
    <path
       d="m 321.96875,370.03125 -4.21875,37.4375 10.78125,1.21875 c 7.848,1.008 11.9485,-1.79875 12.8125,-9.71875 0.36,-3.312 0.0827,-5.7625 -0.78125,-7.5625 -1.872,-3.672 -5.684,-4.765 -9.5,-5.125 l -3.1875,-0.34375 1.03125,-9.375 10.9375,1.21875 0.65625,-5.6875 -18.53125,-2.0625 z m 5.28125,21.5 2.71875,0.3125 c 3.6,0.36 4.182,2.59425 3.75,5.90625 -0.288,3.384 -1.21525,5.754 -5.03125,5.25 l -2.65625,-0.375 1.21875,-11.09375 z"
       id="path190"
       style="fill:white" />
    <path
       d="m 367.09375,378.15625 c -0.60286,-0.0173 -1.21425,0.009 -1.78125,0.0625 -1.944,0.216 -3.58175,1.007 -5.09375,2.375 -1.44,1.44 -2.66725,3.69475 -3.53125,6.71875 l -3.3125,12.09375 c -1.008,3.528 -1.37225,6.465 -1.15625,8.625 0.216,2.232 1.02875,3.9635 2.46875,5.1875 2.952,2.592 9.27775,4.30425 13.09375,3.65625 1.872,-0.36 3.4445,-1.5125 4.8125,-3.3125 1.296,-1.872 2.52325,-4.59975 3.53125,-8.34375 l 3.25,-11.65625 c 1.08,-4.464 0.8435,-7.86175 -0.8125,-10.09375 -2.394,-3.339 -7.24873,-5.19142 -11.46875,-5.3125 z m 0.96875,6 c 1.6605,-0.18563 3.602,0.6585 4.25,2.0625 0.432,1.08 0.2825,2.86725 -0.4375,5.53125 l -3.96875,14.40625 c -0.576,2.232 -1.29225,3.674 -2.15625,4.25 -1.728,1.296 -4.97025,0.27825 -5.90625,-1.59375 C 359.41175,407.8045 359.424,406.16 360,404 l 3.96875,-14.46875 c 0.792,-2.592 1.65775,-4.2365 2.59375,-4.8125 0.432,-0.306 0.9465,-0.50063 1.5,-0.5625 z"
       id="path198"
       style="fill:white" />
    <path
       d="m 399.024,389.386 -10.728,24.768 c -1.44,3.312 -2.376,5.472 -5.832,3.24 l -2.016,4.824 c 6.552,5.904 11.52,2.952 14.76,-4.824 l 8.568,-19.728 5.472,2.376 -12.744,29.304 6.984,3.024 14.976,-34.488 -19.44,-8.496 z"
       id="path206"
       style="fill:white" />
    <path
       d="m 450.875,425.1875 c -0.39839,-0.0114 -0.76925,0.0175 -1.15625,0.0625 -3.096,0.36 -6.0575,2.294 -8.9375,5.75 -2.952,3.384 -4.394,6.62275 -4.25,9.71875 0.144,3.168 2.08075,6.40675 5.96875,9.71875 l -4.65625,5.46875 5.8125,4.96875 4.625,-5.46875 c 3.888,3.24 7.332,4.7445 10.5,4.3125 3.096,-0.36 6.0575,-2.2315 8.9375,-5.6875 2.808,-3.312 4.23775,-6.55075 4.09375,-9.71875 -0.072,-3.168 -2.01825,-6.40675 -5.90625,-9.71875 l 2.46875,-2.8125 -5.84375,-4.96875 -2.375,2.8125 c -3.402,-2.898 -6.49252,-4.35777 -9.28125,-4.4375 z m 1.3125,6.96875 c 1.40077,-0.063 2.83225,0.5525 4.28125,1.8125 L 446.1875,446.125 c -1.728,-1.44 -2.60325,-2.94725 -2.53125,-4.53125 0,-1.512 1.02475,-3.393 2.96875,-5.625 1.8,-2.16 3.45675,-3.39 4.96875,-3.75 0.198,-0.036 0.39364,-0.0535 0.59375,-0.0625 z m 10.125,6.78125 c 1.656,1.44 2.519,2.94725 2.375,4.53125 -0.072,1.584 -1.0125,3.44325 -2.8125,5.53125 -1.872,2.304 -3.58175,3.587 -5.09375,3.875 -1.512,0.288 -3.11575,-0.26925 -4.84375,-1.78125 l 10.375,-12.15625 z"
       id="path210"
       style="fill:white" />
    <path
       d="m 501.48,466.354 -12.384,-13.968 -28.08,24.984 12.312,13.968 4.32,-3.744 -7.344,-8.28 8.136,-7.128 6.624,7.488 4.248,-3.744 -6.624,-7.56 7.272,-6.48 7.272,8.28 4.248,-3.816 z"
       id="path222"
       style="fill:white" />
    <path
       d="m 512.34375,481.25 -8.5,5.625 c -3.528,2.376 -6.97875,4.32225 -10.21875,5.90625 -3.24,1.584 -6.41625,2.7175 -9.65625,3.4375 l -1.4375,-2.28125 -10.5625,9.125 3.8125,5.90625 6.46875,-5.1875 8,12.1875 -7.1875,3.96875 3.875,5.8125 12.46875,-6.25 -2.03125,-3.09375 26.5625,-17.65625 -11.59375,-17.5 z m -0.5,9.5 3.09375,4.75 -21.8125,14.5 -4.6875,-7.0625 c 2.88,-0.792 5.91625,-1.94725 9.15625,-3.53125 3.168,-1.512 6.54675,-3.52075 10.21875,-5.96875 l 4.03125,-2.6875 z"
       id="path226"
       style="fill:white" />
    <path
       d="m 540.432,532.594 -7.776,-16.992 -34.128,15.696 7.704,16.92 5.184,-2.304 -4.536,-10.08 9.792,-4.464 4.176,9.144 5.184,-2.304 -4.176,-9.216 8.856,-4.032 4.536,10.008 5.184,-2.376 z"
       id="path234"
       style="fill:white" />
    <path
       d="m 545.84375,547.5 -36,10.71875 2.15625,7.34375 14.40625,-4.3125 0.84375,2.875 c 0.648,2.448 1.50425,4.5315 2.65625,6.1875 1.8,2.88 4.55075,3.5475 7.71875,3.1875 1.296,-0.144 2.7285,-0.5055 4.3125,-0.9375 1.944,-0.648 3.54775,-1.386 4.84375,-2.25 2.448,-1.728 3.43475,-3.726 3.21875,-6.75 -0.072,-1.512 -0.4145,-3.3835 -1.0625,-5.6875 L 545.84375,547.5 z m -3.25,8.9375 0.9375,3.15625 c 0.936,3.456 -1.0915,4.8955 -4.1875,5.6875 -1.872,0.648 -3.3045,0.788 -4.3125,0.5 -1.08,-0.36 -1.88325,-1.59 -2.53125,-3.75 l -0.71875,-2.375 10.8125,-3.21875 z"
       id="path238"
       style="fill:white" />
    <path
       d="m 517.96875,587.3125 0.9375,7.40625 8.34375,0.4375 1,8.15625 -7.90625,2.5 1,7.5 36.15625,-13.46875 -1.21875,-9.0625 -38.3125,-3.46875 z m 15.0625,8.0625 16.96875,0.875 -16.1875,5.25 -0.78125,-6.125 z"
       id="path246"
       style="fill:white" />
    <path
       d="m 559.296,630.658 0.072,-7.632 -37.512,-0.288 -0.144,18.432 -8.208,-0.72 0,6.984 13.824,1.872 0,-3.744 31.896,0.288 0.072,-7.704 -31.896,-0.216 0.072,-7.488 31.824,0.216 z"
       id="path254"
       style="fill:white" />
    <path
       d="m 557.424,664.858 -37.008,-6.192 -1.296,7.56 23.256,13.464 -24.768,-4.176 -1.08,6.48 37.008,6.192 1.224,-7.128 -24.264,-14.04 25.848,4.32 1.08,-6.48 z"
       id="path258"
       style="fill:white" />
    <path
       d="m 513.78125,692.28125 -2.5,7.4375 c 1.224,0.72 2.5695,1.27725 3.9375,1.78125 l 5.6875,2.25 c 2.88,1.152 4.3925,2.6445 3.3125,5.8125 l -0.78125,2.25 -14.53125,-4.90625 -2.375,7.28125 35.5625,11.9375 3.4375,-10.4375 c 2.304,-6.912 1.59125,-11.533 -5.96875,-14.125 -0.648,-0.216 -1.2895,-0.356 -1.9375,-0.5 -3.816,-0.648 -6.56825,0.003 -8.65625,3.53125 0.648,-4.32 -1.78725,-6.39425 -5.53125,-7.90625 l -5.84375,-2.46875 c -1.296,-0.576 -2.5885,-1.2175 -3.8125,-1.9375 z M 533.03125,708 c 0.94036,-0.0806 2.00375,0.1305 3.21875,0.5625 3.384,1.08 4.81775,2.722 3.59375,6.25 l -0.71875,2.25 -10.28125,-3.46875 0.71875,-2.28125 c 0.72,-2.205 1.90148,-3.1782 3.46875,-3.3125 z"
       id="path262"
       style="fill:white" />
    <path
       d="m 506.448,744.202 -2.016,-1.008 c -2.088,-1.08 -4.68,-2.88 -3.312,-5.544 0.864,-1.584 2.232,-2.16 4.032,-1.8 1.872,0.36 3.888,1.152 6.048,2.304 l 8.28,4.176 c 2.304,1.08 4.176,2.232 5.328,3.384 1.224,1.152 1.512,2.448 0.792,4.032 -0.288,0.576 -0.648,1.008 -1.008,1.296 -1.584,1.152 -3.744,0.288 -5.328,-0.432 l -1.152,-0.576 -3.456,6.84 1.08,0.504 c 4.176,2.088 8.568,2.88 12.024,-0.792 1.08,-1.008 2.016,-2.448 2.88,-4.176 2.664,-5.472 2.592,-10.512 -2.664,-14.04 -1.512,-1.08 -3.24,-2.016 -5.04,-2.88 l -8.208,-4.104 c -2.088,-1.08 -4.104,-1.944 -5.976,-2.52 -3.384,-1.08 -6.84,-0.936 -9.504,1.584 -1.152,1.152 -2.304,2.808 -3.384,4.968 -1.872,3.888 -2.664,7.992 0.648,11.376 1.368,1.368 3.168,2.592 5.472,3.744 l 1.08,0.504 3.384,-6.84 z"
       id="path270"
       style="fill:white" />
    <path
       d="m 486.15625,754.4375 -6.625,8.625 c -2.52,3.24 -3.68475,6.13625 -3.46875,8.65625 0.216,2.52 1.9475,4.95825 5.1875,7.40625 2.592,1.944 4.89975,3.01225 6.84375,3.15625 1.944,0.144 3.6755,-0.26375 5.1875,-1.34375 1.44,-1.008 2.80725,-2.469 4.03125,-4.125 l 2,-2.59375 11.96875,9.21875 4.59375,-6.125 -29.71875,-22.875 z M 486,764 l 8.78125,6.78125 -1.65625,2.15625 c -0.936,1.368 -1.95125,2.02175 -3.03125,2.09375 -1.008,0 -2.3535,-0.5885 -3.9375,-1.8125 -1.656,-1.296 -2.68075,-2.45125 -2.96875,-3.53125 -0.288,-1.008 0.0858,-2.23525 1.09375,-3.53125 L 486,764 z"
       id="path278"
       style="fill:white" />
    <path
       d="m 97.34375,733.25 -28,26.5 4.6875,7.9375 36.625,-11.8125 -3.8125,-6.5 -7.84375,2.90625 -4.09375,-7 6.25,-5.46875 -3.8125,-6.5625 z M 90.5,749.03125 93.59375,754.34375 77.625,760.1875 90.5,749.03125 z"
       id="path282"
       style="fill:white" />
    <path
       d="m 70.056,726.706 5.256,-2.088 -0.792,-2.088 c -1.44,-3.456 0.36,-5.544 3.6,-6.912 2.664,-1.08 5.688,-1.368 6.912,1.8 1.944,4.32 -2.376,5.688 -5.544,6.912 l 2.808,7.128 c 3.384,-1.296 6.768,-2.808 8.568,-6.264 1.224,-2.448 1.08,-5.688 -0.504,-9.792 -2.808,-6.912 -7.92,-9.72 -15.048,-6.912 -4.536,1.8 -6.048,5.256 -5.256,9.936 -2.376,-3.312 -6.408,-4.536 -10.224,-3.096 -6.768,2.664 -7.848,8.136 -5.328,14.472 0.72,1.8 1.512,3.312 2.448,4.464 3.6,4.608 8.352,3.384 13.032,1.512 l -2.736,-7.128 c -1.944,0.72 -4.896,2.088 -6.624,0.36 -0.36,-0.36 -0.72,-0.792 -0.936,-1.368 -1.224,-3.024 0.864,-4.392 3.384,-5.328 2.304,-0.936 4.824,-0.864 5.904,1.656 l 1.08,2.736 z"
       id="path290"
       style="fill:white" />
    <path
       d="m 76.8125,671.90625 -34.46875,17.15625 2.15625,8.90625 38.53125,-0.5625 -1.8125,-7.28125 -8.28125,0.4375 -1.875,-7.84375 7.5625,-3.46875 -1.8125,-7.34375 z M 65.75,684.9375 l 1.4375,6 -17,1 15.5625,-7 z"
       id="path294"
       style="fill:white" />
    <path
       d="m 61.416,613.522 2.304,0.144 c 2.304,0.144 5.4,0.792 5.184,3.744 -0.504,4.32 -6.48,3.744 -9.504,3.528 l -9.216,-0.576 c -2.952,-0.144 -8.712,-0.216 -8.568,-4.464 0.144,-3.024 3.096,-3.384 5.472,-3.24 l 1.368,0.072 0.432,-7.632 c -7.92,-0.576 -12.456,1.872 -12.888,10.368 -0.36,5.976 1.44,10.656 7.848,11.88 1.872,0.36 3.744,0.576 5.832,0.648 l 9.144,0.576 c 9.216,0.72 15.12,-0.864 15.696,-11.088 0.648,-9.144 -4.68,-11.232 -12.672,-11.592 l -0.432,7.632 z"
       id="path302"
       style="fill:white" />
    <path
       d="m 78.768,583.282 -31.104,-6.912 1.728,-7.992 -5.544,-1.224 -5.184,23.544 5.544,1.152 1.728,-7.992 31.176,6.912 1.656,-7.488 z"
       id="path306"
       style="fill:white" />
    <path
       d="m 52.125,540.15625 -2.875,8.71875 32.90625,19.9375 2.375,-7.0625 -7.28125,-4.09375 2.59375,-7.625 8.21875,1.125 2.375,-7.1875 -38.3125,-3.8125 z m 5.125,6.5625 16.90625,2.4375 -1.9375,5.75 -14.96875,-8.1875 z"
       id="path310"
       style="fill:white" />
    <path
       d="m 65.448,510.13 -3.744,6.696 32.688,18.504 3.744,-6.624 -14.616,-8.352 3.672,-6.552 14.688,8.28 3.744,-6.696 -32.688,-18.504 -3.744,6.696 13.104,7.416 -3.744,6.552 -13.104,-7.416 z"
       id="path318"
       style="fill:white" />
    <path
       d="m 87.048,475.642 -4.68,6.12 29.808,22.896 4.608,-6.12 -13.32,-10.224 4.608,-5.976 13.32,10.224 4.68,-6.048 -29.808,-22.968 -4.68,6.12 11.952,9.216 -4.536,5.976 -11.952,-9.216 z"
       id="path322"
       style="fill:white" />
    <path
       d="m 133.776,426.394 -5.76,5.112 24.912,28.152 5.76,-5.04 -24.912,-28.224 z"
       id="path326"
       style="fill:white" />
    <path
       d="m 114.78125,443.3125 -5.6875,5.03125 24.8125,28.21875 8.21875,-7.1875 c 5.904,-5.184 6.7125,-10.0865 1.3125,-16.0625 -2.16,-2.448 -4.181,-3.96475 -6.125,-4.46875 -3.888,-1.08 -7.34825,1.033 -10.15625,3.625 l -2.375,2.15625 -10,-11.3125 z m 18.5625,12.34375 c 1.44844,-0.0626 2.74375,0.97 4.09375,2.5 2.232,2.52 3.452,4.73 0.5,7.25 l -2,1.8125 -7.40625,-8.34375 2,-1.8125 c 1.026,-0.945 1.94344,-1.3687 2.8125,-1.40625 z"
       id="path334"
       style="fill:white" />
    <path
       d="m 154.584,411.706 -6.408,4.248 20.736,31.392 6.408,-4.248 -9.288,-14.04 6.264,-4.176 9.288,14.04 3.456,-2.304 2.592,6.552 6.264,-3.168 -4.68,-13.176 c -1.728,0.936 -3.168,1.656 -4.896,2.376 l -17.136,-25.92 -6.336,4.248 8.28,12.6 -6.264,4.176 -8.28,-12.6 z"
       id="path338"
       style="fill:white" />
    <path
       d="m 58.248,656.29 c -0.144,-1.944 -0.792,-4.896 0.648,-6.48 0.792,-0.72 2.088,-1.224 4.032,-1.512 l 6.624,-0.864 c 1.512,-0.144 3.024,-0.504 4.536,-0.936 l -0.36,-3.96 c 0.288,0 0.504,0 0.72,0 l 8.208,0.288 -0.288,-6.984 -13.896,-1.152 c 0.072,1.8 0.216,3.6 0.144,5.328 l -6.336,0.936 c -2.592,0.36 -4.464,1.008 -5.616,1.872 -1.08,0.936 -1.8,2.52 -2.16,4.608 -0.72,-1.224 -1.584,-2.088 -2.448,-2.592 -0.936,-0.504 -2.088,-0.792 -3.312,-0.72 l -4.032,0.072 c -1.152,0 -2.016,-0.072 -2.52,-0.216 -1.296,-0.432 -0.936,-1.656 -0.648,-2.592 l -5.328,0.432 c -0.792,2.16 -0.648,5.472 0.864,7.272 0.792,0.936 2.088,1.44 3.96,1.44 l 6.552,-0.072 c 1.728,0 2.88,0.36 3.672,1.008 1.44,1.296 1.224,3.456 1.368,5.256 l -15.336,1.224 0.648,7.632 37.44,-2.952 -0.648,-7.632 -16.488,1.296 z"
       id="path342"
       style="fill:white" />
    <path
       d="m 111.744,784.738 c -2.88,-3.6 -4.896,-5.4 -0.576,-9.216 2.88,-2.52 5.832,-4.824 8.208,-7.776 l -2.304,-2.952 c 3.168,-1.512 5.256,-3.096 7.704,-4.608 l -4.104,-5.688 -12.24,6.696 c 1.008,1.368 2.16,2.736 2.952,4.176 l -4.896,4.464 c -3.312,2.952 -4.824,5.544 -2.808,9.864 -2.376,-1.152 -4.464,-1.224 -6.624,0.36 l -3.312,2.232 c -1.944,1.368 -3.384,2.16 -4.176,-0.504 l -4.176,3.384 c 0.576,2.232 2.592,4.824 4.824,5.544 2.88,0.72 7.272,-3.24 9.504,-4.824 3.96,-2.664 5.256,-0.576 7.632,2.448 l -12.024,9.504 4.752,6.048 29.376,-23.472 -4.752,-6.048 -12.96,10.368 z"
       id="path346"
       style="fill:white" />
    <path
       d="m 363.816,573.058 -0.864,-31.68 c 0,0 5.616,1.584 10.152,3.312 8.856,13.536 14.112,29.736 14.904,45.864 -2.664,4.032 -6.264,8.64 -6.264,8.64 l -17.928,-26.136 z"
       id="path350"
       style="fill:white" />
    <path
       d="m 338.472,650.89 29.88,-10.584 c 0,0 0.216,5.832 0,10.656 -10.08,12.6 -23.904,22.608 -39.024,28.368 -4.68,-1.296 -10.152,-3.312 -10.152,-3.312 l 19.296,-25.128 z"
       id="path354"
       style="fill:white" />
    <path
       d="m 256.68,650.89 19.296,25.128 c 0,0 -5.472,2.016 -10.152,3.312 -15.12,-5.76 -28.944,-15.768 -39.024,-28.368 -0.216,-4.824 0,-10.656 0,-10.656 l 29.88,10.584 z"
       id="path358"
       style="fill:white" />
    <path
       d="m 231.336,573.058 -17.928,26.136 c 0,0 -3.6,-4.608 -6.264,-8.64 0.792,-16.128 6.048,-32.328 14.904,-45.864 4.536,-1.728 10.152,-3.312 10.152,-3.312 l -0.864,31.68 z"
       id="path362"
       style="fill:white" />
    <path
       d="m 297.576,524.89 -30.384,-9 c 0,0 3.24,-4.824 6.336,-8.568 15.552,-4.32 32.544,-4.32 48.096,0 3.096,3.744 6.336,8.568 6.336,8.568 l -30.384,9 z"
       id="path366"
       style="fill:white" />
    <path
       d="m 330.192,651.754 c -3.312,5.04 -9,13.608 -10.656,16.2 -2.376,3.528 -6.984,6.552 -11.304,5.832 -2.52,-0.432 -4.824,-2.016 -6.84,-4.68 -2.16,-2.808 -3.384,-6.552 -3.816,-10.512 -0.432,3.96 -1.656,7.704 -3.816,10.512 -2.016,2.664 -4.32,4.248 -6.84,4.68 -4.32,0.72 -8.928,-2.304 -11.304,-5.832 -1.656,-2.592 -7.344,-11.16 -10.656,-16.2 -2.808,-4.248 -2.088,-9.504 0.648,-13.176 -2.736,3.672 -7.416,6.048 -12.312,4.68 -5.832,-1.584 -15.768,-4.32 -18.72,-5.184 -4.104,-1.08 -8.424,-4.536 -9,-8.856 -0.36,-2.52 0.36,-5.184 2.304,-7.92 2.016,-2.88 5.184,-5.184 8.784,-6.912 -3.888,0.72 -7.848,0.72 -11.232,-0.432 -3.096,-1.08 -5.328,-2.808 -6.48,-5.04 -2.088,-3.888 -0.648,-9.216 2.016,-12.528 1.944,-2.376 8.352,-10.512 12.096,-15.192 3.24,-3.96 8.424,-4.824 12.744,-3.456 -4.32,-1.368 -7.992,-5.184 -8.28,-10.296 -0.288,-5.976 -0.72,-16.272 -0.864,-19.368 -0.216,-4.248 1.8,-9.36 5.76,-11.304 2.232,-1.152 5.04,-1.224 8.208,-0.288 3.384,1.008 6.552,3.384 9.288,6.264 -1.872,-3.528 -3.096,-7.272 -3.024,-10.8 0.072,-3.312 1.008,-5.904 2.808,-7.704 3.024,-3.24 8.568,-3.456 12.528,-2.016 2.88,1.08 12.528,4.752 18.144,6.84 4.752,1.872 7.2,6.48 7.2,11.088 0,-4.608 2.448,-9.216 7.2,-11.088 5.616,-2.088 15.264,-5.76 18.144,-6.84 3.96,-1.44 9.504,-1.224 12.528,2.016 1.8,1.8 2.736,4.392 2.808,7.704 0.072,3.528 -1.152,7.272 -3.024,10.8 2.736,-2.88 5.904,-5.256 9.288,-6.264 3.168,-0.936 5.976,-0.864 8.208,0.288 3.96,1.944 5.976,7.056 5.76,11.304 -0.144,3.096 -0.576,13.392 -0.864,19.368 -0.288,5.112 -3.96,8.928 -8.28,10.296 4.32,-1.368 9.504,-0.504 12.744,3.456 3.744,4.68 10.152,12.816 12.096,15.192 2.664,3.312 4.104,8.64 2.016,12.528 -1.152,2.232 -3.384,3.96 -6.48,5.04 -3.384,1.152 -7.344,1.152 -11.232,0.432 3.6,1.728 6.768,4.032 8.784,6.912 1.944,2.736 2.664,5.4 2.304,7.92 -0.576,4.32 -4.896,7.776 -9,8.856 -2.952,0.864 -12.888,3.6 -18.72,5.184 -4.896,1.368 -9.576,-1.008 -12.312,-4.68 2.736,3.672 3.456,8.928 0.648,13.176 z"
       id="path370"
       style="fill:white" />
    <path
       d="M 265.032,583.426 297,558.658 c -0.288,-4.176 -0.504,-9.288 -0.504,-14.184 0,-6.552 -2.952,-9.144 -9.648,-12.024 -18.144,-6.552 -20.376,-6.768 -22.248,1.224 -1.44,11.304 12.096,6.912 11.52,7.344 -3.528,2.592 -4.464,3.24 -9.864,2.016 21.6,22.752 18.288,-3.24 19.368,-2.016 3.456,3.816 2.376,24.912 -14.256,14.328 -2.016,-1.296 -4.104,-3.096 -6.048,-5.256 1.368,2.592 2.448,5.112 3.024,7.416 4.968,19.08 -15.408,13.608 -18,9.144 -0.792,-1.44 22.896,9.72 7.92,-17.784 -0.504,5.472 -1.368,6.192 -4.968,8.712 -0.576,0.432 7.776,-11.016 -3.456,-13.176 -8.136,-0.72 -8.64,1.512 -7.992,20.736 0.72,7.272 2.16,10.872 8.424,12.888 5.256,1.728 10.656,3.816 14.76,5.4 z"
       id="path374"
       style="fill:#214b89;fill-opacity:1" />
    <path
       d="m 276.984,622.09 -12.312,-37.656 c -4.248,-1.08 -9.864,-2.592 -15.12,-4.248 -6.192,-2.016 -9.504,0 -14.328,5.472 -11.88,15.192 -12.744,17.28 -5.76,21.528 10.368,4.824 10.368,-9.36 10.584,-8.712 1.368,4.176 1.656,5.256 -1.152,10.008 28.296,-13.536 2.592,-18.36 4.032,-19.08 4.752,-2.088 24.48,5.472 9.216,18 -1.8,1.512 -4.176,2.952 -6.84,4.176 2.88,-0.576 5.616,-0.792 7.992,-0.648 19.656,1.224 8.208,18.864 3.168,19.944 -1.656,0.36 16.272,-18.72 -14.544,-13.032 5.04,2.232 5.472,3.24 6.84,7.488 0.216,0.648 -8.136,-10.872 -13.68,-0.864 -3.168,7.488 -1.224,8.64 17.352,13.968 7.056,1.584 10.944,1.296 14.832,-4.032 3.24,-4.392 6.912,-8.928 9.72,-12.312 z"
       id="path378"
       style="fill:#214b89;fill-opacity:1" />
    <path
       d="m 317.304,622.666 c -13.176,0.576 -26.28,0.576 -39.456,0 -2.376,3.744 -5.544,8.64 -8.784,13.104 -3.888,5.256 -2.952,9.072 0.72,15.336 10.872,15.984 12.528,17.424 18.72,12.096 7.776,-8.352 -5.688,-12.744 -4.968,-12.744 4.392,0 5.544,0.072 9.144,4.176 -4.104,-30.96 -16.704,-8.136 -16.848,-9.72 -0.576,-5.184 12.672,-21.456 19.944,-3.168 0.864,2.16 1.512,4.824 1.8,7.704 0.288,-2.88 0.936,-5.544 1.8,-7.704 7.272,-18.288 20.52,-2.016 19.944,3.168 -0.144,1.584 -12.744,-21.24 -16.848,9.72 3.6,-4.104 4.752,-4.176 9.144,-4.176 0.72,0 -12.744,4.392 -4.968,12.744 6.192,5.328 7.848,3.888 18.72,-12.096 3.672,-6.264 4.608,-10.08 0.72,-15.336 -3.24,-4.464 -6.408,-9.36 -8.784,-13.104 z"
       id="path382"
       style="fill:#214b89;fill-opacity:1" />
    <path
       d="m 330.48,584.434 -12.312,37.656 c 2.808,3.384 6.48,7.92 9.72,12.312 3.888,5.328 7.776,5.616 14.832,4.032 18.576,-5.328 20.52,-6.48 17.352,-13.968 -5.544,-10.008 -13.896,1.512 -13.68,0.864 1.368,-4.248 1.8,-5.256 6.84,-7.488 -30.816,-5.688 -12.888,13.392 -14.544,13.032 -5.04,-1.08 -16.488,-18.72 3.168,-19.944 2.376,-0.144 5.112,0.072 7.992,0.648 -2.664,-1.224 -5.04,-2.664 -6.84,-4.176 -15.264,-12.528 4.464,-20.088 9.216,-18 1.44,0.72 -24.264,5.544 4.032,19.08 -2.808,-4.752 -2.52,-5.832 -1.152,-10.008 0.216,-0.648 0.216,13.536 10.584,8.712 6.984,-4.248 6.12,-6.336 -5.76,-21.528 -4.824,-5.472 -8.136,-7.488 -14.328,-5.472 -5.256,1.656 -10.872,3.168 -15.12,4.248 z"
       id="path386"
       style="fill:#214b89;fill-opacity:1" />
    <path
       d="m 298.152,558.658 31.968,24.768 c 4.104,-1.584 9.504,-3.672 14.76,-5.4 6.264,-2.016 7.704,-5.616 8.424,-12.888 0.648,-19.224 0.144,-21.456 -7.992,-20.736 -11.232,2.16 -2.88,13.608 -3.456,13.176 -3.6,-2.52 -4.464,-3.24 -4.968,-8.712 -14.976,27.504 8.712,16.344 7.92,17.784 -2.592,4.464 -22.968,9.936 -18,-9.144 0.576,-2.304 1.656,-4.824 3.024,-7.416 -1.944,2.16 -4.032,3.96 -6.048,5.256 -16.632,10.584 -17.712,-10.512 -14.256,-14.328 1.08,-1.224 -2.232,24.768 19.368,2.016 -5.4,1.224 -6.336,0.576 -9.864,-2.016 -0.576,-0.432 12.96,3.96 11.52,-7.344 -1.872,-7.992 -4.104,-7.776 -22.248,-1.224 -6.696,2.88 -9.648,5.472 -9.648,12.024 0,4.896 -0.216,10.008 -0.504,14.184 z"
       id="path390"
       style="fill:#214b89;fill-opacity:1" />
  </g>
</svg>
