<svg xmlns="http://www.w3.org/2000/svg" viewBox="0 0 386 213" width="386" height="213"><g fill-rule="evenodd" clip-rule="evenodd"><path d="M28.534 0v62.444c9.507-11.335 20.901-17.046 34.119-17.046 6.807 0 12.91 1.294 18.368 3.881 5.485 2.56 9.589 5.851 12.347 9.845 2.785 4.023 4.669 8.438 5.68 13.304 1.016 4.839 1.522 12.377 1.522 22.587v66.775h-29.534v-60.137c0-11.925-.536-19.493-1.659-22.699-1.126-3.234-3.096-5.767-5.936-7.651-2.843-1.912-6.386-2.869-10.66-2.869-4.895 0-9.284 1.237-13.108 3.657-3.881 2.446-6.694 6.103-8.466 10.997-1.802 4.895-2.703 12.123-2.673 21.687l-.03 57.015h-29.504v-161.79h29.534zm116.31 0v62.444c9.504-11.335 20.898-17.046 34.116-17.046 6.779 0 12.91 1.294 18.398 3.881 5.455 2.56 9.562 5.851 12.317 9.845 2.785 4.023 4.669 8.438 5.683 13.304 1.013 4.839 1.519 12.377 1.519 22.587v66.775h-29.507v-60.137c0-11.925-.56-19.493-1.687-22.699-1.126-3.234-3.093-5.767-5.936-7.651-2.813-1.912-6.386-2.869-10.66-2.869-4.895 0-9.282 1.237-13.108 3.657-3.851 2.446-6.664 6.103-8.466 10.997-1.772 4.895-2.67 12.123-2.67 21.687v57.015h-29.507v-161.79h29.508zm-145.759 211.943v-32.628h3.939v13.417h15.413l-.03-13.417h3.939v32.628h-3.939v-15.385h-15.383v15.385zm43.823-7.622l3.769.507c-.593 2.447-1.687 4.303-3.291 5.626-1.604 1.35-3.659 2.024-6.161 2.024-3.151 0-5.626-1.069-7.48-3.205-1.829-2.11-2.758-5.12-2.758-8.945 0-3.967.928-7.061 2.785-9.254 1.857-2.193 4.302-3.291 7.257-3.291 2.868 0 5.203 1.069 7.032 3.207 1.827 2.166 2.755 5.175 2.755 9.085l-.03 1.068h-16.03c.14 2.588.816 4.585 1.997 5.964 1.211 1.377 2.7 2.081 4.502 2.081 1.318 0 2.472-.394 3.428-1.181.929-.761 1.69-1.998 2.225-3.686m-11.954-6.469h12.009c-.17-1.97-.618-3.488-1.379-4.473-1.154-1.547-2.67-2.306-4.527-2.306-1.659 0-3.065.59-4.192 1.828-1.153 1.237-1.771 2.898-1.911 4.951zm34.089 11.166c-1.321 1.266-2.615 2.166-3.879 2.673-1.239.534-2.56.787-3.994.787-2.393 0-4.192-.647-5.461-1.912-1.264-1.266-1.884-2.898-1.912-4.866 0-1.154.253-2.222.731-3.151.478-.956 1.126-1.744 1.884-2.306.761-.592 1.662-1.041 2.618-1.323.703-.225 1.772-.394 3.233-.591 2.956-.394 5.093-.845 6.499-1.406.027-.534.027-.899.027-1.041 0-1.632-.365-2.757-1.038-3.431-.929-.901-2.335-1.35-4.137-1.35-1.714 0-2.983.309-3.796.983-.816.647-1.434 1.829-1.802 3.489l-3.571-.534c.308-1.66.843-3.011 1.604-4.05.731-1.041 1.799-1.829 3.206-2.391 1.406-.534 3.008-.816 4.865-.816 1.829 0 3.321.225 4.472.703 1.154.478 2 1.069 2.533 1.772.536.732.928 1.632 1.126 2.757.113.676.198 1.913.198 3.685v5.344c0 3.714.055 6.076.225 7.061.137.985.478 1.912.928 2.84h-3.799c-.392-.844-.618-1.801-.76-2.926m-.28-8.944c-1.321.59-3.318 1.096-5.933 1.519-1.522.224-2.587.505-3.208.814-.591.282-1.099.732-1.406 1.295-.338.562-.533 1.181-.533 1.884 0 1.069.393 1.968 1.123 2.671.734.732 1.799 1.07 3.206 1.07 1.434 0 2.675-.311 3.769-.985 1.071-.703 1.884-1.632 2.393-2.813.393-.901.591-2.222.591-3.994v-1.461zm23.035 11.869v-2.982c-1.349 2.335-3.346 3.516-5.988 3.516-1.717 0-3.291-.505-4.727-1.575-1.434-1.04-2.557-2.475-3.318-4.331-.816-1.857-1.181-3.995-1.181-6.441 0-2.335.338-4.501 1.041-6.414.731-1.912 1.799-3.374 3.236-4.416 1.406-1.012 3.008-1.519 4.807-1.519 1.266 0 2.42.282 3.434.9 1.011.59 1.827 1.379 2.472 2.364v-11.73h3.604v32.629h-3.38m-11.477-11.813c-.027 3.037.566 5.315 1.72 6.807 1.181 1.49 2.53 2.25 4.104 2.25 1.604 0 2.956-.731 4.052-2.137 1.123-1.463 1.689-3.628 1.689-6.583 0-3.234-.593-5.597-1.72-7.116-1.123-1.492-2.53-2.25-4.189-2.25-1.602 0-2.953.731-4.052 2.164-1.066 1.463-1.631 3.741-1.604 6.865zm20.986 11.812v-32.628h3.909v13.417h15.413v-13.417h3.939v32.628h-3.939v-15.385h-15.413v15.385zm43.203 0v-3.487c-1.659 2.7-3.936 4.021-6.834 4.021-1.264 0-2.448-.253-3.544-.816-1.099-.505-1.912-1.209-2.447-1.997-.536-.816-.898-1.799-1.123-2.982-.143-.787-.225-2.025-.225-3.74v-14.627h3.653v13.108c0 2.081.088 3.487.225 4.219.225 1.069.703 1.885 1.436 2.475.761.618 1.659.9 2.755.9 1.099 0 2.137-.309 3.093-.928.928-.591 1.632-1.463 2.027-2.503.396-1.07.591-2.587.591-4.613v-12.658h3.628v23.627h-3.235zm8.748 0v-23.627h3.263v3.347c1.574-2.588 3.881-3.881 6.865-3.881 1.264 0 2.472.253 3.543.76 1.096.505 1.912 1.181 2.445 1.997.536.843.928 1.828 1.126 2.982.143.73.225 2.024.225 3.881v14.542h-3.656v-14.374c0-1.632-.14-2.869-.42-3.656-.283-.816-.791-1.463-1.494-1.942-.731-.478-1.602-.731-2.56-.731-1.544 0-2.895.534-4.021 1.632-1.123 1.069-1.687 3.122-1.659 6.16l-.028 12.91h-3.629zm30.773-3.599l.533 3.544c-1.011.254-1.939.365-2.758.365-1.318 0-2.335-.224-3.065-.703-.731-.449-1.236-1.04-1.544-1.799-.283-.732-.423-2.335-.423-4.726v-13.613h-2.703v-3.094h2.703v-5.851l3.626-2.419-.028 8.27h3.659v3.094h-3.659v13.839c0 1.125.058 1.857.198 2.193.113.31.338.59.621.788.307.169.703.282 1.264.282.395-.001.928-.058 1.576-.17zm18.086-4.023l3.741.507c-.591 2.447-1.687 4.303-3.291 5.653-1.604 1.323-3.659 1.997-6.131 1.997-3.153 0-5.656-1.069-7.483-3.205-1.857-2.11-2.785-5.12-2.785-8.945 0-3.967.956-7.061 2.813-9.254 1.857-2.193 4.274-3.291 7.23-3.291 2.868 0 5.23 1.069 7.06 3.207 1.799 2.166 2.728 5.175 2.728 9.085 0 .224-.028.59-.028 1.068h-16.033c.14 2.588.816 4.585 1.997 5.964 1.211 1.377 2.7 2.081 4.502 2.081 1.318 0 2.472-.394 3.428-1.181.928-.761 1.689-1.998 2.252-3.686m-11.955-6.469h11.982c-.17-1.97-.618-3.488-1.379-4.473-1.154-1.547-2.67-2.306-4.499-2.306-1.687 0-3.093.59-4.219 1.828-1.154 1.237-1.772 2.898-1.885 4.951zm20.028 14.091v-23.627h3.291v3.572c.816-1.688 1.574-2.785 2.305-3.32.703-.534 1.494-.787 2.307-.787 1.266 0 2.505.422 3.769 1.294l-1.263 3.712c-.873-.59-1.774-.872-2.673-.872-.788 0-1.491.254-2.14.788-.615.534-1.096 1.238-1.349 2.193-.42 1.406-.591 2.982-.591 4.67v12.376h-3.656z"/><path fill="#D71920" d="M384.51 105.693c0 39.343-31.879 71.197-71.194 71.197s-71.197-31.854-71.197-71.197c0-39.315 31.881-71.197 71.197-71.197s71.194 31.882 71.194 71.197z"/><path fill="#fff" d="M283.294 67.616h-13.012v66.975h13.012v-15.66l5.462-5.633 11.801 21.293h15.575l-17.882-30.418 17.431-19.208h-15.968l-16.419 18.814zm34.219 17.349v10.423h24.362l-26.109 29.063v10.14h42.891v-10.424h-26.755l25.743-28.498v-10.704z"/></g></svg>