<?xml version="1.0" encoding="UTF-8" standalone="no"?>
<svg width="154px" height="35px" viewBox="0 0 154 35" version="1.1" xmlns="http://www.w3.org/2000/svg" xmlns:xlink="http://www.w3.org/1999/xlink" xmlns:sketch="http://www.bohemiancoding.com/sketch/ns">
    <!-- Generator: Sketch 3.2.2 (9983) - http://www.bohemiancoding.com/sketch -->
    <title>logo-vector</title>
    <desc>Created with Sketch.</desc>
    <defs></defs>
    <g id="Page-1" stroke="none" stroke-width="1" fill="none" fill-rule="evenodd" sketch:type="MSPage">
        <g id="logo-vector" sketch:type="MSLayerGroup">
            <path d="M5.034,9.143 L3.686,9.143 L1.946,21.382 L6.822,21.382 L5.034,9.143" id="Fill-1" fill="#CC0099" sketch:type="MSShapeGroup"></path>
            <path d="M0.1,3.272 L2.577,5.233 L1.735,8.283 L4.365,6.532 L6.994,8.283 L6.153,5.233 L8.629,3.272 L5.464,3.138 L4.365,0.174 L3.265,3.138 C2.204,3.186 1.152,3.224 0.1,3.272" id="Fill-2" fill="#B3277E" sketch:type="MSShapeGroup"></path>
            <path d="M149.58,8.627 C148.041,8.627 146.855,8.971 146.014,9.65 C145.125,10.348 144.694,11.295 144.713,12.471 C144.713,13.169 144.895,13.8 145.268,14.383 C145.603,14.89 146.176,15.406 147.008,15.932 L149.055,17.175 C150.107,17.816 150.632,18.447 150.632,19.078 C150.632,19.537 150.47,19.939 150.135,20.273 C149.82,20.589 149.418,20.742 148.94,20.742 C148.079,20.742 147.267,20.675 146.511,20.541 C145.756,20.398 145.115,20.11 144.609,19.69 L144.609,21.296 C145.268,21.535 145.947,21.707 146.645,21.822 C146.999,21.87 147.343,21.918 147.687,21.956 C148.032,21.994 148.366,22.013 148.701,22.013 C150.231,22.013 151.455,21.631 152.373,20.876 C153.271,20.101 153.721,19.107 153.721,17.892 C153.721,17.137 153.53,16.477 153.147,15.932 C152.717,15.339 152.057,14.794 151.159,14.297 L149.285,13.245 C148.701,12.91 148.299,12.614 148.06,12.356 C147.84,12.031 147.726,11.706 147.726,11.371 C147.726,10.941 147.879,10.587 148.175,10.31 C148.472,10.013 148.845,9.87 149.304,9.87 C150.078,9.87 150.795,9.918 151.455,10.004 C152.124,10.099 152.707,10.329 153.195,10.702 L153.195,9.153 C152.88,9.067 152.583,8.98 152.306,8.904 C152.019,8.837 151.713,8.789 151.397,8.761 C151.082,8.703 150.786,8.665 150.499,8.655 C150.202,8.636 149.897,8.627 149.58,8.627" id="Fill-3" fill="#343433" sketch:type="MSShapeGroup"></path>
            <path d="M141.061,9.717 C140.573,8.98 139.789,8.608 138.708,8.608 C138.116,8.608 137.446,8.761 136.691,9.057 C135.878,9.363 134.903,9.831 133.784,10.463 C133.526,9.899 133.163,9.449 132.675,9.114 C132.197,8.78 131.652,8.608 131.05,8.608 C130.524,8.608 129.902,8.751 129.185,9.028 C128.449,9.296 127.531,9.745 126.431,10.377 L126.431,8.503 L123.113,9.354 L123.113,21.592 L126.431,21.592 L126.431,10.635 C126.67,10.587 126.9,10.558 127.12,10.558 C127.244,10.52 127.359,10.501 127.445,10.501 L127.76,10.501 C128.898,10.501 129.692,10.759 130.132,11.275 C130.562,11.782 130.772,12.844 130.772,14.46 L130.772,21.592 L134.119,21.592 L134.119,13.274 C134.119,12.977 134.119,12.709 134.11,12.471 C134.1,12.251 134.081,12.031 134.062,11.83 C134.033,11.6 134.004,11.4 133.985,11.218 C133.966,11.036 133.938,10.874 133.909,10.721 C134.052,10.683 134.196,10.663 134.339,10.654 C134.492,10.644 134.635,10.616 134.779,10.587 C134.923,10.587 135.075,10.577 135.238,10.568 C135.391,10.558 135.544,10.558 135.697,10.558 C136.72,10.577 137.437,10.835 137.848,11.323 C138.26,11.849 138.46,12.891 138.46,14.46 L138.46,21.593 L141.807,21.593 L141.807,13.283 C141.807,11.629 141.558,10.434 141.061,9.717" id="Fill-4" fill="#343433" sketch:type="MSShapeGroup"></path>
            <path d="M118.772,10.195 C117.845,9.134 116.582,8.608 115.005,8.608 C113.121,8.608 111.591,9.248 110.405,10.529 C109.23,11.782 108.637,13.417 108.637,15.444 C108.637,17.462 109.201,19.049 110.329,20.187 C111.457,21.363 112.968,21.956 114.871,21.956 C115.856,21.956 116.812,21.774 117.72,21.401 C118.639,21.009 119.48,20.455 120.254,19.737 C119.939,19.795 119.642,19.833 119.365,19.862 C119.078,19.891 118.81,19.919 118.571,19.957 C118.313,19.996 118.084,20.015 117.864,20.024 C117.644,20.034 117.453,20.044 117.271,20.044 C115.579,20.044 114.278,19.604 113.37,18.714 C113.15,18.495 112.959,18.284 112.786,18.093 C112.624,17.892 112.49,17.682 112.366,17.462 C112.261,17.223 112.175,16.955 112.127,16.659 C112.069,16.372 112.041,16.018 112.041,15.597 L112.041,15.368 L120.178,14.651 L120.178,14.517 C120.178,12.69 119.71,11.247 118.772,10.195 L118.772,10.195 Z M112.71,10.826 C113.15,10.09 113.752,9.717 114.527,9.717 C115.196,9.717 115.712,10.051 116.085,10.721 C116.458,11.352 116.64,12.27 116.64,13.484 L112.04,14.153 C112.06,12.69 112.28,11.581 112.71,10.826 L112.71,10.826 Z" id="Fill-5" fill="#343433" sketch:type="MSShapeGroup"></path>
            <path d="M107.441,10.138 L107.441,8.77 L103.301,8.77 L103.301,5.07 C102.766,5.682 102.259,6.236 101.771,6.733 C101.293,7.231 100.844,7.68 100.423,8.082 C99.974,8.512 99.543,8.894 99.132,9.229 C98.721,9.574 98.3,9.88 97.88,10.138 L100.003,10.138 L100.003,18.131 C100.003,19.546 100.241,20.502 100.729,21.009 C101.264,21.554 102.106,21.822 103.244,21.813 C104.181,21.813 105.07,21.64 105.902,21.306 C106.753,20.952 107.46,20.483 108.025,19.9 C107.652,19.938 107.327,19.967 107.04,19.986 C106.849,20.005 106.676,20.015 106.514,20.015 L106.036,20.015 C105.501,19.996 105.061,19.948 104.707,19.881 C104.344,19.795 104.057,19.661 103.856,19.46 C103.483,19.087 103.301,18.37 103.301,17.299 L103.301,10.138 L107.441,10.138" id="Fill-6" fill="#343433" sketch:type="MSShapeGroup"></path>
            <path d="M94.858,8.761 C94.542,8.703 94.246,8.665 93.959,8.655 C93.663,8.636 93.357,8.627 93.041,8.627 C91.502,8.627 90.316,8.971 89.475,9.65 C88.585,10.348 88.155,11.295 88.174,12.471 C88.174,13.169 88.356,13.8 88.729,14.383 C89.064,14.89 89.637,15.406 90.469,15.932 L92.515,17.175 C93.567,17.816 94.093,18.447 94.093,19.078 C94.093,19.537 93.93,19.939 93.596,20.273 C93.28,20.589 92.879,20.742 92.401,20.742 C91.54,20.742 90.727,20.675 89.972,20.541 C89.217,20.398 88.576,20.11 88.069,19.69 L88.069,21.296 C88.729,21.535 89.408,21.707 90.106,21.822 C90.46,21.87 90.804,21.918 91.148,21.956 C91.492,21.994 91.827,22.013 92.162,22.013 C93.691,22.013 94.916,21.631 95.833,20.876 C96.732,20.101 97.181,19.107 97.181,17.892 C97.181,17.137 96.99,16.477 96.608,15.932 C96.178,15.339 95.518,14.794 94.619,14.297 L92.745,13.245 C92.162,12.91 91.76,12.614 91.521,12.356 C91.301,12.031 91.186,11.706 91.186,11.371 C91.186,10.941 91.34,10.587 91.636,10.31 C91.933,10.013 92.305,9.87 92.764,9.87 C93.539,9.87 94.256,9.918 94.916,10.004 C95.585,10.099 96.168,10.329 96.656,10.702 L96.656,9.153 C96.34,9.067 96.044,8.98 95.767,8.904 C95.48,8.837 95.174,8.789 94.858,8.761" id="Fill-7" fill="#343433" sketch:type="MSShapeGroup"></path>
            <path d="M87.037,8.761 L85.181,8.761 L81.94,18.409 L78.039,8.761 L74.443,8.761 C74.415,8.761 74.434,8.828 74.501,8.952 C74.568,9.076 74.606,9.143 74.606,9.162 L80.229,22.042 C79.913,22.797 79.636,23.409 79.416,23.878 C79.177,24.346 78.986,24.7 78.823,24.939 C78.632,25.198 78.46,25.379 78.306,25.494 C78.144,25.599 77.953,25.656 77.714,25.656 C77.36,25.656 76.958,25.637 76.5,25.609 C76.031,25.571 75.648,25.532 75.362,25.494 C75.065,25.465 74.903,25.446 74.865,25.446 L74.865,27.033 C75.323,27.138 75.706,27.196 76.002,27.215 C76.165,27.244 76.318,27.263 76.461,27.263 L76.872,27.263 C77.963,27.263 78.852,26.938 79.54,26.297 C79.894,25.981 80.248,25.475 80.602,24.777 C80.965,24.079 81.357,23.189 81.778,22.118 L87.037,8.761" id="Fill-8" fill="#343433" sketch:type="MSShapeGroup"></path>
            <path d="M66.019,5.252 C66.593,4.764 67.32,4.515 68.209,4.515 C68.649,4.515 69.146,4.563 69.691,4.649 C70.236,4.735 70.734,4.831 71.192,4.936 C71.661,5.041 72.053,5.146 72.359,5.233 L72.827,5.357 L72.827,3.635 C72.11,3.473 71.422,3.358 70.762,3.301 C70.428,3.262 70.093,3.234 69.749,3.205 C69.405,3.176 69.079,3.167 68.764,3.167 C66.718,3.167 65.15,3.597 64.059,4.467 C62.95,5.337 62.405,6.571 62.424,8.149 C62.424,9.172 62.644,10.051 63.084,10.769 C63.342,11.161 63.667,11.524 64.06,11.878 C64.451,12.232 64.91,12.586 65.436,12.958 L68.104,14.699 C68.984,15.301 69.577,15.817 69.892,16.257 C70.208,16.678 70.37,17.166 70.37,17.72 C70.37,18.552 70.083,19.212 69.5,19.718 C68.955,20.206 68.219,20.455 67.301,20.455 C66.775,20.455 66.221,20.388 65.618,20.254 C65.006,20.11 64.442,19.957 63.925,19.795 C63.4,19.623 62.97,19.47 62.616,19.336 L62.099,19.135 L62.099,20.981 C62.558,21.124 62.998,21.249 63.428,21.353 C63.849,21.44 64.251,21.526 64.643,21.592 C65.044,21.66 65.437,21.717 65.819,21.746 C66.192,21.774 66.565,21.784 66.937,21.784 C69.098,21.784 70.714,21.344 71.776,20.455 C72.885,19.556 73.44,18.246 73.44,16.525 C73.44,15.502 73.191,14.603 72.694,13.848 C72.178,13.073 71.326,12.327 70.15,11.61 L67.731,10.109 C66.632,9.43 65.933,8.894 65.637,8.503 C65.341,8.13 65.198,7.68 65.198,7.154 C65.198,6.38 65.475,5.739 66.019,5.252" id="Fill-9" fill="#343433" sketch:type="MSShapeGroup"></path>
            <path d="M51.218,4.63 C51.782,4.706 52.308,4.802 52.795,4.907 C53.283,5.013 53.694,5.117 54.01,5.204 L54.498,5.328 L54.498,3.75 C54.115,3.645 53.742,3.549 53.369,3.473 C52.996,3.397 52.643,3.339 52.289,3.301 C51.916,3.262 51.562,3.234 51.218,3.205 C50.873,3.176 50.539,3.167 50.214,3.167 C47.24,3.167 44.936,4.047 43.301,5.797 C41.656,7.508 40.834,9.918 40.834,13.016 C40.834,15.913 41.57,18.15 43.042,19.718 C44.525,21.249 46.686,22.013 49.544,22.013 C49.822,22.013 50.127,22.004 50.463,21.975 C50.797,21.946 51.151,21.908 51.543,21.86 C51.964,21.813 52.394,21.746 52.843,21.669 C53.283,21.602 53.752,21.516 54.258,21.43 L54.66,19.737 L54.134,19.881 C53.79,19.967 53.36,20.072 52.853,20.197 C52.346,20.321 51.791,20.426 51.189,20.512 C50.596,20.598 50.051,20.646 49.544,20.646 C48.732,20.646 48.053,20.464 47.489,20.11 C46.925,19.757 46.418,19.221 45.978,18.523 C45.089,17.06 44.649,15.119 44.649,12.69 C44.687,10.138 45.137,8.139 46.007,6.676 C46.475,5.94 46.992,5.385 47.575,5.032 C48.158,4.668 48.856,4.487 49.688,4.487 C50.147,4.487 50.654,4.534 51.218,4.63" id="Fill-10" fill="#343433" sketch:type="MSShapeGroup"></path>
            <path d="M20.629,3.664 C20.046,3.54 19.033,3.473 17.579,3.473 L12.444,3.473 L12.444,21.621 L18.153,21.592 C20.352,21.592 22.025,21.181 23.173,20.349 C24.311,19.537 24.884,18.351 24.884,16.783 C24.884,15.473 24.406,14.392 23.45,13.541 C22.465,12.662 21.203,12.213 19.654,12.193 C20.964,11.964 22.016,11.447 22.819,10.635 C23.594,9.803 23.976,8.808 23.976,7.652 C23.976,6.915 23.823,6.255 23.507,5.682 C23.192,5.079 22.743,4.592 22.169,4.219 C21.71,3.922 21.193,3.741 20.629,3.664 L20.629,3.664 Z M15.925,4.668 L17.359,4.668 C18.306,4.668 19.023,4.965 19.52,5.548 C19.759,5.844 19.941,6.207 20.075,6.638 C20.199,7.068 20.257,7.575 20.237,8.149 C20.237,9.258 19.96,10.119 19.415,10.721 C18.87,11.333 18.096,11.639 17.091,11.639 L15.925,11.639 L15.925,4.668 L15.925,4.668 Z M15.925,12.853 L16.91,12.853 C18.335,12.853 19.396,13.178 20.075,13.828 C20.773,14.469 21.127,15.425 21.127,16.707 C21.127,17.844 20.792,18.743 20.132,19.403 C19.444,20.053 18.535,20.378 17.417,20.378 L15.925,20.378 L15.925,12.853 L15.925,12.853 Z" id="Fill-11" fill="#343433" sketch:type="MSShapeGroup"></path>
            <path d="M38.233,4.745 L38.529,3.473 L27.877,3.473 L27.877,21.621 L38.414,21.592 L38.711,20.321 L31.339,20.321 L31.339,12.958 L37.726,12.958 L37.888,11.667 L31.339,11.667 L31.339,4.745 L38.233,4.745" id="Fill-12" fill="#343433" sketch:type="MSShapeGroup"></path>
            <path d="M3.686,9.143 L1.946,21.382 L6.822,21.382 L5.034,9.143 L3.686,9.143 L3.686,9.143 Z" id="Fill-13" fill="#B3277E" sketch:type="MSShapeGroup"></path>
            <path d="M3.686,9.143 L1.946,21.382 L6.822,21.382 L5.034,9.143 L3.686,9.143 L3.686,9.143 Z" id="Stroke-14" stroke="#B3277E" stroke-width="0.191" stroke-linecap="round" stroke-linejoin="round" sketch:type="MSShapeGroup"></path>
            <text id="Intelligent-Business-and-e-Commerce-Systems" sketch:type="MSTextLayer" font-family="Arial" font-size="7.3274" font-weight="normal" fill="#CBCCCB">
                <tspan x="1.6069" y="32.6957203">Intelligent Business and e-Commerce Systems</tspan>
            </text>
        </g>
    </g>
</svg>