<?xml version="1.0" encoding="UTF-8" standalone="no"?>
<!-- Created with Inkscape (http://www.inkscape.org/) -->
<svg
   xmlns:svg="http://www.w3.org/2000/svg"
   xmlns="http://www.w3.org/2000/svg"
   version="1.0"
   width="654.44879"
   height="567.63776"
   id="svg2591"
   xml:space="preserve"><defs
     id="defs2594" /><g
     transform="matrix(1.25,0,0,-1.25,-57.876845,983.55227)"
     id="g2600"><g
       transform="matrix(18.887752,0,0,18.887752,-2274.3726,-11674.03)"
       id="g4105"><path
         d="M 136.72621,659.58346 L 138.61351,656.31456 L 138.31531,656.14276 L 136.72621,658.89546 L 135.13741,656.14276 L 134.83951,656.31456 L 136.72621,659.58346 z M 148.54751,639.10906 L 148.54751,639.10906 L 150.43481,635.83986 L 146.65991,635.83986 L 146.65991,636.18396 L 149.83871,636.18396 L 148.24961,638.93676 L 148.54751,639.10906 z M 126.79251,635.83986 L 126.79251,635.83986 L 123.01791,635.83986 L 124.90521,639.10906 L 125.20341,638.93676 L 123.61401,636.18396 L 126.79251,636.18396 L 126.79251,635.83986 z M 136.72621,657.51896 L 136.72621,657.51896 L 124.80621,636.87196 L 148.64671,636.87196 L 136.72621,657.51896 z"
         id="path3040"
         style="fill:#266133;fill-opacity:1;fill-rule:evenodd;stroke:none" /><path
         d="M 125.00981,642.17896 L 124.95421,642.41886 C 125.10841,642.48346 125.20171,642.57416 125.23711,642.69006 C 125.27251,642.80606 125.24871,643.04246 125.16601,643.40076 L 124.36061,646.88736 C 124.27811,647.24596 124.19591,647.46906 124.11351,647.55716 C 124.03071,647.64586 123.90681,647.68676 123.74011,647.67766 L 123.68511,647.91746 L 126.28651,648.51816 L 126.34181,648.27826 C 126.18781,648.21316 126.09401,648.12236 126.05891,648.00646 C 126.02341,647.89086 126.04751,647.65416 126.12971,647.29586 L 126.35711,646.31306 L 126.62041,646.74536 C 126.69521,646.86916 126.79671,647.03196 126.92771,647.23656 C 127.24941,647.74686 127.39401,648.07256 127.36201,648.21226 C 127.34471,648.28536 127.30721,648.34006 127.25001,648.37696 C 127.19271,648.41466 127.11561,648.43306 127.01811,648.43446 L 126.96281,648.67426 L 129.38991,649.23446 L 129.44571,648.99486 C 129.20421,648.92436 128.95471,648.77496 128.69281,648.54706 C 128.43151,648.31766 128.19051,648.03656 127.97001,647.70226 L 127.67351,647.26266 C 128.03401,647.08066 128.39261,646.80796 128.74951,646.44486 C 129.10531,646.08206 129.45761,645.63076 129.80321,645.09106 C 129.87201,644.98356 129.96191,644.83276 130.07471,644.64056 C 130.39561,644.09156 130.73831,643.74626 131.05321,643.74916 L 131.10941,643.49716 L 128.45101,642.97326 L 128.39601,643.21306 C 128.48081,643.25076 128.53691,643.29896 128.56131,643.35796 C 128.58681,643.41686 128.58771,643.49656 128.56411,643.59746 C 128.49891,643.88006 128.29991,644.23526 127.96741,644.66496 C 127.63551,645.09476 127.23691,645.49436 126.77091,645.86456 L 126.52601,645.58166 L 126.93511,643.80946 C 127.01751,643.45116 127.10001,643.22756 127.18251,643.13936 C 127.26561,643.05066 127.38861,643.01016 127.55581,643.01886 L 127.61141,642.77906 L 125.00981,642.17896 z"
         id="path3042"
         style="fill:#111111;fill-opacity:1;fill-rule:evenodd;stroke:#ffffff;stroke-width:0.21600001;stroke-linecap:butt;stroke-linejoin:miter;stroke-miterlimit:22.92558479;stroke-dasharray:none;stroke-opacity:1" /><path
         d="M 142.02761,647.41256 C 142.72431,647.14846 143.19001,646.88086 143.42361,646.61016 C 143.65661,646.33796 143.76151,645.98116 143.73861,645.53576 C 143.70481,644.89516 143.41991,644.39176 142.88221,644.02436 C 142.34481,643.65696 141.65001,643.49566 140.79681,643.54016 C 140.45491,643.55836 140.08331,643.61306 139.68161,643.70486 C 139.27801,643.79536 139.04321,643.84326 138.97351,643.84686 C 138.89361,643.85146 138.77541,643.90646 138.69831,643.88286 C 138.62061,643.85906 138.45391,643.85486 138.35331,643.79046 L 138.44831,646.18436 L 138.69031,646.18066 C 138.75161,645.59586 138.94771,645.13806 139.27711,644.80696 C 139.60681,644.47566 140.04611,644.29566 140.59691,644.26696 C 140.97081,644.24746 141.26331,644.30186 141.47451,644.42886 C 141.68571,644.55586 141.79711,644.74236 141.81011,644.98896 C 141.82831,645.34186 141.51681,645.63866 140.87611,645.88016 C 140.80271,645.90746 140.74861,645.92696 140.71121,645.94086 L 140.01691,646.21046 C 139.52091,646.40006 139.16171,646.63536 138.94011,646.91656 C 138.71921,647.19686 138.61951,647.54586 138.64071,647.96136 C 138.67021,648.51816 138.89411,648.95326 139.31401,649.26446 C 139.73261,649.57656 140.28711,649.71406 140.97531,649.67836 C 141.22621,649.66476 141.54651,649.61856 141.93771,649.53976 C 142.32951,649.46006 142.59791,649.41666 142.74101,649.40876 C 142.79521,649.40596 142.85641,649.41416 142.92361,649.43146 C 142.99081,649.44986 143.07011,649.48136 143.16171,649.52496 L 143.24871,647.64586 L 143.00151,647.62466 C 142.81811,648.03116 142.58831,648.35056 142.31101,648.58246 C 142.03381,648.81466 141.73301,648.93906 141.40901,648.95576 C 141.16471,648.96886 140.96371,648.92036 140.80581,648.81296 C 140.64741,648.70406 140.56371,648.56146 140.55381,648.38286 C 140.54651,648.23096 140.59151,648.10456 140.69021,648.00446 C 140.78771,647.90386 140.99121,647.79616 141.29881,647.67936 L 142.02761,647.41256 z"
         id="path3044"
         style="fill:#111111;fill-opacity:1;fill-rule:evenodd;stroke:#ffffff;stroke-width:0.21600001;stroke-linecap:butt;stroke-linejoin:miter;stroke-miterlimit:22.92558479;stroke-dasharray:none;stroke-opacity:1" /><path
         d="M 143.43411,643.32106 L 143.48941,643.56086 C 143.65611,643.55186 143.77991,643.59236 143.86271,643.68076 C 143.94581,643.76956 144.02741,643.99256 144.11021,644.35086 L 144.91521,647.83756 C 144.99801,648.19556 145.02261,648.43366 144.98641,648.54846 C 144.95091,648.66406 144.85741,648.75486 144.70371,648.81996 L 144.75901,649.05986 L 148.71531,648.14596 C 148.83721,648.11816 148.94071,648.10906 149.02831,648.11816 C 149.11671,648.12726 149.18901,648.15586 149.24801,648.20456 L 149.27351,646.11436 L 149.03931,646.13306 C 148.96421,646.58686 148.78881,646.95706 148.51291,647.24336 C 148.23691,647.53056 147.86781,647.72666 147.40551,647.83356 C 147.17611,647.88656 147.00921,647.87946 146.90541,647.81426 C 146.80251,647.74856 146.71751,647.57336 146.65231,647.29046 L 146.51571,646.69886 L 146.99871,646.58746 C 147.30091,646.51766 147.51351,646.51596 147.63901,646.58316 C 147.76291,646.65006 147.87001,646.80996 147.96081,647.05966 L 148.13251,647.01976 L 147.99681,644.74176 L 147.81481,644.73926 C 147.78421,645.13296 147.69491,645.42186 147.54631,645.60696 C 147.39721,645.79176 147.15461,645.92276 146.81901,646.00036 L 146.37821,646.10186 L 145.94161,644.21116 C 145.86541,643.88346 145.86821,643.65306 145.94731,643.51926 C 146.02751,643.38596 146.21261,643.28566 146.50401,643.21816 C 146.97171,643.11046 147.41821,643.15436 147.84451,643.35166 C 148.27061,643.54816 148.69461,643.90416 149.11761,644.42066 L 149.33051,644.32736 L 148.05741,642.15146 C 148.01261,642.19716 147.96021,642.23516 147.90011,642.26486 C 147.84091,642.29546 147.75011,642.32446 147.62631,642.35336 L 143.43411,643.32106 z"
         id="path3046"
         style="fill:#111111;fill-opacity:1;fill-rule:evenodd;stroke:#ffffff;stroke-width:0.21600001;stroke-linecap:butt;stroke-linejoin:miter;stroke-miterlimit:22.92558479;stroke-dasharray:none;stroke-opacity:1" /><path
         d="M 134.09511,648.21426 L 134.82811,646.37026 C 134.61011,646.44746 134.37971,646.50496 134.13141,646.54206 C 133.96501,646.56706 133.58291,646.60786 133.54571,646.49306 L 133.33911,645.85046 C 133.93631,645.83516 134.42391,645.68286 134.81991,645.40966 C 135.21681,645.13526 135.42141,644.80786 135.43451,644.42606 C 135.43961,644.27916 135.40841,644.16696 135.34031,644.08616 C 135.27261,644.00626 135.15891,643.94956 134.99991,643.91526 L 135.00841,643.66886 L 138.01971,643.77436 L 138.02421,644.02036 C 137.87451,644.02376 137.73731,644.07566 137.63871,644.17746 C 137.54031,644.27866 137.42151,644.51336 137.28211,644.87846 L 135.80351,648.79136 C 135.77891,648.86566 135.76131,648.92286 135.75191,648.96206 C 135.74431,649.00256 135.73971,649.04026 135.73801,649.07426 C 135.73631,649.12816 135.75561,649.18056 135.79671,649.22876 C 135.83811,649.27726 135.89621,649.31806 135.96941,649.34956 L 135.96111,649.59556 L 133.27701,649.50176 L 133.28611,649.25566 C 133.37001,649.22116 133.43231,649.18116 133.47151,649.13716 C 133.51061,649.09246 133.53131,649.03686 133.53351,648.97056 C 133.53501,648.93086 133.53181,648.88886 133.52451,648.84556 C 133.51681,648.80216 133.50551,648.75876 133.49051,648.71516 L 132.26331,644.92406 C 132.12081,644.49036 131.98921,644.20406 131.86991,644.06656 C 131.75141,643.92856 131.54421,643.83556 131.34461,643.78936 L 131.40161,643.54276 L 133.39721,643.61306 L 133.38841,643.85856 C 133.23621,643.85346 133.11971,643.88456 133.03951,643.95236 C 132.95951,644.01956 132.91761,644.12276 132.91281,644.26076 C 132.90991,644.32906 132.92101,644.41526 132.93801,644.51786 C 132.95441,644.61996 132.98501,644.73476 133.02531,644.86316 L 134.09511,648.21426 z"
         id="path3048"
         style="fill:#111111;fill-opacity:1;fill-rule:evenodd;stroke:#ffffff;stroke-width:0.21600001;stroke-linecap:butt;stroke-linejoin:miter;stroke-miterlimit:22.92558479;stroke-dasharray:none;stroke-opacity:1" /></g></g></svg>