<svg xmlns="http://www.w3.org/2000/svg" version="1" width="654.449" height="567.638"><g fill-rule="evenodd"><path d="M327.263 3.325l44.56 77.178-7.042 4.056-37.517-64.992-37.512 64.99-7.032-4.055 44.545-77.178zm88.564 1139.66l44.56 77.185H371.26v-8.124h75.052l-37.518-64.994 7.033-4.068zm-780.915-426.69h-89.118l44.56-77.186 7.04 4.067-37.526 64.994h75.044v8.125zm726.415-592.3L79.897 611.473H642.77L361.327 123.996z" fill="#266133"/><path d="M50.64 414.245l-1.314-5.664c3.64-1.524 5.843-3.666 6.68-6.402.835-2.74.273-8.32-1.68-16.78l-19.015-82.32c-1.947-8.465-3.888-13.733-5.833-15.813-1.955-2.094-4.88-3.06-8.816-2.845l-1.298-5.66 61.42-14.184 1.305 5.664c-3.636 1.537-5.85 3.68-6.68 6.417-.837 2.73-.268 8.318 1.672 16.778l5.368 23.204 6.217-10.208c1.766-2.923 4.162-6.767 7.255-11.597 7.596-12.048 11.01-19.738 10.254-23.036-.408-1.727-1.294-3.02-2.644-3.89-1.353-.89-3.173-1.325-5.475-1.358l-1.306-5.66 57.303-13.228 1.317 5.657c-5.702 1.666-11.592 5.193-17.776 10.574-6.17 5.416-11.86 12.053-17.065 19.946l-7 10.38c8.51 4.296 16.977 10.734 25.403 19.307 8.4 8.566 16.718 19.22 24.878 31.963 1.625 2.538 3.748 6.1 6.41 10.636 7.577 12.962 15.668 21.115 23.103 21.046l1.327 5.95-62.765 12.37-1.298-5.662c2.002-.89 3.326-2.028 3.903-3.42.602-1.392.623-3.274.066-5.656-1.54-6.672-6.238-15.058-14.088-25.204-7.837-10.147-17.248-19.582-28.25-28.322l-5.782 6.68 9.66 41.84c1.944 8.46 3.892 13.74 5.84 15.822 1.962 2.094 4.866 3.05 8.814 2.845l1.312 5.66-61.423 14.17z" fill="#111" stroke="#fff" stroke-width="5.09976" stroke-miterlimit="22.926"/><path d="M452.43 290.68c16.448 6.235 27.443 12.553 32.958 18.944 5.502 6.427 7.978 14.85 7.438 25.367-.798 15.125-7.525 27.01-20.22 35.685-12.688 8.674-29.092 12.482-49.236 11.432-8.073-.43-16.846-1.72-26.33-3.89-9.53-2.135-15.073-3.266-16.718-3.35-1.887-.11-4.678-1.41-6.498-.85-1.834.56-5.77.66-8.145 2.18l2.242-56.52 5.713.088c1.448 13.807 6.077 24.615 13.855 32.433 7.784 7.822 18.156 12.07 31.16 12.75 8.828.46 15.734-.825 20.72-3.823 4.987-3 7.617-7.402 7.924-13.224.43-8.33-6.925-15.34-22.052-21.04-1.733-.645-3.01-1.106-3.893-1.434l-16.394-6.365c-11.71-4.475-20.19-10.03-25.423-16.67-5.215-6.618-7.57-14.858-7.07-24.668.698-13.146 5.984-23.418 15.898-30.766 9.884-7.37 22.976-10.615 39.224-9.772 5.924.32 13.486 1.412 22.722 3.272 9.25 1.882 15.588 2.907 18.966 3.093 1.28.065 2.725-.128 4.31-.537 1.588-.434 3.46-1.178 5.623-2.207l2.054 44.365-5.837.502c-4.33-9.598-9.756-17.14-16.303-22.614-6.545-5.482-13.647-8.42-21.296-8.813-5.768-.31-10.514.835-14.242 3.37-3.74 2.572-5.716 5.94-5.95 10.156-.172 3.587.89 6.57 3.22 8.935 2.303 2.375 7.107 4.918 14.37 7.675l17.207 6.3z" fill="#111" stroke="#fff" stroke-width="5.09976" stroke-miterlimit="22.926"/><path d="M485.636 387.28l1.306-5.662c3.936.213 6.86-.744 8.814-2.83 1.962-2.097 3.888-7.362 5.843-15.822l19.005-82.32c1.955-8.453 2.536-14.075 1.68-16.785-.837-2.728-3.045-4.872-6.673-6.41l1.305-5.663 93.408 21.577c2.88.656 5.322.87 7.39.656 2.088-.215 3.795-.89 5.188-2.04l.602 49.35-5.53-.442c-1.773-10.714-5.914-19.454-12.428-26.214-6.517-6.78-15.23-11.41-26.146-13.934-5.415-1.252-9.356-1.084-11.806.455-2.43 1.55-4.437 5.688-5.976 12.367l-3.225 13.968 11.404 2.63c7.134 1.648 12.154 1.688 15.117.102 2.925-1.58 5.454-5.355 7.598-11.25l4.054.94-3.204 53.785-4.297.06c-.723-9.296-2.83-16.117-6.34-20.487-3.52-4.363-9.248-7.456-17.17-9.288l-10.408-2.397-10.31 44.64c-1.798 7.737-1.732 13.176.136 16.335 1.894 3.147 6.264 5.516 13.144 7.11 11.042 2.542 21.584 1.506 31.65-3.153 10.06-4.64 20.07-13.044 30.057-25.24l5.026 2.204-30.058 51.374c-1.057-1.08-2.294-1.976-3.713-2.677-1.4-.723-3.543-1.408-6.466-2.09l-98.978-22.847z" fill="#111" stroke="#fff" stroke-width="5.09976" stroke-miterlimit="22.926"/><path d="M265.143 271.75l17.306 43.538c-5.148-1.823-10.588-3.18-16.45-4.056-3.93-.59-12.95-1.554-13.83 1.157l-4.877 15.17c14.1.362 25.613 3.958 34.962 10.408 9.37 6.48 14.2 14.208 14.51 23.223.12 3.47-.615 6.118-2.223 8.026-1.6 1.886-4.283 3.225-8.037 4.035l.2 5.818 71.097-2.49.107-5.81c-3.536-.08-6.775-1.304-9.103-3.708-2.323-2.39-5.128-7.93-8.42-16.55l-34.91-92.384c-.58-1.754-.995-3.105-1.217-4.03-.18-.956-.288-1.847-.33-2.65-.04-1.272.417-2.51 1.387-3.647.978-1.146 2.35-2.11 4.078-2.853l-.196-5.808-63.373 2.213.215 5.81c1.98.815 3.452 1.76 4.377 2.8.923 1.054 1.41 2.367 1.463 3.932.036.937-.04 1.93-.212 2.95-.18 1.026-.448 2.05-.802 3.08l-28.974 89.508c-3.365 10.24-6.472 17-9.288 20.246-2.798 3.257-7.69 5.452-12.403 6.543l1.346 5.822 47.115-1.66-.208-5.796c-3.593.12-6.344-.614-8.237-2.215-1.89-1.587-2.878-4.023-2.992-7.282-.068-1.612.194-3.647.595-6.07.388-2.41 1.11-5.12 2.062-8.152l25.258-79.12z" fill="#111" stroke="#fff" stroke-width="5.09976" stroke-miterlimit="22.926"/></g></svg>