<svg xmlns="http://www.w3.org/2000/svg" width="299" height="112" viewBox="0 0 299 112.125" enable-background="new 0 0 64 64" shape-rendering="geometricPrecision" text-rendering="geometricPrecision" image-rendering="optimizeQuality" fill-rule="evenodd" clip-rule="evenodd"><defs><style type="text/css"><![CDATA[
    .fil1 {fill:#0CB5DD}
    .fil0 {fill:#FFC731}
    .fil2 {fill:#3860A9}
   ]]></style></defs><g id="Слой_x0020_1"><path class="fil0" d="M161.924 96.565C87.15 96.565 26.54 75.34 26.54 49.148c0-23.417 48.48-42.862 112.21-46.713C62.49 4.447 2.338 27.675 2.338 56.055c0 29.665 65.885 53.735 147.165 53.735 81.274 0 147.16-24.07 147.16-53.736 0-.652-.045-1.29-.104-1.928-7.093 23.85-64.662 42.44-134.634 42.44z"/><path class="fil1" d="M174.34 107.58c-81.273 0-147.16-23.81-147.16-53.187 0-25.606 50.033-46.98 116.68-52.059C65.197 3.42 2.337 27.044 2.337 56.054c0 29.666 65.885 53.736 147.165 53.736 16.456 0 32.29-.99 47.07-2.805-7.25.394-14.667.596-22.23.596z"/><g id="_152200352"><path id="_152205248" class="fil2" d="M94.587 53.448l2.09-6.464h.062l1.935 6.464h-4.088zm.673-13.487v.005c-.916.016-1.723.453-2.253 1.124l-7.542 19.85h6.696l.97-2.995h6.877l.907 2.995h6.907l-7.87-20.978h-4.69z"/><path id="_152209904" class="fil2" d="M126.333 45.86c.004-.002.008-.007.012-.01l.502-.54c.372-.487.595-1.09.595-1.746h.004v-3.6h-18.262v5.377h9.483l-9.488 9.947c-.33.438-.52.94-.573 1.456v4.198h19.326v-5.376h-10.63l9.03-9.703z"/><path id="_152210096" class="fil2" d="M256.65 48.155c-3.057-.818-6.15-1.143-6.27-2.638 0-1.18 1.483-1.415 2.39-1.415.67 0 1.427.147 1.97.534.545.352.913.88.788 1.673h6.3c-.177-5.115-4.328-6.85-9.026-6.85-4.453 0-8.725 2.087-8.725 6.934 0 4.235 3.91 5.142 7.33 6.084 3.73 1.03 4.667 1.32 4.667 2.415 0 1.553-1.665 1.905-2.76 1.905-1.24 0-2.69-.263-3.177-1.525-.15-.377-.24-.85-.24-1.382h-6.667c.06 6.704 7.056 7.552 9.51 7.552 4.823 0 10-1.762 10-7.227-.003-3.85-3.03-5.233-6.09-6.06z"/><path id="_152210288" class="fil2" d="M211.24 41.785l-2.633 10.52h-.058l-2.612-10.42c-.22-1.07-1.15-1.88-2.278-1.923h-7.683v20.977h6.3V47.485h.063l3.757 13.455h4.965l3.754-13.455h.06V60.94h6.307V39.96h-7.69c-1.093.045-1.996.806-2.252 1.825z"/><path id="_152210480" class="fil2" d="M239.332 39.96v.01c-.924.01-1.742.455-2.266 1.135l-3.206 6.586-3.076-6.597c-.015-.024-.03-.04-.04-.065-.53-.633-1.313-1.047-2.2-1.058v-.01h-5.645l7.597 13.25v7.73h6.664v-7.73l7.757-13.248h-5.585z"/><path id="_152210672" class="fil2" d="M137.774 53.448l2.09-6.464h.06l1.94 6.464h-4.09zm.676-13.487v.005c-.112.004-.22.012-.328.024-.05.007-.092.018-.142.027-.058.012-.113.02-.17.035-.066.012-.126.036-.187.054-.04.012-.073.02-.113.035-.073.03-.143.06-.21.09-.025.01-.047.02-.07.028-.078.042-.15.085-.228.126-.012.01-.024.012-.032.02-.08.05-.158.1-.23.158l-.017.012c-.077.062-.15.125-.223.19v.004c-.074.07-.143.138-.208.215-.01.012-.024.024-.032.036-.04.06-.077.124-.11.185l-7.496 19.738h6.695l.972-2.994h6.873l.912 2.994h6.906l-7.876-20.978h-4.687v-.005z"/><path id="_152211032" class="fil2" d="M187.048 47.248h-6.242V39.96h-6.663v20.98h6.663v-8.314h6.242v8.315h6.67V39.96h-6.67z"/><path id="_152210864" class="fil2" d="M84.588 39.96h-6.88v.01c-.92.01-1.735.453-2.26 1.123l-5.007 6.095h-.06V39.96h-6.664v20.98h6.663v-6.2l1.14-1.213 4.834 7.413h8.042l-8.39-12.057 8.582-8.922z"/><path id="_152211296" class="fil2" d="M172.69 39.96h-6.88v.01c-.92.01-1.73.453-2.256 1.123l-5.01 6.095h-.057V39.96h-6.668v20.98h6.667v-6.2l1.135-1.213 4.84 7.413h8.04l-8.39-12.057 8.58-8.922z"/></g></g></svg>