<?xml version="1.0" encoding="UTF-8" standalone="no"?>
<!-- Created with Inkscape (http://www.inkscape.org/) -->
<svg
   xmlns:svg="http://www.w3.org/2000/svg"
   xmlns="http://www.w3.org/2000/svg"
   version="1.0"
   width="895.03937"
   height="144.56693"
   id="svg3333"
   xml:space="preserve"><defs
     id="defs3336" /><g
     transform="matrix(1.25,0,0,-1.25,-40.025538,975.78346)"
     id="g3342"><g
       transform="translate(2.8933707,-2.8586758)"
       id="g11971"><g
         transform="matrix(5.7522317,0,0,5.7522317,-351.32909,-952.91772)"
         id="g11127"><g
           transform="translate(184.77352,287.93633)"
           id="g10236"><path
             d="M 0,0 L -1.933,5.605 L -1.933,0 L -2.041,0 L -3.926,0 L -3.926,8.187 L -3.866,8.187 L -1.165,8.187 L 0.708,2.687 L 2.534,8.187 L 2.642,8.187 L 5.343,8.187 L 5.343,0 L 5.235,0 L 3.362,0 L 3.362,5.605 L 1.381,0 L 1.261,0 L 0,0 z M -8.608,1.344 C -8.117,1.344 -7.672,1.512 -7.396,1.787 C -7.18,2.076 -6.952,2.412 -6.844,2.748 C -6.784,2.965 -6.676,3.301 -6.676,3.529 L -6.676,4.033 C -6.676,4.873 -6.844,5.547 -7.06,5.883 C -7.288,6.219 -7.564,6.506 -7.84,6.615 C -7.948,6.674 -8.165,6.783 -8.285,6.783 L -8.668,6.783 L -8.993,6.783 C -9.101,6.783 -9.329,6.674 -9.497,6.615 C -9.713,6.506 -10.049,6.219 -10.266,5.883 C -10.482,5.498 -10.602,4.826 -10.602,4.033 L -10.602,3.59 C -10.602,3.422 -10.542,3.193 -10.542,2.965 C -10.434,2.58 -10.206,2.184 -9.989,1.848 C -9.713,1.512 -9.221,1.344 -8.668,1.344 L -8.608,1.344 z M -8.668,-0.289 C -10.157,-0.289 -11.262,0.215 -11.862,1.057 C -12.415,1.955 -12.751,2.965 -12.751,4.094 C -12.751,5.162 -12.415,6.17 -11.862,7.07 C -11.262,7.959 -10.157,8.416 -8.717,8.416 L -8.608,8.416 C -7.18,8.416 -6.075,7.959 -5.463,7.07 C -4.863,6.17 -4.526,5.162 -4.526,4.094 C -4.526,2.965 -4.863,1.955 -5.463,1.057 C -6.075,0.215 -7.18,-0.229 -8.608,-0.229 L -8.668,-0.289 z M -17.602,4.826 L -14.96,8.187 L -14.84,8.187 L -12.583,8.187 L -15.836,4.43 L -12.415,0 L -12.475,0 L -14.84,0 L -17.602,3.865 L -17.602,0 L -17.71,0 L -19.583,0 L -19.583,8.187 L -19.535,8.187 L -17.602,8.187 L -17.602,4.826 z M -24.554,4.934 L -20.639,4.934 L -20.639,3.469 L -24.554,3.469 L -24.554,1.56 L -19.979,1.56 L -19.979,0 L -20.087,0 L -26.535,0 L -26.535,8.187 L -26.487,8.187 L -20.087,8.187 L -20.087,6.615 L -24.554,6.615 L -24.554,4.934 z M -35.204,0 L -35.251,1.56 L -35.144,1.56 L -34.976,1.56 L -34.819,1.56 C -34.207,1.56 -33.763,1.848 -33.607,2.351 C -33.487,2.857 -33.331,3.529 -33.331,4.262 L -33.271,8.187 L -33.21,8.187 L -27.207,8.187 L -27.207,0 L -27.315,0 L -29.188,0 L -29.188,6.615 L -31.397,6.615 L -31.446,3.758 C -31.446,3.529 -31.506,3.252 -31.506,3.025 C -31.506,2.797 -31.565,2.461 -31.614,2.184 C -31.722,1.619 -32.058,1.115 -32.442,0.672 C -32.826,0.215 -33.546,0 -34.423,0 L -34.543,-0.061 C -34.651,-0.061 -34.759,0 -34.868,0 L -35.251,0 L -35.204,0 z M -39.778,4.934 L -35.864,4.934 L -35.864,3.469 L -39.778,3.469 L -39.778,1.56 L -35.204,1.56 L -35.204,0 L -35.312,0 L -41.772,0 L -41.772,8.187 L -41.711,8.187 L -35.312,8.187 L -35.312,6.615 L -39.778,6.615 L -39.778,4.934 z M -46.454,6.615 L -48.939,6.615 L -48.939,8.187 L -48.832,8.187 L -42.047,8.187 L -42.047,6.615 L -44.473,6.615 L -44.473,0 L -44.581,0 L -46.454,0 L -46.454,6.615 z M -51.365,0 L -54.126,3.865 L -54.126,0 L -54.234,0 L -56.107,0 L -56.107,8.187 L -56.06,8.187 L -54.126,8.187 L -54.126,4.826 L -51.473,8.187 L -51.365,8.187 L -49.156,8.187 L -52.361,4.43 L -49.66,0.887 L -48.603,0.887 L -48.603,-1.334 L -50.092,-1.334 L -50.092,0 L -51.365,0 z M -61.187,2.916 L -59.253,2.916 L -60.19,5.883 L -61.187,2.916 z M -61.078,8.187 L -59.193,8.187 L -56.167,0 L -56.276,0 L -58.316,0 L -58.809,1.512 L -61.63,1.512 L -62.123,0 L -62.231,0 L -64.224,0 L -61.234,8.187 L -61.078,8.187 z M -71.332,2.857 L -69.519,2.797 C -69.519,2.351 -69.351,2.016 -69.135,1.787 C -68.907,1.56 -68.63,1.392 -68.415,1.344 C -68.307,1.344 -68.138,1.283 -68.03,1.283 C -67.91,1.283 -67.754,1.225 -67.694,1.225 C -67.142,1.225 -66.649,1.392 -66.421,1.619 C -66.205,1.848 -66.097,2.125 -66.097,2.351 L -66.097,2.412 C -66.097,2.748 -66.205,2.965 -66.313,3.084 C -66.481,3.193 -66.698,3.361 -66.866,3.361 C -66.974,3.361 -67.094,3.422 -67.202,3.422 C -67.31,3.422 -67.418,3.469 -67.478,3.469 L -68.583,3.469 L -68.583,4.934 L -67.634,4.934 L -67.418,4.934 L -67.142,4.934 C -66.925,4.934 -66.698,5.101 -66.589,5.209 C -66.421,5.33 -66.313,5.547 -66.313,5.834 C -66.313,6.051 -66.421,6.338 -66.589,6.447 C -66.698,6.555 -66.925,6.723 -67.142,6.723 C -67.25,6.783 -67.418,6.842 -67.526,6.842 L -67.862,6.842 L -68.078,6.842 L -68.307,6.783 C -68.522,6.783 -68.798,6.615 -68.967,6.447 C -69.135,6.277 -69.291,5.941 -69.291,5.498 L -69.351,5.498 L -71.224,5.498 C -71.224,6.506 -70.84,7.287 -70.228,7.744 C -69.675,8.187 -68.798,8.416 -67.694,8.416 L -67.586,8.416 C -66.589,8.416 -65.761,8.248 -65.317,7.959 C -64.884,7.684 -64.5,7.348 -64.38,7.01 C -64.332,6.891 -64.224,6.674 -64.224,6.555 C -64.224,6.387 -64.164,6.219 -64.164,6.109 C -64.164,5.605 -64.332,5.162 -64.548,4.934 C -64.776,4.705 -65.101,4.49 -65.376,4.369 L -65.544,4.369 L -65.713,4.309 L -65.713,4.262 C -65.101,4.141 -64.608,3.926 -64.38,3.59 C -64.104,3.252 -63.948,2.748 -63.948,2.184 C -63.948,1.392 -64.224,0.779 -64.776,0.443 C -65.269,0.107 -65.869,-0.121 -66.481,-0.168 C -66.698,-0.168 -66.925,-0.229 -67.094,-0.229 L -67.634,-0.229 L -67.754,-0.229 L -68.355,-0.229 C -68.583,-0.229 -68.798,-0.121 -69.015,-0.121 C -69.567,-0.061 -70.179,0.215 -70.672,0.672 C -71.116,1.057 -71.44,1.787 -71.44,2.797 L -71.332,2.857 z M -76.027,2.916 L -74.094,2.916 L -75.03,5.883 L -76.027,2.916 z M -75.918,8.187 L -74.034,8.187 L -71.008,0 L -71.116,0 L -73.157,0 L -73.649,1.512 L -76.471,1.512 L -76.963,0 L -77.071,0 L -79.064,0 L -76.075,8.187 L -75.918,8.187 z M -81.262,0 L -84.023,3.865 L -84.023,0 L -84.131,0 L -86.004,0 L -86.004,8.187 L -85.957,8.187 L -84.023,8.187 L -84.023,4.826 L -81.382,8.187 L -81.262,8.187 L -79.064,8.187 L -82.258,4.43 L -79.557,0.887 L -78.512,0.887 L -78.512,-1.334 L -80.001,-1.334 L -80.001,0 L -81.262,0 z"
             id="path10238"
             style="fill:#000000;fill-opacity:1;fill-rule:evenodd;stroke:none" /></g><g
           transform="translate(76.078616,301.14133)"
           id="g10240"><path
             d="M 0,0 C 5.15,0 9.327,-4.176 9.327,-9.326 C 9.327,-14.477 5.15,-18.652 0,-18.652 C -5.15,-18.652 -9.327,-14.477 -9.327,-9.326 C -9.327,-4.176 -5.15,0 0,0"
             id="path10242"
             style="fill:#0096d7;fill-opacity:1;fill-rule:evenodd;stroke:none" /></g><g
           transform="translate(76.078616,301.14133)"
           id="g10244"><path
             d="M 0,0 C 5.15,0 9.327,-4.176 9.327,-9.326 C 9.327,-14.477 5.15,-18.652 0,-18.652 C -5.15,-18.652 -9.327,-14.477 -9.327,-9.326 C -9.327,-4.176 -5.15,0 0,0 z"
             id="path10246"
             style="fill:none;stroke:#0096d7;stroke-width:0.21600001;stroke-linecap:butt;stroke-linejoin:miter;stroke-miterlimit:22.9260006;stroke-dasharray:none;stroke-opacity:1" /></g><g
           transform="translate(85.221616,289.34633)"
           id="g10248"><path
             d="M 0,0 L -18.137,0 C -18.137,-0.154 -18.058,-0.482 -17.952,-0.615 L 0.053,-0.615 C 0.027,-0.461 0,-0.154 0,0"
             id="path10250"
             style="fill:#ffffff;fill-opacity:1;fill-rule:evenodd;stroke:none" /></g><g
           transform="translate(84.220616,292.22733)"
           id="g10252"><path
             d="M 0,0 L -17.503,0 C -17.503,-0.154 -17.476,-0.525 -17.476,-0.613 L 0.052,-0.613 C 0.026,-0.461 0,-0.154 0,0"
             id="path10254"
             style="fill:#ffffff;fill-opacity:1;fill-rule:evenodd;stroke:none" /></g><g
           transform="translate(84.220616,295.18233)"
           id="g10256"><path
             d="M 0,0 L -16.895,0 C -16.948,-0.109 -17.027,-0.525 -17.08,-0.613 L 0.052,-0.613 C 0.026,-0.461 0,-0.154 0,0"
             id="path10258"
             style="fill:#ffffff;fill-opacity:1;fill-rule:evenodd;stroke:none" /></g><g
           transform="translate(84.220616,298.16133)"
           id="g10260"><path
             d="M 0,0 L -15.017,0 C -15.097,-0.067 -15.388,-0.438 -15.52,-0.614 L 0.052,-0.614 C 0.026,-0.459 0,-0.153 0,0"
             id="path10262"
             style="fill:#ffffff;fill-opacity:1;fill-rule:evenodd;stroke:none" /></g><g
           transform="translate(85.221616,286.31733)"
           id="g10264"><path
             d="M 0,0 L -16.736,0 C -16.683,-0.197 -16.392,-0.504 -16.26,-0.614 L 0.053,-0.614 C 0.027,-0.459 0,-0.153 0,0"
             id="path10266"
             style="fill:#ffffff;fill-opacity:1;fill-rule:evenodd;stroke:none" /></g><g
           transform="translate(85.022616,301.22933)"
           id="g10268"><path
             d="M 0,0 C 5.282,-0.213 9.396,-4.604 9.187,-9.807 C 8.978,-15.01 4.525,-19.057 -0.756,-18.846 C -6.038,-18.633 -10.151,-14.242 -9.942,-9.039 C -9.733,-3.836 -5.281,0.213 0,0"
             id="path10270"
             style="fill:#ffffff;fill-opacity:1;fill-rule:evenodd;stroke:none" /></g><g
           transform="translate(80.146516,300.20533)"
           id="g10272"><path
             d="M 0,0 C 2.856,0.485 7.006,0.051 9.732,-1.609 L 9.914,-2.06 C 10.746,-2.314 11.875,-2.892 12.607,-3.431 C 11.376,-1.543 9.53,-0.027 7.164,0.666 C 5.041,1.35 2.04,1.137 0,0"
             id="path10274"
             style="fill:#0096d7;fill-opacity:1;fill-rule:evenodd;stroke:none" /></g><g
           transform="translate(80.146516,300.20533)"
           id="g10276"><path
             d="M 0,0 C 2.856,0.485 7.006,0.051 9.732,-1.609 L 9.914,-2.06 C 10.746,-2.314 11.875,-2.892 12.607,-3.431 C 11.376,-1.543 9.53,-0.027 7.164,0.666 C 5.041,1.35 2.04,1.137 0,0 z"
             id="path10278"
             style="fill:none;stroke:#0096d7;stroke-width:0.21600001;stroke-linecap:butt;stroke-linejoin:miter;stroke-miterlimit:22.9260006;stroke-dasharray:none;stroke-opacity:1" /></g><g
           transform="translate(77.441616,298.01033)"
           id="g10280"><path
             d="M 0,0 C 5.193,0.678 10.682,0.479 15.786,-2.142 C 16.51,-3.435 16.696,-4.861 16.753,-6.193 C 16.073,-5.478 14.905,-4.744 14.213,-4.318 L 14.099,-3.848 C 9.626,-1.517 4.38,-0.244 -0.441,-0.515 C -0.302,-0.365 -0.184,-0.172 0,0"
             id="path10282"
             style="fill:#0096d7;fill-opacity:1;fill-rule:evenodd;stroke:none" /></g><g
           transform="translate(77.441616,298.01033)"
           id="g10284"><path
             d="M 0,0 C 5.193,0.678 10.682,0.479 15.786,-2.142 C 16.51,-3.435 16.696,-4.861 16.753,-6.193 C 16.073,-5.478 14.905,-4.744 14.213,-4.318 L 14.099,-3.848 C 9.626,-1.517 4.38,-0.244 -0.441,-0.515 C -0.302,-0.365 -0.184,-0.172 0,0 z"
             id="path10286"
             style="fill:none;stroke:#0096d7;stroke-width:0.21600001;stroke-linecap:butt;stroke-linejoin:miter;stroke-miterlimit:22.9260006;stroke-dasharray:none;stroke-opacity:1" /></g><g
           transform="translate(75.729616,295.10833)"
           id="g10288"><path
             d="M 0,0 C 6.059,0.199 12.105,-0.508 18.42,-3.865 C 18.418,-5.018 18.06,-6.223 17.504,-7.354 C 16.803,-6.594 15.99,-5.873 15.082,-5.305 L 15.166,-4.865 C 10.081,-1.78 4.921,-0.553 -0.2,-0.569 C -0.15,-0.416 -0.028,-0.155 0,0"
             id="path10290"
             style="fill:#0096d7;fill-opacity:1;fill-rule:evenodd;stroke:none" /></g><g
           transform="translate(75.729616,295.10833)"
           id="g10292"><path
             d="M 0,0 C 6.059,0.199 12.105,-0.508 18.42,-3.865 C 18.418,-5.018 18.06,-6.223 17.504,-7.354 C 16.803,-6.594 15.99,-5.873 15.082,-5.305 L 15.166,-4.865 C 10.081,-1.78 4.921,-0.553 -0.2,-0.569 C -0.15,-0.416 -0.028,-0.155 0,0 z"
             id="path10294"
             style="fill:none;stroke:#0096d7;stroke-width:0.21600001;stroke-linecap:butt;stroke-linejoin:miter;stroke-miterlimit:22.9260006;stroke-dasharray:none;stroke-opacity:1" /></g><g
           transform="translate(75.125616,292.20533)"
           id="g10296"><path
             d="M 0,0 C 6.89,-0.076 12.793,-1.576 17.844,-4.949 C 17.336,-6.015 16.479,-6.933 15.538,-7.738 C 14.876,-7.113 14.068,-6.261 13.427,-5.658 L 13.73,-5.294 C 9.848,-2.589 5.378,-0.748 -0.019,-0.464 C 0.011,-0.265 -0.007,-0.175 0,0"
             id="path10298"
             style="fill:#0096d7;fill-opacity:1;fill-rule:evenodd;stroke:none" /></g><g
           transform="translate(75.125616,292.20533)"
           id="g10300"><path
             d="M 0,0 C 6.89,-0.076 12.793,-1.576 17.844,-4.949 C 17.336,-6.015 16.479,-6.933 15.538,-7.738 C 14.876,-7.113 14.068,-6.261 13.427,-5.658 L 13.73,-5.294 C 9.848,-2.589 5.378,-0.748 -0.019,-0.464 C 0.011,-0.265 -0.007,-0.175 0,0 z"
             id="path10302"
             style="fill:none;stroke:#0096d7;stroke-width:0.21600001;stroke-linecap:butt;stroke-linejoin:miter;stroke-miterlimit:22.9260006;stroke-dasharray:none;stroke-opacity:1" /></g><g
           transform="translate(75.426616,289.22533)"
           id="g10304"><path
             d="M 0,0 C 5.425,-0.152 10.841,-2.166 14.692,-5.09 C 13.93,-5.836 12.469,-6.332 11.282,-6.639 L 10.12,-5.217 C 10.258,-5.111 10.283,-5.025 10.42,-4.92 C 7.024,-2.277 3.795,-0.996 0.178,-0.541 C 0.095,-0.404 0.059,-0.18 0,0"
             id="path10306"
             style="fill:#0096d7;fill-opacity:1;fill-rule:evenodd;stroke:none" /></g><g
           transform="translate(75.426616,289.22533)"
           id="g10308"><path
             d="M 0,0 C 5.425,-0.152 10.841,-2.166 14.692,-5.09 C 13.93,-5.836 12.469,-6.332 11.282,-6.639 L 10.12,-5.217 C 10.258,-5.111 10.283,-5.025 10.42,-4.92 C 7.024,-2.277 3.795,-0.996 0.178,-0.541 C 0.095,-0.404 0.059,-0.18 0,0 z"
             id="path10310"
             style="fill:none;stroke:#0096d7;stroke-width:0.21600001;stroke-linecap:butt;stroke-linejoin:miter;stroke-miterlimit:22.9260006;stroke-dasharray:none;stroke-opacity:1" /></g><g
           transform="translate(76.945616,286.19233)"
           id="g10312"><path
             d="M 0,0 C 3.151,-0.457 6.321,-1.561 9.251,-3.674 C 8.333,-3.903 7.049,-3.852 5.97,-3.674 C 4.806,-3.406 3.714,-3.008 3.324,-2.77 C 3.832,-2.813 4.363,-2.856 4.893,-2.901 C 4.581,-2.377 1.958,-0.899 0.401,-0.502 C 0.295,-0.365 0.104,-0.158 0,0"
             id="path10314"
             style="fill:#0096d7;fill-opacity:1;fill-rule:evenodd;stroke:none" /></g><g
           transform="translate(76.945616,286.19233)"
           id="g10316"><path
             d="M 0,0 C 3.151,-0.457 6.321,-1.561 9.251,-3.674 C 8.333,-3.903 7.049,-3.852 5.97,-3.674 C 4.806,-3.406 3.714,-3.008 3.324,-2.77 C 3.832,-2.813 4.363,-2.856 4.893,-2.901 C 4.581,-2.377 1.958,-0.899 0.401,-0.502 C 0.295,-0.365 0.104,-0.158 0,0 z"
             id="path10318"
             style="fill:none;stroke:#0096d7;stroke-width:0.21600001;stroke-linecap:butt;stroke-linejoin:miter;stroke-miterlimit:22.9260006;stroke-dasharray:none;stroke-opacity:1" /></g></g><path
         d="M 284.76394,92.413747 C 284.40015,89.297663 286.29416,82.973349 293.41687,63.520708 L 302.53553,38.616951 L 309.74954,38.616951 L 316.96351,38.616951 L 326.91835,65.606664 C 332.39351,80.451006 337.13791,93.429883 337.46148,94.448613 C 337.98342,96.091842 337.21674,96.300848 330.66733,96.300848 L 323.28486,96.300848 L 321.92854,91.008747 L 320.57222,85.716647 L 309.72044,85.716647 L 298.86863,85.716647 L 297.45349,90.744142 L 296.0383,95.771638 L 290.63399,96.087344 L 285.22964,96.403017 L 284.76394,92.413747 z M 316.73874,75.354968 C 316.73874,73.56629 310.22048,53.778967 309.77726,54.222191 C 309.02348,54.975987 302.97927,73.273605 302.97927,74.801784 C 302.97927,75.805812 304.88635,76.190865 309.85901,76.190865 C 313.64286,76.190865 316.73874,75.814713 316.73874,75.354968 z"
         transform="matrix(0.8,0,0,-0.8,32.02043,780.62677)"
         id="path11957"
         style="opacity:1;fill:#ffffff;fill-opacity:0;stroke:none;stroke-opacity:1" /></g></g></svg>