<svg xmlns="http://www.w3.org/2000/svg" version="1" width="895.039" height="144.567"><g><g><path d="M852.952 100.242l-13.898-40.3v40.3h-14.33V41.377h19.852l13.467 39.545 13.128-39.545h20.198v58.865h-14.243v-40.3l-14.244 40.3H852.953zm-914.844-109.905c3.53 0 6.73-1.208 8.715-3.186 1.553-2.076 3.192-4.492 3.97-6.908.43-1.56 1.207-3.976 1.207-5.616v-3.623c0-6.04-1.208-10.886-2.76-13.302-1.64-2.415-3.625-4.478-5.61-5.262-.776-.424-2.336-1.208-3.2-1.208h-5.09c-.776 0-2.416.784-3.623 1.208-1.553.784-3.97 2.847-5.53 5.263-1.553 2.77-2.415 7.6-2.415 13.303v3.185c0 1.208.43 2.854.43 4.494.778 2.768 2.417 5.615 3.977 8.03 1.984 2.417 5.52 3.625 9.497 3.625h.43zm52.853 22.748c-10.705 0-18.65-3.623-22.964-9.677-3.976-6.457-6.392-13.72-6.392-21.837 0-7.677 2.416-14.925 6.392-21.396 4.314-6.392 12.26-9.678 22.612-9.678h.784c10.267 0 18.212 3.286 22.613 9.678 4.314 6.47 6.737 13.72 6.737 21.397 0 8.12-2.423 15.38-6.737 21.838-4.4 6.054-12.346 9.246-22.613 9.246l-.43.43zM-72.53-50.44l18.996-24.166h17.09l-23.39 27.01 24.598 31.853h-17.435l-19.858-27.79v27.79h-14.244V-61.23H-72.902v24.164zm5.316 41.114h28.15v10.533h-28.15V28.31h32.894v11.215H-81.83V-19.34h46.361v11.303h-32.117V4.05zm-33.54 36.36l-.338-11.217h3.107c4.4 0 7.59-2.07 8.713-5.687.863-3.638 1.984-8.47 1.984-13.74l.43-28.22H-43.63v58.863H-57.87V-7.153h-15.883l-.352 20.54c0 1.648-.432 3.64-.432 5.272 0 1.64-.423 4.055-.775 6.047-.777 4.062-3.193 7.686-5.954 10.87-2.76 3.287-7.936 4.832-14.242 4.832l-.863.438c-.776 0-1.553-.44-2.337-.44h-2.753.337zm33.036-75.885h28.14v10.533h-28.14v13.726h32.886V0H-82.43v-58.865H-35.98v11.303h-32.11v12.087zm-19.688 28.323h-17.868v-11.303h49.554v11.303h-17.443v47.56H-87.778V-7.15zm6.014 61.33l-19.852-27.79v27.79h-14.243V-4.69h14.244v24.166L-82.54-4.688h16.659l-23.045 27.013 19.42 25.474h7.6v15.968H-72.61v-9.59h-9.154zm-40.22-75.144h13.904l-6.737-21.333-7.168 21.334zM.393-11.1h13.554l21.757 58.864h-15.452l-3.544-10.87H-64.37l-3.545 10.87h-15.106l21.498-58.864h1.122zm-74.4 81.492l13.035.43c0 3.208 1.21 5.616 2.762 7.263 1.64 1.632 3.63 2.84 5.177 3.185.775 0 1.99.44 2.767.44.863 0 1.985.416 2.416.416 3.97 0 7.514-1.2 9.153-2.833 1.553-1.646 2.33-3.637 2.33-5.262v-.44c0-2.415-.777-3.975-1.554-4.83-1.208-.784-2.768-1.992-3.976-1.992-.776 0-1.64-.44-2.416-.44s-1.553-.337-1.984-.337h-7.945V31.575H-104.677c1.56 0 3.192-1.2 3.976-1.977 1.208-.87 1.984-2.43 1.984-4.495 0-1.56-.776-3.624-1.984-4.407-.784-.777-2.416-1.985-3.976-1.985-.777-.43-1.985-.855-2.76-.855H-111.41l-1.647.424c-1.545 0-3.53 1.208-4.745 2.416-1.208 1.222-2.33 3.638-2.33 6.823h-13.898c0-7.247 2.76-12.862 7.162-16.148 3.976-3.185 10.28-4.832 18.22-4.832h.775c7.168 0 13.12 1.208 16.314 3.286 3.113 1.978 5.874 4.393 6.737 6.824.346.855 1.122 2.415 1.122 3.27 0 1.21.432 2.417.432 3.208 0 3.624-1.208 6.81-2.76 8.448-1.64 1.647-3.977 3.192-5.955 4.062h-1.21l-1.214.432v.338c4.4.87 7.945 2.416 9.585 4.83 1.985 2.432 3.107 6.055 3.107 10.11 0 5.695-1.985 10.103-5.954 12.518-3.544 2.416-7.858 4.056-12.26 4.393-1.56 0-3.19.438-4.406.438h-9.067c-1.64 0-3.185-.776-4.745-.776-3.97-.432-8.37-2.416-11.914-5.702-3.19-2.768-5.52-8.017-5.52-15.28l.776-.43zm29.715-44.077h13.9L-97.92-18.9l-7.17 21.333zM-46.18-34.5h13.546l21.757 58.864h-15.452l-3.537-10.87h-20.29l-3.537 10.87h-15.106l21.49-58.864h1.13zm-39.098 102.034l-19.853-27.79v27.79H-148.435V8.187H-134.193v24.166l18.99-24.166H-98.54L-121.503 35.2l19.42 25.474h7.514v15.97h-10.705V67.05h-9.066z" fill-rule="evenodd"/><path d="M71.435 5.298c37.029 0 67.06 30.025 67.06 67.054 0 37.036-30.032 67.054-67.06 67.054-37.03 0-67.06-30.018-67.06-67.054 0-37.03 30.03-67.054 67.06-67.054" fill="#0096d7" fill-rule="evenodd"/><path d="M71.435 5.298c37.029 0 67.06 30.025 67.06 67.054 0 37.036-30.032 67.054-67.06 67.054-37.03 0-67.06-30.018-67.06-67.054 0-37.03 30.03-67.054 67.06-67.054z" stroke="#0096d7" stroke-width="1.55304" stroke-miterlimit="22.926" fill="none"/><path d="M137.173 90.104H6.768c0 1.107.568 3.466 1.33 4.422h129.456c-.187-1.107-.38-3.315-.38-4.422" fill="#fff" fill-rule="evenodd"/><path d="M129.976 69.39H4.13c0 1.106.194 3.774.194 4.406H130.35c-.187-1.092-.374-3.3-.374-4.407" fill="#fff" fill-rule="evenodd"/><path d="M129.976 48.143H8.5c-.38.784-.948 3.775-1.33 4.407h123.18c-.187-1.092-.374-3.3-.374-4.407" fill="#fff" fill-rule="evenodd"/><path d="M129.976 26.724H22.004c-.575.482-2.668 3.15-3.617 4.415H130.35c-.187-1.116-.374-3.316-.374-4.416" fill="#fff" fill-rule="evenodd"/><path d="M137.173 111.882H16.84c.382 1.416 2.475 3.624 3.424 4.415h117.29c-.187-1.115-.38-3.315-.38-4.415" fill="#fff" fill-rule="evenodd"/><path d="M135.743 4.665c37.978 1.53 67.557 33.103 66.055 70.512-1.503 37.41-33.52 66.508-71.49 64.99-37.978-1.53-67.55-33.102-66.048-70.512 1.503-37.41 33.513-66.52 71.483-64.99" fill="#fff" fill-rule="evenodd"/><path d="M100.683 12.028c20.535-3.487 50.373-.367 69.973 11.57l1.31 3.24c5.98 1.828 14.098 5.983 19.36 9.86-8.85-13.576-22.122-24.476-39.134-29.46-15.264-4.917-36.84-3.385-51.51 4.79" fill="#0096d7" fill-rule="evenodd"/><path d="M100.683 12.028c20.535-3.487 50.373-.367 69.973 11.57l1.31 3.24c5.98 1.828 14.098 5.983 19.36 9.86-8.85-13.576-22.122-24.476-39.134-29.46-15.264-4.917-36.84-3.385-51.51 4.79z" stroke="#0096d7" stroke-width="1.55304" stroke-miterlimit="22.926" fill="none"/><path d="M81.235 27.81c37.338-4.875 76.804-3.444 113.5 15.4 5.207 9.298 6.544 19.55 6.954 29.128-4.89-5.14-13.288-10.42-18.264-13.482l-.82-3.38c-32.16-16.76-69.88-25.912-104.542-23.963 1-1.08 1.848-2.466 3.17-3.703" fill="#0096d7" fill-rule="evenodd"/><path d="M81.235 27.81c37.338-4.875 76.804-3.444 113.5 15.4 5.207 9.298 6.544 19.55 6.954 29.128-4.89-5.14-13.288-10.42-18.264-13.482l-.82-3.38c-32.16-16.76-69.88-25.912-104.542-23.963 1-1.08 1.848-2.466 3.17-3.703z" stroke="#0096d7" stroke-width="1.55304" stroke-miterlimit="22.926" fill="none"/><path d="M68.926 48.675c43.564-1.43 87.035 3.653 132.44 27.79-.015 8.29-2.59 16.953-6.586 25.085-5.04-5.464-10.886-10.648-17.414-14.732l.604-3.164c-36.562-22.18-73.662-31.003-110.482-30.888.36-1.1 1.237-2.977 1.438-4.09" fill="#0096d7" fill-rule="evenodd"/><path d="M68.926 48.675c43.564-1.43 87.035 3.653 132.44 27.79-.015 8.29-2.59 16.953-6.586 25.085-5.04-5.464-10.886-10.648-17.414-14.732l.604-3.164c-36.562-22.18-73.662-31.003-110.482-30.888.36-1.1 1.237-2.977 1.438-4.09z" stroke="#0096d7" stroke-width="1.55304" stroke-miterlimit="22.926" fill="none"/><path d="M64.583 69.548c49.54.546 91.982 11.33 128.298 35.583-3.65 7.666-9.813 14.266-16.58 20.054-4.76-4.494-10.568-10.62-15.177-14.955l2.18-2.618c-27.913-19.45-60.052-32.686-98.857-34.728.216-1.43.087-2.078.137-3.336" fill="#0096d7" fill-rule="evenodd"/><path d="M64.583 69.548c49.54.546 91.982 11.33 128.298 35.583-3.65 7.666-9.813 14.266-16.58 20.054-4.76-4.494-10.568-10.62-15.177-14.955l2.18-2.618c-27.913-19.45-60.052-32.686-98.857-34.728.216-1.43.087-2.078.137-3.336z" stroke="#0096d7" stroke-width="1.55304" stroke-miterlimit="22.926" fill="none"/><path d="M66.747 90.974c39.006 1.093 77.947 15.574 105.635 36.597-5.478 5.365-15.983 8.93-24.517 11.138l-8.355-10.224c.992-.762 1.172-1.38 2.157-2.135-24.417-19.004-47.634-28.215-73.64-31.486-.597-.985-.856-2.596-1.28-3.89" fill="#0096d7" fill-rule="evenodd"/><path d="M66.747 90.974c39.006 1.093 77.947 15.574 105.635 36.597-5.478 5.365-15.983 8.93-24.517 11.138l-8.355-10.224c.992-.762 1.172-1.38 2.157-2.135-24.417-19.004-47.634-28.215-73.64-31.486-.597-.985-.856-2.596-1.28-3.89z" stroke="#0096d7" stroke-width="1.55304" stroke-miterlimit="22.926" fill="none"/><path d="M77.67 112.78c22.655 3.287 45.447 11.225 66.514 26.417-6.6 1.647-15.833 1.28-23.59 0-8.37-1.927-16.22-4.788-19.025-6.5 3.65.31 7.47.62 11.28.942-2.244-3.768-21.103-14.395-32.298-17.25-.762-.985-2.135-2.473-2.883-3.61" fill="#0096d7" fill-rule="evenodd"/><path d="M77.67 112.78c22.655 3.287 45.447 11.225 66.514 26.417-6.6 1.647-15.833 1.28-23.59 0-8.37-1.927-16.22-4.788-19.025-6.5 3.65.31 7.47.62 11.28.942-2.244-3.768-21.103-14.395-32.298-17.25-.762-.985-2.135-2.473-2.883-3.61z" stroke="#0096d7" stroke-width="1.55304" stroke-miterlimit="22.926" fill="none"/></g><path d="M288.38 95.988c-.363-3.116 1.53-9.44 8.654-28.893l9.12-24.904h14.427l9.955 26.99c5.476 14.845 10.22 27.824 10.543 28.843.522 1.643-.244 1.852-6.794 1.852h-7.382l-1.356-5.292-1.357-5.292h-21.703l-1.417 5.028-1.415 5.028-5.404.315-5.403.317-.466-3.99zm28.36-20.633c0-1.79-6.52-21.576-6.963-21.133-.754.754-6.798 19.052-6.798 20.58 0 1.004 1.906 1.39 6.88 1.39 3.783 0 6.88-.377 6.88-.837z" fill="none"/></g></svg>