<svg xmlns="http://www.w3.org/2000/svg" version="1" width="716.102" height="716.102"><g fill-rule="evenodd"><path d="M3.487 3.67H712.57v709.085H3.488V3.67z" fill="#008db2"/><path d="M558.115 436.04l-58.71-78.8v133.645h-36.306V297.76h34.762l61.028 81.885 61.028-81.886h33.216v193.125h-37.08v-132.87l-57.94 78.024zm-631.663-132.42v20.085h39.4V129.803h-39.4v20.088c-13.9-14.68-37.85-24.722-66.435-24.722-26.264 0-50.984 10.043-68.755 27.814-19.312 19.312-29.35 46.35-29.35 73.387 0 27.81 10.038 54.848 29.35 74.16 17.77 17.767 42.49 27.81 68.755 27.81 28.585 0 52.534-10.043 66.435-24.72zm145.207 118.776c0 40.17-27.81 67.21-64.12 67.21-37.083 0-63.347-28.586-63.347-67.21 0-37.854 25.494-66.435 63.348-66.435 36.31 0 64.12 26.266 64.12 66.436zM-85.57 686.564h-56.392L-233.3 517.4v85.748h-39.4V409.246h39.4v84.977l95.79-84.977h54.848l-109.698 96.566 108.925 97.336zm357.833-264.242v-34.762h177.68v30.13L331.562 462.51h126.69v35.536H274.4V467.92l122.055-129.014H274.398zm-416.836 547.28h-56.392l-93.473-84.977v84.975h-39.4V693.06h39.4v84.976l95.79-84.977h54.85l-109.7 96.56 108.925 96.565z" fill="#fff"/><path d="M342.587 496.292c55.62 0 104.288-40.94 104.288-101.97s-48.668-101.97-104.288-101.97c-55.622 0-104.293 40.94-104.293 101.97s48.67 101.97 104.293 101.97zm-278.055-50.7c-37.083 0-64.894-30.126-64.894-67.205 0-37.083 27.81-66.438 64.894-66.438 37.078 0 64.888 29.354 64.888 66.437 0 37.08-27.81 67.206-64.888 67.206" fill="#fdb937"/></g></svg>