<?xml version="1.0" encoding="UTF-8" standalone="no"?>
<!-- Created with Inkscape (http://www.inkscape.org/) -->

<svg
   xmlns:dc="http://purl.org/dc/elements/1.1/"
   xmlns:cc="http://creativecommons.org/ns#"
   xmlns:rdf="http://www.w3.org/1999/02/22-rdf-syntax-ns#"
   xmlns:svg="http://www.w3.org/2000/svg"
   xmlns="http://www.w3.org/2000/svg"
   xmlns:sodipodi="http://sodipodi.sourceforge.net/DTD/sodipodi-0.dtd"
   xmlns:inkscape="http://www.inkscape.org/namespaces/inkscape"
   width="463.1225"
   height="53.618752"
   id="svg2887"
   version="1.1"
   inkscape:version="0.47 r22583"
   sodipodi:docname="New document 3">
  <defs
     id="defs2889">
    <inkscape:perspective
       sodipodi:type="inkscape:persp3d"
       inkscape:vp_x="0 : 526.18109 : 1"
       inkscape:vp_y="0 : 1000 : 0"
       inkscape:vp_z="744.09448 : 526.18109 : 1"
       inkscape:persp3d-origin="372.04724 : 350.78739 : 1"
       id="perspective2895" />
    <inkscape:perspective
       id="perspective2882"
       inkscape:persp3d-origin="0.5 : 0.33333333 : 1"
       inkscape:vp_z="1 : 0.5 : 1"
       inkscape:vp_y="0 : 1000 : 0"
       inkscape:vp_x="0 : 0.5 : 1"
       sodipodi:type="inkscape:persp3d" />
  </defs>
  <sodipodi:namedview
     id="base"
     pagecolor="#ffffff"
     bordercolor="#666666"
     borderopacity="1.0"
     inkscape:pageopacity="0.0"
     inkscape:pageshadow="2"
     inkscape:zoom="1.9951525"
     inkscape:cx="231.56125"
     inkscape:cy="26.809377"
     inkscape:document-units="px"
     inkscape:current-layer="layer1"
     showgrid="false"
     inkscape:window-width="1024"
     inkscape:window-height="708"
     inkscape:window-x="-4"
     inkscape:window-y="-4"
     inkscape:window-maximized="1" />
  <metadata
     id="metadata2892">
    <rdf:RDF>
      <cc:Work
         rdf:about="">
        <dc:format>image/svg+xml</dc:format>
        <dc:type
           rdf:resource="http://purl.org/dc/dcmitype/StillImage" />
        <dc:title></dc:title>
      </cc:Work>
    </rdf:RDF>
  </metadata>
  <g
     inkscape:label="Layer 1"
     inkscape:groupmode="layer"
     id="layer1"
     transform="translate(-82.724464,-399.83852)">
    <path
       d="m 294.49446,429.87477 15.31375,-16.98625 -3.675,16.98625 -11.63875,0 z m 60.67625,-19.97625 -36.71,26.5925 -5.19375,9.26125 8.21625,-44.50625 -10.61875,0 -39.73875,42.52125 -4.03875,-22.8625 28.64125,-19.65875 -13.2275,0 -26.99625,18.76875 10.4625,-18.76875 -10.4925,0 -24.8825,44.53375 10.4925,0 7.895,-14.12375 7.94,-5.28 2.60625,19.40375 20.98625,0 7.5375,-8.33375 16.1525,0 -1.81375,8.33375 48.075,0 4.91375,-8.6525 -23.84625,0 37.76625,-27.80125 4.52375,-8.08 -34.4675,0 -4.9775,8.6525 20.795,0 z m 30.715,0 8.2675,0 c 4.07,0 6.10875,1.2725 4.67125,5.4075 -1.0825,3.1175 -4.12,6.5525 -11.37,6.5525 l -8.2675,0 6.69875,-11.96 z m -5.6425,-8.6525 -24.8825,44.53375 10.4925,0 8.5475,-15.26875 9.985,0 c 18.3775,0 24.64,-12.5325 26.23,-17.11375 3.78,-10.87875 -4.49,-12.15125 -9.5775,-12.15125 l -20.795,0 z m 42.60875,37.155 c -6.93,0 -7.645,-4.9 -5.4575,-11.1975 2.3875,-6.87125 9.82375,-18.5775 20.76125,-18.5775 8.14125,0 7.22375,6.2975 5.5225,11.1975 -2.3425,6.74375 -9.8875,18.5775 -20.82625,18.5775 z m -3.835,8.6625 c 19.84125,0 32.64375,-17.63375 36.48875,-28.70375 4.02375,-11.57875 -0.79875,-18.38625 -13.135,-18.38625 -19.905,0 -32.98,17.68625 -36.805,28.6925 -1.9,5.47125 -4.29125,18.3975 13.45125,18.3975 z m 32.9975,-15.725 c -0.63,1.08125 -1.09125,2.2275 -1.46625,3.3075 -3.4925,10.0525 4.78,12.4175 13.74625,12.4175 14.18125,0 22.98375,-7.58125 26.16625,-16.7425 2.3425,-6.745 -0.79875,-9.41625 -10.875,-11.8975 -5.0275,-1.2725 -6.835,-2.29 -5.885,-5.02625 1.5025,-4.32625 7.5075,-4.77125 9.86125,-4.77125 3.37,0 6.19875,0.8275 5.1825,3.75375 -0.1325,0.38125 -0.2425,0.7 -0.44,1.08125 l 9.985,0 c 0.43625,-0.89 0.83125,-1.84375 1.14125,-2.73625 3.46875,-9.9875 -7.07625,-10.75125 -12.2275,-10.75125 -14.05375,0 -22.325,6.235 -25.28625,14.76 -3.00625,8.6525 2.8625,10.43375 8.31,11.96125 4.91875,1.39875 9.46625,2.035 8.075,6.04375 -0.61875,1.78125 -2.79375,5.6625 -10.87125,5.6625 -7.1225,0 -6.13625,-3.755 -5.69375,-5.02625 0.24375,-0.7 0.5275,-1.3375 0.96125,-2.03625 l -10.68375,0 z m 64.9375,-21.44 -20.03375,35.88125 10.49375,0 20.0325,-35.88125 13.4175,0 4.85,-8.6525 -37.32875,0 -4.85,8.6525 13.41875,0 z m -294.725,-8.71625 -139.367496,0 85.894996,52.14 24.15125,0 1.81625,-2.9125 15.79875,-28.275 -35.8275,0 12.1825,9.675 -15.07125,0 -22.73375,-14.57625 64.1875,0 8.96875,-16.05125 z"
       style="fill:#005aaa;fill-opacity:1;fill-rule:evenodd;stroke:#ffffff;stroke-width:0.27000001;stroke-linecap:butt;stroke-linejoin:miter;stroke-miterlimit:22.9260006;stroke-opacity:1;stroke-dasharray:none"
       id="path42" />
  </g>
</svg>
