<?xml version="1.0" encoding="UTF-8" standalone="no"?>
<svg
   xmlns:dc="http://purl.org/dc/elements/1.1/"
   xmlns:cc="http://creativecommons.org/ns#"
   xmlns:rdf="http://www.w3.org/1999/02/22-rdf-syntax-ns#"
   xmlns:svg="http://www.w3.org/2000/svg"
   xmlns="http://www.w3.org/2000/svg"
   viewBox="0 0 157.33333 20"
   height="20"
   width="157.33333"
   xml:space="preserve"
   version="1.1"
   id="svg2"><metadata
     id="metadata8"><rdf:RDF><cc:Work
         rdf:about=""><dc:format>image/svg+xml</dc:format><dc:type
           rdf:resource="http://purl.org/dc/dcmitype/StillImage" /></cc:Work></rdf:RDF></metadata><defs
     id="defs6" /><g
     transform="matrix(1.3333333,0,0,-1.3333333,0,20)"
     id="g10"><g
       transform="scale(0.1)"
       id="g12"><path
         id="path14"
         style="fill:#2056ae;fill-opacity:1;fill-rule:evenodd;stroke:none"
         d="m 481.25,73.6914 27.203,0 8.567,42.0936 -35.77,-42.0936 z m 38.184,70.8906 24.8,0 -19.089,-110.2304 -25.477,0 4.203,20.625 -37.691,0 -17.535,-20.625 -26.344,0 97.133,110.2304 z m 29.449,-72.375 24.004,0 c -1.067,-1.7578 -1.864,-3.4882 -2.418,-5.1718 -1.442,-4.4102 -0.934,-8.0743 1.488,-11.0196 2.422,-2.9492 7.563,-4.4336 15.453,-4.4336 8.387,0.0039 15.012,1.8321 19.879,5.5 4.84,3.6602 8.008,7.7735 9.496,12.3282 2.43,7.4296 -1.539,11.1406 -11.883,11.1406 l -14.714,0 10.652,20.2032 12.215,0 c 7.261,0 12.699,1.488 16.3,4.434 3.586,2.972 5.965,6.238 7.137,9.828 1.289,3.941 0.754,6.933 -1.594,8.964 -2.363,2.055 -6.351,3.071 -11.98,3.071 -5.91,0 -11.266,-1.387 -16.039,-4.137 -4.777,-2.746 -9.035,-7.476 -12.805,-14.137 l -24.801,0 c 5.247,9.457 11.274,17.035 18.09,22.731 6.821,5.719 14.141,9.754 22.028,12.156 7.886,2.402 16.402,3.59 25.578,3.59 13.683,0 22.824,-2.473 27.437,-7.43 4.621,-4.922 5.59,-11.535 2.891,-19.781 -1.703,-5.199 -4.305,-9.805 -7.844,-13.84 -3.531,-4.012 -7.496,-7.2811 -11.933,-9.7811 -4.415,-2.5 -8.891,-4.1836 -13.391,-5.0274 l -0.098,-0.2968 c 11.141,-2.9961 14.781,-10.4219 10.899,-22.2852 -1.309,-4.0078 -3.395,-8.0937 -6.289,-12.3047 -2.899,-4.207 -6.86,-8.1953 -11.891,-12.0078 -5.023,-3.7852 -11.414,-6.9062 -19.121,-9.332 -7.707,-2.4297 -16.629,-3.6407 -26.738,-3.6407 -7.262,0 -13.895,0.5704 -19.852,1.711 -5.957,1.1367 -10.633,3.6133 -14.016,7.4765 -3.394,3.836 -3.914,9.3829 -1.531,16.6602 2.285,6.9844 4.09,11.9336 5.391,14.832 z m 165.644,50.981 -46.863,-88.8364 -24.519,0 58.203,110.2304 88.297,0 -58.227,-110.2304 -24.496,0 46.859,88.8364 -39.254,0 z m 98.11,-70.5669 c 5.957,0 11.593,1.4648 16.894,4.3828 5.278,2.9219 10.024,6.7344 14.196,11.418 4.195,4.6797 7.742,9.6797 10.668,14.9765 2.925,5.3008 5.175,10.3282 6.746,15.1289 6.066,18.5197 1.757,27.7817 -12.907,27.7817 -5.929,0 -11.546,-1.461 -16.82,-4.387 -5.246,-2.891 -9.984,-6.731 -14.168,-11.461 -4.164,-4.731 -7.715,-9.731 -10.625,-14.9766 -2.914,-5.2774 -5.144,-10.3047 -6.703,-15.0782 -2.691,-8.2226 -3.176,-14.9101 -1.426,-20.0585 1.723,-5.1524 6.438,-7.7266 14.145,-7.7266 z m -8.938,-21.3906 c -12.398,0 -21.258,2.4765 -26.582,7.4023 -5.32,4.9297 -8.058,10.7734 -8.219,17.5547 -0.148,6.7617 0.899,13.5937 3.157,20.5 2.496,7.625 6.277,15.5508 11.34,23.7465 5.066,8.195 11.296,15.894 18.714,23.078 7.395,7.176 15.86,12.996 25.383,17.476 9.52,4.485 19.707,6.711 30.567,6.711 3.992,0.004 8.199,-0.418 12.64,-1.261 4.422,-0.84 8.68,-2.747 12.739,-5.668 4.093,-2.922 6.835,-7.532 8.273,-13.844 1.441,-6.289 0.508,-14.508 -2.824,-24.684 -2.504,-7.6482 -6.266,-15.574 -11.258,-23.7693 -4.984,-8.1719 -11.149,-15.8711 -18.469,-23.0508 -7.324,-7.1836 -15.695,-13 -25.164,-17.4571 -9.445,-4.457 -19.547,-6.7109 -30.297,-6.7343 z m 121.039,113.3515 24.543,0 -14.187,-26.594 c -1.68,-3.418 -2.844,-6.117 -3.516,-8.172 -1.012,-3.093 -0.926,-5.398 0.277,-6.933 1.204,-1.531 2.895,-2.5 5.149,-2.8986 2.238,-0.3672 4.973,-0.5664 8.266,-0.5664 5.3,0 10.664,0.3945 16.105,1.187 l 23.215,43.977 24.52,0 -58.204,-110.2304 -24.519,0 23.761,44.8632 c -7.031,-0.7929 -14.496,-1.1875 -22.386,-1.1875 -5.719,0 -10.692,0.5196 -14.895,1.5821 -4.226,1.0664 -7.316,3.4687 -9.351,7.1836 -1.996,3.7382 -1.828,9.1836 0.515,16.34 1.18,3.613 2.914,7.625 5.199,12.031 l 15.508,29.418 z m 117.442,-21.394 -31.41,0 11.21,21.394 87.31,0 -11.2,-21.394 -31.41,0 -46.86,-88.8364 -24.519,0 46.879,88.8364 z m 68.37,-49.4966 27.2,0 8.57,42.0936 -35.77,-42.0936 z m 38.18,70.8906 24.81,0 -19.09,-110.2304 -25.48,0 4.2,20.625 -37.69,0 -17.53,-20.625 -26.35,0 97.13,110.2304 z m -771.835,-46.9453 57.816,46.9453 29.68,0 -67.438,-52.8867 9.942,-46.8125 17.757,0 -20.3,-38.92186 -24.52,0 15.148,28.39066 -14.433,0 -8.363,54.5195 -0.418,0 -28.348,-54.5195 -24.52,0 58.204,110.2304 24.519,0 -25.168,-46.9453 0.442,0 z m -27.477,46.8203 -342.90628,0 211.34028,-128.664 59.421,0 4.469,7.1914 38.871,69.7695 -88.152,0 29.977,-23.875 -37.086,0 -55.93,35.9691 157.93,0 22.066,39.609" /></g></g></svg>