<svg xmlns="http://www.w3.org/2000/svg" width="463.123" height="53.619"><path d="M211.77 30.036l15.314-16.986-3.675 16.986h-11.64zm143.4 379.863l-36.71 26.59-5.193 9.262 8.216-44.506h-10.62l-39.737 42.52-4.04-22.86 28.642-19.66H282.5l-26.996 18.77 10.463-18.77h-10.493l-24.882 44.534h10.492l7.895-14.124 7.94-5.28 2.606 19.404h20.986l7.537-8.334H304.2l-1.814 8.334h48.075l4.914-8.653H331.53l37.767-27.8 4.524-8.08h-34.467l-4.977 8.652h20.795zm30.716 0h8.267c4.07 0 6.11 1.27 4.67 5.406-1.08 3.118-4.12 6.553-11.37 6.553h-8.266l6.7-11.96zm-5.643-8.654L355.36 445.78h10.493l8.548-15.27h9.986c18.377 0 24.64-12.53 26.23-17.113 3.78-10.878-4.49-12.15-9.578-12.15h-20.795zm42.61 37.155c-6.93 0-7.646-4.9-5.46-11.196 2.39-6.872 9.825-18.578 20.763-18.578 8.14 0 7.223 6.298 5.522 11.198-2.342 6.743-9.887 18.577-20.826 18.577zm-3.836 8.664c19.84 0 32.644-17.634 36.49-28.704 4.022-11.58-.8-18.386-13.136-18.386-19.904 0-32.98 17.686-36.804 28.692-1.9 5.47-4.292 18.398 13.45 18.398zm32.997-15.725c-.63 1.08-1.09 2.226-1.466 3.306-3.492 10.053 4.78 12.418 13.746 12.418 14.182 0 22.984-7.582 26.167-16.743 2.343-6.744-.798-9.415-10.874-11.896-5.028-1.273-6.835-2.29-5.885-5.027 1.503-4.326 7.508-4.77 9.862-4.77 3.37 0 6.2.827 5.182 3.753-.132.38-.242.7-.44 1.08h9.985c.436-.89.83-1.843 1.14-2.735 3.47-9.988-7.076-10.75-12.227-10.75-14.054 0-22.325 6.234-25.286 14.76-3.006 8.65 2.862 10.432 8.31 11.96 4.92 1.4 9.466 2.035 8.075 6.044-.62 1.78-2.794 5.66-10.87 5.66-7.124 0-6.138-3.754-5.695-5.025.244-.7.527-1.338.96-2.036h-10.683zm64.938-21.44l-20.034 35.88h10.494l20.032-35.88h13.418l4.85-8.654h-37.33l-4.85 8.653h13.42zm-294.725-8.718H82.86l85.894 52.14h24.152l1.816-2.912 15.8-28.275h-35.83l12.184 9.675h-15.072l-22.733-14.576h64.188l8.97-16.052z" fill="#005aaa" fill-rule="evenodd" stroke="#fff" stroke-width=".27" stroke-miterlimit="22.926"/></svg>