<?xml version="1.0" encoding="UTF-8"?>
<!DOCTYPE svg PUBLIC "-//W3C//DTD SVG 1.1//EN" "http://www.w3.org/Graphics/SVG/1.1/DTD/svg11.dtd">
<!-- Creator: CorelDRAW X5 -->
<svg xmlns="http://www.w3.org/2000/svg" xml:space="preserve" width="225px" height="300px" style="shape-rendering:geometricPrecision; text-rendering:geometricPrecision; image-rendering:optimizeQuality; fill-rule:evenodd; clip-rule:evenodd"
viewBox="0 0 225 300.449"
 xmlns:xlink="http://www.w3.org/1999/xlink">
 <defs>
  <style type="text/css">
   <![CDATA[
    .fil2 {fill:#00A8D6}
    .fil1 {fill:#AE8900}
    .fil3 {fill:white}
    .fil0 {fill:#AE8900;fill-rule:nonzero}
   ]]>
  </style>
 </defs>
 <g id="Слой_x0020_1">
  <metadata id="CorelCorpID_0Corel-Layer"/>
  <path class="fil0" d="M164.847 290.115c0,5.99261 -3.82296,8.85658 -8.58657,8.85658l-10.9552 0 0 -24.8985 8.1023 0 0 7.18533 2.8529 0c4.80066,0 8.58657,2.81432 8.58657,8.85658zm2.08067 -46.4472c0,-5.99261 -3.82296,-8.85658 -8.58657,-8.85658l-10.9552 0 0 24.8985 8.1023 0 0 -7.18533 2.8529 0c4.80066,0 8.58657,-2.81432 8.58657,-8.85658zm-6.73734 -0.00802019c0,1.95616 -1.58723,2.47557 -3.41622,2.47557l-1.66324 0 0 -4.95113 1.63268 0c1.81715,0 3.44677,0.496488 3.44677,2.47557zm-66.8143 16.0499l-15.5004 0 0 -24.8985 15.2888 0 0 7.46069 -7.18647 0 0 2.00085 6.73276 0 0 5.69128 -6.73276 0 0 2.28537 7.39805 0 0 7.46031zm81.5646 39.2619l-8.10307 0 0 -24.8985 8.10307 0 0 24.8985zm-35.2816 -0.0252063l-8.10269 0 0 -18.1405 -5.52171 0 0 4.26865c0,3.36733 -0.100825,5.78561 -0.302094,7.25598 -0.322717,2.32395 -0.96777,4.0311 -1.93516,5.12185 -1.14918,1.28056 -2.87199,1.92065 -5.16997,1.92065 -1.31035,0 -2.13452,-0.201269 -3.56593,-0.60457l-0.0252063 -6.75568c1.85381,0 3.35893,-0.136343 3.38719,-3.60947l0.0282616 -3.47122 -0.0305531 -10.8842 21.2379 0 0 24.8985zm-40.7418 -25.2136c7.49544,0.0286435 12.9679,5.2009 12.9912,12.7689 -0.0236787,7.56151 -5.51216,12.7044 -12.9912,12.7284 -7.4794,-0.0244425 -12.9679,-5.16615 -12.9912,-12.7284 0.0282616,-7.55808 5.503,-12.7406 12.9912,-12.7689zm0 18.4644c3.37001,-0.0198595 5.42394,-2.39995 5.44227,-5.69281 -0.0126032,-3.29897 -2.0589,-5.70732 -5.44227,-5.72947 -3.37994,0.0240606 -5.42356,2.44043 -5.44227,5.73253 0.0217691,3.29286 2.07226,5.6676 5.44227,5.68975zm42.7591 -32.4875l-8.1023 0 0 -24.8985 8.1023 0 0 24.8985zm-13.0764 0.00381914c-2.75513,0.00114574 -5.50987,0.0026734 -8.265,0.00381914l-1.21029 -8.95435 -3.77789 8.94672c-1.45509,0.00534679 -2.96136,-0.00496488 -4.41645,0l-3.75994 -8.96772 -1.23473 8.97154c-2.75933,-0.00114574 -5.51866,-0.0026734 -8.27798,-0.00381914l4.54363 -24.8985c2.53362,0 5.06762,0 7.60123,0l3.3555 11.4276 3.63582 -11.4276c2.5298,0 5.05998,0 7.58978,0l4.21633 24.9023zm-54.1924 -17.5394l-5.54386 0 0 17.5356 -8.10269 0 0 -17.5356 -5.5431 0 0 -7.36292 19.1896 0 0 7.36292zm124.695 -21.0568l-7.77348 0.00114574 -0.988393 -2.77575 -8.21459 0.00381914 -0.972735 2.76811 -7.8869 0.0026734 9.79227 -24.8985 6.25269 0 9.79113 24.8985zm-10.6287 -8.02057l-2.20708 -6.19808 -0.121067 0 -2.17691 6.19808 4.50506 0zm-88.7537 7.96596l-7.77348 0.00114574 -0.988393 -2.77575 -8.21459 0.00381914 -0.972735 2.76811 -7.8869 0.0026734 9.79227 -24.8985 6.25269 0 9.79113 24.8985zm-10.6287 -8.02057l-2.20708 -6.19808 -0.121067 0 -2.17691 6.19808 4.50506 0zm38.9228 4.49245l-2.24527 0 -6.17555 -9.64333 7.80479 -11.6724 -9.22093 0 -6.58038 9.78158 -0.121067 0 0 -9.78158 -8.1023 0 0 24.8985 8.1023 0 0 -10.5637 0.121067 0 6.79196 10.5637 3.46778 0 0 5.98574 6.1576 0 0 -5.98574 0.0492669 0 -0.0492669 -0.0767647 0 -3.50597zm95.7053 3.58273l-8.1023 0 0 -9.17701 -5.4121 0 0 9.17701 -8.1023 0 0 -24.8985 8.1023 0 0 8.60796 5.4121 0 0 -8.60796 8.1023 0 0 24.8985zm-50.9244 -17.5356l-5.54386 0 0 17.5356 -8.10269 0 0 -17.5356 -5.5431 0 0 -7.36292 19.1896 0 0 7.36292zm-22.806 16.9066c-1.9111,0.624811 -5.53011,0.996031 -7.51645,0.996031 -4.01124,0 -7.14523,-1.20914 -9.40272,-3.6278 -2.15667,-2.30027 -3.23519,-5.38269 -3.23519,-9.24805 0,-3.60412 0.957458,-6.54448 2.87237,-8.82068 2.27773,-2.70357 5.60306,-4.05516 9.97712,-4.05516 2.03484,0 5.27079,0.348687 7.24453,0.78216l0 6.58038c-1.32868,-0.624811 -4.42409,-0.960132 -5.85398,-0.960132 -3.1928,0 -5.71381,2.36023 -5.71381,6.25995 0,4.28775 2.29187,6.43792 5.86505,6.43792 1.48908,0 4.35344,-0.438055 5.76308,-0.960132l0 6.61551zm-124.332 -2.95372l-2.24527 0 -6.17555 -9.64333 7.80479 -11.6724 -9.22093 0 -6.58038 9.78158 -0.121067 0 0 -9.78158 -8.1023 0 0 24.8985 8.1023 0 0 -10.5637 0.121067 0 6.79196 10.5637 3.46778 0 0 5.98574 6.1576 0 0 -5.98574 0.0492669 0 -0.0492669 -0.0767647 0 -3.50597zm47.6545 -3.49566c0,6.49215 -6.74613,7.50499 -10.9449,7.50499 -2.95372,0 -3.70877,-0.354798 -6.57159,-1.17286l0 -6.47344c2.17767,1.01513 3.2604,1.67087 5.60459,1.67087 1.22403,0 3.38605,-0.360527 3.38605,-2.27621 0,-2.02644 -1.75413,-2.41904 -3.1443,-2.41904l-3.93066 0 0 -4.90836 3.83976 0c1.2164,0 3.08395,-0.206997 3.08395,-2.09824 0,-1.93134 -2.43394,-2.09862 -3.6278,-2.09862 -2.17576,0 -2.6142,0.446839 -4.66737,1.28132l0 -6.29623c2.3988,-0.640088 3.47771,-0.960895 6.42074,-0.960895 4.12543,0 9.88622,1.09342 9.88622,7.25636 0,2.85633 -1.74115,4.97825 -4.11169,5.37047l0 0.142072c2.58365,0.276888 4.77698,2.23343 4.77698,5.47779zm-20.6211 7.07839l-7.77348 0.00114574 -0.988393 -2.77575 -8.21459 0.00381914 -0.972735 2.76811 -7.8869 0.0026734 9.79227 -24.8985 6.25269 0 9.79113 24.8985zm-10.6287 -8.02057l-2.20708 -6.19808 -0.121067 0 -2.17691 6.19808 4.50506 0zm42.2569 85.8432l-9.67464 0 -4.74681 -11.2756 -0.181027 0 0 11.2756 -7.80059 0 0 -11.2756 -0.181027 0 -4.74681 11.2756 -9.67503 0 7.55884 -13.2314 -6.65179 -11.6671 8.76798 0 4.74681 10.4931 0.181027 0 0 -10.4931 7.80059 0 0 10.4931 0.181027 0 4.74681 -10.4931 8.76798 0 -6.65179 11.6671 7.55846 13.2314zm73.7911 -8.81686c0,-1.95616 -1.58723,-2.47557 -3.41622,-2.47557l-1.66324 0 0 4.95113 1.63268 0c1.81715,0 3.44677,-0.496488 3.44677,-2.47557z"/>
  <g id="_238779904">
   <path id="_237264856" class="fil1" d="M186.899 148.327l-149.009 0c36.7707,49.9142 112.243,49.9142 149.009,0z"/>
   <path id="_238781656" class="fil2" d="M22.9698 69.8948l76.2701 0 24.601 23.2815 -103.919 0c-0.0210053,3.66255 0.192867,7.36712 0.607243,11.0087l114.94 0 16.2237 15.3548c4.51231,4.26407 3.46587,7.92662 -4.67272,7.92662l-120.683 0c1.58112,4.00628 3.43532,7.8827 5.53775,11.5854l161.036 0c34.3818,-60.6842 -9.08,-137.991 -80.5208,-137.991 -29.1973,0 -55.2381,13.5293 -72.1836,34.6682 7.70511,0.475483 16.6782,1.59067 22.2904,3.50215 5.6275,1.90957 11.5796,6.84008 13.7871,8.92724l11.4689 10.8521 -61.1692 0c-1.42836,3.52698 -2.63521,7.16089 -3.61482,10.8845l0.000381914 -0.000381914z"/>
   <path id="_238781872" class="fil3" d="M192.912 139.052l-161.036 0c1.82364,3.21381 3.8306,6.31495 6.01323,9.27669l149.009 -0.00190957c2.18837,-2.95983 4.1896,-6.05715 6.01323,-9.27478l0 0 0 0 0 0 0.000763828 0zm-130.417 -99.8155c-5.60841,-1.90957 -14.5872,-3.02094 -22.2904,-3.50215 -5.60841,6.99666 -10.2257,14.8335 -13.6305,23.2872l61.175 0 -11.4746 -10.8521c-2.1941,-2.09862 -8.15195,-7.01385 -13.7795,-8.93297l0 0 0 0 0 0zm36.7516 30.6585l-76.2758 0c-1.96113,7.43777 -3.01712,15.2384 -3.05149,23.2815l103.917 0 -24.5895 -23.2815 0 0 0 0 0 0 -0.000381914 0zm36.2249 34.2901l-114.94 0c0.93378,8.12522 2.91973,15.9354 5.81464,23.2815l120.681 0c8.12904,0 9.1793,-3.66828 4.67272,-7.92662l-16.2275 -15.3548z"/>
  </g>
 </g>
</svg>
