<?xml version="1.0" encoding="UTF-8" standalone="no"?>
<svg
   xmlns:dc="http://purl.org/dc/elements/1.1/"
   xmlns:cc="http://creativecommons.org/ns#"
   xmlns:rdf="http://www.w3.org/1999/02/22-rdf-syntax-ns#"
   xmlns:svg="http://www.w3.org/2000/svg"
   xmlns="http://www.w3.org/2000/svg"
   viewBox="0 0 206.66667 141.33333"
   height="141.33333"
   width="206.66667"
   xml:space="preserve"
   version="1.1"
   id="svg2"><metadata
     id="metadata8"><rdf:RDF><cc:Work
         rdf:about=""><dc:format>image/svg+xml</dc:format><dc:type
           rdf:resource="http://purl.org/dc/dcmitype/StillImage" /></cc:Work></rdf:RDF></metadata><defs
     id="defs6" /><g
     transform="matrix(1.3333333,0,0,-1.3333333,0,141.33333)"
     id="g10"><g
       transform="scale(0.1)"
       id="g12"><path
         id="path14"
         style="fill:#231f20;fill-opacity:1;fill-rule:evenodd;stroke:none"
         d="m 283.602,174.074 c 0,11.547 -1.586,21.348 -4.766,29.289 -3.18,8 -8.106,14.41 -14.777,19.282 -6.621,4.82 -15.149,8.316 -25.477,10.488 -10.387,2.226 -22.672,3.281 -36.973,3.23 l -98.523,0 c -11.8633,0 -21.504,0.637 -28.9727,1.856 -7.418,1.269 -13.1914,3.226 -17.2149,5.933 -3.9726,2.7 -6.7265,6.196 -8.2656,10.434 -1.4805,4.293 -2.2226,9.426 -2.1172,15.465 -0.0547,6.676 0.5821,12.5 1.9102,17.531 1.3711,4.98 3.8125,9.168 7.3594,12.504 3.496,3.336 8.5273,5.828 14.9882,7.523 6.4649,1.641 14.8321,2.489 25.0039,2.489 l 106.1487,0 c 10.75,0 19.812,-1.008 27.121,-2.914 7.308,-1.911 13.187,-4.61 17.531,-8.161 4.399,-3.546 7.524,-7.781 9.426,-12.66 1.91,-4.867 2.863,-10.324 2.808,-16.312 l 22.887,0 c -0.054,20.976 -6.465,36.605 -19.125,46.879 -12.711,10.328 -31.359,15.468 -55.879,15.414 l -111.2341,0 c -16.4765,0.054 -30.0351,-2.012 -40.6836,-6.25 -10.5937,-4.235 -18.4335,-10.91 -23.5156,-20.129 -5.1406,-9.164 -7.6797,-21.137 -7.6289,-35.914 -0.1055,-9.215 0.9531,-17.321 3.0703,-24.313 2.1211,-6.937 5.8789,-12.765 11.1797,-17.48 5.3477,-4.656 12.8164,-8.211 22.3516,-10.59 9.5351,-2.332 21.7187,-3.551 36.4961,-3.551 l 110.9145,0 c 10.382,0 18.964,-0.742 25.851,-2.222 6.883,-1.485 12.34,-3.813 16.313,-6.997 3.972,-3.175 6.836,-7.253 8.476,-12.234 1.695,-4.98 2.488,-10.961 2.438,-17.957 0,-9.48 -1.911,-17.266 -5.723,-23.25 -3.812,-5.988 -9.535,-10.437 -17.16,-13.246 -7.629,-2.805 -17.164,-4.238 -28.606,-4.184 l -104.238,0 c -10.8593,0 -19.9218,1.008 -27.2265,2.965 -7.2578,1.961 -13.0859,4.719 -17.3789,8.317 -4.3398,3.605 -7.414,7.894 -9.2695,12.875 -1.8516,4.925 -2.75,10.488 -2.6953,16.523 l -22.8867,0 c 0.0547,-14.195 3.0195,-25.953 8.8984,-35.227 5.8281,-9.32 14.0898,-16.257 24.793,-20.867 10.75,-4.554 23.4609,-6.832 38.1328,-6.832 l 113.7777,0 c 16.898,-0.054 30.722,2.067 41.371,6.356 10.699,4.238 18.59,10.965 23.621,20.129 5.035,9.218 7.523,21.136 7.469,35.808 z m 223.742,-62.293 0,101.703 c 0.051,11.493 -1.906,21.344 -5.883,29.606 -3.918,8.211 -10.273,14.57 -18.961,18.965 -8.688,4.449 -20.129,6.672 -34.273,6.722 l -68.961,0 c -10.704,-0.05 -19.493,-1.004 -26.485,-2.91 -6.996,-1.855 -12.554,-4.394 -16.633,-7.574 -4.082,-3.18 -7.097,-6.727 -9.003,-10.648 -1.911,-3.918 -3.18,-7.946 -3.707,-12.079 -0.586,-4.128 -0.797,-8.101 -0.743,-11.914 l 23.516,0 c -0.106,3.602 0.215,6.993 0.848,10.118 0.691,3.125 2.281,5.878 4.714,8.261 2.438,2.383 6.305,4.289 11.598,5.614 5.301,1.378 12.504,2.07 21.617,2.07 l 60.7,0 c 9.109,-0.055 16.472,-1.539 22.191,-4.453 5.723,-2.914 9.91,-6.782 12.609,-11.653 2.703,-4.871 4.028,-10.328 3.973,-16.312 l 0,-21.93 c 0.055,0.055 -0.266,0.688 -0.899,1.957 -0.636,1.219 -1.96,2.649 -3.921,4.238 -2.012,1.59 -4.926,3.02 -8.848,4.239 -3.918,1.269 -9.109,1.91 -15.57,1.961 l -91.532,0 c -11.386,-0.051 -20.711,-1.645 -27.964,-4.77 -7.207,-3.125 -12.504,-7.414 -15.895,-12.922 -3.441,-5.508 -5.137,-11.918 -5.082,-19.175 l 0,-19.067 c 0.051,-9.113 2.117,-16.637 6.195,-22.516 4.082,-5.929 10.067,-10.328 17.907,-13.242 7.836,-2.859 17.371,-4.289 28.656,-4.289 l 88.984,0 c 4.77,0.055 8.899,0.742 12.449,2.012 3.497,1.219 6.411,2.703 8.688,4.344 2.328,1.64 4.023,3.129 5.137,4.343 1.164,1.274 1.695,1.961 1.695,2.016 l 0,-12.715 22.883,0 z m -22.883,48.309 c 0.055,-9.852 -2.809,-17.164 -8.531,-22.035 -5.719,-4.821 -14.512,-7.203 -26.43,-7.203 l -77.543,0 c -9.008,0.054 -16.055,1.003 -21.031,2.964 -5.031,1.961 -8.528,4.715 -10.488,8.262 -1.958,3.5 -2.915,7.578 -2.805,12.293 l 0,11.438 c -0.055,3.656 0.422,6.886 1.324,9.746 0.949,2.859 2.648,5.246 5.082,7.207 2.492,1.906 5.988,3.386 10.488,4.394 4.504,1.004 10.332,1.535 17.43,1.535 l 77.543,0 c 11.18,0.055 19.812,-2.277 25.852,-6.886 5.984,-4.66 9.054,-11.914 9.109,-21.715 z m 221.199,15.258 -22.887,0 c 0.055,-4.243 -0.152,-8.481 -0.683,-12.66 -0.481,-4.243 -1.539,-8.266 -3.18,-12.079 -1.644,-3.816 -4.133,-7.152 -7.469,-10.121 -3.336,-2.965 -7.839,-5.297 -13.457,-7.043 -5.664,-1.695 -12.761,-2.539 -21.293,-2.593 l -30.507,0 c -6.411,0 -12.129,1.269 -17.215,3.918 -5.031,2.597 -9.059,6.621 -11.973,12.078 -2.965,5.457 -4.449,12.394 -4.5,20.867 l 0,82.633 118.547,0 0,19.07 -118.547,0 0,30.512 -22.883,0 0,-30.512 -19.703,0 0,-19.07 19.703,0 0,-79.133 c 0.051,-13.453 2.328,-24.582 6.883,-33.375 4.555,-8.789 11.074,-15.305 19.496,-19.594 8.422,-4.348 18.488,-6.465 30.192,-6.465 l 32.734,0 c 12.129,0.106 22.246,1.535 30.352,4.399 8.156,2.859 14.617,6.617 19.492,11.281 4.871,4.715 8.527,9.851 10.965,15.465 2.437,5.668 4.074,11.281 4.871,16.898 0.742,5.614 1.117,10.805 1.062,15.524 z m 305.41,29.871 -22.875,0 c -0.05,-4.981 -0.953,-9.852 -2.648,-14.621 -1.695,-4.711 -3.762,-9.164 -6.305,-13.293 -2.488,-4.133 -4.98,-7.785 -7.523,-10.969 -2.489,-3.121 -4.606,-5.559 -6.301,-7.359 -1.695,-1.747 -2.598,-2.649 -2.652,-2.704 l -157.633,94.075 c -0.106,0 -0.953,0.316 -2.594,1.058 -1.644,0.742 -3.5,2.016 -5.668,3.867 -2.172,1.856 -4.027,4.399 -5.668,7.68 -1.641,3.285 -2.488,7.469 -2.598,12.5 0.055,10.859 4.399,19.231 13.032,25.109 8.636,5.879 21.242,8.844 37.82,8.899 l 69.918,0 c 10.648,0.055 19.809,-1.379 27.492,-4.238 7.684,-2.86 13.563,-7.309 17.746,-13.293 4.133,-6.043 6.196,-13.719 6.25,-23.153 l 22.883,0 c 0.051,2.598 -0.16,5.934 -0.582,10.016 -0.422,4.078 -1.379,8.473 -2.863,13.242 -1.535,4.766 -3.863,9.531 -7.047,14.246 -3.176,4.719 -7.465,9.059 -12.977,12.981 -5.453,3.918 -12.339,7.043 -20.656,9.426 -8.371,2.386 -18.433,3.601 -30.246,3.656 l -66.738,0 c -10.699,0.054 -20.711,-0.899 -29.981,-2.809 -9.269,-1.902 -17.429,-5.031 -24.422,-9.269 -7.043,-4.235 -12.55,-9.907 -16.472,-16.895 -3.969,-6.996 -5.985,-15.574 -6.035,-25.691 0.054,-5.989 0.578,-10.86 1.585,-14.567 1.008,-3.707 2.176,-6.57 3.5,-8.527 1.321,-2.012 2.489,-3.391 3.493,-4.184 1.007,-0.742 1.539,-1.218 1.59,-1.328 -0.051,0.055 -1.27,-0.156 -3.602,-0.527 -2.277,-0.422 -5.242,-1.274 -8.898,-2.594 -3.657,-1.273 -7.575,-3.285 -11.657,-5.933 -4.074,-2.649 -7.996,-6.25 -11.593,-10.704 -3.657,-4.5 -6.676,-10.113 -8.957,-16.894 -2.329,-6.727 -3.547,-14.887 -3.598,-24.367 0.051,-13.188 2.117,-24.578 6.14,-34.16 4.028,-9.641 9.536,-17.536 16.688,-23.735 7.094,-6.25 15.309,-10.859 24.629,-13.875 9.32,-3.019 19.387,-4.504 30.086,-4.504 l 104.879,0 c 10.277,0.055 18.91,0.793 25.797,2.172 6.886,1.379 12.394,3.02 16.472,4.82 4.078,1.801 7.043,3.442 8.844,4.821 1.855,1.379 2.809,2.117 2.914,2.172 l 26.699,-16.528 13.982,20.973 -21.611,12.715 c 3.446,3.867 6.832,8 10.118,12.394 3.339,4.344 6.304,9.059 9.003,14.094 2.65,5.082 4.82,10.539 6.41,16.473 1.59,5.929 2.38,12.34 2.43,19.332 z M 939.891,141.02 c 0,-0.106 -1.168,-0.637 -3.395,-1.641 -2.277,-1.008 -5.402,-2.067 -9.48,-3.07 -4.078,-1.008 -8.899,-1.59 -14.461,-1.645 l -110.602,0 c -11.859,0.055 -21.555,2.277 -29.183,6.621 -7.575,4.395 -13.192,10.543 -16.844,18.539 -3.653,7.946 -5.457,17.371 -5.457,28.231 0.054,6.836 1.164,12.66 3.23,17.429 2.121,4.711 4.821,8.633 8.16,11.653 3.286,3.019 6.832,5.402 10.539,7.097 3.711,1.641 7.258,2.86 10.543,3.602 3.336,0.742 6.036,1.164 8.157,1.324 2.062,0.211 3.179,0.266 3.23,0.211 L 939.891,141.02 Z m 357.219,33.687 -22.88,0 c 0.1,-9.32 -1.75,-16.945 -5.41,-22.988 -3.7,-5.985 -9.75,-10.434 -18.06,-13.348 -8.37,-2.914 -19.49,-4.344 -33.42,-4.344 l -96.62,0 c -10.91,-0.054 -20.18,0.848 -27.7,2.649 -7.52,1.855 -13.56,4.926 -18.17,9.164 -4.55,4.289 -7.84,10.117 -9.9,17.426 -2.07,7.308 -3.08,16.422 -3.02,27.332 l 0,63.562 c -0.05,11.231 0.9,20.66 2.86,28.18 2.01,7.578 5.24,13.562 9.74,18.012 4.51,4.449 10.54,7.574 18.12,9.48 7.57,1.961 16.9,2.859 28.07,2.809 l 96.62,0 c 10.91,0 20.07,-0.957 27.38,-2.864 7.37,-1.906 13.19,-4.609 17.53,-8.156 4.3,-3.551 7.42,-7.84 9.28,-12.82 1.85,-5.031 2.75,-10.645 2.69,-16.84 l 22.89,0 c 0,21.238 -6.68,37.074 -20.02,47.457 -13.35,10.332 -33.38,15.52 -60.07,15.469 l -96.61,0 c -14.73,0.051 -27.29,-1.43 -37.67,-4.395 -10.33,-2.969 -18.75,-7.633 -25.16,-14.039 -6.46,-6.406 -11.17,-14.723 -14.14,-25 -2.97,-10.277 -4.45,-22.726 -4.4,-37.293 l 0,-63.562 c -0.05,-14.09 1.43,-26.164 4.4,-36.176 2.97,-10.012 7.68,-18.168 14.14,-24.418 6.41,-6.305 14.83,-10.914 25.16,-13.879 10.38,-2.914 22.94,-4.398 37.67,-4.344 l 96.61,0 c 14.57,0 26.96,1.324 37.18,4.028 10.23,2.699 18.49,6.671 24.79,11.968 6.31,5.246 10.91,11.813 13.83,19.653 2.91,7.84 4.34,16.949 4.29,27.277 z m 232.64,-1.269 0,34.324 c 0.05,8.261 -1.06,16.047 -3.39,23.465 -2.34,7.359 -6.09,13.929 -11.39,19.652 -5.25,5.719 -12.35,10.223 -21.14,13.504 -8.84,3.285 -19.75,4.98 -32.73,5.035 l -62.93,0 c -12.34,-0.055 -22.93,-1.645 -31.62,-4.766 -8.74,-3.129 -15.84,-7.472 -21.29,-13.086 -5.46,-5.562 -9.43,-12.078 -11.97,-19.546 -2.55,-7.469 -3.77,-15.52 -3.77,-24.258 l 0,-34.324 c -0.05,-20.075 5.62,-35.383 16.95,-45.821 11.29,-10.484 28.55,-15.781 51.7,-15.836 l 62.62,0 c 12.65,0.055 23.41,1.746 32.25,4.981 8.79,3.281 15.89,7.734 21.29,13.449 5.4,5.727 9.33,12.238 11.81,19.656 2.44,7.363 3.66,15.254 3.61,23.571 z m -22.89,0 c -0.05,-10.118 -2.06,-18.329 -5.98,-24.579 -3.97,-6.3 -9.48,-10.859 -16.63,-13.773 -7.1,-2.859 -15.47,-4.289 -25.06,-4.234 l -59.43,0 c -15.57,0 -27.38,3.492 -35.38,10.539 -7.95,7.101 -11.97,17.742 -11.97,32.047 l 0,34.324 c 0,10.117 1.8,18.328 5.35,24.633 3.55,6.246 8.84,10.8 15.88,13.714 7,2.86 15.74,4.293 26.12,4.239 l 59.75,0 c 15.31,-0.055 27.01,-3.758 35.12,-11.016 8.1,-7.312 12.18,-17.852 12.23,-31.57 l 0,-34.324" /><path
         id="path16"
         style="fill:#231f20;fill-opacity:1;fill-rule:evenodd;stroke:none"
         d="m 71.4453,3.46875 0,42.83985 -9.5039,0 L 40.332,9.76562 18.6055,46.3086 l -9.50784,0 0,-42.83985 4.44144,0 0,39.38285 2.5312,0 23.0899,-39.38285 2.2851,0 23.0899,39.38285 2.4687,0 0,-39.38285 4.4414,0 z m 103.5387,0 -22.226,42.83985 -6.789,0 -22.227,-42.83985 4.938,0 5.496,10.74215 30.125,0 5.496,-10.74215 5.187,0 z m -12.968,15.06245 -25.434,0 12.715,24.6915 12.719,-24.6915 z m 112.425,-15.06245 0,42.83985 -4.445,0 0,-38.39844 -32.965,38.39844 -9.879,0 0,-42.83985 4.446,0 0,39.50785 2.468,0 33.954,-39.50785 6.421,0 z m 103.286,0 -22.223,42.83985 -6.793,0 -22.223,-42.83985 4.938,0 5.496,10.74215 30.129,0 5.492,-10.74215 5.184,0 z m -12.961,15.06245 -25.438,0 12.719,24.6915 12.719,-24.6915 z m 114.707,1.9766 0,3.332 -25.68,0 0,-4.3203 21.051,0 0,-1.4179 c 0.008,-2.1836 -0.188,-3.9532 -0.567,-5.3125 -0.394,-1.3594 -1.007,-2.4063 -1.863,-3.14066 -0.855,-0.71485 -1.973,-1.21094 -3.375,-1.47656 -1.398,-0.26954 -3.109,-0.39454 -5.125,-0.38282 l -18.891,0 c -2.085,-0.01172 -3.855,0.15235 -5.308,0.4961 -1.438,0.32812 -2.602,0.89453 -3.488,1.67578 -0.887,0.79296 -1.524,1.85156 -1.911,3.18746 -0.402,1.3477 -0.597,3.0157 -0.586,5.0118 l 0,12.9648 c -0.011,2.1523 0.165,3.9609 0.512,5.4219 0.352,1.4648 0.957,2.625 1.801,3.5 0.844,0.8711 2.008,1.5 3.465,1.8828 1.465,0.3789 3.304,0.5625 5.515,0.5547 l 18.891,0 c 2.09,0 3.84,-0.1836 5.246,-0.5547 1.41,-0.3711 2.535,-0.8945 3.367,-1.5859 0.836,-0.6876 1.43,-1.5235 1.789,-2.4883 0.364,-0.9805 0.536,-2.0664 0.528,-3.2735 l 4.629,0 c 0,3.9727 -1.285,6.9961 -3.86,9.0742 -2.57,2.0899 -6.453,3.1368 -11.636,3.1485 l -18.891,0 c -2.859,0.0117 -5.301,-0.2774 -7.316,-0.8555 -2.004,-0.5742 -3.641,-1.4804 -4.887,-2.7265 -1.254,-1.2422 -2.172,-2.8594 -2.746,-4.8516 -0.575,-2 -0.864,-4.418 -0.852,-7.2461 l 0,-12.9648 c -0.012,-2.5899 0.246,-4.8125 0.777,-6.6641 0.536,-1.86329 1.415,-3.38672 2.637,-4.57032 1.215,-1.18359 2.828,-2.05859 4.863,-2.625 2.028,-0.55469 4.54,-0.83203 7.524,-0.83203 l 18.891,0 c 3.078,-0.01172 5.617,0.24609 7.632,0.79297 2.02,0.54687 3.594,1.46094 4.746,2.74609 1.153,1.28516 1.965,3.03519 2.438,5.23439 0.465,2.2031 0.703,4.9609 0.68,8.2656 z m 61.367,-17.03905 0,42.83985 -4.442,0 0,-42.83985 4.442,0 z m 105.637,0 0,42.83985 -4.446,0 0,-38.39844 -32.965,38.39844 -9.878,0 0,-42.83985 4.445,0 0,39.50785 2.472,0 33.95,-39.50785 6.422,0 z m 104.703,17.03905 0,3.332 -25.68,0 0,-4.3203 21.051,0 0,-1.4179 c 0.008,-2.1836 -0.184,-3.9532 -0.563,-5.3125 -0.394,-1.3594 -1.008,-2.4063 -1.863,-3.14066 C 743.27,8.93359 742.148,8.4375 740.75,8.17188 739.348,7.90234 737.645,7.77734 735.625,7.78906 l -18.891,0 c -2.086,-0.01172 -3.859,0.15235 -5.308,0.4961 -1.442,0.32812 -2.602,0.89453 -3.488,1.67578 -0.887,0.79296 -1.524,1.85156 -1.915,3.18746 -0.402,1.3477 -0.597,3.0157 -0.585,5.0118 l 0,12.9648 c -0.012,2.1523 0.164,3.9609 0.515,5.4219 0.348,1.4648 0.957,2.625 1.797,3.5 0.848,0.8711 2.012,1.5 3.469,1.8828 1.465,0.3789 3.304,0.5625 5.515,0.5547 l 18.895,0 c 2.086,0 3.832,-0.1836 5.242,-0.5547 1.41,-0.3711 2.535,-0.8945 3.363,-1.5859 0.836,-0.6876 1.434,-1.5235 1.793,-2.4883 0.36,-0.9805 0.532,-2.0664 0.524,-3.2735 l 4.629,0 c 0,3.9727 -1.282,6.9961 -3.856,9.0742 -2.574,2.0899 -6.453,3.1368 -11.636,3.1485 l -18.891,0 c -2.859,0.0117 -5.301,-0.2774 -7.313,-0.8555 -2.011,-0.5742 -3.644,-1.4804 -4.89,-2.7265 -1.254,-1.2422 -2.172,-2.8594 -2.746,-4.8516 -0.578,-2 -0.868,-4.418 -0.856,-7.2461 l 0,-12.9648 c -0.012,-2.5899 0.246,-4.8125 0.785,-6.6641 0.532,-1.86329 1.407,-3.38672 2.633,-4.57032 1.211,-1.18359 2.828,-2.05859 4.867,-2.625 2.028,-0.55469 4.535,-0.83203 7.52,-0.83203 l 18.891,0 c 3.074,-0.01172 5.617,0.24609 7.636,0.79297 2.016,0.54687 3.586,1.46094 4.742,2.74609 1.149,1.28516 1.965,3.03519 2.438,5.23439 0.465,2.2031 0.699,4.9609 0.676,8.2656 z m 171.082,-4.8164 -4.446,0 c 0.02,-1.8086 -0.339,-3.293 -1.05,-4.4648 -0.719,-1.1641 -1.891,-2.02738 -3.508,-2.59379 -1.625,-0.5664 -3.789,-0.84375 -6.496,-0.84375 l -18.766,0 c -2.117,-0.01172 -3.918,0.16406 -5.379,0.51563 -1.461,0.35937 -2.637,0.95703 -3.527,1.77731 -0.887,0.836 -1.524,1.9649 -1.926,3.3868 -0.402,1.4179 -0.594,3.1914 -0.586,5.3124 l 0,12.3438 c -0.008,2.1836 0.176,4.0156 0.555,5.4727 0.39,1.4726 1.019,2.6328 1.894,3.5 0.871,0.8632 2.047,1.4687 3.516,1.8398 1.477,0.3828 3.285,0.5547 5.453,0.5469 l 18.766,0 c 2.125,0 3.902,-0.1836 5.32,-0.5547 1.434,-0.3711 2.566,-0.8945 3.41,-1.5859 0.832,-0.6876 1.438,-1.5235 1.801,-2.4883 0.359,-0.9805 0.535,-2.0664 0.523,-3.2735 l 4.446,0 c 0,4.125 -1.297,7.1992 -3.891,9.2188 -2.59,2.0078 -6.48,3.0156 -11.668,3.0039 l -18.769,0 c -2.86,0.0117 -5.297,-0.2774 -7.313,-0.8555 -2.008,-0.5742 -3.641,-1.4804 -4.887,-2.7265 -1.254,-1.2422 -2.172,-2.8594 -2.746,-4.8516 -0.578,-2 -0.863,-4.418 -0.855,-7.2461 l 0,-12.3438 c -0.008,-2.7382 0.277,-5.082 0.855,-7.0312 0.574,-1.94531 1.489,-3.52734 2.746,-4.74219 1.246,-1.22656 2.879,-2.12109 4.887,-2.69531 2.016,-0.56641 4.453,-0.85547 7.313,-0.84375 l 18.769,0 c 2.828,0 5.235,0.25781 7.223,0.78125 1.988,0.52344 3.594,1.29688 4.816,2.32422 1.227,1.01953 2.117,2.29687 2.684,3.81638 0.566,1.5274 0.847,3.2969 0.836,5.3008 z m 105.018,2.4688 0,13.3359 c 0,2.4883 -0.21,4.6094 -0.61,6.3789 -0.41,1.7695 -1.02,3.2422 -1.85,4.3945 -0.8,1.1602 -1.83,2.0743 -3.06,2.7344 -1.23,0.6719 -2.67,1.1328 -4.33,1.4102 -1.64,0.2656 -3.51,0.4023 -5.59,0.3906 l -18.766,0 c -3.012,0.0117 -5.543,-0.2774 -7.594,-0.8438 -2.046,-0.5742 -3.679,-1.4726 -4.906,-2.6836 -1.222,-1.2265 -2.101,-2.8085 -2.633,-4.7539 -0.546,-1.9453 -0.804,-4.2812 -0.793,-7.0273 l 0,-13.3359 c -0.011,-2.7383 0.278,-5.0508 0.856,-6.9336 0.582,-1.88285 1.5,-3.39457 2.758,-4.52738 1.254,-1.14453 2.898,-1.96484 4.926,-2.48047 2.039,-0.51563 4.496,-0.76172 7.386,-0.75 l 18.766,0 c 2.28,-0.01172 4.26,0.11328 5.97,0.35937 1.71,0.23438 3.17,0.66797 4.37,1.29297 1.21,0.6211 2.18,1.48438 2.94,2.58594 0.75,1.11328 1.29,2.51957 1.64,4.23047 0.35,1.7148 0.53,3.7852 0.52,6.2227 z m -4.45,0 c 0.01,-2.0664 -0.13,-3.7891 -0.45,-5.1329 -0.32,-1.3593 -0.88,-2.4101 -1.69,-3.17964 -0.81,-0.76172 -1.93,-1.29688 -3.37,-1.60547 -1.45,-0.32031 -3.3,-0.46485 -5.54,-0.45313 l -18.764,0 c -2.082,-0.01172 -3.852,0.14453 -5.301,0.46485 -1.461,0.32031 -2.633,0.875 -3.539,1.64453 -0.895,0.77346 -1.551,1.83206 -1.977,3.17966 -0.41,1.3477 -0.617,3.0391 -0.605,5.0821 l 0,13.707 c 0,2.0742 0.215,3.7969 0.66,5.1719 0.441,1.3789 1.117,2.4609 2.035,3.2656 0.926,0.7891 2.109,1.3555 3.547,1.6953 1.453,0.332 3.172,0.4922 5.176,0.4844 l 18.768,0 c 2.12,0.0078 3.9,-0.1446 5.32,-0.4649 1.43,-0.3281 2.56,-0.8828 3.41,-1.6757 0.83,-0.7813 1.44,-1.8711 1.79,-3.25 0.37,-1.379 0.54,-3.1211 0.53,-5.2266 l 0,-13.707 z m 121.44,-14.69145 0,42.83985 -9.51,0 -21.61,-36.54298 -21.73,36.54298 -9.5,0 0,-42.83985 4.44,0 0,39.38285 2.53,0 23.09,-39.38285 2.29,0 23.09,39.38285 2.46,0 0,-39.38285 4.45,0 z m 99.59,29.63285 c 0,3.1992 -0.51,5.7578 -1.55,7.7031 -1.04,1.9453 -2.68,3.3437 -4.9,4.2226 -2.21,0.8711 -5.09,1.3008 -8.62,1.2813 l -28.89,0 0,-42.83985 4.44,0 0,17.71875 24.51,0 c 2.69,-0.0117 4.97,0.1641 6.87,0.5117 1.91,0.3594 3.46,0.9766 4.66,1.8555 1.2,0.8789 2.08,2.0976 2.64,3.6484 0.57,1.5547 0.84,3.5235 0.84,5.8985 z m -4.45,0 c 0.01,-1.5938 -0.16,-2.8907 -0.48,-3.8985 -0.31,-1 -0.84,-1.7734 -1.56,-2.3086 -0.72,-0.5312 -1.67,-0.9023 -2.86,-1.0976 -1.19,-0.2071 -2.63,-0.3008 -4.36,-0.2891 l -25.81,0 0,16.4805 26.24,0 c 2.09,0.0117 3.78,-0.2656 5.09,-0.8321 1.3,-0.5742 2.24,-1.5117 2.85,-2.8164 0.6,-1.3007 0.9,-3.0468 0.89,-5.2382 z m 106.74,-29.63285 -22.22,42.83985 -6.79,0 -22.23,-42.83985 4.94,0 5.49,10.74215 30.13,0 5.49,-10.74215 5.19,0 z m -12.96,15.06245 -25.44,0 12.72,24.6915 12.72,-24.6915 z m 112.42,-15.06245 0,42.83985 -4.45,0 0,-38.39844 -32.96,38.39844 -9.88,0 0,-42.83985 4.45,0 0,39.50785 2.47,0 33.95,-39.50785 6.42,0 z m 101.07,42.83985 -5.87,0 -18.89,-18.8867 -18.89,18.8867 -5.86,0 22.53,-22.3438 0,-20.49605 4.44,0 0,20.43355 22.54,22.4063" /><path
         id="path18"
         style="fill:#324ba6;fill-opacity:1;fill-rule:evenodd;stroke:none"
         d="m 528.277,631.934 c 54.5,128.621 254.457,97.742 313.203,65.914 C 987.398,618.797 760.203,467.23 563.668,581.234 755.777,328.66 1191.36,552.551 1058.21,884.465 999.863,759.156 740.207,802.492 704.285,856.727 655.5,930.387 796.164,1056.59 1015.17,949.512 785.152,1213.91 389.797,941.145 528.277,631.934" /></g></g></svg>