<?xml version="1.0" encoding="UTF-8" standalone="no"?>
<svg
   xmlns:svg="http://www.w3.org/2000/svg"
   xmlns="http://www.w3.org/2000/svg"
   version="1.1"
   width="594.61829"
   height="128.51701"
   id="svg3472">
  <defs
     id="defs3474" />
  <g
     transform="translate(-52.69087,-468.10367)"
     id="layer1">
    <path
       d="m 484.04144,521.56854 -11.76444,-13.78042 -13.35422,17.27795 28.08852,0 -2.96986,-3.49753 z m 103.12653,55.82524 8.63221,-0.3112 c 0.40591,1.44097 1.353,2.61809 2.84809,3.54489 1.50183,0.92005 3.82226,1.66421 6.96125,2.23248 3.13898,0.56826 6.67711,0.8524 10.6076,0.8524 3.49753,0 6.56887,-0.21648 9.24783,-0.64269 2.6722,-0.43296 4.66789,-1.02153 5.96678,-1.77921 1.30566,-0.75092 1.96862,-1.56949 1.96862,-2.46247 0,-0.89975 -0.62913,-1.68451 -1.90097,-2.36101 -1.2583,-0.6765 -3.33518,-1.23801 -6.21708,-1.69802 -1.86716,-0.29767 -5.95325,-0.77123 -12.31917,-1.40714 -6.33886,-0.63592 -10.80379,-1.23124 -13.34746,-1.79275 -3.30135,-0.71709 -5.76383,-1.61684 -7.38744,-2.67895 -1.61008,-1.06887 -2.41513,-2.25952 -2.41513,-3.58549 0,-1.44771 0.98094,-2.8075 2.9631,-4.0658 1.97539,-1.26506 4.8776,-2.22568 8.67957,-2.8819 3.81548,-0.64946 8.03012,-0.97417 12.68447,-0.97417 5.13468,0 9.64698,0.33825 13.57748,1.02829 3.9102,0.68327 6.92065,1.69802 9.03135,3.03075 2.09041,1.33272 3.2337,2.84808 3.39606,4.53258 l -8.77429,0.27737 c -0.48031,-1.8198 -2.07687,-3.19988 -4.79641,-4.11993 -2.72633,-0.93357 -6.73124,-1.39359 -12.04858,-1.39359 -5.54058,0 -9.55902,0.41943 -12.10945,1.26507 -2.52336,0.84562 -3.7952,1.86038 -3.7952,3.04427 0,1.04181 0.89975,1.89421 2.68573,2.55718 1.77245,0.66975 6.35916,1.35302 13.80072,2.04982 7.44157,0.70356 12.5424,1.31243 15.31608,1.83333 4.02521,0.77798 7.00184,1.75214 8.91635,2.93603 1.92129,1.18389 2.86839,2.55043 2.86839,4.09286 0,1.52892 -1.04858,2.96985 -3.15252,4.32288 -2.1107,1.35301 -5.14145,2.40835 -9.08547,3.16604 -3.94403,0.74416 -8.38866,1.123 -13.3204,1.123 -6.25768,0 -11.50736,-0.37884 -15.72875,-1.13653 -4.23493,-0.75769 -7.5498,-1.90097 -9.96494,-3.42312 -2.40159,-1.52214 -3.67342,-3.254 -3.78842,-5.17527 m -61.14258,9.24783 0,-28.77179 50.00053,0 0,3.39607 -40.85418,0 0,8.80811 38.26315,0 0,3.37576 -38.26315,0 0,9.7958 42.46426,0 0,3.39605 -51.61061,0 z m -70.05894,0 0,-28.77179 9.3899,0 36.32837,22.58854 0,-22.58854 8.77427,0 0,28.77179 -9.3899,0 -36.32835,-22.60881 0,22.60881 -8.77429,0 z m -25.1863,-28.77179 9.14635,0 0,28.77179 -9.14635,0 0,-28.77179 z m -55.67641,28.77179 0,-28.77179 9.15989,0 0,25.37574 34.05529,0 0,3.39605 -43.21518,0 z m -60.10077,-16.07377 19.67956,0 c 4.17404,0 7.45509,-0.17589 9.80932,-0.5412 2.361,-0.35854 4.15375,-0.94035 5.37823,-1.72509 1.22447,-0.79151 1.83332,-1.65068 1.83332,-2.58425 0,-1.35978 -1.17711,-2.47601 -3.55841,-3.35546 -2.36777,-0.8727 -6.12237,-1.31243 -11.25705,-1.31243 l -21.88497,0 0,9.51843 z m -9.14634,16.07377 0,-28.77179 30.66599,0 c 6.16296,0 10.85115,0.26385 14.05102,0.778 3.20664,0.51414 5.76384,1.42742 7.69864,2.73308 1.91451,1.31242 2.86839,2.76015 2.86839,4.3364 0,2.04304 -1.57627,3.76136 -4.76938,5.16174 -3.17281,1.40036 -8.08424,2.29334 -14.714,2.67219 2.42866,0.48032 4.262,0.96064 5.5203,1.43419 2.67219,1.01476 5.20231,2.30011 7.60391,3.82225 l 12.02828,7.83394 -11.51413,0 -9.14635,-5.98706 c -2.6722,-1.7251 -4.87761,-3.05104 -6.623,-3.96434 -1.71832,-0.91328 -3.26752,-1.55595 -4.63406,-1.92126 -1.36655,-0.36533 -2.75337,-0.62239 -4.16727,-0.77123 -1.04858,-0.0879 -2.73985,-0.12854 -5.10763,-0.12854 l -10.61437,0 0,12.77243 -9.14634,0 z m -25.42309,-28.77179 9.14635,0 0,28.77179 -9.14635,0 0,-28.77179 z m -53.65367,16.95324 23.46122,0 -7.23185,-7.96246 c -2.19187,-2.42189 -3.82902,-4.41083 -4.89114,-5.96679 -0.88622,1.84685 -2.12422,3.67341 -3.73431,5.49323 l -7.60392,8.43602 z m -103.22124,-39.63646 -7.64451,13.28657 15.4108,0 -7.76629,-13.28657 z m -15.85729,11.78472 c -5.69618,0.41944 -13.428635,2.9428 -21.276096,7.26568 -13.706008,7.5498 -22.574997,17.73797 -19.814852,22.74411 2.760144,5.01291 16.114367,2.95634 29.813603,-4.59346 9.092225,-5.00615 16.060235,-11.18264 18.915095,-16.22938 l -12.92126,0 5.28351,-9.18695 z m -22.554693,-1.008 c 9.748442,-4.84377 19.442763,-6.9883 26.769333,-6.32532 l -3.19988,5.56765 3.62607,-6.3118 c -4.01167,-6.32534 -6.68387,-15.99936 -6.98154,-26.95875 -12.028265,6.4065 -20.213983,19.0707 -20.213983,33.64262 l 0,0.3856 z m 58.903343,31.52516 c -10.27612,-6.27119 -17.70416,-14.24043 -20.49812,-21.33021 l -0.35178,0 c -2.8075,7.11684 -10.29641,15.12667 -20.64019,21.4114 5.95325,3.86285 13.05656,6.10885 20.68077,6.10885 7.67834,0 14.82901,-2.27982 20.80932,-6.19004 m -2.53689,-65.34367 c -0.32473,10.76321 -2.93604,20.27489 -6.85977,26.55963 l -4.37023,-7.47539 c 2.25954,-5.19556 3.70048,-12.98893 3.70048,-21.69555 0,-15.64758 -4.64082,-28.33205 -10.36406,-28.33205 -5.71647,0 -10.3573,12.68447 -10.3573,28.33205 0,8.59162 1.40036,16.29026 3.61254,21.48582 l -2.64514,4.59348 9.2343,-16.04671 21.39788,36.59218 -13.44894,0 c 2.84809,5.04674 9.8161,11.22323 18.90834,16.22938 13.70601,7.5498 27.05346,9.60637 29.81361,4.60023 2.76014,-5.01291 -6.10885,-15.20108 -19.81485,-22.75088 -7.63098,-4.2011 -15.1605,-6.70418 -20.80932,-7.22509 l -4.32964,-7.40096 c 7.21831,-0.5615 16.64881,1.54919 26.15371,6.22385 l 0.006,-0.25708 c 0,-14.41633 -8.0166,-26.95875 -19.82839,-33.43291 m -18.07628,-39.04114 c 8.86222,0 16.2429,12.92127 17.80563,29.98273 16.62174,6.94772 28.305,23.35975 28.305,42.49132 0,1.61685 -0.0879,3.22017 -0.25031,4.79643 14.76812,9.66727 22.95384,22.74412 18.58362,30.67276 -4.36347,7.92866 -19.79456,7.98953 -35.86157,0.66975 -7.84071,6.19678 -17.74475,9.90403 -28.51472,9.90403 -10.81056,0 -20.74842,-3.73431 -28.609424,-9.97846 -16.121126,7.39421 -31.646937,7.35363 -36.030694,-0.60209 -4.390516,-7.96923 3.910207,-21.14079 18.833923,-30.82836 -0.148834,-1.52213 -0.23001,-3.07133 -0.23001,-4.63406 0,-19.07746 11.615604,-35.4489 28.162935,-42.43044 1.55595,-17.0953 8.93663,-30.04361 17.80562,-30.04361 m 83.39286,113.53794 26.56639,-28.77179 9.85668,0 28.31176,28.77179 -10.43849,0 -8.06394,-8.71338 -28.92062,0 -7.58363,8.71338 -9.72815,0 z m 435.48023,-95.17758 0,13.78043 -2.96986,0 c -1.79952,-3.17958 -3.80873,-5.40529 -5.93295,-6.78536 -2.22572,-1.48154 -5.19557,-2.54367 -9.01107,-3.38929 -2.11746,-0.4262 -5.83148,-0.63593 -11.12852,-0.63593 l -8.48338,0 0.20972,16.42558 0.10825,0 0,11.45324 0,11.44647 c 0,2.54366 0.31795,4.24169 0.95386,4.8776 0.63592,0.63592 1.90776,1.16359 3.8155,1.69803 1.80627,0.52769 4.34994,0.73739 7.63099,0.73739 l 3.82225,0 0,1.38007 -59.57985,0 0,-1.38007 3.81548,0 c 3.28782,0 5.93973,-0.2097 7.95572,-0.73739 1.48155,-0.42619 2.54366,-0.96064 3.38928,-1.90774 0.63593,-0.53444 0.95388,-2.12422 0.95388,-4.66789 l 0,-9.32901 -0.31795,-29.99627 -8.26691,0 c -7.63098,0 -13.1445,0.7374 -16.6488,2.11747 -4.87084,2.11746 -7.94894,4.97909 -9.22078,8.6931 l -3.17957,0 0,-13.78042 102.08471,0 z m -192.50645,35.72627 31.05837,-36.36218 1.38007,0 20.13958,23.53563 0.10825,0 9.74845,11.55471 5.19558,6.14267 c 3.28781,3.92374 6.04119,6.36593 8.16541,7.31303 1.69126,0.85241 3.92374,1.2786 6.88684,1.38007 l 0,1.38008 -46.74655,0 0,-1.38008 1.90775,0 c 3.70725,0 6.35915,-0.31796 7.84746,-0.84562 1.05535,-0.31796 1.58303,-0.95388 1.58303,-1.69803 0,-0.42621 -0.1015,-0.84563 -0.41944,-1.38007 -0.10825,-0.20973 -0.74415,-1.16359 -2.12423,-2.75339 l -5.08731,-6.25091 -32.64817,0 -1.48155,0 -4.14022,4.87761 c -1.27182,1.58303 -2.00921,2.9631 -2.00921,4.02521 0,1.48155 1.16358,2.43542 3.28781,3.17958 1.27183,0.31796 4.4514,0.63591 9.53873,0.84562 l 0,1.38008 -32.22873,0 0,-1.38008 c 3.49753,-0.31796 6.35915,-1.05535 8.59162,-2.2257 2.21893,-1.27183 4.97908,-3.8155 8.26013,-7.63098 l 3.18635,-3.70725 z m -29.36711,-35.72627 0,17.06824 -3.17958,0 c -2.33395,-4.4514 -6.67711,-7.84746 -13.03626,-10.28287 -6.25769,-2.33397 -13.46246,-3.49754 -21.51965,-3.49754 -6.78535,0 -12.93479,0.84562 -18.55655,2.64513 -5.615,1.80627 -9.64021,4.03198 -12.2921,6.89358 -2.4422,2.65191 -3.92374,5.51354 -4.55965,8.58486 l 0.2097,0 c -0.2097,1.1636 -0.31795,2.33395 -0.31795,3.60579 0,4.34315 1.17036,8.37514 3.60577,11.97415 2.43543,3.60576 6.25769,6.36592 11.44648,8.16541 5.19556,1.90776 11.98091,2.75338 20.14634,2.75338 6.78535,0 13.03626,-0.63591 18.65802,-2.00921 5.615,-1.38008 11.55473,-3.60578 17.80563,-6.99508 l 0,4.23493 c -6.04119,2.86162 -12.29887,4.98585 -18.86774,6.25768 -6.46739,1.27183 -14.09836,1.90774 -22.89971,1.90774 -11.44648,0 -21.62113,-0.95387 -30.63218,-3.07134 -7.84746,-1.91451 -14.20662,-4.4514 -18.8745,-7.84746 l -0.31797,0.10825 c -0.63592,-0.42619 -1.16358,-0.85239 -1.69125,-1.27182 -4.87762,-4.03198 -7.3198,-8.16543 -7.3198,-12.61684 0,-4.66113 2.76015,-9.1193 8.05718,-13.36099 5.40528,-4.13345 12.61683,-7.4145 21.73613,-9.74844 9.22076,-2.33395 18.86775,-3.49753 29.15062,-3.49753 7.52275,0 15.57993,0.73738 23.95507,2.22571 4.87761,0.84561 7.94893,1.38006 9.32901,1.38006 1.69804,0 3.17957,-0.31795 4.34994,-0.8524 1.27182,-0.63591 2.11746,-1.48155 2.43542,-2.75337 l 3.17958,0 z m -120.74274,0 1.1636,16.42557 -4.34318,0 c -2.01598,-4.12669 -7.1033,-7.41452 -15.16048,-9.95817 -8.05718,-2.44218 -16.75028,-3.71402 -26.0793,-3.71402 -7.20478,0 -12.92802,0.63592 -17.16972,1.90775 -4.24168,1.38007 -6.25767,2.86163 -6.25767,4.55965 0,1.06211 0.74416,2.12422 2.22571,2.96985 2.01598,1.05535 5.3038,2.22571 9.86344,3.28782 3.28782,0.84564 11.02705,2.21894 23.0012,4.23493 4.45141,0.74416 8.37515,1.48831 12.08239,2.23246 l 0.4262,0 c 10.2829,2.00923 17.59591,3.91698 21.94585,5.82473 5.83147,2.44219 8.69308,5.3038 8.69308,8.59161 0,4.02521 -4.66787,7.63099 -13.99688,10.60085 -2.9631,0.84563 -6.14945,1.69126 -9.64698,2.32718 -7.52275,1.38007 -16.21585,2.01598 -26.18077,2.01598 -4.45142,0 -8.80134,-0.10825 -12.82655,-0.4262 -4.03198,-0.31795 -9.11929,-0.95386 -15.16049,-1.7995 -3.49753,-0.4262 -6.2509,-0.63591 -8.37514,-0.63591 -1.90775,0 -3.81549,0.20971 -5.93295,0.63591 -2.016,0.52767 -3.71402,1.27183 -4.98585,2.2257 l -3.92374,0 0,-6.8936 -0.31796,0.10825 0,-11.66296 0.31796,0 0,-0.1015 3.92374,0 c 3.17958,5.19556 9.1193,9.22077 18.02211,11.98092 8.90282,2.75338 18.44154,4.13345 28.72443,4.13345 7.95571,0 14.31486,-0.74415 18.98275,-2.23247 4.66112,-1.48155 7.09655,-3.17957 7.09655,-5.1888 0,-0.74415 -0.41944,-1.48831 -1.27184,-2.2257 l -0.31796,-0.10825 c -0.41943,-0.31796 -0.84563,-0.63591 -1.48154,-0.95387 -1.80627,-1.06212 -4.55965,-2.12423 -8.2669,-3.07133 -3.60579,-1.06212 -10.18141,-2.33396 -19.50366,-3.82226 -13.04303,-2.22572 -22.48029,-4.13345 -28.20351,-5.615 -5.83149,-1.58979 -10.17465,-3.28783 -13.24599,-5.19557 -3.0781,-1.90775 -4.66789,-4.03197 -4.66789,-6.35915 0,-3.92373 4.24169,-7.21155 12.61684,-9.96493 8.47661,-2.75338 19.07745,-4.13345 31.904,-4.13345 4.66789,0 9.22754,0.20972 13.5707,0.63591 3.39606,0.20972 7.42127,0.74416 12.19064,1.5898 4.76936,0.74415 8.16541,1.16359 10.07316,1.16359 1.79951,0 3.28781,-0.20973 4.34317,-0.63593 1.06212,-0.31795 2.01599,-1.27182 2.96985,-2.75337 l 3.17958,0 z"
       id="path3047"
       style="fill:#00569f;fill-opacity:1;fill-rule:evenodd;stroke:none" />
  </g>
</svg>
