<svg xmlns="http://www.w3.org/2000/svg" width="594.618" height="128.517"><path d="M431.35 53.465l-11.764-13.78-13.354 17.277h28.088l-2.97-3.497zM639.86 1045.5l8.632-.312c.406 1.44 1.353 2.618 2.848 3.544 1.502.92 3.823 1.665 6.962 2.233 3.138.568 6.677.852 10.607.852 3.498 0 6.57-.216 9.248-.642 2.672-.433 4.668-1.022 5.967-1.78 1.305-.75 1.968-1.57 1.968-2.462 0-.9-.63-1.685-1.9-2.36-1.26-.678-3.336-1.24-6.218-1.7-1.867-.297-5.953-.77-12.32-1.406-6.338-.636-10.803-1.23-13.346-1.793-3.302-.718-5.764-1.618-7.388-2.68-1.61-1.07-2.415-2.26-2.415-3.585 0-1.448.98-2.808 2.963-4.066 1.976-1.266 4.878-2.227 8.68-2.883 3.815-.65 8.03-.974 12.684-.974 5.135 0 9.647.338 13.578 1.028 3.91.684 6.92 1.7 9.03 3.032 2.09 1.333 3.235 2.848 3.397 4.532l-8.774.278c-.48-1.82-2.076-3.2-4.796-4.12-2.726-.934-6.73-1.394-12.048-1.394-5.54 0-9.56.42-12.11 1.265-2.523.846-3.795 1.86-3.795 3.045 0 1.04.9 1.894 2.687 2.557 1.772.67 6.36 1.353 13.8 2.05 7.442.703 12.543 1.312 15.317 1.833 4.025.778 7.002 1.752 8.916 2.936 1.92 1.184 2.868 2.55 2.868 4.093 0 1.53-1.048 2.97-3.152 4.323-2.11 1.353-5.142 2.408-9.086 3.166-3.944.744-8.388 1.123-13.32 1.123-6.258 0-11.507-.38-15.73-1.138-4.234-.758-7.548-1.9-9.964-3.423-2.4-1.523-3.673-3.255-3.788-5.176m-61.143 9.248V557.87h50v3.396h-40.853v8.808h38.263v3.376h-38.263v9.796h42.464v3.396h-51.61zm-70.06 0V557.87h9.39l36.33 22.588V557.87h8.774v28.772h-9.39l-36.33-22.61v22.61h-8.774zM430.78 557.87h9.147v28.772h-9.147V557.87zm-55.676 28.772V557.87h9.16v25.376h34.055v3.396h-43.216zm-60.1-16.074h19.68c4.173 0 7.454-.176 9.808-.54 2.36-.36 4.154-.942 5.378-1.726 1.225-.792 1.833-1.65 1.833-2.585 0-1.36-1.177-2.476-3.558-3.355-2.368-.873-6.122-1.313-11.257-1.313h-21.885v9.518zm-9.147 16.074V557.87h30.666c6.163 0 10.85.264 14.05.778 3.207.514 5.764 1.427 7.7 2.733 1.914 1.313 2.868 2.76 2.868 4.337 0 2.043-1.576 3.762-4.77 5.162-3.172 1.4-8.083 2.292-14.713 2.67 2.43.482 4.262.962 5.52 1.435 2.673 1.015 5.203 2.3 7.605 3.823l12.028 7.834h-11.514l-9.147-5.987c-2.673-1.726-4.878-3.05-6.624-3.965-1.718-.913-3.267-1.556-4.634-1.92-1.366-.366-2.753-.623-4.167-.772-1.05-.088-2.74-.13-5.108-.13h-10.614v12.774h-9.146zm-25.423-28.772h9.146v28.772h-9.146V557.87zm-53.654 16.953h23.46l-7.23-7.962c-2.193-2.42-3.83-4.41-4.892-5.966-.886 1.847-2.124 3.673-3.734 5.493l-7.604 8.436zm-103.22-39.636l-7.646 13.286h15.41l-7.765-13.286zM107.7 546.97c-5.695.42-13.427 2.944-21.275 7.267-13.706 7.55-22.575 17.738-19.815 22.744 2.76 5.014 16.115 2.957 29.814-4.592 9.092-5.006 16.06-11.183 18.915-16.23h-12.922l5.283-9.187zm-22.553-1.007c9.748-4.843 19.442-6.988 26.77-6.325l-3.2 5.568 3.625-6.312c-4.01-6.325-6.684-16-6.98-26.96-12.03 6.408-20.215 19.072-20.215 33.644v.385zm58.903 31.525c-10.276-6.27-17.704-14.24-20.498-21.33h-.352c-2.807 7.117-10.296 15.127-20.64 21.412 5.953 3.863 13.056 6.11 20.68 6.11 7.68 0 14.83-2.28 20.81-6.192m-2.537-65.343c-.325 10.763-2.936 20.275-6.86 26.56l-4.37-7.476c2.26-5.197 3.7-12.99 3.7-21.696 0-15.648-4.64-28.333-10.363-28.333-5.717 0-10.358 12.686-10.358 28.334 0 8.59 1.4 16.29 3.613 21.485l-2.645 4.593 9.234-16.047 21.398 36.592h-13.45c2.85 5.047 9.817 11.224 18.91 16.23 13.705 7.55 27.053 9.606 29.813 4.6 2.76-5.013-6.11-15.2-19.815-22.75-7.63-4.202-15.16-6.705-20.81-7.226l-4.33-7.4c7.22-.563 16.65 1.548 26.155 6.223l.006-.257c0-14.417-8.016-26.96-19.828-33.433m-18.076-39.04c8.862 0 16.243 12.92 17.806 29.98 16.62 6.95 28.305 23.36 28.305 42.493 0 1.617-.088 3.22-.25 4.796 14.767 9.667 22.953 22.744 18.583 30.673-4.363 7.93-19.795 7.99-35.862.67-7.84 6.196-17.744 9.904-28.514 9.904-10.81 0-20.75-3.734-28.61-9.978-16.12 7.394-31.647 7.354-36.03-.602-4.39-7.97 3.91-21.14 18.833-30.828-.148-1.522-.23-3.072-.23-4.634 0-19.078 11.616-35.45 28.163-42.43 1.556-17.096 8.937-30.044 17.806-30.044m83.393 113.538l26.565-28.772h9.857l28.312 28.772h-10.44l-8.063-8.714h-28.92l-7.583 8.714h-9.728zm435.48-95.178v13.78h-2.97c-1.8-3.18-3.81-5.405-5.934-6.785-2.225-1.482-5.195-2.545-9.01-3.39-2.118-.426-5.832-.636-11.13-.636h-8.483l.21 16.425h.108v22.899c0 2.543.32 4.24.955 4.877.636.636 1.908 1.163 3.816 1.698 1.807.527 4.35.737 7.632.737h3.822v1.38h-59.58v-1.38h3.816c3.287 0 5.94-.21 7.955-.737 1.482-.426 2.544-.96 3.39-1.908.635-.534.953-2.124.953-4.668v-9.33l-.318-29.996h-8.266c-7.63 0-13.145.737-16.65 2.117-4.87 2.12-7.948 4.98-9.22 8.694h-3.18v-13.78H642.31zM449.802 527.19l31.058-36.362h1.38l20.14 23.536h.11l9.747 11.554 5.196 6.143c3.288 3.925 6.04 6.367 8.165 7.314 1.692.853 3.924 1.28 6.887 1.38v1.38H485.74v-1.38h1.906c3.708 0 6.36-.318 7.848-.845 1.055-.32 1.583-.955 1.583-1.7 0-.426-.102-.845-.42-1.38-.108-.21-.744-1.163-2.124-2.753l-5.087-6.25h-34.13l-4.14 4.877c-1.272 1.583-2.01 2.963-2.01 4.025 0 1.48 1.164 2.434 3.29 3.18 1.27.317 4.45.635 9.537.844v1.38h-32.228v-1.38c3.497-.318 6.36-1.055 8.59-2.225 2.22-1.273 4.98-3.817 8.26-7.632l3.188-3.708zm-29.367-35.726v17.068h-3.18c-2.334-4.45-6.677-7.847-13.036-10.283-6.258-2.335-13.463-3.498-21.52-3.498-6.785 0-12.935.845-18.556 2.645-5.615 1.806-9.64 4.032-12.293 6.894-2.44 2.652-3.922 5.514-4.558 8.585h.21c-.21 1.164-.318 2.334-.318 3.606 0 4.344 1.17 8.376 3.605 11.975 2.435 3.606 6.257 6.366 11.446 8.166 5.195 1.91 11.98 2.754 20.146 2.754 6.785 0 13.036-.636 18.658-2.01 5.615-1.38 11.555-3.605 17.806-6.994v4.235c-6.04 2.86-12.3 4.986-18.868 6.257-6.467 1.272-14.098 1.908-22.9 1.908-11.446 0-21.62-.954-30.632-3.07-7.847-1.916-14.206-4.453-18.874-7.85l-.318.11c-.636-.427-1.164-.853-1.692-1.272-4.877-4.032-7.32-8.166-7.32-12.617 0-4.66 2.76-9.118 8.058-13.36 5.405-4.133 12.617-7.414 21.736-9.748 9.22-2.334 18.868-3.498 29.15-3.498 7.523 0 15.58.737 23.956 2.226 4.877.845 7.95 1.38 9.33 1.38 1.697 0 3.178-.318 4.35-.853 1.27-.635 2.116-1.48 2.434-2.753h3.18zm-120.743 0l1.163 16.426h-4.343c-2.016-4.127-7.103-7.415-15.16-9.96-8.057-2.44-16.75-3.713-26.08-3.713-7.204 0-12.928.636-17.17 1.908-4.24 1.38-6.257 2.862-6.257 4.56 0 1.062.744 2.124 2.226 2.97 2.016 1.055 5.304 2.225 9.863 3.287 3.288.846 11.027 2.22 23 4.235 4.453.745 8.377 1.49 12.084 2.233h.425c10.283 2.01 17.596 3.917 21.946 5.825 5.832 2.442 8.694 5.303 8.694 8.59 0 4.026-4.668 7.632-13.997 10.602-2.963.846-6.15 1.69-9.647 2.327-7.523 1.38-16.216 2.016-26.18 2.016-4.452 0-8.802-.108-12.827-.426-4.032-.318-9.12-.954-15.16-1.8-3.498-.426-6.252-.635-8.376-.635-1.908 0-3.815.208-5.933.635-2.016.527-3.714 1.27-4.986 2.225h-3.923v-6.893l-.318.108v-11.663h.318v-.102h3.923c3.18 5.196 9.12 9.22 18.022 11.98 8.903 2.755 18.442 4.135 28.725 4.135 7.956 0 14.315-.744 18.983-2.233 4.66-1.48 7.096-3.18 7.096-5.188 0-.745-.42-1.49-1.272-2.226l-.318-.108c-.42-.318-.845-.636-1.48-.954-1.807-1.062-4.56-2.125-8.268-3.072-3.606-1.062-10.18-2.334-19.504-3.822-13.043-2.226-22.48-4.133-28.203-5.615-5.833-1.59-10.176-3.288-13.247-5.195-3.078-1.908-4.668-4.032-4.668-6.36 0-3.923 4.242-7.21 12.617-9.965 8.476-2.753 19.077-4.133 31.904-4.133 4.668 0 9.227.21 13.57.636 3.396.21 7.422.744 12.19 1.59 4.77.744 8.166 1.163 10.074 1.163 1.8 0 3.288-.21 4.343-.636 1.063-.318 2.016-1.27 2.97-2.753h3.18z" fill="#00569f" fill-rule="evenodd"/></svg>