<?xml version="1.0" encoding="UTF-8" standalone="no"?>
<!DOCTYPE svg PUBLIC "-//W3C//DTD SVG 1.0//EN" "http://www.w3.org/TR/2001/REC-SVG-20010904/DTD/svg10.dtd">
<!-- Created with Inkscape (http://www.inkscape.org/) -->

<svg
   xmlns:svg="http://www.w3.org/2000/svg"
   xmlns="http://www.w3.org/2000/svg"
   version="1.1"
   width="500"
   height="180"
   id="svg2">
  <defs
     id="defs4" />
  <g
     transform="translate(0,-872.36218)"
     id="layer1">
    <g
       transform="matrix(2.0592248,0,0,1.9973759,-74.221324,-706.61146)"
       id="text3650"
       style="font-size:70.87611389px;font-style:normal;font-variant:normal;font-weight:900;font-stretch:normal;text-align:start;line-height:100%;writing-mode:lr-tb;text-anchor:start;fill:#f40000;fill-opacity:1;stroke:none;font-family:Arial Black;-inkscape-font-specification:Arial Black Heavy">
      <path
         d="m 41.297314,838.85002 16.395688,0 c 0.322985,2.42253 0.632323,2.97487 1.624422,4.2438 1.614995,2.05339 2.877548,2.63135 5.876886,2.63134 2.237921,1e-5 4.136628,-0.43512 5.34792,-1.48489 1.211229,-1.04975 1.207503,-1.7283 1.207536,-3.11261 -3.3e-5,-1.31507 -0.228621,-2.31223 -1.382171,-3.35047 -1.153613,-1.03821 -3.829922,-2.01875 -8.028935,-2.94164 -6.875368,-1.54578 -11.778089,-3.59915 -14.708177,-6.16013 -2.953178,-2.56093 -4.429762,-5.82556 -4.429758,-9.79392 -4e-6,-2.60705 0.755592,-5.06995 2.26679,-7.38869 1.511185,-2.31866 3.783741,-4.14132 6.817673,-5.46799 3.033906,-1.32656 7.192567,-1.98987 12.475996,-1.98993 6.483102,6e-5 11.426198,1.20555 14.829304,3.61649 3.403024,2.41103 5.42756,7.11188 6.073612,12.37217 l -14.777393,0 c -0.392249,-2.28406 -1.21706,-2.59901 -2.474434,-3.63728 -1.257434,-1.03818 -2.993574,-1.55729 -5.208426,-1.55733 -1.822683,4e-5 -2.499038,0.11725 -3.421882,0.89011 -1.071197,1.38546 -1.449041,3.19381 -0.503406,4.19306 0.738272,0.66911 2.056462,1.0228 4.825083,1.59956 6.852248,1.47662 11.760737,2.97051 14.725481,4.48167 2.964665,1.51122 5.121862,3.38579 6.471599,5.62371 1.349644,2.23798 2.024489,4.74125 2.024537,7.50983 -4.8e-5,3.25311 -0.899842,6.25242 -2.699383,8.99794 -1.799633,2.74553 -4.31444,4.82775 -7.54443,6.24665 -3.230066,1.41891 -7.302209,2.12836 -12.21644,2.12836 -8.628815,0 -14.604367,-1.66116 -17.926673,-4.98348 -3.322323,-3.32231 -5.20266,-7.54441 -5.641019,-12.66633 z"
         id="path3655"
         style="fill:#f40000;fill-opacity:1" />
      <path
         d="m 127.04174,855.63464 -13.15084,0 0,-5.95248 c -1.96112,2.4456 -3.93951,4.1875 -5.93519,5.22573 -1.99572,1.03822 -4.44708,1.55733 -7.35409,1.55733 -3.876046,0 -6.915733,-1.15935 -9.119066,-3.47805 -2.203348,-2.31869 -3.305018,-5.88903 -3.305014,-10.71101 l 0,-23.39466 14.15446,0 0,20.21077 c -2e-5,2.30718 0.4268,3.94526 1.28047,4.91426 0.85364,0.96902 2.05336,1.45353 3.59918,1.45352 1.68421,10e-6 3.06274,-0.646 4.1356,-1.93802 1.0728,-1.292 1.60921,-3.6107 1.60924,-6.95611 l 0,-17.68442 14.08525,0 z"
         id="path3657"
         style="fill:#f40000;fill-opacity:1" />
      <path
         d="m 130.1435,804.90008 14.11985,0 0,50.73456 -14.11985,0 z"
         id="path3659"
         style="fill:#f40000;fill-opacity:1" />
      <path
         d="m 147.89973,869.61606 0,-50.73456 13.18545,0 0,5.43338 c 1.82264,-2.28406 3.49533,-3.82986 5.01808,-4.63741 2.05336,-1.08433 4.32591,-1.62651 6.81768,-1.62655 4.91422,4e-5 8.71527,1.88038 11.40316,5.64102 2.6878,3.76071 4.03173,8.40964 4.03177,13.94682 -4e-5,6.11399 -1.46509,10.78023 -4.39515,13.99872 -2.93014,3.2185 -6.63313,4.82774 -11.109,4.82774 -2.16876,0 -4.14715,-0.36914 -5.93518,-1.10744 -1.78808,-0.73829 -3.38579,-1.83419 -4.79314,-3.28771 l 0,17.54599 z m 14.11985,-32.25416 c -2e-5,2.90704 0.61138,5.06424 1.8342,6.47159 1.22277,1.40738 2.76857,2.11107 4.6374,2.11106 1.63806,10e-6 3.01082,-0.67484 4.11829,-2.02454 1.10741,-1.34968 1.66113,-3.63954 1.66116,-6.86958 -3e-5,-2.97622 -0.57682,-5.16226 -1.73038,-6.55812 -1.15361,-1.39581 -2.56098,-2.09372 -4.22211,-2.09375 -1.79961,3e-5 -3.29927,0.70371 -4.49897,2.11105 -1.19975,1.4074 -1.79961,3.69149 -1.79959,6.85229 z"
         id="path3661"
         style="fill:#f40000;fill-opacity:1" />
      <path
         d="m 203.47048,829.53002 -14.41987,-0.16245 c 0.50758,-2.35328 1.2401,-4.20478 2.19758,-5.5545 0.95746,-1.34966 2.33599,-2.52055 4.13559,-3.51266 1.292,-0.71519 3.06852,-1.26891 5.32955,-1.66116 2.26101,-0.39218 4.7066,-0.58829 7.33679,-0.58833 4.22208,4e-5 7.61361,0.23652 10.1746,0.70946 2.56091,0.473 4.69504,1.45931 6.40238,2.95894 1.19969,1.03825 2.14562,2.50907 2.83781,4.41245 0.69211,1.90344 1.03818,3.72033 1.03823,5.45068 l 0,16.2309 c -5e-5,1.73038 0.10954,3.08584 0.32877,4.06638 0.21914,0.98055 0.69787,2.23219 1.43621,3.75491 l -13.22006,0 c -0.53068,-0.94593 -0.87675,-1.66692 -1.03822,-2.16296 -0.16153,-0.49604 -0.32304,-1.27471 -0.48451,-2.33601 -1.84576,1.77652 -3.67995,3.04546 -5.50259,3.80682 -2.49176,1.01516 -5.38725,1.52273 -8.68647,1.52273 -4.38363,0 -7.71171,-1.01515 -9.98426,-3.04546 -2.27256,-2.0303 -3.40884,-4.53357 -3.40884,-7.50982 0,-2.79165 0.81904,-5.08728 2.45713,-6.88689 1.63809,-1.79957 4.66047,-3.13772 9.06716,-4.01446 5.28339,-1.06128 8.70953,-1.80534 10.27842,-2.23219 1.56885,-0.4268 3.23001,-0.98628 4.98348,-1.67846 -3e-5,-1.73035 -0.87995,-3.74933 -1.59514,-4.4415 -0.71525,-0.69212 -1.45034,-0.76896 -3.24991,-0.76899 -2.30718,3e-5 -3.16704,0.18969 -4.32061,0.92795 -0.89981,0.57682 -1.53952,1.12271 -2.09322,2.71462 z m 11.08478,9.38042 c -1.93804,0.69217 -3.43451,1.03433 -5.53401,1.56496 -2.8609,0.76138 -4.23677,1.51121 -4.99811,2.24949 -0.78445,0.76137 -1.35077,1.17783 -1.35076,2.14683 -1e-5,1.10745 0.38644,1.65402 1.15936,2.3577 0.77288,0.70369 1.38684,1.05553 2.88652,1.05552 1.56885,10e-6 2.59288,-0.20117 3.9426,-0.96254 1.34966,-0.76136 2.30714,-1.60025 2.87242,-2.69617 0.56522,-1.09589 0.9349,-1.80259 0.93493,-3.55605 l 0.0871,-2.15974 -5e-5,0 z"
         id="path3663"
         style="fill:#f40000;fill-opacity:1" />
      <path
         d="m 231.51657,804.90008 14.39671,0 0,26.16325 8.95375,-12.18183 17.33835,0 -13.18545,12.87398 13.94681,23.87916 -15.88483,0 -8.31112,-13.30684 -2.85751,3.75518 0,9.55166 -14.39671,0 0,-50.73456 z"
         id="path3665"
         style="fill:#f40000;fill-opacity:1" />
    </g>
  </g>
</svg>
