<svg xmlns="http://www.w3.org/2000/svg" width="717.52" height="717.52"><defs><clipPath id="a"><path d="M94.252 497.575h70.867v70.866H94.25v-70.865z"/></clipPath></defs><g clip-path="url(#a)"><path d="M10.46 358.67c0-192.386 155.943-348.34 348.33-348.34 192.377 0 348.32 155.954 348.32 348.34 0 192.388-155.943 348.31-348.32 348.31-192.387 0-348.33-155.922-348.33-348.31" fill="#fff" fill-rule="evenodd"/><path d="M10.46 358.67c0-192.386 155.943-348.34 348.33-348.34 192.377 0 348.32 155.954 348.32 348.34 0 192.388-155.943 348.31-348.32 348.31-192.387 0-348.33-155.922-348.33-348.31z" stroke="#fff" stroke-width="13.65525" stroke-miterlimit="2.613" fill="none"/><path d="M10.46 358.67c0-192.386 155.943-348.34 348.33-348.34 192.377 0 348.32 155.954 348.32 348.34 0 192.388-155.943 348.31-348.32 348.31-192.387 0-348.33-155.922-348.33-348.31" fill="#fff" fill-rule="evenodd"/><path d="M10.46 358.67c0-192.386 155.943-348.34 348.33-348.34 192.377 0 348.32 155.954 348.32 348.34 0 192.388-155.943 348.31-348.32 348.31-192.387 0-348.33-155.922-348.33-348.31z" stroke="#000" stroke-width="6.827625" stroke-miterlimit="2.613" fill="none"/><path d="M359.26 23.586c4.998 1.79 8.265 6.2 9.813 13.23 8.102-6.716 32.115-8.233 40.217 4.542 7.1 11.197 5.917 32.692-16.923 33.31-7.303.19-15-5.93-13.028-15.8 1.527-7.638 9.497-6.758 12.036 1.577 2.185 7.11 14.758 4.542 14.556-5.917-.122-6.464-8.01-13.3-16.124-13.17-12.633.192-21.92 8.88-21.717 20.27.194 11.582 6.263 17.226 14.01 21.717 6.717 3.895 14.485 5.523 22.648 3.106.82 6.778 3.116 12.442 5.725 14.212-23.628-3.945-42.078-4.37-51.212-4.34-8.97.03-27.583.395-51.22 4.34 2.608-1.77 4.915-7.434 5.724-14.21 8.173 2.416 15.94.788 22.647-3.107 7.76-4.49 13.818-10.135 14.02-21.716.203-11.39-9.083-20.08-21.716-20.272-8.123-.13-16.012 6.706-16.134 13.17-.192 10.46 12.38 13.028 14.556 5.917 2.55-8.335 10.52-9.215 12.047-1.578 1.972 9.872-5.735 15.992-13.04 15.8-22.838-.617-24.022-22.112-16.91-33.31 8.1-12.774 32.114-11.257 40.206-4.54 1.557-7.03 4.824-11.44 9.82-13.23" fill="#36ade8" fill-rule="evenodd"/><path d="M359.26 23.586c4.998 1.79 8.265 6.2 9.813 13.23 8.102-6.716 32.115-8.233 40.217 4.542 7.1 11.197 5.917 32.692-16.923 33.31-7.303.19-15-5.93-13.028-15.8 1.527-7.638 9.497-6.758 12.036 1.577 2.185 7.11 14.758 4.542 14.556-5.917-.122-6.464-8.01-13.3-16.124-13.17-12.633.192-21.92 8.88-21.717 20.27.194 11.582 6.263 17.226 14.01 21.717 6.717 3.895 14.485 5.523 22.648 3.106.82 6.778 3.116 12.442 5.725 14.212-23.628-3.945-42.078-4.37-51.212-4.34-8.97.03-27.583.395-51.22 4.34 2.608-1.77 4.915-7.434 5.724-14.21 8.173 2.416 15.94.788 22.647-3.107 7.76-4.49 13.818-10.135 14.02-21.716.203-11.39-9.083-20.08-21.716-20.272-8.123-.13-16.012 6.706-16.134 13.17-.192 10.46 12.38 13.028 14.556 5.917 2.55-8.335 10.52-9.215 12.047-1.578 1.972 9.872-5.735 15.992-13.04 15.8-22.838-.617-24.022-22.112-16.91-33.31 8.1-12.774 32.114-11.257 40.206-4.54 1.557-7.03 4.824-11.44 9.82-13.23z" stroke="#000" stroke-width="3.5503649999999998" stroke-miterlimit="2.613" fill="none"/><path d="M492.044 50.134c3.904 3.6 5.19 8.932 3.864 16.012 10.074-3.014 32.783 4.977 35.25 19.896 2.165 13.08-7.323 32.4-28.594 24.044-6.798-2.67-11.49-11.31-5.827-19.634 4.4-6.423 11.39-2.498 10.48 6.17-.78 7.384 11.794 9.944 15.698.223 2.417-5.988-2.175-15.365-9.69-18.42-11.713-4.753-23.66-.384-27.918 10.176-4.34 10.743-.97 18.31 4.42 25.47 4.654 6.212 11.168 10.743 19.634 11.704-1.9 6.565-1.992 12.674-.282 15.324-20.22-12.866-37.03-20.473-45.447-24.013-8.273-3.47-25.55-10.408-48.844-16.012 3.085-.617 7.424-4.926 10.823-10.843 6.573 5.41 14.352 6.95 22.06 5.988 8.89-1.103 16.68-3.935 21.383-14.515 4.632-10.408-.516-22.03-12.068-27.15-7.424-3.286-17.357-.07-19.987 5.817-4.278 9.56 6.302 16.842 11.076 11.147 5.604-6.676 13.28-4.38 11.703 3.247-2.043 9.862-11.52 12.482-18.166 9.447-20.786-9.497-13.483-29.747-2.558-37.272 12.45-8.578 33.956 2.195 38.79 11.54 4.168-5.876 8.912-8.647 14.202-8.344" fill="#36ade8" fill-rule="evenodd"/><path d="M492.044 50.134c3.904 3.6 5.19 8.932 3.864 16.012 10.074-3.014 32.783 4.977 35.25 19.896 2.165 13.08-7.323 32.4-28.594 24.044-6.798-2.67-11.49-11.31-5.827-19.634 4.4-6.423 11.39-2.498 10.48 6.17-.78 7.384 11.794 9.944 15.698.223 2.417-5.988-2.175-15.365-9.69-18.42-11.713-4.753-23.66-.384-27.918 10.176-4.34 10.743-.97 18.31 4.42 25.47 4.654 6.212 11.168 10.743 19.634 11.704-1.9 6.565-1.992 12.674-.282 15.324-20.22-12.866-37.03-20.473-45.447-24.013-8.273-3.47-25.55-10.408-48.844-16.012 3.085-.617 7.424-4.926 10.823-10.843 6.573 5.41 14.352 6.95 22.06 5.988 8.89-1.103 16.68-3.935 21.383-14.515 4.632-10.408-.516-22.03-12.068-27.15-7.424-3.286-17.357-.07-19.987 5.817-4.278 9.56 6.302 16.842 11.076 11.147 5.604-6.676 13.28-4.38 11.703 3.247-2.043 9.862-11.52 12.482-18.166 9.447-20.786-9.497-13.483-29.747-2.558-37.272 12.45-8.578 33.956 2.195 38.79 11.54 4.168-5.876 8.912-8.647 14.202-8.344z" stroke="#000" stroke-width="3.5503649999999998" stroke-miterlimit="2.613" fill="none"/><path d="M602.927 125.904c2.185 4.835 1.285 10.246-2.7 16.245 10.458 1.162 28.23 17.386 24.68 32.083-3.126 12.897-19.4 26.977-35.716 10.965-5.22-5.108-6.16-14.9 2.317-20.34 6.545-4.21 11.45 2.143 7.222 9.76-3.602 6.504 6.98 13.766 14.363 6.352 4.56-4.572 4.005-15-1.72-20.756-8.932-8.942-21.626-9.59-29.677-1.527-8.183 8.183-8.042 16.467-5.887 25.166 1.86 7.536 6.088 14.252 13.502 18.45-4.31 5.29-6.787 10.883-6.25 13.99-13.575-19.746-26.077-33.32-32.45-39.865-6.26-6.433-19.45-19.562-38.7-33.824 3.085.637 8.76-1.63 14.202-5.756 3.934 7.556 10.5 12.017 17.954 14.14 8.618 2.45 16.902 2.894 25.368-5.006 8.335-7.768 8.133-20.483-.506-29.707-5.553-5.928-15.95-6.848-20.675-2.458-7.667 7.13-.778 17.954 5.847 14.585 7.758-3.955 13.928 1.164 9.498 7.566-5.725 8.274-15.476 6.99-20.412 1.6-15.415-16.863-.78-32.643 12.21-35.313 14.807-3.034 30.404 15.294 31.203 25.773 6.13-3.763 11.573-4.47 16.327-2.124" fill="#36ade8" fill-rule="evenodd"/><path d="M602.927 125.904c2.185 4.835 1.285 10.246-2.7 16.245 10.458 1.162 28.23 17.386 24.68 32.083-3.126 12.897-19.4 26.977-35.716 10.965-5.22-5.108-6.16-14.9 2.317-20.34 6.545-4.21 11.45 2.143 7.222 9.76-3.602 6.504 6.98 13.766 14.363 6.352 4.56-4.572 4.005-15-1.72-20.756-8.932-8.942-21.626-9.59-29.677-1.527-8.183 8.183-8.042 16.467-5.887 25.166 1.86 7.536 6.088 14.252 13.502 18.45-4.31 5.29-6.787 10.883-6.25 13.99-13.575-19.746-26.077-33.32-32.45-39.865-6.26-6.433-19.45-19.562-38.7-33.824 3.085.637 8.76-1.63 14.202-5.756 3.934 7.556 10.5 12.017 17.954 14.14 8.618 2.45 16.902 2.894 25.368-5.006 8.335-7.768 8.133-20.483-.506-29.707-5.553-5.928-15.95-6.848-20.675-2.458-7.667 7.13-.778 17.954 5.847 14.585 7.758-3.955 13.928 1.164 9.498 7.566-5.725 8.274-15.476 6.99-20.412 1.6-15.415-16.863-.78-32.643 12.21-35.313 14.807-3.034 30.404 15.294 31.203 25.773 6.13-3.763 11.573-4.47 16.327-2.124z" stroke="#000" stroke-width="3.5503649999999998" stroke-miterlimit="2.613" fill="none"/><path d="M675.663 241.736c.03 5.3-2.994 9.892-9.073 13.746 9.083 5.31 18.723 27.36 9.488 39.348-8.092 10.51-28.686 16.75-37.082-4.512-2.68-6.797.435-16.123 10.388-17.65 7.698-1.174 9.59 6.615 2.63 11.865-5.937 4.47.79 15.405 10.55 11.642 6.02-2.316 9.75-12.077 6.848-19.664-4.5-11.803-15.83-17.548-26.48-13.472-10.804 4.157-14.04 11.784-15.61 20.604-1.354 7.637-.23 15.497 4.826 22.344-6.09 3.086-10.61 7.182-11.39 10.247-4.38-23.568-10.276-41.057-13.442-49.624-3.095-8.417-9.8-25.784-21.585-46.64 2.56 1.84 8.66 2.062 15.315.514.516 8.507 4.703 15.244 10.65 20.22 6.88 5.746 14.263 9.518 25.197 5.746 10.783-3.713 15.77-15.395 11.632-27.34-2.65-7.668-11.784-12.756-17.893-10.652-9.89 3.388-8.01 16.083-.586 15.698 8.7-.455 12.26 6.727 5.604 10.773-8.598 5.228-16.983.09-19.3-6.84-7.232-21.686 12.563-30.142 25.52-27.3 14.76 3.258 21.556 26.34 18.016 36.243 7.13-.95 12.4.617 15.78 4.703" fill="#36ade8" fill-rule="evenodd"/><path d="M675.663 241.736c.03 5.3-2.994 9.892-9.073 13.746 9.083 5.31 18.723 27.36 9.488 39.348-8.092 10.51-28.686 16.75-37.082-4.512-2.68-6.797.435-16.123 10.388-17.65 7.698-1.174 9.59 6.615 2.63 11.865-5.937 4.47.79 15.405 10.55 11.642 6.02-2.316 9.75-12.077 6.848-19.664-4.5-11.803-15.83-17.548-26.48-13.472-10.804 4.157-14.04 11.784-15.61 20.604-1.354 7.637-.23 15.497 4.826 22.344-6.09 3.086-10.61 7.182-11.39 10.247-4.38-23.568-10.276-41.057-13.442-49.624-3.095-8.417-9.8-25.784-21.585-46.64 2.56 1.84 8.66 2.062 15.315.514.516 8.507 4.703 15.244 10.65 20.22 6.88 5.746 14.263 9.518 25.197 5.746 10.783-3.713 15.77-15.395 11.632-27.34-2.65-7.668-11.784-12.756-17.893-10.652-9.89 3.388-8.01 16.083-.586 15.698 8.7-.455 12.26 6.727 5.604 10.773-8.598 5.228-16.983.09-19.3-6.84-7.232-21.686 12.563-30.142 25.52-27.3 14.76 3.258 21.556 26.34 18.016 36.243 7.13-.95 12.4.617 15.78 4.703z" stroke="#000" stroke-width="3.5503649999999998" stroke-miterlimit="2.613" fill="none"/><path d="M697.842 371.16c-1.962 4.925-6.484 8.04-13.564 9.345 6.433 8.325 7.1 32.378-5.938 40.035-11.44 6.717-32.873 4.775-32.702-18.075.06-7.303 6.444-14.788 16.245-12.472 7.576 1.8 6.413 9.73-2.003 11.976-7.17 1.93-5.047 14.585 5.412 14.757 6.453.1 13.564-7.546 13.726-15.658.243-12.645-8.112-22.213-19.502-22.416-11.58-.212-17.438 5.654-22.202 13.25-4.127 6.576-6.02 14.273-3.884 22.527-6.808.578-12.543 2.68-14.404 5.22 4.764-23.477 5.846-41.906 6.13-51.03.273-8.972.566-27.583-2.56-51.344 1.69 2.67 7.263 5.17 14 6.22-2.69 8.083-1.346 15.902 2.316 22.75 4.228 7.9 9.66 14.15 21.21 14.758 11.38.596 20.393-8.366 21.03-20.99.405-8.11-6.15-16.234-12.603-16.588-10.45-.556-13.454 11.926-6.424 14.343 8.234 2.832 8.83 10.822 1.153 12.087-9.934 1.628-15.77-6.282-15.325-13.575 1.416-22.81 22.93-23.244 33.865-15.75 12.482 8.55 10.135 32.5 3.135 40.35 6.98 1.8 11.27 5.22 12.887 10.277" fill="#36ade8" fill-rule="evenodd"/><path d="M697.842 371.16c-1.962 4.925-6.484 8.04-13.564 9.345 6.433 8.325 7.1 32.378-5.938 40.035-11.44 6.717-32.873 4.775-32.702-18.075.06-7.303 6.444-14.788 16.245-12.472 7.576 1.8 6.413 9.73-2.003 11.976-7.17 1.93-5.047 14.585 5.412 14.757 6.453.1 13.564-7.546 13.726-15.658.243-12.645-8.112-22.213-19.502-22.416-11.58-.212-17.438 5.654-22.202 13.25-4.127 6.576-6.02 14.273-3.884 22.527-6.808.578-12.543 2.68-14.404 5.22 4.764-23.477 5.846-41.906 6.13-51.03.273-8.972.566-27.583-2.56-51.344 1.69 2.67 7.263 5.17 14 6.22-2.69 8.083-1.346 15.902 2.316 22.75 4.228 7.9 9.66 14.15 21.21 14.758 11.38.596 20.393-8.366 21.03-20.99.405-8.11-6.15-16.234-12.603-16.588-10.45-.556-13.454 11.926-6.424 14.343 8.234 2.832 8.83 10.822 1.153 12.087-9.934 1.628-15.77-6.282-15.325-13.575 1.416-22.81 22.93-23.244 33.865-15.75 12.482 8.55 10.135 32.5 3.135 40.35 6.98 1.8 11.27 5.22 12.887 10.277z" stroke="#000" stroke-width="3.5503649999999998" stroke-miterlimit="2.613" fill="none"/><path d="M227.378 51.026c-3.904 3.6-5.19 8.932-3.864 16.012-10.074-3.014-32.773 4.977-35.25 19.896-2.165 13.08 7.323 32.41 28.584 24.044 6.808-2.67 11.5-11.31 5.827-19.623-4.39-6.434-11.38-2.51-10.47 6.16.78 7.383-11.794 9.932-15.708.232-2.407-5.998 2.185-15.375 9.71-18.43 11.703-4.753 23.64-.384 27.908 10.186 4.34 10.732.96 18.298-4.42 25.46-4.654 6.21-11.168 10.742-19.634 11.703 1.903 6.565 1.994 12.674.284 15.324 20.22-12.866 37.03-20.473 45.447-24.013 8.275-3.47 25.552-10.408 48.846-16.012-3.095-.617-7.424-4.926-10.823-10.843-6.574 5.422-14.363 6.95-22.06 5.988-8.892-1.103-16.68-3.935-21.384-14.505-4.633-10.418.515-22.04 12.067-27.16 7.424-3.286 17.357-.07 19.997 5.817 4.268 9.56-6.312 16.842-11.086 11.147-5.604-6.687-13.28-4.38-11.703 3.246 2.043 9.862 11.52 12.482 18.166 9.447 20.788-9.498 13.485-29.738 2.56-37.273-12.45-8.588-33.966 2.195-38.79 11.54-4.168-5.866-8.912-8.647-14.202-8.344" fill="#36ade8" fill-rule="evenodd"/><path d="M227.378 51.026c-3.904 3.6-5.19 8.932-3.864 16.012-10.074-3.014-32.773 4.977-35.25 19.896-2.165 13.08 7.323 32.41 28.584 24.044 6.808-2.67 11.5-11.31 5.827-19.623-4.39-6.434-11.38-2.51-10.47 6.16.78 7.383-11.794 9.932-15.708.232-2.407-5.998 2.185-15.375 9.71-18.43 11.703-4.753 23.64-.384 27.908 10.186 4.34 10.732.96 18.298-4.42 25.46-4.654 6.21-11.168 10.742-19.634 11.703 1.903 6.565 1.994 12.674.284 15.324 20.22-12.866 37.03-20.473 45.447-24.013 8.275-3.47 25.552-10.408 48.846-16.012-3.095-.617-7.424-4.926-10.823-10.843-6.574 5.422-14.363 6.95-22.06 5.988-8.892-1.103-16.68-3.935-21.384-14.505-4.633-10.418.515-22.04 12.067-27.16 7.424-3.286 17.357-.07 19.997 5.817 4.268 9.56-6.312 16.842-11.086 11.147-5.604-6.687-13.28-4.38-11.703 3.246 2.043 9.862 11.52 12.482 18.166 9.447 20.788-9.498 13.485-29.738 2.56-37.273-12.45-8.588-33.966 2.195-38.79 11.54-4.168-5.866-8.912-8.647-14.202-8.344z" stroke="#000" stroke-width="3.5503649999999998" stroke-miterlimit="2.613" fill="none"/><path d="M117.745 126.798c-2.185 4.835-1.285 10.246 2.7 16.245-10.458 1.163-28.23 17.387-24.68 32.084 3.126 12.897 19.4 26.977 35.716 10.965 5.22-5.118 6.16-14.9-2.305-20.34-6.555-4.21-11.46 2.133-7.232 9.76 3.6 6.494-6.98 13.766-14.374 6.352-4.552-4.572-3.996-15 1.74-20.756 8.92-8.942 21.605-9.59 29.666-1.537 8.194 8.194 8.042 16.478 5.887 25.177-1.86 7.536-6.09 14.242-13.503 18.44 4.31 5.3 6.787 10.893 6.25 14 13.575-19.746 26.087-33.32 32.45-39.865 6.26-6.433 19.45-19.562 38.7-33.824-3.085.637-8.75-1.63-14.202-5.756-3.934 7.556-10.5 12.007-17.954 14.14-8.618 2.45-16.892 2.894-25.358-5.006-8.335-7.768-8.143-20.483.496-29.707 5.553-5.93 15.95-6.86 20.685-2.46 7.657 7.132.768 17.955-5.857 14.586-7.758-3.965-13.928 1.164-9.498 7.566 5.735 8.274 15.476 6.99 20.412 1.6 15.426-16.863.79-32.643-12.21-35.313-14.807-3.045-30.404 15.293-31.193 25.772-6.14-3.763-11.58-4.48-16.335-2.124" fill="#36ade8" fill-rule="evenodd"/><path d="M117.745 126.798c-2.185 4.835-1.285 10.246 2.7 16.245-10.458 1.163-28.23 17.387-24.68 32.084 3.126 12.897 19.4 26.977 35.716 10.965 5.22-5.118 6.16-14.9-2.305-20.34-6.555-4.21-11.46 2.133-7.232 9.76 3.6 6.494-6.98 13.766-14.374 6.352-4.552-4.572-3.996-15 1.74-20.756 8.92-8.942 21.605-9.59 29.666-1.537 8.194 8.194 8.042 16.478 5.887 25.177-1.86 7.536-6.09 14.242-13.503 18.44 4.31 5.3 6.787 10.893 6.25 14 13.575-19.746 26.087-33.32 32.45-39.865 6.26-6.433 19.45-19.562 38.7-33.824-3.085.637-8.75-1.63-14.202-5.756-3.934 7.556-10.5 12.007-17.954 14.14-8.618 2.45-16.892 2.894-25.358-5.006-8.335-7.768-8.143-20.483.496-29.707 5.553-5.93 15.95-6.86 20.685-2.46 7.657 7.132.768 17.955-5.857 14.586-7.758-3.965-13.928 1.164-9.498 7.566 5.735 8.274 15.476 6.99 20.412 1.6 15.426-16.863.79-32.643-12.21-35.313-14.807-3.045-30.404 15.293-31.193 25.772-6.14-3.763-11.58-4.48-16.335-2.124z" stroke="#000" stroke-width="3.5503649999999998" stroke-miterlimit="2.613" fill="none"/><path d="M46.612 240.666c-.03 5.3 2.994 9.882 9.073 13.746-9.083 5.31-18.713 27.36-9.488 39.348 8.092 10.5 28.686 16.74 37.082-4.512 2.69-6.797-.436-16.123-10.39-17.65-7.687-1.174-9.588 6.615-2.63 11.865 5.938 4.47-.778 15.405-10.54 11.642-6.027-2.316-9.75-12.077-6.857-19.664 4.5-11.803 15.84-17.548 26.48-13.472 10.814 4.157 14.04 11.784 15.61 20.604 1.364 7.637.24 15.497-4.826 22.334 6.09 3.096 10.62 7.192 11.4 10.247 4.37-23.558 10.276-41.047 13.432-49.614 3.094-8.417 9.8-25.784 21.595-46.64-2.56 1.84-8.67 2.072-15.315.514-.515 8.507-4.713 15.244-10.66 20.22-6.88 5.746-14.253 9.518-25.197 5.746-10.773-3.713-15.77-15.406-11.632-27.34 2.66-7.68 11.785-12.756 17.894-10.662 9.903 3.398 8.01 16.092.587 15.708-8.698-.465-12.25 6.727-5.603 10.773 8.608 5.228 16.993.09 19.3-6.84 7.232-21.686-12.563-30.142-25.51-27.3-14.77 3.258-21.566 26.34-18.015 36.243-7.142-.95-12.4.617-15.79 4.703" fill="#36ade8" fill-rule="evenodd"/><path d="M46.612 240.666c-.03 5.3 2.994 9.882 9.073 13.746-9.083 5.31-18.713 27.36-9.488 39.348 8.092 10.5 28.686 16.74 37.082-4.512 2.69-6.797-.436-16.123-10.39-17.65-7.687-1.174-9.588 6.615-2.63 11.865 5.938 4.47-.778 15.405-10.54 11.642-6.027-2.316-9.75-12.077-6.857-19.664 4.5-11.803 15.84-17.548 26.48-13.472 10.814 4.157 14.04 11.784 15.61 20.604 1.364 7.637.24 15.497-4.826 22.334 6.09 3.096 10.62 7.192 11.4 10.247 4.37-23.558 10.276-41.047 13.432-49.614 3.094-8.417 9.8-25.784 21.595-46.64-2.56 1.84-8.67 2.072-15.315.514-.515 8.507-4.713 15.244-10.66 20.22-6.88 5.746-14.253 9.518-25.197 5.746-10.773-3.713-15.77-15.406-11.632-27.34 2.66-7.68 11.785-12.756 17.894-10.662 9.903 3.398 8.01 16.092.587 15.708-8.698-.465-12.25 6.727-5.603 10.773 8.608 5.228 16.993.09 19.3-6.84 7.232-21.686-12.563-30.142-25.51-27.3-14.77 3.258-21.566 26.34-18.015 36.243-7.142-.95-12.4.617-15.79 4.703z" stroke="#000" stroke-width="3.5503649999999998" stroke-miterlimit="2.613" fill="none"/><path d="M24.09 370.086c1.963 4.936 6.485 8.04 13.565 9.346-6.433 8.325-7.11 32.378 5.938 40.035 11.44 6.717 32.873 4.785 32.702-18.075-.06-7.303-6.454-14.788-16.245-12.472-7.576 1.8-6.423 9.73 1.992 11.986 7.182 1.922 5.058 14.576-5.4 14.748-6.464.1-13.575-7.546-13.727-15.658-.243-12.634 8.112-22.223 19.502-22.415 11.58-.2 17.428 5.656 22.192 13.252 4.126 6.575 6.028 14.272 3.893 22.526 6.798.577 12.533 2.68 14.404 5.22-4.774-23.478-5.846-41.907-6.13-51.03-.283-8.973-.566-27.574 2.56-51.334-1.69 2.66-7.263 5.168-14.01 6.21 2.7 8.082 1.346 15.9-2.306 22.74-4.227 7.91-9.65 14.17-21.22 14.767-11.38.597-20.382-8.365-21.02-20.988-.404-8.112 6.15-16.235 12.604-16.58 10.45-.565 13.453 11.917 6.423 14.334-8.244 2.833-8.84 10.834-1.153 12.088 9.923 1.628 15.78-6.282 15.324-13.575-1.416-22.81-22.94-23.235-33.875-15.75-12.482 8.548-10.125 32.5-3.136 40.35-6.97 1.8-11.268 5.218-12.876 10.276" fill="#36ade8" fill-rule="evenodd"/><path d="M24.09 370.086c1.963 4.936 6.485 8.04 13.565 9.346-6.433 8.325-7.11 32.378 5.938 40.035 11.44 6.717 32.873 4.785 32.702-18.075-.06-7.303-6.454-14.788-16.245-12.472-7.576 1.8-6.423 9.73 1.992 11.986 7.182 1.922 5.058 14.576-5.4 14.748-6.464.1-13.575-7.546-13.727-15.658-.243-12.634 8.112-22.223 19.502-22.415 11.58-.2 17.428 5.656 22.192 13.252 4.126 6.575 6.028 14.272 3.893 22.526 6.798.577 12.533 2.68 14.404 5.22-4.774-23.478-5.846-41.907-6.13-51.03-.283-8.973-.566-27.574 2.56-51.334-1.69 2.66-7.263 5.168-14.01 6.21 2.7 8.082 1.346 15.9-2.306 22.74-4.227 7.91-9.65 14.17-21.22 14.767-11.38.597-20.382-8.365-21.02-20.988-.404-8.112 6.15-16.235 12.604-16.58 10.45-.565 13.453 11.917 6.423 14.334-8.244 2.833-8.84 10.834-1.153 12.088 9.923 1.628 15.78-6.282 15.324-13.575-1.416-22.81-22.94-23.235-33.875-15.75-12.482 8.548-10.125 32.5-3.136 40.35-6.97 1.8-11.268 5.218-12.876 10.276z" stroke="#000" stroke-width="3.5503649999999998" stroke-miterlimit="2.613" fill="none"/><path d="M97.382 360.623c0-145.454 117.9-263.364 263.354-263.364 145.454 0 263.354 117.91 263.354 263.363 0 145.454-117.9 263.364-263.354 263.364-145.454 0-263.354-117.91-263.354-263.364" stroke="#000" stroke-width="6.08923" stroke-miterlimit="2.613" fill="none"/><path d="M184.813 425.265c7.505.93 11.005 7.96 11.005 15.365v7.212c0 3.156-3.54 5.664-6.686 5.664-4.622 0-6.726-3.53-11.35-3.53-3.984 0-8.03 2.802-8.03 6.787 0 2.863 5.4 4.845 4.54 6.433-1.293 1.78-1.99 1.356-3.003 1.356-4.815 0-5.362-7.172-10.166-7.172-2.782 0-3.146 2.428-3.146 5.21 0 4.44 4.865 3.742 6.625 7.727 1.346 3.075 3.39 8.568 4.046 11.29.647 2.67 2.943 5.036 5.704 6.867 5.39 3.56 8.527 5.826 8.274 10.054-.172 2.943-4.906 5.806-4.906 9.872 0 1.305 1.224 2.458 2.52 2.458 4.065 0 6.29-4.42 10.367-4.42 3.66 0 7.423.485 9.81 2.397 3.804 3.055 5.786 5.33 9.134 9.387 2.974 3.58 6.747 9.81 9.964 9.68 2.366.374 2.053-6.818 2.7-9.842 1.467-6.868.92-13.928 1.63-22.536-.092-5.735 1.04-7.607 1.658-14.11.404-4.27.97-10.925 1.163-15.02.15-3.248 1.152-4.482 4.54-4.482 2.307 0 2.408 1.406 4.724 1.406 4.623 0 4.137-5.887 8.77-5.887 4.137 0 6.07-.667 9.508.072 3.43 1.405 7.13 1.153 9.387 3.924 4.287 5.27 9.072 8.224 13.796 12.2 3.327 2.77 3.874 3.863 7.08 6.988 6.96 6.757 5.897 8.71 9.6 11.602 3.165 2.468 4.217 2.64 8.95 2.64 2.317 0 10.51-.313 12.827-.313 4.713 0 4.046 2.58 8.77 2.58 4.44 0 3.965-2.135 6.928-5.463 3.005-2.63 4.583 2.65 6.262 4.54 2.52 2.854 4.218 5.878 8.68 6.99 2.356.8 1.07 2.843 1.07 3.5 0 2.964-1.9 1.58-1.9 4.542 0 4.896-.314 5.766-.314 10.672.253 2.083 2.61 1.69 4.178 1.77 2.326.13 1.9-2.327 3.56-1.65 2.145 2.024.304 4.735.304 7.05 0 2.783 1.426 5.858 4.207 5.858 2.216 0 7.314-.273 8.983-.273 1.476 0 3.054-1.842 4.53-1.842 5.28 0 1.114 10.49 6.384 10.49 3.327 0-.97-7.658 2.326-7.365 6.747.617 5.806-7.252 9.326-9.376 3.196-1.973 3.62-2.873 6.07-4.663 2.74-2.003 6.887-3.166 8.84-6.878 1.385-2.772 3.55-4.522 4.47-7.475.84-2.69 2.65-5.472 5.513-5.472 3.155 0 5.077 1.356 8.233 1.356 2.68 0 4.734-.243 7.414-.243 3.702 0 2.56 2.52 6.25 2.52 2.135 0 2.64-2.104 2.64-4.24 0-3.417-4.227-3.246-2.82-5.825l1.89-2.448c2.53-1.72 4.067-3.955 6.454-3.378 3.258.788 10.075 4.905 14.293 4.905 8.517 0 5.837-6.433 14.354-6.433 1.942 0 6.868.424 10.428.424 3.702 0 7.273-1.163 10.975-1.163 6.484 0 5.543 1.163 12.027 1.163 4.066 0 6.413 2.327 10.49 2.266 4.713-.06 6.37-8.79 6.37-16.012 0-2.953-3.832-6.08-4.47-8.952-.99-4.268-2.61-8.334-4.43-11.41-2.073-3.52-7.475-.98-7.04-5.27.668-3.064 2.266-6.14 7.91-5.34 11.956.617 8.487-4.906 13.25-4.663 4.846.253 10.55-1.103 10.48-4.35-.06-3.064-6.433-5.553-6.433-11.106 0-4.26 1.77-8.052 1.77-12.31 0-.83-1.85-5.28-1.85-6.94 0-2.316 2.507-3.338 4.814-3.338 7.313 0 15.506.142 17.782 5.483 2.74-6.696 8.233-6.342 9.528-9.458 1.072-2.63-6.666-9.255-6.666-16.012 0-5.28 3.025-8.952 6.818-12.077 1.91-1.568.212-7.1.8-9.195.768-2.72 6.624-.98 7.605-3.62-3.732-1.225-7.485-4.482-11.53-10.126-2.64 2.944-2.914 8.84-8.093 8.84-4.723 0-7.404-3.428-11.47-5.644-4.168-2.225-6.14 1.457-10.307-1.04-4.815-2.874-6.04-9.51-11.592-9.51-2.134 0-5.513 5.048-7.182 6.252-4.348 3.145-7.322 2.7-12.693 2.7-4.623 0-2.73-7.97-7.364-7.97-3.044 0-4.41 3.752-4.41 6.807 0 1.942.1 7.05-1.84 7.05-5.19 0-6.394-7.637-8.71-12.27-3.237-6.564-7.03-8.607-11.288-14.535-4.25-6.008-8.052-9.063-14.718-12.107-3.61-1.67-10.115-1.416-10.115-5.493 0-5.19 1.032-3.62 1.902-9.204.09-.638.152-4.845-.678-4.845-6.392 0-5.644 5.583-10.256 10.65 0 0-1.85 1.912-4.218 5.3-3.5 4.482-5.685 6.313-10.307 6.313-2.125 0-4.48 1.235-7.05-.424-1.78-.98 3.004-4.967 1.577-7.394-3.054-1.072-4.45.89-7.04.89-2.124 0-2.255 4.3-4.167 3.378-1.78-.86-1.163-3.864-4.845-3.44l-5.402.68c-1.76-.274-3.277-.153-5.027.12-3.73.304 1.964-5.694 1.964-8.284 0-4.066.82-8.952-3.257-8.952-1.295 0-2.69 1.538-4.33 1.912-3.884.546-4.025-2.71-7.07-2.71-4.026 0-7.9 1.426-10.62 3.56-3.076 2.407-4.472 4.845-8.518 3.742-1.963 1.073-3.39 3.834-6.01 3.834-3.145 0-7.99.03-10.862 1.315-6.19 2.76-7.11 5.38-12.938 8.345-4.167 2.033-7.485 1.345-12.026 2.458-3.146.738-4.886 5.785-7.485 3.864-4.29-3.197-6.83-3.318-12.756-3.318-2.125 0-4.724 1.922-4.724 4.046 0 7.87 11.47 9.508 11.905 14.353.08.92-1.163 1.72-2.094 1.72-2.86 0-4.115-3.187-6.988-3.187-3.237 0-5.422.76-5.422 3.996 0 2.316 2.296 4.48 2.296 6.797 0 4.168-4.966 2.46-6.625 6.748-.828 2.164.8 1.426.8 3.742 0 .648.425 1.942.94 2.337 4.462 3.43 12.3.152 13.96 5.148-1.963 5.695-6.727 10.206-14.414 10.358-2.772-1.102-1.113-2.883-4.168-2.883-2.862 0-2.842 3.733-4.966 5.584-11.592-3.247-10.307-12.573-14.9-12.694-3.52-.09-3.358 4.41-6.878 4.41-2.407 0-1.274-3.915-3.67-3.915-2.783 0-2.874.364-5.646.364-3.338 0-5.937 5.34-9.265 5.34-2.873 0-4.592-5.634-6.26-7.86-5.3-3.762-3.248 8.528-5.888 8.963-3.207.445-1.71-11.47-5.39-12.573-1.377-3.055-1.56-6.535-5.25-6.535-2.135 0-2.176 1.75-5.19 1.477l-1.477-.374c-2.74-2.235-1.67-5.29-2.134-8.8-1.568-.1-1.85-.445-3.42-.445-2.315 0-2.85 4.673-5.168 4.673-3.237 0-2.033-5.584-5.27-5.584-4.167 0-2.76 7.12-9.144 6.686-6.858-.455-7.727 4.046-10.914 6.686-1.942 1.61-4.966-.92-6.746.557-1.72 1.346.86 13.494-.678 14.78-1.285 1.08-4.4-.01-5.088-1.164-4.815-4.815-4.046-12.573-6.504-12.573-4.612 0-1.193 8.456-6.686 9.75-4.663 1.103-2.134 8.345-4.35 13.25-1.76 3.976-8.385 5.473-7.18 9.752.92 3.257 7.848 1.538 5.35 5.38-.708 1.084-.87 1.175-.87 2.47 0 3.792 3.308 5.087 6.625 6.746.83.416 3.208.71 4.047 1.104 2.7 1.294 3.207 4.066 4.785 6.756 1.578 2.68 4.622 5.645 3.682 8.65-.678 2.143-5.463.292-5.463 2.507 0 3.985 6.445 5.644 10.43 5.644 5.553 0 7.586-5.926 13.14-5.926 3.792 0 4.34-.02 8.08.84 1.72.606 2.702.677 5.433 1.01" fill="#36ade8" fill-rule="evenodd"/><path d="M184.813 425.265c7.505.93 11.005 7.96 11.005 15.365v7.212c0 3.156-3.54 5.664-6.686 5.664-4.622 0-6.726-3.53-11.35-3.53-3.984 0-8.03 2.802-8.03 6.787 0 2.863 5.4 4.845 4.54 6.433-1.293 1.78-1.99 1.356-3.003 1.356-4.815 0-5.362-7.172-10.166-7.172-2.782 0-3.146 2.428-3.146 5.21 0 4.44 4.865 3.742 6.625 7.727 1.346 3.075 3.39 8.568 4.046 11.29.647 2.67 2.943 5.036 5.704 6.867 5.39 3.56 8.527 5.826 8.274 10.054-.172 2.943-4.906 5.806-4.906 9.872 0 1.305 1.224 2.458 2.52 2.458 4.065 0 6.29-4.42 10.367-4.42 3.66 0 7.423.485 9.81 2.397 3.804 3.055 5.786 5.33 9.134 9.387 2.974 3.58 6.747 9.81 9.964 9.68 2.366.374 2.053-6.818 2.7-9.842 1.467-6.868.92-13.928 1.63-22.536-.092-5.735 1.04-7.607 1.658-14.11.404-4.27.97-10.925 1.163-15.02.15-3.248 1.152-4.482 4.54-4.482 2.307 0 2.408 1.406 4.724 1.406 4.623 0 4.137-5.887 8.77-5.887 4.137 0 6.07-.667 9.508.072 3.43 1.405 7.13 1.153 9.387 3.924 4.287 5.27 9.072 8.224 13.796 12.2 3.327 2.77 3.874 3.863 7.08 6.988 6.96 6.757 5.897 8.71 9.6 11.602 3.165 2.468 4.217 2.64 8.95 2.64 2.317 0 10.51-.313 12.827-.313 4.713 0 4.046 2.58 8.77 2.58 4.44 0 3.965-2.135 6.928-5.463 3.005-2.63 4.583 2.65 6.262 4.54 2.52 2.854 4.218 5.878 8.68 6.99 2.356.8 1.07 2.843 1.07 3.5 0 2.964-1.9 1.58-1.9 4.542 0 4.896-.314 5.766-.314 10.672.253 2.083 2.61 1.69 4.178 1.77 2.326.13 1.9-2.327 3.56-1.65 2.145 2.024.304 4.735.304 7.05 0 2.783 1.426 5.858 4.207 5.858 2.216 0 7.314-.273 8.983-.273 1.476 0 3.054-1.842 4.53-1.842 5.28 0 1.114 10.49 6.384 10.49 3.327 0-.97-7.658 2.326-7.365 6.747.617 5.806-7.252 9.326-9.376 3.196-1.973 3.62-2.873 6.07-4.663 2.74-2.003 6.887-3.166 8.84-6.878 1.385-2.772 3.55-4.522 4.47-7.475.84-2.69 2.65-5.472 5.513-5.472 3.155 0 5.077 1.356 8.233 1.356 2.68 0 4.734-.243 7.414-.243 3.702 0 2.56 2.52 6.25 2.52 2.135 0 2.64-2.104 2.64-4.24 0-3.417-4.227-3.246-2.82-5.825l1.89-2.448c2.53-1.72 4.067-3.955 6.454-3.378 3.258.788 10.075 4.905 14.293 4.905 8.517 0 5.837-6.433 14.354-6.433 1.942 0 6.868.424 10.428.424 3.702 0 7.273-1.163 10.975-1.163 6.484 0 5.543 1.163 12.027 1.163 4.066 0 6.413 2.327 10.49 2.266 4.713-.06 6.37-8.79 6.37-16.012 0-2.953-3.832-6.08-4.47-8.952-.99-4.268-2.61-8.334-4.43-11.41-2.073-3.52-7.475-.98-7.04-5.27.668-3.064 2.266-6.14 7.91-5.34 11.956.617 8.487-4.906 13.25-4.663 4.846.253 10.55-1.103 10.48-4.35-.06-3.064-6.433-5.553-6.433-11.106 0-4.26 1.77-8.052 1.77-12.31 0-.83-1.85-5.28-1.85-6.94 0-2.316 2.507-3.338 4.814-3.338 7.313 0 15.506.142 17.782 5.483 2.74-6.696 8.233-6.342 9.528-9.458 1.072-2.63-6.666-9.255-6.666-16.012 0-5.28 3.025-8.952 6.818-12.077 1.91-1.568.212-7.1.8-9.195.768-2.72 6.624-.98 7.605-3.62-3.732-1.225-7.485-4.482-11.53-10.126-2.64 2.944-2.914 8.84-8.093 8.84-4.723 0-7.404-3.428-11.47-5.644-4.168-2.225-6.14 1.457-10.307-1.04-4.815-2.874-6.04-9.51-11.592-9.51-2.134 0-5.513 5.048-7.182 6.252-4.348 3.145-7.322 2.7-12.693 2.7-4.623 0-2.73-7.97-7.364-7.97-3.044 0-4.41 3.752-4.41 6.807 0 1.942.1 7.05-1.84 7.05-5.19 0-6.394-7.637-8.71-12.27-3.237-6.564-7.03-8.607-11.288-14.535-4.25-6.008-8.052-9.063-14.718-12.107-3.61-1.67-10.115-1.416-10.115-5.493 0-5.19 1.032-3.62 1.902-9.204.09-.638.152-4.845-.678-4.845-6.392 0-5.644 5.583-10.256 10.65 0 0-1.85 1.912-4.218 5.3-3.5 4.482-5.685 6.313-10.307 6.313-2.125 0-4.48 1.235-7.05-.424-1.78-.98 3.004-4.967 1.577-7.394-3.054-1.072-4.45.89-7.04.89-2.124 0-2.255 4.3-4.167 3.378-1.78-.86-1.163-3.864-4.845-3.44l-5.402.68c-1.76-.274-3.277-.153-5.027.12-3.73.304 1.964-5.694 1.964-8.284 0-4.066.82-8.952-3.257-8.952-1.295 0-2.69 1.538-4.33 1.912-3.884.546-4.025-2.71-7.07-2.71-4.026 0-7.9 1.426-10.62 3.56-3.076 2.407-4.472 4.845-8.518 3.742-1.963 1.073-3.39 3.834-6.01 3.834-3.145 0-7.99.03-10.862 1.315-6.19 2.76-7.11 5.38-12.938 8.345-4.167 2.033-7.485 1.345-12.026 2.458-3.146.738-4.886 5.785-7.485 3.864-4.29-3.197-6.83-3.318-12.756-3.318-2.125 0-4.724 1.922-4.724 4.046 0 7.87 11.47 9.508 11.905 14.353.08.92-1.163 1.72-2.094 1.72-2.86 0-4.115-3.187-6.988-3.187-3.237 0-5.422.76-5.422 3.996 0 2.316 2.296 4.48 2.296 6.797 0 4.168-4.966 2.46-6.625 6.748-.828 2.164.8 1.426.8 3.742 0 .648.425 1.942.94 2.337 4.462 3.43 12.3.152 13.96 5.148-1.963 5.695-6.727 10.206-14.414 10.358-2.772-1.102-1.113-2.883-4.168-2.883-2.862 0-2.842 3.733-4.966 5.584-11.592-3.247-10.307-12.573-14.9-12.694-3.52-.09-3.358 4.41-6.878 4.41-2.407 0-1.274-3.915-3.67-3.915-2.783 0-2.874.364-5.646.364-3.338 0-5.937 5.34-9.265 5.34-2.873 0-4.592-5.634-6.26-7.86-5.3-3.762-3.248 8.528-5.888 8.963-3.207.445-1.71-11.47-5.39-12.573-1.377-3.055-1.56-6.535-5.25-6.535-2.135 0-2.176 1.75-5.19 1.477l-1.477-.374c-2.74-2.235-1.67-5.29-2.134-8.8-1.568-.1-1.85-.445-3.42-.445-2.315 0-2.85 4.673-5.168 4.673-3.237 0-2.033-5.584-5.27-5.584-4.167 0-2.76 7.12-9.144 6.686-6.858-.455-7.727 4.046-10.914 6.686-1.942 1.61-4.966-.92-6.746.557-1.72 1.346.86 13.494-.678 14.78-1.285 1.08-4.4-.01-5.088-1.164-4.815-4.815-4.046-12.573-6.504-12.573-4.612 0-1.193 8.456-6.686 9.75-4.663 1.103-2.134 8.345-4.35 13.25-1.76 3.976-8.385 5.473-7.18 9.752.92 3.257 7.848 1.538 5.35 5.38-.708 1.084-.87 1.175-.87 2.47 0 3.792 3.308 5.087 6.625 6.746.83.416 3.208.71 4.047 1.104 2.7 1.294 3.207 4.066 4.785 6.756 1.578 2.68 4.622 5.645 3.682 8.65-.678 2.143-5.463.292-5.463 2.507 0 3.985 6.445 5.644 10.43 5.644 5.553 0 7.586-5.926 13.14-5.926 3.792 0 4.34-.02 8.08.84 1.72.606 2.702.677 5.433 1.01z" stroke="#000" stroke-width="4.258415" stroke-miterlimit="2.613" fill="none"/><path d="M167.02 440.396l20.07-12.522-4.765-20.402 17.175 15.192 19.613-11.227-9.75 19.158 17.053 17.286-20.907-3.398-8.62 20.514-5.785-20.625-24.084-3.974z" fill="#fff" fill-rule="evenodd"/><path d="M167.02 440.396l20.07-12.522-4.765-20.402 17.175 15.192 19.613-11.227-9.75 19.158 17.053 17.286-20.907-3.398-8.62 20.514-5.785-20.625-24.084-3.974z" stroke="#000" stroke-width="4.258415" stroke-miterlimit="2.613" fill="none"/><path d="M272.686 352.832c7.435-161.587 39.47-256.01 87.16-255.464 43.313.505 66.922 69.834 81.68 192.963m91.004 38.934c-1.638-29.718-5.472-51.283-11.52-64.695m-297.665-3.29c26.936 6.07 57.443 9.54 91.55 10.42m90.45 0c24.457-.193 43.463-1.66 57.007-4.39m87.708-19.735c17.802-7.363 30.04-13.938 36.727-19.734m-452.788 0c14.373 12.867 34.835 22.193 61.387 27.96m2.195 7.13c-7.85 31.913-11.683 56.037-11.51 72.363M192.1 158.22l18.642 6.028m70.167 15.355l35.625 3.287m85.522 0l36.727-3.287m89.356-21.384l-23.02 7.12m80.028 193.52h38.367m-526.243 0h34.532m1.093 131.02l25.216-13.15m374.417-9.325c20.12 4.4 39.135 11.895 57.008 22.475m-396.892 71.27c36.17-15.213 83.49-24.174 141.984-26.865m69.065 2.195c45.498 3.206 86.797 11.42 123.9 24.67m-51.537-395.81c-35.473-44.91-74.224-67.568-116.21-67.972-44.487-.648-83.773 22.93-117.86 70.724m183.09 354.682c-14.363 61.904-36.18 99.228-65.23 99.774-31.327.587-55.775-42.21-73.456-121.157m217.078 7.132C471.04 580.47 420.153 620.9 359.847 622.548c-53.71 1.467-97.74-31.396-132.112-88.263m263.678-345.367c13.392 24.68 20.877 41.674 22.475 50.98M359.3 96.82v80.588m0 23.02v54.825m0 24.124v10.954m0 265.884v64.14" stroke="#000" stroke-width="3.044615" stroke-miterlimit="2.613" fill="none"/><path d="M214.036 166.295c1.012-1.558 2.316-1.962 3.904-1.204 15.577 5.028 33.906 9.196 54.986 12.483 1.335.496 1.982 1.598 1.952 3.318l-3.46 11.016c-.85 1.507-1.942 2.155-3.307 1.952l-19.29-3.5c-1.637-.536-2.69-.232-3.154.9-12.098 23.437-21.04 45.984-26.815 67.62-1.203 2.154-2.912 2.963-5.117 2.407l-11.724-2.104c-2.712-.606-3.764-1.506-3.308-3.317 5.674-18.652 15.415-41.532 29.212-68.66.526-1.386.323-2.236-.597-2.56l-16.59-4.662c-1.9-.768-2.406-1.345-1.81-3.155l5.12-10.53z" fill-rule="evenodd"/><path d="M394.716 180.886c1.81.08 3.075 1.446 3.813 4.056l.596 18.55c-.84 1.56-2.205 2.267-4.107 2.105l-9.933.152c-2.034.21-3.045-.497-3.005-2.115l-.15-3.905c.252-1.638-.396-2.397-1.954-2.255l-40.49.293c-1.87-.577-2.77.07-2.71 1.962l-1.66 56.584c-.04 1.497.607 3.46 2.104 3.317l43.96-.444c1.447.08 2.094-.627 1.962-2.114l-.465-7.97c-.04-1.72.657-2.62 2.113-2.71l14.778-.446c2.257.313 3.157 1.264 2.712 2.852l-.303 23.66c-.285 2.285-1.387 3.388-3.31 3.307l-74.567.9c-3.206.222-5.21-.89-6.018-3.308l3.46-86.908c.444-3.966 1.9-5.918 4.36-5.867l68.81.303z" fill-rule="evenodd"/><path d="M444.428 182.69c-1.042-2.458-.344-4.117 2.114-4.966l47.56-10.672c4.128-.748 6.677.455 7.668 3.61 15.263 23.387 28.676 48.887 40.248 76.48 1.497 2.712.14 4.613-2.256 5.27-31.084 8.406-53.68 13.383-67.77 14.93-3.025.516-4.987-.384-5.908-2.71-8.355-40.825-15.567-68.145-21.656-81.942m20.604 10.57c-.93-1.365-.425-2.336 1.507-2.903l22.748-4.956c2.266-.14 3.722.618 4.36 2.256 7.818 10.874 15.99 27.34 24.56 49.412 1.03 2.67.13 4.38-2.702 5.118l-29.677 6.312c-2.388 1.022-3.784.526-4.21-1.507-6.533-24.67-12.066-42.573-16.588-53.73" fill-rule="evenodd"/><path d="M140.484 546.75c1.63-1.002 1.84-1.538 1.244-2.317-.475-.648-1.042-.678-2.114-.567-1.73.152-2.306-.1-3.925-2.266l-15.88-21.07c-1.265-1.668-.7-1.94-.02-2.67.666-.738.292-1.456.07-1.75-.698-.93-1.892-.566-2.357-.374l-8.264 3.308c-.66.263-1.296.435-1.78.81-.83.626-.83 1.243-.355 1.87.556.74 1.072.81 4.167.628 6.504-.445 7.323 1.163 9.397 3.914 1.213 1.608.92 1.83.282 2.316l-24.357 18.35c-3.034 2.295-5.23 2.64-7.414.06-.454-.506-1.112-1.386-2.002-.718-1.123.84-.273 1.972.1 2.458 1.994 2.65 4.28 5.077 6.272 7.717 1.993 2.65 3.692 5.522 5.685 8.172.374.486 1.224 1.608 2.357.76 1.123-.85-.07-1.72-.607-2.935-1.214-2.842-.04-4.34 2.56-6.3l24.346-18.35c.395-.293.942-.708 1.528.08l1.588 2.105c2.59 3.43.79 6.24-.617 8.456-.89 1.366-1.498 2.205-.608 3.38.96 1.273 2.317.02 5.907-2.146l4.794-2.923z" fill-rule="evenodd"/><path d="M147.348 600.547c.738-.738.516-1.477-.04-2.043-.83-.82-1.912-.435-3.43.05-2.61.78-7.555 1.73-12.026-2.74l-.82-.82c-3.863-3.864-1.04-7.03 1.042-9.114l6.373-6.382c1.092-1.083 1.79-1.427 3.783.566l.82.83c2.993 2.994 3.084 4.38 2.255 6.423-1.083 2.64-1.77 3.418-.698 4.51.87.87 1.568.436 3.125-1.395 7.08-8.112.526-.162 7.94-7.586.7-.698.7-1.477.092-2.084-1.002-1-1.993-.08-3.6.567-3.825 1.465-5.12.08-7.03-1.832l-2.044-2.033c-.91-.91-.992-1.61.657-3.257l7.283-7.283c1.224-1.214 2.003-2.175 5.38 1.214 5.038 5.026 4.644 7.585 3.916 11.186-.354 1.477-.486 1.87.212 2.57.516.515 1.042.86 3.682-1.78l2.438-2.44c1.517-1.516 1.992-1.557.566-2.993-.657-.647-1.355-1.254-2.043-1.86-1.476-1.306-6.817-6.384-8.85-8.508l-6.25-6.423c-1.994-2.084-4.26-5.29-6.12-6.554-.87-.607-1.65-.78-2.256-.172-.78.778 0 1.567.435 2.083 2.254 2.518 1.607 4.642-1.084 7.333L122.748 578.9c-2.69 2.69-4.825 3.34-7.333 1.083-.526-.435-1.305-1.214-2.084-.435-1 1.002 0 1.993.436 2.428 2.772 2.78 4.592 4.167 8.497 7.98 2.083 2.084 4.774 4.775 8.507 8.77l5.38 5.725c2.61 2.773 2.823 2.732 4.987.83 1.133-.96 2.003-1.658 2.56-2.123 1.952-1.437 1.952-.92 3.65-2.61" fill-rule="evenodd"/><path d="M191.152 644.17c.253-.343.566-.88-.182-1.425-.79-.577-1.66-1.052-2.418-1.68-2.953-2.518-.738-4.935.344-6.422l15.223-20.948c2.235-3.086 4.227-4.057 7.07-2.216.586.343 1.477.99 2.124.09.83-1.143-.314-1.962-.81-2.326-2.68-1.952-5.573-3.6-8.253-5.543-2.68-1.95-5.148-4.197-7.828-6.14-.496-.363-1.64-1.192-2.468-.05-.648.89.243 1.548.758 1.993 2.62 2.134 2.307 4.33.07 7.404l-5.016 6.9c-.607.848-.87 1.415-2.114.515l-11.167-8.113c-1.193-.87-.94-1.528-.364-2.317l5.018-6.898c2.236-3.085 4.228-4.056 7.07-2.226.577.353 1.477 1 2.125.1.83-1.132-.314-1.962-.81-2.326-2.68-1.952-5.583-3.6-8.263-5.553-2.68-1.94-5.14-4.187-7.82-6.13-.495-.363-1.638-1.192-2.467-.05-.648.89.242 1.538.748 1.993 2.63 2.124 2.317 4.33.082 7.404l-15.223 20.95c-2.236 3.084-4.24 4.055-7.07 2.224-.588-.343-1.478-1-2.126-.1-.83 1.143.304 1.962.81 2.326 2.68 1.942 5.573 3.6 8.253 5.543 2.68 1.95 5.15 4.197 7.83 6.15.495.353 1.638 1.183 2.468.04.647-.89-.253-1.538-.76-1.983-2.62-2.134-2.305-4.34-.07-7.414l6.453-8.89c1.042-1.438 1.305-1.175 2.55-.274l11.015 8.01c1.143.83.445 1.69-.09 2.427l-6.283 8.65c-2.235 3.074-4.228 4.045-7.07 2.214-.577-.343-1.477-1-2.124-.11-.83 1.153.313 1.982.81 2.336 2.68 1.952 8.263 5.543 8.263 5.543s3.72 2.184 4.126 4.753c.344 2.448-3.156 7.263-3.61 8.83-.295.92.1 1.427.697 1.862 1.04.758 1.77.688 4.54-2.387l3.066-3.39c.89-1.01 2.498-2.8 2.892-3.347" fill-rule="evenodd"/><path d="M220.898 658.952c.486-.99-.506-1.477-1.092-1.83-3.723-2.014-2.327-5.29-1.356-7.284l11.35-23.264c.97-1.993 2.69-5.108 6.574-3.42.637.244 1.628.73 2.114-.262.617-1.264-.647-1.89-1.204-2.154-2.974-1.457-6.11-2.58-9.093-4.036-2.973-1.447-5.795-3.227-8.77-4.684-.555-.273-1.82-.89-2.437.375-.485 1 .506 1.487 1.083 1.83 3.722 2.023 2.336 5.3 1.365 7.283l-11.348 23.285c-.97 1.973-2.7 5.1-6.585 3.41-.627-.243-1.628-.73-2.103.273-.628 1.264.647 1.88 1.193 2.144 2.984 1.457 6.12 2.58 9.093 4.026 2.984 1.457 5.806 3.237 8.78 4.693.546.263 1.82.88 2.438-.384" fill-rule="evenodd"/><path d="M267.298 666.236c3.63-9.447-5.058-14.222-7.79-15.476l.062-.172c1.82.567 10.55 2.994 13.382-4.39 1.457-3.773 2.185-10.985-12.937-16.8-2.69-1.033-6.14-2.155-10.894-2.6-1.84-.182-1.77-.02-3.175 2.265l-2.357 3.753c-.697 1.123-1.9 2.893-.07 3.6 1.203.456 2.225-.656 3.156-1.547 2.872-2.853 6.25-5.493 11.642-3.43 6.008 2.307 5.705 7.06 4.32 10.672-.648 1.66-3.38 7.566-9.732 5.128l-3.843-1.477c-.677-.263-.94-.09-1.173.152l-.96 1.143c-.203.182-.395.698.465 1.032l3.378 1.294c7.677 2.944 6.757 9.428 5.35 13.09-2.457 6.412-7.727 7.808-12.42 6.008-6.767-2.6-7.293-9.438-7.718-12.614-.162-1.456-.425-1.81-1.103-2.073-1.61-.607-2.054 1.052-2.5 2.72l-.667 2.438c-.303 1.133-.768 2.337-.05 3.723 1.214 2.306 6.28 6.22 11.784 8.344 15.354 5.887 21.514 1.285 23.85-4.784" fill-rule="evenodd"/><path d="M346.673 689.573c.13-1.092-.96-1.234-1.63-1.376-3.326-.586-4.115-2.66-3.65-6.443l3.146-25.692c.464-3.763 1.74-5.594 5.107-5.36.688.02 1.78.15 1.912-.942.17-1.396-1.225-1.578-1.832-1.648-3.237-.395-6.444-.425-9.67-.82-3.166-.384-6.23-1.133-9.397-1.517-.606-.08-2.012-.253-2.184 1.153-.13 1.093.96 1.224 1.63 1.376 3.316.647 3.75 3.176 3.357 6.403l-3.58 29.16c-.173 1.336-.375 1.994-2.752 1.71l-9.86-1.223c-1.165-.142-1.913-.547-1.67-2.55l3.54-28.857c.405-3.227 1.436-5.574 4.815-5.402.677.02 1.77.152 1.91-.94.163-1.396-1.233-1.568-1.84-1.65-3.105-.374-6.32-.404-9.427-.778-3.105-.384-6.23-1.143-9.336-1.517-.607-.08-2.013-.253-2.185 1.153-.13 1.092.97 1.224 1.63 1.365 3.317.658 3.752 3.186 3.357 6.413l-3.58 29.163c-.173 1.335-.375 1.992-2.752 1.7l-9.862-1.215c-1.103-.13-1.932-.414-1.67-2.55l3.55-28.857c.396-3.226 1.428-5.572 4.806-5.4.678.02 1.77.15 1.902-.94.172-1.407-1.224-1.58-1.83-1.65-3.167-.384-6.323-.404-9.49-.8-3.226-.393-6.35-1.142-9.578-1.536-.607-.08-2.013-.253-2.185 1.153-.13 1.092.97 1.224 1.63 1.365 3.326.597 4.126 2.67 3.66 6.454l-3.156 25.682c-.466 3.773-1.74 5.603-5.11 5.37-.676-.02-1.78-.15-1.91.94-.172 1.397 1.224 1.58 1.84 1.65 3.227.395 6.434.415 9.66.82 3.237.394 6.474 1.163 9.7 1.557l6.04.74c3.226.393 6.493.423 9.72.818 3.226.394 6.413 1.153 9.64 1.558l6.028.74c3.237.394 6.565.434 9.79.83 3.228.393 6.353 1.152 9.58 1.546.607.08 2.013.243 2.185-1.153" fill-rule="evenodd"/><path d="M395.347 677.127c-.07-1.042-.77-1.355-1.568-1.305-1.164.08-1.58 1.163-2.216 2.61-1.113 2.478-3.64 6.838-9.943 7.283l-1.162.08c-5.452.385-5.988-3.823-6.2-6.766l-.618-8.994c-.12-1.527.08-2.286 2.893-2.478l1.163-.08c4.228-.294 5.33.545 6.332 2.508 1.285 2.56 1.416 3.59 2.944 3.48 1.224-.082 1.355-.89 1-3.268-1.476-10.65.214-.495-.515-10.964-.07-.982-.657-1.487-1.517-1.427-1.406.09-1.376 1.447-1.932 3.085-1.396 3.844-3.297 3.915-5.988 4.107l-2.883.2c-1.284.082-1.86-.302-2.023-2.628l-.728-10.277c-.11-1.71-.324-2.924 4.45-3.267 7.1-.496 8.78 1.476 11.016 4.4.88 1.223 1.102 1.577 2.073 1.517.74-.05 1.336-.223 1.073-3.955l-.233-3.42c-.152-2.143.13-2.528-1.902-2.396-.91.07-1.83.192-2.74.323-1.943.253-9.286.95-12.22 1.093l-8.952.506c-2.87.14-6.786-.263-8.95.323-1.032.252-1.68.728-1.61 1.587.072 1.093 1.175 1.022 1.852 1.032 3.38-.052 4.552 1.83 4.815 5.633l1.81 25.814c.274 3.793-.637 5.826-3.995 6.24-.657.112-1.77.193-1.69 1.295.102 1.406 1.508 1.305 2.125 1.265 3.915-.273 6.16-.74 11.602-1.184 2.933-.202 6.736-.465 12.188-.667l7.86-.304c3.802-.14 3.914-.334 3.893-3.216.022-1.487.062-2.59.072-3.328.202-2.418.587-2.074.425-4.46" fill-rule="evenodd"/><path d="M444.012 665.51c-2.094-9.084-11.005-9.49-16.61-8.123l-.05-.182c4.22-.85 11.795-4.3 10.136-11.46-2.266-9.873-13.473-8.234-20.473-6.616-6.696 1.547-15.385 4.308-19.4 6.554-1.336.748-1.457 1.345-1.295 2.002.283 1.255 1.547.96 1.84.9.597-.14 1.225-.414 1.842-.495 2.488-.383 3.064 1.812 3.408 3.31l5.948 25.76c.678 2.925.82 5.727-2.964 6.79-.647.21-1.72.464-1.476 1.526.323 1.376 1.7 1.062 2.296.92 3.226-.738 6.372-1.84 9.6-2.59 4.54-1.05 9.112-1.72 13.654-2.77 5.988-1.376 16.053-4.714 13.544-15.527m-17.904-17.267c.97 4.177-.515 8.425-6.726 9.852l-.718.172c-1.85.424-1.983-.678-2.185-1.568l-2.358-10.167c-.394-1.73-.597-3.955 3.116-4.804 4.835-1.124 7.93 2.446 8.87 6.513m6.535 20.392c1.7 7.353-2.387 9.8-5.26 10.47-5.088 1.172-6.332-2.57-6.848-4.847l-2.57-11.116c-.475-2.023.77-2.377 1.427-2.53l.96-.22c5.26-1.215 10.54.646 12.29 8.243" fill-rule="evenodd"/><path d="M482.342 631.053c-4.33-11.288-17.115-6.575-20.038-5.452-2.003.77-3.985 1.59-5.947 2.48-1.85.84-3.763 1.648-5.665 2.366-3.085 1.194-6.322 2.033-9.407 3.217-.576.222-1.9.728-1.386 2.053.505 1.315 1.668.405 2.973.233 3.075-.396 4.198 1.152 5.36 4.186l9.287 24.165c1.163 3.036 1.365 4.927-1.174 6.697-1.102.75-2.57.85-2.073 2.165.516 1.315 1.83.82 2.407.597 3.095-1.195 6.05-2.722 9.144-3.906 3.207-1.234 6.494-2.104 9.7-3.328.567-.222 1.892-.728 1.386-2.043-.404-1.032-1.446-.688-2.083-.455-3.763 1.315-5.31-.647-6.545-3.864l-3.54-9.215c-.152-.405-.374-.982.546-1.326.92-.344 1.8-.1 3.642-.273 1.84-.18 3.975-.616 5.634-1.243 7.222-2.772 10.287-10.52 7.778-17.054m-10.955 4.34c1.143 2.973 2.165 8.89-3.955 11.237-.98.384-1.648.506-2.67.435-.404-.04-1.598-.233-2.063-1.436l-3.653-9.52c-.263-.677-.82-2.306-.9-3.388-.12-2.195 1.315-3.075 2.57-3.56 5.036-1.932 8.97 1.82 10.67 6.23" fill-rule="evenodd"/><path d="M531.326 613.29c-6.14-10.632-20.078-13.92-32.934-6.495-11.744 6.777-16.174 19.613-9.458 31.245 6.443 11.167 20.422 14.14 33.127 6.818 12.857-7.435 15.71-20.412 9.266-31.57m-9.164 7.7c4.147 7.17 6.322 17.326-.96 21.523-8.61 4.978-18.5-4.196-22.952-11.894-4.724-8.183-5.654-17.64 1.042-21.504 8.668-5.007 18.49 4.278 22.87 11.875" fill-rule="evenodd"/><path d="M544.414 559.522c-.233-.283-.9-.04-1.234.243-.8.667-.293 1.84-.303 4.41 0 3.62-.486 5.057-2.226 6.514-1.83 1.536-3.812 1.284-5.592-.274-.688-.627-2.216-2.064-3.713-.8-1.608 1.336-1.952 5.32-.495 7.06 2.448 2.914 7.788 1.154 10.752-1.334 4.886-4.097 4.47-10.793 3.45-14.677-.122-.445-.355-.81-.638-1.143m45.153 31.57c-.708-.85-1.557-.143-2.114.242-2.7 2.033-4.754 1.203-7.202-1.71l-16.648-19.845c-2.448-2.915-2.903-5.09-.445-7.395.486-.486 1.325-1.194.617-2.044-.91-1.08-1.993-.17-2.468.224-2.53 2.134-4.835 4.54-7.374 6.676-2.54 2.124-5.31 3.975-7.85 6.11-.464.394-1.547 1.294-.646 2.376.718.85 1.557.132 2.114-.253 2.235-1.72 4.53-1.476 6.817 1.255l.243.283.12 27.362-13.36-15.93c-2.448-2.914-2.914-5.1-.446-7.405.476-.476 1.325-1.184.617-2.034-.91-1.082-1.99-.17-2.457.223-2.538 2.124-4.845 4.532-7.384 6.666-2.53 2.134-5.31 3.975-7.86 6.11-.455.394-1.537 1.304-.637 2.386.718.84 1.558.132 2.114-.252 2.7-2.034 4.764-1.194 7.212 1.72l16.648 19.835c2.448 2.914 2.913 5.088.435 7.405-.475.475-1.315 1.193-.617 2.033.91 1.082 1.993.172 2.468-.223 2.54-2.124 4.835-4.54 7.374-6.665 2.54-2.135 5.31-3.986 7.86-6.11.465-.394 1.547-1.305.637-2.387-.708-.85-1.548-.142-2.114.253-2.7 2.023-4.764 1.193-7.2-1.72l-.244-.283-.132-27.36 13.767 16.406c2.45 2.912 2.904 5.086.436 7.393-.476.475-1.315 1.193-.607 2.033.91 1.082 1.982.182 2.457-.213 2.54-2.134 4.835-4.55 7.374-6.676 2.54-2.124 5.31-3.975 7.86-6.11.465-.394 1.548-1.304.637-2.376" fill-rule="evenodd"/><path d="M629.072 546.166c-.83-.718-1.558.11-2.053.587-2.348 2.417-4.513 1.922-7.385-.577l-19.553-16.993c-1.658-1.447-4.177-3.884-1.588-7.232.395-.546 1.133-1.385.294-2.113-1.073-.92-1.993.14-2.398.607-2.174 2.498-4.076 5.24-6.24 7.738-1.852 2.134-4.026 4.066-5.877 6.2l-4.147 4.764-7.688 8.85c-.85.972-.14 1.66.04 1.832 1.063.92 1.58.14 2.752-1.113 2.468-2.57 3.995-1.972 9.822 3.095 11.622 10.105 17.7 19.3 15.738 21.565-.647.74-1.355.526-2.114.364-1.01-.233-2.76-.375-4.207 1.294-1.933 2.226-1.65 5.078.383 6.848 3.945 3.42 7.313-.647 7.637-1.01 1.082-1.256 5.523-6.91-3.186-18.785-2.893-3.975-6.353-7.475-10.45-11.37-6.554-6.11-8.516-7.23-5.047-11.217l1.406-1.618c2.853-3.288 3.885-2.964 5.827-1.275l21.03 18.278c2.86 2.488 3.66 4.572 1.597 7.242-.405.547-1.133 1.376-.293 2.104 1.062.922 1.982-.14 2.397-.595 2.175-2.51 4.057-5.25 6.232-7.748 2.184-2.51 4.632-4.765 6.807-7.263.393-.465 1.324-1.527.262-2.458" fill-rule="evenodd"/></g></svg>