<?xml version="1.0" encoding="UTF-8" standalone="no"?>
<!-- Created with Inkscape (http://www.inkscape.org/) -->

<svg
   xmlns:dc="http://purl.org/dc/elements/1.1/"
   xmlns:cc="http://creativecommons.org/ns#"
   xmlns:rdf="http://www.w3.org/1999/02/22-rdf-syntax-ns#"
   xmlns:svg="http://www.w3.org/2000/svg"
   xmlns="http://www.w3.org/2000/svg"
   version="1.1"
   width="717.51965"
   height="717.51965"
   id="svg55554"
   xml:space="preserve"><metadata
     id="metadata55560"><rdf:RDF><cc:Work
         rdf:about=""><dc:format>image/svg+xml</dc:format><dc:type
           rdf:resource="http://purl.org/dc/dcmitype/StillImage" /><dc:title></dc:title></cc:Work></rdf:RDF></metadata><defs
     id="defs55558"><clipPath
       id="clipPath56222"><path
         d="m 94.252,497.575 70.867,0 0,70.866 -70.867,0 0,-70.866 z"
         id="path56224" /></clipPath></defs><g
     transform="matrix(1.25,0,0,-1.25,-13.011052,975.8175)"
     id="g55562"><g
       transform="matrix(8.0918442,0,0,8.0918442,-754.53923,-3819.8563)"
       id="g56218"><g
         clip-path="url(#clipPath56222)"
         id="g56220"><g
           transform="translate(95.5655,533.0664)"
           id="g56226"><path
             d="M 0,0 C 0,19.02 15.417,34.438 34.437,34.438 53.456,34.438 68.873,19.02 68.873,0 68.873,-19.02 53.456,-34.435 34.437,-34.435 15.417,-34.435 0,-19.02 0,0"
             id="path56228"
             style="fill:#ffffff;fill-opacity:1;fill-rule:evenodd;stroke:none" /></g><g
           transform="translate(95.5655,533.0664)"
           id="g56230"><path
             d="M 0,0 C 0,19.02 15.417,34.438 34.437,34.438 53.456,34.438 68.873,19.02 68.873,0 68.873,-19.02 53.456,-34.435 34.437,-34.435 15.417,-34.435 0,-19.02 0,0 z"
             id="path56232"
             style="fill:none;stroke:#ffffff;stroke-width:1.35000002;stroke-linecap:butt;stroke-linejoin:miter;stroke-miterlimit:2.61299992;stroke-opacity:1;stroke-dasharray:none" /></g><g
           transform="translate(95.5655,533.0664)"
           id="g56234"><path
             d="M 0,0 C 0,19.02 15.417,34.438 34.437,34.438 53.456,34.438 68.873,19.02 68.873,0 68.873,-19.02 53.456,-34.435 34.437,-34.435 15.417,-34.435 0,-19.02 0,0"
             id="path56236"
             style="fill:#ffffff;fill-opacity:1;fill-rule:evenodd;stroke:none" /></g><g
           transform="translate(95.5655,533.0664)"
           id="g56238"><path
             d="M 0,0 C 0,19.02 15.417,34.438 34.437,34.438 53.456,34.438 68.873,19.02 68.873,0 68.873,-19.02 53.456,-34.435 34.437,-34.435 15.417,-34.435 0,-19.02 0,0 z"
             id="path56240"
             style="fill:none;stroke:#000000;stroke-width:0.67500001;stroke-linecap:butt;stroke-linejoin:miter;stroke-miterlimit:2.61299992;stroke-opacity:1;stroke-dasharray:none" /></g><g
           transform="translate(130.049,566.194)"
           id="g56242"><path
             d="M 0,0 C 0.494,-0.177 0.817,-0.613 0.97,-1.308 1.771,-0.644 4.145,-0.494 4.946,-1.757 5.648,-2.864 5.531,-4.989 3.273,-5.05 2.551,-5.069 1.79,-4.464 1.985,-3.488 2.136,-2.733 2.924,-2.82 3.175,-3.644 3.391,-4.347 4.634,-4.093 4.614,-3.059 4.602,-2.42 3.822,-1.744 3.02,-1.757 1.771,-1.776 0.853,-2.635 0.873,-3.761 0.892,-4.906 1.492,-5.464 2.258,-5.908 2.922,-6.293 3.69,-6.454 4.497,-6.215 4.578,-6.885 4.805,-7.445 5.063,-7.62 2.727,-7.23 0.903,-7.188 0,-7.191 -0.887,-7.194 -2.727,-7.23 -5.064,-7.62 c 0.258,0.175 0.486,0.735 0.566,1.405 0.808,-0.239 1.576,-0.078 2.239,0.307 0.767,0.444 1.366,1.002 1.386,2.147 0.02,1.126 -0.898,1.985 -2.147,2.004 -0.803,0.013 -1.583,-0.663 -1.595,-1.302 -0.019,-1.034 1.224,-1.288 1.439,-0.585 0.252,0.824 1.04,0.911 1.191,0.156 0.195,-0.976 -0.567,-1.581 -1.289,-1.562 -2.258,0.061 -2.375,2.186 -1.672,3.293 0.801,1.263 3.175,1.113 3.975,0.449 C -0.817,-0.613 -0.494,-0.177 0,0"
             id="path56244"
             style="fill:#36ade8;fill-opacity:1;fill-rule:evenodd;stroke:none" /></g><g
           transform="translate(130.049,566.194)"
           id="g56246"><path
             d="M 0,0 C 0.494,-0.177 0.817,-0.613 0.97,-1.308 1.771,-0.644 4.145,-0.494 4.946,-1.757 5.648,-2.864 5.531,-4.989 3.273,-5.05 2.551,-5.069 1.79,-4.464 1.985,-3.488 2.136,-2.733 2.924,-2.82 3.175,-3.644 3.391,-4.347 4.634,-4.093 4.614,-3.059 4.602,-2.42 3.822,-1.744 3.02,-1.757 1.771,-1.776 0.853,-2.635 0.873,-3.761 0.892,-4.906 1.492,-5.464 2.258,-5.908 2.922,-6.293 3.69,-6.454 4.497,-6.215 4.578,-6.885 4.805,-7.445 5.063,-7.62 2.727,-7.23 0.903,-7.188 0,-7.191 -0.887,-7.194 -2.727,-7.23 -5.064,-7.62 c 0.258,0.175 0.486,0.735 0.566,1.405 0.808,-0.239 1.576,-0.078 2.239,0.307 0.767,0.444 1.366,1.002 1.386,2.147 0.02,1.126 -0.898,1.985 -2.147,2.004 -0.803,0.013 -1.583,-0.663 -1.595,-1.302 -0.019,-1.034 1.224,-1.288 1.439,-0.585 0.252,0.824 1.04,0.911 1.191,0.156 0.195,-0.976 -0.567,-1.581 -1.289,-1.562 -2.258,0.061 -2.375,2.186 -1.672,3.293 0.801,1.263 3.175,1.113 3.975,0.449 C -0.817,-0.613 -0.494,-0.177 0,0 z"
             id="path56248"
             style="fill:none;stroke:#000000;stroke-width:0.35100001;stroke-linecap:butt;stroke-linejoin:miter;stroke-miterlimit:2.61299992;stroke-opacity:1;stroke-dasharray:none" /></g><g
           transform="translate(143.1764,563.5694)"
           id="g56250"><path
             d="M 0,0 C 0.386,-0.356 0.513,-0.883 0.382,-1.583 1.378,-1.285 3.623,-2.075 3.867,-3.55 4.081,-4.843 3.143,-6.753 1.04,-5.927 c -0.672,0.264 -1.136,1.118 -0.576,1.941 0.435,0.635 1.126,0.247 1.036,-0.61 -0.077,-0.73 1.166,-0.983 1.552,-0.022 0.239,0.592 -0.215,1.519 -0.958,1.821 -1.158,0.47 -2.339,0.038 -2.76,-1.006 -0.429,-1.062 -0.096,-1.81 0.437,-2.518 0.46,-0.614 1.104,-1.062 1.941,-1.157 -0.188,-0.649 -0.197,-1.253 -0.028,-1.515 -1.999,1.272 -3.661,2.024 -4.493,2.374 -0.818,0.343 -2.526,1.029 -4.829,1.583 0.305,0.061 0.734,0.487 1.07,1.072 0.65,-0.535 1.419,-0.687 2.181,-0.592 0.879,0.109 1.649,0.389 2.114,1.435 0.458,1.029 -0.051,2.178 -1.193,2.684 -0.734,0.325 -1.716,0.007 -1.976,-0.575 -0.423,-0.945 0.623,-1.665 1.095,-1.102 0.554,0.66 1.313,0.433 1.157,-0.321 -0.202,-0.975 -1.139,-1.234 -1.796,-0.934 -2.055,0.939 -1.333,2.941 -0.253,3.685 1.231,0.848 3.357,-0.217 3.835,-1.141 C -0.992,-0.244 -0.523,0.03 0,0"
             id="path56252"
             style="fill:#36ade8;fill-opacity:1;fill-rule:evenodd;stroke:none" /></g><g
           transform="translate(143.1764,563.5694)"
           id="g56254"><path
             d="M 0,0 C 0.386,-0.356 0.513,-0.883 0.382,-1.583 1.378,-1.285 3.623,-2.075 3.867,-3.55 4.081,-4.843 3.143,-6.753 1.04,-5.927 c -0.672,0.264 -1.136,1.118 -0.576,1.941 0.435,0.635 1.126,0.247 1.036,-0.61 -0.077,-0.73 1.166,-0.983 1.552,-0.022 0.239,0.592 -0.215,1.519 -0.958,1.821 -1.158,0.47 -2.339,0.038 -2.76,-1.006 -0.429,-1.062 -0.096,-1.81 0.437,-2.518 0.46,-0.614 1.104,-1.062 1.941,-1.157 -0.188,-0.649 -0.197,-1.253 -0.028,-1.515 -1.999,1.272 -3.661,2.024 -4.493,2.374 -0.818,0.343 -2.526,1.029 -4.829,1.583 0.305,0.061 0.734,0.487 1.07,1.072 0.65,-0.535 1.419,-0.687 2.181,-0.592 0.879,0.109 1.649,0.389 2.114,1.435 0.458,1.029 -0.051,2.178 -1.193,2.684 -0.734,0.325 -1.716,0.007 -1.976,-0.575 -0.423,-0.945 0.623,-1.665 1.095,-1.102 0.554,0.66 1.313,0.433 1.157,-0.321 -0.202,-0.975 -1.139,-1.234 -1.796,-0.934 -2.055,0.939 -1.333,2.941 -0.253,3.685 1.231,0.848 3.357,-0.217 3.835,-1.141 C -0.992,-0.244 -0.523,0.03 0,0 z"
             id="path56256"
             style="fill:none;stroke:#000000;stroke-width:0.35100001;stroke-linecap:butt;stroke-linejoin:miter;stroke-miterlimit:2.61299992;stroke-opacity:1;stroke-dasharray:none" /></g><g
           transform="translate(154.1386,556.0785)"
           id="g56258"><path
             d="m 0,0 c 0.216,-0.478 0.127,-1.013 -0.267,-1.606 1.034,-0.115 2.791,-1.719 2.44,-3.172 -0.309,-1.275 -1.918,-2.667 -3.531,-1.084 -0.516,0.505 -0.609,1.473 0.229,2.011 0.647,0.416 1.132,-0.212 0.714,-0.965 -0.356,-0.643 0.69,-1.361 1.42,-0.628 0.451,0.452 0.396,1.483 -0.17,2.052 -0.883,0.884 -2.138,0.948 -2.934,0.151 -0.809,-0.809 -0.795,-1.628 -0.582,-2.488 0.184,-0.745 0.602,-1.409 1.335,-1.824 -0.426,-0.523 -0.671,-1.076 -0.618,-1.383 -1.342,1.952 -2.578,3.294 -3.208,3.941 -0.619,0.636 -1.923,1.934 -3.826,3.344 0.305,-0.063 0.866,0.161 1.404,0.569 0.389,-0.747 1.038,-1.188 1.775,-1.398 0.852,-0.242 1.671,-0.286 2.508,0.495 0.824,0.768 0.804,2.025 -0.05,2.937 -0.549,0.586 -1.577,0.677 -2.044,0.243 -0.758,-0.705 -0.077,-1.775 0.578,-1.442 0.767,0.391 1.377,-0.115 0.939,-0.748 -0.566,-0.818 -1.53,-0.691 -2.018,-0.158 -1.524,1.667 -0.077,3.227 1.207,3.491 1.464,0.3 3.006,-1.512 3.085,-2.548 C -1.008,0.162 -0.47,0.232 0,0"
             id="path56260"
             style="fill:#36ade8;fill-opacity:1;fill-rule:evenodd;stroke:none" /></g><g
           transform="translate(154.1386,556.0785)"
           id="g56262"><path
             d="m 0,0 c 0.216,-0.478 0.127,-1.013 -0.267,-1.606 1.034,-0.115 2.791,-1.719 2.44,-3.172 -0.309,-1.275 -1.918,-2.667 -3.531,-1.084 -0.516,0.505 -0.609,1.473 0.229,2.011 0.647,0.416 1.132,-0.212 0.714,-0.965 -0.356,-0.643 0.69,-1.361 1.42,-0.628 0.451,0.452 0.396,1.483 -0.17,2.052 -0.883,0.884 -2.138,0.948 -2.934,0.151 -0.809,-0.809 -0.795,-1.628 -0.582,-2.488 0.184,-0.745 0.602,-1.409 1.335,-1.824 -0.426,-0.523 -0.671,-1.076 -0.618,-1.383 -1.342,1.952 -2.578,3.294 -3.208,3.941 -0.619,0.636 -1.923,1.934 -3.826,3.344 0.305,-0.063 0.866,0.161 1.404,0.569 0.389,-0.747 1.038,-1.188 1.775,-1.398 0.852,-0.242 1.671,-0.286 2.508,0.495 0.824,0.768 0.804,2.025 -0.05,2.937 -0.549,0.586 -1.577,0.677 -2.044,0.243 -0.758,-0.705 -0.077,-1.775 0.578,-1.442 0.767,0.391 1.377,-0.115 0.939,-0.748 -0.566,-0.818 -1.53,-0.691 -2.018,-0.158 -1.524,1.667 -0.077,3.227 1.207,3.491 1.464,0.3 3.006,-1.512 3.085,-2.548 C -1.008,0.162 -0.47,0.232 0,0 z"
             id="path56264"
             style="fill:none;stroke:#000000;stroke-width:0.35100001;stroke-linecap:butt;stroke-linejoin:miter;stroke-miterlimit:2.61299992;stroke-opacity:1;stroke-dasharray:none" /></g><g
           transform="translate(161.3295,544.627)"
           id="g56266"><path
             d="m 0,0 c 0.003,-0.524 -0.296,-0.978 -0.897,-1.359 0.898,-0.525 1.851,-2.705 0.938,-3.89 -0.8,-1.039 -2.836,-1.656 -3.666,0.446 -0.265,0.672 0.043,1.594 1.027,1.745 0.761,0.116 0.948,-0.654 0.26,-1.173 -0.587,-0.442 0.078,-1.523 1.043,-1.151 0.595,0.229 0.964,1.194 0.677,1.944 -0.445,1.167 -1.565,1.735 -2.618,1.332 -1.068,-0.411 -1.388,-1.165 -1.543,-2.037 -0.134,-0.755 -0.023,-1.532 0.477,-2.209 -0.602,-0.305 -1.049,-0.71 -1.126,-1.013 -0.433,2.33 -1.016,4.059 -1.329,4.906 -0.306,0.832 -0.969,2.549 -2.134,4.611 0.253,-0.182 0.856,-0.204 1.514,-0.051 0.051,-0.841 0.465,-1.507 1.053,-1.999 0.68,-0.568 1.41,-0.941 2.491,-0.568 1.066,0.367 1.559,1.522 1.15,2.703 C -2.945,2.995 -3.848,3.498 -4.452,3.29 -5.43,2.955 -5.244,1.7 -4.51,1.738 -3.65,1.783 -3.298,1.073 -3.956,0.673 -4.806,0.156 -5.635,0.664 -5.864,1.349 -6.579,3.493 -4.622,4.329 -3.341,4.048 -1.882,3.726 -1.21,1.444 -1.56,0.465 -0.855,0.559 -0.334,0.404 0,0"
             id="path56268"
             style="fill:#36ade8;fill-opacity:1;fill-rule:evenodd;stroke:none" /></g><g
           transform="translate(161.3295,544.627)"
           id="g56270"><path
             d="m 0,0 c 0.003,-0.524 -0.296,-0.978 -0.897,-1.359 0.898,-0.525 1.851,-2.705 0.938,-3.89 -0.8,-1.039 -2.836,-1.656 -3.666,0.446 -0.265,0.672 0.043,1.594 1.027,1.745 0.761,0.116 0.948,-0.654 0.26,-1.173 -0.587,-0.442 0.078,-1.523 1.043,-1.151 0.595,0.229 0.964,1.194 0.677,1.944 -0.445,1.167 -1.565,1.735 -2.618,1.332 -1.068,-0.411 -1.388,-1.165 -1.543,-2.037 -0.134,-0.755 -0.023,-1.532 0.477,-2.209 -0.602,-0.305 -1.049,-0.71 -1.126,-1.013 -0.433,2.33 -1.016,4.059 -1.329,4.906 -0.306,0.832 -0.969,2.549 -2.134,4.611 0.253,-0.182 0.856,-0.204 1.514,-0.051 0.051,-0.841 0.465,-1.507 1.053,-1.999 0.68,-0.568 1.41,-0.941 2.491,-0.568 1.066,0.367 1.559,1.522 1.15,2.703 C -2.945,2.995 -3.848,3.498 -4.452,3.29 -5.43,2.955 -5.244,1.7 -4.51,1.738 -3.65,1.783 -3.298,1.073 -3.956,0.673 -4.806,0.156 -5.635,0.664 -5.864,1.349 -6.579,3.493 -4.622,4.329 -3.341,4.048 -1.882,3.726 -1.21,1.444 -1.56,0.465 -0.855,0.559 -0.334,0.404 0,0 z"
             id="path56272"
             style="fill:none;stroke:#000000;stroke-width:0.35100001;stroke-linecap:butt;stroke-linejoin:miter;stroke-miterlimit:2.61299992;stroke-opacity:1;stroke-dasharray:none" /></g><g
           transform="translate(163.5222,531.8318)"
           id="g56274"><path
             d="m 0,0 c -0.194,-0.487 -0.641,-0.795 -1.341,-0.924 0.636,-0.823 0.702,-3.201 -0.587,-3.958 -1.131,-0.664 -3.25,-0.472 -3.233,1.787 0.006,0.722 0.637,1.462 1.606,1.233 0.749,-0.178 0.634,-0.962 -0.198,-1.184 -0.709,-0.191 -0.499,-1.442 0.535,-1.459 0.638,-0.01 1.341,0.746 1.357,1.548 0.024,1.25 -0.802,2.196 -1.928,2.216 -1.145,0.021 -1.724,-0.559 -2.195,-1.31 -0.408,-0.65 -0.595,-1.411 -0.384,-2.227 -0.673,-0.057 -1.24,-0.265 -1.424,-0.516 0.471,2.321 0.578,4.143 0.606,5.045 0.027,0.887 0.056,2.727 -0.253,5.076 0.167,-0.264 0.718,-0.511 1.384,-0.615 -0.266,-0.799 -0.133,-1.572 0.229,-2.249 0.418,-0.781 0.955,-1.399 2.097,-1.459 1.125,-0.059 2.016,0.827 2.079,2.075 0.04,0.802 -0.608,1.605 -1.246,1.64 -1.033,0.055 -1.33,-1.179 -0.635,-1.418 0.814,-0.28 0.873,-1.07 0.114,-1.195 -0.982,-0.161 -1.559,0.621 -1.515,1.342 0.14,2.255 2.267,2.298 3.348,1.557 C -0.35,4.16 -0.582,1.792 -1.274,1.016 -0.584,0.838 -0.16,0.5 0,0"
             id="path56276"
             style="fill:#36ade8;fill-opacity:1;fill-rule:evenodd;stroke:none" /></g><g
           transform="translate(163.5222,531.8318)"
           id="g56278"><path
             d="m 0,0 c -0.194,-0.487 -0.641,-0.795 -1.341,-0.924 0.636,-0.823 0.702,-3.201 -0.587,-3.958 -1.131,-0.664 -3.25,-0.472 -3.233,1.787 0.006,0.722 0.637,1.462 1.606,1.233 0.749,-0.178 0.634,-0.962 -0.198,-1.184 -0.709,-0.191 -0.499,-1.442 0.535,-1.459 0.638,-0.01 1.341,0.746 1.357,1.548 0.024,1.25 -0.802,2.196 -1.928,2.216 -1.145,0.021 -1.724,-0.559 -2.195,-1.31 -0.408,-0.65 -0.595,-1.411 -0.384,-2.227 -0.673,-0.057 -1.24,-0.265 -1.424,-0.516 0.471,2.321 0.578,4.143 0.606,5.045 0.027,0.887 0.056,2.727 -0.253,5.076 0.167,-0.264 0.718,-0.511 1.384,-0.615 -0.266,-0.799 -0.133,-1.572 0.229,-2.249 0.418,-0.781 0.955,-1.399 2.097,-1.459 1.125,-0.059 2.016,0.827 2.079,2.075 0.04,0.802 -0.608,1.605 -1.246,1.64 -1.033,0.055 -1.33,-1.179 -0.635,-1.418 0.814,-0.28 0.873,-1.07 0.114,-1.195 -0.982,-0.161 -1.559,0.621 -1.515,1.342 0.14,2.255 2.267,2.298 3.348,1.557 C -0.35,4.16 -0.582,1.792 -1.274,1.016 -0.584,0.838 -0.16,0.5 0,0 z"
             id="path56280"
             style="fill:none;stroke:#000000;stroke-width:0.35100001;stroke-linecap:butt;stroke-linejoin:miter;stroke-miterlimit:2.61299992;stroke-opacity:1;stroke-dasharray:none" /></g><g
           transform="translate(117.0107,563.4812)"
           id="g56282"><path
             d="m 0,0 c -0.386,-0.356 -0.513,-0.883 -0.382,-1.583 -0.996,0.298 -3.24,-0.492 -3.485,-1.967 -0.214,-1.293 0.724,-3.204 2.826,-2.377 0.673,0.264 1.137,1.118 0.576,1.94 -0.434,0.636 -1.125,0.248 -1.035,-0.609 0.077,-0.73 -1.166,-0.982 -1.553,-0.023 -0.238,0.593 0.216,1.52 0.96,1.822 1.157,0.47 2.337,0.038 2.759,-1.007 0.429,-1.061 0.095,-1.809 -0.437,-2.517 -0.46,-0.614 -1.104,-1.062 -1.941,-1.157 0.188,-0.649 0.197,-1.253 0.028,-1.515 1.999,1.272 3.661,2.024 4.493,2.374 0.818,0.343 2.526,1.029 4.829,1.583 -0.306,0.061 -0.734,0.487 -1.07,1.072 C 5.918,-4.5 5.148,-4.651 4.387,-4.556 3.508,-4.447 2.738,-4.167 2.273,-3.122 1.815,-2.092 2.324,-0.943 3.466,-0.437 4.2,-0.112 5.182,-0.43 5.443,-1.012 5.865,-1.957 4.819,-2.677 4.347,-2.114 3.793,-1.453 3.034,-1.681 3.19,-2.435 3.392,-3.41 4.329,-3.669 4.986,-3.369 7.041,-2.43 6.319,-0.429 5.239,0.316 4.008,1.165 1.881,0.099 1.404,-0.825 0.992,-0.245 0.523,0.03 0,0"
             id="path56284"
             style="fill:#36ade8;fill-opacity:1;fill-rule:evenodd;stroke:none" /></g><g
           transform="translate(117.0107,563.4812)"
           id="g56286"><path
             d="m 0,0 c -0.386,-0.356 -0.513,-0.883 -0.382,-1.583 -0.996,0.298 -3.24,-0.492 -3.485,-1.967 -0.214,-1.293 0.724,-3.204 2.826,-2.377 0.673,0.264 1.137,1.118 0.576,1.94 -0.434,0.636 -1.125,0.248 -1.035,-0.609 0.077,-0.73 -1.166,-0.982 -1.553,-0.023 -0.238,0.593 0.216,1.52 0.96,1.822 1.157,0.47 2.337,0.038 2.759,-1.007 0.429,-1.061 0.095,-1.809 -0.437,-2.517 -0.46,-0.614 -1.104,-1.062 -1.941,-1.157 0.188,-0.649 0.197,-1.253 0.028,-1.515 1.999,1.272 3.661,2.024 4.493,2.374 0.818,0.343 2.526,1.029 4.829,1.583 -0.306,0.061 -0.734,0.487 -1.07,1.072 C 5.918,-4.5 5.148,-4.651 4.387,-4.556 3.508,-4.447 2.738,-4.167 2.273,-3.122 1.815,-2.092 2.324,-0.943 3.466,-0.437 4.2,-0.112 5.182,-0.43 5.443,-1.012 5.865,-1.957 4.819,-2.677 4.347,-2.114 3.793,-1.453 3.034,-1.681 3.19,-2.435 3.392,-3.41 4.329,-3.669 4.986,-3.369 7.041,-2.43 6.319,-0.429 5.239,0.316 4.008,1.165 1.881,0.099 1.404,-0.825 0.992,-0.245 0.523,0.03 0,0 z"
             id="path56288"
             style="fill:none;stroke:#000000;stroke-width:0.35100001;stroke-linecap:butt;stroke-linejoin:miter;stroke-miterlimit:2.61299992;stroke-opacity:1;stroke-dasharray:none" /></g><g
           transform="translate(106.172,555.9901)"
           id="g56290"><path
             d="m 0,0 c -0.216,-0.478 -0.127,-1.013 0.267,-1.606 -1.034,-0.115 -2.791,-1.719 -2.44,-3.172 0.309,-1.275 1.918,-2.667 3.531,-1.084 0.516,0.506 0.609,1.473 -0.228,2.011 -0.648,0.416 -1.133,-0.211 -0.715,-0.965 0.356,-0.642 -0.69,-1.361 -1.421,-0.628 -0.45,0.452 -0.395,1.483 0.172,2.052 0.882,0.884 2.136,0.948 2.933,0.152 0.81,-0.81 0.795,-1.629 0.582,-2.489 -0.184,-0.745 -0.602,-1.408 -1.335,-1.823 0.426,-0.524 0.671,-1.077 0.618,-1.384 1.342,1.952 2.579,3.294 3.208,3.941 0.619,0.636 1.923,1.934 3.826,3.344 C 8.693,-1.714 8.133,-1.49 7.594,-1.082 7.205,-1.829 6.556,-2.269 5.819,-2.48 4.967,-2.722 4.149,-2.766 3.312,-1.985 2.488,-1.217 2.507,0.04 3.361,0.952 3.91,1.538 4.938,1.63 5.406,1.195 6.163,0.49 5.482,-0.58 4.827,-0.247 4.06,0.145 3.45,-0.362 3.888,-0.995 4.455,-1.813 5.418,-1.686 5.906,-1.153 7.431,0.514 5.984,2.074 4.699,2.338 3.235,2.639 1.693,0.826 1.615,-0.21 1.008,0.162 0.47,0.233 0,0"
             id="path56292"
             style="fill:#36ade8;fill-opacity:1;fill-rule:evenodd;stroke:none" /></g><g
           transform="translate(106.172,555.9901)"
           id="g56294"><path
             d="m 0,0 c -0.216,-0.478 -0.127,-1.013 0.267,-1.606 -1.034,-0.115 -2.791,-1.719 -2.44,-3.172 0.309,-1.275 1.918,-2.667 3.531,-1.084 0.516,0.506 0.609,1.473 -0.228,2.011 -0.648,0.416 -1.133,-0.211 -0.715,-0.965 0.356,-0.642 -0.69,-1.361 -1.421,-0.628 -0.45,0.452 -0.395,1.483 0.172,2.052 0.882,0.884 2.136,0.948 2.933,0.152 0.81,-0.81 0.795,-1.629 0.582,-2.489 -0.184,-0.745 -0.602,-1.408 -1.335,-1.823 0.426,-0.524 0.671,-1.077 0.618,-1.384 1.342,1.952 2.579,3.294 3.208,3.941 0.619,0.636 1.923,1.934 3.826,3.344 C 8.693,-1.714 8.133,-1.49 7.594,-1.082 7.205,-1.829 6.556,-2.269 5.819,-2.48 4.967,-2.722 4.149,-2.766 3.312,-1.985 2.488,-1.217 2.507,0.04 3.361,0.952 3.91,1.538 4.938,1.63 5.406,1.195 6.163,0.49 5.482,-0.58 4.827,-0.247 4.06,0.145 3.45,-0.362 3.888,-0.995 4.455,-1.813 5.418,-1.686 5.906,-1.153 7.431,0.514 5.984,2.074 4.699,2.338 3.235,2.639 1.693,0.826 1.615,-0.21 1.008,0.162 0.47,0.233 0,0 z"
             id="path56296"
             style="fill:none;stroke:#000000;stroke-width:0.35100001;stroke-linecap:butt;stroke-linejoin:miter;stroke-miterlimit:2.61299992;stroke-opacity:1;stroke-dasharray:none" /></g><g
           transform="translate(99.1396,544.7328)"
           id="g56298"><path
             d="m 0,0 c -0.003,-0.524 0.296,-0.977 0.897,-1.359 -0.898,-0.525 -1.85,-2.705 -0.938,-3.89 0.8,-1.038 2.836,-1.655 3.666,0.446 0.266,0.672 -0.043,1.594 -1.027,1.745 C 1.838,-2.942 1.65,-3.712 2.338,-4.231 2.925,-4.673 2.261,-5.754 1.296,-5.382 0.7,-5.153 0.332,-4.188 0.618,-3.438 c 0.445,1.167 1.566,1.735 2.618,1.332 1.069,-0.411 1.388,-1.165 1.543,-2.037 0.135,-0.755 0.024,-1.532 -0.477,-2.208 0.602,-0.306 1.05,-0.711 1.127,-1.013 0.432,2.329 1.016,4.058 1.328,4.905 C 7.063,-1.627 7.726,0.09 8.892,2.152 8.639,1.97 8.035,1.947 7.378,2.101 7.327,1.26 6.912,0.594 6.324,0.102 5.644,-0.466 4.915,-0.839 3.833,-0.466 2.768,-0.099 2.274,1.057 2.683,2.237 2.946,2.996 3.848,3.498 4.452,3.291 5.431,2.955 5.244,1.7 4.51,1.738 3.65,1.784 3.299,1.073 3.956,0.673 4.807,0.156 5.636,0.664 5.864,1.349 6.579,3.493 4.622,4.329 3.342,4.048 1.882,3.726 1.21,1.444 1.561,0.465 0.855,0.559 0.335,0.404 0,0"
             id="path56300"
             style="fill:#36ade8;fill-opacity:1;fill-rule:evenodd;stroke:none" /></g><g
           transform="translate(99.1396,544.7328)"
           id="g56302"><path
             d="m 0,0 c -0.003,-0.524 0.296,-0.977 0.897,-1.359 -0.898,-0.525 -1.85,-2.705 -0.938,-3.89 0.8,-1.038 2.836,-1.655 3.666,0.446 0.266,0.672 -0.043,1.594 -1.027,1.745 C 1.838,-2.942 1.65,-3.712 2.338,-4.231 2.925,-4.673 2.261,-5.754 1.296,-5.382 0.7,-5.153 0.332,-4.188 0.618,-3.438 c 0.445,1.167 1.566,1.735 2.618,1.332 1.069,-0.411 1.388,-1.165 1.543,-2.037 0.135,-0.755 0.024,-1.532 -0.477,-2.208 0.602,-0.306 1.05,-0.711 1.127,-1.013 0.432,2.329 1.016,4.058 1.328,4.905 C 7.063,-1.627 7.726,0.09 8.892,2.152 8.639,1.97 8.035,1.947 7.378,2.101 7.327,1.26 6.912,0.594 6.324,0.102 5.644,-0.466 4.915,-0.839 3.833,-0.466 2.768,-0.099 2.274,1.057 2.683,2.237 2.946,2.996 3.848,3.498 4.452,3.291 5.431,2.955 5.244,1.7 4.51,1.738 3.65,1.784 3.299,1.073 3.956,0.673 4.807,0.156 5.636,0.664 5.864,1.349 6.579,3.493 4.622,4.329 3.342,4.048 1.882,3.726 1.21,1.444 1.561,0.465 0.855,0.559 0.335,0.404 0,0 z"
             id="path56304"
             style="fill:none;stroke:#000000;stroke-width:0.35100001;stroke-linecap:butt;stroke-linejoin:miter;stroke-miterlimit:2.61299992;stroke-opacity:1;stroke-dasharray:none" /></g><g
           transform="translate(96.9131,531.9379)"
           id="g56306"><path
             d="M 0,0 C 0.194,-0.488 0.641,-0.795 1.341,-0.924 0.705,-1.747 0.638,-4.125 1.928,-4.882 3.059,-5.546 5.178,-5.355 5.161,-3.095 5.155,-2.373 4.523,-1.633 3.555,-1.862 2.806,-2.04 2.92,-2.824 3.752,-3.047 c 0.71,-0.19 0.5,-1.441 -0.534,-1.458 -0.639,-0.01 -1.342,0.746 -1.357,1.548 -0.024,1.249 0.802,2.197 1.928,2.216 1.145,0.02 1.723,-0.559 2.194,-1.31 0.408,-0.65 0.596,-1.411 0.385,-2.227 C 7.04,-4.335 7.607,-4.543 7.792,-4.794 7.32,-2.473 7.214,-0.651 7.186,0.251 7.158,1.138 7.13,2.977 7.439,5.326 7.272,5.063 6.721,4.815 6.054,4.712 6.321,3.913 6.187,3.14 5.826,2.464 5.408,1.682 4.872,1.063 3.728,1.004 2.603,0.945 1.713,1.831 1.65,3.079 1.61,3.881 2.258,4.684 2.896,4.718 3.929,4.774 4.226,3.54 3.531,3.301 2.716,3.021 2.657,2.23 3.417,2.106 4.398,1.945 4.977,2.727 4.932,3.448 4.792,5.703 2.664,5.745 1.583,5.005 0.349,4.16 0.582,1.792 1.273,1.016 0.584,0.838 0.159,0.5 0,0"
             id="path56308"
             style="fill:#36ade8;fill-opacity:1;fill-rule:evenodd;stroke:none" /></g><g
           transform="translate(96.9131,531.9379)"
           id="g56310"><path
             d="M 0,0 C 0.194,-0.488 0.641,-0.795 1.341,-0.924 0.705,-1.747 0.638,-4.125 1.928,-4.882 3.059,-5.546 5.178,-5.355 5.161,-3.095 5.155,-2.373 4.523,-1.633 3.555,-1.862 2.806,-2.04 2.92,-2.824 3.752,-3.047 c 0.71,-0.19 0.5,-1.441 -0.534,-1.458 -0.639,-0.01 -1.342,0.746 -1.357,1.548 -0.024,1.249 0.802,2.197 1.928,2.216 1.145,0.02 1.723,-0.559 2.194,-1.31 0.408,-0.65 0.596,-1.411 0.385,-2.227 C 7.04,-4.335 7.607,-4.543 7.792,-4.794 7.32,-2.473 7.214,-0.651 7.186,0.251 7.158,1.138 7.13,2.977 7.439,5.326 7.272,5.063 6.721,4.815 6.054,4.712 6.321,3.913 6.187,3.14 5.826,2.464 5.408,1.682 4.872,1.063 3.728,1.004 2.603,0.945 1.713,1.831 1.65,3.079 1.61,3.881 2.258,4.684 2.896,4.718 3.929,4.774 4.226,3.54 3.531,3.301 2.716,3.021 2.657,2.23 3.417,2.106 4.398,1.945 4.977,2.727 4.932,3.448 4.792,5.703 2.664,5.745 1.583,5.005 0.349,4.16 0.582,1.792 1.273,1.016 0.584,0.838 0.159,0.5 0,0 z"
             id="path56312"
             style="fill:none;stroke:#000000;stroke-width:0.35100001;stroke-linecap:butt;stroke-linejoin:miter;stroke-miterlimit:2.61299992;stroke-opacity:1;stroke-dasharray:none" /></g><g
           transform="translate(104.1589,532.8735)"
           id="g56314"><path
             d="M 0,0 C 0,14.38 11.656,26.037 26.036,26.037 40.416,26.037 52.072,14.38 52.072,0 52.072,-14.38 40.416,-26.037 26.036,-26.037 11.656,-26.037 0,-14.38 0,0"
             id="path56316"
             style="fill:none;stroke:#000000;stroke-width:0.602;stroke-linecap:butt;stroke-linejoin:miter;stroke-miterlimit:2.61299992;stroke-opacity:1;stroke-dasharray:none" /></g><g
           transform="translate(112.8026,526.4827)"
           id="g56318"><path
             d="m 0,0 c 0.742,-0.092 1.088,-0.787 1.088,-1.519 l 0,-0.713 c 0,-0.312 -0.35,-0.56 -0.661,-0.56 -0.457,0 -0.665,0.349 -1.122,0.349 -0.394,0 -0.794,-0.277 -0.794,-0.671 0,-0.283 0.534,-0.479 0.449,-0.636 -0.128,-0.176 -0.197,-0.134 -0.297,-0.134 -0.476,0 -0.53,0.709 -1.005,0.709 -0.275,0 -0.311,-0.24 -0.311,-0.515 0,-0.439 0.481,-0.37 0.655,-0.764 0.133,-0.304 0.335,-0.847 0.4,-1.116 0.064,-0.264 0.291,-0.498 0.564,-0.679 0.533,-0.352 0.843,-0.576 0.818,-0.994 -0.017,-0.291 -0.485,-0.574 -0.485,-0.976 0,-0.129 0.121,-0.243 0.249,-0.243 0.402,0 0.622,0.437 1.025,0.437 0.362,0 0.734,-0.048 0.97,-0.237 0.376,-0.302 0.572,-0.527 0.903,-0.928 0.294,-0.354 0.667,-0.97 0.985,-0.957 0.234,-0.037 0.203,0.674 0.267,0.973 0.145,0.679 0.091,1.377 0.161,2.228 -0.009,0.567 0.103,0.752 0.164,1.395 0.04,0.422 0.096,1.08 0.115,1.485 0.015,0.321 0.114,0.443 0.449,0.443 0.228,0 0.238,-0.139 0.467,-0.139 0.457,0 0.409,0.582 0.867,0.582 0.409,0 0.6,0.066 0.94,-0.007 0.339,-0.139 0.705,-0.114 0.928,-0.388 0.424,-0.521 0.897,-0.813 1.364,-1.206 0.329,-0.274 0.383,-0.382 0.7,-0.691 0.688,-0.668 0.583,-0.861 0.949,-1.147 0.313,-0.244 0.417,-0.261 0.885,-0.261 0.229,0 1.039,0.031 1.268,0.031 0.466,0 0.4,-0.255 0.867,-0.255 0.439,0 0.392,0.211 0.685,0.54 0.297,0.26 0.453,-0.262 0.619,-0.449 0.249,-0.282 0.417,-0.581 0.858,-0.691 0.233,-0.079 0.106,-0.281 0.106,-0.346 0,-0.293 -0.188,-0.156 -0.188,-0.449 0,-0.484 -0.031,-0.57 -0.031,-1.055 0.025,-0.206 0.258,-0.167 0.413,-0.175 0.23,-0.013 0.188,0.23 0.352,0.163 0.212,-0.2 0.03,-0.468 0.03,-0.697 0,-0.275 0.141,-0.579 0.416,-0.579 0.219,0 0.723,0.027 0.888,0.027 0.146,0 0.302,0.182 0.448,0.182 0.522,0 0.11,-1.037 0.631,-1.037 0.329,0 -0.096,0.757 0.23,0.728 0.667,-0.061 0.574,0.717 0.922,0.927 0.316,0.195 0.358,0.284 0.6,0.461 0.271,0.198 0.681,0.313 0.874,0.68 0.137,0.274 0.351,0.447 0.442,0.739 0.083,0.266 0.262,0.541 0.545,0.541 0.312,0 0.502,-0.134 0.814,-0.134 0.265,0 0.468,0.024 0.733,0.024 0.366,0 0.253,-0.249 0.618,-0.249 0.211,0 0.261,0.208 0.261,0.419 0,0.338 -0.418,0.321 -0.279,0.576 l 0.187,0.242 c 0.25,0.17 0.402,0.391 0.638,0.334 0.322,-0.078 0.996,-0.485 1.413,-0.485 0.842,0 0.577,0.636 1.419,0.636 0.192,0 0.679,-0.042 1.031,-0.042 0.366,0 0.719,0.115 1.085,0.115 0.641,0 0.548,-0.115 1.189,-0.115 0.402,0 0.634,-0.23 1.037,-0.224 0.466,0.006 0.63,0.869 0.63,1.583 0,0.292 -0.379,0.601 -0.442,0.885 -0.098,0.422 -0.258,0.824 -0.438,1.128 -0.205,0.348 -0.739,0.097 -0.696,0.521 0.066,0.303 0.224,0.607 0.782,0.528 1.182,-0.061 0.839,0.485 1.31,0.461 0.479,-0.025 1.043,0.109 1.036,0.43 -0.006,0.303 -0.636,0.549 -0.636,1.098 0,0.421 0.175,0.796 0.175,1.217 0,0.082 -0.183,0.522 -0.183,0.686 0,0.229 0.248,0.33 0.476,0.33 0.723,0 1.533,-0.014 1.758,-0.542 0.271,0.662 0.814,0.627 0.942,0.935 0.106,0.26 -0.659,0.915 -0.659,1.583 0,0.522 0.299,0.885 0.674,1.194 0.189,0.155 0.021,0.702 0.079,0.909 0.076,0.269 0.655,0.097 0.752,0.358 -0.369,0.121 -0.74,0.443 -1.14,1.001 -0.261,-0.291 -0.288,-0.874 -0.8,-0.874 -0.467,0 -0.732,0.339 -1.134,0.558 -0.412,0.22 -0.607,-0.144 -1.019,0.103 -0.476,0.284 -0.597,0.94 -1.146,0.94 -0.211,0 -0.545,-0.499 -0.71,-0.618 C 31.989,7.606 31.695,7.65 31.164,7.65 30.707,7.65 30.894,8.438 30.436,8.438 30.135,8.438 30,8.067 30,7.765 30,7.573 30.01,7.068 29.818,7.068 c -0.513,0 -0.632,0.755 -0.861,1.213 -0.32,0.649 -0.695,0.851 -1.116,1.437 -0.42,0.594 -0.796,0.896 -1.455,1.197 -0.357,0.165 -1,0.14 -1,0.543 0,0.513 0.102,0.358 0.188,0.91 0.009,0.063 0.015,0.479 -0.067,0.479 -0.632,0 -0.558,-0.552 -1.014,-1.053 0,0 -0.183,-0.189 -0.417,-0.524 -0.346,-0.443 -0.562,-0.624 -1.019,-0.624 -0.21,0 -0.443,-0.122 -0.697,0.042 -0.176,0.097 0.297,0.491 0.156,0.731 -0.302,0.106 -0.44,-0.088 -0.696,-0.088 -0.21,0 -0.223,-0.425 -0.412,-0.334 -0.176,0.085 -0.115,0.382 -0.479,0.34 L 20.395,11.27 c -0.174,0.027 -0.324,0.015 -0.497,-0.012 -0.369,-0.03 0.194,0.563 0.194,0.819 0,0.402 0.081,0.885 -0.322,0.885 -0.128,0 -0.266,-0.152 -0.428,-0.189 -0.384,-0.054 -0.398,0.268 -0.699,0.268 -0.398,0 -0.781,-0.141 -1.05,-0.352 -0.304,-0.238 -0.442,-0.479 -0.842,-0.37 -0.194,-0.106 -0.335,-0.379 -0.594,-0.379 -0.311,0 -0.79,-0.003 -1.074,-0.13 -0.612,-0.273 -0.703,-0.532 -1.279,-0.825 -0.412,-0.201 -0.74,-0.133 -1.189,-0.243 -0.311,-0.073 -0.483,-0.572 -0.74,-0.382 -0.424,0.316 -0.675,0.328 -1.261,0.328 -0.21,0 -0.467,-0.19 -0.467,-0.4 0,-0.778 1.134,-0.94 1.177,-1.419 0.008,-0.091 -0.115,-0.17 -0.207,-0.17 -0.283,0 -0.407,0.315 -0.691,0.315 C 10.106,9.014 9.89,8.939 9.89,8.619 9.89,8.39 10.117,8.176 10.117,7.947 10.117,7.535 9.626,7.704 9.462,7.28 9.38,7.066 9.541,7.139 9.541,6.91 9.541,6.846 9.583,6.718 9.634,6.679 10.075,6.34 10.85,6.664 11.014,6.17 10.82,5.607 10.349,5.161 9.589,5.146 9.315,5.255 9.479,5.431 9.177,5.431 8.894,5.431 8.896,5.062 8.686,4.879 7.54,5.2 7.667,6.122 7.213,6.134 6.865,6.143 6.881,5.698 6.533,5.698 6.295,5.698 6.407,6.085 6.17,6.085 5.895,6.085 5.886,6.049 5.612,6.049 5.282,6.049 5.025,5.521 4.696,5.521 4.412,5.521 4.242,6.078 4.077,6.298 3.553,6.67 3.756,5.455 3.495,5.412 3.178,5.368 3.326,6.546 2.962,6.655 2.826,6.957 2.808,7.301 2.443,7.301 2.232,7.301 2.228,7.128 1.93,7.155 L 1.784,7.192 C 1.513,7.413 1.619,7.715 1.573,8.062 1.418,8.072 1.39,8.106 1.235,8.106 1.006,8.106 0.953,7.644 0.724,7.644 0.404,7.644 0.523,8.196 0.203,8.196 -0.209,8.196 -0.07,7.492 -0.701,7.535 -1.379,7.58 -1.465,7.135 -1.78,6.874 -1.972,6.715 -2.271,6.965 -2.447,6.819 -2.617,6.686 -2.362,5.485 -2.514,5.358 -2.641,5.251 -2.949,5.359 -3.017,5.473 -3.493,5.949 -3.417,6.716 -3.66,6.716 -4.116,6.716 -3.778,5.88 -4.321,5.752 -4.782,5.643 -4.532,4.927 -4.751,4.442 -4.925,4.049 -5.58,3.901 -5.461,3.478 -5.37,3.156 -4.685,3.326 -4.932,2.946 -5.002,2.839 -5.018,2.83 -5.018,2.702 c 0,-0.375 0.327,-0.503 0.655,-0.667 0.082,-0.041 0.317,-0.07 0.4,-0.109 0.267,-0.128 0.317,-0.402 0.473,-0.668 0.156,-0.265 0.457,-0.558 0.364,-0.855 -0.067,-0.212 -0.54,-0.029 -0.54,-0.248 0,-0.394 0.637,-0.558 1.031,-0.558 0.549,0 0.75,0.586 1.299,0.586 0.375,0 0.429,0.002 0.799,-0.083 C -0.367,0.04 -0.27,0.033 0,0"
             id="path56320"
             style="fill:#36ade8;fill-opacity:1;fill-rule:evenodd;stroke:none" /></g><g
           transform="translate(112.8026,526.4827)"
           id="g56322"><path
             d="m 0,0 c 0.742,-0.092 1.088,-0.787 1.088,-1.519 l 0,-0.713 c 0,-0.312 -0.35,-0.56 -0.661,-0.56 -0.457,0 -0.665,0.349 -1.122,0.349 -0.394,0 -0.794,-0.277 -0.794,-0.671 0,-0.283 0.534,-0.479 0.449,-0.636 -0.128,-0.176 -0.197,-0.134 -0.297,-0.134 -0.476,0 -0.53,0.709 -1.005,0.709 -0.275,0 -0.311,-0.24 -0.311,-0.515 0,-0.439 0.481,-0.37 0.655,-0.764 0.133,-0.304 0.335,-0.847 0.4,-1.116 0.064,-0.264 0.291,-0.498 0.564,-0.679 0.533,-0.352 0.843,-0.576 0.818,-0.994 -0.017,-0.291 -0.485,-0.574 -0.485,-0.976 0,-0.129 0.121,-0.243 0.249,-0.243 0.402,0 0.622,0.437 1.025,0.437 0.362,0 0.734,-0.048 0.97,-0.237 0.376,-0.302 0.572,-0.527 0.903,-0.928 0.294,-0.354 0.667,-0.97 0.985,-0.957 0.234,-0.037 0.203,0.674 0.267,0.973 0.145,0.679 0.091,1.377 0.161,2.228 -0.009,0.567 0.103,0.752 0.164,1.395 0.04,0.422 0.096,1.08 0.115,1.485 0.015,0.321 0.114,0.443 0.449,0.443 0.228,0 0.238,-0.139 0.467,-0.139 0.457,0 0.409,0.582 0.867,0.582 0.409,0 0.6,0.066 0.94,-0.007 0.339,-0.139 0.705,-0.114 0.928,-0.388 0.424,-0.521 0.897,-0.813 1.364,-1.206 0.329,-0.274 0.383,-0.382 0.7,-0.691 0.688,-0.668 0.583,-0.861 0.949,-1.147 0.313,-0.244 0.417,-0.261 0.885,-0.261 0.229,0 1.039,0.031 1.268,0.031 0.466,0 0.4,-0.255 0.867,-0.255 0.439,0 0.392,0.211 0.685,0.54 0.297,0.26 0.453,-0.262 0.619,-0.449 0.249,-0.282 0.417,-0.581 0.858,-0.691 0.233,-0.079 0.106,-0.281 0.106,-0.346 0,-0.293 -0.188,-0.156 -0.188,-0.449 0,-0.484 -0.031,-0.57 -0.031,-1.055 0.025,-0.206 0.258,-0.167 0.413,-0.175 0.23,-0.013 0.188,0.23 0.352,0.163 0.212,-0.2 0.03,-0.468 0.03,-0.697 0,-0.275 0.141,-0.579 0.416,-0.579 0.219,0 0.723,0.027 0.888,0.027 0.146,0 0.302,0.182 0.448,0.182 0.522,0 0.11,-1.037 0.631,-1.037 0.329,0 -0.096,0.757 0.23,0.728 0.667,-0.061 0.574,0.717 0.922,0.927 0.316,0.195 0.358,0.284 0.6,0.461 0.271,0.198 0.681,0.313 0.874,0.68 0.137,0.274 0.351,0.447 0.442,0.739 0.083,0.266 0.262,0.541 0.545,0.541 0.312,0 0.502,-0.134 0.814,-0.134 0.265,0 0.468,0.024 0.733,0.024 0.366,0 0.253,-0.249 0.618,-0.249 0.211,0 0.261,0.208 0.261,0.419 0,0.338 -0.418,0.321 -0.279,0.576 l 0.187,0.242 c 0.25,0.17 0.402,0.391 0.638,0.334 0.322,-0.078 0.996,-0.485 1.413,-0.485 0.842,0 0.577,0.636 1.419,0.636 0.192,0 0.679,-0.042 1.031,-0.042 0.366,0 0.719,0.115 1.085,0.115 0.641,0 0.548,-0.115 1.189,-0.115 0.402,0 0.634,-0.23 1.037,-0.224 0.466,0.006 0.63,0.869 0.63,1.583 0,0.292 -0.379,0.601 -0.442,0.885 -0.098,0.422 -0.258,0.824 -0.438,1.128 -0.205,0.348 -0.739,0.097 -0.696,0.521 0.066,0.303 0.224,0.607 0.782,0.528 1.182,-0.061 0.839,0.485 1.31,0.461 0.479,-0.025 1.043,0.109 1.036,0.43 -0.006,0.303 -0.636,0.549 -0.636,1.098 0,0.421 0.175,0.796 0.175,1.217 0,0.082 -0.183,0.522 -0.183,0.686 0,0.229 0.248,0.33 0.476,0.33 0.723,0 1.533,-0.014 1.758,-0.542 0.271,0.662 0.814,0.627 0.942,0.935 0.106,0.26 -0.659,0.915 -0.659,1.583 0,0.522 0.299,0.885 0.674,1.194 0.189,0.155 0.021,0.702 0.079,0.909 0.076,0.269 0.655,0.097 0.752,0.358 -0.369,0.121 -0.74,0.443 -1.14,1.001 -0.261,-0.291 -0.288,-0.874 -0.8,-0.874 -0.467,0 -0.732,0.339 -1.134,0.558 -0.412,0.22 -0.607,-0.144 -1.019,0.103 -0.476,0.284 -0.597,0.94 -1.146,0.94 -0.211,0 -0.545,-0.499 -0.71,-0.618 C 31.989,7.606 31.695,7.65 31.164,7.65 30.707,7.65 30.894,8.438 30.436,8.438 30.135,8.438 30,8.067 30,7.765 30,7.573 30.01,7.068 29.818,7.068 c -0.513,0 -0.632,0.755 -0.861,1.213 -0.32,0.649 -0.695,0.851 -1.116,1.437 -0.42,0.594 -0.796,0.896 -1.455,1.197 -0.357,0.165 -1,0.14 -1,0.543 0,0.513 0.102,0.358 0.188,0.91 0.009,0.063 0.015,0.479 -0.067,0.479 -0.632,0 -0.558,-0.552 -1.014,-1.053 0,0 -0.183,-0.189 -0.417,-0.524 -0.346,-0.443 -0.562,-0.624 -1.019,-0.624 -0.21,0 -0.443,-0.122 -0.697,0.042 -0.176,0.097 0.297,0.491 0.156,0.731 -0.302,0.106 -0.44,-0.088 -0.696,-0.088 -0.21,0 -0.223,-0.425 -0.412,-0.334 -0.176,0.085 -0.115,0.382 -0.479,0.34 L 20.395,11.27 c -0.174,0.027 -0.324,0.015 -0.497,-0.012 -0.369,-0.03 0.194,0.563 0.194,0.819 0,0.402 0.081,0.885 -0.322,0.885 -0.128,0 -0.266,-0.152 -0.428,-0.189 -0.384,-0.054 -0.398,0.268 -0.699,0.268 -0.398,0 -0.781,-0.141 -1.05,-0.352 -0.304,-0.238 -0.442,-0.479 -0.842,-0.37 -0.194,-0.106 -0.335,-0.379 -0.594,-0.379 -0.311,0 -0.79,-0.003 -1.074,-0.13 -0.612,-0.273 -0.703,-0.532 -1.279,-0.825 -0.412,-0.201 -0.74,-0.133 -1.189,-0.243 -0.311,-0.073 -0.483,-0.572 -0.74,-0.382 -0.424,0.316 -0.675,0.328 -1.261,0.328 -0.21,0 -0.467,-0.19 -0.467,-0.4 0,-0.778 1.134,-0.94 1.177,-1.419 0.008,-0.091 -0.115,-0.17 -0.207,-0.17 -0.283,0 -0.407,0.315 -0.691,0.315 C 10.106,9.014 9.89,8.939 9.89,8.619 9.89,8.39 10.117,8.176 10.117,7.947 10.117,7.535 9.626,7.704 9.462,7.28 9.38,7.066 9.541,7.139 9.541,6.91 9.541,6.846 9.583,6.718 9.634,6.679 10.075,6.34 10.85,6.664 11.014,6.17 10.82,5.607 10.349,5.161 9.589,5.146 9.315,5.255 9.479,5.431 9.177,5.431 8.894,5.431 8.896,5.062 8.686,4.879 7.54,5.2 7.667,6.122 7.213,6.134 6.865,6.143 6.881,5.698 6.533,5.698 6.295,5.698 6.407,6.085 6.17,6.085 5.895,6.085 5.886,6.049 5.612,6.049 5.282,6.049 5.025,5.521 4.696,5.521 4.412,5.521 4.242,6.078 4.077,6.298 3.553,6.67 3.756,5.455 3.495,5.412 3.178,5.368 3.326,6.546 2.962,6.655 2.826,6.957 2.808,7.301 2.443,7.301 2.232,7.301 2.228,7.128 1.93,7.155 L 1.784,7.192 C 1.513,7.413 1.619,7.715 1.573,8.062 1.418,8.072 1.39,8.106 1.235,8.106 1.006,8.106 0.953,7.644 0.724,7.644 0.404,7.644 0.523,8.196 0.203,8.196 -0.209,8.196 -0.07,7.492 -0.701,7.535 -1.379,7.58 -1.465,7.135 -1.78,6.874 -1.972,6.715 -2.271,6.965 -2.447,6.819 -2.617,6.686 -2.362,5.485 -2.514,5.358 -2.641,5.251 -2.949,5.359 -3.017,5.473 -3.493,5.949 -3.417,6.716 -3.66,6.716 -4.116,6.716 -3.778,5.88 -4.321,5.752 -4.782,5.643 -4.532,4.927 -4.751,4.442 -4.925,4.049 -5.58,3.901 -5.461,3.478 -5.37,3.156 -4.685,3.326 -4.932,2.946 -5.002,2.839 -5.018,2.83 -5.018,2.702 c 0,-0.375 0.327,-0.503 0.655,-0.667 0.082,-0.041 0.317,-0.07 0.4,-0.109 0.267,-0.128 0.317,-0.402 0.473,-0.668 0.156,-0.265 0.457,-0.558 0.364,-0.855 -0.067,-0.212 -0.54,-0.029 -0.54,-0.248 0,-0.394 0.637,-0.558 1.031,-0.558 0.549,0 0.75,0.586 1.299,0.586 0.375,0 0.429,0.002 0.799,-0.083 C -0.367,0.04 -0.27,0.033 0,0 z"
             id="path56324"
             style="fill:none;stroke:#000000;stroke-width:0.421;stroke-linecap:butt;stroke-linejoin:miter;stroke-miterlimit:2.61299992;stroke-opacity:1;stroke-dasharray:none" /></g><g
           transform="translate(111.0436,524.9869)"
           id="g56326"><path
             d="M 0,0 1.984,1.238 1.513,3.255 3.211,1.753 5.15,2.863 4.186,0.969 5.872,-0.74 3.805,-0.404 2.953,-2.432 2.381,-0.393 0,0 z"
             id="path56328"
             style="fill:#ffffff;fill-opacity:1;fill-rule:evenodd;stroke:none" /></g><g
           transform="translate(111.0436,524.9869)"
           id="g56330"><path
             d="M 0,0 1.984,1.238 1.513,3.255 3.211,1.753 5.15,2.863 4.186,0.969 5.872,-0.74 3.805,-0.404 2.953,-2.432 2.381,-0.393 0,0 z"
             id="path56332"
             style="fill:none;stroke:#000000;stroke-width:0.421;stroke-linecap:butt;stroke-linejoin:miter;stroke-miterlimit:2.61299992;stroke-opacity:1;stroke-dasharray:none" /></g><g
           transform="translate(121.49,533.6437)"
           id="g56334"><path
             d="m 0,0 c 0.735,15.975 3.902,25.31 8.617,25.256 4.282,-0.05 6.616,-6.904 8.075,-19.077 M 25.689,2.33 C 25.527,5.268 25.148,7.4 24.55,8.726 M -4.878,9.051 c 2.663,-0.6 5.679,-0.943 9.051,-1.03 m 8.942,0 c 2.418,0.019 4.297,0.164 5.636,0.434 m 8.671,1.951 c 1.76,0.728 2.97,1.378 3.631,1.951 m -44.764,0 c 1.421,-1.272 3.444,-2.194 6.069,-2.764 M -7.425,8.888 C -8.201,5.733 -8.58,3.348 -8.563,1.734 m 0.596,17.506 1.843,-0.596 m 6.937,-1.518 3.522,-0.325 m 8.455,0 3.631,0.325 m 8.834,2.114 -2.276,-0.704 m 7.912,-19.132 3.793,0 m -52.026,0 3.414,0 m 0.108,-12.953 2.493,1.3 m 37.016,0.922 c 1.989,-0.435 3.869,-1.176 5.636,-2.222 m -39.238,-7.046 c 3.576,1.504 8.254,2.39 14.037,2.656 m 6.828,-0.217 c 4.498,-0.317 8.581,-1.129 12.249,-2.439 m -5.095,39.131 c -3.507,4.44 -7.338,6.68 -11.489,6.72 C 4.219,25.32 0.335,22.989 -3.035,18.264 m 18.101,-35.065 c -1.42,-6.12 -3.577,-9.81 -6.449,-9.864 -3.097,-0.058 -5.514,4.173 -7.262,11.978 m 21.461,-0.705 c -3.206,-7.113 -8.237,-11.11 -14.199,-11.273 -5.31,-0.145 -9.663,3.104 -13.061,8.726 m 26.068,34.144 c 1.324,-2.44 2.064,-4.12 2.222,-5.04 M 8.563,25.31 l 0,-7.967 m 0,-2.276 0,-5.42 m 0,-2.385 0,-1.083 m 0,-26.286 0,-6.341"
             id="path56336"
             style="fill:none;stroke:#000000;stroke-width:0.301;stroke-linecap:butt;stroke-linejoin:miter;stroke-miterlimit:2.61299992;stroke-opacity:1;stroke-dasharray:none" /></g><g
           transform="translate(115.6916,552.0853)"
           id="g56338"><path
             d="M 0,0 C 0.1,0.154 0.229,0.194 0.386,0.119 1.926,-0.378 3.738,-0.79 5.822,-1.115 5.954,-1.164 6.018,-1.273 6.015,-1.443 L 5.673,-2.532 C 5.589,-2.681 5.481,-2.745 5.346,-2.725 L 3.439,-2.379 C 3.277,-2.326 3.173,-2.356 3.127,-2.468 1.931,-4.785 1.047,-7.014 0.476,-9.153 0.357,-9.366 0.188,-9.446 -0.03,-9.391 l -1.159,0.208 c -0.268,0.06 -0.372,0.149 -0.327,0.328 0.561,1.844 1.524,4.106 2.888,6.788 0.052,0.137 0.032,0.221 -0.059,0.253 l -1.64,0.461 c -0.188,0.076 -0.238,0.133 -0.179,0.312 L 0,0 z"
             id="path56340"
             style="fill:#000000;fill-opacity:1;fill-rule:evenodd;stroke:none" /></g><g
           transform="translate(133.5542,550.6428)"
           id="g56342"><path
             d="M 0,0 C 0.179,-0.008 0.304,-0.143 0.377,-0.401 L 0.436,-2.235 C 0.353,-2.389 0.218,-2.459 0.03,-2.443 l -0.982,-0.015 c -0.201,-0.021 -0.301,0.049 -0.297,0.209 l -0.015,0.386 c 0.025,0.162 -0.039,0.237 -0.193,0.223 L -5.46,-1.669 c -0.185,0.057 -0.274,-0.007 -0.268,-0.194 l -0.164,-5.594 c -0.004,-0.148 0.06,-0.342 0.208,-0.328 l 4.346,0.044 c 0.143,-0.008 0.207,0.062 0.194,0.209 l -0.046,0.788 c -0.004,0.17 0.065,0.259 0.209,0.268 L 0.48,-6.432 C 0.703,-6.463 0.792,-6.557 0.748,-6.714 L 0.718,-9.053 C 0.69,-9.279 0.581,-9.388 0.391,-9.38 l -7.372,-0.089 c -0.317,-0.022 -0.515,0.088 -0.595,0.327 l 0.342,8.592 c 0.044,0.392 0.188,0.585 0.431,0.58 L 0,0 z"
             id="path56344"
             style="fill:#000000;fill-opacity:1;fill-rule:evenodd;stroke:none" /></g><g
           transform="translate(138.4689,550.4645)"
           id="g56346"><path
             d="M 0,0 C -0.103,0.243 -0.034,0.407 0.209,0.491 L 4.911,1.546 C 5.319,1.62 5.571,1.501 5.669,1.189 7.178,-1.123 8.504,-3.644 9.648,-6.372 9.796,-6.64 9.662,-6.828 9.425,-6.893 6.352,-7.724 4.118,-8.216 2.725,-8.369 2.426,-8.42 2.232,-8.331 2.141,-8.101 1.315,-4.065 0.602,-1.364 0,0 m 2.037,-1.045 c -0.092,0.135 -0.042,0.231 0.149,0.287 l 2.249,0.49 C 4.659,-0.254 4.803,-0.329 4.866,-0.491 5.639,-1.566 6.447,-3.194 7.294,-5.376 7.396,-5.64 7.307,-5.809 7.027,-5.882 L 4.093,-6.506 C 3.857,-6.607 3.719,-6.558 3.677,-6.357 3.031,-3.918 2.484,-2.148 2.037,-1.045"
             id="path56348"
             style="fill:#000000;fill-opacity:1;fill-rule:evenodd;stroke:none" /></g><g
           transform="translate(108.4201,514.4725)"
           id="g56350"><path
             d="M 0,0 C 0.161,0.099 0.182,0.152 0.123,0.229 0.076,0.293 0.02,0.296 -0.086,0.285 -0.257,0.27 -0.314,0.295 -0.474,0.509 l -1.57,2.083 C -2.169,2.757 -2.113,2.784 -2.046,2.856 -1.98,2.929 -2.017,3 -2.039,3.029 -2.108,3.121 -2.226,3.085 -2.272,3.066 L -3.089,2.739 C -3.154,2.713 -3.217,2.696 -3.265,2.659 -3.347,2.597 -3.347,2.536 -3.3,2.474 c 0.055,-0.073 0.106,-0.08 0.412,-0.062 0.643,0.044 0.724,-0.115 0.929,-0.387 0.12,-0.159 0.091,-0.181 0.028,-0.229 l -2.408,-1.814 c -0.3,-0.227 -0.517,-0.261 -0.733,-0.006 -0.045,0.05 -0.11,0.137 -0.198,0.071 -0.111,-0.083 -0.027,-0.195 0.01,-0.243 0.197,-0.262 0.423,-0.502 0.62,-0.763 0.197,-0.262 0.365,-0.546 0.562,-0.808 0.037,-0.048 0.121,-0.159 0.233,-0.075 0.111,0.084 -0.007,0.17 -0.06,0.29 -0.12,0.281 -0.004,0.429 0.253,0.623 l 2.407,1.814 c 0.039,0.029 0.093,0.07 0.151,-0.008 l 0.157,-0.208 c 0.256,-0.339 0.078,-0.617 -0.061,-0.836 -0.088,-0.135 -0.148,-0.218 -0.06,-0.334 0.095,-0.126 0.229,-0.002 0.584,0.212 L 0,0 z"
             id="path56352"
             style="fill:#000000;fill-opacity:1;fill-rule:evenodd;stroke:none" /></g><g
           transform="translate(109.0987,509.1538)"
           id="g56354"><path
             d="M 0,0 C 0.073,0.073 0.051,0.146 -0.004,0.202 -0.086,0.283 -0.193,0.245 -0.343,0.197 -0.601,0.12 -1.09,0.026 -1.532,0.468 L -1.613,0.549 C -1.995,0.931 -1.716,1.244 -1.51,1.45 l 0.63,0.631 c 0.108,0.107 0.177,0.141 0.374,-0.056 L -0.425,1.943 C -0.129,1.647 -0.12,1.51 -0.202,1.308 -0.309,1.047 -0.377,0.97 -0.271,0.862 -0.185,0.776 -0.116,0.819 0.038,1 0.738,1.802 0.09,1.016 0.823,1.75 0.892,1.819 0.892,1.896 0.832,1.956 0.733,2.055 0.635,1.964 0.476,1.9 0.098,1.755 -0.03,1.892 -0.219,2.081 l -0.202,0.201 c -0.09,0.09 -0.098,0.159 0.065,0.322 l 0.72,0.72 C 0.485,3.444 0.562,3.539 0.896,3.204 1.394,2.707 1.355,2.454 1.283,2.098 1.248,1.952 1.235,1.913 1.304,1.844 1.355,1.793 1.407,1.759 1.668,2.02 L 1.909,2.261 C 2.059,2.411 2.106,2.415 1.965,2.557 1.9,2.621 1.831,2.681 1.763,2.741 1.617,2.87 1.089,3.372 0.888,3.582 L 0.27,4.217 c -0.197,0.206 -0.421,0.523 -0.605,0.648 -0.086,0.06 -0.163,0.077 -0.223,0.017 -0.077,-0.077 0,-0.155 0.043,-0.206 0.223,-0.249 0.159,-0.459 -0.107,-0.725 L -2.432,2.14 C -2.698,1.874 -2.909,1.81 -3.157,2.033 c -0.052,0.043 -0.129,0.12 -0.206,0.043 -0.099,-0.099 0,-0.197 0.043,-0.24 0.274,-0.275 0.454,-0.412 0.84,-0.789 0.206,-0.206 0.472,-0.472 0.841,-0.867 l 0.532,-0.566 c 0.258,-0.274 0.279,-0.27 0.493,-0.082 0.112,0.095 0.198,0.164 0.253,0.21 C -0.168,-0.116 -0.168,-0.167 0,0"
             id="path56356"
             style="fill:#000000;fill-opacity:1;fill-rule:evenodd;stroke:none" /></g><g
           transform="translate(113.4293,504.841)"
           id="g56358"><path
             d="M 0,0 C 0.025,0.034 0.056,0.087 -0.018,0.141 -0.096,0.198 -0.182,0.245 -0.257,0.307 -0.549,0.556 -0.33,0.795 -0.223,0.942 L 1.282,3.013 C 1.503,3.318 1.7,3.414 1.981,3.232 2.039,3.198 2.127,3.134 2.191,3.223 2.273,3.336 2.16,3.417 2.111,3.453 1.846,3.646 1.56,3.809 1.295,4.001 1.03,4.194 0.786,4.416 0.521,4.608 0.472,4.644 0.359,4.726 0.277,4.613 0.213,4.525 0.301,4.46 0.352,4.416 0.611,4.205 0.58,3.988 0.359,3.684 L -0.137,3.002 C -0.197,2.918 -0.223,2.862 -0.346,2.951 L -1.45,3.753 c -0.118,0.086 -0.093,0.151 -0.036,0.229 l 0.496,0.682 c 0.221,0.305 0.418,0.401 0.699,0.22 0.057,-0.035 0.146,-0.099 0.21,-0.01 0.082,0.112 -0.031,0.194 -0.08,0.23 C -0.426,5.297 -0.713,5.46 -0.978,5.653 -1.243,5.845 -1.486,6.067 -1.751,6.259 -1.8,6.295 -1.913,6.377 -1.995,6.264 -2.059,6.176 -1.971,6.112 -1.921,6.067 -1.661,5.857 -1.692,5.639 -1.913,5.335 L -3.418,3.264 c -0.221,-0.305 -0.419,-0.401 -0.699,-0.22 -0.058,0.034 -0.146,0.099 -0.21,0.01 -0.082,-0.113 0.03,-0.194 0.08,-0.23 0.265,-0.192 0.551,-0.356 0.816,-0.548 0.265,-0.193 0.509,-0.415 0.774,-0.608 0.049,-0.035 0.162,-0.117 0.244,-0.004 0.064,0.088 -0.025,0.152 -0.075,0.196 -0.259,0.211 -0.228,0.429 -0.007,0.733 l 0.638,0.879 c 0.103,0.142 0.129,0.116 0.252,0.027 L -0.516,2.707 C -0.403,2.625 -0.472,2.54 -0.525,2.467 L -1.146,1.612 C -1.367,1.308 -1.564,1.212 -1.845,1.393 -1.902,1.427 -1.991,1.492 -2.055,1.404 -2.137,1.29 -2.024,1.208 -1.975,1.173 -1.71,0.98 -1.158,0.625 -1.158,0.625 c 0,0 0.368,-0.216 0.408,-0.47 0.034,-0.242 -0.312,-0.718 -0.357,-0.873 -0.029,-0.091 0.01,-0.141 0.069,-0.184 0.103,-0.075 0.175,-0.068 0.449,0.236 l 0.303,0.335 C -0.198,-0.231 -0.039,-0.054 0,0"
             id="path56360"
             style="fill:#000000;fill-opacity:1;fill-rule:evenodd;stroke:none" /></g><g
           transform="translate(116.37,503.3797)"
           id="g56362"><path
             d="m 0,0 c 0.048,0.098 -0.05,0.146 -0.108,0.181 -0.368,0.199 -0.23,0.523 -0.134,0.72 l 1.122,2.3 C 0.976,3.398 1.146,3.706 1.53,3.539 1.593,3.515 1.691,3.467 1.739,3.565 1.8,3.69 1.675,3.752 1.62,3.778 1.326,3.922 1.016,4.033 0.721,4.177 0.427,4.32 0.148,4.496 -0.146,4.64 -0.201,4.667 -0.326,4.728 -0.387,4.603 -0.435,4.504 -0.337,4.456 -0.28,4.422 0.088,4.222 -0.049,3.898 -0.145,3.702 L -1.267,1.4 C -1.363,1.205 -1.534,0.896 -1.918,1.063 -1.98,1.087 -2.079,1.135 -2.126,1.036 -2.188,0.911 -2.062,0.85 -2.008,0.824 -1.713,0.68 -1.403,0.569 -1.109,0.426 -0.814,0.282 -0.535,0.106 -0.241,-0.038 -0.187,-0.064 -0.061,-0.125 0,0"
             id="path56364"
             style="fill:#000000;fill-opacity:1;fill-rule:evenodd;stroke:none" /></g><g
           transform="translate(120.9573,502.6596)"
           id="g56366"><path
             d="m 0,0 c 0.359,0.934 -0.5,1.406 -0.77,1.53 l 0.006,0.017 C -0.584,1.491 0.279,1.251 0.559,1.981 0.703,2.354 0.775,3.067 -0.72,3.642 -0.986,3.744 -1.327,3.855 -1.797,3.899 -1.979,3.917 -1.972,3.901 -2.111,3.675 L -2.344,3.304 C -2.413,3.193 -2.532,3.018 -2.351,2.948 c 0.119,-0.045 0.22,0.065 0.312,0.153 0.284,0.282 0.618,0.543 1.151,0.339 C -0.294,3.212 -0.324,2.742 -0.461,2.385 -0.525,2.221 -0.795,1.637 -1.423,1.878 l -0.38,0.146 C -1.87,2.05 -1.896,2.033 -1.919,2.009 L -2.014,1.896 C -2.034,1.878 -2.053,1.827 -1.968,1.794 L -1.634,1.666 C -0.875,1.375 -0.966,0.734 -1.105,0.372 -1.348,-0.262 -1.869,-0.4 -2.333,-0.222 -3.002,0.035 -3.054,0.711 -3.096,1.025 -3.112,1.169 -3.138,1.204 -3.205,1.23 -3.364,1.29 -3.408,1.126 -3.452,0.961 L -3.518,0.72 C -3.548,0.608 -3.594,0.489 -3.523,0.352 -3.403,0.124 -2.902,-0.263 -2.358,-0.473 -0.84,-1.055 -0.231,-0.6 0,0"
             id="path56368"
             style="fill:#000000;fill-opacity:1;fill-rule:evenodd;stroke:none" /></g><g
           transform="translate(128.8045,500.3524)"
           id="g56370"><path
             d="M 0,0 C 0.013,0.108 -0.095,0.122 -0.161,0.136 -0.49,0.194 -0.568,0.399 -0.522,0.773 l 0.311,2.54 c 0.046,0.372 0.172,0.553 0.505,0.53 C 0.362,3.841 0.47,3.828 0.483,3.936 0.5,4.074 0.362,4.092 0.302,4.099 -0.018,4.138 -0.335,4.141 -0.654,4.18 -0.967,4.218 -1.27,4.292 -1.583,4.33 -1.643,4.338 -1.782,4.355 -1.799,4.216 -1.812,4.108 -1.704,4.095 -1.638,4.08 -1.31,4.016 -1.267,3.766 -1.306,3.447 L -1.66,0.564 C -1.677,0.432 -1.697,0.367 -1.932,0.395 L -2.907,0.516 C -3.022,0.53 -3.096,0.57 -3.072,0.768 l 0.35,2.853 c 0.04,0.319 0.142,0.551 0.476,0.534 0.067,-0.002 0.175,-0.015 0.189,0.093 0.016,0.138 -0.122,0.155 -0.182,0.163 -0.307,0.037 -0.625,0.04 -0.932,0.077 -0.307,0.038 -0.616,0.113 -0.923,0.15 C -4.154,4.646 -4.293,4.663 -4.31,4.524 -4.323,4.416 -4.214,4.403 -4.149,4.389 -3.821,4.324 -3.778,4.074 -3.817,3.755 L -4.171,0.872 C -4.188,0.74 -4.208,0.675 -4.443,0.704 l -0.975,0.12 c -0.109,0.013 -0.191,0.041 -0.165,0.252 l 0.351,2.853 C -5.193,4.248 -5.091,4.48 -4.757,4.463 -4.69,4.461 -4.582,4.448 -4.569,4.556 -4.552,4.695 -4.69,4.712 -4.75,4.719 -5.063,4.757 -5.375,4.759 -5.688,4.798 -6.007,4.837 -6.316,4.911 -6.635,4.95 -6.695,4.958 -6.834,4.975 -6.851,4.836 -6.864,4.728 -6.755,4.715 -6.69,4.701 -6.361,4.642 -6.282,4.437 -6.328,4.063 L -6.64,1.524 C -6.686,1.151 -6.812,0.97 -7.145,0.993 -7.212,0.995 -7.321,1.008 -7.334,0.9 -7.351,0.762 -7.213,0.744 -7.152,0.737 -6.833,0.698 -6.516,0.696 -6.197,0.656 -5.877,0.617 -5.557,0.541 -5.238,0.502 L -4.641,0.429 C -4.322,0.39 -3.999,0.387 -3.68,0.348 -3.361,0.309 -3.046,0.234 -2.727,0.194 L -2.131,0.121 C -1.811,0.082 -1.482,0.078 -1.163,0.039 -0.844,0 -0.535,-0.075 -0.216,-0.114 -0.156,-0.122 -0.017,-0.138 0,0"
             id="path56372"
             style="fill:#000000;fill-opacity:1;fill-rule:evenodd;stroke:none" /></g><g
           transform="translate(133.6166,501.5829)"
           id="g56374"><path
             d="M 0,0 C -0.007,0.103 -0.076,0.134 -0.155,0.129 -0.27,0.121 -0.311,0.014 -0.374,-0.129 c -0.11,-0.245 -0.36,-0.676 -0.983,-0.72 l -0.115,-0.008 c -0.539,-0.038 -0.592,0.378 -0.613,0.669 l -0.061,0.889 c -0.012,0.151 0.008,0.226 0.286,0.245 l 0.115,0.008 C -1.327,0.983 -1.218,0.9 -1.119,0.706 -0.992,0.453 -0.979,0.351 -0.828,0.362 -0.707,0.37 -0.694,0.45 -0.729,0.685 -0.875,1.738 -0.708,0.734 -0.78,1.769 -0.787,1.866 -0.845,1.916 -0.93,1.91 -1.069,1.901 -1.066,1.767 -1.121,1.605 -1.259,1.225 -1.447,1.218 -1.713,1.199 l -0.285,-0.02 c -0.127,-0.008 -0.184,0.03 -0.2,0.26 L -2.27,2.455 c -0.011,0.169 -0.032,0.289 0.44,0.323 0.702,0.049 0.868,-0.146 1.089,-0.435 0.087,-0.121 0.109,-0.156 0.205,-0.15 0.073,0.005 0.132,0.022 0.106,0.391 L -0.453,2.922 C -0.468,3.134 -0.44,3.172 -0.641,3.159 -0.731,3.152 -0.822,3.14 -0.912,3.127 -1.104,3.102 -1.83,3.033 -2.12,3.019 L -3.005,2.969 C -3.289,2.955 -3.676,2.995 -3.89,2.937 -3.992,2.912 -4.056,2.865 -4.049,2.78 -4.042,2.672 -3.933,2.679 -3.866,2.678 -3.532,2.683 -3.416,2.497 -3.39,2.121 l 0.179,-2.552 c 0.027,-0.375 -0.063,-0.576 -0.395,-0.617 -0.065,-0.011 -0.175,-0.019 -0.167,-0.128 0.01,-0.139 0.149,-0.129 0.21,-0.125 0.387,0.027 0.609,0.073 1.147,0.117 0.29,0.02 0.666,0.046 1.205,0.066 l 0.777,0.03 c 0.376,0.014 0.387,0.033 0.385,0.318 0.002,0.147 0.006,0.256 0.007,0.329 C -0.022,-0.202 0.016,-0.236 0,0"
             id="path56376"
             style="fill:#000000;fill-opacity:1;fill-rule:evenodd;stroke:none" /></g><g
           transform="translate(138.4278,502.7315)"
           id="g56378"><path
             d="M 0,0 C -0.207,0.898 -1.088,0.938 -1.642,0.803 L -1.647,0.821 C -1.23,0.905 -0.481,1.246 -0.645,1.954 -0.869,2.93 -1.977,2.768 -2.669,2.608 -3.331,2.455 -4.19,2.182 -4.587,1.96 -4.719,1.886 -4.731,1.827 -4.715,1.762 c 0.028,-0.124 0.153,-0.095 0.182,-0.089 0.059,0.014 0.121,0.041 0.182,0.049 0.246,0.038 0.303,-0.179 0.337,-0.327 l 0.588,-2.547 c 0.067,-0.289 0.081,-0.566 -0.293,-0.671 -0.064,-0.021 -0.17,-0.046 -0.146,-0.151 0.032,-0.136 0.168,-0.105 0.227,-0.091 0.319,0.073 0.63,0.182 0.949,0.256 0.449,0.104 0.901,0.17 1.35,0.274 C -0.747,-1.399 0.248,-1.069 0,0 M -1.77,1.707 C -1.674,1.294 -1.821,0.874 -2.435,0.733 L -2.506,0.716 C -2.689,0.674 -2.702,0.783 -2.722,0.871 l -0.233,1.005 c -0.039,0.171 -0.059,0.391 0.308,0.475 0.478,0.111 0.784,-0.242 0.877,-0.644 m 0.646,-2.016 c 0.168,-0.727 -0.236,-0.969 -0.52,-1.035 -0.503,-0.116 -0.626,0.254 -0.677,0.479 l -0.254,1.099 c -0.047,0.2 0.076,0.235 0.141,0.25 l 0.095,0.022 c 0.52,0.12 1.042,-0.064 1.215,-0.815"
             id="path56380"
             style="fill:#000000;fill-opacity:1;fill-rule:evenodd;stroke:none" /></g><g
           transform="translate(142.2172,506.1379)"
           id="g56382"><path
             d="M 0,0 C -0.428,1.116 -1.692,0.65 -1.981,0.539 -2.179,0.463 -2.375,0.382 -2.569,0.294 -2.752,0.211 -2.941,0.131 -3.129,0.06 -3.434,-0.058 -3.754,-0.141 -4.059,-0.258 -4.116,-0.28 -4.247,-0.33 -4.196,-0.461 c 0.05,-0.13 0.165,-0.04 0.294,-0.023 0.304,0.039 0.415,-0.114 0.53,-0.414 l 0.918,-2.389 c 0.115,-0.3 0.135,-0.487 -0.116,-0.662 -0.109,-0.074 -0.254,-0.084 -0.205,-0.214 0.051,-0.13 0.181,-0.081 0.238,-0.059 0.306,0.118 0.598,0.269 0.904,0.386 0.317,0.122 0.642,0.208 0.959,0.329 0.056,0.022 0.187,0.072 0.137,0.202 -0.04,0.102 -0.143,0.068 -0.206,0.045 -0.372,-0.13 -0.525,0.064 -0.647,0.382 l -0.35,0.911 c -0.015,0.04 -0.037,0.097 0.054,0.131 0.091,0.034 0.178,0.01 0.36,0.027 0.182,0.018 0.393,0.061 0.557,0.123 C -0.055,-1.412 0.248,-0.646 0,0 m -1.083,-0.429 c 0.113,-0.294 0.214,-0.879 -0.391,-1.111 -0.097,-0.038 -0.163,-0.05 -0.264,-0.043 -0.04,0.004 -0.158,0.023 -0.204,0.142 L -2.303,-0.5 c -0.026,0.067 -0.081,0.228 -0.089,0.335 -0.012,0.217 0.13,0.304 0.254,0.352 0.498,0.191 0.887,-0.18 1.055,-0.616"
             id="path56384"
             style="fill:#000000;fill-opacity:1;fill-rule:evenodd;stroke:none" /></g><g
           transform="translate(147.0599,507.8941)"
           id="g56386"><path
             d="m 0,0 c -0.607,1.051 -1.985,1.376 -3.256,0.642 -1.161,-0.67 -1.599,-1.939 -0.935,-3.089 0.637,-1.104 2.019,-1.398 3.275,-0.674 C 0.355,-2.386 0.637,-1.103 0,0 m -0.906,-0.761 c 0.41,-0.709 0.625,-1.713 -0.095,-2.128 -0.851,-0.492 -1.829,0.415 -2.269,1.176 -0.467,0.809 -0.559,1.744 0.103,2.126 0.857,0.495 1.828,-0.423 2.261,-1.174"
             id="path56388"
             style="fill:#000000;fill-opacity:1;fill-rule:evenodd;stroke:none" /></g><g
           transform="translate(148.3538,513.2097)"
           id="g56390"><path
             d="m 0,0 c -0.023,0.028 -0.089,0.004 -0.122,-0.024 -0.079,-0.066 -0.029,-0.182 -0.03,-0.436 0,-0.358 -0.048,-0.5 -0.22,-0.644 -0.181,-0.152 -0.377,-0.127 -0.553,0.027 -0.068,0.062 -0.219,0.204 -0.367,0.079 -0.159,-0.132 -0.193,-0.526 -0.049,-0.698 0.242,-0.288 0.77,-0.114 1.063,0.132 0.483,0.405 0.442,1.067 0.341,1.451 C 0.051,-0.069 0.028,-0.033 0,0 M 4.464,-3.121 C 4.394,-3.037 4.31,-3.107 4.255,-3.145 3.988,-3.346 3.785,-3.264 3.543,-2.976 L 1.897,-1.014 C 1.655,-0.726 1.61,-0.511 1.853,-0.283 1.901,-0.235 1.984,-0.165 1.914,-0.081 1.824,0.026 1.717,-0.064 1.67,-0.103 1.42,-0.314 1.192,-0.552 0.941,-0.763 0.69,-0.973 0.416,-1.156 0.165,-1.367 0.119,-1.406 0.012,-1.495 0.101,-1.602 c 0.071,-0.084 0.154,-0.013 0.209,0.025 0.221,0.17 0.448,0.146 0.674,-0.124 l 0.024,-0.028 0.012,-2.705 -1.321,1.575 c -0.242,0.288 -0.288,0.504 -0.044,0.732 0.047,0.047 0.131,0.117 0.061,0.201 -0.09,0.107 -0.197,0.017 -0.243,-0.022 -0.251,-0.21 -0.479,-0.448 -0.73,-0.659 C -1.507,-2.818 -1.782,-3 -2.034,-3.211 -2.079,-3.25 -2.186,-3.34 -2.097,-3.447 c 0.071,-0.083 0.154,-0.013 0.209,0.025 0.267,0.201 0.471,0.118 0.713,-0.17 l 1.646,-1.961 c 0.242,-0.288 0.288,-0.503 0.043,-0.732 -0.047,-0.047 -0.13,-0.118 -0.061,-0.201 0.09,-0.107 0.197,-0.017 0.244,0.022 0.251,0.21 0.478,0.449 0.729,0.659 0.251,0.211 0.525,0.394 0.777,0.604 0.046,0.039 0.153,0.129 0.063,0.236 C 2.196,-4.881 2.113,-4.951 2.057,-4.99 1.79,-5.19 1.586,-5.108 1.345,-4.82 l -0.024,0.028 -0.013,2.705 1.361,-1.622 c 0.242,-0.288 0.287,-0.503 0.043,-0.731 -0.047,-0.047 -0.13,-0.118 -0.06,-0.201 0.09,-0.107 0.196,-0.018 0.243,0.021 0.251,0.211 0.478,0.45 0.729,0.66 0.251,0.21 0.525,0.393 0.777,0.604 0.046,0.039 0.153,0.129 0.063,0.235"
             id="path56392"
             style="fill:#000000;fill-opacity:1;fill-rule:evenodd;stroke:none" /></g><g
           transform="translate(156.7234,514.5301)"
           id="g56394"><path
             d="m 0,0 c -0.082,0.071 -0.154,-0.011 -0.203,-0.058 -0.232,-0.239 -0.446,-0.19 -0.73,0.057 l -1.933,1.68 C -3.03,1.822 -3.279,2.063 -3.023,2.394 -2.984,2.448 -2.911,2.531 -2.994,2.603 -3.1,2.694 -3.191,2.589 -3.231,2.543 -3.446,2.296 -3.634,2.025 -3.848,1.778 -4.031,1.567 -4.246,1.376 -4.429,1.165 l -0.41,-0.471 -0.76,-0.875 c -0.084,-0.096 -0.014,-0.164 0.004,-0.181 0.105,-0.091 0.156,-0.014 0.272,0.11 0.244,0.254 0.395,0.195 0.971,-0.306 1.149,-0.999 1.75,-1.908 1.556,-2.132 -0.064,-0.073 -0.134,-0.052 -0.209,-0.036 -0.1,0.023 -0.273,0.037 -0.416,-0.128 -0.191,-0.22 -0.163,-0.502 0.038,-0.677 0.39,-0.338 0.723,0.064 0.755,0.1 0.107,0.124 0.546,0.683 -0.315,1.857 -0.286,0.393 -0.628,0.739 -1.033,1.124 -0.648,0.604 -0.842,0.715 -0.499,1.109 l 0.139,0.16 c 0.282,0.325 0.384,0.293 0.576,0.126 l 2.079,-1.807 c 0.283,-0.246 0.362,-0.452 0.158,-0.716 -0.04,-0.054 -0.112,-0.136 -0.029,-0.208 0.105,-0.091 0.196,0.014 0.237,0.059 0.215,0.248 0.401,0.519 0.616,0.766 0.216,0.248 0.458,0.471 0.673,0.718 C 0.013,-0.197 0.105,-0.092 0,0"
             id="path56396"
             style="fill:#000000;fill-opacity:1;fill-rule:evenodd;stroke:none" /></g></g></g></g></svg>