<?xml version="1.0" encoding="UTF-8" standalone="no"?>
<svg
   xmlns:dc="http://purl.org/dc/elements/1.1/"
   xmlns:cc="http://creativecommons.org/ns#"
   xmlns:rdf="http://www.w3.org/1999/02/22-rdf-syntax-ns#"
   xmlns:svg="http://www.w3.org/2000/svg"
   xmlns="http://www.w3.org/2000/svg"
   viewBox="0 0 433.39999 151.89333"
   height="151.89333"
   width="433.39999"
   xml:space="preserve"
   version="1.1"
   id="svg2"><metadata
     id="metadata8"><rdf:RDF><cc:Work
         rdf:about=""><dc:format>image/svg+xml</dc:format><dc:type
           rdf:resource="http://purl.org/dc/dcmitype/StillImage" /></cc:Work></rdf:RDF></metadata><defs
     id="defs6"><clipPath
       id="clipPath18"
       clipPathUnits="userSpaceOnUse"><path
         id="path20"
         d="m 0,0 3250.55,0 0,1139 L 0,1139 0,0 Z" /></clipPath></defs><g
     transform="matrix(1.3333333,0,0,-1.3333333,0,151.89333)"
     id="g10"><g
       transform="scale(0.1)"
       id="g12"><g
         id="g14"><g
           clip-path="url(#clipPath18)"
           id="g16"><path
             id="path22"
             style="fill:#f9b214;fill-opacity:1;fill-rule:nonzero;stroke:none"
             d="m 423.906,309.18 c 226.559,0 423.875,165.129 423.875,415.011 0,249.747 -197.316,414.989 -423.875,414.989 C 197.34,1139.18 0,973.938 0,724.191 0,474.309 197.34,309.18 423.906,309.18 m 0,142.656 c -151.898,0 -264.672,121.199 -264.672,272.355 0,151.153 112.774,272.352 264.672,272.352 151.899,0 264.711,-121.199 264.711,-272.352 0,-151.156 -112.812,-272.355 -264.711,-272.355" /><path
             id="path24"
             style="fill:#378bb4;fill-opacity:1;fill-rule:nonzero;stroke:none"
             d="m 510.211,766.895 c -5.152,24.187 -13.879,42.691 -26.18,55.5 -12.84,13.378 -32.39,20.07 -58.586,20.07 -17.133,0 -31.379,-2.762 -42.711,-8.235 -11.347,-5.507 -20.414,-12.324 -27.207,-20.445 -6.816,-8.137 -11.601,-16.73 -14.375,-25.797 -2.769,-9.09 -4.422,-17.222 -4.906,-24.383 l 174.637,0 c -0.215,1.106 -0.438,2.207 -0.672,3.29 z m -147.5,-139.5 c 16.094,-14.817 39.305,-22.219 69.539,-22.219 21.66,0 40.324,5.129 55.953,15.41 15.613,10.266 15.188,21.144 18.723,32.629 l 104.496,0 c -15.121,-44.453 -38.317,-76.25 -69.559,-95.363 -31.254,-19.11 -69.047,-28.68 -113.386,-28.68 -30.747,0 -58.465,4.668 -83.165,14.004 -24.703,9.316 -45.624,22.578 -62.738,39.781 -17.14,17.191 -30.379,37.738 -39.707,61.648 -9.32,23.887 -13.984,50.172 -13.984,78.856 0,27.707 4.785,53.516 14.383,77.418 9.55,23.91 23.156,44.57 40.812,62.023 17.633,17.442 38.692,31.184 63.133,41.211 24.43,10.039 51.519,15.063 81.266,15.063 33.261,0 62.222,-6.09 86.921,-18.281 24.696,-12.188 44.997,-28.563 60.864,-49.11 15.879,-20.555 27.332,-43.969 34.422,-70.246 7.035,-26.289 9.535,-53.781 7.531,-82.441 l -281.969,0 c 1.508,-32.985 10.32,-56.895 26.465,-71.703" /><path
             id="path26"
             style="fill:#378bb4;fill-opacity:1;fill-rule:nonzero;stroke:none"
             d="m 1257.43,952.984 c -61.45,-8.246 -118.25,-44.031 -152.88,-95.375 -40.09,-57.82 -50.55,-134.082 -30.56,-201.168 14.86,-50.867 47.45,-96.664 91.92,-125.707 49.97,-33.476 113.74,-45.097 172.39,-32.277 60.13,12.41 114.05,51.262 145.4,103.977 31.56,51.878 39.85,116.39 25.98,175.226 -12.64,57.289 -48.24,109.164 -97.55,141.047 -45.05,29.977 -101.27,41.152 -154.7,34.277 z m -185.48,70.506 c 58.23,43.09 129.7,67.83 202.1,70.41 93.66,4.74 189.08,-27.19 259.89,-89 67.56,-58.216 111.91,-142.326 123.08,-230.74 13.04,-92.848 -10.47,-190.34 -65.4,-266.433 -53.65,-75.997 -136.66,-131.465 -228.49,-148.223 -77.32,-14.238 -160.1,-2.055 -228.12,38.125 -27,15.34 -51.3,34.902 -74.14,55.82 -0.13,-147.109 -0.04,-294.242 -0.04,-441.3474 -46.65,0.1796 -93.291,0.3867 -139.939,-0.1407 0.308,223.7811 0,447.5621 0.171,671.3511 0.227,50.102 3.508,100.735 16.997,149.2 21.543,76.269 69.521,144.679 133.891,190.978" /><path
             id="path28"
             style="fill:#378bb4;fill-opacity:1;fill-rule:nonzero;stroke:none"
             d="m 2043.4,950.148 c -63.59,-13.613 -119.72,-56.757 -149.7,-114.402 -32.45,-60.609 -33.38,-134.879 -10.5,-198.906 18.62,-52.848 58.53,-97.902 109.34,-121.801 50.51,-23.367 109.38,-28.113 162.95,-12.898 49.74,14.629 93.95,47.398 122.2,90.984 38.88,58.883 49.04,135.586 27.94,202.852 -19.29,61.945 -66.21,114.925 -126.02,140.425 -42.48,18.754 -90.85,23.188 -136.21,13.746 z m -226.58,19.551 c 62.21,70.371 151.73,117.281 245.91,123.711 133.29,10.59 269.22,-60.21 337.51,-175.055 42.4,-72.851 67.57,-153.769 97.06,-232.25 37.51,-103.007 75.42,-205.82 112.85,-308.828 -50.77,0 -101.59,0.039 -152.36,-0.039 -19.9,55.465 -39.94,110.887 -60.16,166.27 -39.15,-73.164 -100.79,-136.25 -179.4,-165.879 -61.54,-24.738 -130.4,-29.395 -195.41,-17.387 -82.12,15 -158.11,59.961 -211.54,123.938 -61.06,71.875 -92.45,167.472 -87.66,261.515 3.76,82.563 38.4,162.508 93.2,224.004" /><path
             id="path30"
             style="fill:#378bb4;fill-opacity:1;fill-rule:nonzero;stroke:none"
             d="m 2642.12,1069.46 c 46.42,3.47 93.24,0.58 139.84,1.51 0.27,-129.251 -0.26,-258.497 0.27,-387.747 -0.27,-45.004 7.14,-92.364 33.92,-129.735 23.85,-33.398 63,-53.617 103.31,-58.539 50.73,-5.894 106.96,6.918 141.76,46.516 38.75,43.019 48.55,103.535 49.26,159.535 0.31,123.398 0.09,246.797 0.09,370.19 46.65,-0.22 93.33,-0.66 139.98,0.23 -0.54,-192.928 -0.09,-385.893 -0.23,-578.811 0.18,-89.043 -3.02,-181.359 -40.12,-263.828 -48.16,-102.293 -143.13,-179.8122 -251.05,-211.4998 -135.28,-43.2695 -291.93,-3.1914 -391.97,97.0078 -17.91,15.699 -31.43,35.391 -47.13,53.082 36.04,30.332 73.47,59.027 109.33,89.613 42.13,-54.718 99.42,-102.91 169.6,-113.82 123.19,-22.562 254.79,55.82 294.87,174.207 14.19,35.785 16.89,74.582 18.71,112.621 -41.63,-39.375 -95.06,-66.64 -152.13,-73.769 -86.33,-11.661 -177.53,18.535 -238.86,80.562 -33.25,32.754 -55.47,75.727 -66.02,120.957 -13.34,52.543 -12.77,107.164 -13.17,160.949 -0.17,116.926 0.35,233.848 -0.26,350.769" /></g></g></g></g></svg>