<svg xmlns="http://www.w3.org/2000/svg" version="1" width="716.102" height="716.102"><g fill-rule="evenodd"><path d="M3.487 3.67h709.083v709.086h-709.083v-709.086z" fill="#008db2"/><path d="M558.115 436.039l-58.711-78.799v133.644h-36.306v-193.126h34.763l61.028 81.886 61.028-81.886h33.216v193.126h-37.079v-132.87l-57.94 78.024zm-155.276-181.542v20.084h39.399v-193.902h-39.399v20.088c-13.902-14.68-37.85-24.724-66.435-24.724-26.264 0-50.984 10.044-68.755 27.814-19.312 19.312-29.351 46.351-29.351 73.387 0 27.811 10.039 54.849 29.351 74.162 17.771 17.767 42.491 27.811 68.755 27.811 28.585 0 52.533-10.044 66.435-24.72zm2.32-77.252c0 40.17-27.809 67.209-64.118 67.209-37.084 0-63.348-28.585-63.348-67.209 0-37.853 25.493-66.435 63.348-66.435 36.308 0 64.118 26.265 64.118 66.435zm-152.959 97.336h-56.392l-93.474-85.747v85.747h-39.399v-193.902h39.399v84.976l95.79-84.976h54.849l-109.699 96.566 108.926 97.336zm217.078-159.139v-34.763h177.679v30.131l-120.514 128.236h126.691v35.535h-183.857v-30.127l122.055-129.012h-122.055zm-217.078 375.442h-56.392l-93.474-84.976v84.976h-39.399v-193.126h39.399v84.976l95.79-84.976h54.849l-109.699 96.56 108.926 96.566z" fill="#fff"/><path d="M342.587 496.292c55.62 0 104.288-40.94 104.288-101.968 0-61.031-48.668-101.972-104.288-101.972-55.621 0-104.292 40.942-104.292 101.972 0 61.028 48.671 101.968 104.292 101.968zm0-34.763c-37.083 0-64.893-30.127-64.893-67.206 0-37.083 27.811-66.437 64.893-66.437 37.079 0 64.888 29.355 64.888 66.437 0 37.079-27.809 67.206-64.888 67.206" fill="#fdb937"/></g></svg>