<?xml version="1.0" encoding="UTF-8" standalone="no"?>
<!-- Created with Inkscape (http://www.inkscape.org/) -->

<svg
   xmlns:dc="http://purl.org/dc/elements/1.1/"
   xmlns:cc="http://creativecommons.org/ns#"
   xmlns:rdf="http://www.w3.org/1999/02/22-rdf-syntax-ns#"
   xmlns:svg="http://www.w3.org/2000/svg"
   xmlns="http://www.w3.org/2000/svg"
   xmlns:sodipodi="http://sodipodi.sourceforge.net/DTD/sodipodi-0.dtd"
   xmlns:inkscape="http://www.inkscape.org/namespaces/inkscape"
   version="1.0"
   width="716.10236"
   height="716.10236"
   id="svg5945"
   xml:space="preserve"
   inkscape:version="0.48.1 "
   sodipodi:docname="Kazkommertsbank_Logo.svg"><metadata
     id="metadata3005"><rdf:RDF><cc:Work
         rdf:about=""><dc:format>image/svg+xml</dc:format><dc:type
           rdf:resource="http://purl.org/dc/dcmitype/StillImage" /></cc:Work></rdf:RDF></metadata><sodipodi:namedview
     pagecolor="#ffffff"
     bordercolor="#666666"
     borderopacity="1"
     objecttolerance="10"
     gridtolerance="10"
     guidetolerance="10"
     inkscape:pageopacity="0"
     inkscape:pageshadow="2"
     inkscape:window-width="1366"
     inkscape:window-height="706"
     id="namedview3003"
     showgrid="false"
     inkscape:zoom="0.70166818"
     inkscape:cx="358.05118"
     inkscape:cy="358.05118"
     inkscape:window-x="0"
     inkscape:window-y="0"
     inkscape:window-maximized="1"
     inkscape:current-layer="g6164" /><defs
     id="defs5948" /><g
     transform="matrix(1.25,0,0,-1.25,-29.433473,726.95641)"
     id="g5954"><g
       transform="matrix(10.026663,0,0,10.026663,-349.40324,-4631.7038)"
       id="g6164"><path
         d="M 37.4751,519.6614 L 94.0524,519.6614 L 94.0524,463.0839 L 37.4751,463.0839 L 37.4751,519.6614 z"
         id="path5956"
         style="fill:#008db2;fill-opacity:1;fill-rule:evenodd;stroke:none" /><path
         d="M 81.7285,485.1629 L 77.044,491.4502 L 77.044,480.7868 L 74.1472,480.7868 L 74.1472,496.1962 L 76.9209,496.1962 L 81.7903,489.6626 L 86.6597,496.1962 L 89.31,496.1962 L 89.31,480.7868 L 86.3515,480.7868 L 86.3515,491.3884 L 81.7285,485.1629 z M 69.3391,499.648 L 69.3391,498.0455 L 72.4827,498.0455 L 72.4827,513.5168 L 69.3391,513.5168 L 69.3391,511.914 C 68.2299,513.0853 66.3191,513.8867 64.0383,513.8867 C 61.9427,513.8867 59.9703,513.0853 58.5524,511.6674 C 57.0115,510.1265 56.2105,507.9691 56.2105,505.8119 C 56.2105,503.5929 57.0115,501.4355 58.5524,499.8946 C 59.9703,498.477 61.9427,497.6756 64.0383,497.6756 C 66.3191,497.6756 68.2299,498.477 69.3391,499.648 z M 69.5242,505.8119 C 69.5242,502.6068 67.3053,500.4493 64.4083,500.4493 C 61.4494,500.4493 59.3538,502.7301 59.3538,505.8119 C 59.3538,508.8322 61.3879,511.1127 64.4083,511.1127 C 67.3053,511.1127 69.5242,509.017 69.5242,505.8119 z M 57.3197,498.0455 L 52.8202,498.0455 L 45.362,504.8872 L 45.362,498.0455 L 42.2184,498.0455 L 42.2184,513.5168 L 45.362,513.5168 L 45.362,506.7366 L 53.005,513.5168 L 57.3814,513.5168 L 48.6286,505.8119 L 57.3197,498.0455 z M 74.6402,510.7431 L 74.6402,513.5168 L 88.8171,513.5168 L 88.8171,511.1127 L 79.2014,500.8808 L 89.31,500.8808 L 89.31,498.0455 L 74.6402,498.0455 L 74.6402,500.4493 L 84.3789,510.7431 L 74.6402,510.7431 z M 57.3197,480.7868 L 52.8202,480.7868 L 45.362,487.567 L 45.362,480.7868 L 42.2184,480.7868 L 42.2184,496.1962 L 45.362,496.1962 L 45.362,489.416 L 53.005,496.1962 L 57.3814,496.1962 L 48.6286,488.4917 L 57.3197,480.7868 z"
         id="path5958"
         style="fill:#ffffff;fill-opacity:1;fill-rule:evenodd;stroke:none" /><path
         d="M 64.5316,480.3554 C 68.9695,480.3554 72.8527,483.622 72.8527,488.4914 C 72.8527,493.361 68.9695,496.6277 64.5316,496.6277 C 60.0936,496.6277 56.2102,493.361 56.2102,488.4914 C 56.2102,483.622 60.0936,480.3554 64.5316,480.3554 z M 64.5316,483.1291 C 61.5728,483.1291 59.3538,485.5329 59.3538,488.4914 C 59.3538,491.4502 61.5728,493.7924 64.5316,493.7924 C 67.4901,493.7924 69.709,491.4502 69.709,488.4914 C 69.709,485.5329 67.4901,483.1291 64.5316,483.1291"
         id="path5960"
         style="fill:#fdb937;fill-opacity:1;fill-rule:evenodd;stroke:none" /></g></g></svg>