<?xml version="1.0" encoding="UTF-8" standalone="no"?>
<!-- Created with Inkscape (http://www.inkscape.org/) -->
<svg
   xmlns:svg="http://www.w3.org/2000/svg"
   xmlns="http://www.w3.org/2000/svg"
   version="1.0"
   width="893.2677"
   height="152.71654"
   id="svg2699"
   xml:space="preserve"><defs
     id="defs2702"><clipPath
       id="clipPath3282"><path
         d="M 232.35,748.136 L 232.35,748.136 L 236.111,754.634 L 235.84,755.588 L 232.35,748.136 z"
         id="path3284" /></clipPath><clipPath
       id="clipPath3292"><path
         d="M 0.0037384,-0.429245 L 0.996384,-0.429245 L 0.996384,0.40242 L 0.0037384,0.40242 L 0.0037384,-0.429245 z"
         id="path3294" /></clipPath><linearGradient
       x1="0"
       y1="0"
       x2="1"
       y2="0"
       id="linearGradient3296"
       gradientUnits="userSpaceOnUse"
       gradientTransform="matrix(-4.1978455,-7.2708588,-7.2708588,4.1978455,247.86682,697.52119)"
       spreadMethod="pad"><stop
         id="stop3298"
         style="stop-color:#99dff9;stop-opacity:1"
         offset="0" /><stop
         id="stop3300"
         style="stop-color:#ffffff;stop-opacity:1"
         offset="1" /></linearGradient><clipPath
       id="clipPath3308"><path
         d="M 235.825,755.576 L 242.6,750.888 L 235.606,756.496 L 235.825,755.576 z"
         id="path3310" /></clipPath><clipPath
       id="clipPath3318"><path
         d="M 0.00166321,-0.518921 L 0.998154,-0.518921 L 0.998154,0.454803 L 0.00166321,0.454803 L 0.00166321,-0.518921 z"
         id="path3320" /></clipPath><linearGradient
       x1="0"
       y1="0"
       x2="1"
       y2="0"
       id="linearGradient3322"
       gradientUnits="userSpaceOnUse"
       gradientTransform="matrix(6.9918365,-5.6618805,-5.6618805,-6.9918365,247.06069,698.2654)"
       spreadMethod="pad"><stop
         id="stop3324"
         style="stop-color:#99dff9;stop-opacity:1"
         offset="0" /><stop
         id="stop3326"
         style="stop-color:#ffffff;stop-opacity:1"
         offset="1" /></linearGradient><clipPath
       id="clipPath3334"><path
         d="M 249.127,747.051 L 250.056,747.295 L 242.662,750.856 L 249.127,747.051 z"
         id="path3336" /></clipPath><clipPath
       id="clipPath3344"><path
         d="M 0.0367279,-0.488876 L 0.963333,-0.488876 L 0.963333,0.469391 L 0.0367279,0.469391 L 0.0367279,-0.488876 z"
         id="path3346" /></clipPath><linearGradient
       x1="0"
       y1="0"
       x2="1"
       y2="0"
       id="linearGradient3348"
       gradientUnits="userSpaceOnUse"
       gradientTransform="matrix(-5.6147461,6.2358093,6.2358093,5.6147461,260.86198,687.85706)"
       spreadMethod="pad"><stop
         id="stop3350"
         style="stop-color:#99dff9;stop-opacity:1"
         offset="0" /><stop
         id="stop3352"
         style="stop-color:#ffffff;stop-opacity:1"
         offset="1" /></linearGradient><clipPath
       id="clipPath3360"><path
         d="M 250.044,747.299 L 245.396,740.577 L 251.019,747.558 L 251.019,747.558 L 250.044,747.299 z"
         id="path3362" /></clipPath><clipPath
       id="clipPath3370"><path
         d="M 0.0281219,-0.49556 L 0.971832,-0.49556 L 0.971832,0.437561 L 0.0281219,0.437561 L 0.0281219,-0.49556 z"
         id="path3372" /></clipPath><linearGradient
       x1="0"
       y1="0"
       x2="1"
       y2="0"
       id="linearGradient3374"
       gradientUnits="userSpaceOnUse"
       gradientTransform="matrix(-6.3465881,-7.0485992,-7.0485992,6.3465881,262.81083,689.74253)"
       spreadMethod="pad"><stop
         id="stop3376"
         style="stop-color:#99dff9;stop-opacity:1"
         offset="0" /><stop
         id="stop3378"
         style="stop-color:#ffffff;stop-opacity:1"
         offset="1" /></linearGradient><clipPath
       id="clipPath3386"><path
         d="M 227.65,741.362 L 235.016,737.839 L 228.579,741.61 L 227.65,741.362 z"
         id="path3388" /></clipPath><clipPath
       id="clipPath3396"><path
         d="M 0.000839233,-0.391388 L 0.999084,-0.391388 L 0.999084,0.417328 L 0.000839233,0.417328 L 0.000839233,-0.391388 z"
         id="path3398" /></clipPath><linearGradient
       x1="0"
       y1="0"
       x2="1"
       y2="0"
       id="linearGradient3400"
       gradientUnits="userSpaceOnUse"
       gradientTransform="matrix(7.3858948,-3.7633057,-3.7633057,-7.3858948,239.32458,683.66856)"
       spreadMethod="pad"><stop
         id="stop3402"
         style="stop-color:#99dff9;stop-opacity:1"
         offset="0" /><stop
         id="stop3404"
         style="stop-color:#ffffff;stop-opacity:1"
         offset="1" /></linearGradient><clipPath
       id="clipPath3412"><path
         d="M 226.689,741.095 L 226.689,741.095 L 227.663,741.359 L 232.272,748.005 L 226.689,741.095 z"
         id="path3414" /></clipPath><clipPath
       id="clipPath3422"><path
         d="M 0.0164795,-0.496094 L 0.983521,-0.496094 L 0.983521,0.446045 L 0.0164795,0.446045 L 0.0164795,-0.496094 z"
         id="path3424" /></clipPath><linearGradient
       x1="0"
       y1="0"
       x2="1"
       y2="0"
       id="linearGradient3426"
       gradientUnits="userSpaceOnUse"
       gradientTransform="matrix(5.6549377,7.2379913,7.2379913,-5.6549377,238.46887,682.75678)"
       spreadMethod="pad"><stop
         id="stop3428"
         style="stop-color:#99dff9;stop-opacity:1"
         offset="0" /><stop
         id="stop3430"
         style="stop-color:#ffffff;stop-opacity:1"
         offset="1" /></linearGradient><clipPath
       id="clipPath3438"><path
         d="M 241.591,734.055 L 241.836,733.126 L 245.378,740.553 L 241.591,734.055 z"
         id="path3440" /></clipPath><clipPath
       id="clipPath3448"><path
         d="M 0.0196686,-0.376816 L 0.980164,-0.376816 L 0.980164,0.400452 L 0.0196686,0.400452 L 0.0196686,-0.376816 z"
         id="path3450" /></clipPath><linearGradient
       x1="0"
       y1="0"
       x2="1"
       y2="0"
       id="linearGradient3452"
       gradientUnits="userSpaceOnUse"
       gradientTransform="matrix(3.9403992,7.7334595,7.7334595,-3.9403992,253.05749,674.9878)"
       spreadMethod="pad"><stop
         id="stop3454"
         style="stop-color:#99dff9;stop-opacity:1"
         offset="0" /><stop
         id="stop3456"
         style="stop-color:#ffffff;stop-opacity:1"
         offset="1" /></linearGradient><clipPath
       id="clipPath3464"><path
         d="M 235.133,737.767 L 242.099,732.164 L 241.839,733.138 L 235.133,737.767 z"
         id="path3466" /></clipPath><clipPath
       id="clipPath3474"><path
         d="M 0.0186768,-0.424698 L 0.9814,-0.424698 L 0.9814,0.424637 L 0.0186768,0.424637 L 0.0186768,-0.424698 z"
         id="path3476" /></clipPath><linearGradient
       x1="0"
       y1="0"
       x2="1"
       y2="0"
       id="linearGradient3478"
       gradientUnits="userSpaceOnUse"
       gradientTransform="matrix(-8.2063599,2.1988983,2.1988983,8.2063599,254.35456,675.83324)"
       spreadMethod="pad"><stop
         id="stop3480"
         style="stop-color:#99dff9;stop-opacity:1"
         offset="0" /><stop
         id="stop3482"
         style="stop-color:#ffffff;stop-opacity:1"
         offset="1" /></linearGradient><clipPath
       id="clipPath3494"><path
         d="M 235.127,750.879 L 235.127,750.879 L 241.632,754.627 L 241.875,755.588 L 235.127,750.879 z"
         id="path3496" /></clipPath><clipPath
       id="clipPath3504"><path
         d="M 0.0348816,-0.429413 L 0.980637,-0.429413 L 0.980637,0.430237 L 0.0348816,0.430237 L 0.0348816,-0.429413 z"
         id="path3506" /></clipPath><linearGradient
       x1="0"
       y1="0"
       x2="1"
       y2="0"
       id="linearGradient3508"
       gradientUnits="userSpaceOnUse"
       gradientTransform="matrix(-7.5072479,-4.3343048,-4.3343048,7.5072479,253.94959,697.39852)"
       spreadMethod="pad"><stop
         id="stop3510"
         style="stop-color:#99dff9;stop-opacity:1"
         offset="0" /><stop
         id="stop3512"
         style="stop-color:#ffffff;stop-opacity:1"
         offset="1" /></linearGradient><clipPath
       id="clipPath3520"><path
         d="M 241.856,755.586 L 245.379,748.138 L 242.126,756.492 L 241.856,755.586 z"
         id="path3522" /></clipPath><clipPath
       id="clipPath3530"><path
         d="M -0.00816345,-0.366653 L 0.997467,-0.366653 L 0.997467,0.330566 L -0.00816345,0.330566 L -0.00816345,-0.366653 z"
         id="path3532" /></clipPath><linearGradient
       x1="0"
       y1="0"
       x2="1"
       y2="0"
       id="linearGradient3534"
       gradientUnits="userSpaceOnUse"
       gradientTransform="matrix(3.2294464,-8.4130096,-8.4130096,-3.2294464,253.50295,698.38512)"
       spreadMethod="pad"><stop
         id="stop3536"
         style="stop-color:#99dff9;stop-opacity:1"
         offset="0" /><stop
         id="stop3538"
         style="stop-color:#ffffff;stop-opacity:1"
         offset="1" /></linearGradient><clipPath
       id="clipPath3546"><path
         d="M 245.417,748.079 L 249.113,741.551 L 250.04,741.299 L 250.041,741.3 L 245.417,748.079 z"
         id="path3548" /></clipPath><clipPath
       id="clipPath3556"><path
         d="M 0.0639038,-0.34906 L 0.957458,-0.34906 L 0.957458,0.349045 L 0.0639038,0.349045 L 0.0639038,-0.34906 z"
         id="path3558" /></clipPath><linearGradient
       x1="0"
       y1="0"
       x2="1"
       y2="0"
       id="linearGradient3560"
       gradientUnits="userSpaceOnUse"
       gradientTransform="matrix(-1.7667542,8.3118896,8.3118896,1.7667542,260.26568,682.41167)"
       spreadMethod="pad"><stop
         id="stop3562"
         style="stop-color:#99dff9;stop-opacity:1"
         offset="0" /><stop
         id="stop3564"
         style="stop-color:#ffffff;stop-opacity:1"
         offset="1" /></linearGradient><clipPath
       id="clipPath3572"><path
         d="M 242.645,737.81 L 251.005,741.045 L 250.031,741.307 L 242.645,737.81 z"
         id="path3574" /></clipPath><clipPath
       id="clipPath3582"><path
         d="M 0.019455,-0.327499 L 0.971909,-0.327499 L 0.971909,0.29567 L 0.019455,0.29567 L 0.019455,-0.327499 z"
         id="path3584" /></clipPath><linearGradient
       x1="0"
       y1="0"
       x2="1"
       y2="0"
       id="linearGradient3586"
       gradientUnits="userSpaceOnUse"
       gradientTransform="matrix(-9.0193634,-2.9305725,-2.9305725,9.0193634,262.88389,683.12183)"
       spreadMethod="pad"><stop
         id="stop3588"
         style="stop-color:#99dff9;stop-opacity:1"
         offset="0" /><stop
         id="stop3590"
         style="stop-color:#ffffff;stop-opacity:1"
         offset="1" /></linearGradient><clipPath
       id="clipPath3598"><path
         d="M 232.286,740.629 L 228.597,747.113 L 227.669,747.362 L 232.286,740.629 z"
         id="path3600" /></clipPath><clipPath
       id="clipPath3608"><path
         d="M 0.0276794,-0.416718 L 0.985397,-0.416718 L 0.985397,0.467987 L 0.0276794,0.467987 L 0.0276794,-0.416718 z"
         id="path3610" /></clipPath><linearGradient
       x1="0"
       y1="0"
       x2="1"
       y2="0"
       id="linearGradient3612"
       gradientUnits="userSpaceOnUse"
       gradientTransform="matrix(4.6416779,-7.1475677,-7.1475677,-4.6416779,239.44489,689.70203)"
       spreadMethod="pad"><stop
         id="stop3614"
         style="stop-color:#99dff9;stop-opacity:1"
         offset="0" /><stop
         id="stop3616"
         style="stop-color:#ffffff;stop-opacity:1"
         offset="1" /></linearGradient><clipPath
       id="clipPath3624"><path
         d="M 226.703,747.613 L 227.679,747.354 L 234.993,750.806 L 226.703,747.613 z"
         id="path3626" /></clipPath><clipPath
       id="clipPath3634"><path
         d="M 0.0151062,-0.348663 L 0.974503,-0.348663 L 0.974503,0.325104 L 0.0151062,0.325104 L 0.0151062,-0.348663 z"
         id="path3636" /></clipPath><linearGradient
       x1="0"
       y1="0"
       x2="1"
       y2="0"
       id="linearGradient3638"
       gradientUnits="userSpaceOnUse"
       gradientTransform="matrix(8.6783295,3.5062714,3.5062714,-8.6783295,238.22999,689.20991)"
       spreadMethod="pad"><stop
         id="stop3640"
         style="stop-color:#99dff9;stop-opacity:1"
         offset="0" /><stop
         id="stop3642"
         style="stop-color:#ffffff;stop-opacity:1"
         offset="1" /></linearGradient><clipPath
       id="clipPath3650"><path
         d="M 236.089,734.065 L 235.838,733.138 L 242.617,737.799 L 242.617,737.799 L 236.089,734.065 z"
         id="path3652" /></clipPath><clipPath
       id="clipPath3660"><path
         d="M 0.0325928,-0.413406 L 0.980133,-0.413406 L 0.980133,0.462357 L 0.0325928,0.462357 L 0.0325928,-0.413406 z"
         id="path3662" /></clipPath><linearGradient
       x1="0"
       y1="0"
       x2="1"
       y2="0"
       id="linearGradient3664"
       gradientUnits="userSpaceOnUse"
       gradientTransform="matrix(7.279541,4.7273865,4.7273865,-7.279541,247.0604,675.22022)"
       spreadMethod="pad"><stop
         id="stop3666"
         style="stop-color:#99dff9;stop-opacity:1"
         offset="0" /><stop
         id="stop3668"
         style="stop-color:#ffffff;stop-opacity:1"
         offset="1" /></linearGradient><clipPath
       id="clipPath3676"><path
         d="M 232.352,740.509 L 235.583,732.173 L 235.845,733.147 L 232.352,740.509 z"
         id="path3678" /></clipPath><clipPath
       id="clipPath3686"><path
         d="M -0.0185394,-0.496109 L 0.996216,-0.496109 L 0.996216,0.518646 L -0.0185394,0.518646 L -0.0185394,-0.496109 z"
         id="path3688" /></clipPath><linearGradient
       x1="0"
       y1="0"
       x2="1"
       y2="0"
       id="linearGradient3690"
       gradientUnits="userSpaceOnUse"
       gradientTransform="matrix(-5.8284149,5.8284149,5.8284149,5.8284149,248.51711,675.39336)"
       spreadMethod="pad"><stop
         id="stop3692"
         style="stop-color:#99dff9;stop-opacity:1"
         offset="0" /><stop
         id="stop3694"
         style="stop-color:#ffffff;stop-opacity:1"
         offset="1" /></linearGradient><clipPath
       id="clipPath3706"><path
         d="M 238.901,751.868 L 246.409,751.861 L 247.1,752.572 L 238.901,751.868 z"
         id="path3708" /></clipPath><clipPath
       id="clipPath3716"><path
         d="M 0.0188751,-0.0424042 L 0.997314,-0.0424042 L 0.997314,0.04245 L 0.0188751,0.04245 L 0.0188751,-0.0424042 z"
         id="path3718" /></clipPath><linearGradient
       x1="0"
       y1="0"
       x2="1"
       y2="0"
       id="linearGradient3720"
       gradientUnits="userSpaceOnUse"
       gradientTransform="matrix(-8.3794403,0,0,8.3794403,258.89318,694.18371)"
       spreadMethod="pad"><stop
         id="stop3722"
         style="stop-color:#99dff9;stop-opacity:1"
         offset="0" /><stop
         id="stop3724"
         style="stop-color:#ffffff;stop-opacity:1"
         offset="1" /></linearGradient><clipPath
       id="clipPath3732"><path
         d="M 247.082,752.58 L 246.41,744.368 L 247.77,753.23 L 247.77,753.23 L 247.082,752.58 z"
         id="path3734" /></clipPath><clipPath
       id="clipPath3742"><path
         d="M -3.05176e-05,-0.184402 L 0.999969,-0.184402 L 0.999969,0.120056 L -3.05176e-05,0.120056 L -3.05176e-05,-0.184402 z"
         id="path3744" /></clipPath><linearGradient
       x1="0"
       y1="0"
       x2="1"
       y2="0"
       id="linearGradient3746"
       gradientUnits="userSpaceOnUse"
       gradientTransform="matrix(-1.4024963,-8.8550262,-8.8550262,1.4024963,259.14085,695.2384)"
       spreadMethod="pad"><stop
         id="stop3748"
         style="stop-color:#99dff9;stop-opacity:1"
         offset="0" /><stop
         id="stop3750"
         style="stop-color:#ffffff;stop-opacity:1"
         offset="1" /></linearGradient><clipPath
       id="clipPath3758"><path
         d="M 246.35,736.798 L 247.027,736.115 L 246.414,744.299 L 246.35,736.798 z"
         id="path3760" /></clipPath><clipPath
       id="clipPath3768"><path
         d="M 0.0298309,-0.194092 L 0.989761,-0.194092 L 0.989761,0.186935 L 0.0298309,0.186935 L 0.0298309,-0.194092 z"
         id="path3770" /></clipPath><linearGradient
       x1="0"
       y1="0"
       x2="1"
       y2="0"
       id="linearGradient3772"
       gradientUnits="userSpaceOnUse"
       gradientTransform="matrix(2.5729065,7.9185944,7.9185944,-2.5729065,257.03999,678.12809)"
       spreadMethod="pad"><stop
         id="stop3774"
         style="stop-color:#99dff9;stop-opacity:1"
         offset="0" /><stop
         id="stop3776"
         style="stop-color:#ffffff;stop-opacity:1"
         offset="1" /></linearGradient><clipPath
       id="clipPath3784"><path
         d="M 247.736,735.412 L 247.023,736.127 L 238.877,736.792 L 247.736,735.412 z"
         id="path3786" /></clipPath><clipPath
       id="clipPath3794"><path
         d="M 0.0175934,-0.208939 L 0.982529,-0.208939 L 0.982529,0.151138 L 0.0175934,0.151138 L 0.0175934,-0.208939 z"
         id="path3796" /></clipPath><linearGradient
       x1="0"
       y1="0"
       x2="1"
       y2="0"
       id="linearGradient3798"
       gradientUnits="userSpaceOnUse"
       gradientTransform="matrix(-9.0288086,2.0844574,2.0844574,9.0288086,259.51647,677.28791)"
       spreadMethod="pad"><stop
         id="stop3800"
         style="stop-color:#99dff9;stop-opacity:1"
         offset="0" /><stop
         id="stop3802"
         style="stop-color:#ffffff;stop-opacity:1"
         offset="1" /></linearGradient><clipPath
       id="clipPath3810"><path
         d="M 231.317,744.412 L 231.364,751.872 L 230.684,752.551 L 231.317,744.412 z"
         id="path3812" /></clipPath><clipPath
       id="clipPath3820"><path
         d="M 0.0162201,-0.0429382 L 0.997528,-0.0429382 L 0.997528,0.0898437 L 0.0162201,0.0898437 L 0.0162201,-0.0429382 z"
         id="path3822" /></clipPath><linearGradient
       x1="0"
       y1="0"
       x2="1"
       y2="0"
       id="linearGradient3824"
       gradientUnits="userSpaceOnUse"
       gradientTransform="matrix(0.4354248,-8.3085022,-8.3085022,-0.4354248,242.63331,694.66996)"
       spreadMethod="pad"><stop
         id="stop3826"
         style="stop-color:#99dff9;stop-opacity:1"
         offset="0" /><stop
         id="stop3828"
         style="stop-color:#ffffff;stop-opacity:1"
         offset="1" /></linearGradient><clipPath
       id="clipPath3836"><path
         d="M 229.974,753.251 L 230.689,752.539 L 238.749,751.872 L 229.974,753.251 z"
         id="path3838" /></clipPath><clipPath
       id="clipPath3846"><path
         d="M 0.0184631,-0.149597 L 0.981567,-0.149597 L 0.981567,0.11499 L 0.0184631,0.11499 L 0.0184631,-0.149597 z"
         id="path3848" /></clipPath><linearGradient
       x1="0"
       y1="0"
       x2="1"
       y2="0"
       id="linearGradient3850"
       gradientUnits="userSpaceOnUse"
       gradientTransform="matrix(9.1499939,-1.1234894,-1.1234894,-9.1499939,241.40167,694.93201)"
       spreadMethod="pad"><stop
         id="stop3852"
         style="stop-color:#99dff9;stop-opacity:1"
         offset="0" /><stop
         id="stop3854"
         style="stop-color:#ffffff;stop-opacity:1"
         offset="1" /></linearGradient><clipPath
       id="clipPath3862"><path
         d="M 230.647,736.15 L 230.647,736.15 L 238.849,736.796 L 231.328,736.826 L 230.647,736.15 z"
         id="path3864" /></clipPath><clipPath
       id="clipPath3872"><path
         d="M 0.0345612,-0.0408478 L 0.978363,-0.0408478 L 0.978363,0.0859375 L 0.0345612,0.0859375 L 0.0345612,-0.0408478 z"
         id="path3874" /></clipPath><linearGradient
       x1="0"
       y1="0"
       x2="1"
       y2="0"
       id="linearGradient3876"
       gradientUnits="userSpaceOnUse"
       gradientTransform="matrix(8.7044067,0.4561768,0.4561768,-8.7044067,241.96394,678.42007)"
       spreadMethod="pad"><stop
         id="stop3878"
         style="stop-color:#99dff9;stop-opacity:1"
         offset="0" /><stop
         id="stop3880"
         style="stop-color:#ffffff;stop-opacity:1"
         offset="1" /></linearGradient><clipPath
       id="clipPath3888"><path
         d="M 229.944,735.44 L 230.658,736.153 L 231.313,744.275 L 229.944,735.44 z"
         id="path3890" /></clipPath><clipPath
       id="clipPath3898"><path
         d="M -0.029007,-0.214874 L 1.02905,-0.214874 L 1.02905,0.214813 L -0.029007,0.214813 L -0.029007,-0.214874 z"
         id="path3900" /></clipPath><linearGradient
       x1="0"
       y1="0"
       x2="1"
       y2="0"
       id="linearGradient3902"
       gradientUnits="userSpaceOnUse"
       gradientTransform="matrix(-2.1741791,8.1141663,8.1141663,2.1741791,243.3511,677.76742)"
       spreadMethod="pad"><stop
         id="stop3904"
         style="stop-color:#99dff9;stop-opacity:1"
         offset="0" /><stop
         id="stop3906"
         style="stop-color:#ffffff;stop-opacity:1"
         offset="1" /></linearGradient><clipPath
       id="clipPath3918"><path
         d="M 238.883,744.319 L 245.587,744.31 L 238.944,751.117 L 238.883,744.319 z"
         id="path3920" /></clipPath><clipPath
       id="clipPath3928"><path
         d="M 0.00840759,-0.487045 L 0.991501,-0.487045 L 0.991501,0.492554 L 0.00840759,0.492554 L 0.00840759,-0.487045 z"
         id="path3930" /></clipPath><linearGradient
       x1="0"
       y1="0"
       x2="1"
       y2="0"
       id="linearGradient3932"
       gradientUnits="userSpaceOnUse"
       gradientTransform="matrix(-5.0267334,-8.0444489,-8.0444489,5.0267334,256.40525,693.68864)"
       spreadMethod="pad"><stop
         id="stop3934"
         style="stop-color:#b3e7fb;stop-opacity:1"
         offset="0" /><stop
         id="stop3936"
         style="stop-color:#ffffff;stop-opacity:1"
         offset="1" /></linearGradient><clipPath
       id="clipPath3944"><path
         d="M 232.18,744.311 L 238.883,744.319 L 238.944,751.117 L 232.18,744.311 z"
         id="path3946" /></clipPath><clipPath
       id="clipPath3954"><path
         d="M 0.00918579,-0.491257 L 0.990662,-0.491257 L 0.990662,0.491196 L 0.00918579,0.491196 L 0.00918579,-0.491257 z"
         id="path3956" /></clipPath><linearGradient
       x1="0"
       y1="0"
       x2="1"
       y2="0"
       id="linearGradient3958"
       gradientUnits="userSpaceOnUse"
       gradientTransform="matrix(7.8077393,-5.6726532,-5.6726532,-7.8077393,243.29299,692.51658)"
       spreadMethod="pad"><stop
         id="stop3960"
         style="stop-color:#b3e7fb;stop-opacity:1"
         offset="0" /><stop
         id="stop3962"
         style="stop-color:#ffffff;stop-opacity:1"
         offset="1" /></linearGradient><clipPath
       id="clipPath3970"><path
         d="M 238.884,744.318 L 238.886,737.543 L 245.585,744.31 L 238.884,744.319 L 238.884,744.318 z"
         id="path3972" /></clipPath><clipPath
       id="clipPath3980"><path
         d="M 0.0478516,-0.453888 L 0.952148,-0.453888 L 0.952148,0.454773 L 0.0478516,0.454773 L 0.0478516,-0.453888 z"
         id="path3982" /></clipPath><linearGradient
       x1="0"
       y1="0"
       x2="1"
       y2="0"
       id="linearGradient3984"
       gradientUnits="userSpaceOnUse"
       gradientTransform="matrix(-8.9727783,3.6252441,3.6252441,8.9727783,258.35439,681.08143)"
       spreadMethod="pad"><stop
         id="stop3986"
         style="stop-color:#b3e7fb;stop-opacity:1"
         offset="0" /><stop
         id="stop3988"
         style="stop-color:#ffffff;stop-opacity:1"
         offset="1" /></linearGradient><clipPath
       id="clipPath3996"><path
         d="M 232.18,744.311 L 238.886,737.543 L 238.886,737.543 L 238.882,744.319 L 232.18,744.311 z"
         id="path3998" /></clipPath><clipPath
       id="clipPath4006"><path
         d="M 0.00917053,-0.490814 L 0.990784,-0.490814 L 0.990784,0.490067 L 0.00917053,0.490067 L 0.00917053,-0.490814 z"
         id="path4008" /></clipPath><linearGradient
       x1="0"
       y1="0"
       x2="1"
       y2="0"
       id="linearGradient4010"
       gradientUnits="userSpaceOnUse"
       gradientTransform="matrix(6.3584747,7.3145752,7.3145752,-6.3584747,243.99143,679.23852)"
       spreadMethod="pad"><stop
         id="stop4012"
         style="stop-color:#b3e7fb;stop-opacity:1"
         offset="0" /><stop
         id="stop4014"
         style="stop-color:#ffffff;stop-opacity:1"
         offset="1" /></linearGradient><clipPath
       id="clipPath4026"><path
         d="M 226.662,732.132 L 375.082,732.132 L 375.082,756.523 L 226.662,756.523 L 226.662,732.132 z"
         id="path4028" /></clipPath></defs><g
     transform="matrix(1.25,0,0,-1.25,-14.543493,979.82138)"
     id="g2708"><g
       id="g3278"><g
         clip-path="url(#clipPath3282)"
         id="g3280"><g
           id="g3286"><g
             id="g3288"><g
               clip-path="url(#clipPath3292)"
               id="g3290"><path
                 d="M 232.35,748.136 L 232.35,748.136 L 236.111,754.634 L 235.84,755.588 L 232.35,748.136 z"
                 id="path3302"
                 style="fill:url(#linearGradient3296);stroke:none" /></g></g></g></g></g><g
       id="g3304"><g
         clip-path="url(#clipPath3308)"
         id="g3306"><g
           id="g3312"><g
             id="g3314"><g
               clip-path="url(#clipPath3318)"
               id="g3316"><path
                 d="M 235.825,755.576 L 242.6,750.888 L 235.606,756.496 L 235.825,755.576 z"
                 id="path3328"
                 style="fill:url(#linearGradient3322);stroke:none" /></g></g></g></g></g><g
       id="g3330"><g
         clip-path="url(#clipPath3334)"
         id="g3332"><g
           id="g3338"><g
             id="g3340"><g
               clip-path="url(#clipPath3344)"
               id="g3342"><path
                 d="M 249.127,747.051 L 250.056,747.295 L 242.662,750.856 L 249.127,747.051 z"
                 id="path3354"
                 style="fill:url(#linearGradient3348);stroke:none" /></g></g></g></g></g><g
       id="g3356"><g
         clip-path="url(#clipPath3360)"
         id="g3358"><g
           id="g3364"><g
             id="g3366"><g
               clip-path="url(#clipPath3370)"
               id="g3368"><path
                 d="M 250.044,747.299 L 245.396,740.577 L 251.019,747.558 L 251.019,747.558 L 250.044,747.299 z"
                 id="path3380"
                 style="fill:url(#linearGradient3374);stroke:none" /></g></g></g></g></g><g
       id="g3382"><g
         clip-path="url(#clipPath3386)"
         id="g3384"><g
           id="g3390"><g
             id="g3392"><g
               clip-path="url(#clipPath3396)"
               id="g3394"><path
                 d="M 227.65,741.362 L 235.016,737.839 L 228.579,741.61 L 227.65,741.362 z"
                 id="path3406"
                 style="fill:url(#linearGradient3400);stroke:none" /></g></g></g></g></g><g
       id="g3408"><g
         clip-path="url(#clipPath3412)"
         id="g3410"><g
           id="g3416"><g
             id="g3418"><g
               clip-path="url(#clipPath3422)"
               id="g3420"><path
                 d="M 226.689,741.095 L 226.689,741.095 L 227.663,741.359 L 232.272,748.005 L 226.689,741.095 z"
                 id="path3432"
                 style="fill:url(#linearGradient3426);stroke:none" /></g></g></g></g></g><g
       id="g3434"><g
         clip-path="url(#clipPath3438)"
         id="g3436"><g
           id="g3442"><g
             id="g3444"><g
               clip-path="url(#clipPath3448)"
               id="g3446"><path
                 d="M 241.591,734.055 L 241.836,733.126 L 245.378,740.553 L 241.591,734.055 z"
                 id="path3458"
                 style="fill:url(#linearGradient3452);stroke:none" /></g></g></g></g></g><g
       id="g3460"><g
         clip-path="url(#clipPath3464)"
         id="g3462"><g
           id="g3468"><g
             id="g3470"><g
               clip-path="url(#clipPath3474)"
               id="g3472"><path
                 d="M 235.133,737.767 L 242.099,732.164 L 241.839,733.138 L 235.133,737.767 z"
                 id="path3484"
                 style="fill:url(#linearGradient3478);stroke:none" /></g></g></g></g></g><g
       id="g3490"><g
         clip-path="url(#clipPath3494)"
         id="g3492"><g
           id="g3498"><g
             id="g3500"><g
               clip-path="url(#clipPath3504)"
               id="g3502"><path
                 d="M 235.127,750.879 L 235.127,750.879 L 241.632,754.627 L 241.875,755.588 L 235.127,750.879 z"
                 id="path3514"
                 style="fill:url(#linearGradient3508);stroke:none" /></g></g></g></g></g><g
       id="g3516"><g
         clip-path="url(#clipPath3520)"
         id="g3518"><g
           id="g3524"><g
             id="g3526"><g
               clip-path="url(#clipPath3530)"
               id="g3528"><path
                 d="M 241.856,755.586 L 245.379,748.138 L 242.126,756.492 L 241.856,755.586 z"
                 id="path3540"
                 style="fill:url(#linearGradient3534);stroke:none" /></g></g></g></g></g><g
       id="g3542"><g
         clip-path="url(#clipPath3546)"
         id="g3544"><g
           id="g3550"><g
             id="g3552"><g
               clip-path="url(#clipPath3556)"
               id="g3554"><path
                 d="M 245.417,748.079 L 249.113,741.551 L 250.04,741.299 L 250.041,741.3 L 245.417,748.079 z"
                 id="path3566"
                 style="fill:url(#linearGradient3560);stroke:none" /></g></g></g></g></g><g
       id="g3568"><g
         clip-path="url(#clipPath3572)"
         id="g3570"><g
           id="g3576"><g
             id="g3578"><g
               clip-path="url(#clipPath3582)"
               id="g3580"><path
                 d="M 242.645,737.81 L 251.005,741.045 L 250.031,741.307 L 242.645,737.81 z"
                 id="path3592"
                 style="fill:url(#linearGradient3586);stroke:none" /></g></g></g></g></g><g
       id="g3594"><g
         clip-path="url(#clipPath3598)"
         id="g3596"><g
           id="g3602"><g
             id="g3604"><g
               clip-path="url(#clipPath3608)"
               id="g3606"><path
                 d="M 232.286,740.629 L 228.597,747.113 L 227.669,747.362 L 232.286,740.629 z"
                 id="path3618"
                 style="fill:url(#linearGradient3612);stroke:none" /></g></g></g></g></g><g
       id="g3620"><g
         clip-path="url(#clipPath3624)"
         id="g3622"><g
           id="g3628"><g
             id="g3630"><g
               clip-path="url(#clipPath3634)"
               id="g3632"><path
                 d="M 226.703,747.613 L 227.679,747.354 L 234.993,750.806 L 226.703,747.613 z"
                 id="path3644"
                 style="fill:url(#linearGradient3638);stroke:none" /></g></g></g></g></g><g
       id="g3646"><g
         clip-path="url(#clipPath3650)"
         id="g3648"><g
           id="g3654"><g
             id="g3656"><g
               clip-path="url(#clipPath3660)"
               id="g3658"><path
                 d="M 236.089,734.065 L 235.838,733.138 L 242.617,737.799 L 242.617,737.799 L 236.089,734.065 z"
                 id="path3670"
                 style="fill:url(#linearGradient3664);stroke:none" /></g></g></g></g></g><g
       id="g3672"><g
         clip-path="url(#clipPath3676)"
         id="g3674"><g
           id="g3680"><g
             id="g3682"><g
               clip-path="url(#clipPath3686)"
               id="g3684"><path
                 d="M 232.352,740.509 L 235.583,732.173 L 235.845,733.147 L 232.352,740.509 z"
                 id="path3696"
                 style="fill:url(#linearGradient3690);stroke:none" /></g></g></g></g></g><g
       id="g3702"><g
         clip-path="url(#clipPath3706)"
         id="g3704"><g
           id="g3710"><g
             id="g3712"><g
               clip-path="url(#clipPath3716)"
               id="g3714"><path
                 d="M 238.901,751.868 L 246.409,751.861 L 247.1,752.572 L 238.901,751.868 z"
                 id="path3726"
                 style="fill:url(#linearGradient3720);stroke:none" /></g></g></g></g></g><g
       id="g3728"><g
         clip-path="url(#clipPath3732)"
         id="g3730"><g
           id="g3736"><g
             id="g3738"><g
               clip-path="url(#clipPath3742)"
               id="g3740"><path
                 d="M 247.082,752.58 L 246.41,744.368 L 247.77,753.23 L 247.77,753.23 L 247.082,752.58 z"
                 id="path3752"
                 style="fill:url(#linearGradient3746);stroke:none" /></g></g></g></g></g><g
       id="g3754"><g
         clip-path="url(#clipPath3758)"
         id="g3756"><g
           id="g3762"><g
             id="g3764"><g
               clip-path="url(#clipPath3768)"
               id="g3766"><path
                 d="M 246.35,736.798 L 247.027,736.115 L 246.414,744.299 L 246.35,736.798 z"
                 id="path3778"
                 style="fill:url(#linearGradient3772);stroke:none" /></g></g></g></g></g><g
       id="g3780"><g
         clip-path="url(#clipPath3784)"
         id="g3782"><g
           id="g3788"><g
             id="g3790"><g
               clip-path="url(#clipPath3794)"
               id="g3792"><path
                 d="M 247.736,735.412 L 247.023,736.127 L 238.877,736.792 L 247.736,735.412 z"
                 id="path3804"
                 style="fill:url(#linearGradient3798);stroke:none" /></g></g></g></g></g><g
       id="g3806"><g
         clip-path="url(#clipPath3810)"
         id="g3808"><g
           id="g3814"><g
             id="g3816"><g
               clip-path="url(#clipPath3820)"
               id="g3818"><path
                 d="M 231.317,744.412 L 231.364,751.872 L 230.684,752.551 L 231.317,744.412 z"
                 id="path3830"
                 style="fill:url(#linearGradient3824);stroke:none" /></g></g></g></g></g><g
       id="g3832"><g
         clip-path="url(#clipPath3836)"
         id="g3834"><g
           id="g3840"><g
             id="g3842"><g
               clip-path="url(#clipPath3846)"
               id="g3844"><path
                 d="M 229.974,753.251 L 230.689,752.539 L 238.749,751.872 L 229.974,753.251 z"
                 id="path3856"
                 style="fill:url(#linearGradient3850);stroke:none" /></g></g></g></g></g><g
       id="g3858"><g
         clip-path="url(#clipPath3862)"
         id="g3860"><g
           id="g3866"><g
             id="g3868"><g
               clip-path="url(#clipPath3872)"
               id="g3870"><path
                 d="M 230.647,736.15 L 230.647,736.15 L 238.849,736.796 L 231.328,736.826 L 230.647,736.15 z"
                 id="path3882"
                 style="fill:url(#linearGradient3876);stroke:none" /></g></g></g></g></g><g
       id="g3884"><g
         clip-path="url(#clipPath3888)"
         id="g3886"><g
           id="g3892"><g
             id="g3894"><g
               clip-path="url(#clipPath3898)"
               id="g3896"><path
                 d="M 229.944,735.44 L 230.658,736.153 L 231.313,744.275 L 229.944,735.44 z"
                 id="path3908"
                 style="fill:url(#linearGradient3902);stroke:none" /></g></g></g></g></g><g
       id="g3914"><g
         clip-path="url(#clipPath3918)"
         id="g3916"><g
           id="g3922"><g
             id="g3924"><g
               clip-path="url(#clipPath3928)"
               id="g3926"><path
                 d="M 238.883,744.319 L 245.587,744.31 L 238.944,751.117 L 238.883,744.319 z"
                 id="path3938"
                 style="fill:url(#linearGradient3932);stroke:none" /></g></g></g></g></g><g
       id="g3940"><g
         clip-path="url(#clipPath3944)"
         id="g3942"><g
           id="g3948"><g
             id="g3950"><g
               clip-path="url(#clipPath3954)"
               id="g3952"><path
                 d="M 232.18,744.311 L 238.883,744.319 L 238.944,751.117 L 232.18,744.311 z"
                 id="path3964"
                 style="fill:url(#linearGradient3958);stroke:none" /></g></g></g></g></g><g
       id="g3966"><g
         clip-path="url(#clipPath3970)"
         id="g3968"><g
           id="g3974"><g
             id="g3976"><g
               clip-path="url(#clipPath3980)"
               id="g3978"><path
                 d="M 238.884,744.318 L 238.886,737.543 L 245.585,744.31 L 238.884,744.319 L 238.884,744.318 z"
                 id="path3990"
                 style="fill:url(#linearGradient3984);stroke:none" /></g></g></g></g></g><g
       id="g3992"><g
         clip-path="url(#clipPath3996)"
         id="g3994"><g
           id="g4000"><g
             id="g4002"><g
               clip-path="url(#clipPath4006)"
               id="g4004"><path
                 d="M 232.18,744.311 L 238.886,737.543 L 238.886,737.543 L 238.882,744.319 L 232.18,744.311 z"
                 id="path4016"
                 style="fill:url(#linearGradient4010);stroke:none" /></g></g></g></g></g><g
       transform="matrix(4.7763768,0,0,4.7763768,-1068.1383,-2832.4181)"
       id="g4034"><path
         d="M 226.663,756.523 L 251.054,756.523 L 251.054,732.132 L 226.663,732.132 L 226.663,756.523 z"
         id="path3272"
         style="fill:#04a1e6;fill-opacity:1;fill-rule:nonzero;stroke:none" /><g
         transform="translate(235.1175,737.7847)"
         id="g3274"><path
           d="M 0,0 L 6.485,-3.751 L 10.259,2.763 L 14.036,9.292 L 7.527,13.067 L 15.914,9.792 L 10.258,2.758 L 6.982,-5.628 L 0,0 z M -2.83,10.245 L -8.434,3.305 L -0.08,0.046 L -6.561,3.802 L -2.83,10.245 z M 0.489,18.713 L -2.773,10.344 L 0.993,16.848 L 7.498,13.084 L 0.489,18.713 z"
           id="path3276"
           style="fill:#ffffff;fill-opacity:1;fill-rule:nonzero;stroke:none" /></g><g
         transform="translate(232.3475,740.5311)"
         id="g3486"><path
           d="M 0,0 L 3.74,-6.491 L 10.266,-2.736 L 16.801,1.03 L 13.052,7.553 L 18.677,0.523 L 10.263,-2.741 L 3.232,-8.365 L 0,0 z M 2.671,10.289 L -5.652,7.079 L -0.046,0.081 L -3.781,6.574 L 2.671,10.289 z M 9.78,15.961 L 2.771,10.345 L 9.284,14.095 L 13.035,7.582 L 9.78,15.961 z"
           id="path3488"
           style="fill:#ffffff;fill-opacity:1;fill-rule:nonzero;stroke:none" /></g><g
         transform="translate(231.321,744.2965)"
         id="g3698"><path
           d="M 0,0 L -1.384,-8.861 L 7.517,-7.505 L 16.436,-8.886 L 15.08,0.015 L 15.065,-7.509 L 7.523,-7.503 L -0.007,-7.491 L 0,0 z M 7.458,7.574 L -1.355,8.957 L 0,0.093 L 0.011,7.583 L 7.458,7.574 z M 16.451,8.933 L 7.572,7.574 L 15.087,7.564 L 15.08,0.049 L 16.451,8.933 z"
           id="path3700"
           style="fill:#ffffff;fill-opacity:1;fill-rule:nonzero;stroke:none" /></g><g
         transform="translate(232.1803,744.3108)"
         id="g3910"><path
           d="M 0,0 L 6.705,-6.768 L 13.406,0 L 6.763,6.806 L 0,0 z"
           id="path3912"
           style="fill:#ffffff;fill-opacity:1;fill-rule:nonzero;stroke:none" /></g><g
         transform="translate(235.7719,744.3297)"
         id="g4018"><path
           d="M 0,0 L 3.089,3.089 L 6.177,0 L 3.089,-3.089 L 0,0 z"
           id="path4020"
           style="fill:#ffffff;fill-opacity:1;fill-rule:nonzero;stroke:none" /></g><g
         id="g4022"><g
           clip-path="url(#clipPath4026)"
           id="g4024"><g
             transform="translate(358.2039,745.5044)"
             id="g4030"><path
               d="M 0,0 L -2.374,7.04 L -6.017,7.049 L -6.017,-9.692 L -2.349,-9.692 L -2.349,-2.35 L -0.122,-9.684 L 3.669,-9.692 L 3.669,7.049 L 0,7.049 L 0,0 z M 14.089,-0.587 C 14.089,0.29 16.758,5.617 16.878,7.049 L 12.769,7.049 L 10.661,0.702 L 10.567,6.902 L 6.458,6.902 L 6.458,-9.692 L 10.567,-9.692 L 10.567,-2.79 C 11.139,-3.613 12.033,-9.692 12.769,-9.692 L 16.878,-9.692 C 16.86,-8.873 15.77,-6.17 15.524,-5.025 C 15.395,-4.42 14.089,-0.941 14.089,-0.587 M -24.657,2.056 C -24.657,1.95 -24.659,1.847 -24.663,1.748 C -24.664,1.713 -24.667,1.68 -24.669,1.647 C -24.673,1.582 -24.677,1.519 -24.683,1.458 C -24.688,1.42 -24.694,1.384 -24.699,1.347 C -24.707,1.294 -24.716,1.243 -24.727,1.194 C -24.735,1.158 -24.746,1.124 -24.756,1.09 C -24.769,1.045 -24.784,1.002 -24.801,0.962 C -24.815,0.93 -24.829,0.9 -24.845,0.87 C -24.866,0.832 -24.89,0.797 -24.915,0.764 C -24.934,0.739 -24.952,0.714 -24.974,0.692 C -25.005,0.66 -25.042,0.632 -25.079,0.606 C -25.103,0.59 -25.124,0.572 -25.15,0.558 C -25.202,0.529 -25.262,0.508 -25.326,0.49 C -25.345,0.485 -25.36,0.477 -25.38,0.472 C -25.47,0.452 -25.571,0.44 -25.684,0.44 L -26.124,0.44 L -26.124,4.112 L -25.684,4.112 C -25.585,4.112 -25.494,4.1 -25.41,4.081 C -25.394,4.077 -25.38,4.071 -25.365,4.066 C -25.257,4.037 -25.16,3.994 -25.079,3.935 C -25.073,3.932 -25.067,3.929 -25.062,3.926 C -24.979,3.864 -24.913,3.786 -24.856,3.7 C -24.847,3.684 -24.836,3.669 -24.827,3.653 C -24.776,3.566 -24.737,3.468 -24.71,3.36 C -24.704,3.342 -24.702,3.322 -24.697,3.302 C -24.673,3.188 -24.657,3.068 -24.657,2.937 L -24.657,2.056 z M -24.657,-5.873 C -24.657,-5.977 -24.678,-6.066 -24.707,-6.148 C -24.716,-6.172 -24.729,-6.195 -24.74,-6.217 C -24.767,-6.273 -24.801,-6.323 -24.841,-6.369 C -24.858,-6.387 -24.874,-6.407 -24.892,-6.424 C -24.948,-6.473 -25.009,-6.518 -25.08,-6.556 C -25.088,-6.56 -25.094,-6.565 -25.103,-6.57 C -25.185,-6.611 -25.277,-6.643 -25.375,-6.669 C -25.395,-6.674 -25.416,-6.678 -25.436,-6.683 C -25.52,-6.702 -25.609,-6.717 -25.699,-6.729 C -25.728,-6.732 -25.756,-6.736 -25.785,-6.738 C -25.896,-6.749 -26.009,-6.755 -26.124,-6.755 L -26.124,-2.203 L -25.684,-2.203 C -25.541,-2.203 -25.42,-2.227 -25.307,-2.257 C -25.259,-2.269 -25.216,-2.286 -25.173,-2.304 C -25.102,-2.334 -25.039,-2.373 -24.982,-2.418 C -24.949,-2.445 -24.916,-2.471 -24.888,-2.503 C -24.837,-2.561 -24.799,-2.631 -24.766,-2.706 C -24.75,-2.742 -24.729,-2.772 -24.717,-2.812 C -24.679,-2.934 -24.657,-3.071 -24.657,-3.23 L -24.657,-5.873 z M -22.749,-0.587 C -21.703,-0.344 -20.694,0.198 -20.694,1.469 L -20.694,2.497 C -20.694,2.706 -20.701,2.906 -20.714,3.099 C -20.718,3.163 -20.727,3.221 -20.733,3.284 C -20.745,3.409 -20.756,3.534 -20.773,3.651 C -20.784,3.721 -20.799,3.786 -20.811,3.854 C -20.83,3.956 -20.847,4.058 -20.872,4.155 C -20.888,4.224 -20.909,4.288 -20.929,4.355 C -20.954,4.442 -20.979,4.53 -21.008,4.612 C -21.031,4.678 -21.059,4.738 -21.085,4.8 C -21.117,4.876 -21.148,4.953 -21.183,5.024 C -21.213,5.084 -21.248,5.141 -21.28,5.198 C -21.318,5.264 -21.355,5.331 -21.397,5.393 C -21.433,5.447 -21.474,5.499 -21.513,5.551 C -21.557,5.608 -21.601,5.666 -21.649,5.719 C -21.692,5.768 -21.739,5.815 -21.786,5.861 C -21.835,5.91 -21.885,5.959 -21.938,6.005 C -21.989,6.049 -22.042,6.09 -22.096,6.131 C -22.151,6.173 -22.207,6.214 -22.265,6.253 C -22.323,6.291 -22.383,6.327 -22.444,6.363 C -22.504,6.398 -22.566,6.432 -22.63,6.464 C -22.695,6.497 -22.762,6.527 -22.83,6.557 C -22.896,6.586 -22.963,6.613 -23.031,6.639 C -23.104,6.666 -23.178,6.692 -23.253,6.717 C -23.324,6.74 -23.397,6.761 -23.47,6.781 C -23.55,6.803 -23.631,6.824 -23.714,6.843 C -23.79,6.86 -23.867,6.875 -23.945,6.89 C -24.033,6.907 -24.122,6.923 -24.214,6.937 C -24.292,6.949 -24.374,6.96 -24.455,6.969 C -24.552,6.981 -24.649,6.993 -24.749,7.002 C -24.832,7.009 -24.917,7.014 -25.002,7.02 C -25.107,7.027 -25.213,7.033 -25.322,7.038 C -25.345,7.038 -25.367,7.041 -25.391,7.041 C -25.534,7.046 -25.681,7.049 -25.83,7.049 L -30.527,7.049 L -30.527,-9.692 L -24.804,-9.692 C -21.21,-9.692 -20.4,-9.035 -20.4,-5.434 L -20.4,-3.67 C -20.4,-1.323 -21.53,-1.435 -22.749,-0.587 M -48.579,-0.294 C -49.346,0.269 -50.586,7.049 -51.368,7.049 L -54.743,7.049 L -54.743,-9.692 L -51.074,-9.692 L -51.074,-2.496 L -48.795,-9.668 L -45.058,-9.692 L -45.058,6.902 L -48.579,6.902 L -48.579,-0.294 z M -62.963,2.79 L -62.963,3.525 C -62.963,4.019 -62.704,4.553 -62.229,4.553 L -62.082,4.553 C -61.632,4.553 -61.494,4.123 -61.494,3.671 L -61.494,1.909 L -57.533,1.909 L -57.533,3.965 C -57.533,6.319 -59.833,7.342 -62.229,7.342 C -64.54,7.342 -66.926,6.282 -66.926,4.112 L -66.926,1.909 C -66.926,-2.221 -61.202,-2.326 -61.202,-5.286 L -61.202,-6.314 C -61.202,-6.688 -61.649,-7.196 -62.082,-7.196 C -62.419,-7.196 -62.253,-7.146 -62.67,-7.049 C -62.746,-6.719 -62.816,-6.711 -62.816,-6.314 L -62.816,-3.67 L -66.926,-3.67 L -66.926,-4.552 C -66.926,-8.27 -65.619,-9.985 -61.936,-9.985 L -61.202,-9.985 C -58.982,-9.985 -57.093,-8.384 -57.093,-6.02 L -57.093,-5.434 C -57.093,1.028 -62.963,0.095 -62.963,2.79 M -84.685,2.644 L -84.685,3.525 C -84.685,4.019 -84.425,4.553 -83.95,4.553 C -83.607,4.553 -83.363,4.309 -83.363,3.965 L -83.363,1.909 L -79.254,1.909 L -79.254,3.378 C -79.254,6.379 -81.27,7.342 -84.244,7.342 C -87.284,7.342 -88.794,5.878 -88.794,2.79 L -88.794,2.644 C -88.794,-2.491 -83.07,-2.443 -83.07,-4.846 L -83.07,-6.461 C -83.07,-6.803 -83.461,-7.196 -83.803,-7.196 L -83.95,-7.196 C -84.526,-7.196 -84.685,-6.469 -84.685,-5.873 L -84.685,-3.67 L -88.647,-3.67 L -88.647,-5.873 C -88.647,-8.65 -86.477,-9.985 -83.657,-9.985 L -83.363,-9.985 C -80.86,-9.985 -78.96,-8.756 -78.96,-6.168 L -78.96,-4.111 C -78.96,-0.042 -84.685,0.511 -84.685,2.644 M -72.062,-2.643 L -69.42,-2.643 L -69.42,0.587 L -72.062,0.587 L -72.062,3.671 L -69.274,3.671 L -69.274,7.049 L -76.465,7.049 L -76.465,-9.692 L -68.981,-9.692 L -68.981,-6.314 L -72.062,-6.314 L -72.062,-2.643 z M -99.948,3.671 L -97.453,3.671 L -97.453,-9.692 L -93.05,-9.692 L -93.05,3.671 L -90.408,3.671 L -90.408,7.049 L -99.948,7.049 L -99.948,3.671 z M -13.952,-3.818 L -13.437,3.519 L -13.209,3.525 L -13.209,2.79 L -12.721,-3.814 L -13.952,-3.818 z M -16.585,6.902 L -18.644,-8.663 L -18.639,-9.692 L -14.405,-9.691 L -14.197,-6.317 L -12.475,-6.314 L -12.293,-9.689 L -7.925,-9.692 L -10.316,6.896 L -16.585,6.902 z M -37.823,-3.816 L -38.499,-3.814 L -37.854,3.523 L -37.719,3.525 L -37.147,-3.819 L -37.823,-3.816 z M -41.094,6.902 L -43.241,-9.68 L -38.893,-9.692 C -38.893,-8.968 -38.965,-6.314 -38.305,-6.314 L -36.986,-6.314 L -36.803,-9.689 L -32.435,-9.692 L -34.793,6.9 L -41.094,6.902 z"
               id="path4032"
               style="fill:#23469d;fill-opacity:1;fill-rule:evenodd;stroke:none" /></g></g></g></g></g></svg>