<?xml version="1.0"?>
<svg version="1.1" xmlns="http://www.w3.org/2000/svg" xmlns:xlink="http://www.w3.org/1999/xlink" width="530" height="150">
    <desc iVinci="yes" version="4.6" gridStep="20" showGrid="no" snapToGrid="no" codePlatform="0"/>
    <g id="Layer1" name="Layer 1" opacity="1">
        <g id="Shape1">
            <desc shapeID="1" type="0" basicInfo-basicType="0" basicInfo-roundedRectRadius="12" basicInfo-polygonSides="6" basicInfo-starPoints="5" bounding="rect(-123.997,-95.3912,247.993,190.783)" text="" font-familyName="" font-pixelSize="20" font-bold="0" font-underline="0" font-alignment="1" strokeStyle="0" markerStart="0" markerEnd="0" shadowEnabled="0" shadowOffsetX="0" shadowOffsetY="2" shadowBlur="4" shadowOpacity="160" blurEnabled="0" blurRadius="4" transform="matrix(0.790028,0,0,0.790028,101.961,75.3618)" pers-center="0,0" pers-size="0,0" pers-start="0,0" pers-end="0,0" locked="0" mesh="" flag=""/>
            <path id="shapePath1" d="M3.99998,148.552 L34.3235,148.552 L34.3235,95.994 C35.7292,96.32 37.3354,96.537 39.0764,96.6821 C40.8497,96.791 42.7578,96.8631 44.7666,96.8631 C53.8705,96.8631 62.1376,95.5959 69.6345,93.0625 C77.098,90.5291 83.4912,86.6555 88.7464,81.4436 C92.8629,77.389 95.9754,72.3582 98.0508,66.4214 C100.159,60.4854 101.196,53.8974 101.196,46.6942 C101.163,39.4551 99.8582,32.9391 97.2805,27.1482 C94.7368,21.3203 91.2225,16.5426 86.7375,12.814 C82.2526,8.90442 76.5623,5.97287 69.7351,4.01858 C62.907,2.06333 54.7738,1.08616 45.3688,1.08616 C36.0645,1.08616 28.0311,1.37617 21.2362,1.95527 C14.4422,2.49834 8.68539,3.22151 3.99998,4.12666 L3.99998,148.552 M34.3235,27.3652 C35.4282,27.0392 37.0343,26.7501 39.1096,26.5691 C41.2181,26.3881 43.7626,26.2791 46.7746,26.2791 C54.5392,26.3151 60.4964,28.2344 64.6138,31.9619 C68.7644,35.7266 70.8388,40.9754 70.873,47.7804 C70.8388,52.7032 69.8025,56.9379 67.6598,60.4854 C65.5512,63.996 62.5384,66.7113 58.6233,68.5936 C54.7063,70.476 50.0209,71.417 44.5652,71.4531 C42.2886,71.4531 40.3149,71.3801 38.6745,71.2721 C37.0684,71.1271 35.5953,70.91 34.3235,70.584 L34.3235,27.3652 M107.143,141.602 C109.719,143.159 113.038,144.61 117.049,145.982 C121.062,147.353 125.485,148.518 130.371,149.384 C135.257,150.251 140.311,150.724 145.499,150.724 C154.771,150.724 162.833,149.431 169.664,147.068 C176.514,144.698 182.169,141.399 186.634,137.222 C191.097,133.046 194.456,128.236 196.641,122.78 C198.832,117.312 199.922,111.522 199.922,105.333 C199.922,98.4923 198.672,92.3375 196.173,86.9815 C193.66,81.5951 189.814,76.8099 184.659,72.6473 C179.505,68.4847 172.935,64.8429 164.978,61.6796 C159.119,59.3494 154.338,57.1725 150.62,55.2006 C146.916,53.2361 144.19,51.1432 142.454,48.9386 C140.717,46.7349 139.862,44.0842 139.876,41.0474 C139.887,38.5546 140.582,36.229 142.018,34.0983 C143.453,31.9656 145.678,30.2718 148.579,28.9576 C151.493,27.6377 155.138,26.9311 159.557,26.9311 C163.908,26.9311 167.899,27.3486 171.505,28.0893 C175.087,28.8245 178.246,29.7371 180.978,30.8038 C183.693,31.864 185.931,32.9031 187.672,33.8803 L194.499,7.38418 C190.517,5.28484 185.692,3.51153 180.007,2.13626 C174.354,0.768394 167.657,1.52588e-05 159.958,1.52588e-05 C151.992,1.52588e-05 144.853,1.14713 138.571,3.33047 C132.276,5.51852 126.893,8.62727 122.472,12.5609 C118.031,16.5102 114.628,21.1763 112.296,26.4601 C109.951,31.7736 108.749,37.5728 108.749,43.8708 C108.749,50.9289 110.359,57.1947 113.435,62.6567 C116.51,68.118 120.835,72.8689 126.421,76.919 C132.006,80.9689 138.559,84.4573 146.101,87.3076 C151.47,89.3358 155.879,91.2929 159.221,93.2795 C162.565,95.2662 165.004,97.4181 166.518,99.7226 C168.043,102.043 168.807,104.721 168.795,107.722 C168.782,110.939 167.986,113.734 166.351,116.084 C164.715,118.432 162.301,120.284 159.122,121.586 C155.943,122.888 151.988,123.591 147.306,123.576 C142.925,123.563 138.667,123.105 134.487,122.237 C130.341,121.375 126.45,120.205 122.84,118.835 C119.23,117.463 116.079,116.011 113.368,114.455 L107.143,141.602 Z" style="stroke:none;fill-rule:evenodd;fill:#ae3673;fill-opacity:1;"/>
        </g>
        <g id="Shape2">
            <desc shapeID="2" type="0" basicInfo-basicType="0" basicInfo-roundedRectRadius="12" basicInfo-polygonSides="6" basicInfo-starPoints="5" bounding="rect(-124.103,-28.6554,248.206,57.3107)" text="" font-familyName="" font-pixelSize="20" font-bold="0" font-underline="0" font-alignment="1" strokeStyle="0" markerStart="0" markerEnd="0" shadowEnabled="0" shadowOffsetX="0" shadowOffsetY="2" shadowBlur="4" shadowOpacity="160" blurEnabled="0" blurRadius="4" transform="matrix(1.13496,0,0,1.13496,384.953,32.5226)" pers-center="0,0" pers-size="0,0" pers-start="0,0" pers-end="0,0" locked="0" mesh="" flag=""/>
            <path id="shapePath2" d="M256.507,64.1308 L256.507,19.3945 L244.342,19.3945 L244.342,64.1308 L256.507,64.1308 M250.584,3.8147e-06 C249.264,3.8147e-06 248.127,0.319626 247.156,0.930435 C246.197,1.53594 245.45,2.36368 244.916,3.40034 C244.382,4.437 244.101,5.62588 244.101,6.95286 C244.101,8.24888 244.374,9.42277 244.889,10.4594 C245.411,11.5085 246.128,12.3425 247.076,12.9603 C248.018,13.5739 249.144,13.9059 250.424,13.9059 C251.785,13.9059 252.965,13.5765 253.946,12.9603 C254.923,12.3451 255.659,11.5059 256.186,10.4594 C256.709,9.41923 256.998,8.24628 256.986,6.95286 C256.975,5.62678 256.678,4.4352 256.16,3.40034 C255.642,2.36538 254.917,1.53858 253.972,0.930435 C253.027,0.322224 251.892,3.8147e-06 250.584,3.8147e-06 M266.269,64.1308 L278.434,64.1308 L278.434,38.3322 C278.434,37.6762 278.46,37.0512 278.513,36.4563 C278.568,35.8464 278.674,35.3134 278.834,34.8557 C279.127,33.9864 279.54,33.148 280.102,32.3699 C280.648,31.5776 281.328,30.9216 282.155,30.4188 C282.982,29.915 283.955,29.6565 285.076,29.6405 C286.544,29.6565 287.73,30.0682 288.637,30.8764 C289.545,31.6838 290.198,32.8125 290.625,34.2609 C291.038,35.7092 291.252,37.4017 291.238,39.3388 L291.238,64.1308 L303.403,64.1308 L303.403,37.6913 C303.39,34.3981 303.043,31.5466 302.335,29.1227 C301.642,26.698 300.668,24.6858 299.401,23.1002 C298.148,21.5138 296.667,20.3249 294.96,19.5467 C293.266,18.7695 291.412,18.3888 289.397,18.3888 C287.757,18.4039 286.276,18.6474 284.969,19.105 C283.649,19.5627 282.488,20.1726 281.501,20.9039 C280.501,21.636 279.648,22.4142 278.953,23.2525 C278.26,24.0758 277.714,24.8681 277.313,25.6153 L277.073,25.6153 L276.513,19.3945 L265.949,19.3945 C266.029,21.4076 266.109,23.588 266.175,25.9508 C266.229,28.3145 266.269,30.8764 266.269,33.6659 L266.269,64.1308 M314.367,11.0694 L314.367,19.3945 L309.165,19.3945 L309.165,29.6405 L314.367,29.6405 L314.367,47.9382 C314.367,51.0942 314.648,53.7625 315.207,55.9428 C315.767,58.1233 316.608,59.877 317.728,61.2032 C318.742,62.362 320.035,63.2924 321.609,63.9784 C323.183,64.6796 324.957,65.0301 326.931,65.0452 C328.638,65.0301 330.173,64.9239 331.547,64.6946 C332.92,64.4662 333.987,64.1919 334.774,63.8563 L334.695,53.3357 C334.334,53.4269 333.975,53.503 333.641,53.5491 C333.294,53.6102 332.92,53.6402 332.52,53.6712 C332.119,53.6863 331.639,53.7013 331.093,53.7013 C329.905,53.7013 328.946,53.4269 328.252,52.863 C327.545,52.2991 327.038,51.4298 326.731,50.2709 C326.438,49.1121 326.278,47.6328 326.292,45.834 L326.292,29.6405 L335.014,29.6405 L335.014,19.3945 L326.292,19.3945 L326.292,7.31855 L314.367,11.0694 M376.229,46.1996 C376.323,45.6817 376.402,44.9345 376.496,43.974 C376.576,42.9975 376.63,41.9149 376.63,40.7109 C376.63,38.4845 376.429,36.289 376.03,34.1386 C375.628,31.9892 374.988,29.9611 374.135,28.0701 C373.268,26.1801 372.161,24.5025 370.787,23.0542 C369.413,21.6059 367.773,20.4771 365.852,19.6538 C363.931,18.8156 361.704,18.4039 359.183,18.3888 C356.462,18.4039 354.034,18.8766 351.9,19.7761 C349.766,20.6905 347.912,21.9414 346.351,23.5269 C344.778,25.1124 343.483,26.9272 342.456,28.9545 C341.43,30.9977 340.669,33.148 340.163,35.4197 C339.669,37.6913 339.416,39.9788 339.416,42.2663 C339.429,46.9467 340.256,51.003 341.884,54.3874 C343.511,57.7877 345.871,60.4099 348.979,62.2557 C352.087,64.0847 355.862,65.0151 360.303,65.0452 C362.958,65.0452 365.479,64.8168 367.866,64.344 C370.253,63.8864 372.455,63.1702 374.469,62.2097 L372.868,52.7869 C371.241,53.4269 369.547,53.9147 367.799,54.2352 C366.038,54.5556 364.131,54.7079 362.064,54.7079 C360.636,54.7079 359.276,54.5397 357.982,54.1891 C356.702,53.8385 355.541,53.3206 354.527,52.6187 C353.514,51.9175 352.701,51.0331 352.087,49.9655 C351.46,48.8987 351.113,47.6328 351.02,46.1996 L376.229,46.1996 M350.939,36.6856 C351.02,35.7551 351.207,34.7645 351.527,33.727 C351.847,32.6904 352.3,31.6997 352.9,30.7844 C353.5,29.8548 354.261,29.1077 355.168,28.5279 C356.089,27.9489 357.182,27.6435 358.462,27.6284 C359.85,27.6435 360.997,27.9639 361.904,28.5588 C362.797,29.1688 363.505,29.946 364.011,30.8915 C364.505,31.821 364.865,32.8125 365.065,33.8341 C365.265,34.8708 365.358,35.8162 365.345,36.6856 L350.939,36.6856 M383.912,64.1308 L396.076,64.1308 L396.076,41.4422 C396.076,40.8933 396.09,40.3445 396.13,39.8115 C396.169,39.2927 396.236,38.7899 396.316,38.3322 C396.73,36.1518 397.663,34.444 399.091,33.1941 C400.531,31.9432 402.385,31.3031 404.64,31.288 C405.306,31.288 405.906,31.3332 406.427,31.3943 C406.947,31.4704 407.453,31.5625 407.921,31.6537 L407.921,18.5712 C407.494,18.4799 407.107,18.4039 406.733,18.3578 C406.36,18.3118 405.906,18.2968 405.359,18.2968 C404.386,18.2968 403.398,18.465 402.372,18.8305 C401.345,19.1811 400.358,19.7451 399.384,20.4922 C398.424,21.2394 397.543,22.2159 396.756,23.3897 C395.956,24.5635 395.303,25.9818 394.796,27.6284 L394.476,27.6284 L393.996,19.3945 L383.592,19.3945 C383.672,20.6604 383.738,22.0175 383.779,23.4509 C383.831,24.899 383.859,26.4846 383.884,28.2383 C383.899,29.9762 383.912,31.9432 383.912,34.1236 L383.912,64.1308 M414.956,64.1308 L427.12,64.1308 L427.12,38.3322 C427.12,37.6762 427.148,37.0512 427.2,36.4563 C427.254,35.8472 427.364,35.3143 427.52,34.8557 C427.816,33.9881 428.235,33.1534 428.787,32.3699 C429.341,31.5837 430.015,30.9216 430.841,30.4188 C431.668,29.9159 432.642,29.6405 433.762,29.6405 C435.229,29.6405 436.416,30.0691 437.324,30.8764 C438.229,31.6838 438.891,32.8107 439.311,34.2609 C439.73,35.7073 439.924,37.4026 439.924,39.3388 L439.924,64.1308 L452.088,64.1308 L452.088,37.6913 C452.088,34.3981 451.722,31.5483 451.022,29.1227 C450.322,26.7007 449.349,24.6893 448.087,23.1002 C446.829,21.5182 445.352,20.3266 443.646,19.5467 C441.951,18.7721 440.096,18.3809 438.083,18.3888 C436.443,18.3945 434.963,18.65 433.655,19.105 C432.336,19.5644 431.177,20.1761 430.188,20.9039 C429.19,21.6387 428.337,22.4177 427.64,23.2525 C426.95,24.0785 426.4,24.8681 425.999,25.6153 L425.759,25.6153 L425.198,19.3945 L414.635,19.3945 C414.715,21.4076 414.803,23.588 414.862,25.9508 C414.921,28.3136 414.956,30.8773 414.956,33.6659 L414.956,64.1308 M495.793,46.1996 C495.886,45.6817 495.967,44.9345 496.06,43.974 C496.139,42.9975 496.193,41.9149 496.193,40.7109 C496.193,38.4845 495.992,36.289 495.593,34.1386 C495.193,31.9892 494.552,29.9611 493.699,28.0701 C492.831,26.1801 491.725,24.5025 490.351,23.0542 C488.978,21.6059 487.336,20.4771 485.416,19.6538 C483.495,18.8156 481.268,18.4039 478.746,18.3888 C476.026,18.4039 473.598,18.8766 471.463,19.7761 C469.33,20.6905 467.476,21.9414 465.915,23.5269 C464.341,25.1124 463.047,26.9272 462.02,28.9545 C460.993,30.9977 460.233,33.148 459.727,35.4197 C459.232,37.6913 458.979,39.9788 458.979,42.2663 C458.993,46.9467 459.819,51.003 461.447,54.3874 C463.074,57.7877 465.435,60.4099 468.544,62.2557 C471.651,64.0847 475.426,65.0151 479.867,65.0452 C482.521,65.0452 485.042,64.8168 487.43,64.344 C489.818,63.8864 492.018,63.1702 494.033,62.2097 L492.432,52.7869 C490.805,53.4269 489.11,53.9147 487.364,54.2352 C485.602,54.5556 483.695,54.7079 481.628,54.7079 C480.201,54.7079 478.84,54.5397 477.546,54.1891 C476.266,53.8385 475.105,53.3206 474.092,52.6187 C473.077,51.9175 472.265,51.0331 471.651,49.9655 C471.024,48.8987 470.677,47.6328 470.584,46.1996 L495.793,46.1996 M470.504,36.6856 C470.584,35.7551 470.771,34.7645 471.091,33.727 C471.411,32.6904 471.864,31.6997 472.465,30.7844 C473.065,29.8548 473.825,29.1077 474.732,28.5279 C475.652,27.9489 476.746,27.6435 478.026,27.6284 C479.414,27.6435 480.56,27.9639 481.468,28.5588 C482.361,29.1688 483.068,29.946 483.575,30.8915 C484.069,31.821 484.429,32.8125 484.629,33.8341 C484.828,34.8708 484.922,35.8162 484.909,36.6856 L470.504,36.6856 M505.157,11.0694 L505.157,19.3945 L499.955,19.3945 L499.955,29.6405 L505.157,29.6405 L505.157,47.9382 C505.157,51.0942 505.437,53.7625 505.997,55.9428 C506.556,58.1233 507.397,59.877 508.517,61.2032 C509.531,62.362 510.825,63.2924 512.399,63.9784 C513.973,64.6796 515.746,65.0301 517.721,65.0452 C519.428,65.0301 520.962,64.9239 522.336,64.6946 C523.71,64.4662 524.777,64.1919 525.564,63.8563 L525.484,53.3357 C525.124,53.4269 524.764,53.503 524.43,53.5491 C524.083,53.6102 523.71,53.6402 523.309,53.6712 C522.909,53.6863 522.429,53.7013 521.882,53.7013 C520.695,53.7013 519.734,53.4269 519.041,52.863 C518.335,52.2991 517.828,51.4298 517.52,50.2709 C517.227,49.1121 517.068,47.6328 517.08,45.834 L517.08,29.6405 L525.804,29.6405 L525.804,19.3945 L517.08,19.3945 L517.08,7.31855 L505.157,11.0694 Z" style="stroke:none;fill-rule:evenodd;fill:#231f20;fill-opacity:1;"/>
        </g>
        <g id="Shape3">
            <desc shapeID="3" type="0" basicInfo-basicType="0" basicInfo-roundedRectRadius="12" basicInfo-polygonSides="6" basicInfo-starPoints="5" bounding="rect(-123.997,-26.3287,247.993,52.6574)" text="" font-familyName="" font-pixelSize="20" font-bold="0" font-underline="0" font-alignment="1" strokeStyle="0" markerStart="0" markerEnd="0" shadowEnabled="0" shadowOffsetX="0" shadowOffsetY="2" shadowBlur="4" shadowOpacity="160" blurEnabled="0" blurRadius="4" transform="matrix(1.13496,0,0,1.13496,385.073,119.577)" pers-center="0,0" pers-size="0,0" pers-start="0,0" pers-end="0,0" locked="0" mesh="" flag=""/>
            <path id="shapePath3" d="M271.068,124.097 C270.166,124.586 269.079,125.017 267.798,125.408 C266.528,125.799 264.979,125.994 263.161,126.022 C261.39,126.022 259.767,125.673 258.266,124.976 C256.779,124.279 255.484,123.274 254.374,121.963 C253.263,120.651 252.41,119.061 251.787,117.191 C251.177,115.322 250.872,113.215 250.859,110.872 C250.859,108.765 251.128,106.784 251.677,104.943 C252.214,103.101 253.007,101.483 254.068,100.074 C255.131,98.6652 256.436,97.5637 257.998,96.7683 C259.548,95.9728 261.342,95.5686 263.381,95.5541 C265.137,95.5686 266.626,95.7777 267.859,96.168 C269.092,96.5592 270.08,96.991 270.848,97.4793 L272.313,91.8712 C271.715,91.4946 270.971,91.1463 270.068,90.8255 C269.152,90.4903 268.128,90.2254 266.992,90.0164 C265.857,89.8065 264.661,89.6957 263.381,89.6957 C260.475,89.7094 257.865,90.2529 255.521,91.3131 C253.19,92.3734 251.188,93.8807 249.529,95.8198 C247.857,97.745 246.576,100.032 245.685,102.655 C244.806,105.278 244.355,108.151 244.342,111.291 C244.355,114.401 244.77,117.22 245.599,119.744 C246.429,122.284 247.613,124.445 249.163,126.274 C250.701,128.101 252.555,129.496 254.716,130.472 C256.888,131.463 259.304,131.951 261.989,131.965 C263.575,131.951 265.04,131.811 266.369,131.56 C267.7,131.309 268.848,131.002 269.836,130.64 C270.824,130.277 271.593,129.942 272.167,129.621 L271.068,124.097 M294.28,89.6957 C291.826,89.6957 289.545,90.1832 287.421,91.1463 C285.31,92.1085 283.442,93.5179 281.844,95.3589 C280.233,97.2007 278.989,99.4467 278.085,102.083 C277.183,104.733 276.719,107.747 276.707,111.123 C276.719,114.331 277.158,117.22 278.025,119.787 C278.891,122.34 280.087,124.53 281.636,126.343 C283.174,128.157 284.969,129.551 287.018,130.514 C289.081,131.477 291.302,131.951 293.694,131.965 C295.402,131.965 297.111,131.7 298.794,131.17 C300.478,130.625 302.078,129.816 303.579,128.7 C305.08,127.599 306.41,126.203 307.581,124.501 C308.741,122.8 309.656,120.777 310.315,118.447 C310.986,116.117 311.328,113.453 311.34,110.453 C311.328,107.371 310.925,104.553 310.108,102.013 C309.29,99.4881 308.13,97.298 306.629,95.4569 C305.116,93.6151 303.322,92.2066 301.236,91.2022 C299.148,90.2116 296.83,89.7094 294.28,89.6957 M294.133,95.2196 C295.658,95.2333 297.001,95.5541 298.16,96.168 C299.331,96.7958 300.333,97.6332 301.163,98.6935 C301.992,99.7538 302.676,100.953 303.212,102.292 C303.738,103.618 304.128,105.013 304.384,106.463 C304.628,107.9 304.751,109.323 304.751,110.704 C304.738,112.993 304.469,115.099 303.933,117.01 C303.396,118.921 302.651,120.581 301.675,121.99 C300.711,123.4 299.576,124.488 298.27,125.268 C296.965,126.036 295.537,126.427 293.987,126.44 C292.413,126.427 290.961,126.036 289.654,125.255 C288.361,124.474 287.227,123.385 286.274,121.99 C285.335,120.581 284.602,118.935 284.077,117.052 C283.566,115.154 283.297,113.104 283.297,110.872 C283.297,108.947 283.503,107.064 283.931,105.208 C284.358,103.367 285.005,101.693 285.884,100.186 C286.763,98.679 287.897,97.4932 289.264,96.5868 C290.631,95.6943 292.254,95.2333 294.133,95.2196 M319.468,131.044 L325.765,131.044 L325.765,106.687 C325.765,106.045 325.801,105.417 325.886,104.789 C325.96,104.161 326.094,103.603 326.277,103.087 C326.619,101.832 327.168,100.66 327.925,99.5439 C328.669,98.4278 329.584,97.5215 330.658,96.8104 C331.732,96.1122 332.941,95.7355 334.259,95.7218 C335.894,95.7355 337.26,96.2101 338.359,97.1586 C339.457,98.0934 340.274,99.3908 340.823,101.037 C341.373,102.697 341.654,104.608 341.654,106.77 L341.654,131.044 L347.951,131.044 L347.951,106.017 C347.951,105.347 347.999,104.706 348.097,104.078 C348.195,103.464 348.316,102.879 348.463,102.334 C348.853,101.149 349.415,100.046 350.148,99.0563 C350.879,98.0657 351.746,97.2566 352.759,96.6565 C353.771,96.0425 354.907,95.7355 356.152,95.7218 C357.86,95.7218 359.287,96.2239 360.423,97.2007 C361.558,98.1913 362.424,99.5999 362.986,101.455 C363.559,103.311 363.84,105.557 363.84,108.194 L363.84,131.044 L370.137,131.044 L370.137,107.273 C370.125,104.469 369.868,102.056 369.38,100.046 C368.88,98.0237 368.221,96.3494 367.391,95.0106 C366.549,93.671 365.621,92.6107 364.609,91.8298 C363.583,91.0483 362.534,90.5048 361.472,90.1695 C360.399,89.8487 359.385,89.681 358.421,89.6957 C356.762,89.6957 355.309,89.9467 354.077,90.4206 C352.844,90.9089 351.697,91.6201 350.66,92.541 C349.916,93.1687 349.208,93.9083 348.512,94.7732 C347.817,95.6246 347.195,96.6426 346.632,97.8147 L346.487,97.8147 C345.973,96.2101 345.23,94.8009 344.277,93.5876 C343.325,92.3734 342.191,91.4249 340.885,90.7413 C339.578,90.0577 338.127,89.7094 336.528,89.6957 C334.563,89.7094 332.855,90.0723 331.427,90.7697 C329.999,91.467 328.778,92.3734 327.79,93.504 C326.801,94.6194 325.972,95.8335 325.325,97.1448 L325.105,97.1448 L324.813,90.5324 L319.175,90.5324 C319.248,92.1927 319.321,93.8944 319.382,95.6659 C319.431,97.438 319.468,99.3771 319.468,101.498 L319.468,131.044 M380.534,147.618 L386.905,147.618 L386.905,125.604 L387.05,125.604 C387.77,126.942 388.673,128.087 389.784,129.035 C390.882,129.984 392.127,130.71 393.519,131.212 C394.909,131.714 396.386,131.965 397.96,131.965 C400.072,131.965 402.086,131.519 404.013,130.612 C405.941,129.705 407.662,128.352 409.188,126.538 C410.7,124.739 411.91,122.465 412.788,119.744 C413.667,117.024 414.118,113.843 414.142,110.202 C414.13,107.133 413.751,104.343 412.995,101.846 C412.251,99.335 411.202,97.1725 409.847,95.3589 C408.48,93.5592 406.894,92.1644 405.063,91.1738 C403.232,90.1978 401.231,89.7094 399.059,89.6957 C396.166,89.7094 393.664,90.393 391.554,91.7319 C389.442,93.0853 387.746,94.9961 386.465,97.4793 L386.318,97.4793 L385.952,90.5324 L380.241,90.5324 C380.314,92.4439 380.387,94.4801 380.448,96.6426 C380.497,98.8045 380.534,101.176 380.534,103.757 L380.534,147.618 M386.905,107.524 C386.905,107.064 386.952,106.575 387.038,106.059 C387.124,105.557 387.233,105.069 387.344,104.594 C387.746,102.739 388.442,101.149 389.418,99.7951 C390.382,98.4424 391.529,97.4097 392.859,96.6702 C394.189,95.9307 395.605,95.5686 397.082,95.5541 C398.79,95.5686 400.292,95.9728 401.609,96.7683 C402.915,97.549 404.013,98.6514 404.904,100.032 C405.807,101.413 406.478,103.004 406.942,104.804 C407.394,106.603 407.626,108.514 407.626,110.537 C407.626,113.648 407.198,116.382 406.344,118.726 C405.502,121.07 404.282,122.883 402.683,124.194 C401.084,125.506 399.145,126.175 396.862,126.189 C395.313,126.175 393.884,125.813 392.566,125.088 C391.248,124.362 390.126,123.358 389.198,122.074 C388.271,120.777 387.599,119.284 387.197,117.568 C387.087,117.108 387.014,116.62 386.965,116.117 C386.928,115.615 386.905,115.099 386.905,114.555 L386.905,107.524 M447.092,106.185 C447.104,104.148 446.908,102.167 446.506,100.214 C446.104,98.2747 445.408,96.5034 444.419,94.9264 C443.431,93.3502 442.052,92.081 440.294,91.1463 C438.537,90.1978 436.315,89.7231 433.619,89.6957 C432.118,89.6957 430.666,89.8487 429.25,90.142 C427.834,90.4343 426.492,90.8392 425.247,91.369 C424.002,91.8995 422.893,92.5136 421.904,93.2109 L423.368,98.1492 C424.21,97.5077 425.126,96.9634 426.138,96.5171 C427.151,96.0564 428.2,95.7218 429.311,95.4844 C430.422,95.2479 431.545,95.1361 432.667,95.1361 C434.107,95.1361 435.315,95.3313 436.292,95.7501 C437.256,96.168 438.049,96.7261 438.634,97.4235 C439.233,98.1217 439.672,98.8887 439.977,99.7254 C440.282,100.548 440.478,101.372 440.587,102.195 C440.684,103.018 440.734,103.757 440.722,104.427 L440.722,105.264 C436.145,105.236 432.277,105.808 429.116,106.952 C425.943,108.11 423.538,109.812 421.892,112.058 C420.256,114.304 419.426,117.066 419.414,120.33 C419.414,121.809 419.646,123.246 420.097,124.627 C420.55,125.994 421.232,127.236 422.148,128.338 C423.051,129.454 424.173,130.318 425.528,130.975 C426.883,131.616 428.457,131.951 430.25,131.965 C431.935,131.951 433.472,131.658 434.864,131.114 C436.255,130.556 437.475,129.816 438.525,128.91 C439.574,128.003 440.428,127.012 441.088,125.938 L441.307,125.938 L441.82,131.044 L447.604,131.044 C447.422,129.649 447.286,128.128 447.213,126.469 C447.128,124.822 447.092,123.107 447.092,121.334 L447.092,106.185 M440.868,117.4 C440.868,117.736 440.843,118.112 440.807,118.503 C440.758,118.908 440.684,119.326 440.575,119.744 C440.233,120.903 439.672,122.004 438.903,123.022 C438.135,124.055 437.158,124.892 435.974,125.534 C434.803,126.175 433.424,126.51 431.861,126.525 C430.775,126.525 429.775,126.274 428.872,125.785 C427.969,125.283 427.249,124.515 426.7,123.469 C426.15,122.437 425.869,121.112 425.858,119.493 C425.869,117.931 426.163,116.591 426.748,115.503 C427.322,114.416 428.115,113.522 429.116,112.839 C430.117,112.141 431.264,111.612 432.545,111.235 C433.826,110.872 435.181,110.621 436.609,110.495 C438.036,110.37 439.452,110.328 440.868,110.37 L440.868,117.4 M457.489,131.044 L463.933,131.044 L463.933,106.687 C463.933,106.045 463.969,105.432 464.042,104.845 C464.115,104.246 464.225,103.715 464.372,103.255 C464.774,101.874 465.384,100.604 466.202,99.4744 C467.032,98.3444 468.021,97.438 469.18,96.7683 C470.339,96.0845 471.608,95.7355 473.011,95.7218 C474.525,95.7355 475.806,96.0425 476.856,96.6702 C477.905,97.298 478.748,98.163 479.394,99.2515 C480.029,100.353 480.492,101.623 480.785,103.06 C481.079,104.511 481.225,106.045 481.212,107.691 L481.212,131.044 L487.656,131.044 L487.656,106.938 C487.643,104.161 487.363,101.79 486.826,99.8096 C486.289,97.8284 485.569,96.1819 484.666,94.8706 C483.763,93.5592 482.763,92.5136 481.664,91.7603 C480.566,91.007 479.455,90.4764 478.32,90.1557 C477.197,89.8349 476.136,89.681 475.135,89.6957 C473.182,89.7231 471.426,90.086 469.887,90.811 C468.338,91.5367 467.019,92.4576 465.934,93.6013 C464.848,94.745 464.006,95.9453 463.42,97.2283 L463.273,97.2283 L462.907,90.5324 L457.196,90.5324 C457.306,92.1927 457.379,93.8944 457.428,95.6659 C457.464,97.438 457.489,99.3771 457.489,101.498 L457.489,131.044 M492.489,90.5324 L505.523,127.863 C505.705,128.324 505.84,128.7 505.913,129.007 C505.998,129.329 506.034,129.58 506.034,129.789 C506.034,129.998 505.986,130.249 505.888,130.542 C505.791,130.835 505.668,131.17 505.523,131.546 C504.729,133.43 503.862,135.076 502.898,136.457 C501.934,137.852 501.007,138.94 500.104,139.749 C499.14,140.67 498.163,141.423 497.175,142.023 C496.187,142.609 495.283,143.055 494.466,143.348 L496.077,149.459 C496.626,149.347 497.309,149.124 498.127,148.789 C498.944,148.44 499.859,147.938 500.86,147.282 C501.861,146.641 502.898,145.803 503.984,144.771 C505.071,143.669 506.107,142.386 507.084,140.893 C508.072,139.401 509.025,137.657 509.977,135.634 C510.928,133.625 511.905,131.282 512.917,128.603 C513.919,125.938 514.992,122.869 516.139,119.41 L525.804,90.5324 L518.995,90.5324 L511.966,114.304 C511.527,115.782 511.123,117.261 510.745,118.712 C510.379,120.177 510.025,121.53 509.695,122.757 L509.55,122.757 C509.354,121.935 509.134,121.07 508.878,120.121 C508.622,119.186 508.353,118.238 508.072,117.275 C507.792,116.299 507.499,115.378 507.206,114.471 L499.518,90.5324 L492.489,90.5324 Z" style="stroke:none;fill-rule:evenodd;fill:#231f20;fill-opacity:1;"/>
        </g>
    </g>
</svg>
