<svg xmlns="http://www.w3.org/2000/svg" viewBox="0 0 150 25" enable-background="new 0 0 150 25"><linearGradient id="a" gradientUnits="userSpaceOnUse" y1="12.504" x2="150" y2="12.504"><stop offset="0" stop-color="#6DA6CE"/><stop offset="1" stop-color="#8AA273"/></linearGradient><path fill="url(#a)" d="M11.7 5.4c.4.8 1.4 1.1 2.3.8.9-.3 1.3-1.3.9-2.1l-1.3-3.2c-.3-.6-.9-.9-1.6-.9-.2 0-.8 0-1 .1-.9.3-1.3 1.4-.9 2.1l1.6 3.2zm74.7.8c-.8-1.5-2-2.7-3.4-3.6-1.4-.9-3.1-1.4-4.9-1.4-.4 0-.7 0-1.1.1-1.7.2-3.3.6-4.6 1.6-.4.3-.7.7-1 1-.3-.5-.6-1-.8-1.3-.5-.7-.9-.8-1-.8-.7-.6-1.7-.6-2.3 0-.6.7-1.4 1.4-.7 2.1 0 0 .9.5 1.3 1.2.2.4.4.9.6 1.4.1.5.5.8.5 1.5v16c0 .9 1.1 1 2 1 .9 0 2-.1 2-1v-5l.8-.2c1.4.6 2.8 1.2 4.2 1.2.4 0 .8 0 1.2-.1 1.2-.1 2.3-.5 3.3-1 1.5-.8 2.7-2 3.6-3.4.9-1.4 1.4-3.1 1.4-4.8 0-.4 0-.7-.1-1.1-.1-1.3-.4-2.4-1-3.4zm-4.1 8.2c-.5.5-1 .9-1.7 1.2-.6.3-1.3.5-2.1.6h-.8c-1 0-1.9-.2-2.9-.6-.8-.3-1-1.1-1.8-1.7v-6c.5-1 .5-1.4 1.3-1.9.7-.5 1.7-.8 2.8-1h.7c1.5 0 2.9.5 4 1.4.5.4 1 1 1.3 1.6.3.6.6 1.3.7 2v.7c0 1.4-.5 2.7-1.5 3.7zm-40.7-11.9c-1.5-.9-3.1-1.3-4.7-1.3-.4 0-.8 0-1.2.1-.9.1-1.5.9-1.4 1.8.1.9 1.1 2 1.9 1.9h.7c1 0 1.9.2 2.8.8.9.5 1.6 1.3 2.1 2.1s.7 1.8.7 2.8c0 1-.2 1.9-.8 2.8-.5.9-1.3 1.6-2.1 2.1-.9.5-1.8.7-2.8.7-1 0-1.9-.2-2.8-.8-.9-.5-1.6-1.3-2.1-2.1s-.7-1.8-.7-2.8c0-1 .2-1.9.8-2.8l.4-.6c.5-.6-.1-2-.8-2.5-.7-.5-1.3-.1-2 .3-.3.2-.6.6-.8 1-.9 1.5-1.3 3.1-1.3 4.7s.4 3.2 1.2 4.6c.8 1.4 2 2.6 3.5 3.5 1.5.9 3.1 1.3 4.7 1.3s3.2-.4 4.6-1.2c1.4-.8 2.6-2 3.5-3.5.9-1.5 1.3-3.1 1.3-4.7s-.4-3.2-1.2-4.6c-.8-1.5-2-2.7-3.5-3.6zm-13.1 1.3c.6-.7.4-1.7-.3-2.3-.7-.5-2.5-.4-3 .3l-1.1 1.2c-.5.8-1 1.4-1.3 2.3l-3.2 9.2-3.3-6.3c-.3-.5-.8-.8-1.4-.8-.6 0-1.1.3-1.4.8l-3.5 6.5-6.2-13.6c-.3-.6-.9-1.1-1.5-1.1-.3 0-.8.1-1 .1-.8.4-1.6 1.4-1.2 2.2l7.1 16.7c.2.6 1.7 1 2.3 1 .6 0 1.2-.3 1.6-.8l3.7-6.2 3.6 6.2c.3.5.9.9 1.6.8.6 0 1.6-.7 1.8-1.2l4.7-12.3c.3-.7.6-.9 1-1.5.2-.5.6-.8 1-1.2zm33.1-1.3c-1.5-.8-3.1-1.3-4.7-1.3-.4 0-.8 0-1.2.1-.9.1-1.2.6-1.1 1.5.1.9.7 2.2 1.5 2.1h.7c1 0 1.9.2 2.9.8.9.5 1.6 1.3 2.1 2.1.5.9.7 1.8.7 2.8 0 1-.2 1.9-.8 2.8-.5.9-1.3 1.6-2.1 2.1-.9.5-1.8.7-2.8.7-1 0-1.9-.2-2.9-.8-.9-.5-1.6-1.3-2.1-2.1-.5-.9-.7-1.8-.7-2.8 0-1 .2-1.9.8-2.8l.4-.6c.5-.6.2-2.1-.5-2.7-.7-.4-1.9-.1-2.4.6-.2.3-.4.6-.6 1-.9 1.5-1.3 3.1-1.3 4.7s.4 3.2 1.2 4.6c.8 1.4 2 2.6 3.5 3.5 1.5.8 3.1 1.3 4.7 1.3s3.2-.4 4.6-1.2c1.4-.8 2.6-2 3.5-3.5.9-1.5 1.3-3.1 1.3-4.7s-.4-3.2-1.2-4.6c-.8-1.5-2-2.7-3.5-3.6zm68.3 7.4c0-1.4-.2-2.9-.8-4.1-.2-.4-.4-.7-.7-1-.6-.7-2.1-1.4-2.8-.9-.7.6-.7 2-.2 2.7.2.2.3.5.4.7.4.6.4 2.3.4 3.4s-.3 1.7-.8 2.7c-.6 1-1 1.7-2.1 2.3-1 .6-2.1.6-3.2.6s-2.2-.1-3.2-.6-1.8-1.2-2.4-2.2c-.6-1-.8-1.7-.8-2.8 0-1.1.2-2.2.8-3.2.6-1 1.4-1.6 2.4-2.2 1-.6 2.1-.4 3.2-.4.3 0 .6-.1.8 0 .9.1 1.4-.9 1.5-1.8.1-.9-.5-1.7-1.4-1.8-.4-.1-.8-.1-1.3-.1-1.7 0-3.4.1-4.9 1-1.6.9-2.8 2.2-3.6 3.6-.8 1.5-1.3 3.1-1.3 4.8 0 1.7.4 3.3 1.3 4.9.9 1.6 2.2 2.3 3.7 3.1 1.5.8 3.1 1.3 4.8 1.3 1.7 0 3.4-.4 4.9-1.3 1.2-.7 2.2-1.1 3-2.2.4.8.8 2 1.3 2.7.5.8 1.5 1 2.3.5.8-.5 1.6-1.8 1.1-2.6-1.2-1.9-2.4-4.4-2.4-7.1zm18.3-8.7c-.9 0-1.9.7-1.9 1.7v10.5c-.7.5-.9.9-1.7 1.1-1.9.7-3.1.9-5.2.3-1.1-.3-2.1-1.5-2.8-3.1-.4-1-.4-2.1-.4-3.1 0-2.2-.5-3.8-1-4.9-.5-1.1-1.2-1.7-1.3-1.8-.6-.7-2.3-.8-2.9-.1-.7.6-1.4 1-.8 1.7 0 0 .3.4.6 1.1.5 1.3 1.7 3.2 1.7 4.6 0 2.2 0 4.1 1.3 6 1 1.3 2.3 2.5 3.9 3.1 2.6 1 5.1.7 7.7-.2.3-.1.5-.3.8-.5-.4 1.3-1.1 2.6-2.4 3.1-2.5 1.1-5.6.7-7.9-.5-.8-.4-1.5.1-1.9.9-.4.8-.1 1.8.7 2.2 2 1.1 3.9 1.7 6.3 1.7 1.3 0 2.6-.2 3.9-.7 1.8-.7 3.4-2 4.3-3.7.6-1.1.9-2.4.9-3.7v-14.2c-.2-.9-1-1.5-1.9-1.5zm-40.5 5c-.8-1.5-2-2.7-3.4-3.6-1.4-.9-3.1-1.4-4.9-1.4-.4 0-.7 0-1.1.1-1.7.2-3.3.6-4.6 1.6-.4.3-.7.7-1 1-.3-.5-.6-1-.8-1.3-.5-.7-.9-.8-1-.8-.7-.6-1.7-.6-2.3 0-.6.7-1.4 1.4-.7 2.1 0 0 .9.5 1.3 1.2.2.4.4.9.6 1.4.1.5.2 1.1.2 1.8v15.3c0 .9 1 1.3 1.9 1.3.9 0 1.9-.4 1.9-1.3v-5l1.3.1c1.4.6 2.8 1.2 4.2 1.2.4 0 .8 0 1.2-.1 1.2-.1 2.3-.5 3.3-1 1.5-.8 2.7-2 3.6-3.4.9-1.4 1.4-3.1 1.4-4.8 0-.4 0-.7-.1-1.1-.1-1.2-.5-2.3-1-3.3zm-4.1 8.2c-.5.5-1 .9-1.7 1.2-.6.3-1.3.5-2.1.6h-.8c-1 0-1.9-.2-2.9-.6-.8-.3-1.5-1.4-2.3-2v-5.6c.5-1 1-1.4 1.7-2 .8-.6 1.7-.9 2.8-1.1h.7c1.5 0 2.9.5 4 1.4.5.4 1 1 1.3 1.6.3.6.6 1.3.7 2v.7c.1 1.5-.5 2.8-1.4 3.8z"/></svg>