<svg xmlns="http://www.w3.org/2000/svg" viewBox="0 0 288 86.546669" height="86.547" width="288"><path d="M18.171 57.523H4.466V44.067c0-4.304 2.094-6.396 6.397-6.396h.911c4.366 0 6.397 2.03 6.397 6.396zm-6.397-24.23h-.911C3.757 33.293 0 37.049 0 44.158v31.315c0 7.108 3.757 10.864 10.863 10.864h.911c7.07 0 10.96-3.86 10.96-10.864v-7.539h-4.47v7.628c0 4.369-2.12 6.49-6.49 6.49h-.911c-4.303 0-6.397-2.121-6.397-6.49V61.9h18.268V44.158c0-7.007-3.89-10.865-10.96-10.865M48.817 59.974l-8.412-5.3c-2.487-1.546-3.5-2.78-3.5-5.701v-6.001c0-3.617 1.827-5.301 5.755-5.301h1.372c3.99 0 5.85 1.684 5.85 5.3v11.01h4.467v-10.92c0-6.3-3.633-9.768-10.224-9.768H42.66c-6.593 0-10.224 3.501-10.224 9.861v6.002c0 4.576 1.572 6.808 5.622 9.469l8.526 5.41c2.406 1.408 3.48 3.313 3.48 6.18v6.654c0 3.679-1.859 5.39-5.848 5.39h-1.647c-3.926 0-5.756-1.711-5.756-5.39V66.657h-4.47v10.12c0 6.299 3.632 9.77 10.226 9.77h1.647c6.652 0 10.316-3.471 10.316-9.77v-6.745c0-4.58-1.657-7.496-5.715-10.058M82.318 57.523H68.61V44.067c0-4.365 2.035-6.396 6.399-6.396h.913c4.301 0 6.397 2.092 6.397 6.396zm-6.397-24.23h-.913c-7.111 0-10.866 3.756-10.866 10.865v31.524c0 7.107 3.755 10.864 10.866 10.864h.913c7.061 0 10.95-3.859 10.95-10.864v-7.748H82.41v7.838c0 4.368-2.123 6.489-6.488 6.489h-.913c-4.364 0-6.399-2.062-6.399-6.49V61.9h18.262V44.158c0-7.007-3.889-10.865-10.95-10.865M110.356 33.277h-.64c-3.285 0-5.7 1.132-8.497 3.115v-2.747h-4.47v52.327h4.47V41.14c3.435-2.47 5.465-3.575 8.133-3.575h.546c3.573 0 5.027 1.324 5.027 4.569v43.84h4.471V41.77c0-5.475-3.213-8.493-9.04-8.493M136.405 20.207h-4.47v13.426h-5.687v4.287h5.686v48.053h4.471V37.92h6.848v-4.287h-6.848V20.207M180.855 85.973h4.562v-52.34h-4.562v52.34M180.764 19.864v7.756h4.744v-7.756h-4.744M166.263 75.566c0 4.364-2.034 6.397-6.398 6.397h-.913c-4.304 0-6.396-2.092-6.396-6.397v-8.72c0-4.305 2.123-6.397 6.487-6.397h7.22zm-6.398-42.289h-.913c-6.657 0-10.959 4.922-10.959 12.537v2.23h4.47v-2.32c0-4.061 2.006-8.161 6.489-8.161h.913c4.364 0 6.398 2.062 6.398 6.488v12.022h-7.527c-6.928.115-10.743 3.974-10.743 10.867v8.535c0 7.008 3.891 10.864 10.959 10.864h.913c2.286 0 4.695-.844 6.398-2.18v1.813h4.468V44.144c0-7.11-3.758-10.867-10.866-10.867" fill="#f47216"/><path d="M226.252 33.267h-.453c-3.264 0-5.75 1.02-9.72 4.016-.998-2.593-3.494-4.016-7.087-4.016h-.457c-3.383 0-5.814 1.293-9.478 4.001v-3.635h-1.866v52.34h1.866V39.37c4.394-3.353 6.514-4.325 9.387-4.325h.46c4.032 0 5.913 1.734 5.913 5.459v45.47h1.867v-45.56c0-.487 0-.915-.063-1.343 4.238-3.364 6.546-4.026 9.083-4.026h.459c4.228 0 6.28 1.785 6.28 5.459v45.47h1.869v-45.56c0-4.608-2.861-7.146-8.06-7.146M271.69 85.973h1.871V0h-1.87v85.974M286.133 0v85.973H288V0h-1.867M260.788 76.844c0 5.025-2.656 7.679-7.681 7.679h-.912c-5.02 0-7.674-2.654-7.674-7.68V66.156c0-5.021 2.686-7.676 7.767-7.676h8.5zm-7.681-43.577h-.912c-5.967 0-9.679 4.312-9.679 11.257v2.342h1.91v-2.431c0-4.699 2.402-9.441 7.769-9.441h.912c5.025 0 7.681 2.687 7.681 7.77v13.898h-8.797c-6.11.102-9.475 3.676-9.475 10.068v10.026c0 6.358 3.259 9.584 9.679 9.584h.912c4.533 0 6.746-2.307 7.681-3.723v3.356h1.907V42.854c0-6.451-3.138-9.587-9.588-9.587" fill="#231f20"/></svg>