<svg xmlns="http://www.w3.org/2000/svg" width="200mm" height="85.5mm" viewBox="0 0 22269 9520" shape-rendering="geometricPrecision" text-rendering="geometricPrecision" image-rendering="optimizeQuality" fill-rule="evenodd" clip-rule="evenodd"><defs><style>.fil1{fill:#02a0e3}.fil5{fill:#3e9037}.fil4{fill:#b0cb20}.fil0{fill:#e31f25}.fil2{fill:#ef7f1b}.fil3{fill:#fecc02}</style></defs><g id="_275177024"><path class="fil0" d="M10654 4493c140-773 268-1478 408-2250 45-250 340-444 584-444 285 0 521 189 581 397l273 961 273-961c59-208 296-397 580-397 245 0 540 194 585 444 140 772 268 1477 408 2250h-953l-173-1508-412 1508h-616l-412-1508-173 1508h-953zm8682 0l794-2242c91-259 374-452 673-452s581 193 673 452l793 2242h-1018l-75-327h-746l-75 327h-1019zm1693-962l-226-979-226 979h452zm-3090-1795c542 0 1014 295 1261 731l-869 331c-89-153-231-252-392-252-269 0-486 275-486 614s217 614 486 614c163 0 307-102 395-258h-434v-611h1481c0 32 3 284 0 293-20 769-658 1386-1442 1386-798 0-1444-637-1444-1424 0-786 646-1424 1444-1424zm-1650 2848c-654 0-860-18-1181-195-440-244-753-718-753-1220v-18c0-501 313-976 753-1220 321-177 527-195 1181-195v816h-522c-175 0-324 121-368 283h890v681h-884c49 153 193 264 362 264h522v804z"/><path class="fil1" d="M292 3593c1660 954 3418 1678 4696 1645-1190 2092-2958 1930-4821-1089-261-482-214-724 125-556z"/><path class="fil0" d="M5101 264c-394 1873-539 3768-113 4974-2357-485-2751-2217-454-4921 378-398 622-428 567-53z"/><path class="fil2" d="M9754 3808c-1904 204-3752 652-4766 1430-267-2392 1258-3301 4540-1953 495 237 599 460 226 523z"/><path class="fil3" d="M7820 9328c-782-1747-1779-3366-2832-4090 2192-994 3528 176 3260 3714-72 543-253 711-428 376z"/><path class="fil4" d="M1973 9195c1420-1284 2651-2732 3015-3957 1622 1777 922 3409-2525 4247-540 100-755-20-490-290z"/><path class="fil5" d="M21316 8396c483 0 878-395 878-878v-2419h-2867v1298c162 0 220-291 270-551h756c-133 254-114 491-400 763 259 89 369 306 369 558v533h-725v-354c0-373-62-431-270-431v785h-725v-2601h-6988c-483 0-878 395-878 878v2419h1872v-1657c0-615 393-961 992-961 598 0 991 427 991 1000 0 574-490 891-836 894-345 3-365-59-422-95v819h7983zm-7716-1933c147 0 266 119 266 266s-119 267-266 267-267-120-267-267 120-266 267-266zm1200 1237v-1039c0-1159 1990-1159 1990 0v1039h-725v-354h-540v354h-725zm725-868h540c0-461-540-461-540 0zm1534-986v1854h725v-868c0-253 170-435 660-435v-619c-459 0-537 84-702 259v-191h-683z"/></g></svg>