<?xml version="1.0" encoding="UTF-8" standalone="no"?>
<!-- Created with Inkscape (http://www.inkscape.org/) -->

<svg
   xmlns:dc="http://purl.org/dc/elements/1.1/"
   xmlns:cc="http://creativecommons.org/ns#"
   xmlns:rdf="http://www.w3.org/1999/02/22-rdf-syntax-ns#"
   xmlns:svg="http://www.w3.org/2000/svg"
   xmlns="http://www.w3.org/2000/svg"
   xmlns:sodipodi="http://sodipodi.sourceforge.net/DTD/sodipodi-0.dtd"
   xmlns:inkscape="http://www.inkscape.org/namespaces/inkscape"
   width="250"
   height="250"
   id="svg2"
   version="1.1"
   inkscape:version="0.48.0 r9654"
   sodipodi:docname="coa-alga.svg">
  <defs
     id="defs4" />
  <sodipodi:namedview
     id="base"
     pagecolor="#ffffff"
     bordercolor="#666666"
     borderopacity="1.0"
     inkscape:pageopacity="0.0"
     inkscape:pageshadow="2"
     inkscape:zoom="1.488"
     inkscape:cx="125.00001"
     inkscape:cy="124.99999"
     inkscape:document-units="px"
     inkscape:current-layer="layer1"
     showgrid="false"
     showguides="true"
     inkscape:guide-bbox="true"
     inkscape:window-width="1668"
     inkscape:window-height="961"
     inkscape:window-x="0"
     inkscape:window-y="31"
     inkscape:window-maximized="1" />
  <metadata
     id="metadata7">
    <rdf:RDF>
      <cc:Work
         rdf:about="">
        <dc:format>image/svg+xml</dc:format>
        <dc:type
           rdf:resource="http://purl.org/dc/dcmitype/StillImage" />
        <dc:title />
      </cc:Work>
    </rdf:RDF>
  </metadata>
  <g
     inkscape:label="Layer 1"
     inkscape:groupmode="layer"
     id="layer1"
     transform="translate(0,-802.36218)">
    <path
       sodipodi:type="arc"
       style="fill:#e47718;fill-opacity:1;fill-rule:nonzero;stroke:none"
       id="path2985"
       sodipodi:cx="-658.57141"
       sodipodi:cy="-325.71429"
       sodipodi:rx="155.71428"
       sodipodi:ry="155.71428"
       d="m -502.85713,-325.71429 c 0,85.99862 -69.71566,155.71427 -155.71428,155.71427 -85.99862,0 -155.71428,-69.71565 -155.71428,-155.71427 0,-85.99863 69.71566,-155.71428 155.71428,-155.71428 85.99862,0 155.71428,69.71565 155.71428,155.71428 z"
       transform="matrix(0.80275233,0,0,0.80275233,653.66974,1188.8301)" />
    <path
       transform="matrix(0.77685709,0,0,0.77685709,636.61588,1180.3957)"
       d="m -502.85713,-325.71429 c 0,85.99862 -69.71566,155.71427 -155.71428,155.71427 -85.99862,0 -155.71428,-69.71565 -155.71428,-155.71427 0,-85.99863 69.71566,-155.71428 155.71428,-155.71428 85.99862,0 155.71428,69.71565 155.71428,155.71428 z"
       sodipodi:ry="155.71428"
       sodipodi:rx="155.71428"
       sodipodi:cy="-325.71429"
       sodipodi:cx="-658.57141"
       id="path2998"
       style="fill:#fef400;fill-opacity:1;fill-rule:nonzero;stroke:none"
       sodipodi:type="arc" />
    <path
       style="fill:#e47718;fill-opacity:1;stroke:none"
       d="M 87.5,17.8125 C 84.00835,20.950782 78.894947,21.076191 77.03125,25 c -0.6831,-1.12148 -0.4824,-2.08094 0.21875,-3.625 -2.05945,0.80053 -2.9571,1.56886 -2.59375,4.1875 -1.88438,-1.5629 -4.8361,-1.5627 -7.9375,2.125 -1.28763,1.62033 -2.38121,3.56543 -5.34375,4.3125 1.26979,1.49777 3.67393,1.31107 5.09375,-0.375 0.10208,1.57097 1.16333,1.57052 1.625,2.6875 -0.01032,-1.13814 1.43541,-1.29048 1,-2.65625 C 70.82411,33.2226 72.62838,31.44559 72.75,30 c -1.64036,0.91663 -4.09759,-0.40735 -3.0625,-2.15625 0.99349,-1.49806 3.59407,-1.77361 5.0625,0.5625 1.35774,4.66768 -1.32212,6.32245 -5.28125,6.34375 -3.28721,-9.6e-4 -6.05466,-1.41335 -9.96875,-0.28125 -4.422956,1.263095 -7.974634,4.956162 -5.46875,9.5 -4.322858,-2.857649 -8.28955,0.383942 -9.90625,4.6875 -1.44578,3.80939 -0.26564,6.66103 -0.53125,9.9375 -0.34233,3.94435 -2.2078,6.4818 -6.75,4.75 C 34.63441,61.69073 35.1138,59.11874 36.6875,58.25 c 1.82707,-0.88985 2.95289,1.68937 1.90625,3.25 1.45069,-0.004 3.35836,-1.64832 1.9375,-3.5 1.32596,0.54473 1.61645,-0.91507 2.75,-0.8125 -1.07587,-0.55072 -1.00497,-1.58336 -2.5625,-1.8125 1.79566,-1.27842 2.17111,-3.67543 0.78125,-5.0625 -0.98485,2.8922 -3.03058,3.84801 -4.75,5 -3.92704,2.79214 -4.15494,5.71384 -2.75,7.71875 -2.58055,-0.57451 -3.4101,0.26225 -4.375,2.25 1.59584,-0.57363 2.56261,-0.70929 3.625,0.0625 -2.0133,0.71391 -2.86039,2.35919 -3.84375,3.5625 -1.70335,2.08438 -1.09386,3.37655 -4.15625,6.3125 1.53167,0.58241 3.00024,0.61435 4.375,-0.90625 0.14744,1.86151 0.93125,3.32915 2.3125,4.34375 2.57851,1.89407 3.41468,-0.31004 5.90625,2.875 0.21428,-1.30766 0.20902,-2.61431 -0.625,-3.84375 1.03979,-0.72407 1.70328,-1.19304 2.53125,-2.375 C 41.18175,73.26871 39.23724,71.57376 44,68 c -3.02266,-1.34386 -4.71067,-0.56494 -5.8125,1.125 -1.69959,-1.80221 -3.25922,-1.33393 -5.03125,0.15625 l 1.5625,1.09375 c -1.47966,0.82761 -2.74095,3.76343 1.3125,4.25 -1.62731,-3.1058 2.34813,-3.87109 2.6875,-1.375 -0.1869,1.20781 -0.73434,2.11436 -1.46875,2.71875 -3.98836,2.73358 -7.88979,-2.08265 -6.4375,-5.5625 0.35715,-1.19729 1.18946,-2.24893 2.4375,-3.09375 1.51538,-0.99731 3.45009,-1.36555 5.90625,-0.96875 4.54299,-0.47316 5.54362,-2.71562 6.75,-4.90625 0.69902,0.77288 0.64782,2.0984 0.78125,3.3125 0.82778,-0.95668 2.09088,-1.83037 0.84375,-3.90625 1.75942,0.24976 4.80169,-1.13895 5.59375,-2.8125 C 54.82347,54.44251 55.93091,53.60086 57.78125,54 57.20229,50.99237 54.43599,51.11466 53,52.8125 c 0.33246,-1.60322 -0.80038,-2.06844 -1.34375,-2.9375 -0.46712,0.81378 -1.60539,1.89373 -1.40625,3.28125 -1.65001,-1.77265 -4.41254,0.61698 -2.6875,2.9375 1.23846,-2.01243 4.40381,-0.68677 2.78125,1.65625 -0.71328,0.7595 -1.45096,0.99967 -2.15625,0.96875 -3.42984,-0.6024 -3.13347,-4.23246 -2.6875,-6.59375 0.63942,-3.22121 2.71498,-6.04903 6.03125,-6.28125 1.97965,-0.0994 4.11426,0.79059 6.3125,2.25 -1.27636,-2.30935 -1.97836,-4.47243 -1.71875,-6.4375 0.50037,-3.28652 3.4563,-5.12391 6.71875,-5.5 2.38968,-0.25303 6.05272,-0.27991 6.375,3.1875 -0.02638,0.70547 -0.34141,1.44441 -1.15625,2.09375 -2.46688,1.42721 -3.54374,-1.83507 -1.4375,-2.90625 -2.17299,-1.90755 -4.78925,0.64918 -3.15625,2.4375 -1.3668,-0.31099 -2.49476,0.69416 -3.34375,1.09375 0.82214,0.61206 1.15635,1.79511 2.78125,1.59375 -1.80869,1.29358 -2.13828,4.05405 0.8125,4.875 -0.24778,-1.87661 0.66035,-2.91064 4.375,-4.3125 1.73226,-0.65373 3.38752,-3.60112 3.28125,-5.375 1.96791,1.41135 2.9481,0.24748 3.96875,-0.5 -1.19928,-0.23144 -2.53636,-0.3031 -3.25,-1.0625 1.705199,-0.765999 3.429977,-1.422803 4.543126,-3.580791 0.973962,-1.763881 0.798518,-3.479023 0.978414,-5.315652 C 77.826166,27.096436 78.302031,26.018317 79,25.125 c 0.94324,-1.17543 2.05894,-1.89737 3.28125,-2.15625 3.58616,-1.16532 8.04799,3.12144 5,6.875 -0.66197,0.68297 -1.59351,1.1617 -2.8125,1.25 -2.46035,-0.54066 -1.40111,-4.46756 1.5625,-2.59375 -0.15626,-4.07955 -3.18013,-3.03268 -4.125,-1.625 L 80.9375,25.21875 c -1.62897,1.64535 -2.22095,3.15986 -0.5625,5 -1.77373,0.96116 -2.65682,2.56581 -1.5625,5.6875 3.637985,-4.02443 7.081137,-1.266443 10.1875,-5.96875 1.15776,0.93121 2.46052,1.04503 3.78125,0.9375 -3.245623,-3.117702 -0.361604,-6.822326 -6.53125,-8.75 1.62707,-1.24693 1.70629,-2.73865 1.25,-4.3125 z M 23.84375,77.40625 c -0.37988,4.22537 -1.74873,4.55534 -2.3125,7.1875 -0.3254,1.51954 -1.07507,3.23184 -0.375,5.25 -1.26629,-0.34756 -1.79489,-1.20796 -2.34375,-2.8125 -0.94956,1.99514 -1.06055,3.18741 1,4.84375 -2.44324,0.15519 -4.58504,2.15801 -4.3125,6.96875 0.17439,2.06231 0.70591,4.23685 -0.9375,6.8125 1.95137,0.21895 3.56078,-1.58043 3.4375,-3.78125 1.15182,1.07319 1.92916,0.37882 3.03125,0.875 -0.78816,-0.82115 0.15988,-1.92978 -1.09375,-2.625 2.33354,-0.047 2.43426,-2.58338 1.53125,-3.71875 -0.56496,1.79215 -3.2724,2.51388 -3.71875,0.53125 -0.30458,-1.77157 1.42286,-3.75526 4.09375,-3.0625 4.18963,2.46535 3.36638,5.51888 0.5,8.25 -2.39273,2.25403 -5.39701,3.11649 -7.46875,6.625 -2.260083,3.79811 -2.404646,8.68212 1.96875,10.46875 -4.626272,0.95144 -5.36558,5.7886 -3.84375,9.9375 1.3902,3.83003 4.15702,5.21889 6.09375,7.875 2.31441,3.21226 2.57197,6.3796 -2,8.03125 -2.7528,0.18906 -4.06311,-2.09606 -3.4375,-3.78125 0.80383,-1.86652 3.30599,-0.6468 3.53125,1.21875 1.09665,-0.94966 1.47246,-3.46153 -0.8125,-3.9375 1.36022,-0.45246 0.63661,-1.71304 1.5625,-2.375 -1.17461,0.28473 -1.8265,-0.56147 -3.15625,0.28125 0.52647,-2.14047 -0.7292,-4.19961 -2.6875,-4.34375 1.14098,2.83424 0.20745,4.88008 -0.34375,6.875 -1.1538,4.67828 0.59587,7.05379 2.96875,7.65625 -2.33033,1.24856 -2.44092,2.42663 -1.875,4.5625 0.83495,-1.47601 1.50386,-2.20407 2.8125,-2.3125 -1.05975,1.85472 -0.6338,3.66526 -0.59375,5.21875 0.0694,2.69096 1.3735,3.27694 0.96875,7.5 1.54068,-0.55814 2.66925,-1.51317 2.71875,-3.5625 1.32639,1.31439 2.88504,1.91373 4.59375,1.78125 3.18984,-0.24731 2.37739,-2.47519 6.34375,-1.6875 -0.69091,-1.13072 -1.53452,-2.1126 -2.96875,-2.5 0.31543,-1.22716 0.4876,-2.00158 0.34375,-3.4375 -0.24873,-2.48297 -2.80829,-2.49659 -1.53125,-8.3125 -3.16736,0.95406 -3.95532,2.62545 -3.6875,4.625 -2.46389,-0.2566 -3.31711,1.12075 -3.6875,3.40625 L 20.0625,151.75 c -0.58118,1.59265 0.36095,4.6513 3.75,2.375 -3.25974,-1.29158 -0.7297,-4.45123 1.15625,-2.78125 0.6465,1.03719 0.81837,2.0628 0.65625,3 -1.23848,4.67394 -7.36102,3.58456 -8.53125,0 -0.51063,-1.14031 -0.55069,-2.48295 -0.15625,-3.9375 0.49752,-1.74457 1.72364,-3.29171 3.84375,-4.59375 3.13376,-3.32297 2.42156,-5.70906 1.90625,-8.15625 1.03402,0.12954 1.88791,1.19832 2.78125,2.03125 0.003,-1.26509 0.36211,-2.74078 -1.9375,-3.5 1.4962,-0.95883 2.8981,-4.02751 2.40625,-5.8125 -1.05473,-3.82772 -0.75632,-5.18879 0.90625,-6.09375 -2.40129,-1.90127 -4.45726,-0.005 -4.4375,2.21875 -0.79422,-1.43179 -1.92741,-1.00853 -2.90625,-1.3125 0.17706,0.92146 0.03745,2.45354 1.09375,3.375 -2.40703,-0.26656 -2.94639,3.33599 -0.125,3.96875 -0.37472,-2.33308 2.88811,-3.39672 3.1875,-0.5625 -0.0449,1.04096 -0.44538,1.75071 -1,2.1875 -2.99209,1.7816 -5.14087,-1.20095 -6.34375,-3.28125 -1.61741,-2.85815 -1.89266,-6.34756 0.46875,-8.6875 1.43526,-1.36708 3.63195,-2.07771 6.25,-2.40625 -2.51277,-0.80504 -4.52854,-1.892 -5.6875,-3.5 -1.89011,-2.73479 -0.99108,-6.11358 1.125,-8.625 1.56539,-1.82321 4.19968,-4.33339 6.8125,-2.03125 0.4647,0.53145 0.74129,1.28108 0.59375,2.3125 -0.81619,2.73062 -3.82917,1.06794 -3.03125,-1.15625 -2.88966,0.10238 -3.00871,3.75624 -0.59375,3.9375 -1.20794,0.71118 -1.34376,2.2519 -1.6875,3.125 1.01808,-0.11852 2.04943,0.47979 3.09375,-0.78125 -0.42892,2.18191 1.22715,4.42655 3.9375,3 -1.46749,-1.19566 -1.49158,-2.55698 0.25,-6.125 0.81217,-1.66389 -0.01846,-4.93829 -1.3125,-6.15625 2.40014,-0.32274 2.33247,-1.84975 2.5625,-3.09375 -1.03144,0.65417 -2.08481,1.53185 -3.125,1.46875 0.95716,-2.31044 2.09323,-4.50051 -0.375,-8.34375 -1.84408,-1.67019 -2.76977,-3.41239 -2.9375,-5.21875 -0.11984,-1.50231 0.19436,-2.81698 0.90625,-3.84375 1.81033,-3.30776 8.01842,-3.25957 8.375,1.5625 -0.01324,0.95102 -0.3923,1.94336 -1.21875,2.84375 C 28.55752,90.45037 26.68316,86.8567 30.125,86.1875 27.2131,83.32602 25.72205,86.17131 26,87.84375 L 24.15625,87.3125 c -0.05683,2.31463 0.53103,3.79808 3,4 -0.63146,1.91604 -0.15625,3.72898 2.78125,5.25 -0.18419,-5.95162 2.3295,-5.4803 3.03125,-7.875 0.40574,-1.38488 0.36525,-2.20448 0.28125,-3.46875 1.48103,-0.11665 2.48769,-0.9221 3.375,-1.90625 -4.04358,0.0438 -2.8165,-1.98201 -5.90625,-2.8125 -1.65509,-0.44488 -3.29799,-0.1414 -4.84375,0.90625 0.32874,-2.02339 -0.6197,-3.16769 -2.03125,-4 z"
       transform="translate(0,802.36218)"
       id="path3000"
       inkscape:connector-curvature="0"
       inkscape:transform-center-x="72.786435"
       inkscape:transform-center-y="-35.41132"
       sodipodi:nodetypes="ccccccccccccccccccccccccccccsccsccccccccccccccccscccccccccccccccccccscccccccccccccccccccccccccccccccccccccccccccccccsccsccscccccccccccccscccccccccccccccccccsccccccccccccccccscc" />
    <g
       id="g3797"
       transform="translate(279.53126,0)"
       style="fill:#084c8d;fill-opacity:1">
      <path
         id="path3001"
         transform="translate(0,802.36218)"
         d="m -152.34375,36.21875 c -3.67389,-0.0043 -7.4755,0.364721 -11.34375,1.15625 -20.63064,4.22148 -34.83369,18.72064 -31.71875,32.375 3.11494,13.65436 22.36935,21.28399 43,17.0625 20.63064,-4.22148 34.80244,-18.6894 31.6875,-32.34375 -2.5309,-11.094176 -15.70481,-18.231234 -31.625,-18.25 z m -1.78125,3.34375 c 14.65469,-0.139895 26.8439,6.492516 28.90625,16.625 2.44426,12.00886 -10.27179,24.3874 -28.40625,27.65625 -18.13447,3.26887 -34.83699,-3.80364 -37.28125,-15.8125 -2.44426,-12.00887 10.30304,-24.41865 28.4375,-27.6875 2.83351,-0.510759 5.62992,-0.755343 8.34375,-0.78125 z"
         style="fill:#084c8d;fill-opacity:1;fill-rule:nonzero;stroke:none"
         inkscape:connector-curvature="0" />
      <path
         id="path3775"
         transform="translate(0,802.36218)"
         d="m -163.21875,34.875 c -42.45766,4.343793 -75.5625,40.207813 -75.5625,83.8125 0,46.53457 37.71543,84.25 84.25,84.25 46.53457,0 84.25,-37.71543 84.25,-84.25 0,-43.604996 -33.10441,-79.469123 -75.5625,-83.8125 41.14927,4.336177 73.21875,39.152823 73.21875,81.4375 0,45.21755 -36.67363,81.875 -81.90625,81.875 -45.23262,0 -81.90625,-36.65745 -81.90625,-81.875 0,-42.284677 32.06948,-77.101323 73.21875,-81.4375 z"
         style="fill:#084c8d;fill-opacity:1;fill-rule:nonzero;stroke:none"
         inkscape:connector-curvature="0" />
      <path
         id="path3779"
         transform="translate(0,802.36218)"
         d="m -160.25,33.8125 c -0.93386,0.08846 -1.86039,0.212883 -2.78125,0.34375 0.92389,-0.141167 1.84304,-0.24847 2.78125,-0.34375 z m -2.78125,0.34375 c -29.03726,4.126577 -51.375,29.072812 -51.375,59.25 0,33.06218 26.81282,59.84375 59.875,59.84375 33.06218,0 59.875,-26.78157 59.875,-59.84375 0,-30.177188 -22.33774,-55.123423 -51.375,-59.25 26.79273,4.093844 47.3125,27.250413 47.3125,55.1875 0,30.82713 -24.98537,55.8125 -55.8125,55.8125 -30.82713,0 -55.8125,-24.98537 -55.8125,-55.8125 0,-27.937087 20.51977,-51.093656 47.3125,-55.1875 z m 17,0 c -0.92086,-0.130867 -1.84739,-0.255291 -2.78125,-0.34375 0.93821,0.09528 1.85736,0.202583 2.78125,0.34375 z"
         style="fill:#084c8d;fill-opacity:1;fill-rule:nonzero;stroke:none"
         inkscape:connector-curvature="0" />
      <path
         sodipodi:nodetypes="ccccc"
         transform="translate(0,802.36218)"
         inkscape:connector-curvature="0"
         id="path3002"
         d="m -102.29706,103.18685 1.68621,-8.993144 C -119.26959,74.347883 -144.80013,55.73546 -175.14156,37.98653 l -3.59726,1.461386 c 31.56161,19.005935 56.26027,40.540325 76.44176,63.738934 z"
         style="fill:#084c8d;stroke:none;fill-opacity:1" />
      <path
         sodipodi:nodetypes="ccccc"
         transform="translate(0,802.36218)"
         inkscape:connector-curvature="0"
         id="path3004"
         d="m -183.79747,42.37069 -2.81036,1.911044 c 35.80861,21.279477 59.62046,45.146491 80.26385,69.696896 l 3.59726,-8.54349 c -21.896,-23.504354 -49.26488,-44.355188 -81.05075,-63.06445 z"
         style="fill:#084c8d;stroke:none;fill-opacity:1" />
      <path
         sodipodi:nodetypes="ccccc"
         transform="translate(0,802.36218)"
         inkscape:connector-curvature="0"
         id="path3006"
         d="m -191.1044,47.878993 c 35.90337,20.856354 62.19552,43.715047 83.74869,67.561027 l -4.83381,7.75659 c -20.27852,-26.923607 -47.96619,-51.201087 -80.82592,-73.631402 z"
         style="fill:#084c8d;stroke:none;fill-opacity:1" />
      <path
         sodipodi:nodetypes="ccccc"
         transform="translate(0,802.36218)"
         inkscape:connector-curvature="0"
         id="path3008"
         d="m -132.19928,38.77343 c -31.73161,14.492214 -54.71292,29.548964 -77.34107,44.628498 l -0.11242,2.248288 c 23.95548,-16.239198 49.50351,-31.814834 80.60109,-45.078156 z"
         style="fill:#084c8d;stroke:none;fill-opacity:1" />
      <path
         style="fill:#084c8d;stroke:none;fill-opacity:1"
         d="m -124.77993,845.85701 c -34.56507,14.87001 -63.60572,33.24526 -84.648,48.11334 l -0.11242,2.24829 c 23.10621,-16.52229 55.03418,-35.89177 87.90802,-48.563 z"
         id="path3010"
         inkscape:connector-curvature="0"
         sodipodi:nodetypes="ccccc" />
      <path
         sodipodi:nodetypes="ccccc"
         inkscape:connector-curvature="0"
         id="path3012"
         d="m -118.03507,850.57841 c -35.12714,14.53277 -69.56368,35.94321 -90.60596,50.81129 l -0.11242,2.24829 c 23.10621,-16.52229 56.60799,-35.89177 92.96667,-50.81129 z"
         style="fill:#084c8d;stroke:none;fill-opacity:1" />
    </g>
    <path
       inkscape:transform-center-y="-35.41132"
       inkscape:transform-center-x="-72.786435"
       inkscape:connector-curvature="0"
       id="path3817"
       d="m 162.23986,820.17468 c 3.17463,2.81421 4.40936,2.09629 6.625,3.625 1.27908,0.88255 2.96893,1.61372 3.84375,3.5625 0.6831,-1.12148 0.4824,-2.08094 -0.21875,-3.625 2.05945,0.80053 2.9571,1.56886 2.59375,4.1875 1.88438,-1.5629 4.8361,-1.5627 7.9375,2.125 1.28763,1.62033 2.38121,3.56543 5.34375,4.3125 -1.26979,1.49777 -3.67393,1.31107 -5.09375,-0.375 -0.10208,1.57097 -1.16333,1.57052 -1.625,2.6875 0.0103,-1.13814 -1.43541,-1.29048 -1,-2.65625 -1.73036,1.56635 -3.53463,-0.21066 -3.65625,-1.65625 1.64036,0.91663 4.09759,-0.40735 3.0625,-2.15625 -0.99349,-1.49806 -3.59407,-1.77361 -5.0625,0.5625 -1.35774,4.66768 1.32212,6.32245 5.28125,6.34375 3.28721,-9.6e-4 6.05466,-1.41335 9.96875,-0.28125 4.42296,1.2631 7.97463,4.95616 5.46875,9.5 4.32286,-2.85765 8.28955,0.38394 9.90625,4.6875 1.44578,3.80939 0.26564,6.66103 0.53125,9.9375 0.34233,3.94435 2.2078,6.4818 6.75,4.75 2.20934,-1.65302 1.72995,-4.22501 0.15625,-5.09375 -1.82707,-0.88985 -2.95289,1.68937 -1.90625,3.25 -1.45069,-0.004 -3.35836,-1.64832 -1.9375,-3.5 -1.32596,0.54473 -1.61645,-0.91507 -2.75,-0.8125 1.07587,-0.55072 1.00497,-1.58336 2.5625,-1.8125 -1.79566,-1.27842 -2.17111,-3.67543 -0.78125,-5.0625 0.98485,2.8922 3.03058,3.84801 4.75,5 3.92704,2.79214 4.15494,5.71384 2.75,7.71875 2.58055,-0.57451 3.4101,0.26225 4.375,2.25 -1.59584,-0.57363 -2.56261,-0.70929 -3.625,0.0625 2.0133,0.71391 2.86039,2.35919 3.84375,3.5625 1.70335,2.08438 1.09386,3.37655 4.15625,6.3125 -1.53167,0.58241 -3.00024,0.61435 -4.375,-0.90625 -0.14744,1.86151 -0.93125,3.32915 -2.3125,4.34375 -2.57851,1.89407 -3.41468,-0.31004 -5.90625,2.875 -0.21428,-1.30766 -0.20902,-2.61431 0.625,-3.84375 -1.03979,-0.72407 -1.70328,-1.19304 -2.53125,-2.375 -1.43175,-2.04379 0.51276,-3.73874 -4.25,-7.3125 3.02266,-1.34386 4.71067,-0.56494 5.8125,1.125 1.69959,-1.80221 3.25922,-1.33393 5.03125,0.15625 l -1.5625,1.09375 c 1.47966,0.82761 2.74095,3.76343 -1.3125,4.25 1.62731,-3.1058 -2.34813,-3.87109 -2.6875,-1.375 0.1869,1.20781 0.73434,2.11436 1.46875,2.71875 3.98836,2.73358 7.88979,-2.08265 6.4375,-5.5625 -0.35715,-1.19729 -1.18946,-2.24893 -2.4375,-3.09375 -1.51538,-0.99731 -3.45009,-1.36555 -5.90625,-0.96875 -4.54299,-0.47316 -5.54362,-2.71562 -6.75,-4.90625 -0.69902,0.77288 -0.64782,2.0984 -0.78125,3.3125 -0.82778,-0.95668 -2.09088,-1.83037 -0.84375,-3.90625 -1.75942,0.24976 -4.80169,-1.13895 -5.59375,-2.8125 -1.69847,-3.58874 -2.80591,-4.43039 -4.65625,-4.03125 0.57896,-3.00763 3.34526,-2.88534 4.78125,-1.1875 -0.33246,-1.60322 0.80038,-2.06844 1.34375,-2.9375 0.46712,0.81378 1.60539,1.89373 1.40625,3.28125 1.65001,-1.77265 4.41254,0.61698 2.6875,2.9375 -1.23846,-2.01243 -4.40381,-0.68677 -2.78125,1.65625 0.71328,0.7595 1.45096,0.99967 2.15625,0.96875 3.42984,-0.6024 3.13347,-4.23246 2.6875,-6.59375 -0.63942,-3.22121 -2.71498,-6.04903 -6.03125,-6.28125 -1.97965,-0.0994 -4.11426,0.79059 -6.3125,2.25 1.27636,-2.30935 1.97836,-4.47243 1.71875,-6.4375 -0.50037,-3.28652 -3.4563,-5.12391 -6.71875,-5.5 -2.38968,-0.25303 -6.05272,-0.27991 -6.375,3.1875 0.0264,0.70547 0.34141,1.44441 1.15625,2.09375 2.46688,1.42721 3.54374,-1.83507 1.4375,-2.90625 2.17299,-1.90755 4.78925,0.64918 3.15625,2.4375 1.3668,-0.31099 2.49476,0.69416 3.34375,1.09375 -0.82214,0.61206 -1.15635,1.79511 -2.78125,1.59375 1.80869,1.29358 2.13828,4.05405 -0.8125,4.875 0.24778,-1.87661 -0.66035,-2.91064 -4.375,-4.3125 -1.73226,-0.65373 -3.38752,-3.60112 -3.28125,-5.375 -1.96791,1.41135 -2.9481,0.24748 -3.96875,-0.5 1.19928,-0.23144 2.53636,-0.3031 3.25,-1.0625 -2.28123,-1.02476 -4.5975,-1.85409 -5.4375,-6.34375 0.19632,-2.48025 -0.35184,-4.38299 -1.46875,-5.8125 -0.94324,-1.17543 -2.05894,-1.89737 -3.28125,-2.15625 -3.58616,-1.16532 -8.04799,3.12144 -5,6.875 0.66197,0.68297 1.59351,1.1617 2.8125,1.25 2.46035,-0.54066 1.40111,-4.46756 -1.5625,-2.59375 0.15626,-4.07955 3.18013,-3.03268 4.125,-1.625 l 0.96875,-1.65625 c 1.62897,1.64535 2.22095,3.15986 0.5625,5 1.77373,0.96116 2.65682,2.56581 1.5625,5.6875 -3.94821,-4.45727 -5.44059,-2.36371 -7.59375,-3.625 -1.24521,-0.7294 -1.78774,-1.3661 -2.59375,-2.34375 -1.15776,0.93121 -2.46052,1.04503 -3.78125,0.9375 2.97251,-2.74165 0.69627,-3.37013 2.375,-6.09375 0.89925,-1.45897 2.31283,-2.35835 4.15625,-2.65625 -1.62707,-1.24693 -1.70629,-2.73865 -1.25,-4.3125 z m 63.65625,59.59375 c 0.37988,4.22537 1.74873,4.55534 2.3125,7.1875 0.3254,1.51954 1.07507,3.23184 0.375,5.25 1.26629,-0.34756 1.79489,-1.20796 2.34375,-2.8125 0.94956,1.99514 1.06055,3.18741 -1,4.84375 2.44324,0.15519 4.58504,2.15801 4.3125,6.96875 -0.17439,2.06231 -0.70591,4.23685 0.9375,6.8125 -1.95137,0.21895 -3.56078,-1.58043 -3.4375,-3.78125 -1.15182,1.07319 -1.92916,0.37882 -3.03125,0.875 0.78816,-0.82115 -0.15988,-1.92978 1.09375,-2.625 -2.33354,-0.047 -2.43426,-2.58338 -1.53125,-3.71875 0.56496,1.79215 3.2724,2.51388 3.71875,0.53125 0.30458,-1.77157 -1.42286,-3.75526 -4.09375,-3.0625 -4.18963,2.46535 -3.36638,5.51888 -0.5,8.25 2.39273,2.25403 5.39701,3.11649 7.46875,6.625 2.26008,3.79811 2.40465,8.68212 -1.96875,10.46875 4.62627,0.95144 5.36558,5.7886 3.84375,9.9375 -1.3902,3.83003 -4.15702,5.21889 -6.09375,7.875 -2.31441,3.21226 -2.57197,6.3796 2,8.03125 2.7528,0.18906 4.06311,-2.09606 3.4375,-3.78125 -0.80383,-1.86652 -3.30599,-0.6468 -3.53125,1.21875 -1.09665,-0.94966 -1.47246,-3.46153 0.8125,-3.9375 -1.36022,-0.45246 -0.63661,-1.71304 -1.5625,-2.375 1.17461,0.28473 1.8265,-0.56147 3.15625,0.28125 -0.52647,-2.14047 0.7292,-4.19961 2.6875,-4.34375 -1.14098,2.83424 -0.20745,4.88008 0.34375,6.875 1.1538,4.67828 -0.59587,7.05379 -2.96875,7.65625 2.33033,1.24856 2.44092,2.42663 1.875,4.5625 -0.83495,-1.47601 -1.50386,-2.20407 -2.8125,-2.3125 1.05975,1.85472 0.6338,3.66526 0.59375,5.21875 -0.0694,2.69096 -1.3735,3.27694 -0.96875,7.5 -1.54068,-0.55814 -2.66925,-1.51317 -2.71875,-3.5625 -1.32639,1.31439 -2.88504,1.91373 -4.59375,1.78125 -3.18984,-0.24731 -2.37739,-2.47519 -6.34375,-1.6875 0.69091,-1.13072 1.53452,-2.1126 2.96875,-2.5 -0.31543,-1.22716 -0.4876,-2.00158 -0.34375,-3.4375 0.24873,-2.48297 2.80829,-2.49659 1.53125,-8.3125 3.16736,0.95406 3.95532,2.62545 3.6875,4.625 2.46389,-0.2566 3.31711,1.12075 3.6875,3.40625 l -1.90625,-0.1875 c 0.58118,1.59265 -0.36095,4.6513 -3.75,2.375 3.25974,-1.29158 0.7297,-4.45123 -1.15625,-2.78125 -0.6465,1.03719 -0.81837,2.0628 -0.65625,3 1.23848,4.67394 7.36102,3.58456 8.53125,0 0.51063,-1.14031 0.55069,-2.48295 0.15625,-3.9375 -0.49752,-1.74457 -1.72364,-3.29171 -3.84375,-4.59375 -3.13376,-3.32297 -2.42156,-5.70906 -1.90625,-8.15625 -1.03402,0.12954 -1.88791,1.19832 -2.78125,2.03125 -0.003,-1.26509 -0.36211,-2.74078 1.9375,-3.5 -1.4962,-0.95883 -2.8981,-4.02751 -2.40625,-5.8125 1.05473,-3.82772 0.75632,-5.18879 -0.90625,-6.09375 2.40129,-1.90127 4.45726,-0.005 4.4375,2.21875 0.79422,-1.43179 1.92741,-1.00853 2.90625,-1.3125 -0.17706,0.92146 -0.0375,2.45354 -1.09375,3.375 2.40703,-0.26656 2.94639,3.33599 0.125,3.96875 0.37472,-2.33308 -2.88811,-3.39672 -3.1875,-0.5625 0.0449,1.04096 0.44538,1.75071 1,2.1875 2.99209,1.7816 5.14087,-1.20095 6.34375,-3.28125 1.61741,-2.85815 1.89266,-6.34756 -0.46875,-8.6875 -1.43526,-1.36708 -3.63195,-2.07771 -6.25,-2.40625 2.51277,-0.80504 4.52854,-1.892 5.6875,-3.5 1.89011,-2.73479 0.99108,-6.11358 -1.125,-8.625 -1.56539,-1.82321 -4.19968,-4.33339 -6.8125,-2.03125 -0.4647,0.53145 -0.74129,1.28108 -0.59375,2.3125 0.81619,2.73062 3.82917,1.06794 3.03125,-1.15625 2.88966,0.10238 3.00871,3.75624 0.59375,3.9375 1.20794,0.71118 1.34376,2.2519 1.6875,3.125 -1.01808,-0.11852 -2.04943,0.47979 -3.09375,-0.78125 0.42892,2.18191 -1.22715,4.42655 -3.9375,3 1.46749,-1.19566 1.49158,-2.55698 -0.25,-6.125 -0.81217,-1.66389 0.0185,-4.93829 1.3125,-6.15625 -2.40014,-0.32274 -2.33247,-1.84975 -2.5625,-3.09375 1.03144,0.65417 2.08481,1.53185 3.125,1.46875 -0.95716,-2.31044 -2.09323,-4.50051 0.375,-8.34375 1.84408,-1.67019 2.76977,-3.41239 2.9375,-5.21875 0.11984,-1.50231 -0.19436,-2.81698 -0.90625,-3.84375 -1.81033,-3.30776 -8.01842,-3.25957 -8.375,1.5625 0.0132,0.95102 0.3923,1.94336 1.21875,2.84375 2.16123,1.29412 4.03559,-2.29955 0.59375,-2.96875 2.9119,-2.86148 4.40295,-0.0162 4.125,1.65625 l 1.84375,-0.53125 c 0.0568,2.31463 -0.53103,3.79808 -3,4 0.63146,1.91604 0.15625,3.72898 -2.78125,5.25 0.18419,-5.95162 -2.3295,-5.4803 -3.03125,-7.875 -0.40574,-1.38488 -0.36525,-2.20448 -0.28125,-3.46875 -1.48103,-0.11665 -2.48769,-0.9221 -3.375,-1.90625 4.04358,0.0438 2.8165,-1.98201 5.90625,-2.8125 1.65509,-0.44488 3.29799,-0.1414 4.84375,0.90625 -0.32874,-2.02339 0.6197,-3.16769 2.03125,-4 z"
       style="fill:#e47718;fill-opacity:1;stroke:none" />
    <path
       style="fill:#0092db;stroke:none;fill-opacity:1"
       d="m 38.484385,951.23718 c -0.19862,10.26486 0.0197,20.27366 1.96875,29.25 -10.72538,-2.34525 -16.87245,-7.87689 -23.40625,-13.15625 10.14087,21.41792 25.03797,39.73687 48.59375,52.49997 l 0,-22.59372 9.59375,-0.65625 c -26.11608,-17.58631 -29.12193,-31.0442 -36.75,-45.34375 z m 173.031245,0 c -7.62807,14.29955 -10.63391,27.75744 -36.75,45.34375 l 9.59375,0.65625 0,22.59372 c 23.55578,-12.7631 38.45288,-31.08205 48.59375,-52.49997 -6.5338,5.27936 -12.68087,10.811 -23.40625,13.15625 1.94905,-8.97634 2.16737,-18.98514 1.96875,-29.25 z m -135.468745,46.75 -6.84375,0.5 6.90625,4.62502 z m 97.906245,0 -0.0625,5.12502 6.90625,-4.62502 z m -106.781245,1.03125 0,28.74997 c 41.206635,19.5893 74.883035,21.7775 115.656245,0 l 0,-28.74997 c -37.75786,23.27147 -76.77449,26.73087 -115.656245,0 z"
       id="path3819"
       inkscape:connector-curvature="0"
       sodipodi:nodetypes="ccccccccccccccccccccccccccc" />
    <path
       style="fill:#084c8d;stroke:none;fill-opacity:1"
       d="m 52.84375,906.58093 c -0.69304,0.0679 -1.15589,0.96807 -0.9375,2.40625 1.9154,7.55321 4.14054,14.05568 7.03125,19.875 0.8157,1.8877 -0.36946,2.49104 -1.34375,0.59375 -3.83464,-5.12199 -6.83819,-10.38045 -9.375,-15.71875 -1.31596,-3.36762 -3.5645,-3.15754 -2.21875,1.125 2.90653,8.6774 6.83738,14.47996 10.5625,20.90625 1.20197,1.99384 0.55411,2.25274 -0.84375,0.875 l -7.3125,-7.03125 c -2.54447,-3.01771 -4.17785,-1.159 -1.5,1.9375 3.34852,4.10713 6.88503,8.15294 11.09375,11.9375 2.33073,3.02075 0.61075,1.88017 -0.5625,1.5 l -5.65625,-3.5625 c -2.45947,-1.81145 -2.80977,0.22012 -1.125,1.59375 2.68638,2.69892 6.06802,5.50585 10.375,7.5625 l -0.1875,1.21875 -2.46875,-0.3125 c -2.61065,-0.71506 -2.44721,0.91568 -0.46875,1.90625 l 4.53125,1.8125 c 1.06602,0.36736 1.79869,1.13287 0,1.09375 l -1.34375,-0.0625 c -1.25631,-0.0389 -1.84853,0.75093 -0.0312,1.375 l 4.6875,1.25 c 1.04162,0.325 1.71292,1.00568 -0.0625,1 l -0.875,0.21875 c -1.74555,-0.3143 -2.2391,1.07898 -0.375,1.46875 l 5.3125,1.0625 c 1.59531,0.16451 1.9003,1.08934 0.0937,1.09375 l -1.28125,0.34375 c -1.76609,0.42275 -1.57358,1.08118 0.5625,1.9375 6.66576,2.0842 12.40616,4.77219 21.0625,5.5625 2.64556,0.0965 2.87048,-0.55435 -0.0312,-0.96875 -4.97865,-0.42552 -8.68687,-2.67149 -12.53125,-4.4375 -2.74544,-1.35496 -1.57422,-1.55325 -0.875,-1.96875 l 0.96875,-0.53125 c 1.31071,-0.57841 1.26715,-1.013 -0.34375,-1.375 l -3.03125,-0.78125 c -0.86511,-0.3508 -1.71771,-1.21621 -0.375,-1.15625 1.94504,0.0784 1.55307,-0.84215 -0.1875,-1.375 -1.61281,-0.70678 -4.47807,-1.75007 -2.78125,-2.25 1.88702,-0.50335 0.7213,-1.10997 -0.34375,-1.71875 -1.71033,-0.5887 -0.7304,-1.63556 -0.125,-1.625 l 1.25,-0.34375 -7.5625,-4.15625 c -1.21717,-0.58882 -1.05235,-0.96214 0.125,-0.90625 l 2.46875,0 -4.4375,-3.90625 c -1.4466,-1.24284 -1.53154,-1.75574 0.59375,-1.375 l 1.625,0.125 -3,-5.46875 c -0.80834,-1.90592 0.34951,-1.96023 0.96875,-1.375 l 0.9375,0.75 -0.21875,-3.09375 c -0.55587,-1.56773 1.17983,-1.29947 1.40625,-0.34375 0.78593,-1.1062 1.48227,-0.83264 1.59375,0.6875 l 3.3125,3.90625 -0.96875,0.5 c 4.81457,4.56398 8.17856,9.50024 11.75,14.375 6.76551,2.92844 12.30099,7.319 18.3125,11.90625 8.0253,1.26533 15.58599,2.77502 21.03125,5.40625 l 4.375,-2.65625 C 86.49522,963.81209 65.86492,941.6898 63.1563,914.17468 c -0.48422,-4.84757 -2.7527,-3.51456 -2.3125,0.0625 l 0.84375,8.09375 c 0.23765,2.2686 -0.67286,1.48836 -1.1875,0.34375 -2.25881,-4.49946 -4.12454,-9.44678 -5.84375,-14.59375 -0.60424,-1.08761 -1.27347,-1.55278 -1.8125,-1.5 z m 143.9375,0 c -0.53903,-0.0528 -1.20826,0.41239 -1.8125,1.5 -1.71921,5.14697 -3.58494,10.09429 -5.84375,14.59375 -0.51464,1.14461 -1.3939,1.92485 -1.15625,-0.34375 l 0.8125,-8.09375 c 0.4402,-3.57706 -1.82828,-4.91007 -2.3125,-0.0625 -2.70862,27.51512 -23.33892,49.63741 -60.9375,53.21875 l 0.0625,0.0625 c -8.58437,8.31611 -23.43863,8.88412 -22.65625,13.0625 -2.75031,1.23724 -3.49083,3.66276 -1.1875,4.59375 -0.0895,-1.81354 1.967,-3.05079 1.65625,-1.34375 12.39965,0.16392 21.24725,-0.54907 31.4375,-0.9375 l 2.3125,-0.84375 c -8.18665,0.48857 -15.69229,0.18574 -21.5,-0.84375 l 1.8125,-1.90625 -0.34375,-0.40625 2.65625,-2 -7.0625,0.90625 c 12.15021,-6.83068 25.93656,-11.13643 38.21875,-13.09375 6.01151,-4.58725 11.57824,-8.97781 18.34375,-11.90625 3.57144,-4.87476 6.90418,-9.81102 11.71875,-14.375 l -0.96875,-0.5 3.34375,-3.90625 c 0.11148,-1.52014 0.80782,-1.7937 1.59375,-0.6875 0.22642,-0.95572 1.93087,-1.22398 1.375,0.34375 l -0.21875,3.09375 0.9375,-0.75 c 0.61924,-0.58523 1.80834,-0.53092 1,1.375 l -3.03125,5.46875 1.625,-0.125 c 2.12529,-0.38074 2.0716,0.13216 0.625,1.375 l -4.46875,3.90625 2.46875,0 c 1.17735,-0.0559 1.37342,0.31743 0.15625,0.90625 l -7.59375,4.15625 1.25,0.34375 c 0.6054,-0.0106 1.61653,1.0363 -0.0937,1.625 -1.06505,0.60878 -2.23077,1.2154 -0.34375,1.71875 1.69682,0.49993 -1.19969,1.54322 -2.8125,2.25 -1.74057,0.53285 -2.10129,1.4534 -0.15625,1.375 1.34271,-0.06 0.45886,0.80545 -0.40625,1.15625 l -3.03125,0.78125 c -1.6109,0.362 -1.62321,0.79659 -0.3125,1.375 l 0.96875,0.53125 c 0.69922,0.4155 1.87044,0.61379 -0.875,1.96875 -3.84438,1.76601 -7.58385,4.01198 -12.5625,4.4375 -2.90173,0.4144 -2.67686,1.06525 -0.0312,0.96875 8.65634,-0.79031 14.39674,-3.4783 21.0625,-5.5625 2.13608,-0.85632 2.32859,-1.51475 0.5625,-1.9375 l -1.25,-0.34375 c -1.80655,-0.004 -1.50151,-0.92924 0.0937,-1.09375 l 5.3125,-1.0625 c 1.8641,-0.38977 1.37055,-1.78305 -0.375,-1.46875 l -0.90625,-0.21875 c -1.77542,0.006 -1.10412,-0.675 -0.0625,-1 l 4.6875,-1.25 c 1.81728,-0.62407 1.22506,-1.4139 -0.0312,-1.375 l -1.3125,0.0625 c -1.79869,0.0391 -1.09727,-0.72639 -0.0312,-1.09375 l 4.53125,-1.8125 c 1.97846,-0.99057 2.1419,-2.62131 -0.46875,-1.90625 l -2.46875,0.3125 -0.15625,-1.21875 c 4.30698,-2.05665 7.68862,-4.86358 10.375,-7.5625 1.68477,-1.37363 1.30322,-3.4052 -1.15625,-1.59375 l -5.65625,3.5625 c -1.17325,0.38017 -2.89323,1.52075 -0.5625,-1.5 4.20872,-3.78456 7.74523,-7.83037 11.09375,-11.9375 2.67785,-3.0965 1.04447,-4.95521 -1.5,-1.9375 l -7.3125,7.03125 c -1.39786,1.37774 -2.04572,1.11884 -0.84375,-0.875 3.72512,-6.42629 7.68722,-12.22885 10.59375,-20.90625 1.34575,-4.28254 -0.93404,-4.49262 -2.25,-1.125 -2.53681,5.3383 -5.50911,10.59676 -9.34375,15.71875 -0.97429,1.89729 -2.1907,1.29395 -1.375,-0.59375 2.89071,-5.81932 5.11585,-12.32179 7.03125,-19.875 0.21839,-1.43818 -0.24446,-2.33838 -0.9375,-2.40625 z m -51.15625,71.375 c 0.0535,0.49966 0.0921,1.01714 0.3125,1.46875 l -1.71875,0.0312 0.53125,1.5 -1.25,-0.375 0.375,1.8125 c -6.46366,-0.56987 -7.62318,2.97721 -25.75,2.125 l -4.25,3.0625 c 1.51152,0.37418 3.03355,0.68611 5.5,-0.53125 -0.68529,2.57965 3.8018,1.87817 5,0.1875 0.18453,1.87975 4.30713,2.72942 5.875,0.21875 0.6373,2.09665 4.54279,2.25165 5.59375,-0.46875 1.12239,2.22875 5.27407,1.15778 5.4375,-0.84375 1.78838,1.19139 5.58369,1.08366 4.90625,-1.84375 2.25459,1.33282 5.25758,1.81721 4.75,-1.71875 4.34879,2.50328 5.36809,1.16566 5.125,-1.375 3.92179,1.08268 8.67249,-1.66139 4.84375,-2.8125 -4.48013,-0.57357 -8.46476,0.47628 -15.28125,-0.4375 z m -29.46875,0.34375 -0.65625,0.78125 0.5625,0.1875 -2.6875,2.4375 10.75,0.9375 c -5.50745,0.20854 -12.83316,0.23625 -19.25,0.34375 0.71662,-1.20174 -2.96663,-1.02364 -3.59375,0.625 -0.003,-2.223 2.10732,-2.51154 2.875,-2.34375 0.89261,0.1951 2.44955,0.34284 2.6875,-0.6875 1.0155,2.22138 4.7267,0.78724 2.5625,-1.59375 l 6.75,-0.6875 z"
       id="path3821"
       inkscape:connector-curvature="0" />
    <g
       id="g3871"
       transform="translate(278.36042,0)"
       style="fill:#fef400;fill-opacity:1">
      <path
         id="path3857"
         transform="translate(0,802.36218)"
         d="m -187.5625,214.96875 -8.6875,13.5625 4.625,1.78125 1.9375,-3.15625 8.75,2.1875 1.75,4.0625 5.46875,0.8125 -8.9375,-17.875 -4.90625,-1.375 z m 2.4375,4.71875 2.6875,6.21875 -5.6875,-1.34375 3,-4.875 z"
         style="fill:#fef400;stroke:none;fill-opacity:1"
         inkscape:connector-curvature="0" />
      <path
         inkscape:connector-curvature="0"
         style="fill:#fef400;stroke:none;fill-opacity:1"
         d="m -119.15833,1017.3309 8.6875,13.5625 -4.625,1.7813 -1.9375,-3.1563 -8.75,2.1875 -1.75,4.0625 -5.46875,0.8125 8.9375,-17.875 4.90625,-1.375 z m -2.4375,4.7188 -2.6875,6.2187 5.6875,-1.3437 -3,-4.875 z"
         id="path3862" />
      <path
         sodipodi:nodetypes="cccccccccccc"
         transform="translate(0,802.36218)"
         inkscape:connector-curvature="0"
         id="path3864"
         d="m -154.13632,219.83936 -15.69003,-1.05684 0,13.25117 -3.41441,0 c 0.007,1.59141 0.43329,2.76433 1.95109,2.84534 l 3.00793,0 c 1.55604,0.13124 2.82443,-0.31282 3.08923,-2.76405 l 0,-9.91805 6.58494,0.32518 0,13.33247 4.55255,0 z"
         style="fill:#fef400;stroke:none;fill-opacity:1" />
      <path
         style="fill:#fef400;stroke:none;fill-opacity:1"
         d="m -149.58376,1022.2015 15.69003,-1.0568 -0.0813,3.0079 -11.13749,0.7317 0,13.3325 -4.55255,0 z"
         id="path3866"
         inkscape:connector-curvature="0"
         sodipodi:nodetypes="ccccccc" />
      <path
         id="path3868"
         transform="translate(0,802.36218)"
         d="m -135.75,225.28125 -15.71875,1.15625 0,2.65625 15.53125,-1.125 0.1875,-2.6875 z"
         style="fill:#fef400;stroke:none;fill-opacity:1"
         inkscape:connector-curvature="0" />
    </g>
    <g
       id="g3899"
       transform="translate(280.32063,0)"
       style="fill:#084c8d;fill-opacity:1">
      <path
         inkscape:transform-center-y="-7.114905"
         inkscape:transform-center-x="4.18861"
         d="m -171.94422,829.91855 -1.82917,0.48574 -3.04543,-11.46828 c -0.70163,1.16909 -1.71271,2.22232 -3.03325,3.15969 l -0.46937,-1.76751 c 1.85536,-1.51944 2.94783,-3.12231 3.27742,-4.80864 l 1.19205,-0.31655 3.90775,14.71555"
         style="font-size:40px;font-style:normal;font-variant:normal;font-weight:normal;font-stretch:normal;line-height:125%;letter-spacing:0px;word-spacing:0px;fill:#084c8d;fill-opacity:1;stroke:none;font-family:Garuda;-inkscape-font-specification:Garuda"
         id="path3883"
         inkscape:connector-curvature="0" />
      <path
         d="m -162.98849,823.30163 c -1.57055,10e-6 -2.85707,-0.46782 -3.85953,-1.40347 -0.98579,-0.94982 -1.47866,-2.15483 -1.47866,-3.61502 0,-1.5027 0.50123,-2.74314 1.50372,-3.72133 1.01918,-0.97817 2.40595,-1.46726 4.16029,-1.46727 4.09345,10e-6 6.14017,2.50216 6.1402,7.50646 -3e-5,5.51467 -2.13864,8.272 -6.41587,8.272 -1.40349,0 -2.54799,-0.34023 -3.43351,-1.02071 -0.88553,-0.68047 -1.42018,-1.62321 -1.60397,-2.82821 l 2.10522,-0.14886 c 0.36757,1.64448 1.36169,2.46672 2.98238,2.46671 0.81868,10e-6 1.52041,-0.19137 2.1052,-0.57414 0.58478,-0.39694 1.01082,-0.88603 1.27817,-1.46727 0.26731,-0.59541 0.45945,-1.13412 0.57641,-1.61613 0.11691,-0.49617 0.17544,-0.94273 0.17544,-1.33967 l 0,-0.99945 c -0.96906,1.30425 -2.38089,1.95637 -4.23549,1.95636 m 0.55138,-1.53107 c 1.0693,2e-5 1.91306,-0.34022 2.53126,-1.02071 0.6349,-0.69463 0.95234,-1.53813 0.95237,-2.53051 -3e-5,-1.00652 -0.31747,-1.8571 -0.95237,-2.55176 -0.6182,-0.69464 -1.45361,-1.04196 -2.5062,-1.04198 -1.05261,2e-5 -1.92978,0.36152 -2.63152,1.0845 -0.70173,0.72302 -1.0526,1.60197 -1.0526,2.63684 0,1.02071 0.35922,1.85004 1.07766,2.48798 0.71845,0.62377 1.5789,0.93566 2.5814,0.93564"
         style="font-size:40px;font-style:normal;font-variant:normal;font-weight:normal;font-stretch:normal;line-height:125%;letter-spacing:0px;word-spacing:0px;fill:#084c8d;fill-opacity:1;stroke:none;font-family:Garuda;-inkscape-font-specification:Garuda"
         id="path3885"
         inkscape:connector-curvature="0" />
      <path
         inkscape:transform-center-y="-7.42746"
         inkscape:transform-center-x="-1.17816"
         d="m -135.05168,830.3441 -1.79885,-0.58818 3.68769,-11.27816 c -1.22493,0.59881 -2.64641,0.93197 -4.2644,0.99951 l 0.56835,-1.7382 c 2.38348,-0.26471 4.17241,-1.01466 5.36681,-2.24989 l 1.17228,0.38332 -4.73188,14.4716"
         style="font-size:40px;font-style:normal;font-variant:normal;font-weight:normal;font-stretch:normal;line-height:125%;letter-spacing:0px;word-spacing:0px;fill:#084c8d;fill-opacity:1;stroke:none;font-family:Garuda;-inkscape-font-specification:Garuda"
         id="path3889"
         inkscape:connector-curvature="0" />
      <path
         inkscape:connector-curvature="0"
         id="path3895"
         style="font-size:40px;font-style:normal;font-variant:normal;font-weight:normal;font-stretch:normal;line-height:125%;letter-spacing:0px;word-spacing:0px;fill:#084c8d;fill-opacity:1;stroke:none;font-family:Garuda;-inkscape-font-specification:Garuda"
         d="m -147.30876,818.66591 c 1.57055,-1e-5 2.85707,0.46782 3.85953,1.40347 0.98579,0.94982 1.47866,2.15483 1.47866,3.61502 0,1.5027 -0.50123,2.74314 -1.50372,3.72133 -1.01918,0.97817 -2.40595,1.46726 -4.16029,1.46727 -4.09345,-1e-5 -6.14017,-2.50216 -6.1402,-7.50646 3e-5,-5.51467 2.13864,-8.272 6.41587,-8.272 1.40349,0 2.54799,0.34023 3.43351,1.02071 0.88553,0.68047 1.42018,1.62321 1.60397,2.82821 l -2.10522,0.14886 c -0.36757,-1.64448 -1.36169,-2.46672 -2.98238,-2.46671 -0.81868,-1e-5 -1.52041,0.19137 -2.1052,0.57414 -0.58478,0.39694 -1.01082,0.88603 -1.27817,1.46727 -0.26731,0.59541 -0.45945,1.13412 -0.57641,1.61613 -0.11691,0.49617 -0.17544,0.94273 -0.17544,1.33967 l 0,0.99945 c 0.96906,-1.30425 2.38089,-1.95637 4.23549,-1.95636 m -0.55138,1.53107 c -1.0693,-2e-5 -1.91306,0.34022 -2.53126,1.02071 -0.6349,0.69463 -0.95234,1.53813 -0.95237,2.53051 3e-5,1.00652 0.31747,1.8571 0.95237,2.55176 0.6182,0.69464 1.45361,1.04196 2.5062,1.04198 1.05261,-2e-5 1.92978,-0.36152 2.63152,-1.0845 0.70173,-0.72302 1.0526,-1.60197 1.0526,-2.63684 0,-1.02071 -0.35922,-1.85004 -1.07766,-2.48798 -0.71845,-0.62377 -1.5789,-0.93566 -2.5814,-0.93564" />
    </g>
    <path
       style="fill:#084c8d;stroke:none;fill-opacity:1"
       d="m 85.58702,933.13908 0,-12.3017 11.49693,0 0,4.25386 1.95447,0 0,-14.6011 6.89816,0 0,12.07177 2.06944,0 0,-20.00464 15.98073,0 0,17.70526 5.40355,0 0,-6.43828 5.05865,0 0,-6.32331 8.50772,0 0,18.05017 3.67902,0 0,-5.05864 9.77238,0 0,8.85263 5.74846,0 0,6.32331 c -22.68304,27.70271 -68.09489,16.64501 -76.56951,-2.52933 z"
       id="path3905"
       inkscape:connector-curvature="0"
       sodipodi:nodetypes="ccccccccccccccccccccccccc" />
    <path
       style="fill:#fef400;fill-opacity:1;fill-rule:nonzero;stroke:none"
       d="m 109.59375,903.54968 0,3.53125 2.28125,0 0,-3.53125 -2.28125,0 z m 3.6875,0 0,3.53125 2.28125,0 0,-3.53125 -2.28125,0 z m 3.6875,0 0,3.53125 2.25,0 0,-3.53125 -2.25,0 z m -7.375,4.78125 0,3.53125 2.28125,0 0,-3.53125 -2.28125,0 z m 3.75,0 0,3.53125 2.28125,0 0,-3.53125 -2.28125,0 z m 21.84375,0.0625 0,3.53125 2.28125,0 0,-3.53125 -2.28125,0 z m 2.8125,0 0,3.53125 2.28125,0 0,-3.53125 -2.28125,0 z m -38.34375,2.6875 0,3.53125 2.28125,0 0,-3.53125 -2.28125,0 z m 3.5,0 0,3.53125 2.28125,0 0,-3.53125 -2.28125,0 z m 32.03125,1.5 0,3.53125 2.28125,0 0,-3.53125 -2.28125,0 z m -25.59375,0.21875 0,3.53125 2.28125,0 0,-3.53125 -2.28125,0 z m -9.9375,3 0,3.53125 2.28125,0 0,-3.53125 -2.28125,0 z m 48.0625,5.46875 0,3.53125 2.28125,0 0,-3.53125 -2.28125,0 z m 2.875,0 0,3.53125 2.28125,0 0,-3.53125 -2.28125,0 z m -63.75,0.5625 0,3.53125 2.28125,0 0,-3.53125 -2.28125,0 z m 3.28125,0 0,3.53125 2.25,0 0,-3.53125 -2.25,0 z m 21.4375,1.90625 0,3.53125 2.28125,0 0,-3.53125 -2.28125,0 z m 3.625,0 0,3.53125 2.25,0 0,-3.53125 -2.25,0 z m 32.53125,1.78125 0,3.53125 2.28125,0 0,-3.53125 -2.28125,0 z m -53.65625,2.125 0,3.53125 2.28125,0 0,-3.53125 -2.28125,0 z m 2.9375,0 0,3.53125 2.28125,0 0,-3.53125 -2.28125,0 z m 14.5625,0.90625 0,3.53125 2.28125,0 0,-3.53125 -2.28125,0 z m 28.90625,3 0,3.53125 2.28125,0 0,-3.53125 -2.28125,0 z m 3,0 0,3.53125 2.25,0 0,-3.53125 -2.25,0 z m -49.40625,0.34375 0,3.53125 2.28125,0 0,-3.53125 -2.28125,0 z m 46.40625,3.90625 0,3.53125 2.28125,0 0,-3.53125 -2.28125,0 z m -20.0625,0.59375 0,3.53125 2.28125,0 0,-3.53125 -2.28125,0 z m 2.875,0 0,3.53125 2.28125,0 0,-3.53125 -2.28125,0 z m -2.875,4.25 0,3.53125 2.28125,0 0,-3.53125 -2.28125,0 z"
       id="rect3907"
       inkscape:connector-curvature="0" />
  </g>
</svg>
