<?xml version="1.0" encoding="UTF-8" standalone="no"?>
<!-- Creator: CorelDRAW -->
<svg id="svg2" xmlns:rdf="http://www.w3.org/1999/02/22-rdf-syntax-ns#" style="image-rendering:optimizeQuality;text-rendering:geometricPrecision;shape-rendering:geometricPrecision;" xmlns="http://www.w3.org/2000/svg" fill-rule="evenodd" xml:space="preserve" height="100mm" width="100mm" version="1.1" clip-rule="evenodd" xmlns:cc="http://creativecommons.org/ns#" xmlns:dc="http://purl.org/dc/elements/1.1/" viewBox="0 0 100 100"><metadata id="metadata76"><rdf:RDF><cc:Work rdf:about=""><dc:format>image/svg+xml</dc:format><dc:type rdf:resource="http://purl.org/dc/dcmitype/StillImage"/><dc:title/></cc:Work></rdf:RDF></metadata>
 <defs id="defs4"><style id="style6" type="text/css">
    .fil7 {fill:black}
    .fil1 {fill:#003399}
    .fil5 {fill:lime}
    .fil3 {fill:#2898F8}
    .fil8 {fill:#996633}
    .fil6 {fill:#99FFFF}
    .fil0 {fill:#A90000}
    .fil4 {fill:yellow}
    .fil2 {fill:white}
    .fil9 {fill:#4C4C4C;fill-rule:nonzero}
    .fil10 {fill:white;fill-rule:nonzero}
  </style></defs>
 <g id="Layer_x0020_1">
  <path id="path10" class="fil0" d="M70.795,45.75c0.8506,0,1.5403,0.6898,1.5403,1.5404v1.5401c0,0.8507-0.6897,1.5404-1.5403,1.5404h-1.5404v-4.6209h1.5404zm0,6.1613c1.7012,0,3.0807-1.3795,3.0807-3.0808v-1.5401c0-1.7012-1.3795-3.0808-3.0807-3.0808h-3.0808v7.7017h3.0808zm-6.1616-7.7017h1.5404v7.7017h-1.5404v-7.7017zm-3.0808,0h1.5404v7.7017h-1.5404l-3.0808-4.8354v4.8354h-1.5403v-7.7017h1.5403l3.0808,4.8354v-4.8354zm-23.106,0.0001h4.6211v1.5404h-3.0807v1.5403h3.0807v1.5404h-3.0807v1.5402h3.0807v1.5404h-4.6211v-7.7017zm-6.1616-0.0002h1.5404v6.1615h3.0808v1.5404h-4.6212v-7.7019zm16.174,6.1615h1.54c1.2759,0,2.3106-1.0347,2.3106-2.3105,0-1.2759-1.054-2.3062-2.3106-2.3106h-1.54v1.5404h1.54c0.4253,0,0.7702,0.3449,0.7702,0.7702,0,0.4252-0.3449,0.7702-0.7702,0.7702h-1.54v1.5403zm1.54-7.7019c2.9771,0,5.3914,2.4143,5.3914,5.3914,0,2.977-2.4143,5.3913-5.3914,5.3913s-5.3914-2.4143-5.3914-5.3913c0-2.9771,2.4143-5.3914,5.3914-5.3914zm0,1.5404c2.1265,0,3.851,1.7245,3.851,3.851,0,2.1264-1.7245,3.8509-3.851,3.8509s-3.851-1.7245-3.851-3.8509c0-2.1265,1.7245-3.851,3.851-3.851z"/>
  <ellipse id="ellipse12" rx="44.349" ry="44.349" class="fil1" cy="50" cx="50"/>
  <ellipse id="ellipse14" rx="43.286" ry="43.286" class="fil2" cy="50" cx="50"/>
  <ellipse id="ellipse16" rx="42.927" ry="42.927" class="fil3" cy="50" cx="50"/>
  <ellipse id="ellipse18" rx="32.573" ry="32.573" class="fil1" cy="50" cx="50"/>
  <path id="path20" class="fil4" d="M50,17.774c0.0297,0,0.0589,0.0011,0.0886,0.0012,17.754,0.048,32.137,14.459,32.137,32.224,0,17.79-14.423,32.218-32.211,32.225l-0.0141,0.0003v-64.451z"/>
  <path id="path22" class="fil5" d="M50,17.774h0.0001v64.451h-0.0001c-17.794,0-32.225-14.431-32.225-32.226,0-17.794,14.431-32.225,32.225-32.225z"/>
  <g id="море">
   <path id="_157307632" d="M77.335,67.068c-0.3588-0.3781-0.6608-0.8112-0.8911-1.2849-0.8282,1.7029-2.5742,2.8771-4.5945,2.8771-2.0243,0-3.7741-1.179-4.6001-2.8873-0.83,1.6974-2.5733,2.8669-4.5895,2.8669-2.0203,0-3.7671-1.1742-4.595-2.8771-0.828,1.7029-2.5744,2.8771-4.5946,2.8771-1.34,0-2.5597-0.5165-3.4706-1.3613-0.9108,0.8448-2.1305,1.3613-3.4706,1.3613-2.0202,0-3.7666-1.1742-4.5945-2.8771-0.828,1.7029-2.5748,2.8771-4.5952,2.8771-2.0161,0-3.7594-1.1695-4.5894-2.8669-0.8261,1.7083-2.5758,2.8873-4.6001,2.8873-2.0202,0-3.7663-1.1742-4.5944-2.8771-0.2304,0.4739-0.5315,0.9071-0.8901,1.2852,5.696,9.1014,15.809,15.157,27.334,15.157,11.526,0,21.639-6.0559,27.335-15.157z" class="fil3"/>
   <path id="_157307560" d="M50,68.445c-0.8619,0.6955-1.6658,1.1319-3.4706,1.1319-1.8047,0-4.1103-1.2577-4.5945-2.8104-0.4843,1.5527-2.3581,2.8104-4.5952,2.8104-2.237,0-4.1101-1.2578-4.5943-2.8104-0.4843,1.5526-2.3582,2.8104-4.5952,2.8104-2.2371,0-4.1102-1.2578-4.5944-2.8104-0.0985,0.3158-0.2539,0.6673-0.4586,0.9731-0.0973-0.1471-0.1943-0.2942-0.2892-0.443,0.4349-0.4405,0.7036-0.9606,0.7476-1.52,0.1273,1.6171,2.1359,2.9029,4.5946,2.9029s4.4677-1.2858,4.595-2.9029c0.1272,1.6171,2.1359,2.9029,4.5946,2.9029,2.459,0,4.4682-1.2864,4.5949-2.9038,0.1268,1.6174,2.1356,2.9038,4.5947,2.9038,1.3846,0,2.6271-0.4082,3.4706-1.0532,0.8436,0.645,2.086,1.0532,3.4706,1.0532,2.4591,0,4.4679-1.2864,4.5947-2.9038,0.1268,1.6174,2.1359,2.9038,4.5948,2.9038,2.4588,0,4.4675-1.2858,4.5947-2.9029,0.1273,1.6171,2.1364,2.9029,4.595,2.9029,2.4587,0,4.4673-1.2858,4.5946-2.9029,0.0439,0.5594,0.3129,1.0799,0.7479,1.5205-0.0949,0.1488-0.192,0.2959-0.2892,0.4429-0.2049-0.3059-0.3604-0.6576-0.4588-0.9735-0.4843,1.5526-2.3574,2.8104-4.5945,2.8104-2.237,0-4.1109-1.2578-4.5951-2.8104-0.4843,1.5526-2.3574,2.8104-4.5945,2.8104-2.2369,0-4.1108-1.2577-4.595-2.8104-0.4843,1.5527-2.3576,2.8104-4.5946,2.8104-1.3726,0-2.6086-0.4364-3.4706-1.1319z" class="fil6"/>
  </g>
  <path id="path27" class="fil1" d="M50,17.427c17.986,0,32.573,14.586,32.573,32.572s-14.586,32.573-32.573,32.573c-17.986,0-32.572-14.586-32.572-32.573,0-17.986,14.586-32.572,32.572-32.572zm0,0.6942c17.603,0,31.878,14.275,31.878,31.878s-14.275,31.878-31.878,31.878-31.878-14.275-31.878-31.878,14.275-31.878,31.878-31.878z"/>
  <g id="компас">
   <path id="_157307344" d="M50,97.714c-3.7952-48.344,0.4343-43.954-47.798-47.714,48.233-3.7603,44.003,0.6291,47.798-47.714,3.7952,48.344-0.4343,43.954,47.798,47.714-48.233,3.7603-44.003-0.6291-47.798,47.714z" class="fil2"/>
   <polygon id="_157306944" points="17.601,50,17.673,52.022,0,50,17.673,47.978" class="fil5"/>
   <polygon id="_157306872" points="17.601,50,17.673,52.022,0.0025,50" class="fil1"/>
   <polygon id="_157306800" points="82.399,50,82.327,52.022,100,50,82.327,47.978" class="fil4"/>
   <polygon id="_157306728" points="82.399,50,82.327,52.022,99.998,50" class="fil1"/>
   <polygon id="_157102872" points="50,17.601,52.022,17.673,50,0,47.978,17.673" class="fil4"/>
   <polygon id="_157482840" points="50,17.601,50,0,47.978,17.673" class="fil5"/>
   <polygon id="_157103112" points="50,82.399,47.978,82.327,50,100,52.022,82.327" class="fil4"/>
   <polygon id="_157103784" points="50,82.399,47.978,82.327,50,100" class="fil5"/>
  </g>
  <g id="осетры">
   <g id="g44">
    <path id="_157306584" d="M58.287,76.73c0.3353-0.4488,0.7903-0.6928,1.4648-0.548,0.7804,0.1677,1.4133,0.5776,2.1658,0.0491-0.0251,0.6301-0.5412,0.7831-1.4392,0.7338,0.267,0.6989,0.0563,1.4483-0.7755,1.6648-0.4485,0.1167-0.8921-0.0818-1.0596-0.3902-0.1283-0.2365-0.0749-0.5934,0.2503-0.614,0.1454-0.0093,0.279,0.0785,0.2955,0.1627-0.0527,0.2105,0.0776,0.3875,0.2594,0.4479,0.413,0.1374,0.7182-0.3599,0.7404-0.7089,0.0413-0.6492-0.692-1.2092-1.556-0.6702-0.6237,0.3889-0.7213,0.8641-0.9391,1.5295-0.384,1.1736-1.0434,2.1475-2.2164,2.5284,0.2305,0.5312,1.0994,0.8348,2.5849-0.4619,1.7372-1.5162,3.5252-3.0768,4.977-3.6499,0.8895-0.351,2.2638-0.4102,3.3509-0.5659,0.6917-0.0991,1.2412-0.2304,1.4283-0.3815,0.6681-0.5395,0.6296-1.7038-0.3346-1.4971-0.4573,0.1003-0.8664,0.534-0.3498,0.9872,0.0984,0.3348-0.4468,0.3263-0.5491-0.0253-0.1297-0.4466,0.2603-1.0924,0.88-1.2296,1.3618-0.3013,1.4632,1.3805,0.5855,2.0115-0.3493,0.2511-0.8052,0.3135-1.1752,0.2318,0.0543,1.2096-0.302,1.9651-0.939,2.4098,1.8268-0.2682,3.5662-1.2394,3.4408-3.388-0.0414-0.7399-0.1349-1.4919,0.373-2.1032,2.0342-1.623,3.637-4.3145,3.9225-6.2397,1.0277-6.9296-3.3037-13.866-10.24-12.742-0.9327,0.1511-1.8141,0.3291-2.5119,0.7258-0.9458,0.5376-1.759,1.3033-2.7274,1.7334-0.6825,0.3032-1.4344,0.4902-2.1554,0.6768-0.1357,0.035-0.5388,0.0878-0.5172,0.3035,0.0169,0.1693,0.3602,0.2659,0.5884,0.2579,0.5687-0.0201,1.1412-0.0413,1.7147-0.0098,2.1232,0.117,4.357,0.6897,5.2426,0.964,4.7546,1.8247,5.9936,6.4903,5.3011,8.5169-0.515,0.8529-2.0397,1.5274-1.9109,3.1262,0.0568,0.7044,0.3817,1.1027,0.8644,1.1366,1.02,0.0715,1.3195-1.7988,0.7072-1.9313,0.0562,0.4443-0.1478,0.601-0.3599,0.5987-0.2974-0.0034-0.4004-0.1295-0.4043-0.3668-0.007-0.4074,0.3491-0.6332,0.7426-0.6313,0.478,0.0023,1.1368,0.8342,0.4502,1.9963-0.4881,0.8265-1.4327,1.2888-2.3836,1.4481-0.7991,0.1338-1.5281,0.371-1.9735,0.9022-0.3902,0.4654-0.1408,1.0878,0.4887,1.0975,0.3897,0.0058,0.9375-0.1402,0.9887-0.5772-0.5875,0.1123-0.9334-0.5807-0.3581-0.8056,0.2207-0.0863,0.4429-0.0242,0.6034,0.1145,0.4369,0.378,0.1952,0.8872-0.1849,1.1942-0.6669,0.5382-1.9573,0.8972-2.6411,0.7642-1.0967-0.2135-1.9533-0.8246-2.7436-1.5273,0.576,1.0677,0.1357,1.6368-0.4884,1.6425-0.3956,0.0037-0.7934-0.2894-0.8318-0.8433-0.0217-0.3148,0.1641-0.7277,0.4307-0.6947,0.5153,0.0637,0.0802,0.5914,0.0528,0.7163-0.0519,0.2352,0.1115,0.4529,0.3105,0.4808,0.1361,0.0189,0.2891-0.0723,0.4009-0.2203,0.329-0.4361,0.0066-0.9803-0.2708-1.3141-0.3373-0.4061-0.9203-0.6675-1.2705,0.029,0.2231-0.5649-0.091-1.1944-0.7682-1.5401,0.263,1.4047,1.0595,3.3329,0.469,4.4949z" class="fil1"/>
    <path id="_157306512" d="M58.748,57.043c0.8136-0.1116,1.8043-1.1259,2.4864-1.5613,1.222-0.7802,2.9339-0.7369,4.2769-0.3904,5.0025,1.2905,8.8942,9.3553,4.6524,16.946-0.4108,0.7351-1.5418,0.7774-1.2743,2.1515-0.3769-0.8002-1.0758-1.0284-1.7599-0.5417-0.6999,0.498-1.1882,1.3953-0.7905,2.137-1.1254,0.3279-2.2014,0.4313-3.228,0.3101,1.5978-0.2201,4.012-1.4141,2.95-2.8713,2.2683-0.2888,4.0574-2.0529,3.7597-3.5485-0.2465-1.2381-1.7466-1.1815-2.4808-0.4141,0.583-1.1639,1.192-1.5144,1.379-1.9907,0.3888-0.9907,0.4813-2.1983-0.3185-4.0762-0.678-1.9959-2.339-2.5482-3.4918-3.9549-0.1979-0.5729,0.103-1.04,0.6402-1.1016,0.3223-0.037,0.5821,0.0584,0.7021,0.2388,0.1753,0.2637-0.0017,0.6851-0.2716,0.812-0.2013,0.0945-0.4621,0.0456-0.7521-0.0854,0.1005,0.3134,0.3801,0.6891,0.8095,0.74,0.2969,0.0352,0.5726-0.0927,0.6203-0.4622,0.1875,0.4842,0.4886,0.8595,0.8605,1.0007,0.5436,0.2065,1.2063-0.0119,1.6209-0.5018-0.5921,0.0869-1.0969-0.2364-1.5422-0.8401-0.4151-0.7092-1.0631-1.3219-1.8691-1.4218-0.8145-0.0899-1.5359,0.1887-2.2792,0.5348-0.4393,0.1273-0.8675,0.1966-1.2848,0.1892-0.1447-0.0026-1.0558-0.0369-1.6168-0.5274,0.2097,0.0646,1.0914,0.2855,1.61,0.2667,0.7902-0.0286,1.4005-0.4354,1.3245-1.3779-0.046-0.5689-0.3665-1.21-0.9748-1.3227-0.8298-0.1537-1.8933,0.6108-1.4053,1.328,0.1429,0.2101,0.415,0.283,0.7107,0.1949,0.1893-0.0564,0.2924-0.2313,0.2322-0.4177-0.2429,0.2009-0.5547,0.0315-0.5631-0.2469-0.0061-0.2044,0.1604-0.3529,0.3872-0.3542,0.4232-0.0025,0.7036,0.5145,0.7639,0.8878,0.0877,0.5437-0.3486,0.991-1.0656,0.9737-0.7297-0.0175-1.0712-0.6887-1.1218-1.1945-0.2689,0.8959-1.1523,0.988-1.6962,0.4916z" class="fil2"/>
   </g>
   <g id="g48">
    <path id="_157306416" d="M41.712,76.73c-0.3352-0.4488-0.7903-0.6928-1.4648-0.548-0.7804,0.1677-1.4133,0.5776-2.1658,0.0491,0.0251,0.6301,0.5413,0.7831,1.4393,0.7338-0.267,0.6989-0.0563,1.4483,0.7754,1.6648,0.4485,0.1167,0.8922-0.0818,1.0597-0.3902,0.1282-0.2365,0.0748-0.5934-0.2504-0.614-0.1453-0.0093-0.279,0.0785-0.2954,0.1627,0.0526,0.2105-0.0777,0.3875-0.2594,0.4479-0.4131,0.1374-0.7183-0.3599-0.7405-0.7089-0.0413-0.6492,0.692-1.2092,1.556-0.6702,0.6237,0.3889,0.7213,0.8641,0.9391,1.5295,0.384,1.1736,1.0435,2.1475,2.2165,2.5284-0.2305,0.5312-1.0995,0.8348-2.585-0.4619-1.7372-1.5162-3.5251-3.0768-4.9769-3.6499-0.8896-0.351-2.2639-0.4102-3.351-0.5659-0.6917-0.0991-1.2411-0.2304-1.4283-0.3815-0.668-0.5395-0.6295-1.7038,0.3347-1.4971,0.4572,0.1003,0.8663,0.534,0.3497,0.9872-0.0983,0.3348,0.4469,0.3263,0.5492-0.0253,0.1297-0.4466-0.2603-1.0924-0.8801-1.2296-1.3618-0.3013-1.4632,1.3805-0.5855,2.0115,0.3493,0.2511,0.8052,0.3135,1.1752,0.2318-0.0542,1.2096,0.302,1.9651,0.939,2.4098-1.8268-0.2682-3.5661-1.2394-3.4408-3.388,0.0414-0.7399,0.135-1.4919-0.3729-2.1032-2.0342-1.623-3.637-4.3145-3.9226-6.2397-1.0277-6.9296,3.3037-13.866,10.24-12.742,0.9327,0.1511,1.8141,0.3291,2.5119,0.7258,0.9459,0.5376,1.7591,1.3033,2.7274,1.7334,0.6825,0.3032,1.4344,0.4902,2.1555,0.6768,0.1356,0.035,0.5388,0.0878,0.5172,0.3035-0.017,0.1693-0.3603,0.2659-0.5884,0.2579-0.5687-0.0201-1.1412-0.0413-1.7147-0.0098-2.1233,0.117-4.3571,0.6897-5.2427,0.964-4.7546,1.8247-5.9935,6.4903-5.3011,8.5169,0.515,0.8529,2.0398,1.5274,1.9109,3.1262-0.0567,0.7044-0.3816,1.1027-0.8644,1.1366-1.0199,0.0715-1.3195-1.7988-0.7071-1.9313-0.0562,0.4443,0.1477,0.601,0.3599,0.5987,0.2973-0.0034,0.4003-0.1295,0.4043-0.3668,0.007-0.4074-0.3492-0.6332-0.7427-0.6313-0.4779,0.0023-1.1368,0.8342-0.4502,1.9963,0.4882,0.8265,1.4327,1.2888,2.3837,1.4481,0.799,0.1338,1.5281,0.371,1.9735,0.9022,0.3901,0.4654,0.1408,1.0878-0.4888,1.0975-0.3896,0.0058-0.9375-0.1402-0.9887-0.5772,0.5875,0.1123,0.9334-0.5807,0.3582-0.8056-0.2208-0.0863-0.443-0.0242-0.6034,0.1145-0.437,0.378-0.1953,0.8872,0.1848,1.1942,0.6669,0.5382,1.9573,0.8972,2.6412,0.7642,1.0967-0.2135,1.9532-0.8246,2.7435-1.5273-0.576,1.0677-0.1357,1.6368,0.4885,1.6425,0.3955,0.0037,0.7934-0.2894,0.8317-0.8433,0.0218-0.3148-0.1641-0.7277-0.4306-0.6947-0.5153,0.0637-0.0803,0.5914-0.0529,0.7163,0.052,0.2352-0.1114,0.4529-0.3104,0.4808-0.1361,0.0189-0.2892-0.0723-0.4009-0.2203-0.329-0.4361-0.0066-0.9803,0.2707-1.3141,0.3373-0.4061,0.9203-0.6675,1.2705,0.029-0.2231-0.5649,0.091-1.1944,0.7683-1.5401-0.2631,1.4047-1.0595,3.3329-0.4691,4.4949z" class="fil1"/>
    <path id="_157306344" d="M41.251,57.043c-0.8136-0.1116-1.8043-1.1259-2.4864-1.5613-1.222-0.7802-2.9338-0.7369-4.2769-0.3904-5.0024,1.2905-8.8942,9.3553-4.6524,16.946,0.4108,0.7351,1.5419,0.7774,1.2743,2.1515,0.377-0.8002,1.0758-1.0284,1.7599-0.5417,0.7,0.498,1.1883,1.3953,0.7906,2.137,1.1253,0.3279,2.2013,0.4313,3.228,0.3101-1.5979-0.2201-4.012-1.4141-2.9501-2.8713-2.2682-0.2888-4.0573-2.0529-3.7596-3.5485,0.2465-1.2381,1.7465-1.1815,2.4808-0.4141-0.5831-1.1639-1.1921-1.5144-1.379-1.9907-0.3889-0.9907-0.4813-2.1983,0.3184-4.0762,0.678-1.9959,2.3391-2.5482,3.4918-3.9549,0.1979-0.5729-0.103-1.04-0.6402-1.1016-0.3223-0.037-0.5821,0.0584-0.702,0.2388-0.1754,0.2637,0.0016,0.6851,0.2715,0.812,0.2013,0.0945,0.4621,0.0456,0.7522-0.0854-0.1006,0.3134-0.3802,0.6891-0.8095,0.74-0.297,0.0352-0.5727-0.0927-0.6204-0.4622-0.1875,0.4842-0.4886,0.8595-0.8605,1.0007-0.5436,0.2065-1.2062-0.0119-1.6208-0.5018,0.592,0.0869,1.0969-0.2364,1.5422-0.8401,0.415-0.7092,1.063-1.3219,1.869-1.4218,0.8145-0.0899,1.5359,0.1887,2.2793,0.5348,0.4392,0.1273,0.8675,0.1966,1.2847,0.1892,0.1448-0.0026,1.0558-0.0369,1.6169-0.5274-0.2098,0.0646-1.0915,0.2855-1.61,0.2667-0.7903-0.0286-1.4006-0.4354-1.3245-1.3779,0.0459-0.5689,0.3664-1.21,0.9748-1.3227,0.8298-0.1537,1.8932,0.6108,1.4053,1.328-0.143,0.2101-0.415,0.283-0.7107,0.1949-0.1894-0.0564-0.2925-0.2313-0.2322-0.4177,0.2429,0.2009,0.5547,0.0315,0.563-0.2469,0.0062-0.2044-0.1603-0.3529-0.3871-0.3542-0.4233-0.0025-0.7037,0.5145-0.7639,0.8878-0.0877,0.5437,0.3485,0.991,1.0655,0.9737,0.7298-0.0175,1.0713-0.6887,1.1219-1.1945,0.2688,0.8959,1.1522,0.988,1.6961,0.4916z" class="fil2"/>
   </g>
  </g>
  <path id="вышка" d="M48.965,63.559l2.7618,5.0145-0.3596-5.0145h-2.4022zm-0.4887-2.6273h3.0478l0.5644,1.0621h0.3756v1.5652h-0.4471l0.5259,6.3723h0.4987v0.9503h-0.4202l0.6135,7.4344h0.6995v1.2297h-0.598l0.5905,7.1549h0.7888v1.118h-0.6965l0.1559,1.8898-0.9284,0.0717-0.1406-1.9615h-6.2119l-0.1405,1.9615-0.9286-0.0717,0.1559-1.8898h-0.6965v-1.118h0.7888l0.5905-7.1549h-0.5979v-1.2297h0.6994l0.6137-7.4344h-0.4203v-0.9503h0.4986l0.526-6.3723h-0.447v-1.5652h0.3756l0.5644-1.0621zm-0.3001,8.9996h3.4702l-3.0706-5.5754-0.3996,5.5754zm3.6556,0.9503h-3.7237l-0.4304,6.0055,4.1541-6.0055zm-4.0593,7.4344h4.6525l-0.4368-6.0944-4.2157,6.0944zm4.7406,1.2297h-4.5338l4.9634,5.9933-0.4296-5.9933zm0.0698,7.1549l-5.1618-6.2329-0.4467,6.2329h5.6085z" class="fil1"/>
  <g id="орнамент">
   <path id="_157261616" d="M22.508,79.173c1.261-0.4196,1.5167-1.5672,0.9268-2.2671-0.4822-0.5722-0.9885-0.4372-1.6394-0.505-0.8511-0.0887-1.8938-0.3562-2.3513-0.8018-2.4464-2.3832,1.1262-5.0625,2.2085-2.9579,0.259,0.5757-0.015,1.3607-0.5029,1.3545-0.3296,0.1945-1.0059-0.1293-1.2828-0.4554-0.1539,0.9102,0.4751,1.5841,1.3088,1.802,0.7076,0.1853,1.6869,0.0398,2.1185-0.6098,0.4068-0.6123,0.6647-1.6578,0.0421-2.2214,0.4344,0.3048,0.8557,0.6776,1.3845,0.8075,0.9189,0.2254,1.7518-0.3866,1.755-0.6033-1.596-0.4844-1.9779-1.0072-3.3181-1.9553-0.9217-0.6519-2.9945-1.2894-4.5428,0.7691,0.2557-1.4373,1.4682-1.4434,1.4631-3.6046-0.0025-0.8004-0.2207-1.7174-1.0304-2.37-0.3446-0.2778-0.4979-1.1702-0.0895-1.1262-0.5384-0.6556-2.2697-0.8359-1.5425,0.384-1.7284-0.3632-3.4849-1.3716-4.2612-2.1281-0.4654-0.4535-0.7513-1.1147-0.6574-1.8416,0.098-0.7597,0.8428-1.1913,1.5512-1.2017,0.7541-0.0111,1.4673,0.4471,1.3154,1.2352-0.1546,0.8841-0.9173,0.7328-1.5858,0.6094,0.0922,0.9565,0.9876,1.4533,1.562,1.4358,0.742-0.0223,1.1575-0.7521,1.299-1.389-0.0194,0.5929,0.0162,1.134,0.2486,1.5211,0.2715,0.4526,0.8728,0.7538,1.7551,0.5642-1.2908-1.748-0.939-3.292-1.9283-4.4168-0.5822-0.6621-1.2369-0.912-1.961-0.9864,0.664-0.3056,1.1534-0.8121,1.342-1.4417,0.2514-0.8397-0.0846-1.6673-0.6541-2.2908-0.6187-0.6775-1.2221-0.6583-1.9103-2.1636-0.6545,0.8673-0.4704,1.535-0.0378,2.2654-1.9787-0.0716-2.1016,2.5201-0.457,2.2739-0.1109-0.8251,0.5167-1.1536,1.1197-0.8406,0.4613,0.2394,0.3131,0.6316,0.1529,1.0325-0.4827,1.2074-1.7819,0.9952-2.7173,2.5901-0.7094,1.2095-0.3328,3.0444,0.7771,3.7821-0.5399-0.4902-1.3298-0.7035-1.69-0.5911,0.2103,0.6383,0.2072,0.9486,0.8351,1.438,0.5278,0.3126,1.0341,0.545,2.2359,0.4273-0.666,0.0159-1.1634,0.3398-1.5325,1.0323-0.4349,0.816-0.1753,1.9288,0.2853,2.696,0.4525,0.7539,1.1422,1.0582,1.9619,1.2208,1.2612,0.2497,1.6838,0.3829,2.3689,1.361,0.216-0.4164,0.4221-0.8095,0.0155-1.5936-0.1697-0.3271-0.8745-0.7241-1.228-0.7025,0.7082,0.0724,1.2765-0.2522,1.3373-0.9879,0.0467-0.5638-0.4114-1.0311-0.9468-1.1949-0.5133-0.1568-1.0374-0.0535-1.5015,0.2103,0.4934,0.1176,0.8407,0.4176,0.8662,0.7751,0.0255,0.3585-0.2728,0.737-0.6178,0.8135-0.4862,0.1076-1.0212-0.1935-1.2747-0.5988-0.5316-0.8503,0.0795-1.808,0.9517-2.0444,0.9335-0.253,1.8613-0.1361,2.698,0.3465,0.7754,0.4474,1.2395,1.0411,1.2599,1.9776,0.0147,0.6711-0.2127,1.392-0.769,2.3034-0.1692,0.2772-0.6791,1.3768-0.5485,2.3973-0.1799-1.2764-1.7693-2.3377-3.3987-2.1034,0.7683,0.5498,1.2724,1.5687,2.0824,2.9395,1.0661,1.803,3.0922,3.1814,4.9803,4.0588,0.9002,0.4183,1.3326,0.3595,1.7687,1.5705z" class="fil4"/>
   <path id="_157261544" d="M24.052,25.329c0.0665-0.4405-0.1964-0.9627-0.6127-1.1207-0.906-0.3422-1.442-0.9891-1.0854-2.1111-0.4139,0.7062-1.1955,0.2759-1.4615-0.0906,1.3824-0.2283,1.3792-2.2163,3.5743-1.8963-0.8273-0.0874-1.018-0.6774-1.5367-0.3969,0.7247-0.8343,1.1472-0.7535,1.726-0.1524-0.3764-0.6554-0.0444-1.3643,0.2579-1.6307,1.009-0.8894,2.7439-0.8354,3.0167-1.9401,0.2555,0.4575-0.0441,1.4821-0.8436,1.7947,0.6059-0.0212,0.6072,0.5237,0.6192,0.7245-0.2334-0.2065-0.4959,0.1657-0.6972-0.065,0.2264,0.8356-0.7286,1.0938-1.0477,0.8127,0.4425-0.317,0.5086-0.8221,0.2-1.0141-0.3614-0.2249-0.7188-0.017-0.8971,0.357-0.2355,0.4938-0.1186,0.913,0.3251,1.2188,0.3454,0.2379,0.7976,0.2782,1.3105,0.0395,0.7511-0.3495,1.0045-0.9463,1.0876-1.8613,0.1565-0.9473,0.5358-2.3583,2.0282-3.0012,0.8002-0.3388,1.3705-0.1119,1.8418,0.2436-0.0613-0.686,0.0001-1.414,0.8767-1.9373,1.4012-0.8233,2.7638-0.2946,3.6195,0.1387,0.7871,0.4739,1.4187,0.6226,2.1447,0.2237,0.496-0.2723,0.7306-0.6611,0.7432-1.0804,0.0154-0.5388-0.2536-0.8807-0.7915-0.983-0.4068-0.077-0.7854,0.088-0.8181,0.5127-0.0274,0.3629,0.4188,0.6079,0.9367,0.4385,0.0376,0.4231-0.7352,1.0405-1.2754,0.3642,0.0669,0.2989-0.3888,0.2903-0.36,0.6009-0.1547-0.1282-0.5939-0.452-0.2182-0.9283-0.7242,0.4604-1.728,0.0961-1.9457-0.3802,1.0521,0.4331,2.0342-0.9981,3.3485-1.2864,0.3933-0.0861,1.1609,0.0652,1.467,0.7569-0.1426-0.8227,0.0421-1.211,1.1442-1.3019-0.5337,0.2524-0.1704,0.7544-0.5893,1.4741,1.04-1.9601,2.6418-0.782,3.6434-1.7614,0.1377,0.4308,0.0226,1.3163-0.7915,1.2322,1.1158,0.3754,1.3203,1.191,1.0608,2.1238-0.1189,0.4287,0.1466,0.9489,0.5415,1.1562-0.3145-0.0145-1.2132-0.2271-1.2529-0.6874-0.8211,0.5417-1.295,0.5494-2.2351,0.3672-0.4641-0.0673-0.91,0.2044-1.2701,0.7517-0.1688-0.3903-0.0411-1.6701,0.8521-1.6069-0.3973-0.4837,0.1866-1.6309,0.8167-1.6148-0.3132,0.2635,0.1199,0.2983-0.1983,0.8115,0.3993-0.7291,1.0789-0.4478,1.2619-0.1006,0.1805,0.3444,0.154,0.6738-0.1488,0.8703-0.1061-0.233-0.2263-0.343-0.4259-0.3319-0.2617,0.014-0.3785,0.2757-0.3729,0.472,0.0079,0.2391,0.288,0.3651,0.5229,0.3914,0.4454,0.0511,0.8542-0.2254,1.0574-0.6085,0.1982-0.3707,0.2071-0.652,0.0601-1.0438-0.4322-1.1505-1.847-1.2071-2.7762-0.2334-0.2671,0.2804-0.4196,0.5585-0.5254,0.9285-0.1705,0.5971-0.4543,1.1048-0.946,1.4573-0.524,0.3743-0.7439,0.3792-1.5344,0.2155,0.7418,0.2511,0.9126,0.6315,1.2901,0.7132-0.87,0.3272-1.1431,0.2045-1.4005-0.23-0.0403,0.876-1.0895,1.325-1.6918,1.4127-0.281,0.041-0.5303-0.0242-0.7998,0.12-0.3026,0.1613-0.5785,0.5627-0.5813,0.813-0.6995-0.4982-0.4934-1.4262,0.2039-1.7135-0.4249,0.0233-0.8089-0.3796-0.8252-0.4055,0.3247-0.428,0.9681-0.5389,1.135-0.1558-0.1451-1.2004,1.0487-1.1428,1.3662-0.4571-0.3567-0.0773-0.5659,0.1935-0.5742,0.4163-0.0089,0.2283,0.193,0.4552,0.4821,0.4508,0.4004-0.0054,0.6475-0.2994,0.6685-0.6799,0.017-0.3078-0.1086-0.6518-0.4117-0.8768-0.2274-0.1691-0.7988-0.4197-1.4448-0.4524-1.2102-0.0616-2.113,0.9104-2.3743,1.9059-0.0445,0.17-0.0789,0.6957,0.0407,1.0115-0.2496-0.2217-0.558-0.4159-0.9175-0.5118-0.9187-0.2448-2.0693-0.0033-2.6701,0.9107-0.3552,0.5407-0.4915,1.1497-0.4896,1.4331,0.0022,0.3776,0.2056,0.6821,0.4637,0.8503,0.3196,0.2084,0.7027,0.1821,0.9438-0.1368,0.1745-0.2307,0.1108-0.5274-0.0787-0.6555-0.1845-0.1246-0.5261-0.1163-0.6756,0.2168-0.3645-0.6614,0.295-1.6586,1.1771-0.8313-0.2103-0.3611,0.2591-0.8141,0.7967-0.8233,0.0111,0.029,0.109,0.5763-0.1609,0.9054,0.6441-0.3926,1.5139-0.0099,1.5026,0.8487-0.2036-0.1456-0.6906-0.1608-0.9994-0.012-0.275,0.1325-0.371,0.3713-0.57,0.5742-0.4263,0.4339-1.4098,1.0148-2.1392,0.5292,0.1982,0.464,0.1353,0.7568-0.6429,1.2649,0.1571-0.3526-0.0485-0.7153,0.1869-1.462-0.3346,0.7343-0.4686,0.9088-1.0804,1.1098-0.5748,0.1884-1.1521,0.1167-1.7347-0.0986-0.3608-0.1335-0.6752-0.1746-1.0596-0.125-1.3341,0.1733-2.1257,1.3478-1.453,2.3766,0.2289,0.3502,0.4613,0.5093,0.8765,0.5693,0.4298,0.062,0.895-0.1045,1.117-0.4931,0.1175-0.2055,0.1815-0.5059-0.0067-0.6528-0.1551-0.1212-0.4351-0.1815-0.6011,0.021-0.1268,0.1545-0.1097,0.3165,0.0158,0.5394-0.3378,0.1281-0.6189-0.0451-0.7895-0.3948-0.1715-0.3516,0.0025-1.0663,0.8265-0.9578-0.6014-0.0461-0.3739-0.4164-0.7715-0.3198,0.3594-0.5176,1.6307-0.3106,1.7854,0.296,0.4772-0.7573,1.585-0.1035,1.7999,0.2634-0.6544-0.0331-1.1368,0.1656-1.3574,0.5796-0.4088,0.8656-0.6952,1.2436-1.6176,1.5853,0.348,0.3039-0.0118,1.1548-0.1864,1.417z" class="fil4"/>
   <path id="_157261472" d="M14.314,47.088c-0.2248-0.3846-0.7573-0.6259-1.1804-0.4876-0.9201,0.3024-1.7435,0.1354-2.1703-0.9617,0.1211,0.8095-0.7573,0.9653-1.1944,0.847,0.9326-1.0456-0.318-2.5909,1.5915-3.72-0.6989,0.4514-1.2177,0.1119-1.4453,0.6559,0.0402-1.1044,0.4198-1.3068,1.2477-1.2023-0.7044-0.2738-0.8911-1.034-0.823-1.4312,0.227-1.3257,1.6112-2.3729,1.13-3.404,0.4861,0.1957,0.8962,1.1813,0.4701,1.9265,0.4583-0.3969,0.8015,0.0264,0.9368,0.1752-0.3113-0.0142-0.2819,0.4403-0.5834,0.3872,0.7008,0.5082,0.1196,1.3088-0.3053,1.2903,0.1454-0.5246-0.1203-0.9593-0.481-0.915-0.4224,0.0519-0.5701,0.4382-0.4741,0.8411,0.1267,0.5323,0.4809,0.7852,1.0182,0.7446,0.4183-0.0317,0.7955-0.2842,1.0449-0.792,0.3651-0.7436,0.1877-1.3672-0.3221-2.1316-0.4729-0.8356-1.0635-2.1719-0.3056-3.6093,0.4102-0.7661,0.9965-0.9476,1.5865-0.9667-0.4784-0.4955-0.8876-1.1007-0.5339-2.0584,0.5737-1.5205,1.9663-1.9645,2.9044-2.1644,0.9101-0.1253,1.495-0.4061,1.8097-1.1724,0.2152-0.5233,0.1537-0.9732-0.0998-1.3075-0.3263-0.4291-0.7504-0.5263-1.2333-0.2682-0.3649,0.1954-0.556,0.5615-0.3148,0.9126,0.2065,0.2998,0.7076,0.2103,1.0044-0.2467,0.2949,0.3057,0.081,1.2715-0.7641,1.0842,0.2398,0.1906-0.1204,0.4701,0.0971,0.6937-0.201-0.0026-0.7461,0.0211-0.7527-0.5855-0.2746,0.813-1.2846,1.1597-1.7531,0.9256,1.0908-0.3234,0.9567-2.054,1.7986-3.1035,0.2522-0.314,0.9446-0.6781,1.6171-0.3319-0.6275-0.5508-0.7276-0.9691,0.0732-1.7318-0.2569,0.5315,0.341,0.6942,0.4668,1.5174-0.4211-2.1786,1.5653-2.2672,1.73-3.6584,0.3777,0.2489,0.844,1.0104,0.1575,1.4561,1.1042-0.4084,1.7755,0.098,2.1591,0.987,0.1766,0.4083,0.7099,0.6465,1.1474,0.56-0.2539,0.1861-1.0869,0.5849-1.4068,0.2515-0.299,0.9372-0.663,1.2407-1.5092,1.6891-0.4034,0.239-0.5799,0.7304-0.5166,1.3824-0.3764-0.1978-1.0805-1.2741-0.3457-1.7857-0.6128-0.127-0.8786-1.3865-0.3781-1.7696-0.0783,0.4018,0.2807,0.157,0.3552,0.7561-0.1469-0.8181,0.5586-1.0259,0.919-0.8704,0.3567,0.1546,0.543,0.4276,0.4306,0.7708-0.2288-0.1148-0.3915-0.125-0.5399,0.009-0.1949,0.1752-0.1214,0.4522,0.0061,0.6015,0.1563,0.1811,0.4534,0.1034,0.6527-0.0236,0.3788-0.2399,0.5234-0.7118,0.4411-1.1376-0.0786-0.4129-0.2482-0.6375-0.6085-0.8501-1.0588-0.6241-2.1956,0.22-2.3075,1.5613-0.0319,0.386,0.024,0.6981,0.174,1.0525,0.2422,0.5719,0.34,1.1452,0.1787,1.7283-0.173,0.6202-0.341,0.7621-1.059,1.131,0.7349-0.2702,1.1067-0.0815,1.4518-0.2548-0.4717,0.8009-0.7613,0.8768-1.2344,0.7003,0.5186,0.707-0.0162,1.7153-0.4299,2.1617-0.193,0.2083-0.428,0.3141-0.5473,0.5955-0.1342,0.3155-0.0969,0.8011,0.0581,0.9978-0.8573,0.0514-1.2795-0.8004-0.9172-1.4617-0.316,0.2849-0.8679,0.2123-0.8968,0.2024-0.016-0.537,0.4152-1.0273,0.7856-0.8339-0.8666-0.8432,0.0988-1.5479,0.7764-1.2134-0.3262,0.1637-0.319,0.5058-0.1856,0.6845,0.1364,0.1833,0.436,0.2331,0.6583,0.0481,0.3083-0.2555,0.3161-0.6395,0.0935-0.9489-0.1801-0.2502-0.4938-0.4391-0.8709-0.424-0.2832,0.0112-0.8853,0.1748-1.4087,0.555-0.9806,0.7119-1.0731,2.0352-0.6514,2.9742,0.0721,0.1602,0.3753,0.591,0.6668,0.7617-0.3336-0.0159-0.6956,0.0266-1.0355,0.1777-0.8688,0.3862-1.6127,1.2965-1.5065,2.3851,0.0629,0.6439,0.3392,1.2035,0.5186,1.4229,0.2388,0.2925,0.5883,0.4018,0.8948,0.3707,0.3796-0.0385,0.6613-0.2995,0.6486-0.699-0.009-0.2891-0.2448-0.4801-0.4727-0.4609-0.2219,0.0189-0.4825,0.2398-0.3898,0.593-0.6989-0.286-0.8116-1.4762,0.3943-1.3861-0.3904-0.149-0.3095-0.7963,0.1032-1.141,0.0269,0.0156,0.4467,0.3801,0.4432,0.8058,0.2549-0.71,1.1722-0.9583,1.7024-0.2828-0.2498,0.0144-0.6384,0.3084-0.7854,0.6181-0.1309,0.2758-0.0556,0.5219-0.0831,0.8048-0.0594,0.6054-0.4603,1.6749-1.3328,1.7549,0.4455,0.2367,0.5804,0.5041,0.2937,1.3882-0.0991-0.3731-0.4868-0.5263-0.7724-1.2553,0.2006,0.7816,0.2058,1.0016-0.1442,1.5421-0.3291,0.5075-0.8234,0.8142-1.4121,1.0124-0.3646,0.1226-0.6352,0.2879-0.9033,0.5679-0.9295,0.9725-0.8083,2.3836,0.3612,2.7621,0.398,0.1288,0.6789,0.1068,1.0397-0.1072,0.3735-0.2216,0.631-0.6432,0.5598-1.0851-0.0375-0.2336-0.1763-0.5077-0.415-0.5039-0.1968,0.003-0.4526,0.1319-0.4547,0.3938-0.0017,0.1998,0.1133,0.3152,0.3509,0.4099-0.1825,0.3118-0.51,0.3535-0.8623,0.1883-0.3543-0.1659-0.6676-0.8315,0.042-1.2644-0.4971,0.3417-0.5525-0.0893-0.8013,0.2355-0.0453-0.6285,1.0742-1.2656,1.5754-0.8905-0.104-0.8891,1.1687-1.0757,1.5663-0.925-0.5301,0.385-0.7808,0.8426-0.6926,1.3033,0.2253,0.9304,0.2397,1.4045-0.2637,2.2495,0.4616,0.0181,0.7158,0.9062,0.7445,1.2199z" class="fil4"/>
   <path id="_157261400" d="M85.686,47.088c0.2247-0.3846,0.7572-0.6259,1.1804-0.4876,0.92,0.3024,1.7434,0.1354,2.1702-0.9617-0.1211,0.8095,0.7573,0.9653,1.1944,0.847-0.9326-1.0456,0.318-2.5909-1.5914-3.72,0.6988,0.4514,1.2177,0.1119,1.4452,0.6559-0.0402-1.1044-0.4198-1.3068-1.2477-1.2023,0.7045-0.2738,0.8911-1.034,0.823-1.4312-0.2269-1.3257-1.6112-2.3729-1.1299-3.404-0.4861,0.1957-0.8963,1.1813-0.4702,1.9265-0.4583-0.3969-0.8014,0.0264-0.9368,0.1752,0.3113-0.0142,0.2819,0.4403,0.5835,0.3872-0.7009,0.5082-0.1196,1.3088,0.3052,1.2903-0.1454-0.5246,0.1203-0.9593,0.481-0.915,0.4225,0.0519,0.5702,0.4382,0.4742,0.8411-0.1268,0.5323-0.4809,0.7852-1.0183,0.7446-0.4183-0.0317-0.7955-0.2842-1.0449-0.792-0.3651-0.7436-0.1877-1.3672,0.3222-2.1316,0.4729-0.8356,1.0634-2.1719,0.3055-3.6093-0.4102-0.7661-0.9965-0.9476-1.5865-0.9667,0.4784-0.4955,0.8876-1.1007,0.5339-2.0584-0.5737-1.5205-1.9663-1.9645-2.9043-2.1644-0.9102-0.1253-1.4951-0.4061-1.8098-1.1724-0.2151-0.5233-0.1536-0.9732,0.0998-1.3075,0.3263-0.4291,0.7504-0.5263,1.2333-0.2682,0.3649,0.1954,0.556,0.5615,0.3148,0.9126-0.2065,0.2998-0.7076,0.2103-1.0044-0.2467-0.2949,0.3057-0.081,1.2715,0.7641,1.0842-0.2398,0.1906,0.1204,0.4701-0.0971,0.6937,0.201-0.0026,0.7461,0.0211,0.7527-0.5855,0.2746,0.813,1.2846,1.1597,1.7531,0.9256-1.0908-0.3234-0.9567-2.054-1.7986-3.1035-0.2521-0.314-0.9446-0.6781-1.6171-0.3319,0.6275-0.5508,0.7276-0.9691-0.0732-1.7318,0.2569,0.5315-0.341,0.6942-0.4668,1.5174,0.4211-2.1786-1.5653-2.2672-1.7299-3.6584-0.3777,0.2489-0.844,1.0104-0.1576,1.4561-1.1042-0.4084-1.7754,0.098-2.1591,0.987-0.1766,0.4083-0.7099,0.6465-1.1474,0.56,0.254,0.1861,1.0869,0.5849,1.4068,0.2515,0.299,0.9372,0.663,1.2407,1.5092,1.6891,0.4034,0.239,0.5799,0.7304,0.5166,1.3824,0.3764-0.1978,1.0805-1.2741,0.3457-1.7857,0.6128-0.127,0.8786-1.3865,0.3781-1.7696,0.0784,0.4018-0.2807,0.157-0.3552,0.7561,0.1469-0.8181-0.5586-1.0259-0.919-0.8704-0.3567,0.1546-0.5429,0.4276-0.4306,0.7708,0.2289-0.1148,0.3915-0.125,0.5399,0.009,0.1949,0.1752,0.1214,0.4522-0.0061,0.6015-0.1562,0.1811-0.4534,0.1034-0.6527-0.0236-0.3788-0.2399-0.5234-0.7118-0.441-1.1376,0.0785-0.4129,0.2482-0.6375,0.6085-0.8501,1.0588-0.6241,2.1955,0.22,2.3074,1.5613,0.0319,0.386-0.024,0.6981-0.174,1.0525-0.2421,0.5719-0.34,1.1452-0.1786,1.7283,0.1729,0.6202,0.3409,0.7621,1.059,1.131-0.735-0.2702-1.1068-0.0815-1.4518-0.2548,0.4717,0.8009,0.7613,0.8768,1.2344,0.7003-0.5186,0.707,0.0161,1.7153,0.4298,2.1617,0.193,0.2083,0.428,0.3141,0.5473,0.5955,0.1342,0.3155,0.097,0.8011-0.0581,0.9978,0.8573,0.0514,1.2795-0.8004,0.9172-1.4617,0.316,0.2849,0.8679,0.2123,0.8968,0.2024,0.016-0.537-0.4152-1.0273-0.7856-0.8339,0.8666-0.8432-0.0988-1.5479-0.7764-1.2134,0.3262,0.1637,0.319,0.5058,0.1856,0.6845-0.1364,0.1833-0.436,0.2331-0.6583,0.0481-0.3082-0.2555-0.316-0.6395-0.0935-0.9489,0.1801-0.2502,0.4939-0.4391,0.871-0.424,0.2832,0.0112,0.8852,0.1748,1.4086,0.555,0.9806,0.7119,1.0731,2.0352,0.6514,2.9742-0.0721,0.1602-0.3753,0.591-0.6667,0.7617,0.3335-0.0159,0.6955,0.0266,1.0355,0.1777,0.8687,0.3862,1.6127,1.2965,1.5064,2.3851-0.0629,0.6439-0.3392,1.2035-0.5186,1.4229-0.2388,0.2925-0.5882,0.4018-0.8947,0.3707-0.3796-0.0385-0.6614-0.2995-0.6487-0.699,0.009-0.2891,0.2448-0.4801,0.4727-0.4609,0.2219,0.0189,0.4825,0.2398,0.3898,0.593,0.6989-0.286,0.8117-1.4762-0.3943-1.3861,0.3904-0.149,0.3095-0.7963-0.1032-1.141-0.0269,0.0156-0.4467,0.3801-0.4432,0.8058-0.2549-0.71-1.1722-0.9583-1.7024-0.2828,0.2498,0.0144,0.6384,0.3084,0.7854,0.6181,0.1309,0.2758,0.0557,0.5219,0.0832,0.8048,0.0594,0.6054,0.4602,1.6749,1.3327,1.7549-0.4455,0.2367-0.5804,0.5041-0.2937,1.3882,0.0991-0.3731,0.4868-0.5263,0.7725-1.2553-0.2007,0.7816-0.2059,1.0016,0.1441,1.5421,0.3291,0.5075,0.8235,0.8142,1.4121,1.0124,0.3646,0.1226,0.6352,0.2879,0.9033,0.5679,0.9295,0.9725,0.8083,2.3836-0.3612,2.7621-0.398,0.1288-0.6789,0.1068-1.0397-0.1072-0.3735-0.2216-0.631-0.6432-0.5598-1.0851,0.0376-0.2336,0.1763-0.5077,0.415-0.5039,0.1969,0.003,0.4526,0.1319,0.4547,0.3938,0.0017,0.1998-0.1133,0.3152-0.3509,0.4099,0.1825,0.3118,0.51,0.3535,0.8623,0.1883,0.3543-0.1659,0.6676-0.8315-0.0419-1.2644,0.497,0.3417,0.5524-0.0893,0.8012,0.2355,0.0453-0.6285-1.0742-1.2656-1.5754-0.8905,0.104-0.8891-1.1687-1.0757-1.5663-0.925,0.5301,0.385,0.7809,0.8426,0.6926,1.3033-0.2253,0.9304-0.2397,1.4045,0.2637,2.2495-0.4616,0.0181-0.7158,0.9062-0.7444,1.2199z" class="fil4"/>
   <path id="_157261328" d="M77.492,79.173c-1.2611-0.4196-1.5168-1.5672-0.9269-2.2671,0.4822-0.5722,0.9885-0.4372,1.6395-0.505,0.851-0.0887,1.8938-0.3562,2.3512-0.8018,2.4464-2.3832-1.1262-5.0625-2.2085-2.9579-0.259,0.5757,0.015,1.3607,0.5029,1.3545,0.3296,0.1945,1.006-0.1293,1.2828-0.4554,0.154,0.9102-0.4751,1.5841-1.3088,1.802-0.7076,0.1853-1.6869,0.0398-2.1184-0.6098-0.4069-0.6123-0.6647-1.6578-0.0422-2.2214-0.4344,0.3048-0.8557,0.6776-1.3845,0.8075-0.9189,0.2254-1.7518-0.3866-1.7549-0.6033,1.5959-0.4844,1.9778-1.0072,3.318-1.9553,0.9217-0.6519,2.9946-1.2894,4.5428,0.7691-0.2556-1.4373-1.4681-1.4434-1.463-3.6046,0.0025-0.8004,0.2206-1.7174,1.0303-2.37,0.3447-0.2778,0.4979-1.1702,0.0895-1.1262,0.5385-0.6556,2.2697-0.8359,1.5425,0.384,1.7284-0.3632,3.4849-1.3716,4.2612-2.1281,0.4655-0.4535,0.7513-1.1147,0.6575-1.8416-0.0981-0.7597-0.8429-1.1913-1.5513-1.2017-0.7541-0.0111-1.4673,0.4471-1.3154,1.2352,0.1546,0.8841,0.9173,0.7328,1.5858,0.6094-0.0922,0.9565-0.9876,1.4533-1.562,1.4358-0.742-0.0223-1.1574-0.7521-1.299-1.389,0.0194,0.5929-0.0162,1.134-0.2485,1.5211-0.2716,0.4526-0.8728,0.7538-1.7552,0.5642,1.2908-1.748,0.939-3.292,1.9283-4.4168,0.5822-0.6621,1.2369-0.912,1.9611-0.9864-0.6641-0.3056-1.1535-0.8121-1.342-1.4417-0.2515-0.8397,0.0845-1.6673,0.654-2.2908,0.6188-0.6775,1.2221-0.6583,1.9103-2.1636,0.6545,0.8673,0.4705,1.535,0.0378,2.2654,1.9787-0.0716,2.1017,2.5201,0.457,2.2739,0.1109-0.8251-0.5167-1.1536-1.1197-0.8406-0.4612,0.2394-0.3131,0.6316-0.1528,1.0325,0.4826,1.2074,1.7818,0.9952,2.7172,2.5901,0.7094,1.2095,0.3328,3.0444-0.7771,3.7821,0.5399-0.4902,1.3298-0.7035,1.69-0.5911-0.2103,0.6383-0.2071,0.9486-0.8351,1.438-0.5277,0.3126-1.0341,0.545-2.2359,0.4273,0.666,0.0159,1.1635,0.3398,1.5325,1.0323,0.4349,0.816,0.1753,1.9288-0.2853,2.696-0.4525,0.7539-1.1422,1.0582-1.9619,1.2208-1.2612,0.2497-1.6838,0.3829-2.3689,1.361-0.2159-0.4164-0.4221-0.8095-0.0155-1.5936,0.1697-0.3271,0.8745-0.7241,1.228-0.7025-0.7082,0.0724-1.2765-0.2522-1.3373-0.9879-0.0467-0.5638,0.4114-1.0311,0.9468-1.1949,0.5133-0.1568,1.0375-0.0535,1.5016,0.2103-0.4935,0.1176-0.8408,0.4176-0.8662,0.7751-0.0256,0.3585,0.2727,0.737,0.6177,0.8135,0.4862,0.1076,1.0212-0.1935,1.2747-0.5988,0.5316-0.8503-0.0795-1.808-0.9517-2.0444-0.9335-0.253-1.8613-0.1361-2.6979,0.3465-0.7755,0.4474-1.2396,1.0411-1.26,1.9776-0.0146,0.6711,0.2127,1.392,0.769,2.3034,0.1692,0.2772,0.6791,1.3768,0.5485,2.3973,0.1799-1.2764,1.7693-2.3377,3.3987-2.1034-0.7683,0.5498-1.2724,1.5687-2.0824,2.9395-1.0661,1.803-3.0922,3.1814-4.9803,4.0588-0.9002,0.4183-1.3326,0.3595-1.7686,1.5705z" class="fil4"/>
   <path id="_157261256" d="M75.948,25.329c-0.0666-0.4405,0.1963-0.9627,0.6126-1.1207,0.906-0.3422,1.442-0.9891,1.0854-2.1111,0.414,0.7062,1.1955,0.2759,1.4615-0.0906-1.3824-0.2283-1.3792-2.2163-3.5743-1.8963,0.8274-0.0874,1.018-0.6774,1.5367-0.3969-0.7247-0.8343-1.1472-0.7535-1.7259-0.1524,0.3764-0.6554,0.0443-1.3643-0.258-1.6307-1.009-0.8894-2.7439-0.8354-3.0167-1.9401-0.2554,0.4575,0.0441,1.4821,0.8436,1.7947-0.6059-0.0212-0.6072,0.5237-0.6192,0.7245,0.2334-0.2065,0.4959,0.1657,0.6972-0.065-0.2264,0.8356,0.7287,1.0938,1.0477,0.8127-0.4425-0.317-0.5086-0.8221-0.2-1.0141,0.3614-0.2249,0.7188-0.017,0.8971,0.357,0.2355,0.4938,0.1186,0.913-0.325,1.2188-0.3455,0.2379-0.7977,0.2782-1.3106,0.0395-0.7511-0.3495-1.0045-0.9463-1.0875-1.8613-0.1566-0.9473-0.5359-2.3583-2.0283-3.0012-0.8002-0.3388-1.3705-0.1119-1.8418,0.2436,0.0613-0.686-0.0001-1.414-0.8767-1.9373-1.4011-0.8233-2.7638-0.2946-3.6195,0.1387-0.7871,0.4739-1.4187,0.6226-2.1447,0.2237-0.496-0.2723-0.7306-0.6611-0.7431-1.0804-0.0155-0.5388,0.2535-0.8807,0.7914-0.983,0.4068-0.077,0.7854,0.088,0.8181,0.5127,0.0274,0.3629-0.4187,0.6079-0.9367,0.4385-0.0376,0.4231,0.7352,1.0405,1.2754,0.3642-0.0669,0.2989,0.3889,0.2903,0.36,0.6009,0.1548-0.1282,0.5939-0.452,0.2182-0.9283,0.7243,0.4604,1.728,0.0961,1.9457-0.3802-1.0521,0.4331-2.0342-0.9981-3.3485-1.2864-0.3933-0.0861-1.1608,0.0652-1.4669,0.7569,0.1425-0.8227-0.0422-1.211-1.1443-1.3019,0.5337,0.2524,0.1704,0.7544,0.5893,1.4741-1.04-1.9601-2.6418-0.782-3.6433-1.7614-0.1378,0.4308-0.0227,1.3163,0.7914,1.2322-1.1158,0.3754-1.3203,1.191-1.0608,2.1238,0.1189,0.4287-0.1466,0.9489-0.5415,1.1562,0.3145-0.0145,1.2132-0.2271,1.2529-0.6874,0.8211,0.5417,1.295,0.5494,2.2352,0.3672,0.464-0.0673,0.9099,0.2044,1.27,0.7517,0.1688-0.3903,0.0411-1.6701-0.8521-1.6069,0.3973-0.4837-0.1866-1.6309-0.8167-1.6148,0.3133,0.2635-0.1199,0.2983,0.1983,0.8115-0.3993-0.7291-1.0789-0.4478-1.2619-0.1006-0.1804,0.3444-0.154,0.6738,0.1489,0.8703,0.106-0.233,0.2262-0.343,0.4258-0.3319,0.2618,0.014,0.3785,0.2757,0.3729,0.472-0.0078,0.2391-0.288,0.3651-0.5229,0.3914-0.4454,0.0511-0.8542-0.2254-1.0574-0.6085-0.1981-0.3707-0.207-0.652-0.0601-1.0438,0.4323-1.1505,1.847-1.2071,2.7762-0.2334,0.2672,0.2804,0.4196,0.5585,0.5254,0.9285,0.1706,0.5971,0.4543,1.1048,0.946,1.4573,0.524,0.3743,0.7439,0.3792,1.5344,0.2155-0.7418,0.2511-0.9126,0.6315-1.29,0.7132,0.8699,0.3272,1.1431,0.2045,1.4004-0.23,0.0403,0.876,1.0896,1.325,1.6918,1.4127,0.281,0.041,0.5304-0.0242,0.7998,0.12,0.3026,0.1613,0.5785,0.5627,0.5813,0.813,0.6995-0.4982,0.4934-1.4262-0.2038-1.7135,0.4248,0.0233,0.8088-0.3796,0.8251-0.4055-0.3247-0.428-0.9681-0.5389-1.135-0.1558,0.1451-1.2004-1.0487-1.1428-1.3662-0.4571,0.3567-0.0773,0.5659,0.1935,0.5743,0.4163,0.0089,0.2283-0.1931,0.4552-0.4822,0.4508-0.4004-0.0054-0.6475-0.2994-0.6685-0.6799-0.0169-0.3078,0.1087-0.6518,0.4117-0.8768,0.2274-0.1691,0.7988-0.4197,1.4448-0.4524,1.2102-0.0616,2.113,0.9104,2.3743,1.9059,0.0445,0.17,0.0789,0.6957-0.0407,1.0115,0.2496-0.2217,0.5581-0.4159,0.9175-0.5118,0.9187-0.2448,2.0693-0.0033,2.6701,0.9107,0.3552,0.5407,0.4915,1.1497,0.4896,1.4331-0.0022,0.3776-0.2056,0.6821-0.4636,0.8503-0.3197,0.2084-0.7028,0.1821-0.9438-0.1368-0.1745-0.2307-0.1109-0.5274,0.0786-0.6555,0.1845-0.1246,0.5261-0.1163,0.6756,0.2168,0.3645-0.6614-0.295-1.6586-1.1771-0.8313,0.2103-0.3611-0.2591-0.8141-0.7967-0.8233-0.0111,0.029-0.109,0.5763,0.1609,0.9054-0.6441-0.3926-1.5139-0.0099-1.5025,0.8487,0.2035-0.1456,0.6905-0.1608,0.9993-0.012,0.2751,0.1325,0.3711,0.3713,0.5701,0.5742,0.4263,0.4339,1.4097,1.0148,2.1391,0.5292-0.1981,0.464-0.1353,0.7568,0.6429,1.2649-0.1571-0.3526,0.0485-0.7153-0.1869-1.462,0.3346,0.7343,0.4687,0.9088,1.0804,1.1098,0.5748,0.1884,1.1521,0.1167,1.7347-0.0986,0.3608-0.1335,0.6752-0.1746,1.0597-0.125,1.334,0.1733,2.1257,1.3478,1.4529,2.3766-0.2289,0.3502-0.4613,0.5093-0.8765,0.5693-0.4298,0.062-0.8949-0.1045-1.117-0.4931-0.1174-0.2055-0.1815-0.5059,0.0067-0.6528,0.1551-0.1212,0.4351-0.1815,0.6011,0.021,0.1268,0.1545,0.1097,0.3165-0.0157,0.5394,0.3377,0.1281,0.6188-0.0451,0.7894-0.3948,0.1716-0.3516-0.0025-1.0663-0.8265-0.9578,0.6014-0.0461,0.3739-0.4164,0.7715-0.3198-0.3593-0.5176-1.6307-0.3106-1.7853,0.296-0.4773-0.7573-1.585-0.1035-1.8,0.2634,0.6544-0.0331,1.1369,0.1656,1.3575,0.5796,0.4088,0.8656,0.6952,1.2436,1.6175,1.5853-0.348,0.3039,0.0118,1.1548,0.1865,1.417z" class="fil4"/>
  </g>
  <g id="шанырак">
   <circle id="_157261112" cy="50" cx="50" r="8.2068" class="fil3"/>
   <path id="_157261040" d="M50,56.294c-3.4705,0-6.2941-2.8235-6.2941-6.294s2.8236-6.2941,6.2941-6.2941c3.4706,0,6.2941,2.8236,6.2941,6.2941s-2.8235,6.294-6.2941,6.294zm0,0.1955c3.5783-0.0001,6.4894-2.9112,6.4895-6.4895-0.0001-3.5783-2.9112-6.4894-6.4895-6.4895-3.5783,0.0001-6.4894,2.9112-6.4895,6.4895,0.0001,3.5783,2.9112,6.4894,6.4895,6.4895zm0,0.094c-3.6302-0.0001-6.5834-2.9533-6.5835-6.5835,0.0001-3.6302,2.9533-6.5834,6.5835-6.5835,3.6302,0.0001,6.5835,2.9533,6.5835,6.5835s-2.9533,6.5834-6.5835,6.5835zm0,1.0315c4.199,0.0001,7.6151-3.416,7.6151-7.615s-3.4161-7.6151-7.6151-7.615c-4.199-0.0001-7.6151,3.416-7.615,7.615-0.0001,4.199,3.416,7.6151,7.615,7.615zm0,0.2218c-4.3213-0.0001-7.8367-3.5156-7.8368-7.8368,0.0001-4.3213,3.5155-7.8367,7.8368-7.8368,4.3211,0.0001,7.8368,3.5155,7.8368,7.8368,0,4.3212-3.5157,7.8367-7.8368,7.8368zm0,0.3699c4.5253,0,8.2068-3.6815,8.2068-8.2067s-3.6815-8.2067-8.2068-8.2067c-4.5252,0-8.2068,3.6815-8.2068,8.2067s3.6816,8.2067,8.2068,8.2067zm-3.9032-12.722c0.2581-0.2235,0.5307-0.4209,0.8146-0.5927l-0.09-0.1769,0.7713-0.3929,0.09,0.1767c0.3118-0.1311,0.6327-0.2346,0.9585-0.3104l-0.0312-0.1971,0.855-0.1354,0.0313,0.1977c0.3351-0.0283,0.6721-0.0283,1.0072-0.0001l0.0313-0.1975,0.855,0.1355-0.0312,0.1969c0.3259,0.0757,0.6467,0.1791,0.9586,0.3103l0.09-0.1766,0.7712,0.393-0.09,0.1767c0.2839,0.1719,0.5566,0.3693,0.8147,0.5928l0.1408-0.1408,0.6121,0.6121-0.1408,0.1408c0.2235,0.2581,0.4211,0.5309,0.5929,0.8147l0.1766-0.09,0.3932,0.7712-0.1766,0.09c0.1312,0.3119,0.2344,0.6327,0.3102,0.9587l0.1969-0.0313,0.1355,0.855-0.1975,0.0313c0.0282,0.3351,0.0281,0.672-0.0001,1.0071l0.1975,0.0314-0.1354,0.855-0.1969-0.0312c-0.0758,0.3259-0.1791,0.6467-0.3104,0.9585l0.1768,0.0901-0.3931,0.7712-0.1768-0.09c-0.1719,0.2841-0.3692,0.5565-0.5927,0.8146l0.1408,0.1409-0.6121,0.6121-0.1408-0.1409c-0.2581,0.2235-0.5309,0.421-0.8148,0.5928l0.0901,0.1769-0.7713,0.393-0.09-0.1767c-0.3118,0.1312-0.6327,0.2345-0.9586,0.3104l0.0311,0.1968-0.8549,0.1353-0.0313-0.1973c-0.3351,0.0282-0.6721,0.0282-1.0072,0l-0.0313,0.1975-0.8549-0.1353,0.0312-0.197c-0.3259-0.0758-0.6467-0.179-0.9586-0.3102l-0.09,0.1765-0.7713-0.393,0.09-0.1767c-0.2839-0.1719-0.5566-0.3695-0.8147-0.593l-0.1408,0.1409-0.6121-0.6121,0.1408-0.1409c-0.2235-0.258-0.4209-0.5308-0.5928-0.8147l-0.1768,0.0902-0.393-0.7713,0.1767-0.09c-0.1312-0.3119-0.2345-0.6327-0.3103-0.9587l-0.197,0.0313-0.1354-0.855,0.1975-0.0313c-0.0282-0.3351-0.0282-0.6721,0.0001-1.0072l-0.1976-0.0313,0.1355-0.855,0.1969,0.0313c0.0758-0.326,0.1791-0.6467,0.3103-0.9587l-0.1766-0.09,0.393-0.7713,0.1768,0.0901c0.1719-0.284,0.3693-0.5566,0.5928-0.8147l-0.1408-0.1408,0.6121-0.6121,0.1408,0.1408zm7.8535,8.4657c-1.055,1.055-2.4579,1.636-3.9503,1.6361-1.4924-0.0001-2.8952-0.5811-3.9503-1.6361-1.0551-1.0551-1.636-2.4579-1.6361-3.9503,0.0001-1.4924,0.581-2.8952,1.6361-3.9503,2.1782-2.1781,5.7224-2.1781,7.9006,0,2.1781,2.1782,2.1781,5.7223,0,7.9006zm-4.6198-0.802s-0.3474,0.0866-0.3606,0.0899c-0.0098,0.0098-1.3422,1.3422-1.3562,1.3561-0.0007,0.0178-0.0058,0.1746-0.0058,0.1746l-0.1243,0.1243c-0.2637-0.1368-0.5154-0.2937-0.7546-0.4696l0.1944-0.1944s0.2328-0.0721,0.2442-0.0757c0.0089-0.0087,1.3491-1.3489,1.3589-1.3588,0.0034-0.0131,0.09-0.3605,0.09-0.3605l0.5814-0.5814,0.7141,0.714-0.5815,0.5815zm-0.8824-0.8824s-0.3473,0.0866-0.3604,0.0898c-0.0099,0.0099-1.3502,1.3502-1.359,1.359-0.0035,0.0114-0.0758,0.2442-0.0758,0.2442l-0.2055,0.2057-0.612-0.6121,0.2057-0.2055s0.2328-0.0721,0.2442-0.0757c0.0088-0.0088,1.349-1.3491,1.359-1.359,0.0032-0.0131,0.0898-0.3604,0.0898-0.3604l0.5815-0.5816,0.7141,0.7141-0.5816,0.5815zm-0.8823-0.8822s-0.3472,0.0865-0.3604,0.0898c-0.0098,0.0098-1.3502,1.3501-1.359,1.3589-0.0036,0.0114-0.0756,0.2442-0.0756,0.2442l-0.1944,0.1944c-0.1759-0.2393-0.3328-0.4911-0.4696-0.7547l0.1243-0.1242s0.1568-0.0051,0.1745-0.0058c0.014-0.014,1.3465-1.3464,1.3564-1.3563,0.0033-0.0131,0.0897-0.3605,0.0897-0.3605l0.5815-0.5815,0.7141,0.7142-0.5815,0.5815zm5.5825-2.0533s0.0866-0.3473,0.09-0.3605c0.0098-0.0098,1.3421-1.3423,1.3561-1.3562,0.0178-0.0007,0.1745-0.0058,0.1745-0.0058l0.1243-0.1243c-0.1367-0.2637-0.2936-0.5154-0.4695-0.7546l-0.1944,0.1944s-0.0721,0.2328-0.0757,0.2441c-0.0088,0.009-1.349,1.3492-1.3589,1.359-0.0131,0.0033-0.3605,0.09-0.3605,0.09l-0.5814,0.5814,0.714,0.714,0.5815-0.5815zm-0.8824-0.8824s0.0867-0.3472,0.0898-0.3603c0.0099-0.0099,1.3502-1.3502,1.359-1.359,0.0114-0.0035,0.2443-0.0758,0.2443-0.0758l0.2056-0.2055-0.612-0.612-0.2055,0.2057s-0.0722,0.2328-0.0758,0.2442c-0.0088,0.0088-1.349,1.349-1.359,1.359-0.0131,0.0031-0.3604,0.0898-0.3604,0.0898l-0.5816,0.5815,0.7142,0.7141,0.5814-0.5817zm-0.8822-0.8822s0.0865-0.3472,0.0898-0.3604c0.0098-0.0099,1.3502-1.3502,1.359-1.359,0.0113-0.0036,0.2441-0.0756,0.2441-0.0756l0.1944-0.1944c-0.2392-0.176-0.491-0.3328-0.7546-0.4696l-0.1243,0.1243s-0.0051,0.1567-0.0058,0.1745c-0.0139,0.014-1.3464,1.3465-1.3563,1.3563-0.0131,0.0034-0.3604,0.0898-0.3604,0.0898l-0.5815,0.5815,0.7141,0.7141,0.5815-0.5815zm-4.532,1.7646s-0.0866-0.3473-0.09-0.3605c-0.0097-0.0098-1.3421-1.3423-1.3561-1.3562-0.0177-0.0007-0.1745-0.0058-0.1745-0.0058l-0.1243-0.1243c0.1368-0.2637,0.2937-0.5154,0.4696-0.7546l0.1944,0.1944s0.072,0.2328,0.0756,0.2441c0.0088,0.009,1.349,1.3492,1.3589,1.359,0.0131,0.0033,0.3605,0.09,0.3605,0.09l0.5814,0.5814-0.714,0.714-0.5815-0.5815zm0.8824-0.8824s-0.0866-0.3472-0.0898-0.3603l-1.359-1.359c-0.0114-0.0035-0.2442-0.0758-0.2442-0.0758l-0.2057-0.2055,0.612-0.612,0.2055,0.2057s0.0722,0.2328,0.0758,0.2442l1.359,1.359c0.0131,0.0031,0.3604,0.0898,0.3604,0.0898l0.5816,0.5815-0.7141,0.7141-0.5815-0.5817zm0.8822-0.8822s-0.0865-0.3472-0.0898-0.3604c-0.0098-0.0099-1.3502-1.3502-1.3589-1.359-0.0114-0.0036-0.2442-0.0756-0.2442-0.0756l-0.1944-0.1944c0.2392-0.176,0.491-0.3328,0.7546-0.4696l0.1243,0.1243s0.0051,0.1567,0.0058,0.1745l1.3563,1.3563c0.0131,0.0034,0.3605,0.0898,0.3605,0.0898l0.5815,0.5815-0.7142,0.7141-0.5815-0.5815zm2.0533,5.5825s0.3473,0.0866,0.3605,0.0899c0.0098,0.0098,1.3423,1.3422,1.3562,1.3561,0.0007,0.0178,0.0058,0.1746,0.0058,0.1746l0.1243,0.1243c0.2637-0.1368,0.5154-0.2937,0.7546-0.4696l-0.1944-0.1944s-0.2328-0.0721-0.2441-0.0757c-0.009-0.0087-1.3492-1.3489-1.359-1.3588-0.0033-0.0131-0.09-0.3605-0.09-0.3605l-0.5814-0.5814-0.714,0.714,0.5815,0.5815zm0.8824-0.8824s0.3472,0.0866,0.3603,0.0898l1.359,1.359c0.0035,0.0114,0.0758,0.2442,0.0758,0.2442l0.2055,0.2057,0.612-0.6121-0.2056-0.2055s-0.2329-0.0721-0.2443-0.0757l-1.359-1.359c-0.0031-0.0131-0.0898-0.3604-0.0898-0.3604l-0.5814-0.5816-0.7142,0.7141,0.5817,0.5815zm0.8822-0.8822s0.3472,0.0865,0.3604,0.0898c0.0099,0.0098,1.3502,1.3501,1.359,1.3589,0.0036,0.0114,0.0757,0.2442,0.0757,0.2442l0.1944,0.1944c0.1759-0.2393,0.3328-0.4911,0.4695-0.7547l-0.1243-0.1242s-0.1567-0.0051-0.1745-0.0058l-1.3563-1.3563c-0.0034-0.0131-0.0898-0.3605-0.0898-0.3605l-0.5815-0.5815-0.7141,0.7142,0.5815,0.5815zm-2.4342-0.6696l0.7141-0.7141-0.7141-0.7141-0.7141,0.7141,0.7141,0.7141zm-0.8823,0.8823l0.7141-0.7141-0.7141-0.7141-0.7141,0.7141,0.7141,0.7141zm1.7646-1.7646l0.7142-0.7141-0.7142-0.7142-0.7141,0.7142,0.7141,0.7141zm0,1.7646l0.7142-0.7141-0.7142-0.7141-0.7141,0.7141,0.7141,0.7141zm-1.7646-1.7646l0.7141-0.7141-0.7141-0.7142-0.7141,0.7142,0.7141,0.7141zm-0.8823,0.8823l0.7141-0.7141-0.7141-0.7141-0.7142,0.7141,0.7142,0.7141zm1.7646-1.7646l0.7141-0.7142-0.7141-0.7141-0.7141,0.7141,0.7141,0.7142zm1.7647,1.7646l0.7141-0.7141-0.7141-0.7141-0.7142,0.7141,0.7142,0.7141zm-1.7647,1.7647l0.7141-0.7142-0.7141-0.7141-0.7141,0.7141,0.7141,0.7142z" class="fil8"/>
   <path id="_157260968" d="M49.358,51.765c0.0331-0.033,0.6093-0.6092,0.6423-0.6422,0.0331,0.033,0.6092,0.6092,0.6423,0.6422-0.0331,0.0331-0.6092,0.6092-0.6423,0.6423-0.033-0.0331-0.6092-0.6092-0.6423-0.6423zm1.7647-1.7646c0.033-0.0331,0.6092-0.6092,0.6423-0.6423,0.033,0.0331,0.6092,0.6092,0.6422,0.6423-0.033,0.033-0.6092,0.6092-0.6422,0.6423l-0.6423-0.6423zm-1.7647-1.7647c0.0331-0.033,0.6093-0.6092,0.6423-0.6422,0.0331,0.033,0.6092,0.6092,0.6423,0.6422-0.0331,0.0331-0.6092,0.6093-0.6423,0.6423l-0.6423-0.6423zm-1.7646,1.7647c0.033-0.0331,0.6092-0.6092,0.6423-0.6423,0.033,0.0331,0.6092,0.6092,0.6422,0.6423-0.033,0.033-0.6092,0.6092-0.6422,0.6423l-0.6423-0.6423zm0.8823-0.8823c0.0331-0.0331,0.6092-0.6092,0.6423-0.6423,0.033,0.0331,0.6092,0.6092,0.6422,0.6423-0.033,0.033-0.6092,0.6092-0.6422,0.6422-0.0331-0.033-0.6092-0.6092-0.6423-0.6422zm1.7647,1.7646c0.033-0.033,0.6092-0.6092,0.6422-0.6423l0.6423,0.6423c-0.033,0.0331-0.6092,0.6092-0.6423,0.6423-0.033-0.0331-0.6092-0.6092-0.6422-0.6423zm0-1.7646c0.033-0.0331,0.6092-0.6092,0.6422-0.6423l0.6423,0.6423c-0.033,0.033-0.6092,0.6092-0.6423,0.6422l-0.6422-0.6422zm-1.7647,1.7646c0.0331-0.033,0.6092-0.6092,0.6423-0.6423,0.033,0.0331,0.6092,0.6093,0.6422,0.6423-0.033,0.0331-0.6092,0.6092-0.6422,0.6423l-0.6423-0.6423zm0.8823-0.8823c0.0331-0.0331,0.6093-0.6092,0.6423-0.6423l0.6423,0.6423c-0.0331,0.033-0.6092,0.6092-0.6423,0.6423-0.033-0.0331-0.6092-0.6093-0.6423-0.6423zm0.6423,6.3447c3.4985,0,6.3448-2.8462,6.3448-6.3447s-2.8463-6.3448-6.3448-6.3448-6.3448,2.8463-6.3448,6.3448,2.8463,6.3447,6.3448,6.3447zm0,0.0941c-3.5503,0-6.4388-2.8885-6.4388-6.4388s2.8885-6.4388,6.4388-6.4388,6.4388,2.8885,6.4388,6.4388-2.8885,6.4388-6.4388,6.4388zm0,0.1954c3.6581,0.0001,6.6342-2.976,6.6342-6.6342s-2.976-6.6342-6.6342-6.6342-6.6343,2.9761-6.6342,6.6342c-0.0001,3.6581,2.9761,6.6343,6.6342,6.6342zm0,0.9301c-4.171,0-7.5643-3.3933-7.5643-7.5643s3.3933-7.5643,7.5643-7.5643,7.5644,3.3933,7.5644,7.5643-3.3934,7.5643-7.5644,7.5643zm-3.9052-12.01c0.2786-0.2452,0.5743-0.4596,0.8836-0.6436l-0.0886-0.174,0.6805-0.3467,0.0887,0.1738c0.3375-0.1452,0.6857-0.2573,1.0399-0.3367l-0.0307-0.1941,0.7544-0.1195,0.0308,0.1945c0.3634-0.0336,0.7294-0.0336,1.093,0l0.0308-0.1943,0.7544,0.1195-0.0307,0.1938c0.3542,0.0795,0.7025,0.1917,1.0401,0.3368l0.0886-0.1738,0.6805,0.3467-0.0886,0.1739c0.3092,0.1838,0.6051,0.3986,0.8836,0.6437l0.139-0.139,0.5401,0.5401-0.139,0.139c0.2451,0.2785,0.4599,0.5744,0.6438,0.8835l0.1738-0.0885,0.3468,0.6806-0.1739,0.0885c0.1452,0.3376,0.2574,0.686,0.3369,1.0402l0.1937-0.0308,0.1196,0.7545-0.1945,0.0308c0.0335,0.3635,0.0335,0.7294,0,1.0928l0.1945,0.0308-0.1195,0.7544-0.1938-0.0306c-0.0795,0.3542-0.1917,0.7024-0.3369,1.04l0.1739,0.0887-0.3467,0.6805-0.1741-0.0887c-0.1839,0.3092-0.3984,0.6051-0.6435,0.8837l0.139,0.139-0.5401,0.5401-0.139-0.139c-0.2785,0.2451-0.5744,0.4597-0.8837,0.6437l0.0887,0.174-0.6806,0.3468-0.0886-0.174c-0.3376,0.1452-0.6859,0.2574-1.0402,0.3369l0.0308,0.1936-0.7545,0.1195-0.0307-0.1942c-0.3634,0.0335-0.7295,0.0335-1.0929,0l-0.0308,0.1945-0.7545-0.1196,0.0308-0.1939c-0.3543-0.0795-0.7024-0.1916-1.04-0.3368l-0.0887,0.174-0.6806-0.3468,0.0886-0.1739c-0.3092-0.1839-0.6051-0.3987-0.8836-0.6438l-0.139,0.139-0.5401-0.5401,0.139-0.139c-0.2451-0.2785-0.4597-0.5743-0.6436-0.8836l-0.1741,0.0886-0.3467-0.6805,0.1739-0.0887c-0.1453-0.3375-0.2574-0.6859-0.3369-1.0401l-0.1938,0.0308-0.1195-0.7544,0.1944-0.0309c-0.0336-0.3634-0.0334-0.7295,0-1.093l-0.1944-0.0307,0.1196-0.7544,0.1937,0.0307c0.0795-0.3543,0.1916-0.7024,0.3369-1.04l-0.1739-0.0886,0.3467-0.6806,0.1741,0.0886c0.1839-0.3093,0.3985-0.605,0.6437-0.8836l-0.1391-0.139,0.5401-0.5401,0.1391,0.139zm-0.081,8.4315c1.0646,1.0647,2.4803,1.6509,3.9862,1.651,1.506-0.0001,2.9216-0.5863,3.9863-1.651,2.1978-2.1979,2.1978-5.7743,0-7.9723-2.1981-2.1979-5.7745-2.1979-7.9725,0-1.0646,1.0645-1.6508,2.4802-1.6509,3.9862,0.0001,1.5059,0.5863,2.9215,1.6509,3.9861zm2.0616-3.1839c-0.033-0.0331-0.6092-0.6092-0.6423-0.6424-0.0333,0.0333-0.5261,0.5261-0.5356,0.5356-0.0033,0.0132-0.0897,0.3606-0.0897,0.3606l-1.3804,1.3804s-0.1568,0.0052-0.1746,0.0059c-0.0106,0.0105-0.0648,0.0647-0.0835,0.0834,0.1208,0.231,0.2599,0.4551,0.4133,0.6672,0.0317-0.0317,0.136-0.136,0.1433-0.1433,0.0036-0.0114,0.0758-0.2442,0.0758-0.2442l1.3777-1.3778s0.3473-0.0865,0.3605-0.0899c0.0095-0.0095,0.5023-0.5023,0.5355-0.5355zm0.8825,0.8821c-0.033-0.033-0.6092-0.6092-0.6423-0.6422-0.0333,0.0333-0.5262,0.5262-0.5357,0.5357-0.0032,0.0132-0.0898,0.3604-0.0898,0.3604l-1.3778,1.3778s-0.2329,0.0723-0.2442,0.0758c-0.0076,0.0077-0.1325,0.1324-0.1608,0.1607,0.0325,0.0326,0.5076,0.5077,0.5401,0.5402,0.0284-0.0284,0.1531-0.1532,0.1608-0.1609,0.0035-0.0114,0.0758-0.2441,0.0758-0.2441l1.3778-1.3778s0.3472-0.0866,0.3604-0.0898c0.0095-0.0096,0.5024-0.5024,0.5357-0.5358zm0.8823,0.8826c-0.0332-0.0331-0.6092-0.6093-0.6423-0.6424-0.0333,0.0333-0.5261,0.5261-0.5356,0.5356-0.0033,0.0132-0.0899,0.3606-0.0899,0.3606l-1.3778,1.3776s-0.2328,0.0722-0.2442,0.0758c-0.0074,0.0073-0.1116,0.1116-0.1433,0.1433,0.2115,0.1531,0.4356,0.2921,0.6672,0.4133,0.0187-0.0188,0.0729-0.0729,0.0834-0.0835,0.0007-0.0178,0.0059-0.1746,0.0059-0.1746l1.3805-1.3804s0.3474-0.0864,0.3605-0.0898c0.0095-0.0095,0.5023-0.5022,0.5356-0.5355zm0.3197,0c0.0331-0.0331,0.6091-0.6093,0.6422-0.6424,0.0334,0.0333,0.5261,0.5261,0.5357,0.5356,0.0032,0.0132,0.0898,0.3606,0.0898,0.3606l1.3778,1.3776s0.2329,0.0722,0.2442,0.0758c0.0074,0.0073,0.1116,0.1116,0.1433,0.1433-0.2115,0.1531-0.4356,0.2921-0.6672,0.4133-0.0187-0.0188-0.0728-0.0729-0.0834-0.0835-0.0007-0.0178-0.0059-0.1746-0.0059-0.1746l-1.3805-1.3804s-0.3474-0.0864-0.3605-0.0898l-0.5355-0.5355zm0.8822-0.8826c0.0331-0.033,0.6092-0.6092,0.6423-0.6422l0.5357,0.5357c0.0032,0.0132,0.0898,0.3604,0.0898,0.3604l1.3778,1.3778s0.2329,0.0723,0.2442,0.0758c0.0076,0.0077,0.1325,0.1324,0.1608,0.1607-0.0325,0.0326-0.5076,0.5077-0.5401,0.5402-0.0284-0.0284-0.1531-0.1532-0.1607-0.1609-0.0036-0.0114-0.0759-0.2441-0.0759-0.2441l-1.3777-1.3778s-0.3473-0.0866-0.3605-0.0898c-0.0095-0.0096-0.5024-0.5024-0.5357-0.5358zm0.8825-0.8821c0.033-0.0331,0.6092-0.6092,0.6423-0.6424l0.5356,0.5356c0.0033,0.0132,0.0897,0.3606,0.0897,0.3606l1.3804,1.3804s0.1569,0.0052,0.1746,0.0059c0.0106,0.0105,0.0648,0.0647,0.0835,0.0834-0.1208,0.231-0.2599,0.4551-0.4133,0.6672l-0.1433-0.1433c-0.0036-0.0114-0.0757-0.2442-0.0757-0.2442l-1.3778-1.3778s-0.3473-0.0865-0.3605-0.0899l-0.5355-0.5355zm0.6423-0.9621c-0.0331-0.0331-0.6093-0.6091-0.6424-0.6422,0.0333-0.0334,0.5261-0.5261,0.5356-0.5357,0.0132-0.0032,0.3606-0.0898,0.3606-0.0898l1.3777-1.3778s0.0721-0.2328,0.0757-0.2442c0.0074-0.0074,0.1116-0.1116,0.1433-0.1433,0.1531,0.2115,0.2922,0.4356,0.4133,0.6672-0.0187,0.0187-0.0729,0.0728-0.0835,0.0834-0.0177,0.0007-0.1746,0.0059-0.1746,0.0059l-1.3803,1.3805s-0.0865,0.3474-0.0898,0.3605c-0.0095,0.0095-0.5023,0.5023-0.5356,0.5355zm-0.8825-0.8822l-0.6423-0.6423c0.0333-0.0333,0.5262-0.5262,0.5357-0.5357,0.0132-0.0032,0.3605-0.0898,0.3605-0.0898l1.3777-1.3778s0.0723-0.2329,0.0759-0.2442c0.0076-0.0076,0.1323-0.1325,0.1607-0.1608l0.5401,0.5401c-0.0283,0.0284-0.1532,0.1531-0.1608,0.1608-0.0115,0.0035-0.2442,0.0758-0.2442,0.0758l-1.3778,1.3777s-0.0866,0.3473-0.0898,0.3605c-0.0095,0.0095-0.5024,0.5024-0.5357,0.5357zm-0.8822-0.8825c-0.0331-0.033-0.6092-0.6092-0.6423-0.6423,0.0332-0.0333,0.526-0.5261,0.5355-0.5356,0.0133-0.0033,0.3606-0.0897,0.3606-0.0897l1.3804-1.3804s0.0052-0.1568,0.0059-0.1746c0.0106-0.0106,0.0647-0.0648,0.0834-0.0835,0.231,0.1208,0.4552,0.2599,0.6672,0.4133-0.0317,0.0317-0.1359,0.136-0.1433,0.1433-0.0113,0.0036-0.2442,0.0757-0.2442,0.0757l-1.3778,1.3778s-0.0865,0.3473-0.0898,0.3605c-0.0096,0.0095-0.5023,0.5023-0.5356,0.5355zm-1.6044,0c0.0331-0.033,0.6092-0.6092,0.6424-0.6423l-0.5356-0.5356c-0.0132-0.0033-0.3606-0.0897-0.3606-0.0897l-1.3804-1.3804s-0.0052-0.1568-0.0059-0.1746c-0.0105-0.0106-0.0647-0.0648-0.0834-0.0835-0.231,0.1208-0.4551,0.2599-0.6672,0.4133l0.1433,0.1433c0.0114,0.0036,0.2442,0.0757,0.2442,0.0757l1.3778,1.3778s0.0865,0.3473,0.0899,0.3605l0.5355,0.5355zm-0.8822,0.8825c0.0331-0.0331,0.6093-0.6092,0.6423-0.6423l-0.5357-0.5357c-0.0132-0.0032-0.3604-0.0898-0.3604-0.0898l-1.3778-1.3778s-0.0723-0.2329-0.0758-0.2442c-0.0077-0.0076-0.1324-0.1325-0.1608-0.1608-0.0325,0.0325-0.5076,0.5076-0.5401,0.5401,0.0283,0.0284,0.1532,0.1531,0.1608,0.1608,0.0115,0.0035,0.2442,0.0758,0.2442,0.0758l1.3778,1.3777s0.0866,0.3473,0.0898,0.3605l0.5357,0.5357zm-0.8825,0.8822c0.0331-0.0331,0.6093-0.6091,0.6424-0.6422-0.0333-0.0334-0.5261-0.5261-0.5356-0.5357-0.0132-0.0032-0.3606-0.0898-0.3606-0.0898l-1.3776-1.3778s-0.0722-0.2328-0.0758-0.2442c-0.0073-0.0074-0.1116-0.1116-0.1433-0.1433-0.1531,0.2115-0.2922,0.4356-0.4133,0.6672,0.0187,0.0187,0.0729,0.0728,0.0835,0.0834,0.0178,0.0007,0.1746,0.0059,0.1746,0.0059l1.3804,1.3805s0.0864,0.3474,0.0897,0.3605c0.0095,0.0095,0.5023,0.5023,0.5356,0.5355zm2.5669,8.0474c4.3492,0,7.8876-3.5383,7.8875-7.8875,0.0001-4.3492-3.5383-7.8876-7.8875-7.8875-4.3492-0.0001-7.8876,3.5383-7.8875,7.8875-0.0001,4.3492,3.5383,7.8875,7.8875,7.8875zm0,0.2684c-4.4972,0.0001-8.156-3.6587-8.1559-8.1559-0.0001-4.4974,3.6587-8.1561,8.1559-8.1561,4.4973,0,8.1561,3.6588,8.1561,8.1561,0.0001,4.4972-3.6587,8.156-8.1561,8.1559z" class="fil4"/>
  </g>
  <g id="надпись">
   <path id="_157260872" d="M28.947,95.266c-0.0929,1.1002-0.106,2.5053,0.6948,3.3765,0.2696,0.2937,0.6036,0.4486,0.9659,0.4486h20.49c2.2569,0,2.4023-2.1515,2.4798-3.8251h-24.631zm-8.4786-13.308c0.4658,2.0299,0.6947,4.6248-1.1964,6.0798-1.8642,1.435-4.1732,0.5009-5.9656-0.4855-0.3073,1.947-0.6722,4.4237,0.7205,6.0735,0.699,0.8275,1.7522,1.2555,3.1303,1.272,2.3342,0.0274,3.5873-1.8853,4.3437-3.5849,0.3695,0.3694,1.1064,1.1065,1.1064,1.1065s1.0267-1.0272,1.0305-1.0307c0.8244,2.5511,1.8426,3.5017,4.9402,3.5133,1.8224,0.0048,3.1336-0.7064,3.9773-2.6258l-0.024,2.6441c1.4567-0.3928,2.6955-0.4863,4.13,0.0452l0.0813-1.8224c0.4587-0.0522,0.9484,1.2302,1.7676,1.6614,1.1237-0.1112,2.0207-0.7009,3.1863-0.7628,0.452,0.4676,1.0701,0.7891,1.6081,0.794,0.3992,0.0032,0.9127-0.1667,1.4257-0.8232l-0.0001,0.8207,4.6808,0.0032c0.5456,0,1.0173-0.2641,1.2904-0.7292,0.3202,0.4546,0.8255,0.7236,1.4679,0.7713,0.6209,0.0463,1.3363-0.135,1.8721-0.4289-0.2135,2.0092-0.6362,3.7077-0.9378,4.339l-0.2961,0.6195h3.8206l0.1284-0.1396c0.9631-1.0456,1.6558-2.2092,1.9284-3.6136-0.1613-0.2611-0.2733-0.5256-0.3697-0.8185h2.6334c0.6407,0,1.2459-0.3587,1.6196-0.8782,0.3712,0.5132,0.918,0.8782,1.435,0.8782h3.3263c0.1126,0,0.2197-0.0159,0.3216-0.0453-0.4747,0.8175-0.9677,2.1796-0.4753,3.1868,0.2484,0.508,0.8514,1.1137,2.3139,1.1137h9.0242c1.5158,0,2.0922-1.9585,2.1223-2.8519l0.5473-15.951c-1.3113,0.6065-2.5782,1.0122-4.0564,0.916l-0.0666,9.6078c-0.0017,0.2798-0.3854,0.5754-0.659,0.4892-0.2721-0.0856-0.1949-0.642-0.1949-1.0039,0-1.2615,0.0936-2.5236,0.1702-3.7823-1.1049,0.8276-2.1268,1.5842-3.579,1.6648-0.0305,1.0354-0.0696,2.0711-0.0701,3.107-0.5667,0.1506-1.2716,0.0488-1.3853-0.1352l-0.0116-0.019-0.0137-0.0175c-0.5773-0.7497-0.8026-1.8782-1.091-2.7822-0.5949,0.4121-1.2538,0.9539-1.9674,1.105-0.2838-0.3578-0.5444-0.6277-0.8086-0.7928-1.1317-0.7062-3.0572,0.0027-3.8855,0.8004-0.4432,0.4272-0.8091,0.9896-1.0631,1.6096-0.3672-0.8812-0.8555-1.4953-1.1438-1.8575-0.4686-0.4957-1.0871-0.7129-1.7663-0.641-0.5076,0.0541-0.9917,0.2796-1.4163,0.6122v-1.4112c-1.443,0.5224-2.8462,0.6669-4.3594,0.8632l0.0107,0.0461c-1.4086,0.0375-2.805,0.046-4.214-0.0577,0.231,0.5607,0.4505,1.0921,0.5542,1.6959-0.4043-0.2368-1.0796-0.3324-1.5367-0.3607,0-0.2606-0.0002-2.1178-0.0002-2.1178-1.2976,0.5511-2.5144,0.6211-3.8994,0.6567l0.0001,3.2156c-0.4679-0.3724-0.692-0.8803-0.9744-1.3598-0.4483-0.7614-0.9921-1.7168-2.0368-1.7624-0.3232-0.0144-1.2711,0.0529-1.9994,1.0426-0.2505-0.5256-0.6373-1.0304-1.3553-1.0812-0.6067-0.0432-1.2386,0.2357-1.7376,0.6156,0.037-0.4985,0.0434-0.9718,0.0937-1.4692-1.1074,0.5799-2.1137,0.7595-3.3765,0.8527,0.0318-0.7334,0.0079-1.3822,0.0019-2.116-1.0101,1.5342-1.6629,2.3334-3.7508,2.2996-1.1649-0.0193-1.7836-0.401-2.0055-1.2377-0.6394-2.4082-0.3623-6.3554-0.229-8.2526l0.0735-1.0525c-2.287,1.3784-4.6064,2.6564-6.9658,3.7793zm33.389,6.8439c0.2473,1.0625,0.321,2.1671,0.3182,3.2556-0.0367,0.1279-0.2817,0.31-0.3094,0.1282-0.0446-1.1277-0.0271-2.2557-0.0088-3.3838zm4.7531,3.4491c0.1096,0.0057,0.2956,0.1863,0.2827,0.3006-0.1014,0.2424-0.7068,0.314-0.8521,0.2838,0.0513-0.3107,0.1994-0.6013,0.5694-0.5844zm9.9774,1.7668c0.027-0.0407,0.0534-0.0823,0.0785-0.124,0.4051,0.5403,1.0239,0.9426,1.5922,0.9426h1.9158l0.6591-1.4846c0.1,0.4189,0.2919,0.7537,0.5733,1.0002,0.3866,0.3385,0.9124,0.4809,1.5625,0.423,0.4231-0.0379,1.3099-0.3111,1.9992-0.6718-0.0045,0.3396-0.0442,0.6834-0.2129,0.8581-0.0379,0.0389-0.153,0.1579-0.5002,0.1579h-6.8885c-0.508,0-0.5153-0.0295-0.6374-0.527l-0.1416-0.5744zm-1.5834-3.1893c0.0053,0.1573-0.0887,0.1258-0.2315,0.1345-0.1246,0.0075-0.2583,0.0004-0.3581,0.0049-0.1468,0.0066-0.3003-0.0111-0.3504-0.0647-0.0851-0.0909-0.0964-0.3098,0.0591-0.3199,0.2871-0.0193,0.6404,0.1297,0.8809,0.2452zm-44.245-3.0285l0.1864,0.9187-0.3425-0.3428,0.1561-0.5759z" class="fil9"/>
   <path id="_157183760" d="M28.626,94.828c-0.093,1.1003-0.106,2.5053,0.6947,3.3765,0.2697,0.2937,0.6037,0.4487,0.966,0.4487h20.49c2.2569,0,2.4023-2.1515,2.4798-3.8252h-24.631zm-8.4786-13.308c0.4657,2.0299,0.6946,4.6248-1.1965,6.0798-1.8642,1.4351-4.1732,0.5009-5.9656-0.4855-0.3073,1.947-0.6721,4.4238,0.7205,6.0735,0.699,0.8276,1.7522,1.2555,3.1303,1.272,2.3342,0.0274,3.5873-1.8852,4.3437-3.5848,0.3695,0.3693,1.1065,1.1065,1.1065,1.1065s1.0266-1.0273,1.0305-1.0307c0.8244,2.551,1.8425,3.5017,4.9401,3.5132,1.8224,0.0049,3.1337-0.7064,3.9773-2.6257l-0.024,2.644c1.4567-0.3927,2.6956-0.4863,4.13,0.0452l0.0814-1.8224c0.4586-0.0522,0.9483,1.2302,1.7675,1.6615,1.1238-0.1112,2.0208-0.7009,3.1863-0.7628,0.452,0.4676,1.0701,0.789,1.6082,0.7939,0.3991,0.0033,0.9126-0.1667,1.4257-0.8232l-0.0001,0.8208,4.6808,0.0031c0.5456,0,1.0172-0.264,1.2903-0.7292,0.3203,0.4547,0.8256,0.7236,1.468,0.7714,0.6208,0.0462,1.3363-0.135,1.8721-0.4289-0.2135,2.0091-0.6362,3.7076-0.9378,4.3389l-0.2962,0.6196h3.8206l0.1284-0.1396c0.9631-1.0456,1.6558-2.2093,1.9284-3.6137-0.1613-0.2611-0.2733-0.5255-0.3697-0.8185h2.6335c0.6407,0,1.2458-0.3586,1.6195-0.8781,0.3712,0.5132,0.918,0.8781,1.435,0.8781h3.3263c0.1126,0,0.2197-0.0159,0.3217-0.0453-0.4748,0.8176-0.9678,2.1796-0.4754,3.1868,0.2484,0.508,0.8514,1.1138,2.314,1.1138h9.0242c1.5158,0,2.0921-1.9586,2.1222-2.852l0.5474-15.951c-1.3114,0.6064-2.5783,1.0121-4.0564,0.9159l-0.0666,9.6078c-0.0018,0.2798-0.3855,0.5754-0.6591,0.4893-0.272-0.0856-0.1949-0.642-0.1949-1.0039,0-1.2616,0.0936-2.5236,0.1702-3.7824-1.1048,0.8277-2.1268,1.5842-3.579,1.6649-0.0305,1.0354-0.0696,2.071-0.0701,3.1069-0.5667,0.1506-1.2715,0.0488-1.3853-0.1352l-0.0116-0.0189-0.0136-0.0175c-0.5774-0.7498-0.8026-1.8782-1.0911-2.7823-0.5949,0.4121-1.2537,0.9539-1.9673,1.1051-0.2838-0.3579-0.5445-0.6277-0.8086-0.7929-1.1318-0.7061-3.0573,0.0028-3.8856,0.8005-0.4431,0.4272-0.8091,0.9896-1.0631,1.6096-0.3672-0.8812-0.8554-1.4954-1.1438-1.8576-0.4686-0.4956-1.0871-0.7128-1.7663-0.641-0.5076,0.0541-0.9917,0.2797-1.4162,0.6122v-1.4112c-1.443,0.5225-2.8463,0.667-4.3595,0.8633l0.0107,0.046c-1.4086,0.0376-2.8049,0.046-4.214-0.0576,0.231,0.5607,0.4506,1.0921,0.5542,1.6958-0.4042-0.2367-1.0795-0.3323-1.5366-0.3607,0-0.2605-0.0003-2.1178-0.0003-2.1178-1.2975,0.5511-2.5144,0.6212-3.8993,0.6567l0.0001,3.2156c-0.4679-0.3723-0.6921-0.8803-0.9744-1.3598-0.4484-0.7613-0.9921-1.7168-2.0369-1.7624-0.3232-0.0144-1.2711,0.053-1.9994,1.0426-0.2505-0.5255-0.6372-1.0304-1.3553-1.0812-0.6067-0.0432-1.2385,0.2357-1.7376,0.6157,0.0371-0.4986,0.0435-0.9719,0.0937-1.4692-1.1074,0.5798-2.1137,0.7594-3.3764,0.8527,0.0318-0.7335,0.0078-1.3822,0.0018-2.1161-1.01,1.5343-1.6628,2.3335-3.7508,2.2997-1.1648-0.0194-1.7835-0.401-2.0055-1.2377-0.6394-2.4082-0.3623-6.3555-0.2289-8.2526l0.0734-1.0525c-2.2869,1.3783-4.6064,2.6564-6.9657,3.7792zm33.389,6.8439c0.2473,1.0625,0.3211,2.1671,0.3182,3.2557-0.0367,0.1279-0.2817,0.3099-0.3094,0.1282-0.0446-1.1278-0.027-2.2557-0.0088-3.3839zm4.7531,3.4491c0.1097,0.0057,0.2956,0.1864,0.2828,0.3006-0.1014,0.2425-0.7069,0.3141-0.8521,0.2838,0.0512-0.3107,0.1994-0.6013,0.5693-0.5844zm9.9774,1.7668c0.0271-0.0407,0.0535-0.0822,0.0785-0.124,0.4052,0.5403,1.024,0.9426,1.5923,0.9426h1.9158l0.659-1.4845c0.1,0.4188,0.2919,0.7536,0.5733,1.0001,0.3866,0.3385,0.9125,0.481,1.5625,0.423,0.4231-0.0379,1.3099-0.3111,1.9992-0.6717-0.0045,0.3396-0.0442,0.6833-0.2129,0.8581-0.0379,0.0389-0.1529,0.1578-0.5002,0.1578h-6.8884c-0.508,0-0.5154-0.0294-0.6375-0.527l-0.1416-0.5744zm-1.5833-3.1893c0.0053,0.1573-0.0887,0.1259-0.2316,0.1345-0.1245,0.0076-0.2582,0.0004-0.3581,0.0049-0.1467,0.0066-0.3003-0.0111-0.3504-0.0647-0.085-0.0909-0.0963-0.3097,0.0592-0.3199,0.287-0.0192,0.6404,0.1297,0.8809,0.2452zm-44.245-3.0284l0.1864,0.9186-0.3425-0.3427,0.1561-0.5759z" class="fil10"/>
   <path id="_157183688" d="M20.644,81.752c0.6921-0.3392,1.4022-0.7016,2.1143-1.0766,1.3134-0.6922,2.6344-1.4282,3.8654-2.1477-0.1218,1.7579-0.4606,6.0423,0.2259,8.6288,0.328,1.2358,1.3438,1.5417,2.4169,1.5594,1.2667,0.0206,2.5838-0.2509,3.3369-1.3946,0.0107,1.289-0.1414,2.4782-0.4589,3.5141-0.4638,1.513-1.2414,2.6054-2.6014,3.0246-0.3798,0.1169-0.8072,0.1723-1.2851,0.1708-3.1684-0.0115-3.92-0.9846-4.7428-3.8918l-1.2295,1.23-1.254-1.2538c-0.7392,1.8533-1.8986,3.9384-4.1911,3.9115-3.5827-0.0425-4.0336-3.0107-3.5245-6.2364,4.9261,2.7104,8.6924-0.5591,7.3279-6.0383zm2.7278,7.884c-0.3549-1.3138-0.5817-2.7124-0.7931-4.1318-0.3543,1.0731-0.8072,2.6482-1.3518,4.1044l1.0588-1.0587,1.0861,1.0861z" class="fil1"/>
   <path id="_157183616" d="M32.648,88.552c0.0228,0.6322,0.0303,1.264,0.0303,1.8961,0,1.1658-0.0259,2.3315-0.0303,3.4976,1.0944-0.2288,2.1886-0.2592,3.283,0.027,0.0194-0.4105,0.0338-0.8848,0.0587-1.2945,0.0151-0.2504,0.2766-0.4252,0.4843-0.4136,0.332,0.0186,0.5291,0.2343,0.7044,0.4747,0.2376,0.3265,0.4956,0.6563,0.8251,0.9496,0.0903,0.0803,0.1903,0.1518,0.2951,0.2195,0.7232-0.0392,1.8103-0.5924,2.5332-0.6314-0.149-0.1165-0.8096-0.7805-0.8882-1.1626-0.0743-0.3609,0.3432-0.3725,0.7881-0.0179,0.3249,0.2593,0.6176,0.7761,0.9769,1.1848,0.3394,0.3858,0.7582,0.6784,1.2789,0.6829,0.6278,0.0053,1.2796-0.6146,1.8321-2.0889-0.4174,0.1413-0.931-0.4821-1.4374-1.2279-0.4977-0.7335-0.9757-2.0315-2.0029-2.0764-0.6802-0.0299-1.5586,0.3631-2.048,1.6225-0.2382-0.6389-0.4855-1.6025-1.3184-1.6614-0.9496-0.0678-2.0134,0.8741-2.1991,1.427,0.0097-0.4669,0.0313-1.084,0.1221-1.98-0.6105,0.3197-2.5062,0.5537-3.2879,0.5729z" class="fil1"/>
   <path id="_157183544" d="M54.022,88.544c0.3926-0.0712,0.8048-0.1224,1.218-0.1747,0.7627-0.0961,1.5292-0.1961,2.1806-0.4322v1.9014c0.8139-1.331,2.4206-1.7095,3.2769-0.8089,0.4722,0.5931,1.3085,1.6722,1.4972,3.3578,0,0.7824-0.7257,1.578-1.5677,1.578h-2.5995c-0.1126-0.2112-0.1887-0.8633-0.2428-1.1328,0.1534,0.0056,0.3804-0.0288,0.5975-0.1053,0.2786-0.0978,0.5409-0.2644,0.6076-0.5016,0.0951-0.3371-0.2715-0.8258-0.6802-0.845-0.4122-0.0194-0.762,0.195-0.9251,0.5987-0.3589,0.8869,0.1494,2.7205,0.5216,3.3211-0.2392,1.2345-0.9517,2.3269-1.7894,3.2365h-2.9443c0.5799-1.2138,1.6049-6.1496,0.8496-9.993z" class="fil1"/>
   <path id="_157183472" d="M67.094,90.114c-0.2077-0.1273-0.4862-0.2456-0.7626-0.3196-0.5101-0.1371-1.0142-0.1252-1.0574,0.2502-0.1242,1.0829,0.741,0.9121,1.2139,0.9036,0.6422-0.0119,0.6759-0.295,0.6061-0.8342zm-3.4126,3.8512c-0.6034,0-1.4278-0.8339-1.4548-1.659,0.0666-1.1306,0.5788-2.2757,1.3165-2.9867,0.7052-0.6792,2.4231-1.3271,3.3558-0.7452,0.2881,0.18,0.5663,0.4831,0.8698,0.9002,0.5664-0.0137,1.2944-0.4722,1.9013-0.8903,0.2052,0.6353,0.5381,1.7803,0.9826,2.3574,0.2985,0.4827,1.4881,0.5209,2.163,0.2217l-1.2439,2.8019h-1.6344c-0.7048,0-1.5454-0.8823-1.6022-1.6183-0.1143,0.5722-0.6331,1.6183-1.3274,1.6183h-3.3263z" class="fil1"/>
   <path id="_157183400" d="M49.955,88.646c0.5527,1.3412,0.4138,2.9538,0.5808,4.3749,0.5771,1.7158,3.1695,0.837,3.5305,0.1312,0.027-0.3504,0.0211-0.8335,0.0481-1.184-0.3448,0.32-0.9044,0.5743-1.0009-0.1803,0.0081-1.0818-0.0501-2.114-0.0095-3.1299-1.0341,0.0295-2.1157,0.0516-3.149-0.0119zm-5.113-0.1831c-0.0058,0.7967-0.0038,1.601-0.001,2.4062,0.0034,1.0352,0.0086,2.0722,0.001,3.0962h4.2482c1.1328,0,1.2379-1.3187,1.1905-2.2631-0.0369-0.7427-0.2347-1.4751-1.1097-1.621-0.4677-0.1323-0.8765-0.1617-1.2946-0.1617-0.0134-0.6877,0.0134-1.2135,0-1.9018-0.6608,0.2431-1.9286,0.4048-3.0344,0.4452zm2.9849,2.1353c0.3404,0.0505,0.669,0.134,0.922,0.2698,0.2003,0.1073,0.3418,0.1866,0.3469,0.435,0.0051,0.2294-0.2546,0.3785-0.5926,0.3876-0.6335,0.0176-0.7066-0.4539-0.6763-1.0924z" class="fil1"/>
   <path id="_157183328" d="M72.897,88.152c-0.0112,0.374-0.0259,0.8157-0.0379,1.2959-0.0217,0.8851-0.0329,1.901,0.0082,2.8616,0.0449,1.0393,0.5714,1.7003,1.7427,1.5957,0.5669-0.0505,2.0168-0.5749,2.4589-1.0461-0.0184,0.7251,0.2775,2.2543-1.1342,2.2543h-6.8884c-0.8918,0-0.9346-0.3642-1.0785-0.9409-0.6941,0.8921-2.0609,4.0476,1.2009,4.0476h9.0242c1.2218,0,1.6673-1.7705,1.6898-2.4339l0.523-15.248c-0.7528,0.3484-2.3725,0.7412-3.1699,0.6893l-0.0635,9.1494c-0.0067,0.9675-1.4208,1.1363-1.6053,0.6799-0.2143-0.4964-0.0743-2.8493,0-4.0732-0.3076,0.2304-0.6865,0.4851-1.1033,0.6977-0.4872,0.2487-1.0271,0.4406-1.5667,0.4704z" class="fil1"/>
   <path id="_157183256" d="M52.803,95.261h-23.78c-0.1107,1.3092,0.3015,2.9594,1.2631,2.9594h20.49c1.4948,0,1.9385-1.0426,2.0265-2.9594z" class="fil1"/>
  </g>
 </g>
</svg>
