<?xml version="1.0" encoding="UTF-8" standalone="no"?>
<!-- Created with Inkscape (http://www.inkscape.org/) -->
<svg id="svg2" xmlns:rdf="http://www.w3.org/1999/02/22-rdf-syntax-ns#" xmlns="http://www.w3.org/2000/svg" height="300" width="300" version="1.1" xmlns:cc="http://creativecommons.org/ns#" xmlns:dc="http://purl.org/dc/elements/1.1/">
 <defs id="defs4">
  <style id="style3025" type="text/css">.str0 {stroke:#FF6600;stroke-width:0.7056}
    .fil1 {fill:none}
    .fil0 {fill:#A90000}</style>
 </defs>
 <metadata id="metadata7">
  <rdf:RDF>
   <cc:Work rdf:about="">
    <dc:format>image/svg+xml</dc:format>
    <dc:type rdf:resource="http://purl.org/dc/dcmitype/StillImage"/>
    <dc:title/>
   </cc:Work>
  </rdf:RDF>
 </metadata>
 <g id="layer1" transform="translate(-207.67033,-379.00278)">
  <path id="path3029" d="m429.42,521.03c2.9349,0,5.315,2.38,5.315,5.315v5.3142c0,2.9349-2.38,5.315-5.315,5.315h-5.315v-15.944zm0,21.259c5.8698,0,10.63-4.7601,10.63-10.63v-5.3142c0-5.8698-4.7601-10.63-10.63-10.63h-10.63v26.574zm-21.26-26.574,5.315,0,0,26.574-5.315,0zm-10.63,0,5.315,0,0,26.574-5.315,0-10.63-16.684,0,16.684-5.315,0,0-26.574,5.315,0,10.63,16.684zm-79.724,0.00036,15.945,0,0,5.315-10.63,0,0,5.3146,10.63,0,0,5.315-10.63,0,0,5.3146,10.63,0,0,5.315-15.945,0zm-21.26-0.00071,5.315,0,0,21.26,10.63,0,0,5.315-15.945,0zm55.808,21.26,5.3135,0c4.4022,0,7.9724-3.5702,7.9724-7.9724s-3.6365-7.9572-7.9724-7.9724h-5.3135v5.315h5.3135c1.4673,0,2.6575,1.1902,2.6575,2.6575s-1.1902,2.6575-2.6575,2.6575h-5.3135zm5.3135-26.575c10.272,0,18.602,8.3303,18.602,18.602s-8.3303,18.602-18.602,18.602-18.602-8.3303-18.602-18.602,8.3303-18.602,18.602-18.602zm-13.287,18.602c0,7.3371,5.9503,13.287,13.287,13.287,7.3371,0,13.287-5.9503,13.287-13.287,0-7.3371-5.9503-13.287-13.287-13.287-7.3371,0-13.287,5.9503-13.287,13.287z" class="fil0" fill="#a90000"/>
  <path id="path3017" d="m357.67,379.85c82.327,0,149.15,66.824,149.15,149.15,0,82.327-66.822,149.15-149.15,149.15-82.325,0-149.15-66.822-149.15-149.15,0-82.325,66.824-149.15,149.15-149.15z" stroke="#2ba7dd" stroke-width="1.70222092000000000" fill="#f0eb70"/>
  <g id="g3035" fill="#eb3d01" transform="matrix(2.4020242,0,0,2.4020242,-353.18711,-472.60768)">
   <path id="path3037" d="m237.29,413.26,0.051,0.049c0.027,0.354,0.048,0.552,0.061,0.599,0.03,0.098,0.093,0.155,0.192,0.17,0.243,0.039,0.769,0.053,1.575,0.038l2.686-0.046c0.806-0.015,1.329-0.046,1.572-0.094,0.099-0.019,0.161-0.077,0.184-0.177,0.013-0.05,0.027-0.248,0.042-0.595l0.05-0.051,0.355-0.006,0.037,0.05,0.096,7.257c0.005,0.298,0.022,1.006,0.052,2.126l0.045,1.68-0.035,0.051-0.356,0.006-0.051-0.049c-0.026-0.344-0.047-0.542-0.062-0.593-0.027-0.097-0.091-0.153-0.19-0.169-0.245-0.04-0.769-0.052-1.575-0.038l-2.686,0.047c-0.806,0.014-1.331,0.044-1.573,0.093-0.098,0.019-0.159,0.078-0.185,0.175-0.012,0.052-0.026,0.25-0.04,0.595l-0.05,0.051-0.345,0.006-0.048-0.054c0.016-0.314,0.017-0.824,0.005-1.529-0.013-0.744-0.032-1.277-0.059-1.597l0.046-0.048,0.345-0.006,0.051,0.051c0.027,0.351,0.048,0.55,0.061,0.597,0.029,0.098,0.092,0.155,0.191,0.17,0.244,0.039,0.769,0.052,1.575,0.038l2.726-0.047c0.644-0.012,1.2-0.035,1.665-0.071l-0.042-2.437c-0.526-0.013-1.077-0.015-1.656-0.005l-2.736,0.047c-0.807,0.015-1.331,0.044-1.573,0.094-0.098,0.019-0.16,0.077-0.186,0.175-0.011,0.052-0.025,0.25-0.04,0.595l-0.049,0.051-0.345,0.006-0.058-0.049c0.021-0.37,0.026-0.902,0.014-1.601-0.011-0.59-0.034-1.101-0.069-1.531l0.056-0.048,0.345-0.006,0.052,0.05c0.027,0.353,0.047,0.552,0.06,0.599,0.03,0.098,0.093,0.154,0.192,0.17,0.243,0.039,0.769,0.052,1.575,0.038l2.752-0.048c0.636-0.011,1.182-0.035,1.639-0.07l-0.042-2.432c-0.609-0.015-1.171-0.019-1.682-0.01l-2.711,0.047c-0.806,0.014-1.331,0.044-1.572,0.093-0.099,0.019-0.16,0.078-0.186,0.175-0.011,0.052-0.025,0.25-0.04,0.595l-0.049,0.057-0.345,0.006-0.048-0.05c0.014-0.392,0.016-0.898,0.005-1.518-0.011-0.589-0.03-1.127-0.06-1.615l0.046-0.051,0.345-0.006zm8.51-10.051,0.042,0.054c-0.084,0.328-0.195,0.839-0.33,1.534-0.134,0.691-0.223,1.205-0.268,1.542l-0.059,0.035-0.334-0.065-0.04-0.059c0.046-0.344,0.067-0.542,0.063-0.594-0.007-0.102-0.057-0.17-0.151-0.205-0.231-0.09-0.741-0.212-1.532-0.366l-2.638-0.512c-0.791-0.154-1.311-0.232-1.557-0.236-0.1-0.002-0.173,0.043-0.218,0.134-0.022,0.047-0.077,0.238-0.163,0.575l-0.059,0.039-0.339-0.066-0.036-0.058c0.082-0.316,0.192-0.826,0.329-1.531,0.136-0.7,0.225-1.213,0.267-1.535l0.055-0.041,0.339,0.066,0.04,0.059c-0.046,0.343-0.067,0.54-0.064,0.593,0.008,0.101,0.059,0.169,0.152,0.205,0.23,0.09,0.741,0.211,1.533,0.365l2.637,0.513c0.791,0.153,1.309,0.233,1.558,0.235,0.1,0.002,0.172-0.042,0.216-0.133,0.023-0.048,0.078-0.239,0.164-0.573l0.059-0.04,0.334,0.065zm-2.705,2.577c0.732,0.142,1.234,0.545,1.51,1.209,0.237,0.568,0.28,1.238,0.13,2.012-0.031,0.157-0.097,0.458-0.201,0.907-0.064,0.271-0.113,0.499-0.15,0.685-0.025,0.131-0.112,0.631-0.261,1.506l-0.045,0.043-0.349-0.068-0.038-0.064c0.04-0.299,0.057-0.479,0.052-0.542-0.007-0.102-0.057-0.17-0.151-0.206-0.231-0.089-0.741-0.211-1.532-0.365l-2.637-0.513c-0.792-0.154-1.312-0.232-1.558-0.236-0.1-0.001-0.172,0.043-0.218,0.135-0.027,0.053-0.078,0.228-0.154,0.528l-0.059,0.039-0.339-0.066-0.036-0.058c0.076-0.281,0.182-0.771,0.317-1.469,0.071-0.362,0.161-0.88,0.27-1.551l0.055-0.04,0.339,0.066,0.04,0.059c-0.046,0.342-0.066,0.539-0.064,0.593,0.008,0.1,0.059,0.168,0.152,0.204,0.23,0.091,0.742,0.211,1.533,0.365l0.803,0.156c0.176-0.907,0.337-1.552,0.483-1.933,0.432-1.12,1.135-1.586,2.108-1.396zm-0.197,1.524c-0.475-0.092-0.868-0.024-1.179,0.205-0.273,0.207-0.459,0.508-0.554,0.906-0.037,0.166-0.092,0.429-0.162,0.791l2.985,0.581c0.053-0.153,0.102-0.339,0.145-0.562,0.073-0.378,0.096-0.659,0.071-0.845-0.04-0.267-0.182-0.501-0.422-0.703-0.211-0.175-0.505-0.299-0.884-0.373zm9.369-18.569,0.025,0.065c-0.177,0.289-0.432,0.746-0.764,1.37-0.33,0.622-0.566,1.087-0.707,1.397l-0.067,0.015-0.301-0.159-0.02-0.068c0.144-0.316,0.221-0.499,0.233-0.55,0.023-0.099-0.005-0.179-0.084-0.24-0.195-0.153-0.647-0.419-1.359-0.798l-2.372-1.261c-0.712-0.378-1.186-0.605-1.421-0.68-0.095-0.032-0.177-0.01-0.248,0.064-0.034,0.038-0.142,0.205-0.323,0.501l-0.068,0.021-0.305-0.162-0.018-0.066c0.172-0.278,0.426-0.734,0.763-1.368,0.335-0.63,0.57-1.094,0.704-1.39l0.065-0.023,0.304,0.162,0.021,0.069c-0.143,0.313-0.221,0.496-0.234,0.548-0.021,0.098,0.007,0.178,0.086,0.24,0.193,0.153,0.647,0.419,1.358,0.797l2.373,1.261c0.711,0.379,1.184,0.606,1.42,0.681,0.095,0.031,0.178,0.01,0.246-0.064,0.037-0.039,0.145-0.205,0.325-0.5l0.068-0.021,0.3,0.159zm-3.34,1.674c0.658,0.35,1.021,0.882,1.09,1.599,0.061,0.611-0.094,1.265-0.464,1.961-0.075,0.141-0.226,0.41-0.458,0.809-0.139,0.24-0.253,0.444-0.342,0.611-0.063,0.118-0.292,0.571-0.69,1.365l-0.056,0.027-0.314-0.167-0.018-0.072c0.126-0.275,0.195-0.442,0.209-0.504,0.023-0.099-0.005-0.179-0.084-0.241-0.196-0.153-0.647-0.419-1.359-0.797l-2.372-1.261c-0.712-0.379-1.186-0.606-1.421-0.681-0.095-0.031-0.177-0.01-0.248,0.064-0.041,0.044-0.141,0.196-0.301,0.46l-0.068,0.021-0.305-0.162-0.018-0.066c0.155-0.247,0.4-0.685,0.733-1.312,0.174-0.326,0.411-0.795,0.712-1.405l0.064-0.022,0.305,0.162,0.021,0.068c-0.144,0.314-0.221,0.497-0.235,0.548-0.021,0.099,0.008,0.179,0.086,0.241,0.193,0.153,0.647,0.418,1.359,0.797l0.723,0.384c0.434-0.816,0.776-1.386,1.027-1.708,0.74-0.945,1.549-1.184,2.424-0.719zm-0.634,1.4c-0.427-0.227-0.823-0.277-1.188-0.148-0.321,0.117-0.587,0.351-0.794,0.704-0.084,0.148-0.214,0.383-0.387,0.709l2.686,1.428c0.095-0.13,0.196-0.294,0.302-0.495,0.181-0.339,0.285-0.602,0.315-0.787,0.04-0.267-0.027-0.532-0.197-0.795-0.151-0.23-0.396-0.434-0.737-0.616zm8.056-9.722,0.256,0.507c-0.144,0.803-0.495,1.547-1.051,2.234-1.113,1.374-2.367,1.913-3.766,1.616-0.647-0.135-1.239-0.42-1.772-0.852-0.864-0.7-1.318-1.543-1.367-2.532-0.054-1.016,0.33-2.03,1.153-3.046,0.522-0.645,1.15-1.181,1.883-1.607l0.1-0.003c0.29,0.384,0.669,0.783,1.141,1.198l0.009,0.068-0.188,0.233-0.075,0.004c-0.325-0.249-0.559-0.414-0.698-0.494-0.638,0.028-1.207,0.354-1.71,0.975-0.518,0.639-0.721,1.303-0.61,1.995,0.112,0.691,0.514,1.318,1.208,1.88,0.94,0.761,1.923,1.022,2.949,0.782,0.547-0.128,1.056-0.481,1.525-1.06,0.425-0.526,0.706-1.15,0.842-1.872l0.171-0.026zm15.882-11.34-0.01,0.068c-0.649,0.381-1.038,0.612-1.171,0.694-0.527,0.33-1.013,0.646-1.456,0.947l-0.066-0.02-0.169-0.271,0.013-0.075,0.362-0.255c0.151-0.107,0.196-0.212,0.131-0.315-0.037-0.06-0.161-0.171-0.374-0.33l-0.916-0.691c-0.4,0.242-0.806,0.492-1.221,0.751-0.223,0.139-0.554,0.35-0.993,0.632l0.139,0.643c0.106,0.49,0.19,0.785,0.252,0.885,0.068,0.109,0.176,0.131,0.324,0.067,0.083-0.035,0.236-0.114,0.461-0.24l0.07,0.017,0.172,0.275-0.015,0.071c-0.542,0.314-0.89,0.519-1.041,0.613-0.118,0.074-0.405,0.266-0.858,0.573l-0.068-0.013-0.174-0.279,0.019-0.073c0.285-0.201,0.429-0.373,0.434-0.517,0.005-0.142-0.114-0.899-0.362-2.269l-0.632-3.515c-0.053-0.271-0.132-0.678-0.237-1.223l0.611-0.383,5.638,3.944c0.216,0.149,0.369,0.213,0.456,0.193,0.116-0.024,0.264-0.091,0.442-0.202l0.068,0.023,0.171,0.275zm-4.177-0.611-2.331-1.681,0.526,2.809c0.242-0.14,0.551-0.326,0.927-0.561,0.364-0.228,0.657-0.417,0.878-0.567zm9.14-4.065c0.335,0.752,0.306,1.454-0.085,2.106-0.342,0.564-0.908,1.021-1.697,1.372-0.862,0.384-1.629,0.511-2.299,0.379l-0.066-0.063c-0.085-0.238-0.168-0.45-0.251-0.635-0.082-0.185-0.21-0.447-0.382-0.786l0.018-0.046,0.264-0.118,0.043,0.02c0.317,0.465,0.658,0.773,1.015,0.921,0.405,0.167,0.807,0.163,1.206-0.015,0.507-0.226,0.835-0.562,0.985-1.011,0.14-0.417,0.099-0.872-0.12-1.364-0.213-0.478-0.535-0.775-0.966-0.887-0.396-0.103-0.838-0.044-1.33,0.175-0.206,0.092-0.402,0.194-0.585,0.306l-0.078-0.023-0.2-0.449,0.04-0.062c0.169-0.06,0.311-0.117,0.425-0.168,0.281-0.125,0.488-0.253,0.618-0.385,0.163-0.166,0.267-0.383,0.311-0.651,0.04-0.251,0.001-0.509-0.117-0.775-0.084-0.189-0.209-0.346-0.37-0.469-0.349-0.268-0.738-0.306-1.164-0.116-0.294,0.131-0.51,0.349-0.648,0.655-0.121,0.268-0.153,0.611-0.093,1.026l-0.014,0.044-0.209,0.094-0.041-0.02c-0.218-0.437-0.405-0.767-0.564-0.99l0.02-0.07c0.445-0.598,1-1.044,1.665-1.34,0.547-0.244,1.039-0.355,1.477-0.33,0.565,0.029,0.957,0.291,1.175,0.782,0.185,0.415,0.177,0.828-0.021,1.239-0.173,0.365-0.464,0.675-0.87,0.926l0.037,0.084c0.991-0.441,1.74-0.493,2.243-0.154,0.259,0.173,0.469,0.44,0.628,0.798zm8.921-0.169-0.031,0.061c-0.731,0.175-1.171,0.282-1.322,0.322-0.601,0.161-1.157,0.322-1.669,0.48l-0.057-0.038-0.083-0.309,0.034-0.068,0.421-0.138c0.176-0.058,0.249-0.145,0.218-0.263-0.019-0.068-0.105-0.21-0.261-0.425l-0.674-0.929c-0.454,0.115-0.915,0.235-1.387,0.361-0.255,0.069-0.633,0.173-1.135,0.315l-0.056,0.656c-0.041,0.499-0.047,0.806-0.017,0.92,0.033,0.123,0.13,0.177,0.29,0.159,0.089-0.01,0.259-0.041,0.511-0.096l0.063,0.037,0.084,0.313-0.036,0.064c-0.609,0.141-1.002,0.236-1.175,0.282-0.134,0.036-0.464,0.136-0.988,0.297l-0.06-0.032-0.086-0.318,0.04-0.065c0.332-0.108,0.52-0.23,0.566-0.366,0.047-0.135,0.153-0.894,0.318-2.277l0.422-3.546c0.029-0.275,0.073-0.687,0.131-1.239l0.697-0.187,4.239,5.42c0.163,0.205,0.29,0.311,0.379,0.318,0.118,0.011,0.279-0.01,0.482-0.065l0.058,0.042,0.084,0.314zm-3.817-1.806-1.738-2.289-0.318,2.84c0.273-0.062,0.623-0.151,1.051-0.265,0.415-0.111,0.75-0.207,1.005-0.286zm19.839,0.453-0.269,0.501c-0.74,0.342-1.551,0.482-2.433,0.42-1.763-0.123-2.924-0.842-3.484-2.158-0.259-0.607-0.365-1.256-0.318-1.94,0.078-1.109,0.508-1.965,1.29-2.572,0.802-0.627,1.853-0.894,3.157-0.803,0.828,0.058,1.626,0.265,2.395,0.621l0.061,0.081c-0.148,0.457-0.257,0.997-0.327,1.621l-0.051,0.047-0.299-0.021-0.046-0.059c0.018-0.409,0.019-0.696,0.004-0.855-0.388-0.507-0.982-0.786-1.779-0.842-0.82-0.057-1.481,0.157-1.984,0.645-0.502,0.488-0.785,1.177-0.847,2.068-0.084,1.207,0.266,2.161,1.051,2.864,0.418,0.375,1,0.589,1.743,0.641,0.674,0.047,1.347-0.081,2.017-0.384l0.119,0.125zm9.273-4.532c-0.096,0.234-0.175,0.482-0.239,0.742l-0.2,0.823-0.061,0.04-0.312-0.073-0.044-0.058c0.08-0.426,0.119-0.677,0.117-0.753-0.01-0.141-0.097-0.243-0.264-0.307-0.063-0.025-0.373-0.102-0.927-0.23l-0.662-0.153c-0.033,0.115-0.143,0.572-0.328,1.375l-0.649,2.81c-0.181,0.785-0.277,1.3-0.289,1.548-0.006,0.1,0.036,0.174,0.126,0.221,0.046,0.025,0.235,0.087,0.566,0.184l0.04,0.061-0.077,0.331-0.062,0.039c-0.321-0.095-0.827-0.223-1.517-0.382-0.705-0.163-1.216-0.27-1.53-0.321l-0.035-0.056,0.078-0.337,0.062-0.037c0.34,0.058,0.537,0.085,0.589,0.083,0.102-0.003,0.172-0.051,0.211-0.143,0.097-0.229,0.237-0.734,0.418-1.519l0.649-2.81c0.188-0.816,0.289-1.275,0.303-1.381l-0.708-0.163c-0.59-0.136-0.938-0.197-1.046-0.184-0.057,0.008-0.1,0.025-0.126,0.049-0.042,0.047-0.092,0.146-0.147,0.3-0.064,0.169-0.121,0.346-0.17,0.528l-0.061,0.04-0.312-0.072-0.043-0.063,0.186-0.849c0.051-0.237,0.089-0.488,0.111-0.75l0.055-0.04c0.188,0.078,0.894,0.259,2.116,0.541l2.005,0.463c1.128,0.261,1.842,0.408,2.14,0.441l0.037,0.062zm6.31,9.788-0.06,0.032c-0.695-0.289-1.113-0.46-1.259-0.517-0.581-0.222-1.125-0.42-1.633-0.593l-0.023-0.064,0.114-0.298,0.068-0.036,0.421,0.136c0.177,0.057,0.288,0.029,0.331-0.084,0.025-0.067,0.039-0.232,0.039-0.498v-1.147c-0.434-0.174-0.878-0.348-1.334-0.523-0.246-0.095-0.613-0.232-1.103-0.413l-0.43,0.498c-0.328,0.379-0.513,0.624-0.555,0.734-0.046,0.12,0.001,0.219,0.141,0.299,0.078,0.045,0.233,0.119,0.47,0.223l0.028,0.067-0.116,0.302-0.065,0.031c-0.577-0.244-0.951-0.398-1.117-0.462-0.13-0.05-0.456-0.164-0.974-0.341l-0.03-0.061,0.118-0.308,0.07-0.028c0.332,0.107,0.556,0.118,0.673,0.035,0.117-0.081,0.65-0.633,1.595-1.655l2.427-2.62c0.184-0.206,0.462-0.513,0.834-0.926l0.673,0.259,0.244,6.876c0.011,0.262,0.051,0.422,0.12,0.48,0.089,0.079,0.232,0.156,0.428,0.231l0.022,0.068-0.117,0.303zm-2.025-3.704-0.061-2.873-1.927,2.11c0.257,0.11,0.592,0.244,1.006,0.403,0.401,0.154,0.729,0.274,0.982,0.36zm9.884,8.058-0.071,0.021c-0.282-0.18-0.734-0.443-1.352-0.786-0.634-0.351-1.095-0.595-1.383-0.73l-0.022-0.066,0.167-0.302,0.074-0.016c0.312,0.149,0.493,0.229,0.544,0.242,0.099,0.025,0.179-0.002,0.242-0.08,0.157-0.193,0.43-0.64,0.821-1.345l0.593-1.07c-0.143-0.099-0.618-0.372-1.426-0.82-0.746-0.414-1.243-0.679-1.487-0.795l-0.594,1.07c-0.39,0.705-0.625,1.174-0.705,1.409-0.033,0.095-0.013,0.177,0.061,0.247,0.037,0.037,0.201,0.148,0.495,0.334l0.019,0.069-0.165,0.297-0.066,0.022c-0.285-0.181-0.737-0.444-1.352-0.785-0.637-0.353-1.098-0.597-1.383-0.73l-0.021-0.066,0.167-0.302,0.069-0.019c0.311,0.149,0.493,0.23,0.545,0.243,0.097,0.024,0.178-0.003,0.241-0.081,0.157-0.192,0.43-0.64,0.82-1.344l1.303-2.35c0.391-0.705,0.627-1.175,0.705-1.409,0.033-0.095,0.013-0.177-0.058-0.248-0.04-0.036-0.204-0.147-0.496-0.332l-0.019-0.069,0.167-0.302,0.066-0.016c0.274,0.175,0.725,0.437,1.353,0.785,0.642,0.356,1.104,0.601,1.382,0.731l0.018,0.063-0.169,0.307-0.066,0.015c-0.313-0.15-0.495-0.231-0.545-0.244-0.099-0.024-0.18,0.003-0.243,0.081-0.155,0.191-0.429,0.639-0.82,1.345l-0.406,0.732c0.305,0.189,0.733,0.436,1.285,0.742,0.864,0.479,1.407,0.769,1.629,0.873l0.406-0.732c0.39-0.705,0.625-1.176,0.705-1.409,0.033-0.095,0.013-0.177-0.06-0.249-0.038-0.035-0.202-0.146-0.494-0.332l-0.026-0.072,0.167-0.301,0.069-0.016c0.276,0.177,0.727,0.439,1.352,0.785,0.646,0.358,1.106,0.602,1.382,0.731l0.023,0.066-0.17,0.307-0.063,0.016c-0.317-0.152-0.5-0.233-0.548-0.246-0.099-0.023-0.179,0.003-0.242,0.081-0.157,0.191-0.43,0.64-0.82,1.345l-1.303,2.35c-0.391,0.705-0.626,1.173-0.706,1.408-0.032,0.095-0.013,0.178,0.06,0.248,0.039,0.037,0.203,0.148,0.495,0.333l0.021,0.069-0.165,0.297zm11.258,4.951c-0.852,0.913-1.786,1.381-2.803,1.405-0.989,0.023-1.932-0.384-2.828-1.22-0.847-0.789-1.289-1.647-1.327-2.574-0.039-0.927,0.337-1.816,1.129-2.665,1.11-1.191,2.335-1.592,3.671-1.202,0.607,0.178,1.212,0.548,1.817,1.112,0.863,0.805,1.325,1.66,1.383,2.56,0.058,0.914-0.289,1.776-1.042,2.584zm-1.324-0.875c0.669-0.718,1.058-1.422,1.162-2.113,0.105-0.692-0.121-1.296-0.677-1.815-0.737-0.687-1.531-0.811-2.389-0.374-0.439,0.224-0.856,0.546-1.248,0.967-0.714,0.766-1.136,1.5-1.267,2.208-0.135,0.729,0.088,1.366,0.67,1.909,0.706,0.658,1.504,0.753,2.395,0.283,0.474-0.248,0.924-0.603,1.354-1.065zm4.792,7.794c-0.579,0.469-1.211,0.594-1.897,0.378-0.586-0.181-1.127-0.579-1.625-1.193-0.099-0.123-0.289-0.369-0.565-0.738-0.167-0.222-0.31-0.407-0.429-0.554-0.105-0.129-0.443-0.531-1.018-1.207v-0.058l0.276-0.224,0.071,0.008c0.233,0.255,0.371,0.397,0.414,0.429,0.082,0.059,0.166,0.064,0.254,0.016,0.218-0.119,0.638-0.433,1.264-0.94l2.088-1.691c0.627-0.507,1.022-0.853,1.182-1.041,0.066-0.076,0.078-0.159,0.039-0.253-0.023-0.048-0.134-0.212-0.335-0.493l0.007-0.071,0.269-0.217,0.068,0.01,1.704,2.154,1.328,1.624c0.156,0.181,0.295,0.331,0.415,0.446l-0.004,0.078c-0.208,0.114-0.417,0.255-0.63,0.423l-0.68,0.54-0.074-0.008-0.203-0.252,0.003-0.07c0.147-0.13,0.293-0.262,0.44-0.394,0.178-0.193,0.242-0.361,0.19-0.506-0.037-0.106-0.241-0.385-0.61-0.84l-0.837-1.035c-0.671,0.505-1.084,0.819-1.236,0.943l-0.754,0.61c0.581,0.718,0.972,1.256,1.171,1.615,0.58,1.049,0.485,1.887-0.286,2.511zm-1.041-1.131c0.376-0.305,0.576-0.65,0.601-1.035,0.018-0.341-0.094-0.678-0.338-1.007-0.103-0.135-0.27-0.346-0.502-0.633l-2.364,1.914c0.083,0.138,0.195,0.296,0.338,0.472,0.243,0.3,0.444,0.499,0.601,0.597,0.231,0.141,0.501,0.183,0.81,0.129,0.27-0.049,0.554-0.194,0.854-0.437zm3.722,9.901-0.054-0.021c-0.273-0.515-0.533-0.987-0.78-1.415-0.356-0.615-0.619-1.05-0.789-1.304l0.009-0.057,0.307-0.178,0.069,0.019c0.19,0.288,0.304,0.451,0.342,0.489,0.071,0.071,0.155,0.09,0.248,0.055,0.234-0.083,0.698-0.327,1.396-0.73l1.486-0.858,2.146-1.261-0.057-0.109c-0.341-0.009-0.845-0.019-1.512-0.03l-1.757-0.028c-1.424-0.022-2.385-0.005-2.877,0.054-0.217,0.027-0.352,0.057-0.407,0.089-0.099,0.057-0.118,0.184-0.055,0.383,0.047,0.141,0.097,0.273,0.151,0.394l-0.018,0.068-0.308,0.178-0.057-0.025c-0.229-0.438-0.45-0.843-0.664-1.212-0.113-0.197-0.309-0.516-0.588-0.957l0.006-0.062,0.308-0.178,0.068,0.018,0.216,0.253c0.068,0.074,0.13,0.131,0.186,0.168,0.1,0.063,0.332,0.111,0.698,0.142,0.735,0.06,1.348,0.102,1.837,0.124l4.419,0.181c0.053,0.001,0.088-0.001,0.108-0.008,0.07-0.041-0.075-0.48-0.433-1.318l0.014-0.066,0.312-0.18,0.053,0.028c0.072,0.146,0.358,0.663,0.859,1.551,0.401,0.709,0.69,1.189,0.865,1.436l-0.003,0.078c-0.095,0.05-0.395,0.216-0.902,0.496-0.743,0.409-1.369,0.761-1.879,1.055l-1.483,0.863c-0.698,0.403-1.141,0.684-1.33,0.844-0.077,0.064-0.103,0.145-0.076,0.243,0.013,0.051,0.097,0.23,0.252,0.541l-0.018,0.069-0.308,0.178zm3.28,9.101-0.064-0.026c-0.09-0.326-0.25-0.824-0.481-1.493-0.229-0.666-0.409-1.156-0.539-1.47l0.034-0.059,0.322-0.111,0.064,0.031c0.132,0.321,0.213,0.502,0.243,0.545,0.056,0.085,0.134,0.119,0.233,0.103,0.245-0.038,0.747-0.187,1.509-0.45l2.541-0.874c0.762-0.263,1.251-0.455,1.466-0.576,0.088-0.048,0.129-0.122,0.123-0.225-0.005-0.051-0.053-0.244-0.147-0.578l0.032-0.064,0.326-0.112,0.06,0.032c0.087,0.315,0.247,0.812,0.481,1.49,0.232,0.675,0.411,1.164,0.537,1.463l-0.028,0.063-0.327,0.112-0.064-0.031c-0.131-0.319-0.212-0.501-0.241-0.546-0.057-0.082-0.135-0.116-0.234-0.1-0.244,0.036-0.747,0.187-1.51,0.45l-2.54,0.874c-0.762,0.263-1.25,0.453-1.467,0.575-0.087,0.049-0.128,0.123-0.121,0.223,0.004,0.054,0.052,0.247,0.145,0.579l-0.031,0.064-0.322,0.111zm1.054-3.584c-0.705,0.243-1.341,0.145-1.912-0.293-0.489-0.372-0.862-0.932-1.118-1.677-0.052-0.151-0.146-0.445-0.28-0.887-0.08-0.266-0.152-0.488-0.213-0.667-0.044-0.126-0.219-0.603-0.527-1.435l0.018-0.06,0.336-0.115,0.065,0.036c0.115,0.279,0.19,0.444,0.226,0.496,0.057,0.085,0.134,0.119,0.233,0.103,0.246-0.039,0.748-0.188,1.51-0.45l2.54-0.875c0.762-0.262,1.252-0.455,1.467-0.575,0.088-0.048,0.128-0.123,0.122-0.225-0.004-0.059-0.047-0.237-0.131-0.534l0.032-0.064,0.326-0.113,0.061,0.033c0.074,0.282,0.228,0.759,0.459,1.431,0.12,0.349,0.301,0.842,0.542,1.478l-0.028,0.062-0.326,0.113-0.064-0.031c-0.132-0.32-0.212-0.501-0.241-0.546-0.058-0.083-0.136-0.117-0.234-0.101-0.245,0.036-0.748,0.188-1.51,0.45l-0.774,0.267c0.301,0.873,0.485,1.512,0.548,1.915,0.187,1.187-0.19,1.941-1.127,2.264zm-0.591-1.419c0.457-0.157,0.763-0.413,0.918-0.767,0.133-0.315,0.144-0.669,0.027-1.062-0.051-0.162-0.135-0.417-0.255-0.766l-2.876,0.99c0.03,0.159,0.082,0.344,0.156,0.559,0.125,0.364,0.246,0.619,0.361,0.767,0.168,0.211,0.408,0.343,0.716,0.398,0.271,0.046,0.587,0.007,0.953-0.119zm1.687,12.027-0.553-0.131c-0.523-0.626-0.868-1.373-1.036-2.241-0.338-1.735,0.056-3.043,1.183-3.924,0.519-0.408,1.118-0.678,1.792-0.809,1.09-0.212,2.029-0.019,2.818,0.58,0.813,0.612,1.343,1.558,1.592,2.841,0.158,0.815,0.165,1.64,0.02,2.475l-0.062,0.079c-0.48-0.025-1.03,0.01-1.65,0.104l-0.059-0.036-0.057-0.295,0.045-0.06c0.399-0.088,0.677-0.161,0.827-0.217,0.389-0.506,0.505-1.152,0.353-1.936-0.157-0.807-0.536-1.39-1.137-1.75-0.601-0.358-1.34-0.453-2.216-0.283-1.188,0.231-2.019,0.816-2.495,1.757-0.254,0.501-0.31,1.118-0.168,1.849,0.129,0.664,0.427,1.28,0.893,1.849l-0.09,0.148zm-0.52,10.442-0.053-0.043c0.009-0.339,0.001-0.862-0.024-1.569-0.024-0.703-0.053-1.224-0.086-1.563l0.051-0.047,0.339-0.012,0.052,0.048c0.033,0.346,0.057,0.543,0.073,0.593,0.029,0.098,0.094,0.153,0.193,0.166,0.246,0.035,0.77,0.04,1.575,0.012l2.685-0.094c0.806-0.028,1.33-0.069,1.571-0.121,0.098-0.021,0.158-0.08,0.183-0.18,0.01-0.051,0.02-0.249,0.029-0.596l0.049-0.052,0.345-0.012,0.048,0.049c-0.01,0.326-0.002,0.848,0.024,1.565,0.024,0.714,0.053,1.233,0.085,1.556l-0.045,0.052-0.345,0.012-0.052-0.048c-0.033-0.344-0.057-0.541-0.071-0.593-0.031-0.096-0.095-0.151-0.195-0.165-0.244-0.036-0.769-0.039-1.575-0.011l-2.685,0.094c-0.805,0.028-1.328,0.067-1.571,0.121-0.098,0.021-0.158,0.08-0.18,0.178-0.013,0.052-0.023,0.251-0.032,0.596l-0.048,0.052-0.34,0.012zm2.056-3.119c-0.745,0.026-1.325-0.254-1.743-0.84-0.359-0.499-0.552-1.142-0.579-1.931-0.006-0.159-0.009-0.468-0.008-0.929,0.001-0.277-0.003-0.511-0.009-0.7-0.005-0.134-0.033-0.641-0.085-1.527l0.035-0.051,0.355-0.013,0.052,0.054c0.028,0.301,0.052,0.48,0.071,0.54,0.029,0.098,0.094,0.153,0.193,0.167,0.246,0.035,0.77,0.039,1.575,0.011l2.685-0.094c0.806-0.028,1.33-0.069,1.571-0.121,0.098-0.02,0.159-0.08,0.183-0.18,0.013-0.057,0.024-0.24,0.031-0.549l0.049-0.052,0.344-0.012,0.049,0.049c-0.011,0.292-0.004,0.792,0.021,1.503,0.013,0.369,0.041,0.893,0.086,1.572l-0.045,0.051-0.345,0.012-0.052-0.048c-0.033-0.344-0.057-0.541-0.071-0.593-0.031-0.095-0.095-0.15-0.194-0.164-0.244-0.037-0.77-0.039-1.576-0.011l-0.817,0.029c0.032,0.923,0.02,1.587-0.037,1.992-0.168,1.189-0.749,1.8-1.739,1.835zm-0.151-1.53c0.484-0.017,0.851-0.172,1.103-0.465,0.219-0.263,0.333-0.598,0.336-1.007-0.001-0.17-0.007-0.439-0.02-0.808l-3.04,0.107c-0.017,0.159-0.022,0.352-0.014,0.579,0.013,0.385,0.054,0.664,0.121,0.839,0.099,0.251,0.289,0.448,0.568,0.59,0.246,0.124,0.56,0.178,0.946,0.165z"/>
   <path id="path3039" d="m241.12,395.06c0.281,0.147,0.793,0.348,1.532,0.603l0.03,0.069-0.105,0.303-0.064,0.031c-0.02-0.003-0.086-0.02-0.196-0.051-0.239-0.07-0.374-0.107-0.407-0.114-0.204-0.041-0.342-0.039-0.411,0.008-0.104,0.072-0.245,0.369-0.424,0.891l-0.491,1.426,2.505,0.863,0.587-1.704,0.069-0.03,0.308,0.107,0.031,0.063-0.587,1.705,1.239,0.426c0.762,0.263,1.265,0.412,1.51,0.451,0.099,0.015,0.177-0.018,0.233-0.103,0.03-0.044,0.11-0.225,0.243-0.546l0.064-0.031,0.328,0.107,0.029,0.06-0.136,0.36c-0.18,0.483-0.315,0.854-0.404,1.113-0.109,0.316-0.27,0.815-0.482,1.493l-0.059,0.028-0.326-0.112-0.031-0.064c0.093-0.333,0.141-0.526,0.145-0.579,0.007-0.101-0.034-0.175-0.122-0.224-0.216-0.122-0.704-0.312-1.466-0.574l-1.239-0.427-0.269,0.782-0.071,0.034-0.303-0.104-0.035-0.071,0.27-0.781-0.894-0.308c-0.762-0.262-1.265-0.414-1.509-0.45-0.099-0.016-0.177,0.018-0.235,0.101-0.028,0.045-0.109,0.226-0.241,0.545l-0.064,0.032-0.326-0.113-0.028-0.063,0.432-1.156c0.71-2.063,1.146-3.387,1.308-3.97l0.062-0.026zm24.002-20.12c0.249,0.508,0.621,1.194,1.119,2.06l-0.018,0.06-0.244,0.205-0.062,0.006-0.676-0.759c-0.309-0.347-0.533-0.528-0.675-0.542-0.082-0.01-0.162,0-0.237,0.032-0.077,0.03-0.24,0.151-0.492,0.363-0.085,0.071-0.178,0.108-0.277,0.112-0.238,0.01-0.578-0.017-1.017-0.082l-3.513-0.506,0.774,0.923c0.518,0.617,0.872,1.004,1.062,1.163,0.077,0.064,0.161,0.076,0.253,0.032,0.048-0.022,0.21-0.136,0.489-0.342l0.071,0.006,0.218,0.26-0.002,0.07c-0.272,0.201-0.679,0.529-1.218,0.981-0.558,0.468-0.95,0.811-1.178,1.029l-0.068-0.004-0.222-0.264,0.006-0.071c0.251-0.237,0.392-0.378,0.422-0.422,0.058-0.082,0.062-0.167,0.012-0.253-0.123-0.217-0.444-0.631-0.962-1.248l-1.727-2.059c-0.518-0.617-0.871-1.006-1.062-1.163-0.076-0.064-0.16-0.076-0.253-0.034-0.047,0.024-0.21,0.138-0.487,0.343l-0.071-0.006-0.222-0.264,0.009-0.068c0.261-0.193,0.667-0.52,1.217-0.981,0.563-0.473,0.956-0.816,1.178-1.029l0.066,0.006,0.221,0.264-0.006,0.071c-0.252,0.238-0.392,0.379-0.423,0.42-0.058,0.085-0.061,0.17-0.011,0.256,0.123,0.214,0.443,0.631,0.961,1.248l0.81,0.966c0.016-0.24,0.055-0.757,0.117-1.551,0.032-0.421,0.051-0.722,0.057-0.903,0.018-0.497,0.023-0.836,0.014-1.019-0.012-0.3-0.051-0.487-0.113-0.561-0.027-0.032-0.055-0.044-0.09-0.038h-0.073l-0.186-0.222,0.014-0.077c0.299-0.224,0.573-0.44,0.821-0.648,0.171-0.144,0.42-0.366,0.743-0.665l0.076,0.003,0.219,0.262-0.01,0.067c-0.271,0.246-0.449,0.454-0.531,0.624-0.067,0.141-0.134,0.409-0.199,0.806-0.074,0.437-0.152,1.025-0.231,1.763-0.027,0.279-0.065,0.648-0.119,1.107l4.164,0.443c0.361,0.039,0.631,0.043,0.815,0.014,0.126-0.023,0.333-0.115,0.622-0.278l0.125,0.094zm29.52-10.064c-0.097,0.558-0.199,1.331-0.305,2.324l-0.05,0.038-0.318,0.023-0.054-0.032-0.1-1.011c-0.047-0.462-0.121-0.74-0.228-0.835-0.061-0.057-0.131-0.095-0.21-0.114-0.08-0.021-0.283-0.019-0.612,0.004-0.111,0.008-0.208-0.016-0.29-0.071-0.199-0.133-0.457-0.354-0.775-0.664l-2.544-2.475,0.084,1.202c0.056,0.803,0.115,1.324,0.175,1.565,0.025,0.097,0.086,0.156,0.186,0.174,0.051,0.011,0.25,0.014,0.597,0.011l0.054,0.047,0.023,0.339-0.043,0.055c-0.338,0.003-0.86,0.029-1.562,0.078-0.726,0.05-1.245,0.097-1.557,0.14l-0.053-0.043-0.025-0.345,0.047-0.053c0.343-0.045,0.539-0.076,0.59-0.094,0.095-0.032,0.148-0.099,0.158-0.198,0.028-0.247,0.012-0.771-0.044-1.575l-0.188-2.68c-0.056-0.804-0.113-1.327-0.175-1.565-0.024-0.098-0.086-0.156-0.185-0.177-0.052-0.009-0.251-0.012-0.596-0.009l-0.054-0.046-0.024-0.344,0.047-0.051c0.325-0.001,0.846-0.027,1.562-0.078,0.733-0.051,1.253-0.097,1.557-0.14l0.05,0.044,0.024,0.344-0.046,0.054c-0.345,0.045-0.541,0.075-0.59,0.091-0.096,0.035-0.149,0.101-0.16,0.2-0.026,0.246-0.012,0.771,0.045,1.575l0.087,1.257c0.154-0.184,0.49-0.579,1.007-1.186,0.273-0.321,0.465-0.553,0.577-0.697,0.306-0.391,0.509-0.663,0.61-0.816,0.166-0.249,0.245-0.423,0.238-0.52-0.003-0.041-0.019-0.068-0.051-0.083l-0.059-0.043-0.02-0.289,0.057-0.054c0.373-0.006,0.722-0.02,1.045-0.042,0.223-0.016,0.555-0.049,0.992-0.101l0.059,0.047,0.024,0.34-0.047,0.049c-0.364,0.039-0.631,0.103-0.796,0.192-0.138,0.075-0.35,0.252-0.636,0.535-0.317,0.311-0.724,0.74-1.223,1.291-0.185,0.21-0.433,0.486-0.747,0.826l3.109,2.806c0.269,0.243,0.485,0.405,0.651,0.489,0.115,0.057,0.337,0.104,0.667,0.141l0.045,0.15z"/>
  </g>
  <path id="path3019" d="m357.67,408.65c66.43,0,120.35,53.921,120.35,120.35,0,66.43-53.923,120.35-120.35,120.35-66.43,0-120.35-53.923-120.35-120.35,0-66.43,53.921-120.35,120.35-120.35z" stroke="#2ba7dd" stroke-width="1.70222092" fill="#6cbde2"/>
  <path id="path3021" fill="#eb3d01" d="m387.47,505.9c9.1637,0,16.603,7.4367,16.603,16.6,0,9.1661-7.4391,16.603-16.603,16.603-9.1637,0-16.603-7.4367-16.603-16.603,0-9.1637,7.4391-16.6,16.603-16.6z"/>
  <path id="path3023" fill="#FF0" d="m349.44,497.22c60.257-9.0076,111.09-3.1418,113.52,13.093,2.426,16.238-44.473,36.708-104.73,45.713-60.26,9.0052-111.09,3.1442-113.52-13.096-2.426-16.235,44.473-36.705,104.73-45.711zm-97.595,44.668c2.2267,14.893,50.469,20.467,106.15,12.147,55.679-8.3206,100.3-27.873,98.076-42.768-2.2267-14.895-50.526-20.546-106.2-12.225-55.679,8.3206-100.24,27.951-98.019,42.846z"/>
  <path id="path3025" fill="#FF0" d="m367.85,514.64c26.835-28.776,55.078-46.068,63.068-38.617,7.9915,7.4535-7.2877,36.833-34.121,65.609s-55.076,46.066-63.068,38.615c-7.9915-7.4535,7.2877-36.833,34.121-65.606zm-31.21,62.66c6.8914,6.4278,34.329-10.609,59.25-37.334s39.378-55.018,32.487-61.443c-6.8914-6.4278-34.311,10.791-59.232,37.513-24.921,26.725-39.396,54.838-32.505,61.263z"/>
  <path id="path3027" fill="#FF0" d="m326.38,470.25c-7.9075,9.2598,14.416,42.432,49.092,72.047,34.676,29.617,71.023,46.773,78.931,37.513,7.9075-9.2574-14.811-42.689-49.486-72.303-34.676-29.617-70.629-46.514-78.536-37.257zm80.019,35.483c37.5,32.029,60.637,66.522,51.663,77.028-8.9716,10.506-46.662-6.9466-84.162-38.978-37.5-32.029-60.634-66.522-51.663-77.028,8.9716-10.506,46.662,6.9467,84.162,38.978z"/>
  <path id="path3029-4" fill="#eb3d01" d="m272.07,513.69c3.274,0,5.9306,2.659,5.9306,5.9306,0,3.274-2.6566,5.9306-5.9306,5.9306-3.2716,0-5.9306-2.6566-5.9306-5.9306,0-3.2716,2.659-5.9306,5.9306-5.9306z"/>
  <path id="path3031-8" fill="#eb3d01" d="m425.61,569.31c4.1531,0,7.5255,3.3724,7.5255,7.5255,0,4.1555-3.3724,7.5279-7.5255,7.5279-4.1555,0-7.5279-3.3724-7.5279-7.5279,0-4.1531,3.3724-7.5255,7.5279-7.5255z"/>
  <path id="path3033" fill="#eb3d01" d="m429.26,473.05c3.149,0,5.7024,2.5558,5.7024,5.7024,0,3.1491-2.5534,5.7024-5.7024,5.7024-3.1467,0-5.7024-2.5534-5.7024-5.7024,0-3.1466,2.5558-5.7024,5.7024-5.7024z"/>
  <g id="g3041" fill="#eb3d01" transform="matrix(2.4020242,0,0,2.4020242,-353.18711,-472.60768)">
   <path id="path3043" d="m253.3,458.73-0.073-0.005c-0.34-0.438-0.579-0.74-0.717-0.903-0.122-0.146-0.322-0.368-0.602-0.669,0.08-0.169,0.152-0.456,0.215-0.861l0.348-2.263c0.075-0.491,0.109-0.981,0.103-1.471l-0.926,0.777c-0.617,0.518-1.004,0.871-1.163,1.062-0.065,0.076-0.076,0.161-0.032,0.253,0.022,0.047,0.135,0.21,0.342,0.489l-0.006,0.071-0.26,0.218-0.07-0.003c-0.202-0.272-0.529-0.678-0.981-1.218-0.468-0.557-0.812-0.95-1.029-1.177l0.003-0.068,0.265-0.222,0.07,0.006c0.238,0.251,0.379,0.391,0.422,0.422,0.083,0.058,0.167,0.061,0.254,0.011,0.216-0.122,0.631-0.443,1.248-0.961l2.058-1.727c0.618-0.518,1.007-0.872,1.164-1.062,0.064-0.077,0.075-0.161,0.034-0.253-0.024-0.048-0.138-0.21-0.344-0.488l0.007-0.071,0.264-0.221,0.068,0.008c0.192,0.262,0.52,0.668,0.981,1.218,0.472,0.563,0.816,0.956,1.029,1.177l-0.006,0.066-0.268,0.225-0.067-0.009c-0.239-0.252-0.379-0.392-0.421-0.423-0.084-0.058-0.169-0.062-0.256-0.012-0.214,0.123-0.63,0.444-1.248,0.962l-0.965,0.81c0.858,0.105,1.485,0.173,1.878,0.2l1.036,0.072c0.356,0.025,0.83,0.039,1.419,0.049l0.27-0.226,0.074,0.01c0.152,0.214,0.308,0.415,0.47,0.608,0.189,0.226,0.419,0.483,0.689,0.773l-0.005,0.072-0.242,0.203-0.072-0.008c-0.252-0.3-0.488-0.482-0.706-0.547-0.315-0.093-0.998-0.2-2.044-0.32l-1.406-0.16c-0.058,0.239-0.127,0.607-0.208,1.103l-0.28,1.721c-0.209,1.275-0.293,1.981-0.256,2.122,0.024,0.086,0.094,0.202,0.212,0.347l-0.01,0.075-0.26,0.218zm10.863,0.03-0.221,0.254-0.075,0.002c-0.303-0.193-0.555-0.283-0.757-0.271-0.2,0.012-0.745,0.194-1.631,0.548-0.871,0.352-1.741,0.701-2.613,1.048-1.44,0.542-2.343,0.783-2.714,0.723-0.284-0.045-0.545-0.174-0.785-0.382-0.107-0.093-0.207-0.21-0.298-0.353l0.012-0.091c0.047-0.049,0.081-0.085,0.103-0.11,0.227-0.262,0.499-0.651,0.819-1.167l0.08-0.024,0.143,0.092,0.038,0.072c-0.089,0.515,0.001,0.89,0.269,1.123,0.212,0.184,0.433,0.258,0.661,0.223,0.096-0.013,0.247-0.065,0.449-0.154,0.53-1.823,0.987-3.3,1.37-4.434,0.124-0.363,0.176-0.609,0.158-0.738-0.014-0.106-0.161-0.296-0.439-0.57l-0.01-0.074,0.221-0.254,0.078-0.013c0.14,0.154,0.536,0.514,1.187,1.081,0.366,0.317,0.752,0.639,1.159,0.965l0.006,0.079-0.221,0.254-0.067,0.008c-0.043-0.033-0.198-0.137-0.461-0.313-0.113-0.076-0.201-0.081-0.261-0.011-0.018,0.02-0.051,0.09-0.103,0.213-0.12,0.281-0.297,0.826-0.534,1.635l-0.461,1.584,1.826-0.816c0.474-0.21,0.839-0.389,1.092-0.536,0.134-0.077,0.221-0.137,0.258-0.18,0.058-0.067,0.017-0.194-0.121-0.381-0.105-0.146-0.208-0.274-0.304-0.385l-0.008-0.075,0.224-0.257,0.078-0.006c0.229,0.231,0.558,0.533,0.987,0.906,0.359,0.312,0.646,0.549,0.864,0.71l0.002,0.075zm4.539,4.767c-0.38,0.586-0.876,0.913-1.488,0.98-0.612,0.07-1.168-0.059-1.671-0.386-0.17-0.11-0.329-0.241-0.477-0.395,0.024-0.092,0.042-0.227,0.05-0.402l0.149-0.037c0.096,0.118,0.192,0.209,0.29,0.273,0.287,0.186,0.584,0.235,0.888,0.145,0.306-0.091,0.576-0.321,0.814-0.687,0.515-0.792,0.415-1.419-0.297-1.881-0.086-0.056-0.267-0.149-0.545-0.281-0.069,0.052-0.383,0.507-0.942,1.368l-1.463,2.253c-0.439,0.676-0.706,1.127-0.802,1.356-0.039,0.092-0.025,0.175,0.043,0.251,0.021,0.022,0.207,0.163,0.555,0.422l0.016,0.077-0.182,0.28-0.071,0.017c-0.377-0.27-0.837-0.582-1.38-0.934-0.61-0.396-1.053-0.672-1.328-0.825l-0.016-0.067,0.185-0.285,0.076-0.016c0.298,0.169,0.472,0.261,0.523,0.277,0.095,0.032,0.178,0.01,0.246-0.063,0.171-0.181,0.473-0.608,0.912-1.284l1.463-2.253c0.439-0.677,0.708-1.128,0.803-1.357,0.039-0.092,0.025-0.175-0.042-0.251-0.037-0.039-0.193-0.161-0.471-0.366l-0.012-0.074,0.183-0.282,0.074-0.012c0.266,0.198,0.689,0.484,1.266,0.859,0.238,0.155,0.584,0.373,1.039,0.656,0.453,0.282,0.715,0.446,0.783,0.49,0.778,0.505,1.155,1.031,1.132,1.576-0.014,0.283-0.115,0.569-0.303,0.858zm5.032,8.736-0.061,0.024c-0.66-0.331-1.124-0.559-1.391-0.684-0.596-0.277-1.078-0.491-1.449-0.641l-0.026-0.064,0.146-0.312,0.066-0.025c0.322,0.127,0.51,0.196,0.561,0.204,0.101,0.019,0.179-0.014,0.237-0.096,0.142-0.203,0.384-0.668,0.724-1.398l0.436-0.935c-0.685,0.33-1.442,0.303-2.269-0.083-0.541-0.252-0.918-0.575-1.133-0.972-0.235-0.435-0.251-0.918-0.047-1.45,0.105-0.273,0.283-0.68,0.536-1.223,0.249-0.534,0.372-0.867,0.371-0.999-0.002-0.116-0.115-0.251-0.338-0.403l-0.214-0.146-0.026-0.062,0.146-0.312,0.065-0.022,1.368,0.673c0.343,0.16,0.828,0.375,1.453,0.643l0.028,0.065-0.146,0.312-0.066,0.019c-0.295-0.103-0.497-0.153-0.603-0.147-0.077,0.006-0.158,0.049-0.24,0.129-0.09,0.09-0.257,0.396-0.502,0.921-0.246,0.528-0.398,0.935-0.454,1.223-0.059,0.305-0.02,0.593,0.118,0.868,0.138,0.273,0.346,0.475,0.626,0.605,0.448,0.209,0.96,0.176,1.54-0.095l0.487-1.044c0.341-0.731,0.542-1.217,0.605-1.455,0.026-0.096,0.001-0.177-0.077-0.244-0.04-0.032-0.214-0.132-0.518-0.297l-0.024-0.067,0.146-0.312,0.065-0.022,1.377,0.677c0.344,0.16,0.828,0.374,1.454,0.643l0.026,0.064-0.146,0.313-0.067,0.024c-0.321-0.127-0.508-0.195-0.56-0.205-0.099-0.016-0.179,0.015-0.235,0.098-0.143,0.201-0.384,0.668-0.725,1.399l-1.135,2.435c-0.341,0.73-0.543,1.214-0.606,1.454-0.027,0.096-0.001,0.178,0.077,0.242,0.041,0.035,0.213,0.134,0.516,0.298l0.025,0.067-0.141,0.315zm7.932,2.648-0.06,0.034c-0.704-0.264-1.129-0.422-1.276-0.472-0.589-0.203-1.139-0.382-1.653-0.536l-0.025-0.064,0.104-0.302,0.066-0.038,0.426,0.122c0.178,0.05,0.288,0.018,0.328-0.097,0.023-0.067,0.03-0.233,0.021-0.498l-0.04-1.147c-0.44-0.159-0.889-0.317-1.351-0.476-0.25-0.086-0.621-0.21-1.117-0.374l-0.413,0.513c-0.314,0.39-0.49,0.641-0.528,0.753-0.042,0.121,0.008,0.219,0.151,0.294,0.079,0.042,0.237,0.111,0.477,0.206l0.031,0.066-0.105,0.306-0.065,0.033c-0.585-0.223-0.963-0.365-1.132-0.423-0.131-0.045-0.461-0.147-0.985-0.306l-0.033-0.061,0.108-0.311,0.069-0.031c0.335,0.095,0.56,0.099,0.674,0.012,0.114-0.086,0.627-0.655,1.536-1.709l2.334-2.704c0.177-0.212,0.444-0.529,0.801-0.954l0.682,0.235,0.484,6.863c0.02,0.262,0.066,0.42,0.136,0.476,0.092,0.076,0.237,0.148,0.436,0.216l0.024,0.067-0.105,0.307zm-2.154-3.631-0.162-2.87-1.851,2.177c0.261,0.1,0.6,0.223,1.019,0.367,0.406,0.14,0.738,0.249,0.994,0.326zm10.946-2.126c-0.089,0.238-0.159,0.489-0.213,0.75l-0.172,0.83-0.06,0.041-0.314-0.061-0.046-0.056c0.066-0.429,0.095-0.681,0.091-0.758-0.015-0.14-0.105-0.239-0.274-0.297-0.065-0.023-0.377-0.089-0.935-0.197l-0.667-0.13c-0.03,0.116-0.123,0.576-0.28,1.385l-0.55,2.831c-0.154,0.791-0.232,1.309-0.235,1.558-0.002,0.1,0.042,0.172,0.134,0.216,0.046,0.024,0.237,0.078,0.572,0.165l0.041,0.059-0.065,0.334-0.061,0.04c-0.324-0.084-0.834-0.193-1.528-0.328-0.711-0.139-1.226-0.228-1.541-0.268l-0.037-0.055,0.066-0.339,0.061-0.039c0.342,0.045,0.539,0.066,0.591,0.062,0.102-0.007,0.17-0.057,0.206-0.151,0.089-0.231,0.212-0.741,0.365-1.532l0.551-2.831c0.159-0.822,0.244-1.284,0.254-1.39l-0.713-0.139c-0.594-0.115-0.945-0.164-1.052-0.148-0.057,0.011-0.099,0.029-0.124,0.054-0.041,0.048-0.087,0.149-0.136,0.305-0.059,0.171-0.109,0.35-0.152,0.534l-0.059,0.042-0.315-0.062-0.045-0.061,0.156-0.855c0.043-0.238,0.072-0.49,0.085-0.753l0.054-0.042c0.191,0.072,0.902,0.228,2.134,0.467l2.019,0.393c1.137,0.221,1.855,0.343,2.154,0.366l0.04,0.06zm8.079,3.607c-0.044,1.249-0.442,2.215-1.194,2.9-0.731,0.667-1.709,0.978-2.934,0.935-1.157-0.041-2.054-0.398-2.691-1.073-0.637-0.674-0.936-1.591-0.896-2.752,0.057-1.627,0.718-2.733,1.982-3.315,0.575-0.264,1.274-0.382,2.101-0.353,1.179,0.041,2.088,0.383,2.723,1.025,0.643,0.652,0.947,1.53,0.909,2.633zm-1.573,0.209c0.034-0.981-0.135-1.767-0.509-2.358-0.376-0.59-0.942-0.898-1.702-0.925-1.007-0.035-1.688,0.392-2.049,1.285-0.184,0.457-0.287,0.974-0.307,1.549-0.037,1.046,0.127,1.877,0.492,2.497,0.377,0.639,0.964,0.974,1.758,1.001,0.965,0.034,1.63-0.418,1.994-1.357,0.194-0.498,0.301-1.062,0.323-1.692zm8.394,0.426c0.118,0.841-0.197,1.55-0.948,2.127-0.369,0.284-0.871,0.472-1.505,0.561-0.201,0.029-0.367,0.05-0.498,0.065l-1.206,0.143c-0.429,0.061-0.76,0.118-0.991,0.171l-0.058-0.044-0.02-0.141,0.017-0.063c0.225-0.193,0.347-0.31,0.36-0.354,0.022-0.064,0.01-0.29-0.039-0.675l-0.143-1.13-0.358-2.549c-0.112-0.799-0.206-1.316-0.284-1.55-0.031-0.095-0.097-0.149-0.197-0.163-0.053-0.005-0.251,0.006-0.595,0.033l-0.057-0.043-0.048-0.341,0.043-0.054c0.302-0.021,0.814-0.083,1.542-0.185,0.464-0.065,0.88-0.132,1.25-0.202,0.293-0.055,0.541-0.097,0.745-0.126,0.936-0.131,1.58-0.005,1.932,0.38,0.184,0.204,0.298,0.452,0.339,0.744,0.067,0.475-0.063,0.898-0.391,1.269-0.155,0.177-0.325,0.314-0.505,0.415-0.21,0.115-0.441,0.221-0.694,0.318,1.39-0.134,2.159,0.331,2.309,1.394zm-2.202-2.938c-0.104-0.739-0.542-1.056-1.313-0.947-0.256,0.036-0.47,0.079-0.643,0.13,0.035,0.354,0.074,0.681,0.116,0.98l0.195,1.387c0.078-0.004,0.233-0.023,0.465-0.055,0.606-0.085,0.979-0.336,1.115-0.752,0.078-0.24,0.101-0.487,0.065-0.743zm0.686,3.311c-0.142-1.007-0.741-1.435-1.797-1.287-0.134,0.019-0.286,0.045-0.456,0.078l0.327,2.33c0.036,0.25,0.077,0.497,0.125,0.737,0.14,0.003,0.334-0.013,0.583-0.047,0.469-0.066,0.81-0.265,1.024-0.596,0.198-0.315,0.263-0.72,0.194-1.215zm16.714-2.687-0.025,0.071c-0.28,0.095-0.566,0.201-0.857,0.318-0.299,0.121-0.572,0.241-0.82,0.36l-0.068-0.035-0.191-0.607-0.078,0.01c-0.134,0.274-0.224,0.453-0.271,0.537-0.095,0.173-0.185,0.31-0.271,0.411-0.159,0.185-0.391,0.339-0.696,0.462-0.797,0.322-1.356,0.088-1.675-0.703-0.166-0.411-0.173-0.781-0.018-1.105,0.118-0.249,0.474-0.561,1.065-0.94l1.064-0.675c-0.121-0.28-0.232-0.482-0.333-0.606-0.151-0.184-0.342-0.297-0.576-0.343-0.189-0.032-0.38-0.011-0.571,0.066-0.138,0.056-0.309,0.151-0.515,0.287l-0.079,0.83-0.048,0.058-0.218,0.044-0.074-0.047-0.205-0.644c0.535-0.783,1.014-1.259,1.438-1.43,0.596-0.241,1.107-0.231,1.534,0.031,0.253,0.154,0.46,0.431,0.623,0.832,0.053,0.132,0.176,0.462,0.371,0.991,0.078,0.209,0.147,0.389,0.208,0.54,0.281,0.696,0.458,1.066,0.529,1.106,0.07,0.041,0.268,0.002,0.59-0.113l0.06,0.03,0.107,0.264zm-2.417-0.875-0.307-0.758c-0.253,0.197-0.446,0.354-0.577,0.469-0.266,0.229-0.434,0.401-0.504,0.515-0.147,0.243-0.164,0.504-0.051,0.784,0.078,0.194,0.207,0.329,0.385,0.407,0.177,0.079,0.363,0.079,0.557,0.001,0.299-0.121,0.495-0.344,0.591-0.667,0.059-0.2,0.028-0.448-0.094-0.751zm8.135-2.002-0.02,0.069c-0.296,0.13-0.71,0.337-1.246,0.621-0.499,0.266-0.902,0.494-1.207,0.683l-0.069-0.022-0.146-0.274,0.021-0.068c0.255-0.155,0.415-0.261,0.475-0.321,0.039-0.04,0.057-0.093,0.05-0.158-0.007-0.067-0.142-0.355-0.406-0.866l-1.259-2.391-0.068,0.036c-0.156,2.553-0.185,3.923-0.087,4.108,0.076,0.142,0.295,0.132,0.656-0.033l0.075,0.012,0.133,0.251-0.031,0.069c-0.477,0.23-0.795,0.388-0.958,0.474-0.182,0.097-0.451,0.252-0.81,0.466l-0.075-0.012-0.136-0.256,0.024-0.064c0.184-0.102,0.298-0.245,0.346-0.432,0.02-0.071,0.095-0.719,0.225-1.943l0.193-1.769c0.049-0.436,0.064-0.67,0.048-0.699-0.028-0.054-0.339,0.049-0.932,0.311l-0.081-0.008-0.143-0.269,0.027-0.072,1.422-0.722c0.251-0.126,0.574-0.309,0.967-0.548l0.137-0.004c0.452,0.931,0.839,1.7,1.158,2.299,0.127,0.239,0.263,0.487,0.407,0.744,0.197,0.349,0.326,0.557,0.387,0.629,0.046,0.06,0.108,0.084,0.184,0.075,0.075-0.009,0.25-0.08,0.525-0.211l0.068,0.021,0.146,0.274zm5.031-3.226-0.011,0.075c-0.257,0.146-0.517,0.305-0.78,0.476-0.271,0.175-0.516,0.345-0.736,0.509l-0.074-0.021-0.303-0.559-0.075,0.024c-0.079,0.295-0.134,0.488-0.163,0.579-0.06,0.188-0.123,0.34-0.189,0.455-0.12,0.213-0.318,0.407-0.594,0.586-0.721,0.469-1.314,0.345-1.779-0.37-0.241-0.372-0.319-0.733-0.228-1.081,0.068-0.268,0.358-0.642,0.865-1.127l0.916-0.865c-0.171-0.252-0.319-0.429-0.442-0.531-0.183-0.152-0.393-0.227-0.631-0.227-0.191,0.004-0.375,0.062-0.548,0.174-0.125,0.081-0.274,0.207-0.45,0.379l0.08,0.83-0.035,0.067-0.206,0.084-0.082-0.031-0.324-0.594c0.375-0.87,0.755-1.429,1.139-1.678,0.539-0.35,1.042-0.437,1.511-0.262,0.278,0.103,0.534,0.335,0.77,0.698,0.078,0.119,0.262,0.419,0.554,0.902,0.116,0.191,0.218,0.354,0.307,0.49,0.409,0.63,0.653,0.959,0.73,0.985,0.077,0.027,0.264-0.049,0.558-0.223l0.065,0.017,0.155,0.239zm-2.54-0.397-0.445-0.686c-0.211,0.242-0.37,0.432-0.477,0.57-0.218,0.276-0.35,0.477-0.396,0.602-0.099,0.267-0.066,0.526,0.098,0.779,0.115,0.176,0.267,0.284,0.456,0.327,0.19,0.044,0.372,0.008,0.547-0.106,0.271-0.176,0.42-0.432,0.453-0.767,0.02-0.208-0.058-0.446-0.236-0.719zm3.722-6.481c0.146,0.4,0.342,0.78,0.591,1.141l-0.006,0.066-0.209,0.168-0.068-0.012c-0.407-0.384-0.765-0.545-1.072-0.483-0.152,0.032-0.294,0.1-0.423,0.204-0.41,0.332-0.509,0.798-0.297,1.398,0.106,0.306,0.272,0.596,0.496,0.872,0.588,0.726,1.209,1.044,1.864,0.955,0.324-0.046,0.617-0.174,0.877-0.384,0.259-0.21,0.435-0.482,0.527-0.82l0.183,0.082,0.075,0.495c-0.205,0.48-0.526,0.896-0.962,1.249-0.555,0.45-1.139,0.637-1.753,0.563-0.613-0.074-1.145-0.39-1.597-0.948-0.528-0.652-0.731-1.355-0.609-2.108,0.118-0.722,0.505-1.35,1.165-1.885,0.382-0.308,0.76-0.508,1.133-0.595l0.085,0.042zm9.12-2.789,0.002,0.073c-0.236,0.218-0.562,0.55-0.975,0.992-0.385,0.413-0.692,0.76-0.919,1.039l-0.072,0.001-0.227-0.212,0.001-0.074c0.189-0.223,0.301-0.371,0.337-0.45,0.043-0.094-0.021-0.23-0.186-0.403,0.016,0.015-0.099-0.092-0.35-0.326l-1.114-1.039c-0.5-0.466-0.816-0.749-0.95-0.85-0.083-0.064-0.164-0.08-0.242-0.046-0.064,0.028-0.208,0.155-0.435,0.378h-0.075l-0.227-0.212-0.003-0.071c0.236-0.219,0.56-0.549,0.971-0.99,0.416-0.446,0.723-0.794,0.923-1.041l0.073-0.004,0.226,0.212-0.001,0.082c-0.203,0.228-0.321,0.381-0.354,0.461-0.04,0.094,0.038,0.237,0.235,0.435-0.075-0.075,0.055,0.044,0.389,0.355l1.474,1.375c0.285,0.266,0.473,0.425,0.563,0.477,0.091,0.052,0.206,0.022,0.345-0.088,0.012-0.008,0.105-0.098,0.282-0.272l0.082-0.014,0.227,0.212zm-3.014,0.827c0.681,0.635,0.74,1.359,0.18,2.168-0.174,0.25-0.368,0.489-0.582,0.713l-1.047,1.101c-0.176,0.183-0.454,0.496-0.833,0.938l-0.072,0.009-0.23-0.214v-0.069c0.189-0.222,0.301-0.371,0.337-0.449,0.028-0.061,0.022-0.128-0.021-0.202-0.039-0.062-0.21-0.237-0.519-0.524l-1.236-1.153c-0.572-0.533-0.899-0.802-0.977-0.807-0.052-0.002-0.1,0.011-0.142,0.041-0.063,0.044-0.196,0.164-0.397,0.36l-0.064,0.002-0.227-0.212-0.013-0.059c0.414-0.416,0.735-0.746,0.964-0.991,0.317-0.339,0.622-0.682,0.917-1.026l0.074-0.006,0.227,0.211,0.003,0.071c-0.076,0.091-0.154,0.182-0.231,0.271-0.102,0.132-0.143,0.236-0.126,0.313,0.011,0.056,0.082,0.146,0.21,0.265l0.631,0.589,0.957-1.019c0.39-0.418,0.77-0.656,1.141-0.715,0.37-0.061,0.729,0.07,1.076,0.394zm-0.977,0.952c-0.305-0.284-0.614-0.371-0.932-0.26-0.18,0.064-0.516,0.36-1.008,0.888l1.065,0.993c0.315,0.293,0.54,0.427,0.677,0.401,0.078-0.015,0.164-0.072,0.256-0.171,0.163-0.175,0.275-0.381,0.333-0.619,0.061-0.254,0.05-0.489-0.032-0.703-0.073-0.198-0.193-0.374-0.359-0.529z"/>
   <path id="path3045" d="m315.2,473.04c-0.026,0.489-0.01,1.141,0.047,1.952l-0.045,0.06-0.265,0.076-0.076-0.025c-0.172-0.6-0.283-0.956-0.333-1.073-0.079-0.174-0.184-0.276-0.315-0.305-0.109-0.023-0.291,0.001-0.547,0.067-0.134,0.034-0.241,0.027-0.318-0.021-0.266-0.117-0.656-0.372-1.175-0.766-0.629-0.478-1.022-0.766-1.178-0.862l0.269,0.936c0.107,0.375,0.187,0.608,0.238,0.699s0.167,0.125,0.351,0.099c0.013,0,0.143-0.03,0.386-0.089l0.062,0.034,0.086,0.299-0.034,0.063c-0.315,0.066-0.757,0.18-1.323,0.342-0.583,0.167-1.023,0.306-1.323,0.417l-0.063-0.036-0.086-0.298,0.035-0.062c0.226-0.072,0.355-0.115,0.387-0.128,0.168-0.075,0.25-0.167,0.243-0.275-0.007-0.097-0.064-0.335-0.174-0.716l-0.465-1.625c-0.217-0.755-0.359-1.154-0.422-1.195-0.04-0.026-0.089-0.04-0.148-0.037-0.087,0.005-0.264,0.037-0.527,0.099l-0.062-0.035-0.086-0.298,0.034-0.062c0.306-0.065,0.753-0.18,1.343-0.349,0.587-0.168,1.02-0.305,1.303-0.41l0.062,0.035,0.086,0.298-0.034,0.062c-0.252,0.079-0.384,0.121-0.397,0.125-0.169,0.077-0.246,0.174-0.233,0.294,0.01,0.1,0.077,0.365,0.201,0.797l0.251,0.874c0.285-0.421,0.612-1.034,0.983-1.84,0.123-0.264,0.176-0.416,0.165-0.455-0.01-0.038-0.032-0.062-0.067-0.07l-0.065-0.028-0.08-0.278,0.044-0.066c0.276-0.059,0.547-0.126,0.813-0.202,0.215-0.062,0.441-0.137,0.675-0.224l0.074,0.031,0.084,0.293-0.04,0.048c-0.203,0.065-0.417,0.233-0.642,0.501-0.421,0.501-0.797,1.015-1.127,1.544,0.188,0.125,0.473,0.31,0.854,0.552l0.816,0.516c0.559,0.358,0.925,0.573,1.097,0.647,0.147,0.064,0.338,0.069,0.576,0.015l0.085,0.055z"/>
  </g>
 </g>
</svg>
