<?xml version="1.0" encoding="UTF-8" standalone="no"?>
<!-- Created with Inkscape (http://www.inkscape.org/) -->

<svg
   xmlns:dc="http://purl.org/dc/elements/1.1/"
   xmlns:cc="http://creativecommons.org/ns#"
   xmlns:rdf="http://www.w3.org/1999/02/22-rdf-syntax-ns#"
   xmlns:svg="http://www.w3.org/2000/svg"
   xmlns="http://www.w3.org/2000/svg"
   xmlns:xlink="http://www.w3.org/1999/xlink"
   xmlns:sodipodi="http://sodipodi.sourceforge.net/DTD/sodipodi-0.dtd"
   xmlns:inkscape="http://www.inkscape.org/namespaces/inkscape"
   width="200"
   height="200"
   id="svg2"
   version="1.1"
   inkscape:version="0.48.0 r9654"
   sodipodi:docname="satpaev.svg">
  <defs
     id="defs4">
    <linearGradient
       id="linearGradient3774">
      <stop
         style="stop-color:#bfe6f8;stop-opacity:1;"
         offset="0"
         id="stop3776" />
      <stop
         style="stop-color:#c4e2f0;stop-opacity:0;"
         offset="1"
         id="stop3778" />
    </linearGradient>
    <linearGradient
       inkscape:collect="always"
       xlink:href="#linearGradient3774"
       id="linearGradient4462"
       gradientUnits="userSpaceOnUse"
       x1="100.90869"
       y1="86.759315"
       x2="100.90869"
       y2="151.21898" />
  </defs>
  <sodipodi:namedview
     id="base"
     pagecolor="#ffffff"
     bordercolor="#666666"
     borderopacity="1.0"
     inkscape:pageopacity="0.0"
     inkscape:pageshadow="2"
     inkscape:zoom="2.1043498"
     inkscape:cx="118.75464"
     inkscape:cy="95.40873"
     inkscape:document-units="px"
     inkscape:current-layer="layer1"
     showgrid="false"
     inkscape:window-width="1668"
     inkscape:window-height="961"
     inkscape:window-x="0"
     inkscape:window-y="31"
     inkscape:window-maximized="1"
     showguides="true"
     inkscape:guide-bbox="true" />
  <metadata
     id="metadata7">
    <rdf:RDF>
      <cc:Work
         rdf:about="">
        <dc:format>image/svg+xml</dc:format>
        <dc:type
           rdf:resource="http://purl.org/dc/dcmitype/StillImage" />
        <dc:title />
      </cc:Work>
    </rdf:RDF>
  </metadata>
  <g
     inkscape:label="Layer 1"
     inkscape:groupmode="layer"
     id="layer1"
     transform="translate(0,-852.36218)">
    <g
       id="g4369"
       transform="matrix(0.85356095,0,0,0.8536748,-6.6951187,160.09622)">
      <path
         transform="matrix(3.5595855,0,0,3.5595855,-234.42721,504.04882)"
         d="m 133.40053,119.11962 c 0,17.90843 -14.51765,32.42608 -32.42607,32.42608 -17.90843,0 -32.426078,-14.51765 -32.426078,-32.42608 0,-17.90843 14.517648,-32.426074 32.426078,-32.426074 17.90842,0 32.42607,14.517644 32.42607,32.426074 z"
         sodipodi:ry="32.426075"
         sodipodi:rx="32.426075"
         sodipodi:cy="119.11962"
         sodipodi:cx="100.97446"
         id="path3002"
         style="fill:#79bcf6;fill-opacity:1;fill-rule:nonzero;stroke:none"
         sodipodi:type="arc" />
      <g
         transform="matrix(-1,0,0,1,249.56286,0)"
         id="g4057"
         style="fill:#fc8c04;fill-opacity:1">
        <path
           sodipodi:nodetypes="ccccccccccccccccc"
           inkscape:connector-curvature="0"
           id="path4059"
           d="m 40.805348,935.25374 c -7.12876,0.87621 -12.047341,7.05942 -13.01487,11.31088 -6.28107,-6.28769 -11.94326,-8.54645 -17.48753,-8.22059 l 0.29526,5.65122 c 11.90277,2.79469 17.23119,7.81287 13.22421,14.5933 -0.95176,1.37178 -2.58849,1.64101 -3.95838,1.27359 -2.85568,-1.16048 -2.76404,-4.48714 -2.04137,-6.12227 -2.27086,2.0089 -5.15323,2.92845 -2.77218,7.72849 l 1.82177,4.28326 c 6.50093,4.57282 11.68335,-2.35273 13.08198,-7.97105 4.33952,5.37798 14.42929,5.3141 15.76069,-0.55074 l -1.51457,-6.26211 c -0.62341,-1.15681 -2.3567,-2.30472 -4.24351,-2.82983 2.22619,3.0617 2.00298,4.6419 0.79695,7.11239 -1.10842,1.5396 -3.12487,1.72295 -4.95414,1.291 -6.54884,-2.47133 -4.90136,-12.82475 5.44013,-15.36987 z"
           style="fill:#fc8c04;fill-opacity:1;stroke:none" />
        <path
           sodipodi:nodetypes="ccccsccccccccscccccccscccccccc"
           inkscape:connector-curvature="0"
           id="path4061"
           d="m 32.430786,965.11838 c -0.10885,2.88419 -0.911418,5.89086 0.499742,8.77505 -4.11013,-1.55037 -10.71844,-1.93319 -11.0625,5.375 1.45609,2.54816 3.46278,3.83331 7.46875,10.84375 -5.60383,-12.45594 5.11553,-14.98173 8.53125,-9.75 2.41067,3.69232 5.5645,8.0635 2.625,24.62502 l 8.25,8.6562 c -0.0454,-0.09 -0.0809,-0.1904 -0.125,-0.2812 0.44354,0.4362 0.93144,0.8227 1.53125,1.1875 4.620265,2.4854 14.744237,0.6347 11.899794,-9.9559 5.65407,-0.1961 12.124456,-0.6439 12.131456,-11.70037 l -2.3125,-1.125 -9.59375,-8.125 c -11.668,1.02746 -17.48511,-2.86501 -19.4375,-5.75 -3.3121,-4.89419 5.0273,-9.98891 11.4375,-4.84375 l -4.875,-7.71875 0.0937,0.40625 c -5.42289,-1.121 -8.53776,0.76017 -10.15625,4.5625 -2.102918,-3.12411 -4.396062,-3.55157 -6.905942,-5.1813 z m 12.624742,20.1188 c 7.14636,3.65737 11.9736,3.17726 16.86535,3.58789 3.40206,0.066 6.370804,2.73202 7.070884,6.22157 0.63225,3.50055 -3.53205,5.80146 -6.31769,5.20346 -1.72633,-0.37059 -4.361499,-1.1463 -4.074639,-5.52506 l -6.431302,-0.81896 0.437758,6.78772 c 2.659845,0.2003 4.131616,0.7561 4.837036,1.9997 3.04129,5.3618 -1.736717,9.692 -6.338277,8.367 -5.3397,-2.3258 -5.43669,-7.8631 -4.95537,-13.13582 0.38198,-3.8983 0.28881,-7.99834 -1.09375,-12.6875 z"
           style="fill:#fc8c04;fill-opacity:1;stroke:none" />
        <path
           style="fill:#fc8c04;fill-opacity:1;stroke:none"
           d="m 105.88373,1028.7575 c -4.02579,-1.7994 -15.475402,-1.5376 -31.367652,3.9725 l -12.97954,-9.1228 c -1.85215,-7.1503 0.21248,-12.2274 10.83828,-12.8455 -1.87252,-3.4303 -0.8765,-11.37167 8.94893,-12.53114 l 1.30701,1.43446 12.39018,6.51488 c 0.8222,11.6843 9.362152,15.808 12.518542,17.2819 z m -7.961852,-8.0106 c -1.99806,-1.6078 -3.61542,-3.2068 -4.89592,-4.9197 -2.94172,-3.6712 -2.77565,-8.8029 -6.50554,-11.2811 -1.57637,-1.0202 -3.5033,-1.6059 -5.3064,-1.4713 -3.54733,0.2648 -5.67709,3.7293 -4.64804,6.3861 0.63774,1.6465 2.58826,4.3786 6.86727,3.406 l 2.84531,5.5915 -6.54521,1.9042 c -1.53836,-3.7139 -4.08414,-4.5034 -5.4233,-5.0043 -5.10167,-1.5712 -10.25101,2.5048 -8.21813,6.8404 3.1374,4.9069 9.20896,3.879 14.34018,2.5737 3.78954,-0.991 12.64136,-4.653 17.48979,-4.0255 z"
           id="path4063"
           inkscape:connector-curvature="0"
           sodipodi:nodetypes="ccccccccccccsccccccccc" />
      </g>
      <g
         style="fill:#fc8c04;fill-opacity:1"
         id="g4052">
        <path
           style="fill:#fc8c04;fill-opacity:1;stroke:none"
           d="m 40.805348,935.25374 c -7.12876,0.87621 -12.047341,7.05942 -13.01487,11.31088 -6.28107,-6.28769 -11.94326,-8.54645 -17.48753,-8.22059 l 0.29526,5.65122 c 11.90277,2.79469 17.23119,7.81287 13.22421,14.5933 -0.95176,1.37178 -2.58849,1.64101 -3.95838,1.27359 -2.85568,-1.16048 -2.76404,-4.48714 -2.04137,-6.12227 -2.27086,2.0089 -5.15323,2.92845 -2.77218,7.72849 l 1.82177,4.28326 c 6.50093,4.57282 11.68335,-2.35273 13.08198,-7.97105 4.33952,5.37798 14.42929,5.3141 15.76069,-0.55074 l -1.51457,-6.26211 c -0.62341,-1.15681 -2.3567,-2.30472 -4.24351,-2.82983 2.22619,3.0617 2.00298,4.6419 0.79695,7.11239 -1.10842,1.5396 -3.12487,1.72295 -4.95414,1.291 -6.54884,-2.47133 -4.90136,-12.82475 5.44013,-15.36987 z"
           id="path4043"
           inkscape:connector-curvature="0"
           sodipodi:nodetypes="ccccccccccccccccc" />
        <path
           style="fill:#fc8c04;fill-opacity:1;stroke:none"
           d="m 32.430786,965.11838 c -0.10885,2.88419 -0.911418,5.89086 0.499742,8.77505 -4.11013,-1.55037 -10.71844,-1.93319 -11.0625,5.375 1.45609,2.54816 3.46278,3.83331 7.46875,10.84375 -5.60383,-12.45594 5.11553,-14.98173 8.53125,-9.75 2.41067,3.69232 5.5645,8.0635 2.625,24.62502 l 8.25,8.6562 c -0.0454,-0.09 -0.0809,-0.1904 -0.125,-0.2812 0.44354,0.4362 0.93144,0.8227 1.53125,1.1875 4.620265,2.4854 14.744237,0.6347 11.899794,-9.9559 5.65407,-0.1961 12.124456,-0.6439 12.131456,-11.70037 l -2.3125,-1.125 -9.59375,-8.125 c -11.668,1.02746 -17.48511,-2.86501 -19.4375,-5.75 -3.3121,-4.89419 5.0273,-9.98891 11.4375,-4.84375 l -4.875,-7.71875 0.0937,0.40625 c -5.42289,-1.121 -8.53776,0.76017 -10.15625,4.5625 -2.102918,-3.12411 -4.396062,-3.55157 -6.905942,-5.1813 z m 12.624742,20.1188 c 7.14636,3.65737 11.9736,3.17726 16.86535,3.58789 3.40206,0.066 6.370804,2.73202 7.070884,6.22157 0.63225,3.50055 -3.53205,5.80146 -6.31769,5.20346 -1.72633,-0.37059 -4.361499,-1.1463 -4.074639,-5.52506 l -6.431302,-0.81896 0.437758,6.78772 c 2.659845,0.2003 4.131616,0.7561 4.837036,1.9997 3.04129,5.3618 -1.736717,9.692 -6.338277,8.367 -5.3397,-2.3258 -5.43669,-7.8631 -4.95537,-13.13582 0.38198,-3.8983 0.28881,-7.99834 -1.09375,-12.6875 z"
           id="path4045"
           inkscape:connector-curvature="0"
           sodipodi:nodetypes="ccccsccccccccscccccccscccccccc" />
        <path
           sodipodi:nodetypes="ccccccccccccsccccccccc"
           inkscape:connector-curvature="0"
           id="path4050"
           d="m 105.88373,1028.7575 c -4.02579,-1.7994 -15.475402,-1.5376 -31.367652,3.9725 l -12.97954,-9.1228 c -1.85215,-7.1503 0.21248,-12.2274 10.83828,-12.8455 -1.87252,-3.4303 -0.8765,-11.37167 8.94893,-12.53114 l 1.30701,1.43446 12.39018,6.51488 c 0.8222,11.6843 9.362152,15.808 12.518542,17.2819 z m -7.961852,-8.0106 c -1.99806,-1.6078 -3.61542,-3.2068 -4.89592,-4.9197 -2.94172,-3.6712 -2.77565,-8.8029 -6.50554,-11.2811 -1.57637,-1.0202 -3.5033,-1.6059 -5.3064,-1.4713 -3.54733,0.2648 -5.67709,3.7293 -4.64804,6.3861 0.63774,1.6465 2.58826,4.3786 6.86727,3.406 l 2.84531,5.5915 -6.54521,1.9042 c -1.53836,-3.7139 -4.08414,-4.5034 -5.4233,-5.0043 -5.10167,-1.5712 -10.25101,2.5048 -8.21813,6.8404 3.1374,4.9069 9.20896,3.879 14.34018,2.5737 3.78954,-0.991 12.64136,-4.653 17.48979,-4.0255 z"
           style="fill:#fc8c04;fill-opacity:1;stroke:none" />
      </g>
      <path
         sodipodi:type="arc"
         style="fill:url(#linearGradient4462);fill-opacity:1;fill-rule:nonzero;stroke:none"
         id="path3772"
         sodipodi:cx="100.97446"
         sodipodi:cy="119.11962"
         sodipodi:rx="32.426075"
         sodipodi:ry="32.426075"
         d="m 133.40053,119.11962 c 0,17.90843 -14.51765,32.42608 -32.42607,32.42608 -17.90843,0 -32.426078,-14.51765 -32.426078,-32.42608 0,-17.90843 14.517648,-32.426074 32.426078,-32.426074 17.90842,0 32.42607,14.517644 32.42607,32.426074 z"
         transform="matrix(2.5544041,0,0,2.5544041,-132.92957,623.78564)" />
      <path
         inkscape:connector-curvature="0"
         id="path3969"
         d="m 43.97043,913.24928 16.29704,0 0,-12.5168 5.29234,0 0,-4.45229 5.04032,0 0,4.45229 21.67339,0 0,-4.28428 6.88844,0 0,-29.31787 12.18078,0 0,48.21908 13.10484,0 0,-5.37634 8.90457,0 -2.52016,-27.55377 11.17271,0 -2.60416,27.80578 9.82863,0 0,4.95632 10.58467,0 0,-27.21774 25.87366,0 0,12.26478 6.3004,0 0,13.02084 14.61694,0 0.44892,25.30102 -162.52051,0 z"
         style="fill:#ffffff;stroke:none" />
      <g
         id="g4289">
        <path
           id="path3794"
           d="m 158.72178,886.70358 2.52016,0 0,48.34632 -2.52016,0 z"
           style="fill:#ac9393;fill-opacity:1;fill-rule:nonzero;stroke:none"
           inkscape:connector-curvature="0" />
        <path
           id="path3844"
           d="m 100.92608,899.45288 2.52016,0 0,30.8042 -2.52016,0 z"
           style="fill:#ac9393;fill-opacity:1;fill-rule:nonzero;stroke:none"
           inkscape:connector-curvature="0" />
        <path
           inkscape:connector-curvature="0"
           style="fill:#ac9393;fill-opacity:1;fill-rule:nonzero;stroke:none"
           d="m 73.87635,905.35277 2.52016,0 0,24.77502 -2.52016,0 z"
           id="path3862" />
        <path
           id="path3864"
           d="m 78.41264,905.35277 2.52016,0 0,25.01262 -2.52016,0 z"
           style="fill:#ac9393;fill-opacity:1;fill-rule:nonzero;stroke:none"
           inkscape:connector-curvature="0" />
        <path
           inkscape:connector-curvature="0"
           style="fill:#ac9393;fill-opacity:1;fill-rule:nonzero;stroke:none"
           d="m 83.28495,905.35277 2.52016,0 0,26.20064 -2.52016,0 z"
           id="path3866" />
        <path
           id="path3868"
           d="m 87.82124,905.35277 2.52016,0 0,26.67584 -2.52016,0 z"
           style="fill:#ac9393;fill-opacity:1;fill-rule:nonzero;stroke:none"
           inkscape:connector-curvature="0" />
        <g
           id="g4106"
           style="fill:#ac9393">
          <path
             id="rect3782"
             d="m 110.16667,865.87024 2.52016,0 0,50.73925 -2.52016,0 z"
             style="fill:#ac9393;fill-opacity:1;fill-rule:nonzero;stroke:none"
             inkscape:connector-curvature="0" />
          <path
             inkscape:connector-curvature="0"
             style="fill:#ac9393;fill-opacity:1;fill-rule:nonzero;stroke:none"
             d="m 98.23791,865.87024 2.52016,0 0,35.11425 -2.52016,0 z"
             id="path3785" />
          <path
             id="path3788"
             d="m 111.67878,865.87024 0,2.52016 -12.76882,0 0,-2.52016 z"
             style="fill:#ac9393;fill-opacity:1;fill-rule:nonzero;stroke:none"
             inkscape:connector-curvature="0" />
          <path
             inkscape:connector-curvature="0"
             style="fill:#ac9393;fill-opacity:1;fill-rule:nonzero;stroke:none"
             d="m 186.9476,886.70357 0,2.52016 -28.22581,0 0,-2.52016 z"
             id="path3790" />
          <path
             inkscape:connector-curvature="0"
             style="fill:#ac9393;fill-opacity:1;fill-rule:nonzero;stroke:none"
             d="m 111.67878,865.87024 0,2.52016 -12.76882,0 0,-2.52016 z"
             id="path3792" />
          <path
             id="path3796"
             d="m 184.42742,887.0396 2.52016,0 0,43.68279 -2.52016,0 z"
             style="fill:#ac9393;fill-opacity:1;fill-rule:nonzero;stroke:none"
             inkscape:connector-curvature="0" />
          <path
             inkscape:connector-curvature="0"
             style="fill:#ac9393;fill-opacity:1;fill-rule:nonzero;stroke:none"
             d="m 207.02487,929.2943 0,2.52016 -33.77016,0 0,-2.52016 z"
             id="path3798" />
          <path
             id="path3800"
             d="m 192.91196,899.05236 0,2.52016 -7.05644,0 0,-2.52016 z"
             style="fill:#ac9393;fill-opacity:1;fill-rule:nonzero;stroke:none"
             inkscape:connector-curvature="0" />
          <path
             inkscape:connector-curvature="0"
             style="fill:#ac9393;fill-opacity:1;fill-rule:nonzero;stroke:none"
             d="m 190.81183,899.05237 2.52016,0 0,31.50201 -2.52016,0 z"
             id="path3802" />
          <path
             inkscape:connector-curvature="0"
             style="fill:#ac9393;fill-opacity:1;fill-rule:nonzero;stroke:none"
             d="m 207.02487,912.1572 0,2.52016 -14.78495,0 0,-2.52016 z"
             id="path3804" />
          <path
             id="path3806"
             d="m 176.78293,895.0201 0,2.52016 -16.46505,0 0,-2.52016 z"
             style="fill:#ac9393;fill-opacity:1;fill-rule:nonzero;stroke:none"
             inkscape:connector-curvature="0" />
          <path
             inkscape:connector-curvature="0"
             style="fill:#ac9393;fill-opacity:1;fill-rule:nonzero;stroke:none"
             d="m 176.78293,901.0201 0,2.52016 -16.46505,0 0,-2.52016 z"
             id="path3808" />
          <path
             id="path3810"
             d="m 176.78293,908.02816 0,2.52016 -16.46505,0 0,-2.52016 z"
             style="fill:#ac9393;fill-opacity:1;fill-rule:nonzero;stroke:none"
             inkscape:connector-curvature="0" />
          <path
             inkscape:connector-curvature="0"
             style="fill:#ac9393;fill-opacity:1;fill-rule:nonzero;stroke:none"
             d="m 176.78293,915.20424 0,2.52016 -16.46505,0 0,-2.52016 z"
             id="path3812" />
          <path
             id="path3814"
             d="m 176.78293,922.04429 0,2.52016 -16.46505,0 0,-2.52016 z"
             style="fill:#ac9393;fill-opacity:1;fill-rule:nonzero;stroke:none"
             inkscape:connector-curvature="0" />
          <path
             inkscape:connector-curvature="0"
             style="fill:#ac9393;fill-opacity:1;fill-rule:nonzero;stroke:none"
             d="m 143.18078,881.21768 0,2.52016 -13.27284,0 0,-2.52016 z"
             id="path3816" />
          <path
             id="path3818"
             d="m 65.97986,899.47239 0,2.52016 -6.55242,0 0,-2.52016 z"
             style="fill:#ac9393;fill-opacity:1;fill-rule:nonzero;stroke:none"
             inkscape:connector-curvature="0" />
          <path
             inkscape:connector-curvature="0"
             style="fill:#ac9393;fill-opacity:1;fill-rule:nonzero;stroke:none"
             d="m 93.02959,899.47239 0,2.52016 -22.84946,0 0,-2.52016 z"
             id="path3820" />
          <path
             inkscape:connector-curvature="0"
             style="fill:#ac9393;fill-opacity:1;fill-rule:nonzero;stroke:none"
             d="m 102.43819,899.47239 0,2.52016 -5.04032,0 0,-2.52016 z"
             id="path3822" />
          <path
             id="path3824"
             d="m 64.29974,895.27212 2.52016,0 0,37.13038 -2.52016,0 z"
             style="fill:#ac9393;fill-opacity:1;fill-rule:nonzero;stroke:none"
             inkscape:connector-curvature="0" />
          <path
             inkscape:connector-curvature="0"
             style="fill:#ac9393;fill-opacity:1;fill-rule:nonzero;stroke:none"
             d="m 69.34006,895.27212 2.52016,0 0,37.13038 -2.52016,0 z"
             id="path3826" />
          <path
             inkscape:connector-curvature="0"
             style="fill:#ac9393;fill-opacity:1;fill-rule:nonzero;stroke:none"
             d="m 71.8713,895.10411 0,2.52016 -7.53253,0 0,-2.52016 z"
             id="path3828" />
          <path
             inkscape:connector-curvature="0"
             style="fill:#ac9393;fill-opacity:1;fill-rule:nonzero;stroke:none"
             d="m 91.18146,895.27212 2.52016,0 0,37.13038 -2.52016,0 z"
             id="path3830" />
          <path
             id="path3832"
             d="m 96.22178,895.27212 2.52016,0 0,37.13038 -2.52016,0 z"
             style="fill:#ac9393;fill-opacity:1;fill-rule:nonzero;stroke:none"
             inkscape:connector-curvature="0" />
          <path
             id="path3834"
             d="m 98.72332,895.28231 0,2.52016 -7.47313,0 0,-2.52016 z"
             style="fill:#ac9393;fill-opacity:1;fill-rule:nonzero;stroke:none"
             inkscape:connector-curvature="0" />
          <path
             inkscape:connector-curvature="0"
             style="fill:#ac9393;fill-opacity:1;fill-rule:nonzero;stroke:none"
             d="m 59.25942,899.46132 2.52016,0 0,32.94118 -2.52016,0 z"
             id="path3836" />
          <path
             id="path3838"
             d="m 60.51949,912.1572 0,2.52016 -15.82445,0 0,-2.52016 z"
             style="fill:#ac9393;fill-opacity:1;fill-rule:nonzero;stroke:none"
             inkscape:connector-curvature="0" />
          <path
             inkscape:connector-curvature="0"
             style="fill:#ac9393;fill-opacity:1;fill-rule:nonzero;stroke:none"
             d="m 125.37164,914.17333 0,2.52016 -15.20075,0 0,-2.52016 z"
             id="path3840" />
          <path
             id="path3842"
             d="m 159.30981,914.17333 0,2.52016 -11.25671,0 0,-2.52016 z"
             style="fill:#ac9393;fill-opacity:1;fill-rule:nonzero;stroke:none"
             inkscape:connector-curvature="0" />
          <path
             id="path3846"
             d="m 130.57997,923.41392 0,2.52016 -28.72983,0 0,-2.52016 z"
             style="fill:#ac9393;fill-opacity:1;fill-rule:nonzero;stroke:none"
             inkscape:connector-curvature="0" />
          <path
             id="path3848"
             d="m 129.3199,918.70963 2.52016,0 0,13.69287 -2.52016,0 z"
             style="fill:#ac9393;fill-opacity:1;fill-rule:nonzero;stroke:none"
             inkscape:connector-curvature="0" />
          <path
             inkscape:connector-curvature="0"
             style="fill:#ac9393;fill-opacity:1;fill-rule:nonzero;stroke:none"
             d="m 159.81384,918.70962 0,2.52016 -30.40994,0 0,-2.52016 z"
             id="path3850" />
          <path
             id="path3852"
             d="m 150.06922,908.965 0,2.52016 -26.37769,0 0,-2.52016 z"
             style="fill:#ac9393;fill-opacity:1;fill-rule:nonzero;stroke:none"
             inkscape:connector-curvature="0" />
          <path
             inkscape:connector-curvature="0"
             style="fill:#ac9393;fill-opacity:1;fill-rule:nonzero;stroke:none"
             d="m 123.35552,908.94549 2.52016,0 0,7.72937 -2.52016,0 z"
             id="path3854" />
          <path
             id="path3856"
             d="m 148.0531,908.965 2.52016,0 0,7.05645 -2.52016,0 z"
             style="fill:#ac9393;fill-opacity:1;fill-rule:nonzero;stroke:none"
             inkscape:connector-curvature="0" />
          <path
             inkscape:connector-curvature="0"
             style="fill:#ac9393;fill-opacity:1;fill-rule:nonzero;stroke:none"
             d="m 140.67167,882.36216 2.51287,0.1916 -2.03093,26.63639 -2.51287,-0.1916 z"
             id="path3858" />
          <path
             id="path3860"
             d="m 132.41705,882.36216 -2.51287,0.1916 2.03093,26.63639 2.51287,-0.1916 z"
             style="fill:#ac9393;fill-opacity:1;fill-rule:nonzero;stroke:none"
             inkscape:connector-curvature="0" />
          <path
             inkscape:connector-curvature="0"
             style="fill:#ac9393;fill-opacity:1;fill-rule:nonzero;stroke:none"
             d="m 127.89165,927.68558 0,2.52 -2.52,0 0,-2.52 z"
             id="path3870" />
          <path
             id="path3872"
             d="m 123.27135,927.68558 0,2.52 -2.52,0 0,-2.52 z"
             style="fill:#ac9393;fill-opacity:1;fill-rule:nonzero;stroke:none"
             inkscape:connector-curvature="0" />
          <path
             inkscape:connector-curvature="0"
             style="fill:#ac9393;fill-opacity:1;fill-rule:nonzero;stroke:none"
             d="m 118.98708,927.68558 0,2.52 -2.52,0 0,-2.52 z"
             id="path3874" />
          <path
             id="path3876"
             d="m 114.87082,927.68558 0,2.52 -2.52,0 0,-2.52 z"
             style="fill:#ac9393;fill-opacity:1;fill-rule:nonzero;stroke:none"
             inkscape:connector-curvature="0" />
          <path
             inkscape:connector-curvature="0"
             style="fill:#ac9393;fill-opacity:1;fill-rule:nonzero;stroke:none"
             d="m 110.67055,927.68558 0,2.52 -2.52,0 0,-2.52 z"
             id="path3878" />
          <path
             id="path3880"
             d="m 135.95617,924.24136 0,2.52 -2.52,0 0,-2.52 z"
             style="fill:#ac9393;fill-opacity:1;fill-rule:nonzero;stroke:none"
             inkscape:connector-curvature="0" />
          <path
             inkscape:connector-curvature="0"
             style="fill:#ac9393;fill-opacity:1;fill-rule:nonzero;stroke:none"
             d="m 140.24044,924.24136 0,2.52 -2.52,0 0,-2.52 z"
             id="path3882" />
          <path
             id="path3884"
             d="m 143.93668,924.24136 0,2.52 -2.52,0 0,-2.52 z"
             style="fill:#ac9393;fill-opacity:1;fill-rule:nonzero;stroke:none"
             inkscape:connector-curvature="0" />
          <path
             inkscape:connector-curvature="0"
             style="fill:#ac9393;fill-opacity:1;fill-rule:nonzero;stroke:none"
             d="m 147.96894,924.24136 0,2.52 -2.52,0 0,-2.52 z"
             id="path3886" />
          <path
             id="path3888"
             d="m 152.25321,924.24136 0,2.52 -2.52,0 0,-2.52 z"
             style="fill:#ac9393;fill-opacity:1;fill-rule:nonzero;stroke:none"
             inkscape:connector-curvature="0" />
          <path
             inkscape:connector-curvature="0"
             style="fill:#ac9393;fill-opacity:1;fill-rule:nonzero;stroke:none"
             d="m 156.53748,924.24136 0,2.52 -2.52,0 0,-2.52 z"
             id="path3890" />
          <path
             inkscape:connector-curvature="0"
             style="fill:#ac9393;fill-opacity:1;fill-rule:nonzero;stroke:none"
             d="m 143.93668,929.44969 0,2.52 -2.52,0 0,-2.52 z"
             id="path3892" />
          <path
             id="path3894"
             d="m 147.96894,929.44969 0,2.52 -2.52,0 0,-2.52 z"
             style="fill:#ac9393;fill-opacity:1;fill-rule:nonzero;stroke:none"
             inkscape:connector-curvature="0" />
          <path
             inkscape:connector-curvature="0"
             style="fill:#ac9393;fill-opacity:1;fill-rule:nonzero;stroke:none"
             d="m 152.25321,929.44969 0,2.52 -2.52,0 0,-2.52 z"
             id="path3896" />
          <path
             id="path3898"
             d="m 156.53748,929.44969 0,2.52 -2.52,0 0,-2.52 z"
             style="fill:#ac9393;fill-opacity:1;fill-rule:nonzero;stroke:none"
             inkscape:connector-curvature="0" />
          <path
             id="path3900"
             d="m 106.63845,901.32051 3.69624,0 0,8.31653 -3.69624,0 z"
             style="fill:#ac9393;fill-opacity:1;fill-rule:nonzero;stroke:none"
             inkscape:connector-curvature="0" />
          <path
             inkscape:connector-curvature="0"
             style="fill:#ac9393;fill-opacity:1;fill-rule:nonzero;stroke:none"
             d="m 106.63845,886.87158 3.69624,0 0,8.31653 -3.69624,0 z"
             id="path3902" />
          <path
             id="path3904"
             d="m 106.63845,872.42266 3.69624,0 0,8.31653 -3.69624,0 z"
             style="fill:#ac9393;fill-opacity:1;fill-rule:nonzero;stroke:none"
             inkscape:connector-curvature="0" />
        </g>
      </g>
      <path
         sodipodi:nodetypes="ccssssssssssc"
         inkscape:connector-curvature="0"
         id="path3000"
         d="m 42.64247,937.1068 c 12.97453,92.8258 145.01281,103.4813 164.14651,0.16801 -4.99172,-0.3754 -11.93007,-2.42577 -16.95968,-2.64327 -5.11967,-0.2214 -10.32307,3.36996 -18.68431,2.96645 -7.45203,-0.35963 -9.54275,-4.6185 -14.45492,-4.81777 -6.13685,-0.24896 -6.25284,2.99785 -10.8945,2.7627 -3.96482,-0.20086 -6.88766,-3.85471 -10.74332,-4.52764 -7.96574,-1.39026 -11.42919,2.20987 -16.80057,2.27365 -11.67618,0.13865 -14.48963,-6.47613 -19.31473,-6.71325 -6.83721,-0.33601 -6.60583,3.67567 -11.57518,4.03546 -2.29222,0.16597 -5.36927,-2.18953 -9.90767,-2.5207 -8.82626,-0.64406 -5.61753,5.06371 -20.83696,3.01892 -4.77823,-0.64197 -9.30229,4.27235 -13.97467,5.99744 z"
         style="fill:#64b383;fill-opacity:1;stroke:none" />
      <path
         id="path4353"
         transform="translate(0,802.36218)"
         d="m 80.46875,127.375 c -1.014124,0.17964 -1.192264,1.35212 -0.40625,1.8125 6.27819,4.34417 -1.47039,4.28694 0.125,11.78125 -8.75273,-3.27801 -3.46154,-11.78186 -21.375,-11.53125 -2.25076,-0.0753 -2.146129,2.28659 -0.75,1.875 11.94703,-1.71375 6.6697,10.96356 26.625,12.6875 1.677527,-0.17176 1.434042,-0.82378 0.59375,-1.625 -2.52747,-0.81718 -2.90971,-3.79041 -1.84375,-6.1875 2.49089,-5.8896 5.0251,-1.44818 7.21875,1.125 3.4243,4.06265 -2.083086,8.14928 9.5625,13.21875 2.01444,1.1219 2.2463,-1.19548 0.84375,-1.59375 -9.445336,-3.49495 -3.55887,-10.45638 -6.9375,-14.34375 -2.91231,-3.35086 -6.83123,-0.65509 -12.375,-7 -0.522462,-0.22175 -0.943209,-0.27863 -1.28125,-0.21875 z m 48.21875,2.03125 c -0.79431,0.0487 -1.52788,0.99999 -0.75,1.65625 2.86093,1.65027 4.74803,3.6634 0.75,7.96875 -1.24946,1.58549 1.03075,2.34056 1.625,0.90625 1.16048,-3.01179 2.39585,-5.93188 7.71875,-4.78125 1.00571,0.33009 1.46253,-2.12032 -0.25,-1.9375 -2.77218,1.27691 -5.54032,0.15139 -8.3125,-3.5 -0.22389,-0.22091 -0.51648,-0.32873 -0.78125,-0.3125 z m 25.125,4.15625 c -0.80738,-0.044 -1.58688,0.63004 -1.125,1.6875 1.11312,2.87156 3.07302,4.18055 5.0625,6.21875 -2.21094,1.44115 -3.55033,1.07606 -5.78125,4.84375 -0.66672,1.41156 0.69071,1.64446 1.28125,0.34375 1.38343,-1.91698 3.34728,-3.01826 5.375,-4.1875 1.54164,1.79772 3.0455,4.21805 4.09375,8.40625 0.23423,1.40916 1.62294,1.53593 1.34375,0 -1.65977,-6.06711 -2.99965,-7.78509 -4.34375,-9.0625 1.78368,-1.06978 3.573,-2.30629 5.0625,-4.34375 1.15125,-1.44339 -1.00402,-2.77985 -2.09375,-1.34375 -1.66725,2.42297 -2.94289,3.80056 -4.03125,4.6875 -1.10165,-1.05515 -2.26201,-2.4744 -3.625,-6.3125 -0.25554,-0.62587 -0.73431,-0.91111 -1.21875,-0.9375 z m -96.6875,0.34375 c -0.14947,0.0219 -0.318694,0.0533 -0.5,0.0937 -3.65493,2.69235 3.09856,6.65171 -3.6875,9.9375 -0.84617,0.97014 0.05052,2.51347 1.75,1.5625 2.696,-2.6356 5.49004,-2.17757 8.25,-0.5 1.92973,1.17295 2.87125,3.56712 5.46875,4.34375 2.03647,0.60889 6.01987,0.053 8.5625,0.21875 3.24713,0.2116 5.67576,3.12563 8.84375,3.3125 1.8265,0.60168 2.84635,-1.87776 1,-2 -5.66385,-0.23407 -6.22096,-3.64913 -10.125,-3.3125 -5.09672,0.43948 -9.92692,0.54788 -11.4375,-4.1875 -1.13025,-3.54312 -10.52723,1.75627 -7.0625,-8.84375 -0.297693,-0.61505 -0.614091,-0.69056 -1.0625,-0.625 z m 139.5625,0.90625 c -0.12672,-0.0181 -0.27762,-0.003 -0.4375,0.0312 -1.39509,0.23235 -3.35685,1.765 -4.03125,1.1875 -0.76616,-0.65607 -1.48783,0.98406 -3.3125,3.53125 -1.5853,2.21305 6.5965,4.58725 -4.34375,11.71875 -0.45493,0.79831 0.17993,1.77156 1.5,0.46875 6.35287,-2.80536 6.89961,-8.55708 5.34375,-10.09375 -1.26829,-1.25265 0.29462,-3.77467 2.6875,-2.9375 1.21604,0.42544 -1.5079,-2.07835 2.53125,-2.15625 0.99785,-0.36285 0.94957,-1.62344 0.0625,-1.75 z m -15.8125,0.0625 c -0.12664,-0.018 -0.27763,-0.003 -0.4375,0.0312 -3.25437,2.12406 -3.96476,-1.69999 -6.90625,2.40625 -1.58529,2.21305 4.16169,2.06339 -1.90625,10.875 -0.45493,0.79831 0.21118,1.77156 1.53125,0.46875 1.81658,-4.23346 5.00405,-7.60075 3.40625,-9.09375 -4.22644,-3.94924 3.05368,-1.9153 4.25,-2.9375 0.99785,-0.36285 0.94899,-1.62409 0.0625,-1.75 z"
         style="fill:#916f6f;stroke:none"
         inkscape:connector-curvature="0" />
      <path
         sodipodi:nodetypes="ccssccc"
         inkscape:connector-curvature="0"
         id="path2998"
         d="m 50.53898,962.81245 c 16.14109,-5.83337 31.06935,-4.18766 44.52285,6.55242 5.43649,-6.89942 19.79395,-13.0113 30.57492,-7.97303 3.49061,1.63127 7.88075,2.13216 12.93079,0.0572 7.64785,-3.14229 16.51546,2.62161 21.34644,7.07573 11.47724,-3.8619 23.80732,-3.74384 36.62634,-1.34408 -38.4875,63.64081 -120.16796,53.73561 -146.00134,-4.36828 z"
         style="fill:#165521;fill-opacity:1;stroke:none" />
      <path
         id="path3015"
         transform="translate(0,802.36218)"
         d="m 125,8.5625 c -64.696216,0 -117.15625,52.460034 -117.15625,117.15625 0,64.69622 52.460034,117.125 117.15625,117.125 64.69622,0 117.15625,-52.42878 117.15625,-117.125 C 242.15625,61.022534 189.69622,8.5625 125,8.5625 z m 0,4.71875 c 62.0981,0 112.4375,50.339401 112.4375,112.4375 0,62.0981 -50.3394,112.4375 -112.4375,112.4375 -62.098099,0 -112.4375,-50.3394 -112.4375,-112.4375 0,-62.098099 50.339401,-112.4375 112.4375,-112.4375 z"
         style="fill:#fc8c04;fill-opacity:1;fill-rule:nonzero;stroke:none"
         inkscape:connector-curvature="0" />
      <path
         sodipodi:nodetypes="cscc"
         inkscape:connector-curvature="0"
         id="path4038"
         d="m 82.923477,997.98587 c 7.934238,-11.88122 27.748943,-3.68834 41.875023,-3.7436 13.73674,-0.0537 29.84353,-8.53623 42.23648,3.50599 -26.66367,17.29014 -54.95415,19.03864 -84.111503,0.23761 z"
         style="fill:#aa4400;stroke:none" />
      <path
         id="path3787"
         transform="translate(0,802.36218)"
         d="m 125,40.15625 c -47.251735,0 -85.5625,38.310765 -85.5625,85.5625 0,47.25173 38.310765,85.5625 85.5625,85.5625 47.25173,0 85.5625,-38.31077 85.5625,-85.5625 0,-47.251735 -38.31077,-85.5625 -85.5625,-85.5625 z m -2.09375,4.71875 c 0.69348,-0.01757 1.39604,0 2.09375,0 44.65362,0 80.84375,36.190129 80.84375,80.84375 0,44.65362 -36.19013,80.84375 -80.84375,80.84375 -44.653621,0 -80.84375,-36.19013 -80.84375,-80.84375 0,-43.955909 35.060841,-79.736877 78.75,-80.84375 z"
         style="fill:#fc8c04;fill-opacity:1;fill-rule:nonzero;stroke:none"
         inkscape:connector-curvature="0" />
      <path
         inkscape:connector-curvature="0"
         id="rect4040"
         d="m 82.8293,1027.0766 85.01344,0 0,17.3051 -85.01344,0 z"
         style="fill:#aa4400;fill-opacity:1;fill-rule:nonzero;stroke:none" />
      <path
         sodipodi:nodetypes="sccccccccccccccs"
         inkscape:connector-curvature="0"
         id="path3971"
         d="m 94.5625,990.19878 c -4.82508,0.0866 -8.40759,1.71376 -10.90625,6.79254 6.07609,-3.90364 11.18256,-2.69422 14.96875,1.34023 6.93908,7.99685 10.17367,35.39895 0.21875,44.07525 -4.33648,2.9147 -10.23412,2.6339 -11.375,-10.4476 -1.02962,-5.3689 -5.16925,-6.2783 -8.8125,-3.0156 -6.30672,6.3667 -2.17058,9.2061 -9.5,16.2046 l 111.6875,0 c -7.32942,-6.9985 -3.22453,-9.8379 -9.53125,-16.2046 -3.64325,-3.2627 -7.75163,-2.3533 -8.78125,3.0156 -1.14088,13.0815 -7.03852,13.3623 -11.375,10.4476 -9.95492,-8.6763 -6.72033,-36.0784 0.21875,-44.07525 3.78619,-4.03445 8.89266,-5.24387 14.96875,-1.34023 -6.21098,-12.62443 -19.14267,-3.82455 -41.15625,-3.4115 -0.12701,-0.002 -0.24859,0.002 -0.375,0 -13.15759,-0.24689 -23.08125,-3.5096 -30.25,-3.38104 z"
         style="fill:#fc8c04;fill-opacity:1;stroke:none" />
      <path
         sodipodi:nodetypes="csccccscccscccccccccsccc"
         inkscape:connector-curvature="0"
         id="path2996"
         d="m 111.51075,950.04364 c -0.0476,13.07408 -4.59773,18.16638 -3.44023,27.75172 1.87185,15.50095 13.43689,14.92773 13.52088,46.34104 l 2.68817,0 c 0.17822,-14.9861 -0.31175,-29.63806 -8.06452,-40.65863 5.42351,-0.51838 9.97744,-2.44986 13.60887,-5.88037 0.56385,6.54153 -3.84069,9.92954 0.81723,21.30239 3.25753,7.95361 -2.61419,17.88131 -6.21395,25.24681 l 3.21258,0 c 3.04044,-7.2098 7.13664,-14.4857 10.74075,-21.4137 1.62341,-5.23678 -2.31741,-9.51333 0.0619,-18.752 0.83404,-3.2386 4.74948,-4.5696 5.3212,-12.52563 1.75553,-1.27874 2.07071,-3.53655 2.27338,-5.70263 -1.69974,-0.0502 -3.45397,0.22651 -5.37634,1.51209 -11.00209,-3.77647 -14.61085,-1.13335 -21.08535,-0.58804 1.20411,-6.82684 0.67216,-13.60889 -1.34408,-20.07728 2.21214,0.66536 4.17226,1.21042 6.3844,0.75605 -0.68392,-1.53101 -1.25177,-3.23177 -3.1082,-4.11626 10.30204,-2.13422 11.93133,9.40443 25.95767,6.55242 0.3832,-0.52233 0.39809,-1.02932 -0.16801,-1.5121 -10.39597,0.82191 -12.91458,-7.46646 -20.19758,-8.41813 -9.98344,-1.30454 -14.94837,1.93212 -22.14114,0.2696 -0.56815,0.13469 -1.05592,0.96439 -0.67204,1.68011 3.05417,2.26138 6.80752,3.87239 7.22446,8.23254 z"
         style="fill:#d01513;fill-opacity:1;stroke:none" />
      <g
         style="fill:#fc8c04;fill-opacity:1"
         transform="translate(-260.38432,0)"
         id="g4097">
        <path
           style="fill:#fc8c04;fill-opacity:1;stroke:none"
           d="m 288.81499,82.61707 2.48639,2.723992 c -5.07146,7.343763 -4.68504,18.323588 -1.83259,19.051048 3.60503,0.9194 5.40374,-4.30088 6.34705,-15.011796 l 4.27686,0.237604 c -1.67501,23.811472 -10.8638,25.763522 -13.9208,24.438502 -2.79844,-1.21296 -9.92274,-13.08869 2.64309,-31.43935 z"
           id="path4065"
           inkscape:connector-curvature="0"
           transform="translate(0,802.36218)"
           sodipodi:nodetypes="ccsccsc" />
        <path
           style="fill:#fc8c04;fill-opacity:1;stroke:none"
           d="m 316.4375,48.4375 c -1.58221,0.01269 -3.46903,0.54399 -5.59375,1.6875 -5.22708,2.865027 -11.61698,8.847036 -13.84995,18.831869 l 3.15005,-0.594524 c 2.71994,-7.054967 8.3749,-12.419742 11.9695,-11.370181 L 303.4375,68.21875 c -1.5121,2.240144 -0.8964,3.618951 1.34375,4.375 6.70013,1.883775 15.26096,-5.577012 17.15625,-13.5 1.38743,-6.151814 -0.75337,-10.694328 -5.5,-10.65625 z m -1.59375,9.875 c 3.41941,4.653092 -3.79441,10.885729 -6.03125,8.0625 z"
           transform="translate(0,802.36218)"
           id="path4067"
           inkscape:connector-curvature="0"
           sodipodi:nodetypes="scccccccsccc" />
        <path
           style="fill:#fc8c04;fill-opacity:1;stroke:none"
           d="m 354.625,24.28125 c -11.52742,3.540112 -21.27118,9.226701 -30.27352,15.607527 l 2.125,2.625 c 3.32537,-1.953336 6.91807,-4.236366 10.17977,-6.013777 l 4.90625,9.53125 8.0625,-4.28125 -4.90625,-9.40625 c 3.48222,-1.653374 7.04947,-3.150325 10.84375,-4.5 z"
           transform="translate(0,802.36218)"
           id="path4072"
           inkscape:connector-curvature="0"
           sodipodi:nodetypes="ccccccccc" />
        <path
           style="fill:#fc8c04;fill-opacity:1;stroke:none"
           d="m 371.25,20.46875 0,14.625 24.59375,0 c 4.57915,-0.252907 6.01463,-7.386983 0,-8.3125 l -16.28125,0 0,-3.09375 20.21875,0 0,-3.21875 z m 8.31351,9.03125 10.09274,0 c 1.86262,0.250752 2.0467,2.753184 0,3.1875 l -10.09274,0 z"
           transform="translate(0,802.36218)"
           id="path4077"
           inkscape:connector-curvature="0"
           sodipodi:nodetypes="cccccccccccccc" />
        <path
           style="fill:#fc8c04;fill-opacity:1;stroke:none"
           d="m 427.67361,39.973286 0.09,3.074426 c -5.82347,-0.775462 -11.71756,-1.79176 -13.62716,-7.284507 -1.71388,-5.404771 2.47716,-8.207062 9.20359,-7.925338 6.35692,0.324662 12.813,2.947566 21.34013,11.022966 l -9.1333,11.587372 -6.07926,-4.668057 6.53408,-8.979708 c -2.43815,-2.502264 -7.71204,-5.206831 -11.7996,-4.086628 -2.6862,0.776791 -3.69082,3.424823 -1.71489,5.281354 0.71297,0.625045 3.31912,1.744291 5.18644,1.97812 z"
           id="path4082"
           inkscape:connector-curvature="0"
           transform="translate(0,802.36218)"
           sodipodi:nodetypes="ccccccccccc" />
        <path
           style="fill:#fc8c04;fill-opacity:1;stroke:none"
           d="M 483.49227,85.847782 469.75,90.0625 c 2.30124,7.85949 4.27231,14.95394 5.3125,23.1287 0.70973,6.06019 7.59966,4.13742 7.21875,-0.28125 0.54581,4.18106 7.3443,4.76847 6.84375,-2.625 -0.40875,-4.77635 -2.10875,-16.879004 -5.63273,-24.437168 z m 0.0897,8.978159 c 1.03808,3.39039 1.73229,6.849549 2.21102,10.351819 -0.0704,2.84297 -2.561,3.01308 -3.21875,0.625 -0.46001,-3.43392 -1.14674,-6.811159 -2.05477,-10.133069 z m -5.78125,1.625 c 0.98927,3.189057 1.64379,6.545489 1.96102,10.070569 0.27608,2.82934 -2.48567,2.64929 -3,0.46875 -0.43109,-3.24228 -1.09525,-6.48455 -2.08602,-9.726819 z"
           transform="translate(0,802.36218)"
           id="path4084"
           inkscape:connector-curvature="0"
           sodipodi:nodetypes="cccccccccccccccc" />
        <path
           style="fill:#fc8c04;fill-opacity:1;stroke:none"
           d="M 457.53125,48.4375 446.75,58.46875 c 6.72188,6.59202 11.75898,13.68923 15.96875,20.28125 l 2.84375,-2.34375 C 462.52531,71.764746 458.8345,66.629106 454.46875,61.75 l 1.89695,-1.681302 c 3.79239,4.134547 7.14042,8.448074 10.04055,12.837552 l 2.3905,-2.009298 c -3.03493,-4.403665 -6.28133,-8.870633 -9.953,-13.146952 l 1.75,-1.59375 c 4.27724,4.63202 8.69626,10.226996 12.6875,16.34375 l 2.5811,-2.321798 C 469.97893,61.467756 464.47504,54.26383 457.53125,48.4375 z"
           transform="translate(0,802.36218)"
           id="path4086"
           inkscape:connector-curvature="0"
           sodipodi:nodetypes="ccccccccccccc" />
      </g>
    </g>
  </g>
</svg>
