<?xml version="1.0" encoding="UTF-8"?>
<!DOCTYPE svg PUBLIC "-//W3C//DTD SVG 1.1//EN" "http://www.w3.org/Graphics/SVG/1.1/DTD/svg11.dtd">
<!-- Creator: CorelDRAW -->
<svg xmlns="http://www.w3.org/2000/svg" xml:space="preserve" width="68.326mm" height="100mm" style="shape-rendering:geometricPrecision; text-rendering:geometricPrecision; image-rendering:optimizeQuality; fill-rule:evenodd; clip-rule:evenodd"
viewBox="0 0 68.326 100">
 <defs>
  <style type="text/css">
   <![CDATA[
    .fil0 {fill:black}
    .fil2 {fill:#0094DE}
    .fil1 {fill:#F7C500}
    .fil3 {fill:white}
    .fil4 {fill:black;fill-rule:nonzero}
    .fil5 {fill:#F7C500;fill-rule:nonzero}
   ]]>
  </style>
 </defs>
 <g id="Слой_x0020_1">
  <metadata id="CorelCorpID_0Corel-Layer"/>
  <path class="fil0" d="M68.3259 0l0 83.33c0,5.4488 -4.4583,9.9072 -9.9072,9.9072l-14.8922 0c-4.3388,0.0126 -8.0442,2.8514 -9.3633,6.7628 -1.319,-3.9114 -5.0249,-6.7502 -9.3637,-6.7628l-14.8922 0c-5.4489,0 -9.9072,-4.4582 -9.9072,-9.9072l0 -83.33c22.7752,0 45.5506,0 68.3258,0z"/>
  <path class="fil1" d="M67.9752 0.3509c0,0.6957 0,82.979 0,82.979 0,5.2693 -4.2871,9.5564 -9.5566,9.5564l-14.8922 0c-4.0859,0.012 -7.7398,2.4499 -9.3632,6.1512 -1.6233,-3.7013 -5.2774,-6.1392 -9.3626,-6.1512l-14.8932 0c-5.2694,0 -9.5564,-4.2871 -9.5564,-9.5564 0,0 0,-82.2833 0,-82.979 0.691,0 66.9332,0 67.6242,0z"/>
  <path class="fil0" d="M9.9773 15.6878c-3.4308,0 -6.2218,2.7912 -6.2218,6.2219l0 48.5424c0,3.4307 2.791,6.2218 6.2218,6.2218l48.3713 0c3.4308,0 6.2221,-2.7911 6.2221,-6.2218l0 -48.5424c0,-3.4307 -2.7913,-6.2219 -6.2221,-6.2219l-48.3713 0z"/>
  <path class="fil2" d="M4.1063 70.4521l0 -48.5424c0,-3.2373 2.6337,-5.8712 5.871,-5.8712l48.3713 0c3.2374,0 5.8711,2.6339 5.8711,5.8712l0 48.5424c0,3.2371 -2.6337,5.8707 -5.8711,5.8707l-48.3713 0c-3.2373,0 -5.871,-2.6336 -5.871,-5.8707z"/>
  <path class="fil0" d="M51.7543 26.7328l-17.9536 9.616 0.4238 0.1165c5.104,1.4012 9.5803,0.8259 13.6819,-1.7512 2.5097,2.2768 5.1852,2.4411 7.9567,0.4834 1.805,1.2229 3.5618,1.149 5.2232,-0.2351l0.1583 -0.132 -9.3837 -8.1548 -0.1066 0.0572zm-15.0794 -5.9697l-7.6123 13.1949 0.4941 -0.2211c2.7152,-1.2147 4.7681,-2.6237 6.4546,-4.4245 2.0617,0.6711 3.8382,0.4202 5.4219,-0.772 2.1383,0.481 4.2034,0.0803 6.3094,-1.2321l0.2468 -0.1541 -11.2262 -6.5438 -0.0883 0.1527zm-24.9205 1.386l-4.0772 10.9292 0.4082 -0.2167c2.2364,-1.188 3.7387,-2.7359 5.4128,-4.8357 4.0868,1.319 10.1151,2.8403 13.848,3.2237l0.8214 0.0844 -16.3409 -9.3787 -0.0723 0.1938z"/>
  <path class="fil3" d="M51.8135 27.0991c0.1755,0.1527 8.5623,7.4411 8.8792,7.7165 -1.5231,1.1809 -3.0722,1.1992 -4.73,0.0317l-0.1025 -0.072 -0.1015 0.0734c-2.7285,1.9771 -5.2531,1.8215 -7.7176,-0.4758l-0.0994 -0.0926 -0.1146 0.0731c-3.9236,2.5034 -8.2051,3.1133 -13.0688,1.8806 0.7676,-0.4111 16.8492,-9.0246 17.0552,-9.1349zm-14.9226 -6.0081c0.2886,0.1682 9.8996,5.7706 10.4022,6.0637 -1.9565,1.1481 -3.8763,1.4956 -5.8577,1.0303l-0.0813 -0.0191 -0.0662 0.051c-1.5294,1.1814 -3.2547,1.4216 -5.2744,0.7342l-0.1081 -0.0368 -0.0773 0.0838c-1.5604,1.6872 -3.454,3.023 -5.9114,4.1815 0.5112,-0.8861 6.8091,-11.8021 6.9742,-12.0886zm-24.88 1.3746c0.3329,0.1909 13.1313,7.5366 14.4992,8.3217 -3.7639,-0.5049 -9.2436,-1.9055 -13.0191,-3.131l-0.1158 -0.0377 -0.0757 0.0955c-1.5678,1.9758 -2.9754,3.4516 -4.962,4.5979 0.3051,-0.818 3.5402,-9.4896 3.6734,-9.8464z"/>
  <path class="fil4" d="M40.4163 18.9743c0.2909,0.0773 0.5029,0.1615 0.5922,0.3218 0,0 0.0253,0.2542 0.0253,0.2547 -0.0935,0.3056 -0.5369,0.292 -0.8932,0.2811l-0.0569 -0.0017c-2.7811,-0.0771 -6.2667,1.7971 -8.4065,3.4254 -2.8892,2.1984 -5.3203,5.2362 -6.2317,6.4401 -1.3023,1.7208 -2.3669,4.0887 -2.6832,5.943 0.0953,0.0403 0.1908,0.0843 0.2863,0.1315 0.2134,-0.3785 0.4846,-0.7657 0.8857,-1.0035 0.0105,-0.0061 1.0797,-0.6342 1.4314,-0.2968 0.3159,0.3028 -0.3037,2.0569 -0.3112,2.0733 -0.0741,0.1604 -0.1572,0.2995 -0.2462,0.4221 0.7291,0.6105 1.4493,1.3345 2.145,2.068l1.7047 1.8295c1.2755,1.3808 2.5944,2.8086 3.9652,4.101l0.2652 0.2365c2.2587,1.0817 4.6724,1.8121 8.5557,0.6781 6.1198,-1.787 7.595,-0.2031 8.438,0.8262 0.3319,-0.3974 0.7337,-0.7503 1.2,-1.0085 0.3617,-0.2003 0.735,-0.2929 1.0962,-0.3826 0.321,-0.0798 0.6244,-0.1551 0.9121,-0.3005l0.3143 -0.1692c0.4426,-0.2452 0.8607,-0.4771 1.1454,-0.2134 0.1296,0.1197 0.1944,0.3392 0.1944,0.6215 0,0.2709 -0.0597,0.5994 -0.1798,0.953 -0.7502,2.2097 -2.4573,2.3531 -4.1082,2.4918 0,0 -0.0737,0.0063 -0.1473,0.0127 0.0027,0.2049 0.0083,0.625 0.0083,0.625 0.007,0.4758 0.0133,0.9199 0.0133,1.3362 0,2.4011 -0.215,3.8722 -1.7965,5.1078l-0.3892 0.2959c-0.8201,0.6153 -1.5516,1.1641 -1.5516,2.089 0,0.2411 0.0495,0.5075 0.1602,0.8072 0.1877,0.5087 0.2648,0.9492 0.2648,1.3384 0,0.9917 -0.5022,1.649 -0.9603,2.2491l-0.0409 0.0534c-0.9227,1.2098 -1.5017,2.5793 -2.1143,4.0294l-0.1006 0.2374 -0.8014 1.8059c-0.4084,0.8998 -0.8307,1.8299 -1.1832,2.7512l-0.0679 0.1772 -1.6831 -0.7986 0.0689 -0.1562c0.739,-1.677 2.9637,-6.7259 2.9637,-9.9499 0,-0.0522 -0.0007,-0.1042 -0.0017,-0.1554 -0.029,-1.2453 -0.5578,-1.9406 -1.1174,-2.6768 -0.3665,-0.4818 -0.7381,-0.9863 -0.9796,-1.6492 -1.5584,0.4874 -3.659,0.7028 -5.1266,0.821l-0.9057 0.0515c-1.2895,0.0578 -2.5075,0.1124 -3.4965,1.0286 -0.627,0.581 -0.9831,1.3889 -1.0878,2.4517 0.0099,1.1718 0.0767,2.4338 0.1475,3.6227 0.0997,1.6757 0.3541,3.7666 0.8007,6.5801l0.0255 0.1606 -1.8777 0.448 -0.1805 0.042 -0.3625 -2.0008c-0.3301,-1.7943 -0.642,-3.4893 -0.8114,-5.1037l-0.0813 -0.8972c-0.161,-1.9289 -0.3435,-4.1149 -2.0826,-5.6099 -2.3134,-1.8192 -2.4922,-2.7802 -2.7396,-4.1103 -0.0374,-0.2008 -0.0753,-0.4052 -0.1222,-0.6203l-0.1608 -0.3905c-0.14,0.089 -0.644,0.4086 -0.644,0.4086 0,0 0.4239,-2.188 0.5142,-2.6536 -0.312,0.1081 -1.2681,0.4393 -1.2681,0.4393l0.2572 -0.4185c1.1057,-1.7984 1.6979,-3.63 1.5841,-4.8999 -0.0476,-0.5322 -0.3848,-1.7668 -0.9486,-2.2093 -0.1538,-0.1207 -0.3069,-0.1675 -0.4682,-0.143 -0.2396,0.0364 -0.5315,0.2138 -0.769,0.46 -0.0757,0.1611 -0.117,0.304 -0.117,0.4223 0,0.0171 0.0007,0.0336 0.0023,0.0497l0.0256 0.2603 -0.2504 -0.0751c-0.1228,-0.0367 -0.1894,-0.0294 -0.209,-0.0119 -0.0856,0.0763 -0.0145,0.4751 0.0236,0.6894l0.0976 0.5999 -0.299 -0.1372c-0.06,-0.0275 -0.2047,-0.0856 -0.2562,-0.0338 -0.1482,0.1489 -0.0332,0.8902 0.2236,1.4423l0.1198 0.2576 -0.2839 -0.0082c-0.5887,-0.0172 -0.9516,-0.6791 -1.0418,-0.9327 -0.1866,-0.5259 -0.8062,-0.4799 -1.81,-0.2204 -0.1615,0.1227 -0.3042,0.134 -0.3976,0.1092 -0.2059,-0.0549 -0.3652,-0.2722 -0.5004,-0.6676 -0.5719,-0.2866 -0.8567,-0.6699 -0.8567,-1.2037 0,-0.2185 0.0463,-0.4618 0.1376,-0.733l0.2089 -0.4629c0.1409,-0.2849 0.3162,-0.6395 0.3665,-0.9241 0.1498,-0.8485 0.2919,-1.388 0.5243,-1.9905l0.1828 -0.4562c0.2297,-0.561 0.3814,-0.9317 0.4245,-1.6322 0.0373,-0.5995 0.1362,-1.3756 0.5747,-2.0625l0.0297 -0.0467 0.0513 -0.0212c0.2221,-0.0915 0.286,-0.1501 0.286,-0.2432 0,-0.0447 -0.0147,-0.0975 -0.034,-0.1657 -0.0247,-0.0876 -0.0552,-0.1963 -0.0552,-0.3192 0,-0.1385 0.0389,-0.2951 0.1687,-0.4598 0.1129,-0.1431 0.2964,-0.1914 0.4585,-0.2339 0.1107,-0.0292 0.2364,-0.0621 0.2733,-0.1143 0.0349,-0.0493 0.0484,-0.1059 0.0484,-0.1748 0,-0.0718 -0.0145,-0.1567 -0.0344,-0.2607 -0.0188,-0.0992 -0.0392,-0.2059 -0.0392,-0.3134 0,-0.0802 0.0113,-0.1607 0.0429,-0.2389 0.0833,-0.2065 0.3061,-0.2762 0.5025,-0.3378 0.1101,-0.0345 0.2606,-0.0818 0.2834,-0.1348 0.0194,-0.0454 0.0266,-0.0988 0.0266,-0.1575 0,-0.0748 -0.0115,-0.1584 -0.0233,-0.2446 -0.0128,-0.0929 -0.0265,-0.1922 -0.0265,-0.2924 0,-0.096 0.0126,-0.193 0.0505,-0.2862 0.0959,-0.2352 0.357,-0.2632 0.5668,-0.2856 0.0994,-0.0107 0.2657,-0.0284 0.2881,-0.0734 0.0207,-0.0415 0.0289,-0.0842 0.0289,-0.1324 0,-0.0597 -0.0126,-0.128 -0.0294,-0.213 -0.0167,-0.0841 -0.0353,-0.1785 -0.0353,-0.2781 0,-0.0981 0.0181,-0.2014 0.0745,-0.3044 0.0973,-0.1783 0.3092,-0.2478 0.4961,-0.3091 0.1166,-0.0382 0.2618,-0.0858 0.2964,-0.1417 0.0298,-0.0477 0.0373,-0.1099 0.0373,-0.1817 0,-0.0338 -0.0017,-0.07 -0.0034,-0.1076 -0.0018,-0.038 -0.0036,-0.078 -0.0036,-0.1194 0,-0.1291 0.0177,-0.2709 0.1118,-0.3972 0.1341,-0.1801 0.324,-0.2124 0.4767,-0.2383 0.126,-0.0214 0.2059,-0.0376 0.2574,-0.0997 0.0687,-0.0828 0.0806,-0.2231 0.0933,-0.3718 0.0157,-0.1842 0.0335,-0.3926 0.1669,-0.5597 0.1261,-0.1576 0.3142,-0.1988 0.4802,-0.2353 0.119,-0.0261 0.2315,-0.0508 0.2809,-0.1108 0.0632,-0.0766 0.0752,-0.2099 0.088,-0.351 0.0174,-0.1921 0.0371,-0.4098 0.1963,-0.5706 0.156,-0.1576 0.3696,-0.1731 0.5582,-0.1865 0.1376,-0.01 0.2675,-0.0193 0.3336,-0.081 0.0717,-0.0667 0.0938,-0.1994 0.1172,-0.3399 0.0296,-0.1782 0.0632,-0.3799 0.2111,-0.5287 0.1517,-0.1523 0.3584,-0.1946 0.5409,-0.232 0.1491,-0.0305 0.2899,-0.0593 0.3649,-0.1397 0.0594,-0.0638 0.0786,-0.1803 0.099,-0.3038 0.0266,-0.1623 0.0569,-0.3463 0.1904,-0.4878 0.1485,-0.1575 0.3301,-0.176 0.4759,-0.191 0.1212,-0.0123 0.1984,-0.0227 0.2595,-0.0776 0.0656,-0.059 0.0905,-0.1536 0.1194,-0.2633 0.0383,-0.1454 0.0861,-0.3265 0.253,-0.453 0.1452,-0.1101 0.3324,-0.1291 0.4977,-0.1457 0.1196,-0.0121 0.2433,-0.0245 0.312,-0.0698 0.0462,-0.0305 0.0705,-0.1293 0.094,-0.2248 0.0335,-0.1365 0.0752,-0.3065 0.2135,-0.4174 0.1457,-0.117 0.323,-0.1355 0.4795,-0.152 0.1152,-0.0121 0.224,-0.0236 0.2917,-0.0715 0.0405,-0.0287 0.0688,-0.1114 0.0964,-0.1913 0.0439,-0.1274 0.0984,-0.2861 0.2485,-0.3763 0.158,-0.095 0.3369,-0.1345 0.51,-0.1727 0,0 0.3461,-0.1006 0.3462,-0.1006 0.1957,-0.0909 0.3852,-0.2139 0.674,-0.4059 1.1423,-0.7582 3.3003,-1.7956 5.6232,-2.225 1.422,-0.2628 2.6138,-0.2711 3.5428,-0.0247z"/>
  <path class="fil5" d="M18.3645 36.186c-0.3771,0.6113 -0.4684,1.3134 -0.5023,1.8604 -0.0468,0.7582 -0.216,1.1715 -0.4501,1.7435l-0.1801 0.4494c-0.2235,0.5793 -0.3607,1.1012 -0.5062,1.9252 -0.059,0.334 -0.2466,0.7137 -0.3975,1.0188 0,0 -0.1907,0.4192 -0.1909,0.4192 -0.0783,0.2329 -0.1188,0.435 -0.1188,0.6124 0,0.4224 0.2294,0.7053 0.7217,0.9343l0.07 0.0324 0.0233 0.0737c0.1431,0.4518 0.2674,0.4968 0.281,0.5005 0.0382,0.0102 0.0999,-0.0417 0.1246,-0.0646l0.0323 -0.0296 0.0425 -0.0111c0.7167,-0.1863 1.9162,-0.4983 2.2488,0.4381 0.0547,0.1542 0.2094,0.416 0.4159,0.5718 -0.0899,-0.2722 -0.18,-0.6187 -0.18,-0.9268 0,-0.2179 0.045,-0.4115 0.1669,-0.5339 0.0708,-0.0712 0.1875,-0.1319 0.3614,-0.1173l-0.0004 -0.0026c-0.0345,-0.1931 -0.0695,-0.3894 -0.0695,-0.5638 0,-0.1837 0.0388,-0.3431 0.1577,-0.4491 0.0845,-0.0753 0.1981,-0.104 0.3332,-0.0967 0.0194,-0.1448 0.0606,-0.2975 0.1446,-0.4687l0.0117 -0.0237 0.0179 -0.0193c0.2962,-0.3151 0.6666,-0.5327 0.9909,-0.5819 0.2586,-0.0393 0.5067,0.0327 0.7375,0.2137 0.6552,0.5143 1.0277,1.8523 1.0815,2.4544 0.0111,0.1228 0.0163,0.247 0.0163,0.3722 0,1.594 -0.8448,3.341 -1.4074,4.3289 0.3108,-0.1076 0.9287,-0.3217 0.9287,-0.3217 0,0 -0.365,1.8837 -0.4753,2.4523 0.0538,-0.0343 0.3102,-0.1967 0.3102,-0.1967l0.0572 0.1394c0.272,0.3442 0.5736,0.783 0.8196,1.2474 0.2519,-0.6928 0.3496,-1.3419 0.3669,-2.0674 0.2456,0.3383 0.4631,0.6641 0.6634,1.0325 0.2329,-0.6528 0.3327,-1.296 0.3698,-1.9806 0.2499,0.2962 0.4841,0.579 0.6744,0.9202 0.2287,-0.6397 0.3144,-1.2504 0.3235,-1.9203 0.2652,0.283 0.5051,0.5486 0.7057,0.8854 0.2135,-0.6185 0.2878,-1.2286 0.3094,-1.8747 0.2622,0.2729 0.5042,0.5361 0.715,0.8537 0.1909,-0.5699 0.2484,-1.1562 0.2789,-1.7513 0.2882,0.2059 0.5327,0.4198 0.7417,0.7152 0.1722,-0.5099 0.2438,-1.0502 0.2817,-1.5833 0.322,0.1419 0.5404,0.2863 0.7655,0.5718 0.1946,-0.4831 0.2446,-0.9554 0.2902,-1.465 0.2427,0.2816 0.4624,0.5711 0.816,0.7225 -0.019,-0.4305 0.0393,-0.8414 0.1218,-1.264 0.3309,0.2264 0.6406,0.3969 1.0411,0.4838 -0.0955,-0.2552 -0.1653,-0.5008 -0.1866,-0.7423 -1.3376,-1.2717 -2.6191,-2.6588 -3.8596,-4.0017l-1.7015 -1.8262c-0.6879,-0.7253 -1.3992,-1.4425 -2.1147,-2.0438 -0.2176,0.2233 -0.4528,0.3822 -0.6719,0.5298l-0.1961 -0.2911c0.3739,-0.2517 0.7605,-0.5121 1.02,-1.0737 0.0972,-0.2105 0.2699,-0.8789 0.3408,-1.3207 0.035,-0.2188 0.1289,-0.3962 -0.139,-0.3416 -0.2167,0.0443 -0.5633,0.1797 -0.8246,0.3347 -0.4538,0.2692 -0.7333,0.8118 -0.9577,1.2478 -0.1847,0.3587 -0.3305,0.6419 -0.5443,0.7547l-0.1637 -0.3105c0.1162,-0.0611 0.2584,-0.3376 0.3961,-0.6048l0.0419 -0.0814c-0.129,-0.0636 -0.2575,-0.1207 -0.3857,-0.1704l-0.1313 -0.0509 0.0215 -0.1394c0.3011,-1.9542 1.3907,-4.3994 2.7758,-6.2296 0.9199,-1.2155 3.3753,-4.2827 6.2989,-6.5075 2.1853,-1.663 5.7561,-3.5765 8.6287,-3.497l0.058 0.0018c0.1359,0.0042 0.4294,0.0101 0.5242,-0.0374 -0.0375,-0.0266 -0.1265,-0.0712 -0.3492,-0.1303 -0.8785,-0.2331 -2.0186,-0.2227 -3.3891,0.0304 -2.2709,0.4199 -4.3783,1.4326 -5.4928,2.1723 -0.3027,0.2011 -0.5022,0.3306 -0.7204,0.4318l-0.4184 0.125c-0.1521,0.0336 -0.2958,0.0654 -0.4047,0.131 -0.0408,0.0244 -0.0697,0.1084 -0.0976,0.1897 -0.0414,0.1199 -0.0927,0.2692 -0.2253,0.3633 -0.1426,0.1011 -0.3102,0.1187 -0.4579,0.1342 -0.1189,0.0125 -0.2313,0.0244 -0.2967,0.0768 -0.0455,0.0365 -0.0693,0.1335 -0.0922,0.2273 -0.036,0.146 -0.0806,0.3278 -0.2417,0.4342 -0.1407,0.0927 -0.3156,0.1104 -0.47,0.1259 -0.125,0.0126 -0.2542,0.0256 -0.3208,0.076 -0.0671,0.051 -0.0915,0.1331 -0.1257,0.263 -0.0359,0.1362 -0.0806,0.3058 -0.2241,0.4348 -0.1493,0.1343 -0.3206,0.1517 -0.4583,0.1658 -0.1261,0.0128 -0.2002,0.0231 -0.2564,0.0827 -0.06,0.0635 -0.0793,0.1803 -0.0996,0.304 -0.0265,0.1616 -0.0567,0.3446 -0.1887,0.4862 -0.1512,0.1623 -0.3637,0.2057 -0.5509,0.244 -0.1469,0.0301 -0.2855,0.0585 -0.3625,0.1359 -0.0691,0.0693 -0.0908,0.2001 -0.1139,0.3386 -0.0305,0.1834 -0.065,0.3911 -0.2241,0.5392 -0.1567,0.1459 -0.3643,0.1609 -0.5475,0.174 -0.1393,0.0101 -0.2707,0.0196 -0.3342,0.0836 -0.0703,0.0712 -0.0829,0.2092 -0.0961,0.3554 -0.0162,0.1791 -0.0346,0.3822 -0.1666,0.5424 -0.1263,0.1536 -0.3124,0.1945 -0.4766,0.2305 -0.1196,0.0262 -0.2327,0.051 -0.2811,0.1116 -0.0671,0.0838 -0.0789,0.223 -0.0915,0.3703 -0.0159,0.1869 -0.0339,0.3987 -0.1729,0.5662 -0.1373,0.1653 -0.3211,0.1966 -0.4688,0.2215 -0.1301,0.0222 -0.2061,0.0378 -0.2539,0.102 -0.0342,0.0459 -0.0424,0.11 -0.0424,0.185 0,0.0334 0.0015,0.069 0.0032,0.1059 0.0018,0.0402 0.0038,0.0817 0.0038,0.124 0,0.1201 -0.0152,0.2466 -0.0902,0.3668 -0.102,0.1642 -0.3056,0.2308 -0.4851,0.2897 -0.1125,0.0369 -0.2666,0.0874 -0.2973,0.1439 -0.023,0.0419 -0.0319,0.0857 -0.0319,0.1358 0,0.0589 0.0123,0.1266 0.0289,0.2105 0.0167,0.0845 0.0356,0.1798 0.0356,0.2803 0,0.0934 -0.0162,0.1912 -0.0653,0.2896 -0.1079,0.2169 -0.3613,0.244 -0.5648,0.2658 -0.0917,0.0098 -0.2624,0.0281 -0.2791,0.0692 -0.0182,0.0445 -0.0248,0.0965 -0.0248,0.1535 0,0.075 0.0114,0.1586 0.0233,0.2449 0.0128,0.0929 0.0265,0.1921 0.0265,0.292 0,0.0997 -0.0136,0.2004 -0.0551,0.2964 -0.0863,0.2011 -0.3063,0.2701 -0.5005,0.331 -0.1103,0.0344 -0.2611,0.0817 -0.2822,0.1343 -0.0126,0.0311 -0.0176,0.0676 -0.0176,0.1079 0,0.0731 0.0164,0.1587 0.0333,0.2474 0.0188,0.0998 0.04,0.2109 0.04,0.3245 0,0.1275 -0.0265,0.2582 -0.1125,0.3796 -0.1107,0.1561 -0.3018,0.2063 -0.4704,0.2507 -0.1088,0.0286 -0.2321,0.061 -0.2722,0.1117 -0.0703,0.0893 -0.0943,0.1658 -0.0943,0.2431 0,0.0706 0.02,0.1417 0.0431,0.224 0.0259,0.0923 0.0467,0.1837 0.0467,0.2727 0,0.1891 -0.1033,0.3668 -0.4396,0.5227zm5.1736 17.3021l0.029 0.1585c0.2334,1.2545 0.4022,2.1611 2.6175,3.9036 1.8539,1.5932 2.0428,3.8556 2.2095,5.8515l0.0804 0.8896c0.1681,1.6012 0.4788,3.2894 0.8077,5.0769 0,0 0.2429,1.3415 0.2968,1.638 0.2593,-0.0619 1.152,-0.2749 1.382,-0.3296 -0.4323,-2.7425 -0.6812,-4.7995 -0.7797,-6.4539 -0.071,-1.1936 -0.1381,-2.4608 -0.1471,-3.659 0.1141,-1.1708 0.5064,-2.0517 1.1993,-2.6933 1.0833,-1.0038 2.4234,-1.0638 3.7192,-1.1221 0,0 0.8931,-0.0505 0.8933,-0.0505 1.4984,-0.1209 3.6681,-0.3406 5.2033,-0.8517l0.1692 -0.056 0.0535 0.1698c0.2175,0.6906 0.5915,1.1825 0.9875,1.7032 0.5691,0.7483 1.1573,1.5221 1.1887,2.881 0.0015,0.0552 0.002,0.111 0.002,0.1676 0,2.1898 -0.9615,5.4463 -2.9265,9.9306 0.2069,0.0982 0.8147,0.3866 1.0386,0.4927 0.3416,-0.8733 0.7344,-1.7481 1.1193,-2.596l0.7978 -1.7977 0.1004 -0.2372c0.6215,-1.471 1.2087,-2.8604 2.1586,-4.1054l0.0408 -0.0537c0.4379,-0.5732 0.8863,-1.1602 0.8863,-2.0433 0,-0.3505 -0.0708,-0.748 -0.241,-1.2098 -0.1277,-0.3459 -0.184,-0.6554 -0.184,-0.9353 0,-1.0918 0.8582,-1.7358 1.694,-2.363l0.3836 -0.2918c1.4598,-1.1403 1.6617,-2.5471 1.6617,-4.8498 0,-0.4081 -0.0063,-0.8445 -0.0131,-1.3125l-0.0106 -0.7891 -0.0027 -0.1627 0.4738 -0.0406c1.609,-0.1353 3.1288,-0.2631 3.8053,-2.2551 0.1216,-0.3583 0.1617,-0.6381 0.1617,-0.8386 0,-0.2066 -0.0425,-0.3287 -0.0824,-0.3656 -0.0984,-0.0911 -0.4524,0.1051 -0.7369,0.2629l-0.3261 0.1754c-0.323,0.1634 -0.66,0.247 -0.9861,0.328 -0.3545,0.088 -0.6893,0.1711 -1.0108,0.349 -0.4886,0.2706 -0.9168,0.641 -1.2383,1.0713l-0.134 0.1804 -0.2037 -0.2496c-0.779,-0.9563 -2.0827,-2.5569 -8.1337,-0.79 -3.7257,1.088 -6.2021,0.4745 -8.3604,-0.4933l-0.4567 -0.0776c0.0458,0.1771 0.1583,0.4244 0.2574,0.5987 -0.4831,-0.0424 -0.906,-0.1134 -1.3426,-0.3491 -0.0534,0.403 -0.0469,0.7565 -0.0033,1.1613 -0.3721,-0.0647 -0.6072,-0.1897 -0.9035,-0.4211 -0.0789,0.4889 -0.2699,0.9501 -0.4763,1.3945 -0.1485,-0.2359 -0.3403,-0.5102 -0.5737,-0.7078 -0.0685,0.6303 -0.2033,1.1303 -0.4748,1.6973 -0.1607,-0.2783 -0.3453,-0.5153 -0.5469,-0.7247 -0.0733,0.6105 -0.2198,1.2055 -0.4959,1.812 -0.1566,-0.2648 -0.3314,-0.621 -0.5254,-0.821 -0.094,0.648 -0.2337,1.2867 -0.5124,1.9099 -0.1145,-0.2715 -0.2906,-0.6439 -0.4774,-0.8969 -0.1017,0.6573 -0.2948,1.3367 -0.5598,1.9388 -0.1359,-0.2759 -0.3049,-0.6412 -0.4664,-0.9036 -0.1149,0.664 -0.2989,1.4187 -0.583,2.0241 -0.1265,-0.2804 -0.2799,-0.6633 -0.4354,-0.9288 -0.1157,0.6677 -0.3067,1.3135 -0.6092,1.8964 -0.1409,-0.3347 -0.2821,-0.5521 -0.4584,-0.8362z"/>
  <ellipse class="fil0" cx="34.1631" cy="80.4648" rx="11.9296" ry="11.9296"/>
  <circle class="fil1" cx="34.1631" cy="80.4648" r="11.5787"/>
  <path class="fil0" d="M39.3533 71.4751l-5.1902 8.9898 -5.1903 -8.9898 10.3805 0zm-15.5707 8.9896l10.3806 0 -5.1903 8.9898 -5.1903 -8.9898zm20.7609 0l-10.3806 0 5.1904 8.9898 5.1902 -8.9898z"/>
  <path class="fil0" d="M15.0163 4.6451c0,0.2084 0,1.7171 0,1.9255 -0.227,0 -2.6554,0 -2.6554,0 0,0 0,6.7596 0,7.0008 -0.2192,0 -2.4781,0 -2.6972,0 0,-0.2412 0,-7.0008 0,-7.0008 0,0 -2.4285,0 -2.6555,0 0,-0.2084 0,-1.7171 0,-1.9255 0.2387,0 7.7694,0 8.0081,0zm8.5812 0c0,0.2084 0,1.7171 0,1.9255 -0.2363,0 -4.5365,0 -4.5365,0l0 1.4245c0,0 3.9965,0 4.232,0 0,0.2085 0,1.7171 0,1.9255 -0.2355,0 -4.232,0 -4.232,0l0 1.7255c0,0 4.452,0 4.6888,0 0,0.2084 0,1.7168 0,1.9253 -0.2379,0 -7.148,0 -7.3859,0 0,-0.2398 0,-8.6865 0,-8.9263 0.2375,0 6.9961,0 7.2336,0zm37.7204 0.0002c0,0.2398 0,8.6859 0,8.9257 -0.2191,0 -2.4781,0 -2.6972,0 0,-0.2344 0,-4.2092 0,-4.2092 0,0 -3.0523,4.1109 -3.1257,4.2092 -0.1144,0 -2.362,0 -2.5845,0 0,-0.2398 0,-8.6859 0,-8.9257 0.2191,0 2.4777,0 2.6968,0 0,0.2344 0,4.2304 0,4.2304 0,0 3.1044,-4.1331 3.1774,-4.2304 0.1137,0 2.3113,0 2.5332,0zm-28.1135 0c-0.3888,0.787 -1.931,3.9105 -2.0426,4.1617l-0.0241 0.0544c0,0 2.2234,4.373 2.3946,4.7096 -0.35,0 -2.8885,0 -3.0256,0 -0.0669,-0.1316 -1.8564,-3.6504 -1.8564,-3.6504l-0.6809 0c0,0 0,3.4174 0,3.6504 -0.2191,0 -2.4783,0 -2.6974,0 0,-0.2398 0,-8.6859 0,-8.9257 0.2191,0 2.4783,0 2.6974,0 0,0.2317 0,3.3498 0,3.3498l0.6011 0 0.0329 -0.0742c0.1497,-0.3371 1.4756,-2.9282 1.6535,-3.2756 0.1364,0 2.6026,0 2.9475,0zm15.9744 0c0.0537,0.1672 2.7657,8.6139 2.8656,8.9257 -0.2963,0 -2.6707,0 -2.8326,0 -0.0541,-0.1683 -1.8937,-5.8985 -1.8937,-5.8985 0,0 -1.8397,5.7302 -1.8938,5.8985 -0.1619,0 -2.5363,0 -2.8326,0 0.0999,-0.3118 2.8119,-8.7585 2.8657,-8.9257 0.1695,0 3.5519,0 3.7214,0zm-7.582 -0.0002c0,0.2084 0,1.7171 0,1.9255 -0.2363,0 -4.5365,0 -4.5365,0l0 1.4245c0,0 3.9966,0 4.2319,0 0,0.2085 0,1.7171 0,1.9255 -0.2353,0 -4.2319,0 -4.2319,0l0 1.7255c0,0 4.4521,0 4.6888,0 0,0.2084 0,1.7168 0,1.9253 -0.2377,0 -7.1481,0 -7.386,0 0,-0.2398 0,-8.6865 0,-8.9263 0.2376,0 6.996,0 7.2337,0z"/>
  <path class="fil3" d="M61.0922 4.8713l0 0.8179 0 7.6561 -2.2456 0 0 -4.6665 -3.4648 4.6665 -2.2456 0 0 -8.474 2.2456 0 0 4.6811 3.516 -4.6811 2.1944 0zm-12.0778 0l2.7206 8.474 -2.3585 0 -2.0584 -6.4114 -2.0585 6.4114 -2.3585 0 2.7207 -8.474 3.3926 0zm-7.6435 -0.0002l0 1.4736 -4.5364 0 0 1.8765 4.2319 0 0 1.4736 -4.2319 0 0 2.1771 4.6887 0 0 1.4736 -6.9343 0 0 -8.4744 6.782 0zm-13.6275 0.0002l0 3.3499 0.9739 0 1.6911 -3.3499 2.4573 0 -1.9783 3.9967 2.2767 4.4773 -2.5191 0 -1.8563 -3.6505 -1.0453 0 0 3.6505 -2.2455 0 0 -8.474 2.2455 0zm-4.3717 -0.0002l0 1.4736 -4.5365 0 0 1.8765 4.2319 0 0 1.4736 -4.2319 0 0 2.1771 4.6887 0 0 1.4736 -6.9343 0 0 -8.4744 6.7821 0zm-8.5813 0l0 1.4736 -2.6554 0 0 7.0008 -2.2456 0 0 -7.0008 -2.6554 0 0 -1.4736c5.0444,0 2.512,0 7.5564,0z"/>
 </g>
</svg>
