<svg width="120" height="25" viewBox="0 0 120 25" fill="none" xmlns="http://www.w3.org/2000/svg">
<path fill-rule="evenodd" clip-rule="evenodd" d="M17.3779 11.8755C17.307 13.9643 17.0279 14.3827 15.8135 14.3827V17.0093H16.2662C19.2959 17.0093 20.0244 15.4968 20.1361 12.1341L20.2597 8.41304H23.1002V17.0093H26.0646V5.8064H17.5837L17.3779 11.8755Z" fill="#F03C2F"/>
<path fill-rule="evenodd" clip-rule="evenodd" d="M33.2056 14.542H31.2912V11.6964H33.2056C34.2347 11.6964 34.8522 12.1343 34.8522 13.0694C34.8522 14.0842 34.2553 14.542 33.2056 14.542ZM33.4319 9.20924H31.2912V5.8064H28.3271V17.0094H33.4731C36.7049 17.0094 37.8576 14.9797 37.8576 13.0694C37.8576 10.6021 36.252 9.20924 33.4319 9.20924Z" fill="#F03C2F"/>
<path fill-rule="evenodd" clip-rule="evenodd" d="M47.5127 14.562V8.23427C49.1595 8.45311 50.1887 9.64701 50.1887 11.3981C50.1887 13.1491 49.1595 14.343 47.5127 14.562ZM44.5486 14.562C42.9019 14.343 41.8728 13.1491 41.8728 11.3981C41.8728 9.64701 42.9019 8.45311 44.5486 8.23427V14.562ZM47.5127 5.54783V1.38892H44.5486V5.54783C41.1523 5.82655 38.8672 8.15463 38.8672 11.3981C38.8672 14.6615 41.1523 16.9896 44.5486 17.2682V21.4868H47.5127V17.2682C50.9091 17.0095 53.194 14.6615 53.194 11.3981C53.194 8.13473 50.9091 5.80649 47.5127 5.54783Z" fill="#F03C2F"/>
<path fill-rule="evenodd" clip-rule="evenodd" d="M61.345 12.8302C61.345 14.1237 60.3982 14.86 59.1631 14.86C58.0927 14.86 57.2487 14.4819 57.2487 13.3675C57.2487 12.2731 58.175 12.0941 58.9779 12.0941H61.345V12.8302ZM64.3091 13.5666V9.80567C64.3091 7.05966 62.4977 5.32837 59.4513 5.32837C56.3019 5.32837 54.6345 7.1592 54.4903 9.06935H57.4957C57.5987 8.65142 58.0516 7.93517 59.4513 7.93517C60.6039 7.93517 61.345 8.45265 61.345 9.80567H58.4014C55.7667 9.80567 54.2021 11.1388 54.2021 13.3675C54.2021 15.6957 55.9135 17.2876 58.3808 17.2876C60.1901 17.2876 61.1945 16.461 61.6332 15.8351C62.0242 16.591 62.8889 17.0089 64.0209 17.0089H65.0502V14.4222C64.515 14.4222 64.3091 14.1834 64.3091 13.5666Z" fill="#F03C2F"/>
<path fill-rule="evenodd" clip-rule="evenodd" d="M76.8651 14.1837H73.6951V10.1244H76.8651C78.5118 10.1244 79.438 10.8607 79.438 12.154C79.438 13.4872 78.5118 14.1837 76.8651 14.1837ZM77.0091 7.39825H73.6951V4.23447H81.373V1.38892H70.5869V17.0094H77.0091C80.5703 17.0094 82.608 15.2981 82.608 12.154C82.608 9.18926 80.5703 7.39825 77.0091 7.39825Z" fill="#F03C2F"/>
<path fill-rule="evenodd" clip-rule="evenodd" d="M90.9857 12.8302C90.9857 14.1237 90.0388 14.86 88.8037 14.86C87.7334 14.86 86.8894 14.4819 86.8894 13.3675C86.8894 12.2731 87.8157 12.0941 88.6185 12.0941H90.9857V12.8302ZM93.9497 13.5666V9.80567C93.9497 7.05966 92.1383 5.32837 89.0919 5.32837C85.9425 5.32837 84.2751 7.1592 84.1309 9.06935H87.1363C87.2393 8.65142 87.6923 7.93517 89.0919 7.93517C90.2446 7.93517 90.9857 8.45265 90.9857 9.80567H88.042C85.4073 9.80567 83.8428 11.1388 83.8428 13.3675C83.8428 15.6957 85.5543 17.2876 88.0214 17.2876C89.8308 17.2876 90.8351 16.461 91.2738 15.8351C91.665 16.591 92.5295 17.0089 93.6617 17.0089H94.6908V14.4222C94.1557 14.4222 93.9497 14.1834 93.9497 13.5666Z" fill="#F03C2F"/>
<mask id="mask0_801_4515" style="mask-type:alpha" maskUnits="userSpaceOnUse" x="0" y="1" width="120" height="24">
<path d="M0 24.1066H120V1.19995H0V24.1066Z" fill="#0B1F35"/>
</mask>
<g mask="url(#mask0_801_4515)">
<path fill-rule="evenodd" clip-rule="evenodd" d="M-0.220703 24.5179H15.6293V21.3335H-0.220703V24.5179Z" fill="#F03C2F"/>
<path fill-rule="evenodd" clip-rule="evenodd" d="M5.44348 11.0986L7.6666 4.71119H7.74898L9.84853 11.0986H5.44348ZM10.5888 3.5321C10.1369 2.22925 9.61605 1.2002 7.83136 1.2002C6.0465 1.2002 5.49225 2.22511 5.01658 3.5321L0.112305 17.0084H3.36452L4.49676 13.8048H10.7542L11.8041 17.0084H15.2624L10.5888 3.5321Z" fill="#F03C2F"/>
<path fill-rule="evenodd" clip-rule="evenodd" d="M115.707 5.8064L111.611 10.2437V5.8064H108.646V17.0093H111.611V12.2934L115.995 17.0093H119.824L114.431 11.1393L119.433 5.8064H115.707Z" fill="#F03C2F"/>
<path fill-rule="evenodd" clip-rule="evenodd" d="M103.418 9.98506H99.3216V5.8064H96.3574V17.0093H99.3216V12.5919H103.418V17.0093H106.382V5.8064H103.418V9.98506Z" fill="#F03C2F"/>
</g>
</svg>
