<?xml version="1.0" encoding="UTF-8"?>
<!DOCTYPE svg PUBLIC "-//W3C//DTD SVG 1.1//EN" "http://www.w3.org/Graphics/SVG/1.1/DTD/svg11.dtd">
<!-- Creator: CorelDRAW X8 -->
<?xml-stylesheet href="jlogo2.css" type="text/css"?>
<svg xmlns="http://www.w3.org/2000/svg" xml:space="preserve" width="19.18mm" height="19.182mm" version="1.1" style="shape-rendering:geometricPrecision; text-rendering:geometricPrecision; image-rendering:optimizeQuality; fill-rule:evenodd; clip-rule:evenodd"
viewBox="0 0 191800 191820"
 xmlns:xlink="http://www.w3.org/1999/xlink"
 xmlns:xodm="http://www.corel.com/coreldraw/odm/2003">
 <g id="Слой_x0020_1">
  <metadata id="CorelCorpID_0Corel-Layer"/>
  <path class="fil0" d="M165651 0l-139492 0c-14416,0 -26158,11742 -26158,26158l0 139503c0,14416 11742,26158 26158,26158l139492 0c14427,0 26147,-11742 26147,-26158l0 -139503c0,-14416 -11731,-26158 -26147,-26158zm-77763 134101c0,6070 -3429,11623 -8863,14341l-23204 11602 0 -34180c0,-6070 3429,-11634 8863,-14341l23204 -11602 0 34180zm48111 -24056c0,6070 -3440,11623 -8863,14351l-23204 11602 0 -78280c0,-6070 3429,-11623 8863,-14341l23214 -11602 0 78280 -10 -10z" fill="#f05323"/>
 </g>
</svg>
