<svg width="90" height="37" viewBox="0 0 90 37" fill="none" xmlns="http://www.w3.org/2000/svg">
<path fill-rule="evenodd" clip-rule="evenodd" d="M27.8801 9.25007H12.3579L13.4778 6H29L27.8801 9.25007ZM27.3197 10.875H11.7972L10.6773 14.125H26.1998L27.3197 10.875ZM25.6421 15.7499H10.1199L9 19H24.5222L25.6421 15.7499Z" fill="#00AAFF"/>
<path d="M41.3782 30.9749L35 11.0082H39.4747L41.9462 19.6897C42.66 22.2707 43.0437 23.6331 43.5196 25.7902C43.9494 23.7239 44.2334 22.7627 45.0547 19.826L47.5185 11.0082H51.8013L45.331 30.9749H41.3782ZM58.4942 30.9749V14.3234H52.6379V11.0082H68.9096L67.7583 14.3612H62.5621V30.9749H58.4942ZM74.2132 18.9934H76.5158C76.9776 19.0122 77.4398 18.9689 77.8897 18.8647C78.3679 18.7126 78.7799 18.4055 79.0586 17.9932C79.3373 17.581 79.4664 17.0878 79.4248 16.594C79.487 16.1034 79.3653 15.6073 79.0826 15.1989C78.7999 14.7905 78.3757 14.498 77.8897 14.3764C77.3871 14.2598 76.8703 14.2139 76.3547 14.2401H74.2132V18.9934ZM74.2132 22.4524V27.7506H77.0224C77.7967 27.8394 78.5757 27.6277 79.1945 27.1602C79.464 26.8956 79.6721 26.5766 79.8046 26.2251C79.9371 25.8737 79.9908 25.4981 79.9621 25.1242C79.9799 24.5063 79.797 23.899 79.4401 23.3909C78.8415 22.634 78.1046 22.4902 76.8382 22.4902L74.2132 22.4524ZM80.7373 20.3785V20.4466C81.4212 20.7024 82.0587 21.0653 82.6254 21.5214C83.2039 21.9926 83.6612 22.5921 83.96 23.2708C84.2588 23.9496 84.3906 24.6884 84.3447 25.4269C84.3447 28.1593 82.871 30.1348 80.4533 30.7251C79.4878 30.9456 78.4954 31.0297 77.506 30.9749H70.176V11.0082H76.6617C77.6926 10.9706 78.7242 11.0622 79.7318 11.2807C82.0804 11.9013 83.6232 13.4984 83.6232 16.0188C83.6419 16.6197 83.5366 17.218 83.3136 17.7775C83.0906 18.337 82.7546 18.8459 82.3261 19.2734C81.8788 19.7452 81.338 20.1213 80.7373 20.3785V20.3785Z" fill="#002882"/>
</svg>
