<svg xmlns="http://www.w3.org/2000/svg" width="1325" height="286" viewBox="0 0 1325 286"><defs><style>.cls-1{fill:#fff}.cls-2{fill:#ec008d;fill-rule:evenodd}</style></defs><path id="Прямоугольник_1" data-name="Прямоугольник 1" class="cls-1" d="M43 29h1205v199H43z"/><path id="Заливка_цветом_1" data-name="Заливка цветом 1" class="cls-2" d="M0 0h1230l72 73q11.505 11 23 22v190c-8.15 2.968-26.61 1-37 1H0V0zm376 73h-8l-26 27h9c2.346 2.108 19.99 1.086 25 1v19l7 6 1 2h24v-27h25c2.508-6.779 1.052-19.422 1-28h-26V45h-31c-2.508 6.779-1.052 19.422-1 28zM93 188h85v26h21l8-9 2-1V100h-10l-16 17-5 4v39c-4.58 1.68-12.819 1-19 1h-38c1.195-4.467 5.173-6.164 8-9l3-4h1v-2l10-9 23-25 16-15v-2l22-21v-1h-37l-2 3h-1v2l-21 20v1l-2 1v2l-12 11-16 18c-6.262 6.268-13.085 11.319-18 19l-2 1v37zm283 26v-66l-9-8-1-2h-51l-9 10-2 1v15c1.135.844.145-.127 1 1h39v22h-74c-2.407-6.584-1-18.647-1-27v-59c4.333-1.59 12.088-1 18-1h35l10-11 2-1v-2l13-12v-1H247l-7 8-2 1v40c-2.07 2.355-1 16.292-1 21v54h1v7l9 8 1 2h128zm212-27v27h21c1.66-2.943 7.069-8.316 10-10V73h-41l-16 17-4 3c-5.077 7.019-10.965 12.962-17 19l-6 5c-5.077 7.019-10.965 12.962-17 19l-6 5-1 3-22 21v2l-6 5c-6.034 6.038-11.924 11.98-17 19l-2 1c-2.312 2.444-7.088 6.675-8 10l11 10 1 2h11c1.546-2.671 3.92-3.918 6-6l8-9 5-4v-1l2-1v-2l12-11 8-9 4-3v-2h1l2-3 21-20c5.343-7.384 11.646-13.642 18-20l6-5v-2l16-15v59c-7.366 2.714-28.109 1.047-38 1l-25 26h63zm68-114v131l9 8 1 2h112v-15l-10-9-1-2h-80V83l-9-8-1-2h-21zm98 0v16l9 8 1 2h57l1 105 9 8 1 2h11l8-9 2-1V99h58l10-11V73H754zm324 141v-17l-9-8c-.33-.667-.67-1.333-1-2h-86c-2.784-7.536-1.053-21.6-1-31h52v-18l-9-8c-.33-.667-.67-1.333-1-2h-42v-27c6.836-2.5 19.37-1 28-1h59q4.005-4.5 8-9c.67-.333 1.33-.667 2-1V73H959l-6 8-3 2v121l9 8 1 2h118zm36-141v131l9 8c.33.667.67 1.333 1 2h112v-16l-9-8c-.33-.667-.67-1.333-1-2h-81V83l-9-8c-.33-.667-.67-1.333-1-2h-21z"/></svg>