<svg xmlns="http://www.w3.org/2000/svg" viewBox="0 0 157.33333 20" height="20" width="157.333"><path d="M64.006 10.199h3.618l1.139-5.598-4.757 5.598zm5.078-9.428h3.298l-2.539 14.661h-3.388l.559-2.743h-5.013l-2.332 2.743h-3.504l12.919-14.661zm3.917 9.626h3.193c-.142.234-.248.464-.322.688-.192.587-.124 1.074.198 1.466.322.392 1.006.59 2.055.59 1.115-.001 1.997-.244 2.644-.732.644-.487 1.065-1.034 1.263-1.64.323-.988-.205-1.482-1.58-1.482h-1.957l1.417-2.687h1.625c.966 0 1.689-.198 2.168-.59.477-.395.793-.83.949-1.307.171-.524.1-.922-.212-1.192-.314-.273-.845-.408-1.593-.408-.786 0-1.498.184-2.133.55-.635.365-1.202.994-1.703 1.88h-3.299c.698-1.258 1.499-2.266 2.406-3.023.907-.761 1.881-1.297 2.93-1.617 1.049-.319 2.181-.477 3.402-.477 1.82 0 3.036.329 3.649.988.615.655.743 1.534.385 2.631-.226.691-.573 1.304-1.043 1.841-.47.534-.997.968-1.587 1.301-.587.333-1.183.556-1.781.669l-.013.039c1.482.398 1.966 1.386 1.45 2.964-.174.533-.452 1.076-.836 1.637-.386.56-.912 1.09-1.582 1.597-.668.503-1.518.919-2.543 1.241-1.025.323-2.212.484-3.556.484-.966 0-1.848-.076-2.64-.228-.792-.151-1.414-.481-1.864-.994-.451-.51-.521-1.248-.204-2.216.304-.929.544-1.587.717-1.973zm22.031-6.78l-6.233 11.815h-3.261l7.741-14.661h11.744l-7.744 14.661h-3.258l6.232-11.815h-5.221zm13.049 9.385c.792 0 1.542-.195 2.247-.583.702-.389 1.333-.896 1.888-1.519.558-.622 1.03-1.287 1.419-1.992.389-.705.688-1.374.897-2.012.807-2.463.234-3.695-1.717-3.695-.789 0-1.536.194-2.237.583-.698.385-1.328.895-1.884 1.524-.554.629-1.026 1.294-1.413 1.992-.388.702-.684 1.371-.891 2.005-.358 1.094-.422 1.983-.19 2.668.229.685.856 1.028 1.881 1.028zm-1.189 2.845c-1.649 0-2.827-.329-3.535-.985-.708-.656-1.072-1.433-1.093-2.335-.02-.899.12-1.808.42-2.727.332-1.014.835-2.068 1.508-3.158.674-1.09 1.502-2.114 2.489-3.069.984-.954 2.109-1.728 3.376-2.324 1.266-.597 2.621-.893 4.065-.893.531-.001 1.09.056 1.681.168.588.112 1.154.365 1.694.754.544.389.909 1.002 1.1 1.841.192.836.068 1.93-.376 3.283-.333 1.017-.833 2.071-1.497 3.161-.663 1.087-1.483 2.111-2.456 3.066-.974.955-2.087 1.729-3.347 2.322-1.256.593-2.6.893-4.03.896zm16.098-15.076h3.264l-1.887 3.537c-.223.455-.378.814-.468 1.087-.135.411-.123.718.037.922.16.204.385.333.685.386.298.049.661.075 1.099.075.705 0 1.418-.052 2.142-.158l3.088-5.849h3.261l-7.741 14.661h-3.261l3.16-5.967c-.935.105-1.928.158-2.977.158-.761 0-1.422-.069-1.981-.21-.562-.142-.973-.461-1.244-.955-.265-.497-.243-1.221.068-2.173.157-.481.388-1.014.691-1.6l2.063-3.913zm15.62 2.845h-4.178l1.491-2.845h11.612l-1.49 2.845h-4.178l-6.232 11.815h-3.261l6.235-11.815zm9.093 6.583h3.618l1.14-5.598-4.757 5.598zm5.078-9.428h3.3l-2.539 14.661h-3.389l.559-2.743h-5.013l-2.331 2.743h-3.505l12.918-14.661zm-102.654 6.244l7.69-6.244h3.947l-8.969 7.034 1.322 6.226h2.362l-2.7 5.177h-3.261l2.015-3.776h-1.92l-1.112-7.251h-.056l-3.77 7.251h-3.261l7.741-14.661h3.261l-3.347 6.244h.059zm-3.654-6.227h-45.607l28.108 17.112h7.903l.594-.956 5.17-9.279h-11.724l3.987 3.175h-4.932l-7.439-4.784h21.005l2.935-5.268" fill="#2056ae" fill-rule="evenodd"/></svg>