<svg xmlns="http://www.w3.org/2000/svg" viewBox="0 0 355 140"><path fill="#141414" d="M5 51.346V70.12l50.646-5.571v-20.32L5 51.346m16.162 19.916v64.333h18.542V69.367l-18.542 1.895m41.324-27.994v92.327h19.538V40.521l-19.538 2.747m23.178-3.259v21.239l28.213-3.104V36.045l-28.213 3.964m0 37.047v21.626l18.52-1.01v-22.21l-18.52 1.594m0 37.214v21.325h28.213v-22.176l-28.213.851m101.175-88.512v109.837h25.613V22.158l-25.613 3.6m30.396-4.273V46.75l37.326-4.104V16.238l-37.326 5.247m0 44.266v25.733l24.465-1.336V63.656l-24.465 2.095m0 44.542v25.302h37.326v-26.429l-37.326 1.127m-95.893-75.299v100.601h22.256V31.865l-22.256 3.129m26.41 77.403v23.197h32.306v-24.172l-32.306.975m190.492-97.401c-8.095-7.648-19.964-10.785-32.946-8.92v28.022c5.257-.292 9.517 1.659 11.415 5.587 2.997 6.193-.095 15.485-7.389 24.094-11.258 13.285-41.195 40.477-41.195 40.477l42.976-1.413c26.259-25.654 35.689-41.226 37.381-60.661.889-10.282-2.843-20.189-10.242-27.186M350 135.595v-29.321l-87.168 2.626m0-.001l.009 26.695H350M300.287 6.705c-25.323 5.393-37.758 24.023-36.323 54.422l27-2.396c-1.23-17.174 4.023-21.248 9.336-23.488l-.013-28.538"/></svg>