<?xml version="1.0" encoding="UTF-8" standalone="no"?>
<!-- Created with Inkscape (http://www.inkscape.org/) -->

<svg
   xmlns:dc="http://purl.org/dc/elements/1.1/"
   xmlns:cc="http://creativecommons.org/ns#"
   xmlns:rdf="http://www.w3.org/1999/02/22-rdf-syntax-ns#"
   xmlns:svg="http://www.w3.org/2000/svg"
   xmlns="http://www.w3.org/2000/svg"
   version="1.1"
   width="378.3125"
   height="378.28125"
   id="svg3176">
  <defs
     id="defs3178" />
  <g
     transform="translate(-182.27232,-308.93584)"
     id="layer1">
    <path
       d="m 371.42857,309.93584 c -1.61914,0 -3.23419,0.0215 -4.84375,0.0625 -1.32212,0.037 -2.65411,0.0892 -3.96875,0.15625 -99.56065,4.63021 -179.34375,87.26636 -179.34375,187.9375 0,103.62526 84.53099,188.125 188.15625,188.125 103.62559,0 188.15625,-84.49974 188.15625,-188.125 0,-100.67114 -79.7828,-183.30729 -179.34375,-187.9375 -1.31463,-0.067 -2.64664,-0.11922 -3.96875,-0.15625 -0.14536,-0.004 -0.29206,0.003 -0.4375,0 -1.46854,-0.0374 -2.92897,-0.0625 -4.40625,-0.0625 z m 0,12.15625 c 0.43944,0 0.87427,0.026 1.3125,0.0312 13.43787,0.68503 24.1875,11.83476 24.1875,25.4375 0,14.04154 -11.45814,25.5 -25.5,25.5 -14.04154,0 -25.5,-11.45846 -25.5,-25.5 0,-13.62359 10.78359,-24.78364 24.25,-25.4375 0.41743,-0.005 0.83147,-0.0312 1.25,-0.0312 z m -29.21875,14.15625 c -1.36863,3.51493 -2.125,7.32344 -2.125,11.3125 0,17.27104 14.07401,31.375 31.34375,31.375 17.27104,0 31.34375,-14.10396 31.34375,-31.375 0,-3.98906 -0.75644,-7.79757 -2.125,-11.3125 4.33754,5.95926 6.90625,13.28119 6.90625,21.1875 0,19.89444 -16.23121,36.125 -36.125,36.125 -19.89346,0 -36.125,-16.23056 -36.125,-36.125 0,-7.90631 2.56873,-15.22824 6.90625,-21.1875 z m -7.90625,2.15625 c -2.94555,5.71419 -4.625,12.1804 -4.625,19.03125 0,22.995 18.75533,41.75 41.75,41.75 22.99401,0 41.75,-18.755 41.75,-41.75 0,-6.85085 -1.67934,-13.31706 -4.625,-19.03125 7.00142,8.39126 11.21875,19.1665 11.21875,30.90625 0,26.63228 -21.71049,48.375 -48.34375,48.375 -26.63229,0 -48.34375,-21.74273 -48.34375,-48.375 0,-11.73975 4.21749,-22.51499 11.21875,-30.90625 z m -10.53125,4.15625 c -4.47192,7.91927 -7.03125,17.03763 -7.03125,26.75 0,30.11411 24.5747,54.6875 54.6875,54.6875 30.11411,0 54.6875,-24.57339 54.6875,-54.6875 0,-9.71237 -2.55943,-18.83073 -7.03125,-26.75 8.58527,10.56332 13.71875,24.03707 13.71875,38.65625 0,33.8126 -27.56207,61.375 -61.375,61.375 -33.8126,0 -61.375,-27.5624 -61.375,-61.375 0,-14.61918 5.1335,-28.09293 13.71875,-38.65625 z m 118.96875,6.5 c 0.26154,0.22987 0.52194,0.45517 0.78125,0.6875 15.69385,17.27667 25.28125,40.19652 25.28125,65.28125 0,53.54831 -43.70169,97.21875 -97.25,97.21875 -53.54831,0 -97.21875,-43.67044 -97.21875,-97.21875 0,-24.99704 9.52863,-47.83821 25.125,-65.09375 -11.72569,15.28292 -18.71875,34.38647 -18.71875,55.0625 0,49.9454 40.74244,90.65625 90.6875,90.65625 49.94539,0 90.6875,-40.71085 90.6875,-90.65625 0,-21.07071 -7.2417,-40.5121 -19.375,-55.9375 z m 28.375,1.09375 c 1.47764,0.99971 2.92912,2.0202 4.375,3.0625 37.27554,30.2626 61.15625,76.40464 61.15625,127.96875 0,90.78154 -74.03096,164.84375 -164.8125,164.84375 -90.78154,0 -164.84375,-74.06221 -164.84375,-164.84375 0,-51.69816 24.0266,-97.96044 61.46875,-128.21875 -32.71383,28.69974 -53.40625,70.79969 -53.40625,117.5625 0,86.13201 70.24333,156.375 156.375,156.375 86.132,0 156.375,-70.24299 156.375,-156.375 0,-48.30642 -22.08473,-91.65032 -56.6875,-120.375 z m -168.625,6.53125 c -5.77744,10.87951 -9.0625,23.26946 -9.0625,36.40625 0,42.95587 35.04413,78 78,78 42.95719,0 78,-35.04413 78,-78 0,-13.13679 -3.28515,-25.52674 -9.0625,-36.40625 9.62749,13.6923 15.3125,30.36599 15.3125,48.3125 0,46.40433 -37.84666,84.25 -84.25,84.25 -46.404,0 -84.25,-37.84567 -84.25,-84.25 0,-17.94651 5.68515,-34.6202 15.3125,-48.3125 z m -19.28125,2.21875 c -15.8487,19.53433 -25.375,44.39194 -25.375,71.40625 0,62.56461 51.02914,113.59375 113.59375,113.59375 62.56494,0 113.59375,-51.02914 113.59375,-113.59375 0,-27.01431 -9.52648,-51.87192 -25.375,-71.40625 20.31258,21.65993 32.78125,50.74049 32.78125,82.65625 0,66.64469 -54.35432,121 -121,121 -66.64469,0 -121,-54.35531 -121,-121 0,-31.91576 12.46885,-60.99632 32.78125,-82.65625 z m 192.8125,0.0312 c 29.473,27.62761 47.9375,66.86078 47.9375,110.28125 0,83.30144 -67.94855,151.25 -151.25,151.25 -83.30046,0 -151.21875,-67.94856 -151.21875,-151.25 0,-34.18141 11.44075,-65.74862 30.6875,-91.125 -14.02207,21.9444 -22.1875,47.9655 -22.1875,75.84375 0,77.89232 63.54551,141.4375 141.4375,141.4375 77.89231,0 141.40625,-63.54518 141.40625,-141.4375 0,-36.51187 -13.9583,-69.86384 -36.8125,-95 z m -169.09375,2.2188 c -1.97845,6.3377 -3.03125,13.08771 -3.03125,20.0625 0,37.19854 30.33271,67.53125 67.53125,67.53125 37.19886,0 67.53125,-30.33271 67.53125,-67.53125 0,-6.97479 -1.05279,-13.7248 -3.03125,-20.0625 4.80255,9.63949 7.53125,20.47044 7.53125,31.9375 0,39.66451 -32.36575,72.03125 -72.03125,72.03125 -39.66452,0 -72.03125,-32.36674 -72.03125,-72.03125 0,-11.46706 2.72865,-22.29801 7.53125,-31.9375 z m 168.0625,7.03125 c 19.49286,23.36932 31.25,53.37316 31.25,86.0625 0,74.17486 -60.4814,134.6875 -134.65625,134.6875 -74.17486,0 -134.6875,-60.51264 -134.6875,-134.6875 0,-31.55594 10.95598,-60.6245 29.25,-83.625 -13.72139,20.28083 -21.75,44.69995 -21.75,70.9375 0,69.96681 57.06541,127.03125 127.03125,127.03125 69.96681,0 127.03125,-57.06444 127.03125,-127.03125 0,-27.30602 -8.70968,-52.62347 -23.46875,-73.375 z m -202.1875,17.65625 c -2.72415,9.2148 -4.1875,18.9537 -4.1875,29.03125 0,56.62629 46.18621,102.8125 102.8125,102.8125 56.62661,0 102.8125,-46.18621 102.8125,-102.8125 0,-10.07755 -1.46335,-19.81645 -4.1875,-29.03125 6.1543,13.57459 9.59375,28.63901 9.59375,44.46875 0,59.59495 -48.62445,108.21875 -108.21875,108.21875 -59.59496,0 -108.21875,-48.6238 -108.21875,-108.21875 0,-15.82974 3.43944,-30.89416 9.59375,-44.46875 z m -60.65625,31.84375 c -7.97324,19.76729 -12.375,41.34164 -12.375,63.90625 0,94.54614 77.10946,171.65625 171.65625,171.65625 94.54613,0 171.65625,-77.11011 171.65625,-171.65625 0,-22.56461 -4.40171,-44.13896 -12.375,-63.90625 12.27274,24.18362 19.21875,51.51728 19.21875,80.40625 0,98.31137 -80.1883,178.46875 -178.5,178.46875 -98.31137,0 -178.5,-80.15738 -178.5,-178.46875 0,-28.88897 6.94602,-56.22263 19.21875,-80.40625 z"
       id="path48"
       style="fill:#00adef;fill-opacity:1;fill-rule:evenodd;stroke:none" />
    <path
       d="m 297.57754,474.74886 72.05219,-147.37837 77.07479,161.63264 77.09902,0 14.42739,30.00905 -76.67946,-0.11325 43.4494,94.37365 -37.70416,-19.43724 -96.87107,-204.83331 -6.82685,13.8311 54.40183,114.81332 -181.9666,94.76607 33.54096,-80.28369 30.94048,0.0694 -10.98844,23.20739 66.9016,-37.04864 -153.25451,-0.16788 18.00479,-29.77049 153.24436,0.0131 -25.82818,-54.89273 -20.17557,41.28712 -30.84197,-0.0763 z"
       id="path74"
       style="fill:#2e3192;fill-opacity:1;fill-rule:evenodd;stroke:none" />
    <path
       d="m 236.34231,496.42463 4.43222,11.70385 -0.15741,0 -2.9186,0 -0.75697,-2.19239 -4.08565,0 -0.74127,2.19239 -0.15775,0 -2.91858,0 4.36676,-11.70385 0.15775,0 2.7795,0 z m 0,7.52461 -1.4354,-4.22866 -1.45178,4.22866 2.88718,0 z m 14.48302,-7.52461 0.15775,0 2.76085,0 0,11.70385 -0.15773,0 -2.76087,0 0,-7.38192 -4.51142,7.38192 -0.15774,0 -2.76085,0 0,-11.70385 0.15873,0 2.75986,0 0,7.30271 4.51142,-7.30271 z m 6.50222,3.89616 c 0,-0.52593 0.11525,-1.026 0.3469,-1.49923 0.23106,-0.47291 0.5724,-0.94156 1.02535,-1.40333 0.8617,-0.86302 2.1819,-1.29338 3.95931,-1.29338 l 0.15774,0 c 1.89228,0 3.26551,0.40909 4.11706,1.23218 0.85156,0.82373 1.41937,1.7486 1.7041,2.771 0.0936,0.34789 0.15676,0.69642 0.18916,1.04431 l 0.0631,0.96217 c 0,1.98818 -0.38126,3.42588 -1.14381,4.31474 -0.76254,0.88789 -1.61148,1.46389 -2.54845,1.72635 -0.37833,0.11613 -0.76156,0.19473 -1.15035,0.2376 l -1.04171,0.0631 -0.15774,0 c -1.92403,0 -3.31754,-0.47127 -4.18023,-1.41218 -0.86268,-0.94155 -1.35621,-1.99079 -1.48253,-3.14769 l 0.15775,0 2.80732,0 c 0,0.13747 0.0229,0.27655 0.0631,0.41303 0.0328,0.1584 0.09,0.31352 0.17345,0.46113 0.1584,0.34853 0.4369,0.67253 0.83585,0.96937 0.19014,0.14726 0.42676,0.2605 0.7105,0.34233 0.28375,0.0779 0.60381,0.11775 0.96218,0.11775 0.81981,0 1.42756,-0.1764 1.82191,-0.53084 0.39436,-0.35509 0.67059,-0.74945 0.82832,-1.18374 l 0.15775,-0.63359 0.0475,-0.55472 -4.4643,0 0,-2.14494 4.44827,0 -0.0471,-0.52134 c -0.0328,-0.26247 -0.12075,-0.54065 -0.26804,-0.83585 -0.15774,-0.35705 -0.4369,-0.67254 -0.83585,-0.94613 -0.19014,-0.1476 -0.42578,-0.26084 -0.71083,-0.33873 -0.28375,-0.0795 -0.60381,-0.1185 -0.96185,-0.1185 -0.6421,0 -1.14577,0.11025 -1.51395,0.3312 -0.34691,0.18916 -0.60021,0.40975 -0.75796,0.66305 -0.10412,0.15676 -0.19407,0.33579 -0.26804,0.5364 l -0.0782,0.37833 -0.15741,0 -2.80831,0 z m 24.76847,3.67558 c 0,0.14661 -0.01,0.27556 -0.0328,0.39141 -0.053,0.20781 -0.089,0.36556 -0.11025,0.47061 -0.0631,0.29128 -0.17345,0.61494 -0.3312,0.97036 -0.2952,0.63622 -0.81556,1.24298 -1.56239,1.81635 -0.36817,0.27065 -0.82013,0.47585 -1.35621,0.61233 -0.53639,0.1345 -1.17719,0.2029 -1.925,0.2029 l -0.15775,0.0475 c -0.16789,0 -0.30534,-0.0164 -0.41006,-0.0475 l -0.39436,0 c -1.22989,-0.11588 -2.35799,-0.58713 -3.38333,-1.41184 -1.02599,-0.82571 -1.53784,-2.34227 -1.53784,-4.55135 0,-1.87199 0.45458,-3.4046 1.36439,-4.5975 0.90915,-1.19387 2.33245,-1.79147 4.26663,-1.79147 l 0.15872,0 c 1.46094,0 2.55925,0.26083 3.29594,0.78118 0.73669,0.52037 1.25149,1.10749 1.54635,1.75875 0.15775,0.32564 0.26836,0.63655 0.3312,0.93077 0.0327,0.15741 0.0576,0.3024 0.0789,0.43396 0.0196,0.13189 0.0295,0.25985 0.0295,0.38585 l -0.15676,0 -2.7134,0 c 0,-0.11488 -0.0261,-0.24676 -0.0789,-0.39404 -0.0328,-0.13646 -0.0949,-0.30436 -0.1895,-0.50465 -0.13614,-0.27294 -0.37374,-0.52625 -0.70952,-0.75697 -0.17902,-0.12633 -0.37571,-0.21829 -0.59203,-0.27654 -0.216,-0.0576 -0.48142,-0.0864 -0.79593,-0.0864 -0.90457,0 -1.58071,0.37309 -2.02776,1.11992 -0.4464,0.74651 -0.66993,1.70868 -0.66993,2.88685 l 0,0.74127 c 0.0328,0.36818 0.12075,0.77006 0.26804,1.20698 0.1476,0.43592 0.4176,0.85417 0.80705,1.2541 0.1921,0.19963 0.42873,0.35442 0.71246,0.4657 0.28408,0.11062 0.61233,0.16527 0.98084,0.16527 0.30698,0 0.57599,-0.0374 0.80705,-0.11062 0.23366,-0.074 0.43886,-0.1836 0.61788,-0.3312 0.31516,-0.2736 0.55472,-0.57305 0.71247,-0.89869 l 0.15774,-0.45851 0.0785,-0.42479 0.15775,0 2.76085,0 z"
       id="path76"
       style="fill:#ffffff;fill-opacity:1;fill-rule:evenodd;stroke:none" />
  </g>
</svg>
