<?xml version="1.0" encoding="UTF-8" standalone="no"?>
<!-- Created with Inkscape (http://www.inkscape.org/) -->

<svg
   xmlns:dc="http://purl.org/dc/elements/1.1/"
   xmlns:cc="http://creativecommons.org/ns#"
   xmlns:rdf="http://www.w3.org/1999/02/22-rdf-syntax-ns#"
   xmlns:svg="http://www.w3.org/2000/svg"
   xmlns="http://www.w3.org/2000/svg"
   version="1.1"
   width="193.9538"
   height="142.66467"
   id="svg9196">
  <defs
     id="defs9198">
    <clipPath
       id="clipPath10858">
      <path
         d="m 51,203.3 489.24,0 0,69.024 -489.24,0 0,-69.024 z"
         id="path10860" />
    </clipPath>
    <clipPath
       id="clipPath10846">
      <path
         d="m 51,203.3 489.24,0 0,69.024 -489.24,0 0,-69.024 z"
         id="path10848" />
    </clipPath>
    <clipPath
       id="clipPath10834">
      <path
         d="m 51,203.3 489.24,0 0,69.024 -489.24,0 0,-69.024 z"
         id="path10836" />
    </clipPath>
    <clipPath
       id="clipPath10826">
      <path
         d="m 51,203.3 489.24,0 0,69.024 -489.24,0 0,-69.024 z"
         id="path10828" />
    </clipPath>
    <clipPath
       id="clipPath10814">
      <path
         d="m 51,203.3 489.24,0 0,69.024 -489.24,0 0,-69.024 z"
         id="path10816" />
    </clipPath>
    <clipPath
       id="clipPath10806">
      <path
         d="m 51,203.3 489.24,0 0,69.024 -489.24,0 0,-69.024 z"
         id="path10808" />
    </clipPath>
    <clipPath
       id="clipPath10794">
      <path
         d="m 51,203.3 489.24,0 0,69.024 -489.24,0 0,-69.024 z"
         id="path10796" />
    </clipPath>
    <clipPath
       id="clipPath10782">
      <path
         d="m 51,203.3 489.24,0 0,69.024 -489.24,0 0,-69.024 z"
         id="path10784" />
    </clipPath>
    <clipPath
       id="clipPath10770">
      <path
         d="m 51,203.3 489.24,0 0,69.024 -489.24,0 0,-69.024 z"
         id="path10772" />
    </clipPath>
    <clipPath
       id="clipPath10762">
      <path
         d="m 51,203.3 489.24,0 0,69.024 -489.24,0 0,-69.024 z"
         id="path10764" />
    </clipPath>
    <clipPath
       id="clipPath10750">
      <path
         d="m 51,203.3 489.24,0 0,69.024 -489.24,0 0,-69.024 z"
         id="path10752" />
    </clipPath>
    <clipPath
       id="clipPath10742">
      <path
         d="m 51,203.3 489.24,0 0,69.024 -489.24,0 0,-69.024 z"
         id="path10744" />
    </clipPath>
    <clipPath
       id="clipPath10730">
      <path
         d="m 51,203.3 489.24,0 0,69.024 -489.24,0 0,-69.024 z"
         id="path10732" />
    </clipPath>
    <clipPath
       id="clipPath10722">
      <path
         d="m 51,203.3 489.24,0 0,69.024 -489.24,0 0,-69.024 z"
         id="path10724" />
    </clipPath>
    <clipPath
       id="clipPath10710">
      <path
         d="m 51,203.3 489.24,0 0,69.024 -489.24,0 0,-69.024 z"
         id="path10712" />
    </clipPath>
    <clipPath
       id="clipPath10698">
      <path
         d="m 51,203.3 489.24,0 0,69.024 -489.24,0 0,-69.024 z"
         id="path10700" />
    </clipPath>
    <clipPath
       id="clipPath10690">
      <path
         d="m 51,203.3 489.24,0 0,69.024 -489.24,0 0,-69.024 z"
         id="path10692" />
    </clipPath>
    <clipPath
       id="clipPath10678">
      <path
         d="m 51,203.3 489.24,0 0,69.024 -489.24,0 0,-69.024 z"
         id="path10680" />
    </clipPath>
    <clipPath
       id="clipPath10670">
      <path
         d="m 51,203.3 489.24,0 0,69.024 -489.24,0 0,-69.024 z"
         id="path10672" />
    </clipPath>
    <clipPath
       id="clipPath10658">
      <path
         d="m 51,203.3 489.24,0 0,69.024 -489.24,0 0,-69.024 z"
         id="path10660" />
    </clipPath>
    <clipPath
       id="clipPath10650">
      <path
         d="m 51,203.3 489.24,0 0,69.024 -489.24,0 0,-69.024 z"
         id="path10652" />
    </clipPath>
    <clipPath
       id="clipPath10638">
      <path
         d="m 51,203.3 489.24,0 0,69.024 -489.24,0 0,-69.024 z"
         id="path10640" />
    </clipPath>
    <clipPath
       id="clipPath10626">
      <path
         d="m 51,203.3 489.24,0 0,69.024 -489.24,0 0,-69.024 z"
         id="path10628" />
    </clipPath>
    <clipPath
       id="clipPath10618">
      <path
         d="m 51,203.3 489.24,0 0,69.024 -489.24,0 0,-69.024 z"
         id="path10620" />
    </clipPath>
    <clipPath
       id="clipPath10606">
      <path
         d="m 51,203.3 489.24,0 0,69.024 -489.24,0 0,-69.024 z"
         id="path10608" />
    </clipPath>
    <clipPath
       id="clipPath10598">
      <path
         d="m 51,203.3 489.24,0 0,69.024 -489.24,0 0,-69.024 z"
         id="path10600" />
    </clipPath>
    <clipPath
       id="clipPath10586">
      <path
         d="m 51,203.3 489.24,0 0,69.024 -489.24,0 0,-69.024 z"
         id="path10588" />
    </clipPath>
    <clipPath
       id="clipPath10578">
      <path
         d="m 51,203.3 489.24,0 0,69.024 -489.24,0 0,-69.024 z"
         id="path10580" />
    </clipPath>
    <clipPath
       id="clipPath10566">
      <path
         d="m 51,203.3 489.24,0 0,69.024 -489.24,0 0,-69.024 z"
         id="path10568" />
    </clipPath>
    <clipPath
       id="clipPath10554">
      <path
         d="m 51,203.3 489.24,0 0,69.024 -489.24,0 0,-69.024 z"
         id="path10556" />
    </clipPath>
    <clipPath
       id="clipPath10542">
      <path
         d="m 51,203.3 489.24,0 0,69.024 -489.24,0 0,-69.024 z"
         id="path10544" />
    </clipPath>
    <clipPath
       id="clipPath10530">
      <path
         d="m 51,203.3 489.24,0 0,69.024 -489.24,0 0,-69.024 z"
         id="path10532" />
    </clipPath>
    <clipPath
       id="clipPath10522">
      <path
         d="m 51,203.3 489.24,0 0,69.024 -489.24,0 0,-69.024 z"
         id="path10524" />
    </clipPath>
    <clipPath
       id="clipPath10510">
      <path
         d="m 51,203.3 489.24,0 0,69.024 -489.24,0 0,-69.024 z"
         id="path10512" />
    </clipPath>
    <clipPath
       id="clipPath10502">
      <path
         d="m 51,203.3 489.24,0 0,69.024 -489.24,0 0,-69.024 z"
         id="path10504" />
    </clipPath>
    <clipPath
       id="clipPath10494">
      <path
         d="m 51,272.33 489.24,0 0,23.04 -489.24,0 0,-23.04 z"
         id="path10496" />
    </clipPath>
    <clipPath
       id="clipPath10482">
      <path
         d="m 51,272.33 489.24,0 0,23.04 -489.24,0 0,-23.04 z"
         id="path10484" />
    </clipPath>
    <clipPath
       id="clipPath10474">
      <path
         d="m 51,272.33 489.24,0 0,23.04 -489.24,0 0,-23.04 z"
         id="path10476" />
    </clipPath>
    <clipPath
       id="clipPath10462">
      <path
         d="m 51,272.33 489.24,0 0,23.04 -489.24,0 0,-23.04 z"
         id="path10464" />
    </clipPath>
    <clipPath
       id="clipPath10450">
      <path
         d="m 51,272.33 489.24,0 0,23.04 -489.24,0 0,-23.04 z"
         id="path10452" />
    </clipPath>
    <clipPath
       id="clipPath10438">
      <path
         d="m 51,272.33 489.24,0 0,23.04 -489.24,0 0,-23.04 z"
         id="path10440" />
    </clipPath>
    <clipPath
       id="clipPath10426">
      <path
         d="m 51,272.33 489.24,0 0,23.04 -489.24,0 0,-23.04 z"
         id="path10428" />
    </clipPath>
    <clipPath
       id="clipPath10414">
      <path
         d="m 51,272.33 489.24,0 0,23.04 -489.24,0 0,-23.04 z"
         id="path10416" />
    </clipPath>
    <clipPath
       id="clipPath10406">
      <path
         d="m 51,272.33 489.24,0 0,23.04 -489.24,0 0,-23.04 z"
         id="path10408" />
    </clipPath>
    <clipPath
       id="clipPath10394">
      <path
         d="m 51,272.33 489.24,0 0,23.04 -489.24,0 0,-23.04 z"
         id="path10396" />
    </clipPath>
    <clipPath
       id="clipPath10382">
      <path
         d="m 51,272.33 489.24,0 0,23.04 -489.24,0 0,-23.04 z"
         id="path10384" />
    </clipPath>
    <clipPath
       id="clipPath10374">
      <path
         d="m 51,272.33 489.24,0 0,23.04 -489.24,0 0,-23.04 z"
         id="path10376" />
    </clipPath>
    <clipPath
       id="clipPath10362">
      <path
         d="m 51,272.33 489.24,0 0,23.04 -489.24,0 0,-23.04 z"
         id="path10364" />
    </clipPath>
    <clipPath
       id="clipPath10354">
      <path
         d="m 51,272.33 489.24,0 0,23.04 -489.24,0 0,-23.04 z"
         id="path10356" />
    </clipPath>
    <clipPath
       id="clipPath10346">
      <path
         d="m 51,295.37 489.24,0 0,12.72 -489.24,0 0,-12.72 z"
         id="path10348" />
    </clipPath>
    <clipPath
       id="clipPath10334">
      <path
         d="m 51,295.37 489.24,0 0,12.72 -489.24,0 0,-12.72 z"
         id="path10336" />
    </clipPath>
    <clipPath
       id="clipPath10326">
      <path
         d="m 51,295.37 489.24,0 0,12.72 -489.24,0 0,-12.72 z"
         id="path10328" />
    </clipPath>
    <clipPath
       id="clipPath10314">
      <path
         d="m 51,295.37 489.24,0 0,12.72 -489.24,0 0,-12.72 z"
         id="path10316" />
    </clipPath>
    <clipPath
       id="clipPath10306">
      <path
         d="m 51,295.37 489.24,0 0,12.72 -489.24,0 0,-12.72 z"
         id="path10308" />
    </clipPath>
    <clipPath
       id="clipPath10298">
      <path
         d="m 51,308.09 489.24,0 0,23.04 -489.24,0 0,-23.04 z"
         id="path10300" />
    </clipPath>
    <clipPath
       id="clipPath10286">
      <path
         d="m 51,308.09 489.24,0 0,23.04 -489.24,0 0,-23.04 z"
         id="path10288" />
    </clipPath>
    <clipPath
       id="clipPath10274">
      <path
         d="m 51,308.09 489.24,0 0,23.04 -489.24,0 0,-23.04 z"
         id="path10276" />
    </clipPath>
    <clipPath
       id="clipPath10266">
      <path
         d="m 51,308.09 489.24,0 0,23.04 -489.24,0 0,-23.04 z"
         id="path10268" />
    </clipPath>
    <clipPath
       id="clipPath10254">
      <path
         d="m 51,308.09 489.24,0 0,23.04 -489.24,0 0,-23.04 z"
         id="path10256" />
    </clipPath>
    <clipPath
       id="clipPath10242">
      <path
         d="m 51,308.09 489.24,0 0,23.04 -489.24,0 0,-23.04 z"
         id="path10244" />
    </clipPath>
    <clipPath
       id="clipPath10234">
      <path
         d="m 51,308.09 489.24,0 0,23.04 -489.24,0 0,-23.04 z"
         id="path10236" />
    </clipPath>
    <clipPath
       id="clipPath10222">
      <path
         d="m 51,308.09 489.24,0 0,23.04 -489.24,0 0,-23.04 z"
         id="path10224" />
    </clipPath>
    <clipPath
       id="clipPath10214">
      <path
         d="m 51,308.09 489.24,0 0,23.04 -489.24,0 0,-23.04 z"
         id="path10216" />
    </clipPath>
    <clipPath
       id="clipPath10206">
      <path
         d="m 51,331.13 489.24,0 0,12.72 -489.24,0 0,-12.72 z"
         id="path10208" />
    </clipPath>
    <clipPath
       id="clipPath10194">
      <path
         d="m 51,331.13 489.24,0 0,12.72 -489.24,0 0,-12.72 z"
         id="path10196" />
    </clipPath>
    <clipPath
       id="clipPath10186">
      <path
         d="m 51,331.13 489.24,0 0,12.72 -489.24,0 0,-12.72 z"
         id="path10188" />
    </clipPath>
    <clipPath
       id="clipPath10174">
      <path
         d="m 51,331.13 489.24,0 0,12.72 -489.24,0 0,-12.72 z"
         id="path10176" />
    </clipPath>
    <clipPath
       id="clipPath10162">
      <path
         d="m 51,331.13 489.24,0 0,12.72 -489.24,0 0,-12.72 z"
         id="path10164" />
    </clipPath>
    <clipPath
       id="clipPath10150">
      <path
         d="m 51,331.13 489.24,0 0,12.72 -489.24,0 0,-12.72 z"
         id="path10152" />
    </clipPath>
    <clipPath
       id="clipPath10142">
      <path
         d="m 51,331.13 489.24,0 0,12.72 -489.24,0 0,-12.72 z"
         id="path10144" />
    </clipPath>
    <clipPath
       id="clipPath10130">
      <path
         d="m 51,331.13 489.24,0 0,12.72 -489.24,0 0,-12.72 z"
         id="path10132" />
    </clipPath>
    <clipPath
       id="clipPath10122">
      <path
         d="m 51,331.13 489.24,0 0,12.72 -489.24,0 0,-12.72 z"
         id="path10124" />
    </clipPath>
    <clipPath
       id="clipPath10114">
      <path
         d="m 51,343.85 489.24,0 0,34.44 -489.24,0 0,-34.44 z"
         id="path10116" />
    </clipPath>
    <clipPath
       id="clipPath10102">
      <path
         d="m 51,343.85 489.24,0 0,34.44 -489.24,0 0,-34.44 z"
         id="path10104" />
    </clipPath>
    <clipPath
       id="clipPath10090">
      <path
         d="m 51,343.85 489.24,0 0,34.44 -489.24,0 0,-34.44 z"
         id="path10092" />
    </clipPath>
    <clipPath
       id="clipPath10078">
      <path
         d="m 51,343.85 489.24,0 0,34.44 -489.24,0 0,-34.44 z"
         id="path10080" />
    </clipPath>
    <clipPath
       id="clipPath10066">
      <path
         d="m 51,343.85 489.24,0 0,34.44 -489.24,0 0,-34.44 z"
         id="path10068" />
    </clipPath>
    <clipPath
       id="clipPath10054">
      <path
         d="m 51,343.85 489.24,0 0,34.44 -489.24,0 0,-34.44 z"
         id="path10056" />
    </clipPath>
    <clipPath
       id="clipPath10046">
      <path
         d="m 51,343.85 489.24,0 0,34.44 -489.24,0 0,-34.44 z"
         id="path10048" />
    </clipPath>
    <clipPath
       id="clipPath10034">
      <path
         d="m 51,343.85 489.24,0 0,34.44 -489.24,0 0,-34.44 z"
         id="path10036" />
    </clipPath>
    <clipPath
       id="clipPath10026">
      <path
         d="m 51,343.85 489.24,0 0,34.44 -489.24,0 0,-34.44 z"
         id="path10028" />
    </clipPath>
    <clipPath
       id="clipPath10014">
      <path
         d="m 51,343.85 489.24,0 0,34.44 -489.24,0 0,-34.44 z"
         id="path10016" />
    </clipPath>
    <clipPath
       id="clipPath10006">
      <path
         d="m 51,343.85 489.24,0 0,34.44 -489.24,0 0,-34.44 z"
         id="path10008" />
    </clipPath>
    <clipPath
       id="clipPath9982">
      <path
         d="m 51,410.57 489.24,0 0,12.72 -489.24,0 0,-12.72 z"
         id="path9984" />
    </clipPath>
    <clipPath
       id="clipPath9970">
      <path
         d="m 51,410.57 489.24,0 0,12.72 -489.24,0 0,-12.72 z"
         id="path9972" />
    </clipPath>
    <clipPath
       id="clipPath9958">
      <path
         d="m 51,410.57 489.24,0 0,12.72 -489.24,0 0,-12.72 z"
         id="path9960" />
    </clipPath>
    <clipPath
       id="clipPath9950">
      <path
         d="m 51,410.57 489.24,0 0,12.72 -489.24,0 0,-12.72 z"
         id="path9952" />
    </clipPath>
    <clipPath
       id="clipPath9938">
      <path
         d="m 51,410.57 489.24,0 0,12.72 -489.24,0 0,-12.72 z"
         id="path9940" />
    </clipPath>
    <clipPath
       id="clipPath9930">
      <path
         d="m 51,410.57 489.24,0 0,12.72 -489.24,0 0,-12.72 z"
         id="path9932" />
    </clipPath>
    <clipPath
       id="clipPath9922">
      <path
         d="m 51,423.29 489.24,0 0,12.744 -489.24,0 0,-12.744 z"
         id="path9924" />
    </clipPath>
    <clipPath
       id="clipPath9910">
      <path
         d="m 51,423.29 489.24,0 0,12.744 -489.24,0 0,-12.744 z"
         id="path9912" />
    </clipPath>
    <clipPath
       id="clipPath9902">
      <path
         d="m 51,423.29 489.24,0 0,12.744 -489.24,0 0,-12.744 z"
         id="path9904" />
    </clipPath>
    <clipPath
       id="clipPath9890">
      <path
         d="m 51,423.29 489.24,0 0,12.744 -489.24,0 0,-12.744 z"
         id="path9892" />
    </clipPath>
    <clipPath
       id="clipPath9882">
      <path
         d="m 51,423.29 489.24,0 0,12.744 -489.24,0 0,-12.744 z"
         id="path9884" />
    </clipPath>
    <clipPath
       id="clipPath9874">
      <path
         d="m 51,436.03 489.24,0 0,34.56 -489.24,0 0,-34.56 z"
         id="path9876" />
    </clipPath>
    <clipPath
       id="clipPath9862">
      <path
         d="m 51,436.03 489.24,0 0,34.56 -489.24,0 0,-34.56 z"
         id="path9864" />
    </clipPath>
    <clipPath
       id="clipPath9850">
      <path
         d="m 51,436.03 489.24,0 0,34.56 -489.24,0 0,-34.56 z"
         id="path9852" />
    </clipPath>
    <clipPath
       id="clipPath9838">
      <path
         d="m 51,436.03 489.24,0 0,34.56 -489.24,0 0,-34.56 z"
         id="path9840" />
    </clipPath>
    <clipPath
       id="clipPath9826">
      <path
         d="m 51,436.03 489.24,0 0,34.56 -489.24,0 0,-34.56 z"
         id="path9828" />
    </clipPath>
    <clipPath
       id="clipPath9814">
      <path
         d="m 51,436.03 489.24,0 0,34.56 -489.24,0 0,-34.56 z"
         id="path9816" />
    </clipPath>
    <clipPath
       id="clipPath9802">
      <path
         d="m 51,436.03 489.24,0 0,34.56 -489.24,0 0,-34.56 z"
         id="path9804" />
    </clipPath>
    <clipPath
       id="clipPath9794">
      <path
         d="m 51,436.03 489.24,0 0,34.56 -489.24,0 0,-34.56 z"
         id="path9796" />
    </clipPath>
    <clipPath
       id="clipPath9782">
      <path
         d="m 51,436.03 489.24,0 0,34.56 -489.24,0 0,-34.56 z"
         id="path9784" />
    </clipPath>
    <clipPath
       id="clipPath9774">
      <path
         d="m 51,436.03 489.24,0 0,34.56 -489.24,0 0,-34.56 z"
         id="path9776" />
    </clipPath>
    <clipPath
       id="clipPath9766">
      <path
         d="m 51,470.59 489.24,0 0,12.72 -489.24,0 0,-12.72 z"
         id="path9768" />
    </clipPath>
    <clipPath
       id="clipPath9754">
      <path
         d="m 51,470.59 489.24,0 0,12.72 -489.24,0 0,-12.72 z"
         id="path9756" />
    </clipPath>
    <clipPath
       id="clipPath9746">
      <path
         d="m 51,470.59 489.24,0 0,12.72 -489.24,0 0,-12.72 z"
         id="path9748" />
    </clipPath>
    <clipPath
       id="clipPath9734">
      <path
         d="m 51,470.59 489.24,0 0,12.72 -489.24,0 0,-12.72 z"
         id="path9736" />
    </clipPath>
    <clipPath
       id="clipPath9726">
      <path
         d="m 51,470.59 489.24,0 0,12.72 -489.24,0 0,-12.72 z"
         id="path9728" />
    </clipPath>
    <clipPath
       id="clipPath9718">
      <path
         d="m 51,483.31 489.24,0 0,23.04 -489.24,0 0,-23.04 z"
         id="path9720" />
    </clipPath>
    <clipPath
       id="clipPath9706">
      <path
         d="m 51,483.31 489.24,0 0,23.04 -489.24,0 0,-23.04 z"
         id="path9708" />
    </clipPath>
    <clipPath
       id="clipPath9694">
      <path
         d="m 51,483.31 489.24,0 0,23.04 -489.24,0 0,-23.04 z"
         id="path9696" />
    </clipPath>
    <clipPath
       id="clipPath9682">
      <path
         d="m 51,483.31 489.24,0 0,23.04 -489.24,0 0,-23.04 z"
         id="path9684" />
    </clipPath>
    <clipPath
       id="clipPath9674">
      <path
         d="m 51,483.31 489.24,0 0,23.04 -489.24,0 0,-23.04 z"
         id="path9676" />
    </clipPath>
    <clipPath
       id="clipPath9662">
      <path
         d="m 51,483.31 489.24,0 0,23.04 -489.24,0 0,-23.04 z"
         id="path9664" />
    </clipPath>
    <clipPath
       id="clipPath9654">
      <path
         d="m 51,483.31 489.24,0 0,23.04 -489.24,0 0,-23.04 z"
         id="path9656" />
    </clipPath>
    <clipPath
       id="clipPath9646">
      <path
         d="m 51,506.35 489.24,0 0,22.92 -489.24,0 0,-22.92 z"
         id="path9648" />
    </clipPath>
    <clipPath
       id="clipPath9634">
      <path
         d="m 51,506.35 489.24,0 0,22.92 -489.24,0 0,-22.92 z"
         id="path9636" />
    </clipPath>
    <clipPath
       id="clipPath9622">
      <path
         d="m 51,506.35 489.24,0 0,22.92 -489.24,0 0,-22.92 z"
         id="path9624" />
    </clipPath>
    <clipPath
       id="clipPath9614">
      <path
         d="m 51,506.35 489.24,0 0,22.92 -489.24,0 0,-22.92 z"
         id="path9616" />
    </clipPath>
    <clipPath
       id="clipPath9602">
      <path
         d="m 51,506.35 489.24,0 0,22.92 -489.24,0 0,-22.92 z"
         id="path9604" />
    </clipPath>
    <clipPath
       id="clipPath9590">
      <path
         d="m 51,506.35 489.24,0 0,22.92 -489.24,0 0,-22.92 z"
         id="path9592" />
    </clipPath>
    <clipPath
       id="clipPath9582">
      <path
         d="m 51,506.35 489.24,0 0,22.92 -489.24,0 0,-22.92 z"
         id="path9584" />
    </clipPath>
    <clipPath
       id="clipPath9570">
      <path
         d="m 51,506.35 489.24,0 0,22.92 -489.24,0 0,-22.92 z"
         id="path9572" />
    </clipPath>
    <clipPath
       id="clipPath9562">
      <path
         d="m 51,506.35 489.24,0 0,22.92 -489.24,0 0,-22.92 z"
         id="path9564" />
    </clipPath>
    <clipPath
       id="clipPath9286">
      <path
         d="m 284.45,729.46 255.79,0 0,78.264 -255.79,0 0,-78.264 z"
         id="path9288" />
    </clipPath>
    <clipPath
       id="clipPath9278">
      <path
         d="m 284.45,729.46 255.79,0 0,78.264 -255.79,0 0,-78.264 z"
         id="path9280" />
    </clipPath>
    <clipPath
       id="clipPath9270">
      <path
         d="m 284.45,729.46 255.79,0 0,78.264 -255.79,0 0,-78.264 z"
         id="path9272" />
    </clipPath>
    <clipPath
       id="clipPath9262">
      <path
         d="m 284.45,729.46 255.79,0 0,78.264 -255.79,0 0,-78.264 z"
         id="path9264" />
    </clipPath>
    <clipPath
       id="clipPath9254">
      <path
         d="m 284.45,729.46 255.79,0 0,78.264 -255.79,0 0,-78.264 z"
         id="path9256" />
    </clipPath>
    <clipPath
       id="clipPath9246">
      <path
         d="m 45.6,729.46 238.85,0 0,78.264 -238.85,0 0,-78.264 z"
         id="path9248" />
    </clipPath>
    <clipPath
       id="clipPath9228">
      <path
         d="m 0,0 346.63,0 0,254.53 L 0,254.53 0,0 z"
         id="path9230" />
    </clipPath>
    <clipPath
       id="clipPath9218">
      <path
         d="m 45.6,729.46 238.85,0 0,78.264 -238.85,0 0,-78.264 z"
         id="path9220" />
    </clipPath>
    <clipPath
       id="clipPath9218-5">
      <path
         d="m 45.6,729.46 238.85,0 0,78.264 -238.85,0 0,-78.264 z"
         id="path9220-5" />
    </clipPath>
    <clipPath
       id="clipPath9228-1">
      <path
         d="m 0,0 346.63,0 0,254.53 L 0,254.53 0,0 z"
         id="path9230-2" />
    </clipPath>
    <clipPath
       id="clipPath9246-8">
      <path
         d="m 45.6,729.46 238.85,0 0,78.264 -238.85,0 0,-78.264 z"
         id="path9248-4" />
    </clipPath>
  </defs>
  <metadata
     id="metadata9201">
    <rdf:RDF>
      <cc:Work
         rdf:about="">
        <dc:format>image/svg+xml</dc:format>
        <dc:type
           rdf:resource="http://purl.org/dc/dcmitype/StillImage" />
        <dc:title></dc:title>
      </cc:Work>
    </rdf:RDF>
  </metadata>
  <g
     transform="translate(-151.95166,-127.03718)"
     id="layer1">
    <g
       transform="matrix(1.25,0,0,-1.25,-22.146939,1100.193)"
       id="g9212">
      <g
         transform="matrix(1.5737955,0,0,1.5737955,-42.673361,-492.16621)"
         id="g9214">
        <g
           clip-path="url(#clipPath9218-5)"
           id="g9216">
          <g
             transform="matrix(1.3785,0,0,1.0167,115.36,734.46)"
             id="g9222">
            <g
               transform="scale(0.20772,0.28287)"
               id="g9224">
              <g
                 clip-path="url(#clipPath9228-1)"
                 id="g9226">
                <path
                   d="M 13.312,253.64 0.88583,252.76 C 35.507,187.95 137.55,155.98 185.46,157.75 c 1.79,0 1.79,3.55 -0.89,3.55 -63.88,3.56 -142.862,39.96 -171.258,92.34 z"
                   id="path9232"
                   style="fill:#343739;fill-opacity:1;fill-rule:evenodd;stroke:none" />
                <path
                   d="m 331.89,253.64 13.31,0 C 308.81,177.29 193.45,138.22 139.32,138.22 c -1.77,0 -1.77,3.54 0.89,3.54 72.76,7.11 160.63,50.61 191.68,111.88 z"
                   id="path9234"
                   style="fill:#343739;fill-opacity:1;fill-rule:evenodd;stroke:none" />
                <path
                   d="m 312.38,25.445 13.31,0 0,-23.0805 5.31,0 0,23.0805 12.43,0 0,2.682 -31.05,0 0,-2.682 z m -20.43,-12.426 6.23,11.54 0,0 5.31,-11.54 -11.54,0 z m 13.32,-2.657 4.42,-7.9975 5.34,0 -14.19,25.7625 -5.34,0 -14.2,-25.7625 5.34,0 3.54,7.9975 15.09,0 z m -0.89,24.852 -4.43,0 0,-3.543 4.43,0 0,3.543 z m -8,0 -5.31,0 0,-3.543 5.31,0 0,3.543 z m -44.36,-9.769 12.42,0 0,-23.0805 5.34,0 0,23.0805 13.29,0 0,2.682 -31.05,0 0,-2.682 z m -6.2,2.682 -5.34,0 0,-25.7625 5.34,0 0,25.7625 z m -15.09,-7.111 c 0,2.658 -1.77,7.997 -15.08,7.997 -8.88,0 -13.31,-3.568 -13.31,-7.997 0,-4.429 6.2,-5.315 7.97,-6.225 l 8,-0.886 c 6.2,-0.886 7.97,-1.772 7.97,-5.3151 0,-3.5433 -6.2,-3.5433 -9.74,-3.5433 -4.46,0 -10.66,0.8858 -10.66,5.3154 l -4.43,0 c 0,-1.7721 0.89,-4.4296 3.55,-6.2258 1.77,-0.8858 4.42,-2.6575 11.54,-2.6575 7.08,0 15.08,1.7717 15.08,7.9971 0,4.4292 -3.57,6.2252 -8.88,7.1112 l -10.66,1.772 c -1.77,0 -4.43,0.885 -4.43,2.657 0,4.429 5.32,5.34 8.89,5.34 4.42,0 8.85,-1.797 8.85,-5.34 l 5.34,0 z m -62.13,4.429 13.31,0 c 2.66,0 6.23,0 6.23,-4.429 0,-3.543 -3.57,-4.429 -7.11,-4.429 l -12.43,0 0,8.858 z m 0,-11.54 12.43,0 c 6.22,0 7.11,-2.658 7.11,-5.3151 0,-0.8858 0,-4.4537 0.89,-6.2254 l 6.2,0 0,0.8859 c -1.78,0 -1.78,0.8858 -1.78,2.682 l 0,4.4296 c -0.88,3.543 -2.65,4.429 -5.31,4.429 2.66,0.91 5.31,2.682 5.31,6.225 0,6.226 -6.2,7.111 -12.42,7.111 l -17.74,0 0,-25.7625 5.31,0 0,11.5405 z m -11.54,-7.9726 -23.05,0 0,7.9726 21.28,0 0,3.568 -21.28,0 0,7.972 23.05,0 0,2.682 -27.51,0 0,-25.7625 27.51,0 0,3.5679 z m -49.68,0 0,0 -9.767,22.1946 -5.315,0 12.422,-25.7625 5.32,0 13.31,25.7625 -5.31,0 -10.66,-22.1946 z m -21.307,22.1946 -5.315,0 0,-25.7625 5.315,0 0,25.7625 z M 66.56,7.7041 l 0,0 -18.652,20.4229 -5.314,0 0,-25.7625 4.429,0 0,21.3095 0,0 18.651,-21.3095 5.315,0 0,25.7625 -4.429,0 0,-20.4229 z m -38.164,20.4229 0,-15.994 c 0,-6.2006 -4.429,-7.0864 -8.883,-7.0864 -4.429,0 -9.7443,0.8858 -9.7443,7.0864 l 0,15.994 -4.4537,0 0,-16.88 c 0,-5.3146 3.5679,-9.7683 13.312,-9.7683 10.654,0 15.084,4.4537 15.084,9.7683 l 0,16.88 -5.315,0 z"
                   id="path9236"
                   style="fill:#343739;fill-opacity:1;fill-rule:evenodd;stroke:none" />
                <path
                   d="m 333.66,99.141 -27.51,0 0,10.659 -7.08,0 0,-25.743 7.08,0 0,12.427 27.51,0 0,-12.427 7.11,0 0,25.743 -7.11,0 0,-10.659 z m -42.59,3.569 c -0.89,4.43 -8,7.97 -21.29,7.97 -15.1,0 -24.85,-5.31 -24.85,-13.311 0,-9.768 11.54,-14.197 23.94,-14.197 3.57,0 20.43,0.885 23.08,10.654 l -7.08,0 c -2.68,-6.225 -10.66,-7.111 -15.09,-7.111 -13.31,0 -16.88,4.454 -16.88,10.654 0,7.111 7.11,10.651 16.88,10.651 5.32,0 12.41,-0.88 15.09,-5.31 l 6.2,0 z m -52.36,0 c -0.89,2.66 -2.66,7.97 -20.4,7.97 -13.31,0 -18.65,-3.54 -18.65,-7.97 0,-4.455 7.99,-5.341 11.54,-6.226 l 10.65,-0.886 c 8.88,-0.886 11.54,-1.772 11.54,-4.429 0,-3.568 -8.88,-4.454 -14.2,-4.454 -7.11,0 -14.19,0.886 -14.19,6.225 l -7.12,0 c 0,-2.657 0.89,-5.339 5.34,-7.111 2.66,-0.886 6.2,-2.657 15.97,-2.657 8.86,0 20.4,1.771 20.4,7.997 0,4.429 -4.43,6.2 -11.54,7.086 l -15.08,1.775 c -3.55,0 -6.2,0.91 -6.2,3.56 0,3.55 7.08,4.43 11.54,4.43 6.2,0 13.31,-1.77 13.31,-5.31 l 7.09,0 z m -86.96,4.43 17.74,0 0,-23.083 7.11,0 0,23.083 17.74,0 0,2.66 -42.59,0 0,-2.66 z m -12.43,2.66 0,-15.974 c 0,-5.339 -7.09,-7.111 -13.31,-7.111 -7.09,0 -13.31,1.772 -13.31,7.111 l 0,15.974 -7.09,0 0,-16.86 c 0,-5.339 5.32,-9.768 19.51,-9.768 15.09,0 21.31,4.429 21.31,9.768 l 0,16.86 -7.11,0 z m -41.707,-22.199 -31.939,0 0,7.997 28.396,0 0,3.543 -28.396,0 0,7.999 31.053,0 0,2.66 -38.164,0 0,-25.743 39.05,0 0,3.544 z m -84.301,19.539 13.312,0 c 9.769,0 15.97,-3.55 15.97,-9.771 0,-6.2 -6.201,-9.768 -15.084,-9.768 l -14.198,0 0,19.539 z m -7.1112,-23.083 21.3092,0 c 17.741,0 22.195,7.998 22.195,13.312 0,8.001 -7.997,12.431 -22.195,12.431 l -21.3092,0 0,-25.743 z"
                   id="path9238"
                   style="fill:#343739;fill-opacity:1;fill-rule:evenodd;stroke:none" />
                <path
                   d="m 341.66,47.665 -21.31,0 0,8.858 19.54,0 0,2.682 -19.54,0 0,7.973 21.31,0 0,3.567 -25.74,0 0,-25.762 25.74,0 0,2.682 z m -38.17,12.426 -17.74,0 0,10.654 -5.34,0 0,-25.762 5.34,0 0,11.54 17.74,0 0,-11.54 5.32,0 0,25.762 -5.32,0 0,-10.654 z m -28.39,2.657 c 0,4.43 -5.32,8.883 -14.2,8.883 -10.65,0 -16.85,-6.225 -16.85,-13.312 0,-10.654 7.97,-14.222 15.96,-14.222 2.66,0 14.2,0 15.97,9.769 l -4.42,0 c -1.78,-5.315 -7.12,-7.112 -10.66,-7.112 -8.88,0 -11.54,5.34 -11.54,11.565 0,6.201 5.32,9.744 11.54,9.744 3.54,0 8.88,-0.885 9.77,-5.315 l 4.43,0 z m -35.51,0 c 0,3.544 -0.88,8.883 -14.2,8.883 -7.97,0 -11.54,-4.453 -11.54,-7.997 0,-4.429 5.34,-6.225 7.11,-6.225 l 7.09,-1.772 c 6.23,-0.886 8,-1.771 8,-4.429 0,-3.543 -6.2,-4.454 -9.77,-4.454 -4.43,0 -9.74,1.797 -9.74,6.226 l -4.46,0 c 0,-2.658 0.89,-4.429 3.57,-6.226 1.77,-0.886 4.43,-2.657 11.52,-2.657 5.33,0 13.31,1.771 13.31,7.997 0,3.543 -3.55,6.225 -7.98,7.111 l -9.76,1.772 c -2.66,0 -4.43,0.886 -4.43,2.657 0,4.429 5.31,4.429 7.97,4.429 4.45,0 8.88,-0.885 8.88,-5.315 l 4.43,0 z m -33.71,7.997 -4.43,0 0,-25.762 4.43,0 0,25.762 z m -16.85,-10.654 -18.66,0 0,10.654 -4.43,0 0,-25.762 4.43,0 0,11.54 18.66,0 0,-11.54 5.31,0 0,25.762 -5.31,0 0,-10.654 z m -28.4,2.657 c -0.89,4.43 -5.34,8.883 -14.2,8.883 -10.65,0 -16.88,-6.225 -16.88,-13.312 0,-10.654 8,-14.222 16,-14.222 2.65,0 13.28,0 15.97,9.769 l -5.34,0 c -1.78,-5.315 -7.09,-7.112 -9.75,-7.112 -8.88,0 -12.42,5.34 -12.42,11.565 0,6.201 5.31,9.744 12.42,9.744 2.66,0 7.97,-0.885 9.75,-5.315 l 4.45,0 z m -53.25,-7.111 6.2,11.541 0,0 5.34,-11.541 -11.54,0 z m 13.31,-3.543 3.55,-7.111 5.31,0 -13.31,25.762 -5.31,0 -13.317,-25.762 4.427,0 4.46,7.111 14.19,0 z M 94.07,62.748 c 0,3.544 -0.886,8.883 -13.312,8.883 -8.883,0 -12.426,-4.453 -12.426,-7.997 0,-4.429 5.315,-6.225 7.086,-6.225 l 7.997,-1.772 c 5.315,-0.886 7.112,-1.771 7.112,-4.429 0,-3.543 -5.34,-4.454 -8.883,-4.454 -4.429,0 -9.769,1.797 -9.769,6.226 l -4.429,0 c 0,-2.658 0,-4.429 3.543,-6.226 0.886,-0.886 3.543,-2.657 10.655,-2.657 6.201,0 14.198,1.771 14.198,7.997 0,3.543 -3.544,6.225 -8.883,7.111 l -9.744,1.772 c -1.797,0 -4.454,0.886 -4.454,2.657 0,4.429 5.339,4.429 7.997,4.429 4.429,0 8.858,-0.885 8.858,-5.315 l 4.454,0 z m -50.591,-7.111 5.34,11.541 0,0 5.315,-11.541 -10.655,0 z m 12.427,-3.543 3.543,-7.111 5.339,0 -12.426,25.762 -5.339,0 -14.198,-25.762 5.339,0 3.544,7.111 14.198,0 z m -47.0231,1.772 6.2011,3.543 12.426,-12.426 6.201,0 -15.97,15.108 15.084,10.654 -6.201,0 -17.7411,-12.426 0,12.426 -4.4538,0 0,-25.762 4.4538,0 0,8.883 z"
                   id="path9240"
                   style="fill:#343739;fill-opacity:1;fill-rule:evenodd;stroke:none" />
              </g>
            </g>
          </g>
          <g
             id="g9242">
            <g
               clip-path="url(#clipPath9246-8)"
               id="g9244" />
          </g>
        </g>
      </g>
    </g>
  </g>
</svg>
