<?xml version="1.0" encoding="UTF-8" standalone="no"?>
<svg
   xmlns:dc="http://purl.org/dc/elements/1.1/"
   xmlns:cc="http://creativecommons.org/ns#"
   xmlns:rdf="http://www.w3.org/1999/02/22-rdf-syntax-ns#"
   xmlns:svg="http://www.w3.org/2000/svg"
   xmlns="http://www.w3.org/2000/svg"
   viewBox="0 0 1190.5511 841.88977"
   id="svg2"
   height="841.88977"
   width="1190.5511"
   version="1.1">
  <metadata
     id="metadata18">
    <rdf:RDF>
      <cc:Work
         rdf:about="">
        <dc:format>image/svg+xml</dc:format>
        <dc:type
           rdf:resource="http://purl.org/dc/dcmitype/StillImage" />
      </cc:Work>
    </rdf:RDF>
  </metadata>
  <defs
     id="defs16" />
  <path
     id="path4"
     style="fill:#ffffff;fill-rule:evenodd;stroke:#000000;stroke-width:0.2;stroke-dasharray:none"
     d="m 0,0 0,841.8898 1190.5512,0 L 1190.5512,0 0,0 Z" />
  <path
     id="path6"
     style="fill:#008eb7;fill-rule:evenodd;stroke:#ffffff;stroke-width:1.00010002;stroke-linecap:butt;stroke-linejoin:miter;stroke-dasharray:none"
     d="m 73.9313,573.5112 35.8656,0 20.2436,0.2659 250.2941,0.2987 c 38.2892,0.0454 126.4733,-66.45 107.74,-154.8705 -13.3608,-63.0702 -64.1211,-101.7141 -126.653,-104.3674 -33.0641,-1.403 -136.1793,-0.5607 -156.9151,-1.122 -20.7352,-0.5614 -45.1128,0 -45.1128,0 -47.643,-12.4896 -42.741,-78.3796 3.0824,-86.131 13.5629,-2.2941 100.0328,0 100.0328,0 l 14.571,0.4211 c 0.003,0 -16.6117,-11.3958 -21.3781,-19.9619 -10.9832,-19.7408 -9.9533,-47.7088 18.2957,-66.7311 0.0322,-0.0217 -89.5352,-1.8215 -124.9723,0.4212 -76.8845,4.8645 -122.8494,99.5497 -102.694,167.3534 13.1555,44.2573 63.284,91.7431 111.5213,91.7431 l 210.6447,0.003 c 51.2861,5.0224 42.3784,75.84 7.6343,84.0238 L 74.771,488.5029 c 0,0 -8.7569,0.5685 -19.6848,10.458 -26.2393,23.7459 -15.2022,64.2719 18.8451,74.5503 z M 628.7051,287.6029 c 38.3978,0 69.5371,31.1393 69.5371,69.5371 0,38.3972 -31.1393,69.5364 -69.5371,69.5364 -38.3971,0 -69.5364,-31.1392 -69.5364,-69.5364 0,-38.3978 31.1393,-69.5371 69.5364,-69.5371 z m 263.7056,-66.7514 c 0,0 36.1465,-11.5024 56.602,-36.192 20.4548,-24.6895 20.1745,-26.9335 20.1745,-26.9335 0,0 6.8571,9.4065 7.9778,15.0178 1.1207,5.6108 0.9891,188.6664 0.9891,188.6664 0.007,47.7767 -84.0456,45.2727 -84.905,3.0877 -0.1402,-6.8729 -0.8384,-143.6464 -0.8384,-143.6464 z M 731.5728,158.5677 c 26.5341,21.6959 48.0511,41.7987 65.7064,71.2625 2.9416,4.9092 9.9468,19.3578 9.9468,19.3578 l 0.1402,-75.1892 c 0.021,-11.6406 -18.7327,-30.7214 -30.5418,-32.2639 -23.9182,-3.1259 -27.6692,1.5596 -43.5722,12.7646 -2.2591,1.5925 -1.6794,4.0682 -1.6794,4.0682 z M 309.4583,141.1525 c -47.9253,10.9365 -44.6212,80.3748 0.5225,86.3929 15.7095,2.094 295.0068,0.0803 297.7654,0.4363 109.2023,14.0893 147.0203,158.4872 72.8386,223.1829 -19.1749,16.7229 -63.1827,36.8789 -76.8088,36.6591 -31.6486,-0.5106 -94.8635,-1.3372 -94.9524,-1.0121 -4.0866,14.9119 -14.3301,37.0462 -24.5724,48.9665 -21.4801,25.0021 -44.6613,32.2645 -44.6725,34.344 l -0.0197,3.3661 c 59.8009,0.0737 163.2188,1.455 179.404,0.2224 46.9731,-3.5779 116.7024,-48.6532 142.629,-85.088 1.9131,-2.6882 45.2148,56.962 90.244,69.6661 98.0526,27.6633 170.7813,13.6596 230.9639,-42.0962 24.192,-22.4126 64.485,-81.5955 67.1562,-128.0165 0.3862,-6.717 -1.3991,-221.056 -1.3991,-221.056 -8.9313,-31.4071 -67.0055,-41.0966 -81.4969,4.8967 -2.9725,9.4354 -2.448,200.4195 -2.448,200.4195 -8.7082,76.3435 -82.7268,129.8348 -165.0929,111.5773 -42.0817,-9.3281 -83.1796,-53.6558 -91.0086,-95.7428 -4.8487,-26.0695 -4.1334,-53.8197 -9.1308,-79.1271 C 788.5921,254.5243 752.6324,205.217 705.046,174.4647 678.5343,157.3331 642.9642,141.134 613.8195,140.6379 c -103.4086,-1.7604 -201.9429,1.1147 -304.3612,0.5146 z" />
  <path
     id="path12"
     style="fill:#008eb7;fill-rule:evenodd"
     d="m 629.3662,291.3004 a 66.074,66.074 0 0 1 66.0739,66.0739 66.074,66.074 0 1 1 -66.0739,-66.0739 z" />
</svg>
