<svg xmlns="http://www.w3.org/2000/svg" width="357.703" height="252.815"><g><path d="M114.962 1h128.868v149.96h-128.868v-149.96z" fill="#00913d" fill-rule="evenodd"/><path d="M140.745 128.511h78.081v-75.014l-.944-4.246-2.359-5.897-3.538-5.661-4.482-4.718-5.661-3.774-5.19-2.831-3.774-1.651-4.718-1.415-3.538-.472-6.133-.472-5.426.472-5.979 1.649-5.056 1.966-5.3 3.194-3.657 2.653-4.304 3.569-3.821 4.561-2.313 5.053-1.887 6.605v76.43z" fill="#fff" fill-rule="evenodd"/><path d="M206.523 105.61c2.47.576 4.205 1.274 5.203 2.093 1.434 1.165 2.15 2.675 2.15 4.531 0 1.958-.787 3.578-2.362 4.858-1.933 1.549-4.743 2.323-8.429 2.323h-13.229v-.71c1.203 0 2.019-.112 2.448-.336.429-.224.73-.515.902-.874.173-.358.259-1.242.259-2.65v-16.896c0-1.408-.086-2.294-.259-2.659-.173-.365-.477-.656-.912-.874-.435-.218-1.248-.326-2.438-.326v-.71h12.48c2.982 0 5.094.266 6.336.797s2.221 1.325 2.938 2.381c.717 1.056 1.075 2.179 1.075 3.37 0 1.254-.454 2.371-1.363 3.35-.909.979-2.509 1.757-4.8 2.333zm-6.989-.518c1.818 0 3.158-.205 4.022-.614.864-.41 1.526-.986 1.987-1.728.461-.742.691-1.69.691-2.842 0-1.152-.227-2.096-.682-2.832-.454-.736-1.104-1.296-1.949-1.68-.845-.384-2.202-.57-4.07-.557zm0 1.498v8.352l-.019.96c0 .691.176 1.213.528 1.565.352.352.874.528 1.565.528 1.024 0 1.968-.227 2.832-.682.864-.454 1.526-1.114 1.987-1.978.461-.864.691-1.827.691-2.89 0-1.216-.282-2.307-.845-3.274-.563-.966-1.338-1.642-2.323-2.026-.986-.384-2.458-.57-4.416-.557zm-11.399 12.115v.71h-13.613v-.71h.864c.755 0 1.363-.134 1.824-.403.333-.179.589-.486.768-.922.141-.307.211-1.114.211-2.419v-17.127c0-1.331-.07-2.163-.211-2.496-.141-.333-.426-.624-.854-.874-.429-.25-1.008-.374-1.738-.374h-.864v-.71h13.613v.71h-.864c-.755 0-1.363.134-1.824.403-.333.179-.595.486-.787.922-.141.307-.211 1.114-.211 2.419v17.127c0 1.331.074 2.163.221 2.496.147.333.435.624.864.874s1.008.374 1.738.374zm-41.87-25.325h13.44v.71h-.672c-1.011 0-1.706.106-2.083.317-.378.211-.646.502-.806.874-.16.371-.24 1.299-.24 2.784v12.749c0 2.33.176 3.872.528 4.627.352.755.931 1.382 1.738 1.882.806.499 1.824.749 3.053.749 1.408 0 2.608-.317 3.6-.95.992-.634 1.734-1.507 2.227-2.621.493-1.114.739-3.053.739-5.818v-10.618c0-1.165-.122-1.997-.365-2.496-.243-.499-.55-.845-.922-1.037-.576-.294-1.389-.442-2.438-.442v-.71h9.005v.71h-.538c-.73 0-1.338.147-1.824.442-.486.294-.838.736-1.056 1.325-.166.41-.25 1.146-.25 2.208v9.888c0 3.059-.202 5.267-.605 6.624-.403 1.357-1.386 2.605-2.947 3.744-1.562 1.139-3.693 1.709-6.394 1.709-2.253 0-3.994-.301-5.223-.902-1.677-.819-2.861-1.869-3.552-3.149-.691-1.28-1.037-3.002-1.037-5.165v-12.749c0-1.498-.083-2.429-.25-2.794-.166-.365-.454-.656-.864-.874-.41-.218-1.165-.32-2.266-.307z" style="-inkscape-font-specification:TimesNewRomanPSMT Bold" font-size="18.188" font-weight="bold" fill="#1f1917" font-family="Times New Roman"/><path d="M345.102 247.067h.482c.372.934 1.011 1.777 1.916 2.529s1.857 1.25 2.856 1.492l.558.091c.186.026.372.039.558.039h.216l.241-.026c.322-.017.618-.104.888-.26.271-.156.406-.432.406-.83 0-.432-.216-.778-.647-1.038-.431-.259-.96-.493-1.586-.701-.288-.103-.588-.203-.901-.298-.313-.095-.622-.203-.926-.324-1.016-.381-1.946-.908-2.792-1.583-.846-.675-1.269-1.721-1.269-3.139 0-1.332.482-2.365 1.446-3.1.964-.735 2.056-1.102 3.274-1.103l.495.013c.161.009.317.03.47.065.372.052.757.134 1.155.246.398.112.867.264 1.408.454l1.98-.804h.558l.153 4.436h-.584c-.423-.969-1.104-1.842-2.043-2.62-.939-.778-1.958-1.167-3.058-1.167-.406 0-.758.082-1.054.247-.296.164-.444.489-.444.973 0 .294.131.541.393.739.262.199.546.368.85.506l.508.195.431.143 2.716.986c.879.346 1.577.891 2.093 1.635s.774 1.608.774 2.594v.182c-.017.64-.16 1.258-.431 1.855s-.669 1.085-1.193 1.466c-.457.311-.948.523-1.472.636-.524.112-1.049.177-1.573.195l-.355.026h-.355c-.356 0-.716-.052-1.079-.156l-1.079-.311-.533-.182-.507-.156-2.081.804h-.685l-.177-4.748zm-12.69 0h.482c.372.934 1.011 1.777 1.916 2.529s1.857 1.25 2.856 1.492l.558.091c.186.026.372.039.558.039h.216l.241-.026c.322-.017.618-.104.888-.26.271-.156.406-.432.406-.83 0-.432-.216-.778-.647-1.038-.431-.259-.96-.493-1.586-.701-.288-.103-.588-.203-.901-.298-.313-.095-.622-.203-.926-.324-1.016-.381-1.946-.908-2.792-1.583-.846-.675-1.269-1.721-1.269-3.139 0-1.332.482-2.365 1.446-3.1.964-.735 2.056-1.102 3.274-1.103l.495.013c.161.009.317.03.47.065.372.052.757.134 1.155.246.398.112.867.264 1.408.454l1.98-.804h.558l.153 4.436h-.584c-.423-.969-1.104-1.842-2.043-2.62-.939-.778-1.958-1.167-3.058-1.167-.406 0-.758.082-1.054.247-.296.164-.444.489-.444.973 0 .294.131.541.393.739.262.199.546.368.85.506l.508.195.431.143 2.716.986c.879.346 1.577.891 2.093 1.635s.774 1.608.774 2.594v.182c-.017.64-.16 1.258-.431 1.855s-.669 1.085-1.193 1.466c-.457.311-.948.523-1.472.636-.524.112-1.049.177-1.573.195l-.355.026h-.355c-.356 0-.716-.052-1.079-.156l-1.079-.311-.533-.182-.507-.156-2.081.804h-.685l-.177-4.748zm-1.167-.96h-8.173v1.089c0 1.055.161 1.942.482 2.659.321.718 1.074 1.076 2.259 1.076.947 0 1.827-.268 2.64-.804.812-.536 1.481-1.176 2.005-1.92l.482.311c-.761 1.142-1.675 1.976-2.741 2.504s-2.284.791-3.655.791c-.559 0-1.096-.022-1.612-.065-.516-.043-1.028-.134-1.535-.272-.169-.035-.339-.082-.508-.143l-.508-.194c-1.083-.467-1.971-1.172-2.665-2.115-.694-.943-1.041-2.175-1.041-3.697 0-2.076.719-3.68 2.157-4.813 1.438-1.133 3.113-1.699 5.025-1.699 2.2 0 3.989.644 5.368 1.933 1.379 1.288 2.052 3.083 2.018 5.383zm-8.173-.623h2.183v-4.4879999999999995c0-.397-.072-.756-.216-1.076-.144-.32-.452-.48-.926-.48-.389 0-.652.151-.787.454-.135.303-.22.636-.254.999v4.592zm-17.258-6.641v2.439c.491-.761 1.133-1.362 1.929-1.803.795-.441 1.633-.661 2.513-.662 1.201 0 2.187.329 2.956.986.77.657 1.155 1.928 1.155 3.814v7.187h1.371v.622h-8.35v-.622h.888v-8.198l.026-.234v-.26c-.017-.346-.081-.666-.191-.96-.11-.294-.36-.441-.749-.441-.372 0-.673.151-.901.454-.228.303-.393.644-.495 1.025-.051.173-.089.345-.114.519-.025.173-.038.329-.038.467v7.628h.888v.622h-8.401v-.622h1.396v-11.027h-1.345v-.622c.745.017 1.489.009 2.233-.026l2.233-.104c.508-.035 1.011-.065 1.51-.091.499-.026.994-.047 1.485-.065zm-8.35 12.582h-8.985v-.622h1.396v-11.027h-1.345v-.622c.643.017 1.277.013 1.903-.013.626-.026 1.261-.056 1.903-.091l.368-.013.368-.013c.508-.035 1.015-.065 1.523-.091.508-.026 1.015-.047 1.523-.065v11.935h1.345v.622zm-4.518-18.627l.139.025h.139c.779.035 1.494.229 2.145.584.651.354.977 1.016.977 1.985 0 .848-.292 1.462-.876 1.842-.584.381-1.231.605-1.941.675l-.292.013-.292.013-.292-.013-.292-.013c-.711-.069-1.358-.294-1.941-.675-.584-.381-.876-.995-.876-1.842 0-.969.326-1.63.977-1.985.651-.354 1.366-.549 2.144-.584h.279zm-16.928 14.269h.482c.372.934 1.011 1.777 1.916 2.529s1.857 1.25 2.856 1.492l.558.091c.186.026.372.039.558.039h.216l.241-.026c.322-.017.618-.104.888-.26.271-.156.406-.432.406-.83 0-.432-.216-.778-.647-1.038-.431-.259-.96-.493-1.586-.701-.288-.103-.588-.203-.901-.298-.313-.095-.622-.203-.926-.324-1.016-.381-1.946-.908-2.792-1.583-.846-.675-1.269-1.721-1.269-3.139 0-1.332.482-2.365 1.446-3.1.964-.735 2.056-1.102 3.274-1.103l.495.013c.161.009.317.03.47.065.372.052.757.134 1.155.246.398.112.867.264 1.408.454l1.98-.804h.558l.152 4.436h-.584c-.423-.969-1.104-1.842-2.043-2.62-.939-.778-1.958-1.167-3.058-1.167-.406 0-.758.082-1.054.247-.296.164-.444.489-.444.973 0 .294.131.541.393.739.262.199.546.368.85.506l.508.195.431.143 2.716.986c.879.346 1.577.891 2.093 1.635s.774 1.608.774 2.594v.182c-.017.64-.16 1.258-.431 1.855s-.669 1.085-1.193 1.466c-.457.311-.948.523-1.472.636-.524.112-1.049.177-1.573.195l-.355.026h-.355c-.356 0-.716-.052-1.079-.156l-1.079-.311-.533-.182-.507-.156-2.081.804h-.685l-.177-4.748zm-1.117 3.736v.622c-.711 0-1.425.017-2.144.052-.719.035-1.434.078-2.144.129-.508.035-1.011.065-1.51.091-.499.026-1.003.048-1.51.065v-2.439c-.525.847-1.189 1.474-1.992 1.881-.804.407-1.688.61-2.652.61-1.337 0-2.361-.329-3.071-.986-.711-.657-1.066-1.981-1.066-3.969v-7.083h-1.345v-.622c.745.017 1.489.009 2.233-.026l2.233-.104c.508-.035 1.011-.065 1.51-.091.499-.026.994-.047 1.485-.065v10.17c0 .294.072.545.216.753.144.208.376.312.697.312.423 0 .744-.173.964-.519.22-.346.381-.726.483-1.141.034-.208.059-.403.076-.584.017-.182.025-.35.025-.506v-7.575h-1.345v-.622c.626.017 1.248.013 1.866-.013.618-.026 1.239-.056 1.865-.091l.356-.013.381-.013c.491-.035.985-.065 1.484-.091.499-.026.994-.047 1.484-.065v11.935h1.421zm-27.715.622h-11.166v-.701h1.929v-16.578h-1.929v-.701h13.933l.876.065c.296.026.596.065.901.116 1.117.191 2.136.601 3.058 1.233.922.631 1.383 1.595 1.383 2.892 0 1.246-.44 2.163-1.32 2.751-.88.588-1.853.968-2.918 1.141-.271.052-.546.091-.825.117-.279.026-.546.039-.799.039v.493l.406.038.406.039.407.039.406.038c1.185.121 2.259.506 3.223 1.155.964.648 1.446 1.665 1.446 3.049 0 1.833-.626 3.057-1.878 3.671-1.252.614-2.622.973-4.112 1.076-.491.017-.968.026-1.434.026h-1.9940000000000002zm-1.472-9.002v8.301h.863c.609.017 1.049-.121 1.32-.415.271-.294.448-.614.533-.96.068-.208.106-.411.114-.61l.013-.506v-3.425c0-.986-.212-1.626-.634-1.92-.423-.294-.956-.441-1.599-.441l-.609-.025zm0-8.276v7.549h1.091c.491.017.854-.164 1.091-.545s.356-.865.356-1.453v-3.633c0-.657-.165-1.137-.495-1.44-.33-.303-.816-.454-1.459-.454l-.584-.025zm-18.68 17.278h-8.985v-.622h1.421v-16.734h-1.472v-.622c.728.017 1.455.004 2.183-.039.728-.043 1.447-.091 2.157-.143l1.65-.103c.542-.035 1.083-.061 1.624-.078v17.72h1.421v.622zm-17.157-6.953v-3.398c0-.571-.093-.973-.279-1.207-.186-.234-.575-.35-1.168-.35h-.203c-.203.017-.389.043-.558.078-.169.035-.254.104-.254.208v.026c.017.087.072.173.165.259l.317.312c.102.138.203.303.305.493.101.19.152.432.152.726 0 .675-.237 1.155-.711 1.44-.474.285-.99.471-1.548.558-.203.034-.397.056-.584.065l-.533.013-.318-.013-.317-.038c-.542-.069-1.037-.259-1.485-.571-.448-.311-.672-.787-.672-1.428 0-.138.013-.285.038-.441.025-.156.072-.311.139-.466.22-.485.761-.926 1.624-1.323.863-.398 2.369-.597 4.518-.597.305 0 .652.009 1.041.026.389.017.787.052 1.192.104.423.034.838.082 1.244.143.406.061.77.134 1.091.22.846.191 1.514.511 2.005.96.491.45.736 1.159.736 2.127v7.0569999999999995c.017.138.059.259.127.363.068.104.169.156.304.156.203 0 .368-.052.495-.156l.393-.338.013-.038.038-.013.051-.078.051-.052v.882c-.389.467-.859.826-1.409 1.077s-1.113.419-1.688.506l-.431.039-.431.013c-.728 0-1.366-.112-1.916-.337-.55-.225-.994-.701-1.333-1.428-.575.657-1.26 1.107-2.056 1.349-.795.242-1.607.381-2.437.416h-.71c-.914-.052-1.756-.312-2.525-.779-.77-.467-1.154-1.254-1.154-2.361v-.208c.034-.813.355-1.582.964-2.309.609-.726 1.768-1.211 3.477-1.453l.761-.091.685-.065.736-.038c.254-.009.524-.013.812-.013l1.243-.026zm0 3.217v-2.594h-.913c-.576.017-.948.237-1.117.661-.169.424-.254.886-.254 1.388v1.4649999999999999l.026.403c.017.311.089.605.216.882s.368.415.723.415c.491 0 .821-.169.99-.506.169-.337.27-.713.304-1.128l.026-.416v-.5449999999999999zm-19.669-8.846v2.439c.491-.761 1.133-1.362 1.929-1.803.795-.441 1.633-.661 2.513-.662 1.201 0 2.187.329 2.956.986.77.657 1.155 1.928 1.155 3.814v7.187h1.371v.622h-8.35v-.622h.888v-8.198l.026-.234v-.26c-.017-.346-.081-.666-.191-.96-.11-.294-.36-.441-.749-.441-.372 0-.673.151-.901.454-.228.303-.393.644-.495 1.025-.051.173-.089.345-.114.519-.025.173-.038.329-.038.467v7.628h.888v.622h-8.401v-.622h1.396v-11.027h-1.345v-.622c.745.017 1.489.009 2.233-.026l2.233-.104c.508-.035 1.011-.065 1.51-.091.499-.026.994-.047 1.485-.065zm-16.371-.052l.254.026h.254c.88.034 1.743.173 2.589.415.846.242 1.599.597 2.258 1.064.694.484 1.269 1.128 1.726 1.932.457.804.719 1.63.787 2.478l.025.247v.221c0 .969-.199 1.89-.596 2.763-.398.873-.96 1.621-1.688 2.244-.626.536-1.362.925-2.208 1.167-.846.242-1.718.389-2.614.441l-.393.026h-.787l-.393-.026c-.897-.052-1.768-.199-2.614-.441-.846-.242-1.582-.631-2.208-1.167-.728-.623-1.29-1.371-1.688-2.244-.398-.873-.596-1.794-.596-2.763v-.221l.025-.247c.068-.848.33-1.674.787-2.478.457-.804 1.032-1.448 1.726-1.932.66-.467 1.413-.822 2.259-1.064.846-.242 1.709-.381 2.589-.415h.507zm-1.269 2.595v7.861000000000001c0 .519.051.978.152 1.376.101.398.474.597 1.116.597.626 0 .986-.169 1.079-.506.093-.337.131-.731.115-1.18v-8.484000000000002c-.017-.398-.089-.766-.216-1.103-.127-.337-.453-.506-.977-.506s-.862.169-1.015.506c-.152.337-.237.705-.254 1.103v.363zm-7.639 10.04h-8.985v-.622h1.396v-11.027h-1.345v-.622c.643.017 1.277.013 1.903-.013.626-.026 1.261-.056 1.903-.091l.368-.013.368-.013c.508-.035 1.015-.065 1.523-.091.508-.026 1.015-.047 1.523-.065v11.935h1.345v.622zm-4.518-18.627l.139.025h.139c.779.035 1.494.229 2.145.584.651.354.977 1.016.977 1.985 0 .848-.292 1.462-.876 1.842-.584.381-1.231.605-1.941.675l-.292.013-.292.013-.292-.013-.292-.013c-.711-.069-1.358-.294-1.941-.675-.584-.381-.876-.995-.876-1.842 0-.969.326-1.63.977-1.985.651-.354 1.366-.549 2.144-.584h.279zm-8.807 1.79h.483v4.566h2.868v.622h-2.868v9.522c0 .242.042.467.127.675.085.207.279.311.584.311.423 0 .765-.19 1.028-.571.262-.381.469-.804.621-1.271.068-.225.128-.454.178-.688.051-.234.084-.437.101-.61l.558-.025c-.119 1.833-.669 3.074-1.65 3.723-.981.649-2.293.973-3.933.973-1.54 0-2.563-.285-3.071-.856s-.761-1.695-.761-3.373v-7.809h-1.497v-.622c1.573.017 2.973-.406 4.2-1.271 1.227-.865 2.238-1.955 3.033-3.27zm-15.05 9.884v-3.398c0-.571-.093-.973-.279-1.207-.186-.234-.575-.35-1.168-.35h-.203c-.203.017-.389.043-.558.078-.169.035-.254.104-.254.208v.026c.017.087.072.173.165.259l.317.312c.102.138.203.303.305.493.101.19.152.432.152.726 0 .675-.237 1.155-.711 1.44-.474.285-.99.471-1.548.558-.203.034-.397.056-.584.065l-.533.013-.318-.013-.317-.038c-.542-.069-1.037-.259-1.485-.571-.448-.311-.672-.787-.672-1.428 0-.138.013-.285.038-.441.025-.156.072-.311.139-.466.22-.485.761-.926 1.624-1.323.863-.398 2.369-.597 4.518-.597.305 0 .652.009 1.041.026.389.017.787.052 1.192.104.423.034.838.082 1.244.143.406.061.77.134 1.091.22.846.191 1.514.511 2.005.96.491.45.736 1.159.736 2.127v7.0569999999999995c.017.138.059.259.127.363.068.104.169.156.304.156.203 0 .368-.052.495-.156l.393-.338.013-.038.038-.013.051-.078.051-.052v.882c-.389.467-.859.826-1.409 1.077s-1.113.419-1.688.506l-.431.039-.431.013c-.728 0-1.366-.112-1.916-.337-.55-.225-.994-.701-1.333-1.428-.575.657-1.26 1.107-2.056 1.349-.795.242-1.607.381-2.437.416h-.71c-.914-.052-1.756-.312-2.525-.779-.77-.467-1.154-1.254-1.154-2.361v-.208c.034-.813.355-1.582.964-2.309.609-.726 1.768-1.211 3.477-1.453l.761-.091.685-.065.736-.038c.254-.009.524-.013.812-.013l1.243-.026zm0 3.217v-2.594h-.913c-.576.017-.948.237-1.117.661-.169.424-.254.886-.254 1.388v1.4649999999999999l.026.403c.017.311.089.605.216.882s.368.415.723.415c.491 0 .821-.169.99-.506.169-.337.27-.713.304-1.128l.026-.416v-.5449999999999999zm-19.669-8.846v2.439c.491-.761 1.133-1.362 1.929-1.803.795-.441 1.633-.661 2.513-.662 1.201 0 2.186.329 2.956.986s1.155 1.928 1.155 3.814v7.187h1.371v.622h-8.35v-.622h.888v-8.198l.026-.234v-.26c-.017-.346-.081-.666-.191-.96-.11-.294-.36-.441-.749-.441-.372 0-.673.151-.901.454-.228.303-.393.644-.495 1.025-.051.173-.089.345-.114.519-.025.173-.038.329-.038.467v7.628h.888v.622h-8.401v-.622h1.396v-11.027h-1.345v-.622c.745.017 1.489.009 2.233-.026l2.233-.104c.508-.035 1.011-.065 1.51-.091.499-.026.994-.047 1.485-.065zm-21.624.933h-1.345v-.622c.609.017 1.218.013 1.827-.013s1.227-.056 1.853-.091l.355-.013.356-.013c.491-.035.981-.065 1.472-.091.491-.026.981-.047 1.472-.065v2.595h.05c.423-.778.985-1.396 1.688-1.855.702-.458 1.502-.688 2.399-.688.846 0 1.603.247 2.271.739.668.493 1.003 1.206 1.003 2.14 0 .899-.275 1.63-.825 2.192-.55.562-1.265.843-2.145.843-.829 0-1.51-.259-2.043-.778-.533-.519-.799-1.211-.799-2.076l.013-.311.038-.312c0-.104.013-.203.038-.298l.064-.298-.115-.129-.139-.026-.152.052-.127.103-.204.234-.177.26c-.085.121-.152.238-.203.35l-.101.247c-.068.19-.118.376-.152.557l-.102.558c-.017.242-.026.479-.026.713v7.122999999999999h1.802v.622h-9.39v-.622h1.345v-11.027zm-2.284 6.331h-8.173v1.089c0 1.055.161 1.942.482 2.659.321.718 1.074 1.076 2.259 1.076.948 0 1.827-.268 2.64-.804.812-.536 1.481-1.176 2.005-1.92l.482.311c-.761 1.142-1.675 1.976-2.741 2.504s-2.284.791-3.655.791c-.559 0-1.096-.022-1.612-.065-.516-.043-1.028-.134-1.535-.272-.169-.035-.339-.082-.508-.143l-.508-.194c-1.083-.467-1.971-1.172-2.665-2.115-.694-.943-1.041-2.175-1.041-3.697 0-2.076.719-3.68 2.157-4.813 1.438-1.133 3.113-1.699 5.025-1.699 2.2 0 3.989.644 5.368 1.933 1.379 1.288 2.052 3.083 2.018 5.383zm-8.173-.623h2.183v-4.4879999999999995c0-.397-.072-.756-.216-1.076-.144-.32-.452-.48-.926-.48-.389 0-.652.151-.787.454-.135.303-.22.636-.254.999v4.592zm-10.736-10.896h.483v4.566h2.868v.622h-2.868v9.522c0 .242.042.467.127.675.085.207.279.311.584.311.423 0 .765-.19 1.028-.571.262-.381.469-.804.621-1.271.068-.225.128-.454.178-.688.051-.234.084-.437.101-.61l.558-.025c-.119 1.833-.669 3.074-1.65 3.723-.981.649-2.293.973-3.933.973-1.54 0-2.563-.285-3.071-.856s-.761-1.695-.761-3.373v-7.809h-1.497v-.622c1.573.017 2.973-.406 4.2-1.271 1.227-.865 2.238-1.955 3.033-3.27zm-17.791 4.255v2.439c.491-.761 1.133-1.362 1.929-1.803.795-.441 1.633-.661 2.513-.662 1.201 0 2.186.329 2.956.986s1.155 1.928 1.155 3.814v7.187h1.371v.622h-8.35v-.622h.888v-8.198l.026-.234v-.26c-.017-.346-.081-.666-.191-.96-.11-.294-.36-.441-.749-.441-.372 0-.673.151-.901.454-.228.303-.393.644-.495 1.025-.051.173-.089.345-.114.519-.025.173-.038.329-.038.467v7.628h.888v.622h-8.401v-.622h1.396v-11.027h-1.345v-.622c.745.017 1.489.009 2.233-.026l2.233-.104c.508-.035 1.011-.065 1.51-.091.499-.026.994-.047 1.485-.065zm-8.3 12.582h-11.725v-.701h1.929v-16.578h-1.929v-.701h11.725v.701h-1.929v16.578h1.929v.701zm-28.882-11.675h-1.421v-.778h1.447c-.051-1.677.406-3.122 1.37-4.332.965-1.211 2.318-1.816 4.061-1.816h.216l.216.026c.694.069 1.333.303 1.917.701.584.398.876 1.012.876 1.842 0 .64-.199 1.155-.597 1.544-.398.389-.918.584-1.561.584-.508 0-.96-.177-1.358-.532-.398-.354-.596-.8-.596-1.336 0-.432.119-.778.356-1.038.237-.259.516-.484.837-.675l.026-.078v-.051c0-.07-.025-.109-.076-.117l-.178-.013h-.076c-.66 0-1.167.242-1.523.726-.355.484-.533 1.038-.533 1.66 0 1.021.351 1.752 1.053 2.193.702.441 1.476.687 2.322.739h.786v.752h-1.523v11.053h1.421v.622h-8.883v-.622h1.421v-11.053zm-10.203-.96l.254.026h.254c.88.034 1.743.173 2.589.415.846.242 1.599.597 2.258 1.064.694.484 1.269 1.128 1.726 1.932.457.804.719 1.63.787 2.478l.025.247v.221c0 .969-.199 1.89-.596 2.763-.398.873-.96 1.621-1.688 2.244-.626.536-1.362.925-2.208 1.167-.846.242-1.718.389-2.614.441l-.393.026h-.787l-.393-.026c-.897-.052-1.768-.199-2.614-.441-.846-.242-1.582-.631-2.208-1.167-.728-.623-1.29-1.371-1.688-2.244-.398-.873-.596-1.794-.596-2.763v-.221l.025-.247c.068-.848.33-1.674.787-2.478.457-.804 1.032-1.448 1.726-1.932.66-.467 1.413-.822 2.259-1.064.846-.242 1.709-.381 2.589-.415h.507zm-1.269 2.595v7.861000000000001c0 .519.051.978.152 1.376.101.398.474.597 1.116.597.626 0 .986-.169 1.079-.506.093-.337.131-.731.115-1.18v-8.484000000000002c-.017-.398-.089-.766-.216-1.103-.127-.337-.453-.506-.977-.506s-.862.169-1.015.506c-.152.337-.237.705-.254 1.103v.363zm304.362-58.201h-2.568v-1.285h22.297v1.285h-3.375l8.557 14.173h.286l5.609-9.798c.285-.475.491-.911.618-1.308s.19-.753.19-1.07c-.031-.571-.213-.991-.546-1.261-.333-.269-.705-.452-1.117-.547-.159-.064-.325-.104-.5-.12s-.341-.024-.5-.024l-1.283-.046v-1.285h10.554v1.285h-.808c-.444.031-1.086.316-1.925.855-.84.539-1.862 1.855-3.067 3.948l-6.751 11.559v14.031h4.327v1.285h-23.105v-1.285h4.184v-11.939l-11.078-18.453zm-29.145 30.392v-30.392c-2.314.222-4.096 1.189-5.348 2.901-1.252 1.712-2.195 3.583-2.829 5.612-.127.38-.245.777-.356 1.189-.111.412-.214.809-.308 1.189l-1.474-.046.238-12.129h34.801l.238 12.129h-1.474l-.31-1.142c-.111-.412-.23-.808-.356-1.189-.634-2.029-1.576-3.9-2.828-5.612-1.252-1.712-3.035-2.664-5.349-2.854v30.346h4.327v1.285h-23.343v-1.285h4.373zm-11.886 1.285h-21.964v-1.285h3.613v-30.392h-3.613v-1.285h21.964v1.285h-3.613v30.392h3.613v1.285zm-39.888-24.686l9.699 4.947c1.521.824 2.845 2.117 3.97 3.876 1.125 1.76 1.687 3.75 1.687 5.969 0 3.805-1.355 6.485-4.065 8.039-2.71 1.554-5.697 2.395-8.961 2.521-.191.032-.389.048-.595.048h-.641c-.222 0-.459-.008-.713-.024-.254-.016-.492-.04-.713-.072-1.078-.127-2.147-.381-3.209-.761-1.062-.381-2.053-.825-2.971-1.332l-5.135 2.189h-1.188l-.332-11.797h1.521c1.204 2.822 2.947 5.287 5.23 7.396 2.282 2.109 5.04 3.164 8.272 3.164.191 0 .381-.008.571-.024.19-.016.38-.04.571-.072.855-.127 1.639-.428 2.353-.904.713-.476 1.07-1.205 1.07-2.188 0-1.078-.38-1.942-1.141-2.592-.761-.65-1.585-1.197-2.472-1.64-.285-.127-.563-.246-.832-.357-.269-.111-.531-.23-.784-.357l-3.614-1.665c-3.455-1.522-6.054-3.314-7.797-5.374-1.743-2.061-2.614-4.391-2.614-6.991 0-3.489 1.109-6.184 3.328-8.087 2.218-1.902 4.992-2.854 8.32-2.854 1.331 0 2.638.182 3.922.547 1.284.365 2.512.833 3.685 1.404l5.135-1.999h1.094l.38 10.892h-1.284c-1.172-2.536-2.836-4.764-4.992-6.682-2.156-1.918-4.739-2.878-7.75-2.878-.159 0-.309.008-.452.024l-.451.07c-.793.127-1.514.436-2.164.928-.65.492-.974 1.182-.974 2.07 0 .919.333 1.664.998 2.235s1.41 1.063 2.234 1.475l.951.475.855.428zm-53.199 23.402v-30.392h-3.518v-1.285h24.579c4.881.032 8.312.864 10.293 2.497 1.981 1.633 2.971 3.48 2.971 5.541 0 2.219-.792 3.86-2.377 4.922-1.585 1.063-3.328 1.752-5.23 2.068-.316.064-.641.112-.974.144l-.974.094v.428c3.011.349 5.277 1.396 6.798 3.14 1.521 1.744 2.281 4.043 2.282 6.896v.238c0 1.205.056 2.219.167 3.044.111.824.484 1.237 1.117 1.237.317 0 .619-.119.904-.356.285-.238.539-.499.76-.785l.261-.357.215-.309 1.284.666c-.824 1.395-2.021 2.505-3.59 3.33-1.569.824-3.542 1.237-5.92 1.237-3.075 0-5.492-.737-7.251-2.212-1.759-1.475-2.654-3.798-2.686-6.969-.031-3.964-.276-6.381-.736-7.253-.46-.872-1.308-1.308-2.544-1.308l-1.663-.048v15.791h3.993v1.285h-21.821v-1.285h3.661zm14.168-30.392v13.174h1.806c1.109.032 1.949-.293 2.519-.975.57-.682.855-2.449.855-5.303v-3.1870000000000003c-.063-.919-.356-1.759-.879-2.521-.523-.761-1.244-1.142-2.163-1.142l-2.139-.046zm-19.683 31.677h-32.329v-1.285h3.518v-30.392h-3.518v-1.285h31.901l.238 11.557h-1.568c-.666-2.6-1.807-4.955-3.423-7.063-1.617-2.109-3.725-3.163-6.324-3.163l-2.9-.046v14.411h.808c.285.032.634-.015 1.046-.142.412-.127.824-.333 1.236-.618.665-.476 1.292-1.166 1.878-2.069.587-.903.943-2.1 1.07-3.59l1.568-.048v14.507h-1.568c-.127-1.554-.483-2.807-1.07-3.758-.587-.951-1.213-1.648-1.878-2.092-.412-.317-.824-.539-1.236-.666-.412-.127-.761-.19-1.046-.19l-.808-.048v14.697h3.234c.19.032.387.04.593.024.206-.016.404-.04.595-.072 1.616-.284 3.193-1.259 4.73-2.924 1.537-1.665 2.892-4.416 4.065-8.253l1.426-.048-.238 12.557zm-69.317-31.677h-2.52v-1.285h21.347v1.285h-3.28l7.797 20.024 6.419-15.553c.19-.412.324-.801.403-1.166.079-.365.119-.69.119-.975 0-.602-.143-1.07-.428-1.403-.285-.333-.602-.563-.95-.69-.191-.063-.373-.11-.547-.142-.174-.032-.325-.048-.451-.048l-1.142-.046v-1.285h9.223v1.285h-1.14c-.191.031-.405.118-.642.261-.237.143-.483.357-.736.642-.317.286-.619.642-.904 1.071-.285.428-.523.864-.712 1.309l-11.363 28.395h-7.701l-12.79-31.677zm-3.756 31.677h-21.964v-1.285h3.613v-30.392h-3.613v-1.285h21.964v1.285h-3.613v30.392h3.613v1.285zm-49.966 0h-9.793v-1.285h1.188c.951.032 1.624-.38 2.02-1.236.396-.856.61-1.807.642-2.854v-23.782c-.064-.032-.119-.087-.167-.166l-.167-.214-.047-.095-.047-.095c-.38-.507-.776-.959-1.188-1.355-.412-.396-.919-.594-1.522-.594l-.712-.048v-1.237h18.065l12.885 17.646v-13.984c0-.634-.317-1.181-.951-1.641-.634-.46-1.395-.69-2.283-.69l-.95-.046v-1.285h9.793v1.285h-1.426c-1.204.031-1.909.498-2.115 1.402-.206.904-.309 2.291-.309 4.162v26.113h-7.987l-19.207-26.446v21.07c.031 1.047.229 1.999.593 2.854.365.856 1.086 1.284 2.163 1.284l1.522-.048v1.285zm-46.639-31.677v-1.285h22.107v1.285h-3.946v25.113c0 1.681.531 2.902 1.593 3.663 1.062.761 2.401 1.142 4.018 1.142 2.092 0 3.764-.658 5.016-1.974 1.252-1.316 1.877-4.083 1.877-8.3v-14.032c0-2.22-.23-3.702-.689-4.448-.459-.745-1.244-1.118-2.353-1.118l-1.236-.046v-1.285h9.793v1.285h-1.568c-.634.031-1.172.419-1.616 1.164-.444.745-.666 2.323-.666 4.733v16.932c0 1.84-.404 3.425-1.212 4.757-.808 1.332-2.02 2.426-3.637 3.282-.761.412-1.902.769-3.423 1.071-1.521.301-3.36.452-5.516.452-1.458 0-2.813-.087-4.065-.262-1.252-.175-2.385-.357-3.399-.548-.285-.063-.571-.134-.856-.213-.285-.079-.571-.166-.856-.261-1.395-.476-2.663-1.372-3.803-2.688-1.141-1.316-1.711-3.448-1.711-6.398v-22.021h-3.851z" style="-inkscape-font-specification:Bodoni-Poster" font-size="12" fill="#4c4c4c" font-family="Bodoni-Poster"/></g></svg>