<?xml version="1.0" encoding="UTF-8" standalone="no"?>
<!-- Created with Inkscape (http://www.inkscape.org/) -->

<svg
   xmlns:dc="http://purl.org/dc/elements/1.1/"
   xmlns:cc="http://creativecommons.org/ns#"
   xmlns:rdf="http://www.w3.org/1999/02/22-rdf-syntax-ns#"
   xmlns:svg="http://www.w3.org/2000/svg"
   xmlns="http://www.w3.org/2000/svg"
   version="1.1"
   width="357.70288"
   height="252.8154"
   id="svg3129">
  <defs
     id="defs3131" />
  <g
     transform="translate(-332.57713,-351.66877)"
     id="layer1">
    <path
       d="m 447.53902,352.66877 128.86787,0 0,149.9603 -128.86787,0 0,-149.9603 z"
       id="path12"
       style="fill:#00913d;fill-opacity:1;fill-rule:evenodd;stroke:none" />
    <path
       d="m 473.32259,480.18007 78.08082,0 0,-75.0143 -0.9435,-4.24606 -2.35906,-5.89725 -3.53839,-5.66142 -4.48189,-4.71793 -5.66142,-3.77442 -5.18979,-2.83072 -3.77421,-1.65117 -4.71793,-1.41535 -3.53838,-0.47186 -6.13329,-0.47164 -5.4256,0.47164 -5.97874,1.64945 -5.05555,1.96567 -5.30045,3.19406 -3.65662,2.65347 -4.30443,3.56908 -3.8209,4.561 -2.31346,5.05318 -1.88721,6.60492 0,76.42965 z"
       id="path14"
       style="fill:#ffffff;fill-opacity:1;fill-rule:evenodd;stroke:none" />
    <g
       transform="matrix(2.1615089,0,0,2.1615089,477.92098,471.0838)"
       id="text16">
      <path
         d="m 28.29733,-6.3853378 c 1.142661,0.2664319 1.944898,0.5891028 2.406713,0.9680137 0.663093,0.538777 0.994645,1.2374039 0.994656,2.0958827 -1.1e-5,0.9058501 -0.364126,1.6548018 -1.092346,2.2468574 C 29.712337,-0.3581943 28.412773,0 26.707656,0 l -6.118912,0 0,-0.32859179 c 0.556533,3.3e-7 0.933969,-0.0518046 1.13231,-0.15541504 0.198337,-0.10360944 0.337471,-0.23830233 0.4174,-0.40407909 0.07993,-0.16577498 0.11989,-0.57429408 0.119892,-1.22555858 l 0,-7.8151561 c -2e-6,-0.6512524 -0.03997,-1.0612514 -0.119892,-1.2299994 -0.07993,-0.168725 -0.220543,-0.303418 -0.421841,-0.404079 -0.2013,-0.100638 -0.577256,-0.150963 -1.127869,-0.150974 l 0,-0.328592 5.772559,0 c 1.379486,1.2e-5 2.356379,0.122864 2.930683,0.368556 0.574286,0.245715 1.027209,0.61279 1.358772,1.101226 0.331541,0.488457 0.497317,1.0079872 0.497328,1.5585909 -1.1e-5,0.5802245 -0.210191,1.096794 -0.630541,1.5497099 -0.420371,0.4529308 -1.160442,0.8126053 -2.220215,1.0790244 z M 25.064697,-6.625121 c 0.840716,6.6e-6 1.460895,-0.094722 1.86054,-0.2841875 0.399632,-0.1894512 0.706021,-0.4558767 0.919169,-0.7992773 0.213133,-0.3433852 0.319703,-0.7815071 0.319711,-1.3143672 -8e-6,-0.532842 -0.105098,-0.9694838 -0.31527,-1.309927 -0.210188,-0.340422 -0.510657,-0.599447 -0.901408,-0.777075 -0.390764,-0.177606 -1.018344,-0.263454 -1.882742,-0.257545 z m 0,0.692707 0,3.8631738 -0.0089,0.444043 c -4e-6,0.3197122 0.0814,0.5609753 0.244224,0.72378999 0.16281,0.16281649 0.404074,0.24422428 0.72379,0.24422363 0.47364,6.5e-7 0.910281,-0.10508941 1.309927,-0.31527051 0.399631,-0.21017911 0.70602,-0.51508831 0.919169,-0.91472851 0.213132,-0.3996364 0.319702,-0.845159 0.319711,-1.3365693 -9e-6,-0.5624506 -0.130261,-1.067179 -0.390758,-1.5141865 -0.260513,-0.4469981 -0.618707,-0.759308 -1.074584,-0.9369307 -0.455891,-0.1776113 -1.136756,-0.2634595 -2.042598,-0.2575449 z m -5.272317,5.60382221 0,0.32859179 -6.296529,0 0,-0.32859179 0.399639,0 c 0.349312,3.3e-7 0.630539,-0.0621656 0.843681,-0.18649805 0.153933,-0.0828874 0.272345,-0.22498102 0.355235,-0.42628124 0.06512,-0.14209262 0.09769,-0.51508842 0.09769,-1.11898822 l 0,-7.9217265 c -2e-6,-0.6157292 -0.03256,-1.0005662 -0.09769,-1.1545112 -0.06513,-0.153924 -0.196861,-0.288617 -0.395199,-0.40408 -0.19834,-0.115439 -0.466246,-0.173165 -0.803717,-0.173176 l -0.399639,0 0,-0.328592 6.296529,0 0,0.328592 -0.399638,0 c -0.34932,1.1e-5 -0.630547,0.06218 -0.843682,0.186498 -0.15394,0.0829 -0.275312,0.224993 -0.364115,0.426281 -0.06513,0.142105 -0.09769,0.5151 -0.09769,1.1189882 l 0,7.9217265 c -5e-6,0.615741 0.03404,1.0005778 0.10213,1.15451166 0.06808,0.15393564 0.201294,0.28862854 0.399639,0.40407909 0.198333,0.11545156 0.466239,0.17317709 0.803718,0.17317676 z M 0.42628124,-12.042445 l 6.21660146,0 0,0.328592 -0.3108301,0 c -0.4677311,1.1e-5 -0.7889218,0.04886 -0.9635732,0.146534 -0.1746621,0.0977 -0.298994,0.232394 -0.3729961,0.404079 -0.074012,0.171708 -0.1110156,0.600949 -0.1110107,1.2877245 l 0,5.8968906 c -4.9e-6,1.0775471 0.081403,1.7909754 0.2442236,2.140287 0.1628105,0.3493153 0.4307161,0.6394231 0.8037178,0.87032424 0.3729898,0.23090308 0.8436748,0.34635413 1.4120566,0.34635351 0.651255,6.2e-7 1.2063082,-0.14653341 1.6651611,-0.43960255 0.4588349,-0.293067 0.8022278,-0.6971457 1.0301793,-1.2122373 0.227932,-0.515087 0.341903,-1.4120529 0.341913,-2.6909003 l 0,-4.9111152 c -10e-6,-0.5387615 -0.05626,-0.9235985 -0.168736,-1.1545115 -0.112501,-0.230891 -0.2545945,-0.390747 -0.4262811,-0.479567 -0.2664353,-0.136161 -0.6423913,-0.204248 -1.1278691,-0.204259 l 0,-0.328592 4.1651232,0 0,0.328592 -0.248664,0 c -0.337485,1.1e-5 -0.618712,0.0681 -0.843682,0.204259 -0.224993,0.136185 -0.387809,0.340445 -0.488447,0.61278 -0.07698,0.189469 -0.115462,0.529901 -0.115451,1.0212985 l 0,4.5736425 c -1.1e-5,1.4150208 -0.09326,2.4363186 -0.279747,3.0638965 -0.186509,0.6275823 -0.640913,1.2048376 -1.3632123,1.73176752 C 8.762439,0.02072198 7.7766646,0.28418721 6.5274315,0.2841875 5.4854052,0.28418721 4.6802081,0.14505389 4.1118378,-0.13321289 3.3362395,-0.51212904 2.788587,-0.99761552 2.4688789,-1.5896738 2.1491658,-2.1817289 1.9893105,-2.9780452 1.9893125,-3.9786249 l 0,-5.8968906 c -2e-6,-0.6926965 -0.038486,-1.1234175 -0.1154512,-1.2921645 -0.076969,-0.168725 -0.210182,-0.303418 -0.3996387,-0.40408 -0.1894596,-0.100638 -0.53877303,-0.148002 -1.04794136,-0.142093 z"
         id="path3076"
         style="font-size:18.18799973px;font-variant:normal;font-weight:bold;writing-mode:lr-tb;fill:#1f1917;fill-opacity:1;fill-rule:nonzero;stroke:none;font-family:Times New Roman;-inkscape-font-specification:TimesNewRomanPSMT Bold" />
    </g>
    <g
       transform="matrix(2.1615089,0,0,2.1615089,335.01217,566.53927)"
       id="text20" />
    <g
       transform="matrix(2.1154687,0,0,2.1615089,333.09449,603.09471)"
       id="text24">
      <path
         d="m 162.92412,-2.0159912 0.22778,0 c 0.17603,0.4318863 0.47803,0.8218396 0.90601,1.16986083 0.42797,0.34802296 0.87805,0.57806423 1.35022,0.69012451 0.0879,0.0161134 0.17584,0.0301515 0.26385,0.0421143 0.088,0.011963 0.17596,0.01794443 0.26386,0.01794433 0.0322,10e-8 0.0663,10e-8 0.10217,0 0.0359,10e-8 0.0738,-0.0040282 0.11389,-0.01208496 0.1521,-0.008057 0.29211,-0.0480955 0.42005,-0.12011718 0.12792,-0.0720212 0.19189,-0.19995075 0.19189,-0.38378907 0,-0.19995036 -0.10199,-0.35992334 -0.30597,-0.47991946 -0.20398,-0.1199939 -0.45392,-0.2280871 -0.74982,-0.3242798 -0.13599,-0.04785 -0.27801,-0.09381 -0.42608,-0.1378784 -0.14808,-0.044066 -0.29401,-0.094054 -0.43781,-0.1499634 -0.48022,-0.1760235 -0.92029,-0.4200418 -1.32019,-0.7320557 -0.3999,-0.3120089 -0.59985,-0.7960172 -0.59985,-1.4520263 0,-0.6159623 0.22796,-1.0939281 0.6839,-1.4338989 0.45593,-0.3399602 0.97198,-0.5099429 1.54815,-0.5099488 0.0798,5.9e-6 0.15778,0.00202 0.23383,0.00604 0.0761,0.00403 0.15008,0.013983 0.22211,0.029846 0.17602,0.023931 0.35803,0.061895 0.54602,0.1138916 0.18798,0.052008 0.40991,0.1220759 0.66577,0.2102051 l 0.93603,-0.3720703 0.26404,0 0.0722,2.0518798 -0.27613,0 c -0.19995,-0.4479938 -0.52191,-0.8519851 -0.96588,-1.2119751 -0.44397,-0.3599799 -0.92597,-0.5399724 -1.44598,-0.539978 -0.19214,5.6e-6 -0.35822,0.03803 -0.49823,0.1140747 -0.14002,0.076055 -0.21003,0.2260184 -0.21003,0.4498902 0,0.1359911 0.062,0.2500047 0.18604,0.342041 0.12402,0.092046 0.25805,0.1700484 0.4021,0.2340088 0.0801,0.031987 0.16009,0.062016 0.24005,0.090088 0.0799,0.02808 0.14789,0.050053 0.2038,0.065918 l 1.2843,0.4559326 c 0.41577,0.1601599 0.74566,0.4122349 0.98968,0.7562256 0.24402,0.3439969 0.36603,0.7438988 0.36603,1.1997071 0,0.016115 0,0.030153 0,0.042114 0,0.011965 0,0.026003 0,0.042114 -0.008,0.2958999 -0.0757,0.5818493 -0.20379,0.85784914 -0.12806,0.27600159 -0.31611,0.50201455 -0.56415,0.67803955 -0.21607,0.14404304 -0.44807,0.2420654 -0.69599,0.29406738 -0.24793,0.05200182 -0.49591,0.08203109 -0.74395,0.09008789 -0.0559,0.008056 -0.11188,0.0120848 -0.16791,0.012085 -0.056,-1.8e-7 -0.112,-1.8e-7 -0.16791,0 -0.16822,-1.8e-7 -0.33832,-0.024048 -0.51031,-0.0721435 -0.172,-0.04809577 -0.34199,-0.09606935 -0.50995,-0.1439209 -0.0879,-0.03198236 -0.17188,-0.05999746 -0.25196,-0.08404541 -0.0801,-0.0240477 -0.16003,-0.0480345 -0.23986,-0.0719605 l -0.98401,0.37207031 -0.3241,0 -0.0839,-2.19616696 z m -6,0 0.22778,0 c 0.17603,0.4318863 0.47803,0.8218396 0.90601,1.16986083 0.42797,0.34802296 0.87805,0.57806423 1.35022,0.69012451 0.0879,0.0161134 0.17584,0.0301515 0.26385,0.0421143 0.088,0.011963 0.17596,0.01794443 0.26386,0.01794433 0.0322,10e-8 0.0663,10e-8 0.10217,0 0.0359,10e-8 0.0738,-0.0040282 0.11389,-0.01208496 0.1521,-0.008057 0.29211,-0.0480955 0.42005,-0.12011718 0.12792,-0.0720212 0.19189,-0.19995075 0.19189,-0.38378907 0,-0.19995036 -0.10199,-0.35992334 -0.30597,-0.47991946 -0.20398,-0.1199939 -0.45392,-0.2280871 -0.74982,-0.3242798 -0.13599,-0.04785 -0.27801,-0.09381 -0.42608,-0.1378784 -0.14808,-0.044066 -0.29401,-0.094054 -0.43781,-0.1499634 -0.48022,-0.1760235 -0.92029,-0.4200418 -1.32019,-0.7320557 -0.3999,-0.3120089 -0.59985,-0.7960172 -0.59985,-1.4520263 0,-0.6159623 0.22796,-1.0939281 0.6839,-1.4338989 0.45593,-0.3399602 0.97198,-0.5099429 1.54815,-0.5099488 0.0798,5.9e-6 0.15778,0.00202 0.23383,0.00604 0.0761,0.00403 0.15008,0.013983 0.22211,0.029846 0.17602,0.023931 0.35803,0.061895 0.54602,0.1138916 0.18798,0.052008 0.40991,0.1220759 0.66577,0.2102051 l 0.93603,-0.3720703 0.26404,0 0.0722,2.0518798 -0.27613,0 c -0.19995,-0.4479938 -0.52191,-0.8519851 -0.96588,-1.2119751 -0.44397,-0.3599799 -0.92597,-0.5399724 -1.44598,-0.539978 -0.19214,5.6e-6 -0.35822,0.03803 -0.49823,0.1140747 -0.14002,0.076055 -0.21003,0.2260184 -0.21003,0.4498902 0,0.1359911 0.062,0.2500047 0.18604,0.342041 0.12402,0.092046 0.25805,0.1700484 0.4021,0.2340088 0.0801,0.031987 0.16009,0.062016 0.24005,0.090088 0.0799,0.02808 0.14789,0.050053 0.2038,0.065918 l 1.2843,0.4559326 c 0.41577,0.1601599 0.74566,0.4122349 0.98968,0.7562256 0.24402,0.3439969 0.36603,0.7438988 0.36603,1.1997071 0,0.016115 0,0.030153 0,0.042114 0,0.011965 0,0.026003 0,0.042114 -0.008,0.2958999 -0.0757,0.5818493 -0.20379,0.85784914 -0.12806,0.27600159 -0.31611,0.50201455 -0.56415,0.67803955 -0.21607,0.14404304 -0.44807,0.2420654 -0.69599,0.29406738 -0.24793,0.05200182 -0.49591,0.08203109 -0.74395,0.09008789 -0.0559,0.008056 -0.11188,0.0120848 -0.16791,0.012085 -0.056,-1.8e-7 -0.112,-1.8e-7 -0.16791,0 -0.16822,-1.8e-7 -0.33832,-0.024048 -0.51031,-0.0721435 -0.172,-0.04809577 -0.34199,-0.09606935 -0.50995,-0.1439209 -0.0879,-0.03198236 -0.17188,-0.05999746 -0.25196,-0.08404541 -0.0801,-0.0240477 -0.16003,-0.0480345 -0.23986,-0.0719605 l -0.98401,0.37207031 -0.3241,0 -0.0839,-2.19616696 z m -0.55197,-0.4438477 -3.86426,0 0,0.5039063 c 0,0.4880386 0.076,0.8980113 0.22797,1.22991942 0.15197,0.33190957 0.50799,0.49786399 1.06805,0.49786377 0.44799,2.2e-7 0.86401,-0.12396205 1.24805,-0.37188721 0.38402,-0.24792396 0.70006,-0.54388318 0.94812,-0.88787838 l 0.22778,0.1439209 c -0.35987,0.52807695 -0.79182,0.91412392 -1.29584,1.15814205 -0.50403,0.2440185 -1.08002,0.36602765 -1.72796,0.36602783 -0.26417,-1.8e-7 -0.5182,-0.0100099 -0.76209,-0.0300293 -0.2439,-0.0200197 -0.48584,-0.0620118 -0.72583,-0.12597656 -0.0801,-0.01611329 -0.1601,-0.03814696 -0.24005,-0.06610107 -0.08,-0.02795403 -0.15998,-0.05792227 -0.24005,-0.08990479 -0.51197,-0.2160641 -0.93195,-0.54211358 -1.25995,-0.97814946 -0.328,-0.4360336 -0.49201,-1.0059793 -0.492,-1.7098388 -1e-5,-0.9602013 0.33996,-1.702266 1.01989,-2.2261963 0.67993,-0.5239202 1.47192,-0.7858828 2.37598,-0.7858887 1.04003,5.9e-6 1.88604,0.2979792 2.53802,0.8939209 0.65197,0.5959516 0.97003,1.4259069 0.95417,2.4898682 z m -3.86426,-0.288208 1.03198,0 0,-1.6560058 c 0,-0.015865 0,-0.037837 0,-0.065918 0,-0.028072 0,-0.054073 0,-0.078003 0,-0.048091 0,-0.094112 0,-0.1380616 0,-0.04394 0,-0.089961 0,-0.1380615 0,-0.1838329 -0.034,-0.3497873 -0.10199,-0.4978637 -0.068,-0.1480659 -0.21393,-0.2221014 -0.4378,-0.222107 -0.18409,5.6e-6 -0.30811,0.070013 -0.37207,0.210022 -0.064,0.1400198 -0.10401,0.2940114 -0.12012,0.4619751 0,0.06397 0,0.1279955 0,0.1920776 0,0.064092 0,0.1240891 0,0.1799927 0,0.016118 0,0.034123 0,0.054016 0,0.019902 0,0.037907 0,0.054016 l 0,1.6439209 z m -8.15973,-3.0717773 0,1.1279297 c 0.23193,-0.3520458 0.53588,-0.6300606 0.91187,-0.8340454 0.37597,-0.2039738 0.77196,-0.3059634 1.18798,-0.3059693 0.56787,5.9e-6 1.03381,0.1519832 1.39783,0.4559326 0.36401,0.3039602 0.54601,0.8919723 0.54602,1.7640381 l 0,3.3240967 0.64819,0 0,0.2878418 -3.94812,0 0,-0.2878418 0.42005,0 0,-3.6240234 c -1e-5,-0.016109 -1e-5,-0.040157 0,-0.072144 -1e-5,-0.031978 -1e-5,-0.063961 0,-0.095947 0.008,-0.031978 0.0121,-0.067989 0.0121,-0.1080322 0,-0.040035 0,-0.080074 0,-0.1201172 -0.008,-0.1599076 -0.0381,-0.3078567 -0.0901,-0.4438476 -0.052,-0.1359815 -0.17005,-0.2039746 -0.35413,-0.2039795 -0.17603,4.9e-6 -0.318,0.070012 -0.4259,0.210022 -0.10792,0.1400192 -0.18592,0.2980391 -0.23401,0.47406 -0.0239,0.079838 -0.0419,0.1597942 -0.0538,0.2398682 -0.012,0.080082 -0.0179,0.1521035 -0.0179,0.2160644 l 0,3.5280762 0.41968,0 0,0.2878418 -3.97193,0 0,-0.2878418 0.65992,0 0,-5.1002197 -0.63575,0 0,-0.2878418 c 0.35205,0.00806 0.70404,0.00403 1.05597,-0.012085 0.35193,-0.016108 0.70392,-0.032099 1.05597,-0.047974 0.23999,-0.016107 0.47797,-0.030146 0.71393,-0.042114 0.23596,-0.011957 0.47003,-0.021967 0.70221,-0.030029 z M 140.40013,0 l -4.24805,0 0,-0.2878418 0.65992,0 0,-5.1002197 -0.63611,0 0,-0.2878418 c 0.30395,0.00806 0.60394,0.00605 0.89996,-0.00604 0.29602,-0.012079 0.59601,-0.026056 0.89996,-0.041931 0.0562,5.8e-6 0.1142,-0.00201 0.17414,-0.00604 0.0599,-0.00402 0.11798,-0.00604 0.17413,-0.00604 0.23999,-0.016107 0.47998,-0.030146 0.71997,-0.042114 0.23999,-0.011957 0.47998,-0.021967 0.71997,-0.030029 l 0,5.5202637 0.63611,0 0,0.2878418 z m -2.13611,-8.6158447 c 0.0239,0.00782 0.0459,0.011727 0.0659,0.011719 0.02,8.6e-6 0.042,8.6e-6 0.0659,0 0.36816,0.016122 0.70623,0.1061487 1.01422,0.2700806 0.30798,0.1639486 0.46197,0.4699175 0.46198,0.9179077 -1e-5,0.3920969 -0.13801,0.6761542 -0.41401,0.8521729 -0.276,0.1760317 -0.58197,0.2800355 -0.9179,0.3120117 -0.0481,6.2e-6 -0.0941,0.00202 -0.13807,0.00604 -0.0439,0.00403 -0.09,0.00605 -0.13806,0.00604 -0.0481,6.3e-6 -0.0941,-0.00201 -0.13806,-0.00604 -0.0439,-0.00402 -0.09,-0.00604 -0.13806,-0.00604 -0.33594,-0.031976 -0.64191,-0.13598 -0.91791,-0.3120117 -0.276,-0.1760187 -0.414,-0.460076 -0.414,-0.8521729 0,-0.4479902 0.15399,-0.7539591 0.46198,-0.9179077 0.30798,-0.1639319 0.64593,-0.2539587 1.01385,-0.2700806 0.0242,8.6e-6 0.0463,8.6e-6 0.0663,0 0.02,8.6e-6 0.042,8.6e-6 0.0659,0 z m -8.0039,6.5998535 0.22778,0 c 0.17602,0.4318863 0.47803,0.8218396 0.90601,1.16986083 0.42797,0.34802296 0.87805,0.57806423 1.35022,0.69012451 0.0879,0.0161134 0.17583,0.0301515 0.26385,0.0421143 0.088,0.011963 0.17596,0.01794443 0.26386,0.01794433 0.0322,10e-8 0.0663,10e-8 0.10217,0 0.0359,10e-8 0.0738,-0.0040282 0.11389,-0.01208496 0.1521,-0.008057 0.29211,-0.0480955 0.42004,-0.12011718 0.12793,-0.0720212 0.19189,-0.19995075 0.1919,-0.38378907 -1e-5,-0.19995036 -0.102,-0.35992334 -0.30597,-0.47991946 -0.20398,-0.1199939 -0.45392,-0.2280871 -0.74982,-0.3242798 -0.13599,-0.04785 -0.27802,-0.09381 -0.42608,-0.1378784 -0.14808,-0.044066 -0.29401,-0.094054 -0.43781,-0.1499634 -0.48023,-0.1760235 -0.92029,-0.4200418 -1.32019,-0.7320557 -0.3999,-0.3120089 -0.59985,-0.7960172 -0.59985,-1.4520263 0,-0.6159623 0.22796,-1.0939281 0.6839,-1.4338989 0.45593,-0.3399602 0.97198,-0.5099429 1.54815,-0.5099488 0.0798,5.9e-6 0.15778,0.00202 0.23383,0.00604 0.076,0.00403 0.15008,0.013983 0.2221,0.029846 0.17603,0.023931 0.35803,0.061895 0.54603,0.1138916 0.18798,0.052008 0.4099,0.1220759 0.66577,0.2102051 l 0.93603,-0.3720703 0.26404,0 0.0721,2.0518798 -0.27612,0 c -0.19996,-0.4479938 -0.52192,-0.8519851 -0.96588,-1.2119751 -0.44397,-0.3599799 -0.92597,-0.5399724 -1.44598,-0.539978 -0.19215,5.6e-6 -0.35822,0.03803 -0.49823,0.1140747 -0.14002,0.076055 -0.21003,0.2260184 -0.21003,0.4498902 0,0.1359911 0.062,0.2500047 0.18604,0.342041 0.12402,0.092046 0.25805,0.1700484 0.4021,0.2340088 0.0801,0.031987 0.16009,0.062016 0.24005,0.090088 0.0799,0.02808 0.14788,0.050053 0.2038,0.065918 l 1.2843,0.4559326 c 0.41576,0.1601599 0.74566,0.4122349 0.98968,0.7562256 0.24402,0.3439969 0.36602,0.7438988 0.36603,1.1997071 -1e-5,0.016115 -1e-5,0.030153 0,0.042114 -1e-5,0.011965 -1e-5,0.026003 0,0.042114 -0.008,0.2958999 -0.0758,0.5818493 -0.2038,0.85784914 -0.12805,0.27600159 -0.3161,0.50201455 -0.56414,0.67803955 -0.21607,0.14404304 -0.44807,0.2420654 -0.69599,0.29406738 -0.24793,0.05200182 -0.49591,0.08203109 -0.74396,0.09008789 -0.0559,0.008056 -0.11188,0.0120848 -0.1679,0.012085 -0.056,-1.8e-7 -0.11201,-1.8e-7 -0.16791,0 -0.16822,-1.8e-7 -0.33832,-0.024048 -0.51032,-0.0721435 -0.172,-0.04809577 -0.34198,-0.09606935 -0.50994,-0.1439209 -0.0879,-0.03198236 -0.17188,-0.05999746 -0.25196,-0.08404541 -0.0801,-0.0240477 -0.16003,-0.0480345 -0.23987,-0.0719605 l -0.984,0.37207031 -0.3241,0 -0.0839,-2.19616696 z m -0.52826,1.7281494 0,0.2878418 c -0.33594,0 -0.67389,0.0079956 -1.01385,0.02398682 -0.33997,0.01599117 -0.67792,0.03594964 -1.01386,0.05987548 -0.23999,0.01611319 -0.47803,0.03015126 -0.71411,0.04211426 -0.23609,0.0119628 -0.47412,0.0219725 -0.71411,0.0300293 l 0,-1.12792969 c -0.24805,0.39184629 -0.56207,0.68182402 -0.94208,0.86993408 -0.38,0.18811027 -0.79791,0.28216535 -1.25372,0.28216553 -0.63208,-1.8e-7 -1.11615,-0.1520386 -1.45221,-0.45611572 -0.33606,-0.30407657 -0.50409,-0.91607546 -0.50409,-1.83599856 l 0,-3.276123 -0.63574,0 0,-0.2878418 c 0.35205,0.00806 0.70404,0.00403 1.05597,-0.012085 0.35193,-0.016108 0.70392,-0.032099 1.05597,-0.047974 0.23999,-0.016107 0.47796,-0.030146 0.71393,-0.042114 0.23596,-0.011957 0.47003,-0.021967 0.70221,-0.030029 l 0,4.7039795 c -1e-5,0.13598732 0.034,0.25201504 0.10199,0.34808352 0.068,0.09607 0.17791,0.14410462 0.32977,0.144104 0.19995,6.2e-7 0.35192,-0.0800164 0.45593,-0.24005127 0.104,-0.16003315 0.18005,-0.33599735 0.22815,-0.52789305 0.0161,-0.09619 0.0281,-0.1862777 0.0361,-0.2702637 0.008,-0.083983 0.0119,-0.1619855 0.0119,-0.2340088 l 0,-3.5039062 -0.63611,0 0,-0.2878418 c 0.29613,0.00806 0.5902,0.00605 0.8822,-0.00604 0.29199,-0.012079 0.58593,-0.026056 0.88183,-0.041931 0.0561,5.8e-6 0.11218,-0.00201 0.1681,-0.00604 0.0559,-0.00402 0.11596,-0.00604 0.18017,-0.00604 0.23193,-0.016107 0.46588,-0.030146 0.70184,-0.042114 0.23596,-0.011957 0.46991,-0.021967 0.70185,-0.030029 l 0,5.5202637 0.67199,0 z M 116.62783,0 l -5.27966,0 0,-0.32409668 0.91186,0 0,-7.66772462 -0.91186,0 0,-0.3240967 6.58777,0 c 0.13598,0.00807 0.27398,0.018075 0.414,0.030029 0.14,0.011971 0.28203,0.029915 0.42608,0.053833 0.52807,0.088143 1.01007,0.2782062 1.44599,0.5701905 0.4359,0.2919995 0.65386,0.7379219 0.65387,1.3377685 -10e-6,0.5761776 -0.20802,1.0002495 -0.62403,1.2722168 -0.41602,0.2719775 -0.87598,0.4478806 -1.37988,0.52771 -0.12794,0.024174 -0.25794,0.042241 -0.39001,0.054199 -0.13209,0.011967 -0.25807,0.017949 -0.37793,0.017944 l 0,0.2281494 c 0.064,0.00782 0.12792,0.013737 0.19189,0.017761 0.064,0.00403 0.12792,0.010075 0.1919,0.018127 0.0642,0.00806 0.12828,0.014103 0.19226,0.018127 0.0639,0.00403 0.12792,0.00995 0.19189,0.017761 0.56005,0.056156 1.06805,0.2341958 1.52399,0.5341186 0.45592,0.2999301 0.68389,0.7699614 0.6839,1.4100953 -1e-5,0.8479017 -0.29597,1.41388015 -0.88788,1.69793697 -0.59193,0.28405784 -1.23994,0.45001227 -1.94403,0.49786377 C 118.01601,-0.00402832 117.79006,0 117.57009,0 c -0.21998,0 -0.43396,0 -0.64197,0 -0.0481,0 -0.0982,0 -0.15014,0 -0.052,0 -0.10206,0 -0.15015,0 z m -0.6958,-4.1638184 0,3.83972172 0.40796,0 c 0.28808,0.008057 0.49609,-0.0559078 0.62402,-0.19189453 0.12793,-0.13598568 0.21191,-0.28393475 0.25196,-0.44384766 0.032,-0.0961903 0.05,-0.19024543 0.054,-0.28216553 0.004,-0.091918 0.006,-0.1698594 0.006,-0.2338257 l 0,-1.5842285 c 0,-0.4560512 -0.1,-0.7520714 -0.29992,-0.8880615 -0.19996,-0.1359823 -0.45203,-0.2039754 -0.75623,-0.2039795 l -0.28784,-0.011719 z m 0,-3.8280029 0,3.4918213 0.51599,0 c 0.23193,0.00806 0.40393,-0.075923 0.51599,-0.2519531 0.11206,-0.1760205 0.16809,-0.4000193 0.16809,-0.6719971 l 0,-1.6801758 c 0,-0.3039476 -0.078,-0.5259323 -0.23401,-0.6659546 -0.15601,-0.1400067 -0.38599,-0.210014 -0.68994,-0.2100219 l -0.27612,-0.011719 z M 107.09995,0 l -4.24805,0 0,-0.2878418 0.672,0 0,-7.7402344 -0.69581,0 0,-0.2878418 c 0.344,0.00807 0.68799,0.00208 1.03199,-0.017944 0.34399,-0.020011 0.68395,-0.042106 1.01989,-0.066284 0.26392,-0.015861 0.52393,-0.031791 0.78003,-0.04779 0.2561,-0.015983 0.51209,-0.028007 0.76795,-0.036072 l 0,8.196167 0.672,0 0,0.2878418 z m -8.112043,-3.2160645 0,-1.5717773 c -4e-6,-0.2641551 -0.04401,-0.4502511 -0.132019,-0.5582886 -0.08802,-0.1080267 -0.272037,-0.1620428 -0.552063,-0.1620483 -0.01587,5.5e-6 -0.0318,5.5e-6 -0.04779,0 -0.016,5.5e-6 -0.03205,5.5e-6 -0.04816,0 -0.09595,0.00806 -0.183902,0.020086 -0.263855,0.036072 -0.07996,0.015997 -0.119937,0.04804 -0.119934,0.09613 -3e-6,5.4e-6 -3e-6,0.00202 0,0.00604 -3e-6,0.00403 -3e-6,0.00605 0,0.00604 0.0081,0.040044 0.03405,0.080022 0.078,0.1199341 0.04394,0.039922 0.09387,0.087957 0.14978,0.144104 0.04809,0.06397 0.09613,0.1399586 0.144104,0.2279663 0.04797,0.088017 0.07196,0.2000169 0.07196,0.3359985 -4e-6,0.312016 -0.112003,0.5340006 -0.335999,0.6659546 -0.224002,0.1319618 -0.467959,0.2179602 -0.731872,0.2579956 -0.09595,0.015873 -0.18793,0.025821 -0.27594,0.029846 -0.08801,0.00403 -0.172061,0.00605 -0.252137,0.00604 -0.0481,3.6e-6 -0.09815,-0.00201 -0.150146,-0.00604 -0.052,-0.00402 -0.101931,-0.00995 -0.14978,-0.017761 -0.256105,-0.031979 -0.490114,-0.1199914 -0.702027,-0.2640381 -0.211915,-0.144039 -0.317871,-0.3641315 -0.317871,-0.6602783 0,-0.06396 0.006,-0.1319534 0.01794,-0.2039795 0.01196,-0.072017 0.03393,-0.143916 0.06592,-0.2156983 0.104003,-0.2241159 0.359984,-0.4281562 0.767944,-0.6121215 0.407957,-0.1839543 1.119992,-0.2759341 2.136108,-0.27594 0.144039,5.9e-6 0.308041,0.00397 0.492005,0.011902 0.183955,0.00794 0.371882,0.023993 0.563781,0.048157 0.200191,0.015875 0.396235,0.037847 0.588135,0.065918 0.191889,0.028082 0.363889,0.062017 0.515989,0.1018066 0.3999,0.08814 0.71588,0.2362114 0.94794,0.4442139 0.23205,0.2080128 0.34808,0.5360154 0.34808,0.9840088 l 0,3.20397947 c 0,0.0158701 0,0.027833 0,0.0358887 0,0.008058 0,0.0161142 0,0.0241699 0.008,0.0639657 0.0281,0.11993487 0.0601,0.16790771 0.032,0.0479743 0.0799,0.0719611 0.14392,0.0719605 0.0959,6.7e-7 0.17395,-0.0239861 0.23401,-0.0719605 0.0601,-0.0479728 0.12206,-0.10003578 0.18604,-0.15618896 -10e-6,-0.007812 0.002,-0.013732 0.006,-0.0177612 0.004,-0.004027 0.01,-0.006042 0.0178,-0.006042 0.008,-0.0161123 0.0161,-0.0281362 0.0242,-0.0360718 0.008,-0.007934 0.0161,-0.0159292 0.0242,-0.0239868 l 0,0.40795899 c -0.18409,0.21606481 -0.40614,0.38208027 -0.66614,0.49804687 -0.26001,0.11596676 -0.52601,0.19396961 -0.79797,0.23400879 -0.064,0.008056 -0.13197,0.0140989 -0.20398,0.0181274 -0.072,0.004028 -0.14002,0.006042 -0.20398,0.006042 -0.344,-1.8e-7 -0.646002,-0.0520021 -0.906006,-0.15600586 -0.260015,-0.10400382 -0.470098,-0.32409638 -0.630249,-0.66027832 -0.271977,0.30395541 -0.595951,0.51196302 -0.971924,0.62402344 -0.37598,0.11206045 -0.760013,0.1761473 -1.1521,0.19226074 -0.03198,-1.8e-7 -0.06598,-1.8e-7 -0.10199,0 -0.03601,-1.8e-7 -0.07001,-1.8e-7 -0.101989,0 -0.02393,-1.8e-7 -0.0459,-1.8e-7 -0.06592,0 -0.02002,-1.8e-7 -0.04199,-1.8e-7 -0.06592,0 -0.432131,-0.0241701 -0.83014,-0.14422611 -1.194031,-0.36016846 -0.363892,-0.21594198 -0.545838,-0.57989426 -0.545837,-1.09185791 -1e-6,-0.016112 -1e-6,-0.032164 0,-0.048157 -1e-6,-0.01599 -1e-6,-0.032042 0,-0.048157 0.01587,-0.3759748 0.167785,-0.7319315 0.455749,-1.0678711 0.287963,-0.3359347 0.835997,-0.5599335 1.644104,-0.671997 0.127927,-0.015866 0.247922,-0.029843 0.359986,-0.041931 0.112057,-0.012082 0.220089,-0.022153 0.324096,-0.030212 0.112058,-0.00781 0.228085,-0.01373 0.348084,-0.017761 0.119991,-0.00403 0.247982,-0.00604 0.383972,-0.00604 l 0.587768,-0.012085 z m 0,1.4879151 0,-1.199707 -0.431762,0 c -0.272221,0.00782 -0.448307,0.109744 -0.52826,0.3057861 -0.07996,0.1960473 -0.119937,0.4100364 -0.119934,0.6419678 -3e-6,0.048098 -3e-6,0.096132 0,0.144104 -3e-6,0.047975 -3e-6,0.09601 0,0.144104 -3e-6,0.031984 -3e-6,0.061952 0,0.089905 -3e-6,0.027956 -3e-6,0.057924 0,0.089905 -3e-6,0.00806 -3e-6,0.016115 0,0.02417 -3e-6,0.00806 -3e-6,0.015993 0,0.023804 -3e-6,0.048097 -3e-6,0.1021132 0,0.1620483 -3e-6,0.059938 0.004,0.1220105 0.01208,0.1862183 0.0081,0.14379977 0.04205,0.27972493 0.10199,0.40777585 0.05993,0.12805234 0.173886,0.19207816 0.341858,0.19207764 0.232174,5.2e-7 0.388241,-0.0780023 0.468201,-0.23400879 0.07995,-0.15600495 0.127864,-0.329955 0.143737,-0.5218506 0.0081,-0.064208 0.01208,-0.1282945 0.01209,-0.1922607 -4e-6,-0.063963 -4e-6,-0.1238998 0,-0.1798096 -4e-6,-0.016112 -4e-6,-0.03015 0,-0.042114 -4e-6,-0.011961 -4e-6,-0.021971 0,-0.030029 z m -9.299743,-4.0916748 0,1.1279297 c 0.231929,-0.3520458 0.535884,-0.6300606 0.911865,-0.8340454 0.375972,-0.2039738 0.771967,-0.3059634 1.187988,-0.3059693 0.567865,5.9e-6 1.033807,0.1519832 1.397827,0.4559326 0.364007,0.3039602 0.546013,0.8919723 0.546021,1.7640381 l 0,3.3240967 0.648193,0 0,0.2878418 -3.94812,0 0,-0.2878418 0.420044,0 0,-3.6240234 c -5e-6,-0.016109 -5e-6,-0.040157 0,-0.072144 -5e-6,-0.031978 -5e-6,-0.063961 0,-0.095947 0.0081,-0.031978 0.01208,-0.067989 0.01208,-0.1080322 -5e-6,-0.040035 -5e-6,-0.080074 0,-0.1201172 -0.0081,-0.1599076 -0.03809,-0.3078567 -0.09009,-0.4438476 -0.05201,-0.1359815 -0.170048,-0.2039746 -0.354126,-0.2039795 -0.176029,4.9e-6 -0.317997,0.070012 -0.425903,0.210022 -0.107914,0.1400192 -0.185917,0.2980391 -0.234009,0.47406 -0.02393,0.079838 -0.04187,0.1597942 -0.05383,0.2398682 -0.01197,0.080082 -0.01795,0.1521035 -0.01794,0.2160644 l 0,3.5280762 0.419677,0 0,0.2878418 -3.971923,0 0,-0.2878418 0.659912,0 0,-5.1002197 -0.635742,0 0,-0.2878418 c 0.35205,0.00806 0.704039,0.00403 1.055969,-0.012085 0.351927,-0.016108 0.703916,-0.032099 1.055969,-0.047974 0.239988,-0.016107 0.477964,-0.030146 0.713928,-0.042114 0.235959,-0.011957 0.470029,-0.021967 0.70221,-0.030029 z m -7.740326,-0.02417 c 0.04003,0.00806 0.08007,0.012091 0.120117,0.012085 0.04004,5.9e-6 0.08007,5.9e-6 0.120117,0 0.416011,0.015875 0.824031,0.07984 1.22406,0.1918946 0.400019,0.112066 0.755914,0.2761284 1.067688,0.4921875 0.328118,0.2238818 0.600152,0.5217941 0.816101,0.8937377 0.215935,0.3719522 0.34002,0.7539708 0.372254,1.1460572 0.0078,0.040042 0.01171,0.078067 0.01172,0.1140747 -7e-6,0.036014 -7e-6,0.07001 0,0.1019897 -7e-6,0.4480005 -0.094,0.8739644 -0.281982,1.2778931 -0.187995,0.4039319 -0.453986,0.74993982 -0.797974,1.0380249 -0.295904,0.2480472 -0.643865,0.42803969 -1.043884,0.53997802 -0.400029,0.1119384 -0.812077,0.17999253 -1.236145,0.2041626 -0.06397,0.008056 -0.12592,0.0120848 -0.185852,0.012085 -0.05994,-1.8e-7 -0.122013,-1.8e-7 -0.186218,0 -0.06397,-1.8e-7 -0.12592,-1.8e-7 -0.185852,0 -0.05994,-1.8e-7 -0.121891,-0.004029 -0.185852,-0.012085 -0.424076,-0.0241701 -0.836124,-0.0922242 -1.236145,-0.2041626 -0.400027,-0.11193833 -0.747988,-0.29193082 -1.043885,-0.53997802 -0.343995,-0.28808508 -0.609986,-0.634093 -0.797973,-1.0380249 -0.187989,-0.4039287 -0.281983,-0.8298926 -0.281983,-1.2778931 0,-0.031979 0,-0.065976 0,-0.1019897 0,-0.036008 0.0039,-0.074033 0.01172,-0.1140747 0.03198,-0.3920864 0.156006,-0.774105 0.37207,-1.1460572 0.216064,-0.3719436 0.488036,-0.6698559 0.815918,-0.8937377 0.31201,-0.2160591 0.668028,-0.3801215 1.068055,-0.4921875 0.400021,-0.1120548 0.808041,-0.1760196 1.22406,-0.1918946 0.04004,5.9e-6 0.08007,5.9e-6 0.120117,0 0.04004,5.9e-6 0.07995,5.9e-6 0.119751,0 z m -0.599854,1.2000732 0,3.5998535 c -3e-6,0.016114 -3e-6,0.026124 0,0.030029 -3e-6,0.00391 -3e-6,0.00586 0,0.00586 -3e-6,0.24023513 0.02398,0.45233209 0.07196,0.63629149 0.04797,0.18396015 0.223934,0.27594004 0.527893,0.27593994 0.296138,10e-8 0.466182,-0.07800275 0.510132,-0.23400878 0.04394,-0.15600538 0.06201,-0.33801203 0.0542,-0.54602051 -5e-6,-0.0239249 -5e-6,-0.0499258 0,-0.0780029 -5e-6,-0.0280752 -5e-6,-0.0540761 0,-0.0780029 l 0,-3.6119385 c -5e-6,-0.016109 -5e-6,-0.038142 0,-0.066101 -5e-6,-0.027949 -5e-6,-0.057918 0,-0.089905 -0.0081,-0.184077 -0.04212,-0.3541208 -0.102173,-0.5101318 -0.06006,-0.1560004 -0.214116,-0.2340032 -0.462158,-0.2340088 -0.247807,5.6e-6 -0.407719,0.078008 -0.479736,0.2340088 -0.07202,0.156011 -0.112064,0.3260548 -0.120118,0.5101318 -3e-6,0.031987 -3e-6,0.061955 0,0.089905 -3e-6,0.027959 -3e-6,0.054021 0,0.078186 z M 77.736137,0 l -4.248046,0 0,-0.2878418 0.659912,0 0,-5.1002197 -0.636109,0 0,-0.2878418 c 0.303955,0.00806 0.603942,0.00605 0.899964,-0.00604 0.296019,-0.012079 0.596006,-0.026056 0.899963,-0.041931 0.05615,5.8e-6 0.114195,-0.00201 0.174133,-0.00604 0.05993,-0.00402 0.117979,-0.00604 0.174134,-0.00604 0.239987,-0.016107 0.479977,-0.030146 0.71997,-0.042114 0.239987,-0.011957 0.479977,-0.021967 0.719971,-0.030029 l 0,5.5202637 0.636108,0 0,0.2878418 z m -2.136108,-8.6158447 c 0.02392,0.00782 0.0459,0.011727 0.06592,0.011719 0.02002,8.6e-6 0.04199,8.6e-6 0.06592,0 0.368161,0.016122 0.706235,0.1061487 1.014221,0.2700806 0.30798,0.1639486 0.461971,0.4699175 0.461975,0.9179077 -4e-6,0.3920969 -0.138004,0.6761542 -0.414001,0.8521729 -0.276004,0.1760317 -0.581973,0.2800355 -0.917908,0.3120117 -0.0481,6.2e-6 -0.09412,0.00202 -0.138061,0.00604 -0.04395,0.00403 -0.08997,0.00605 -0.138062,0.00604 -0.0481,6.3e-6 -0.09412,-0.00201 -0.138062,-0.00604 -0.04395,-0.00402 -0.08997,-0.00604 -0.138061,-0.00604 -0.335939,-0.031976 -0.641908,-0.13598 -0.917908,-0.3120117 C 74.13,-6.7399832 73.992,-7.0240405 73.992001,-7.4161374 c -10e-7,-0.4479902 0.153991,-0.7539591 0.461975,-0.9179077 0.307982,-0.1639319 0.645933,-0.2539587 1.013855,-0.2700806 0.02417,8.6e-6 0.04626,8.6e-6 0.06628,0 0.02002,8.6e-6 0.04199,8.6e-6 0.06592,0 z m -4.164185,0.8280029 0.22815,0 0,2.1119385 1.356079,0 0,0.2878418 -1.356079,0 0,4.2359619 c -4e-6,0.016114 -4e-6,0.028138 0,0.036072 -4e-6,0.00794 -4e-6,0.015931 0,0.023987 -4e-6,0.016114 -4e-6,0.03412 0,0.054016 -4e-6,0.019898 -4e-6,0.037904 0,0.0540161 -4e-6,0.11206142 0.02002,0.21606522 0.06006,0.31201172 0.04004,0.0959478 0.132077,0.14392143 0.276123,0.1439209 0.199947,5.3e-7 0.361935,-0.0880121 0.485962,-0.26403809 0.124019,-0.17602442 0.22192,-0.37194703 0.293702,-0.58776853 0.03222,-0.1040024 0.0603,-0.2100204 0.08423,-0.3180542 0.02392,-0.1080304 0.03991,-0.2020855 0.04797,-0.2821655 l 0.264038,-0.011719 c -0.05616,0.8479015 -0.316228,1.42187557 -0.780213,1.72192383 C 71.931873,0.03015134 71.31194,0.1801756 70.536064,0.18017578 69.808035,0.1801756 69.324027,0.04815669 69.084038,-0.21588135 68.844047,-0.47991895 68.724052,-0.999999 68.724052,-1.776123 l 0,-3.6119385 -0.707885,0 0,-0.2878418 c 0.743895,0.00806 1.405821,-0.1879214 1.985778,-0.5879517 0.579954,-0.4000177 1.05792,-0.9041066 1.433899,-1.512268 z m -7.115936,4.5717773 0,-1.5717773 c -4e-6,-0.2641551 -0.04401,-0.4502511 -0.132019,-0.5582886 -0.08802,-0.1080267 -0.272038,-0.1620428 -0.552063,-0.1620483 -0.01587,5.5e-6 -0.0318,5.5e-6 -0.04779,0 -0.016,5.5e-6 -0.03205,5.5e-6 -0.04816,0 -0.09595,0.00806 -0.183902,0.020086 -0.263855,0.036072 -0.07996,0.015997 -0.119937,0.04804 -0.119934,0.09613 -3e-6,5.4e-6 -3e-6,0.00202 0,0.00604 -3e-6,0.00403 -3e-6,0.00605 0,0.00604 0.0081,0.040044 0.03405,0.080022 0.078,0.1199341 0.04394,0.039922 0.09387,0.087957 0.14978,0.144104 0.04809,0.06397 0.09613,0.1399586 0.144104,0.2279663 0.04797,0.088017 0.07196,0.2000169 0.07196,0.3359985 -3e-6,0.312016 -0.112003,0.5340006 -0.335998,0.6659546 -0.224002,0.1319618 -0.467959,0.2179602 -0.731873,0.2579956 -0.09595,0.015873 -0.187929,0.025821 -0.27594,0.029846 -0.08801,0.00403 -0.17206,0.00605 -0.252136,0.00604 -0.0481,3.6e-6 -0.09815,-0.00201 -0.150146,-0.00604 -0.052,-0.00402 -0.101931,-0.00995 -0.149781,-0.017761 -0.256105,-0.031979 -0.490113,-0.1199914 -0.702026,-0.2640381 -0.211915,-0.144039 -0.317872,-0.3641315 -0.317871,-0.6602783 -10e-7,-0.06396 0.006,-0.1319534 0.01794,-0.2039795 0.01196,-0.072017 0.03393,-0.143916 0.06592,-0.2156983 0.104003,-0.2241159 0.359984,-0.4281562 0.767945,-0.6121215 0.407957,-0.1839543 1.119992,-0.2759341 2.136108,-0.27594 0.144039,5.9e-6 0.30804,0.00397 0.492004,0.011902 0.183956,0.00794 0.371883,0.023993 0.563782,0.048157 0.20019,0.015875 0.396235,0.037847 0.588135,0.065918 0.191889,0.028082 0.363886,0.062017 0.515991,0.1018066 0.399896,0.08814 0.715875,0.2362114 0.947937,0.4442139 0.232049,0.2080128 0.348076,0.5360154 0.348084,0.9840088 l 0,3.20397947 c -8e-6,0.0158701 -8e-6,0.027833 0,0.0358887 -8e-6,0.008058 -8e-6,0.0161142 0,0.0241699 0.008,0.0639657 0.02807,0.11993487 0.06006,0.16790771 0.03197,0.0479743 0.07995,0.0719611 0.143921,0.0719605 0.09594,6.7e-7 0.173943,-0.0239861 0.234009,-0.0719605 0.06005,-0.0479728 0.122063,-0.10003578 0.186035,-0.15618896 -8e-6,-0.007812 0.002,-0.013732 0.006,-0.0177612 0.004,-0.004027 0.0099,-0.006042 0.01776,-0.006042 0.008,-0.0161123 0.0161,-0.0281362 0.02417,-0.0360718 0.008,-0.007934 0.0161,-0.0159292 0.02417,-0.0239868 l 0,0.40795899 c -0.18409,0.21606481 -0.406136,0.38208027 -0.666138,0.49804687 -0.260017,0.11596676 -0.526008,0.19396961 -0.797974,0.23400879 -0.06397,0.008056 -0.131964,0.0140989 -0.203979,0.0181274 -0.07203,0.004028 -0.140021,0.006042 -0.20398,0.006042 -0.343999,-1.8e-7 -0.646001,-0.0520021 -0.906006,-0.15600586 -0.260014,-0.10400382 -0.470097,-0.32409638 -0.630249,-0.66027832 -0.271976,0.30395541 -0.595951,0.51196302 -0.971923,0.62402344 -0.37598,0.11206045 -0.760013,0.1761473 -1.1521,0.19226074 -0.03198,-1.8e-7 -0.06598,-1.8e-7 -0.10199,0 -0.03601,-1.8e-7 -0.07001,-1.8e-7 -0.10199,0 -0.02393,-1.8e-7 -0.0459,-1.8e-7 -0.06592,0 -0.02002,-1.8e-7 -0.042,-1.8e-7 -0.06592,0 -0.432131,-0.0241701 -0.830141,-0.14422611 -1.194031,-0.36016846 -0.363892,-0.21594198 -0.545838,-0.57989426 -0.545838,-1.09185791 0,-0.016112 0,-0.032164 0,-0.048157 0,-0.01599 0,-0.032042 0,-0.048157 0.01587,-0.3759748 0.167786,-0.7319315 0.45575,-1.0678711 0.287963,-0.3359347 0.835997,-0.5599335 1.644104,-0.671997 0.127927,-0.015866 0.247922,-0.029843 0.359985,-0.041931 0.112058,-0.012082 0.22009,-0.022153 0.324097,-0.030212 0.112057,-0.00781 0.228085,-0.01373 0.348083,-0.017761 0.119992,-0.00403 0.247983,-0.00604 0.383973,-0.00604 l 0.587768,-0.012085 z m 0,1.4879151 0,-1.199707 -0.431763,0 c -0.27222,0.00782 -0.448306,0.109744 -0.528259,0.3057861 -0.07996,0.1960473 -0.119937,0.4100364 -0.119934,0.6419678 -3e-6,0.048098 -3e-6,0.096132 0,0.144104 -3e-6,0.047975 -3e-6,0.09601 0,0.144104 -3e-6,0.031984 -3e-6,0.061952 0,0.089905 -3e-6,0.027956 -3e-6,0.057924 0,0.089905 -3e-6,0.00806 -3e-6,0.016115 0,0.02417 -3e-6,0.00806 -3e-6,0.015993 0,0.023804 -3e-6,0.048097 -3e-6,0.1021132 0,0.1620483 -3e-6,0.059938 0.004,0.1220105 0.01208,0.1862183 0.0081,0.14379977 0.04205,0.27972493 0.10199,0.40777585 0.05993,0.12805234 0.173885,0.19207816 0.341858,0.19207764 0.232173,5.2e-7 0.38824,-0.0780023 0.4682,-0.23400879 0.07995,-0.15600495 0.127865,-0.329955 0.143738,-0.5218506 0.0081,-0.064208 0.01208,-0.1282945 0.01208,-0.1922607 -4e-6,-0.063963 -4e-6,-0.1238998 0,-0.1798096 -4e-6,-0.016112 -4e-6,-0.03015 0,-0.042114 -4e-6,-0.011961 -4e-6,-0.021971 0,-0.030029 z m -9.29974,-4.0916748 0,1.1279297 c 0.23193,-0.3520458 0.535885,-0.6300606 0.911866,-0.8340454 0.375971,-0.2039738 0.771967,-0.3059634 1.187988,-0.3059693 0.567865,5.9e-6 1.033806,0.1519832 1.397827,0.4559326 0.364006,0.3039602 0.546013,0.8919723 0.54602,1.7640381 l 0,3.3240967 0.648194,0 0,0.2878418 -3.94812,0 0,-0.2878418 0.420044,0 0,-3.6240234 c -5e-6,-0.016109 -5e-6,-0.040157 0,-0.072144 -5e-6,-0.031978 -5e-6,-0.063961 0,-0.095947 0.0081,-0.031978 0.01208,-0.067989 0.01208,-0.1080322 -5e-6,-0.040035 -5e-6,-0.080074 0,-0.1201172 -0.0081,-0.1599076 -0.03809,-0.3078567 -0.09009,-0.4438476 -0.05201,-0.1359815 -0.170049,-0.2039746 -0.354126,-0.2039795 -0.17603,4.9e-6 -0.317998,0.070012 -0.425904,0.210022 -0.107914,0.1400192 -0.185916,0.2980391 -0.234008,0.47406 -0.02393,0.079838 -0.04187,0.1597942 -0.05383,0.2398682 -0.01197,0.080082 -0.01795,0.1521035 -0.01795,0.2160644 l 0,3.5280762 0.419678,0 0,0.2878418 -3.971924,0 0,-0.2878418 0.659912,0 0,-5.1002197 -0.635742,0 0,-0.2878418 c 0.35205,0.00806 0.70404,0.00403 1.055969,-0.012085 0.351928,-0.016108 0.703917,-0.032099 1.05597,-0.047974 0.239987,-0.016107 0.477963,-0.030146 0.713928,-0.042114 0.235959,-0.011957 0.470028,-0.021967 0.702209,-0.030029 z m -10.224334,0.4317627 -0.635743,0 0,-0.2878418 c 0.287842,0.00806 0.575805,0.00605 0.863892,-0.00604 0.288085,-0.012079 0.580077,-0.026056 0.875977,-0.041931 0.05591,5.8e-6 0.111875,-0.00201 0.167907,-0.00604 0.05603,-0.00402 0.11212,-0.00604 0.168274,-0.00604 0.231931,-0.016107 0.463865,-0.030146 0.695801,-0.042114 0.23193,-0.011957 0.463986,-0.021967 0.696167,-0.030029 l 0,1.2000733 0.0238,0 c 0.199947,-0.3598583 0.465938,-0.6458078 0.797973,-0.8578491 0.332027,-0.2120305 0.710078,-0.3180485 1.134156,-0.3180542 0.399896,5.7e-6 0.757867,0.1140193 1.073913,0.342041 0.316033,0.2280325 0.474053,0.5579883 0.47406,0.9898681 -7e-6,0.4160197 -0.130012,0.7540321 -0.390014,1.0140381 -0.260017,0.260013 -0.598029,0.3900177 -1.014039,0.3900147 -0.392095,3e-6 -0.714116,-0.119992 -0.966064,-0.3599854 -0.251958,-0.2399866 -0.377934,-0.5600546 -0.37793,-0.9602051 -4e-6,-0.047847 0.002,-0.09576 0.006,-0.1437378 0.004,-0.047969 0.01007,-0.096004 0.01813,-0.144104 -4e-6,-0.048091 0.006,-0.094111 0.01794,-0.1380615 0.01196,-0.04394 0.02197,-0.089961 0.03003,-0.1380615 -0.01612,-0.031977 -0.03418,-0.051936 -0.0542,-0.059875 -0.02002,-0.00793 -0.042,-0.011897 -0.06592,-0.011902 -0.02393,5e-6 -0.04792,0.008 -0.07196,0.023987 -0.02405,0.015996 -0.04401,0.031926 -0.05988,0.04779 -0.03223,0.031987 -0.06433,0.067998 -0.09631,0.1080322 -0.03199,0.040044 -0.05994,0.080083 -0.08386,0.1201172 -0.04004,0.055913 -0.07203,0.1098679 -0.09595,0.1618652 -0.02393,0.052007 -0.03992,0.090092 -0.04797,0.1142579 -0.03199,0.087895 -0.05597,0.1738323 -0.07196,0.2578125 -0.01599,0.083988 -0.03205,0.1700479 -0.04816,0.2581787 -0.0081,0.1118202 -0.01209,0.2217444 -0.01208,0.3297729 -4e-6,0.1080357 -4e-6,0.218082 0,0.3301392 -4e-6,0.031986 -4e-6,0.065982 0,0.1019897 -4e-6,0.036014 -4e-6,0.074039 0,0.1140747 l 0,2.7480469 0.852173,0 0,0.2878418 -4.439942,0 0,-0.2878418 0.635743,0 0,-5.1002197 z m -1.079682,2.9282226 -3.864258,0 0,0.5039063 c -3e-6,0.4880386 0.07599,0.8980113 0.227967,1.22991942 0.151974,0.33190957 0.507991,0.49786399 1.068054,0.49786377 0.447993,2.2e-7 0.864008,-0.12396205 1.248047,-0.37188721 0.384027,-0.24792396 0.700067,-0.54388318 0.94812,-0.88787838 l 0.227783,0.1439209 c -0.35987,0.52807695 -0.791815,0.91412392 -1.295837,1.15814205 -0.504034,0.2440185 -1.080022,0.36602765 -1.727967,0.36602783 -0.264163,-1.8e-7 -0.518191,-0.0100099 -0.762085,-0.0300293 -0.243899,-0.0200197 -0.485842,-0.0620118 -0.72583,-0.12597656 -0.08008,-0.01611329 -0.160097,-0.03814696 -0.240051,-0.06610107 -0.07996,-0.02795403 -0.159975,-0.05792227 -0.240051,-0.08990479 -0.511965,-0.2160641 -0.931947,-0.54211358 -1.259949,-0.97814946 -0.328003,-0.4360336 -0.492005,-1.0059793 -0.492004,-1.7098388 -10e-7,-0.9602013 0.339965,-1.702266 1.019897,-2.2261963 0.67993,-0.5239202 1.471921,-0.7858828 2.375977,-0.7858887 1.040034,5.9e-6 1.886042,0.2979792 2.538025,0.8939209 0.65197,0.5959516 0.970024,1.4259069 0.954162,2.4898682 z m -3.864258,-0.288208 1.031983,0 0,-1.6560058 c -4e-6,-0.015865 -4e-6,-0.037837 0,-0.065918 -4e-6,-0.028072 -4e-6,-0.054073 0,-0.078003 -4e-6,-0.048091 -4e-6,-0.094112 0,-0.1380616 -4e-6,-0.04394 -4e-6,-0.089961 0,-0.1380615 -4e-6,-0.1838329 -0.034,-0.3497873 -0.10199,-0.4978637 -0.068,-0.1480659 -0.213932,-0.2221014 -0.437805,-0.222107 -0.184086,5.6e-6 -0.308109,0.070013 -0.37207,0.210022 -0.06397,0.1400198 -0.104008,0.2940114 -0.120118,0.4619751 -3e-6,0.06397 -3e-6,0.1279955 0,0.1920776 -3e-6,0.064092 -3e-6,0.1240891 0,0.1799927 -3e-6,0.016118 -3e-6,0.034123 0,0.054016 -3e-6,0.019902 -3e-6,0.037907 0,0.054016 l 0,1.6439209 z m -5.076046,-5.0397949 0.22815,0 0,2.1119385 1.356079,0 0,0.2878418 -1.356079,0 0,4.2359619 c -4e-6,0.016114 -4e-6,0.028138 0,0.036072 -4e-6,0.00794 -4e-6,0.015931 0,0.023987 -4e-6,0.016114 -4e-6,0.03412 0,0.054016 -4e-6,0.019898 -4e-6,0.037904 0,0.0540161 -4e-6,0.11206142 0.02002,0.21606522 0.06006,0.31201172 0.04004,0.0959478 0.132077,0.14392143 0.276123,0.1439209 0.199947,5.3e-7 0.361935,-0.0880121 0.485962,-0.26403809 0.124019,-0.17602442 0.221919,-0.37194703 0.293702,-0.58776853 0.03222,-0.1040024 0.0603,-0.2100204 0.08423,-0.3180542 0.02392,-0.1080304 0.03991,-0.2020855 0.04797,-0.2821655 l 0.264038,-0.011719 c -0.05616,0.8479015 -0.316228,1.42187557 -0.780213,1.72192383 -0.463993,0.3000488 -1.083926,0.45007306 -1.859802,0.45007324 -0.728029,-1.8e-7 -1.212037,-0.13201909 -1.452026,-0.39605713 C 32.184051,-0.47991895 32.064056,-0.999999 32.064056,-1.776123 l 0,-3.6119385 -0.707885,0 0,-0.2878418 c 0.743895,0.00806 1.405821,-0.1879214 1.985778,-0.5879517 0.579954,-0.4000177 1.05792,-0.9041066 1.433899,-1.512268 z m -8.411682,1.9680176 0,1.1279297 c 0.23193,-0.3520458 0.535885,-0.6300606 0.911865,-0.8340454 0.375972,-0.2039738 0.771968,-0.3059634 1.187989,-0.3059693 0.567865,5.9e-6 1.033806,0.1519832 1.397827,0.4559326 0.364006,0.3039602 0.546013,0.8919723 0.54602,1.7640381 l 0,3.3240967 0.648194,0 0,0.2878418 -3.94812,0 0,-0.2878418 0.420044,0 0,-3.6240234 c -5e-6,-0.016109 -5e-6,-0.040157 0,-0.072144 -5e-6,-0.031978 -5e-6,-0.063961 0,-0.095947 0.0081,-0.031978 0.01208,-0.067989 0.01208,-0.1080322 -5e-6,-0.040035 -5e-6,-0.080074 0,-0.1201172 -0.0081,-0.1599076 -0.03809,-0.3078567 -0.09009,-0.4438476 -0.05201,-0.1359815 -0.170049,-0.2039746 -0.354126,-0.2039795 -0.17603,4.9e-6 -0.317998,0.070012 -0.425904,0.210022 -0.107914,0.1400192 -0.185917,0.2980391 -0.234008,0.47406 -0.02393,0.079838 -0.04187,0.1597942 -0.05383,0.2398682 -0.01197,0.080082 -0.01795,0.1521035 -0.01794,0.2160644 l 0,3.5280762 0.419678,0 0,0.2878418 -3.971924,0 0,-0.2878418 0.659912,0 0,-5.1002197 -0.635742,0 0,-0.2878418 c 0.35205,0.00806 0.70404,0.00403 1.055969,-0.012085 0.351927,-0.016108 0.703917,-0.032099 1.05597,-0.047974 0.239987,-0.016107 0.477963,-0.030146 0.713928,-0.042114 0.235958,-0.011957 0.470028,-0.021967 0.702209,-0.030029 z M 22.43985,0 l -5.543701,0 0,-0.32409668 0.911865,0 0,-7.66772462 -0.911865,0 0,-0.3240967 5.543701,0 0,0.3240967 -0.911865,0 0,7.66772462 0.911865,0 0,0.32409668 z m -13.655821,-5.4001465 -0.6719971,0 0,-0.3599853 0.6840821,0 c -0.024171,-0.7758724 0.1917714,-1.4438405 0.6478271,-2.0039063 0.4560528,-0.5600503 1.0960669,-0.8400793 1.9200439,-0.8400879 0.03198,8.6e-6 0.06598,8.6e-6 0.10199,0 0.03601,8.6e-6 0.07,0.00404 0.10199,0.012085 0.328121,0.031991 0.630183,0.1400231 0.906189,0.3240967 0.275996,0.1840901 0.413996,0.4680253 0.414001,0.8518066 -5e-6,0.2961497 -0.09406,0.5341866 -0.282166,0.7141113 -0.188114,0.1799382 -0.434147,0.2699039 -0.738098,0.2698975 -0.239994,6.4e-6 -0.453983,-0.081964 -0.641967,-0.2459107 -0.187992,-0.1639335 -0.281986,-0.369927 -0.281983,-0.6179809 -3e-6,-0.1999437 0.05603,-0.3599167 0.168091,-0.4799194 0.112057,-0.1199873 0.244015,-0.2240521 0.395874,-0.3121949 0.0081,-0.015861 0.01208,-0.027824 0.01208,-0.035889 -4e-6,-0.00805 -4e-6,-0.015983 0,-0.023804 -4e-6,-0.032218 -0.01203,-0.050285 -0.03607,-0.054199 -0.02405,-0.0039 -0.05207,-0.00585 -0.08404,-0.00586 -0.0078,8.2e-6 -0.01374,8.2e-6 -0.01776,0 -0.004,8.2e-6 -0.01008,8.2e-6 -0.01813,0 -0.312015,8.2e-6 -0.552005,0.1120076 -0.719971,0.3359985 -0.167971,0.2240067 -0.251955,0.4799268 -0.251953,0.7677612 -2e-6,0.4721746 0.166013,0.810248 0.498047,1.0142212 0.332028,0.2039854 0.697995,0.3179379 1.0979,0.3418579 0.06396,5.8e-6 0.125973,5.8e-6 0.186036,0 0.06005,5.8e-6 0.122066,5.8e-6 0.186035,0 l 0,0.3479004 -0.719971,0 0,5.1123047 0.671997,0 0,0.2878418 -4.2000731,0 0,-0.2878418 0.6719971,0 0,-5.1123047 z M 3.9598389,-5.8439941 c 0.040035,0.00806 0.080074,0.012091 0.1201172,0.012085 0.040035,5.9e-6 0.080074,5.9e-6 0.1201171,0 0.4160111,0.015875 0.8240307,0.07984 1.2240601,0.1918946 0.4000186,0.112066 0.7559142,0.2761284 1.067688,0.4921875 0.3281182,0.2238818 0.6001516,0.5217941 0.8161011,0.8937377 0.2159348,0.3719522 0.3400192,0.7539708 0.3722534,1.1460572 0.0078,0.040042 0.011711,0.078067 0.011719,0.1140747 -7.7e-6,0.036014 -7.7e-6,0.07001 0,0.1019897 -7.7e-6,0.4480005 -0.094002,0.8739644 -0.2819824,1.2778931 -0.1879955,0.4039319 -0.4539864,0.74993982 -0.7979736,1.0380249 -0.2959048,0.2480472 -0.6438659,0.42803969 -1.0438843,0.53997802 -0.4000296,0.1119384 -0.8120775,0.17999253 -1.236145,0.2041626 -0.063969,0.008056 -0.1259198,0.0120848 -0.1858521,0.012085 -0.059941,-1.8e-7 -0.1220133,-1.8e-7 -0.1862182,0 -0.063969,-1.8e-7 -0.1259194,-1.8e-7 -0.1858521,0 -0.05994,-1.8e-7 -0.1218908,-0.004029 -0.185852,-0.012085 C 3.1640593,0.14392075 2.7520114,0.07586662 2.3519897,-0.03607178 1.9519634,-0.14801011 1.6040023,-0.3280026 1.3081055,-0.5760498 0.96411036,-0.86413488 0.69811942,-1.2101428 0.51013184,-1.6140747 0.32214323,-2.0180034 0.22814919,-2.4439673 0.22814941,-2.8919678 c -2.2e-7,-0.031979 -2.2e-7,-0.065976 0,-0.1019897 -2.2e-7,-0.036008 0.003906,-0.074033 0.0117188,-0.1140747 0.0319821,-0.3920864 0.15600547,-0.774105 0.37207032,-1.1460572 0.21606362,-0.3719436 0.48803597,-0.6698559 0.81591787,-0.8937377 0.31201,-0.2160591 0.6680277,-0.3801215 1.0680543,-0.4921875 0.4000216,-0.1120548 0.8080411,-0.1760196 1.2240601,-0.1918946 0.040035,5.9e-6 0.080074,5.9e-6 0.1201172,0 0.040035,5.9e-6 0.079952,5.9e-6 0.119751,0 z m -0.5998535,1.2000732 0,3.5998535 c -3.4e-6,0.016114 -3.4e-6,0.026124 0,0.030029 -3.4e-6,0.00391 -3.4e-6,0.00586 0,0.00586 -3.4e-6,0.24023513 0.023983,0.45233209 0.07196,0.63629149 0.04797,0.18396015 0.2239343,0.27594004 0.5278931,0.27593994 0.2961383,1e-7 0.4661821,-0.07800275 0.5101318,-0.23400878 0.043941,-0.15600538 0.062007,-0.33801203 0.054199,-0.54602051 -4.5e-6,-0.0239249 -4.5e-6,-0.0499258 0,-0.0780029 -4.5e-6,-0.0280752 -4.5e-6,-0.0540761 0,-0.0780029 l 0,-3.6119385 c -4.5e-6,-0.016109 -4.5e-6,-0.038142 0,-0.066101 -4.5e-6,-0.027949 -4.5e-6,-0.057918 0,-0.089905 -0.00806,-0.184077 -0.042119,-0.3541208 -0.1021728,-0.5101318 -0.060063,-0.1560004 -0.2141156,-0.2340032 -0.4621582,-0.2340088 -0.2478065,5.6e-6 -0.4077184,0.078008 -0.4797364,0.2340088 -0.072025,0.156011 -0.1120639,0.3260548 -0.1201171,0.5101318 -3.4e-6,0.031987 -3.4e-6,0.061955 0,0.089905 -3.4e-6,0.027959 -3.4e-6,0.054021 0,0.078186 z M 147.26617,-31.563673 l -1.21421,0 0,-0.594178 10.54242,0 0,0.594178 -1.59564,0 4.04602,6.55542 0.13515,0 2.65207,-4.531861 c 0.13489,-0.219754 0.23231,-0.421394 0.29224,-0.604919 0.0599,-0.183499 0.0898,-0.348436 0.0899,-0.494812 -0.0146,-0.264065 -0.10064,-0.458431 -0.25793,-0.5831 -0.15734,-0.124639 -0.33342,-0.208898 -0.52822,-0.252777 -0.075,-0.02953 -0.1538,-0.04799 -0.23633,-0.05539 -0.0826,-0.0074 -0.16134,-0.01106 -0.23633,-0.01108 l -0.60642,-0.02148 0,-0.594178 4.98996,0 0,0.594178 -0.38211,0 c -0.20993,0.01434 -0.51338,0.146153 -0.91032,0.395446 -0.39698,0.249323 -0.88038,0.858046 -1.4502,1.826172 l -3.19195,5.346253 0,6.489624 2.04564,0 0,0.594177 -10.92452,0 0,-0.594177 1.97842,0 0,-5.522156 -5.2376,-8.535339 z m -13.77999,14.057495 0,-14.057495 c -1.09394,0.102513 -1.9368,0.549768 -2.52858,1.341766 -0.5918,0.792025 -1.0377,1.65733 -1.33771,2.595917 -0.0599,0.175914 -0.11604,0.359202 -0.1684,0.549865 -0.0524,0.190685 -0.10095,0.373973 -0.14578,0.549867 l -0.69698,-0.02148 0.11251,-5.610109 16.45436,0 0.11251,5.610109 -0.69698,0 c -0.0453,-0.161571 -0.0941,-0.337698 -0.14646,-0.528383 -0.0524,-0.190663 -0.10852,-0.373951 -0.16842,-0.549865 -0.29957,-0.938587 -0.74535,-1.803892 -1.33735,-2.595917 -0.59203,-0.791998 -1.43501,-1.232092 -2.52893,-1.320282 l 0,14.036011 2.04564,0 0,0.594178 -11.03703,0 0,-0.594178 2.0676,0 z m -5.6197,0.594177 -10.38464,0 0,-0.594177 1.70813,0 0,-14.057495 -1.70813,0 0,-0.594178 10.38464,0 0,0.594178 -1.70813,0 0,14.057495 1.70813,0 0,0.594177 z m -18.85965,-11.418274 4.5859,2.288086 c 0.71938,0.381357 1.345,0.979002 1.87689,1.792939 0.53187,0.813951 0.7978,1.734309 0.79782,2.761077 -2e-5,1.759932 -0.64062,2.99931 -1.92182,3.71814 -1.28123,0.718832 -2.69358,1.107564 -4.23707,1.166199 -0.0901,0.01477 -0.18386,0.02215 -0.28126,0.02216 -0.0974,-1e-6 -0.19849,-1e-6 -0.30321,0 -0.10474,-1e-6 -0.21712,-0.0037 -0.33717,-0.01108 -0.12006,-0.0074 -0.23245,-0.01846 -0.33717,-0.03323 -0.50947,-0.05863 -1.01529,-0.176015 -1.51742,-0.352142 -0.50216,-0.176127 -0.97047,-0.381459 -1.40493,-0.615998 l -2.42775,1.012452 -0.56183,0 -0.1571,-5.45636 0.71893,0 c 0.56938,1.305179 1.3936,2.445529 2.47268,3.421051 1.07907,0.975525 2.38281,1.463287 3.91122,1.463287 0.0901,0 0.18006,-0.0037 0.26994,-0.01108 0.0898,-0.0074 0.17984,-0.01846 0.26994,-0.03323 0.40428,-0.05863 0.77506,-0.197947 1.11235,-0.417939 0.33727,-0.21999 0.50592,-0.557361 0.50593,-1.012115 -1e-5,-0.498614 -0.17986,-0.898313 -0.53955,-1.199097 -0.3597,-0.300778 -0.74922,-0.553666 -1.1686,-0.758667 -0.13491,-0.05863 -0.26605,-0.113684 -0.39342,-0.165161 -0.12737,-0.05147 -0.25096,-0.106523 -0.37077,-0.165161 l -1.70883,-0.770081 c -1.6336,-0.704055 -2.86244,-1.532657 -3.68656,-2.485809 -0.82411,-0.953137 -1.23617,-2.031047 -1.23616,-3.233734 -1e-5,-1.613554 0.52444,-2.860318 1.57334,-3.740296 1.04888,-0.879949 2.36017,-1.319931 3.93385,-1.319946 0.62928,1.5e-5 1.24748,0.08439 1.8546,0.253113 0.6071,0.168757 1.1878,0.385167 1.7421,0.649231 l 2.42774,-0.9245 0.51724,0 0.17973,5.038086 -0.60711,0 c -0.5543,-1.173125 -1.34102,-2.203367 -2.36017,-3.090729 -1.01918,-0.887335 -2.2406,-1.331009 -3.66426,-1.331024 -0.075,1.5e-5 -0.14624,0.0037 -0.21369,0.01108 -0.0674,0.0074 -0.13846,0.01825 -0.21301,0.03256 -0.37502,0.05865 -0.71607,0.201655 -1.02316,0.429016 -0.3071,0.227391 -0.46065,0.546523 -0.46065,0.957398 0,0.425225 0.15732,0.769869 0.47197,1.033935 0.31464,0.264091 0.66678,0.491467 1.05643,0.682129 0.15001,0.07297 0.2999,0.14615 0.44968,0.219544 0.14977,0.07342 0.28456,0.139436 0.40439,0.198059 z m -25.153331,10.824097 0,-14.057495 -1.663547,0 0,-0.594178 11.621501,0 c 2.307684,0.01479 3.929841,0.399826 4.866474,1.155121 0.936598,0.755324 1.404903,1.609662 1.404923,2.563019 -2e-5,1.026337 -0.374686,1.785227 -1.124008,2.276673 -0.749354,0.491464 -1.573581,0.810372 -2.472681,0.956726 -0.149562,0.02955 -0.303111,0.05171 -0.460648,0.06647 -0.157565,0.01478 -0.311114,0.02933 -0.460648,0.04364 l 0,0.198059 c 1.42366,0.161588 2.495075,0.645657 3.214246,1.452209 0.719138,0.806565 1.078715,1.869817 1.078733,3.189759 -1.8e-5,0.01477 -1.8e-5,0.03312 0,0.05505 -1.8e-5,0.02193 -1.8e-5,0.04029 0,0.05505 -1.8e-5,0.557253 0.02628,1.026552 0.07889,1.407898 0.05258,0.381349 0.228646,0.572022 0.528216,0.572021 0.14999,1e-6 0.29245,-0.05494 0.42738,-0.164825 0.13489,-0.109882 0.25471,-0.230844 0.35946,-0.362885 0.0448,-0.05863 0.086,-0.113686 0.12348,-0.165161 0.0375,-0.05147 0.0713,-0.09914 0.10153,-0.143005 l 0.60711,0.308166 c -0.38967,0.645428 -0.95539,1.158814 -1.69717,1.540161 -0.741806,0.381348 -1.674763,0.572021 -2.79887,0.572022 -1.453873,-10e-7 -2.596631,-0.341065 -3.428277,-1.023194 -0.831671,-0.682127 -1.255045,-1.756569 -1.270127,-3.223327 -0.01464,-1.833328 -0.130692,-2.951633 -0.348143,-3.35492 -0.217472,-0.403272 -0.618438,-0.604911 -1.202899,-0.604919 l -0.786154,-0.02216 0,7.304016 1.887868,0 0,0.594177 -10.317418,0 0,-0.594177 1.730775,0 z m 6.698775,-14.057495 0,6.093506 0.854068,0 c 0.524551,0.01478 0.921628,-0.1355 1.191236,-0.450836 0.269587,-0.315319 0.404385,-1.132956 0.404397,-2.452912 l 0,-1.386414 c -1.2e-5,1.3e-5 -1.2e-5,-0.01095 0,-0.0329 -1.2e-5,-0.02192 -1.2e-5,-0.04027 0,-0.05505 -0.02973,-0.425199 -0.168309,-0.813819 -0.415716,-1.165863 -0.247426,-0.352016 -0.588367,-0.528031 -1.022823,-0.528046 l -1.011162,-0.02148 z m -9.306599,14.651672 -15.285419,0 0,-0.594177 1.663547,0 0,-14.057495 -1.663547,0 0,-0.594178 15.08305,0 0.112503,5.345582 -0.741564,0 c -0.314659,-1.202667 -0.854197,-2.291655 -1.618614,-3.266968 -0.764442,-0.975287 -1.761083,-1.462937 -2.989924,-1.462952 l -1.371311,-0.02148 0,6.665527 0.382102,0 c 0.134903,0.01478 0.299772,-0.0071 0.494604,-0.0658 0.194814,-0.05863 0.389637,-0.153963 0.584471,-0.28601 0.314634,-0.220207 0.610643,-0.539227 0.888025,-0.957062 0.277361,-0.417817 0.446002,-0.971375 0.505924,-1.660675 l 0.741564,-0.02216 0,6.709839 -0.741564,0 c -0.05993,-0.718827 -0.228563,-1.298233 -0.505924,-1.73822 -0.277382,-0.439976 -0.573391,-0.762465 -0.888025,-0.967469 -0.194834,-0.146802 -0.389657,-0.249524 -0.584471,-0.308166 -0.194832,-0.05863 -0.359701,-0.08794 -0.494604,-0.08795 l -0.382102,-0.02216 0,6.79779 1.52909,0 c 0.08963,0.01477 0.183152,0.01846 0.280574,0.01108 0.0974,-0.0074 0.191154,-0.01846 0.281259,-0.03323 0.764192,-0.131591 1.509642,-0.582427 2.236356,-1.352509 0.726687,-0.770078 1.367409,-2.042466 1.922167,-3.817169 l 0.674337,-0.02216 -0.112504,5.808166 z m -32.774089,-14.651672 -1.191579,0 0,-0.594178 10.093096,0 0,0.594178 -1.551044,0 3.686557,9.26178 3.034857,-7.193909 c 0.08962,-0.190661 0.153191,-0.370369 0.190708,-0.539124 0.03749,-0.168728 0.05624,-0.319119 0.05625,-0.451172 -1.6e-5,-0.278388 -0.06748,-0.494686 -0.20237,-0.648895 -0.134929,-0.154181 -0.284705,-0.260595 -0.449329,-0.319244 -0.09011,-0.02908 -0.176317,-0.05101 -0.258621,-0.0658 -0.08233,-0.01476 -0.15345,-0.02214 -0.213346,-0.02216 l -0.539881,-0.02148 0,-0.594178 4.360892,0 0,0.594178 -0.539194,0 c -0.09011,0.01434 -0.191297,0.05451 -0.303554,0.120514 -0.112293,0.06603 -0.228341,0.165063 -0.348145,0.297088 -0.150022,0.132054 -0.29248,0.297103 -0.427377,0.495148 -0.13493,0.198073 -0.247204,0.399824 -0.336825,0.605255 l -5.372737,13.133671 -3.641279,0 -6.047077,-14.651672 z m -1.77605,14.651672 -10.384646,0 0,-0.594177 1.708136,0 0,-14.057495 -1.708136,0 0,-0.594178 10.384646,0 0,0.594178 -1.708136,0 0,14.057495 1.708136,0 0,0.594177 z m -23.624762,0 -4.630489,0 0,-0.594177 0.561832,0 c 0.449557,0.01477 0.767975,-0.175791 0.955253,-0.571686 0.187276,-0.395892 0.288461,-0.835986 0.303554,-1.320282 -2e-6,-0.02909 -2e-6,-0.0583 0,-0.08762 -2e-6,-0.02932 -2e-6,-0.05874 0,-0.08829 l 0,-10.824097 c -0.03018,-0.01476 -0.05648,-0.04038 -0.07889,-0.07687 -0.02241,-0.03646 -0.04871,-0.06947 -0.07889,-0.09903 -2e-6,-0.01476 -0.0075,-0.02942 -0.02229,-0.04398 -0.01487,-0.01453 -0.02229,-0.02919 -0.02229,-0.04398 -0.179734,-0.234524 -0.367011,-0.443437 -0.561833,-0.62674 -0.194824,-0.183274 -0.434695,-0.274918 -0.719612,-0.274932 l -0.336825,-0.02216 0,-0.572022 8.541367,0 6.092352,8.162049 0,-6.46814 c -1.4e-5,-0.293158 -0.149905,-0.546159 -0.449672,-0.759003 -0.299794,-0.212815 -0.6596,-0.319229 -1.079418,-0.319244 l -0.449329,-0.02148 0,-0.594178 4.630489,0 0,0.594178 -0.674336,0 c -0.569395,0.01434 -0.902789,0.230523 -1.000186,0.648559 -0.09743,0.418064 -0.146133,1.059685 -0.146117,1.924866 -1.6e-5,0.02955 -1.6e-5,0.0516 0,0.06613 -1.6e-5,0.01456 -1.6e-5,0.02922 0,0.04397 l 0,11.968141 -3.776422,0 -9.081248,-12.231996 0,9.547792 c -3e-6,0.04431 -3e-6,0.08113 0,0.110443 -3e-6,0.02932 -3e-6,0.05852 0,0.08762 0.01463,0.484295 0.108156,0.924389 0.280573,1.320282 0.172412,0.395895 0.513353,0.593842 1.022823,0.593841 l 0.719613,-0.02216 0,0.594178 z m -22.0517666,-14.651672 0,-0.594178 10.4525596,0 0,0.594178 -1.8659163,0 0,11.615662 c -8.7e-6,0.777468 0.2510665,1.342215 0.7532263,1.694244 0.502141,0.352031 1.135317,0.528046 1.899529,0.528046 0.989198,0 1.779697,-0.304361 2.371497,-0.913086 0.591774,-0.608722 0.887668,-1.888384 0.887683,-3.83899 l 0,-6.490295 c -1.5e-5,-1.026761 -0.108631,-1.71247 -0.32585,-2.057129 -0.217247,-0.344631 -0.588143,-0.516953 -1.112689,-0.516968 l -0.584471,-0.02148 0,-0.594178 4.63049,0 0,0.594178 -0.741564,0 c -0.299569,0.01434 -0.554303,0.193821 -0.764202,0.538452 -0.209932,0.344659 -0.31489,1.074455 -0.314874,2.189392 l 0,7.831726 c -1.6e-5,0.850874 -0.191066,1.584252 -0.573151,2.200135 -0.382116,0.615886 -0.955268,1.121888 -1.719456,1.518005 -0.359933,0.190674 -0.899471,0.355723 -1.618613,0.495148 -0.719167,0.13942 -1.58844,0.209132 -2.6078237,0.209133 -0.6892081,-1e-6 -1.3298156,-0.0404 -1.9218249,-0.121186 -0.5920231,-0.08079 -1.127673,-0.165273 -1.6069515,-0.253448 -0.1349182,-0.02909 -0.2698311,-0.06199 -0.404739,-0.09869 -0.1349179,-0.0367 -0.2698308,-0.07699 -0.4047392,-0.12085 -0.6594771,-0.220214 -1.2589248,-0.634571 -1.7983451,-1.243072 -0.5394257,-0.608498 -0.8091371,-1.594876 -0.8091352,-2.959137 l 0,-10.185608 -1.82064,0 z"
         id="path3069"
         style="font-size:12px;font-style:normal;font-variant:normal;font-weight:normal;font-stretch:normal;writing-mode:lr-tb;fill:#4c4c4c;fill-opacity:1;fill-rule:nonzero;stroke:none;font-family:Bodoni-Poster;-inkscape-font-specification:Bodoni-Poster" />
    </g>
  </g>
</svg>
