<?xml version="1.0" encoding="UTF-8"?>
<!DOCTYPE svg PUBLIC "-//W3C//DTD SVG 1.1//EN" "http://www.w3.org/Graphics/SVG/1.1/DTD/svg11.dtd">
<!-- Creator: CorelDRAW -->
<svg xmlns="http://www.w3.org/2000/svg" xml:space="preserve" width="297mm" height="210mm" style="shape-rendering:geometricPrecision; text-rendering:geometricPrecision; image-rendering:optimizeQuality; fill-rule:evenodd; clip-rule:evenodd"
viewBox="0 0 297 210"
 xmlns:xlink="http://www.w3.org/1999/xlink">
 <defs>
  <style type="text/css">
   <![CDATA[
    .fil0 {fill:#454F56}
    .fil1 {fill:white}
    .fil2 {fill:#454F56;fill-rule:nonzero}
    .fil3 {fill:url(#id0);fill-rule:nonzero}
   ]]>
  </style>
  <linearGradient id="id0" gradientUnits="userSpaceOnUse" x1="196.307" y1="150" x2="196.307" y2="63.3852">
   <stop offset="0" style="stop-color:#223E32"/>
   <stop offset="1" style="stop-color:#00923F"/>
  </linearGradient>
 </defs>
 <g id="Слой_x0020_1">
  <metadata id="CorelCorpID_0Corel-Layer"/>
  <g id="_63384440">
   <g>
    <path id="_63140272" class="fil0" d="M89.6892 97.2476c5.6321,3.0385 9.458,8.9929 9.4586,15.8396 0,9.0923 -6.7433,16.6084 -15.5009,17.8207l-0.0941 0.013 -0.0948 0.014 -0.0955 0.0107 -0.0943 0.0108 -0.094 0.0109 -0.0949 0.0107 -0.0949 0.0107 -0.0932 0.0079 -0.0948 0.0084 -0.0949 0.0085 -0.0934 0.0084 -0.0947 0.007 -0.0934 0.0062 -0.0932 0.0062 -0.0943 0.0062 -0.0932 0.0054 -0.0932 0.0053 -0.0943 0.0031 -0.0924 0.0039 -0.0934 0.0031 -0.094 0.0038 -0.0935 0.0022 -0.0924 0.0008 -0.0934 0.0017 -0.0924 0.0014 -0.0926 0.0009 -0.0487 0.0008 -0.0447 -0.0008 -0.0918 -0.0009 -0.0924 -0.0014 -0.0926 -0.0017 -0.0926 -0.0008 -0.0918 -0.0022 -0.0924 -0.0031 -0.0926 -0.0038 -0.0917 -0.003 -0.0926 -0.004 -0.091 -0.0039 -0.0918 -0.0062 -0.0917 -0.0062 -0.091 -0.0053 -0.0918 -0.0062 -0.0917 -0.0068 -0.0912 -0.0079 -0.0909 -0.0084 -0.0918 -0.0085 -0.091 -0.0076 -0.0909 -0.0093 -0.0912 -0.0109 -0.0909 -0.0099 -0.0901 -0.0101 -0.0912 -0.0107 -0.0901 -0.0116 -0.0904 -0.0124 -0.0909 -0.0123 -0.0901 -0.013 -0.0904 -0.0124 -0.0901 -0.014 -0.0911 -0.0153 -0.0893 -0.0146 -0.0904 -0.0149 -0.0895 -0.0152 -0.0893 -0.0163 -0.0903 -0.0169 -0.0895 -0.017 -0.0893 -0.0171 -0.0904 -0.0169 -0.0886 -0.0185 -0.0887 -0.02 -0.0895 -0.0192 -0.0902 -0.0194 -0.0886 -0.02 -0.0895 -0.0208 -0.0879 -0.0217 -0.0887 -0.0215 -0.0895 -0.0216 -0.0878 -0.0217 -0.0887 -0.0239 -0.0887 -0.0239 -0.0881 -0.0239 -0.0878 -0.0231 -0.0895 -0.024 -0.0879 -0.027 -0.0887 -0.0262 -0.0872 -0.0262 -0.0879 -0.0253 -0.0886 -0.027 -0.0871 -0.0285 -0.0872 -0.0287 -0.0879 -0.0284 -0.0872 -0.0287 -0.087 -0.0293 -0.0881 -0.0307 -0.0862 -0.0301 -0.0881 -0.031 -0.087 -0.0307 -0.0872 -0.0324 -0.0865 -0.0332 -0.087 -0.0332 -0.0864 -0.0324 -0.0864 -0.0332 -0.0871 -0.0354 -0.0855 -0.0347 -0.0865 -0.0354 -0.0864 -0.0355 -0.0864 -0.0355 -0.0864 -0.0377 -0.0862 -0.0372 -0.0856 -0.0377 -0.0858 -0.0369 -0.0856 -0.0394 -0.0856 -0.0402 -0.0847 -0.0392 -0.0864 -0.0402 -0.0848 -0.04 -0.0848 -0.0425 -0.0858 -0.0423 -0.0847 -0.0417 -0.0856 -0.0433 -0.0848 -0.0431 -0.0849 -0.0439 -0.084 -0.0448 -0.0856 -0.0447 -0.0841 -0.0439 -0.0839 -0.0471 -0.085 -0.047 -0.084 -0.0472 -0.0833 -0.047 -0.0849 -0.0479 -0.0832 -0.0493 -0.0841 -0.0501 -0.0848 -0.0493 -0.0833 -0.0495 -0.0833 -0.0507 -0.0833 -0.0526 -0.0833 -0.0516 -0.0834 -0.0523 -0.0831 -0.0532 -0.0827 -0.0541 -0.0825 -0.0548 -0.0831 -0.0547 -0.0827 -0.0548 -0.0831 -0.057 -0.0827 -0.0579 -0.0825 -0.0563 -0.0817 -0.0569 -0.0825 -0.0594 -0.0816 -0.0603 -0.0819 -0.0594 -0.0817 -0.0602 -0.0819 -0.0608 -0.0808 -0.0625 -0.0825 -0.0625 -0.081 -0.0617 -0.0817 -0.0639 -0.0811 -0.0648 -0.081 -0.0649 -0.0809 -0.0648 -0.081 -0.0656 -0.0802 -0.0678 -0.0803 -0.0685 -0.0808 -0.0678 -0.0802 -0.0687 -0.0794 -0.0703 -0.0803 -0.071 -0.0802 -0.0709 -0.081 -0.0716 -0.0786 -0.0734 -0.0794 -0.0732 -0.0794 -0.0749 -0.0796 -0.0732 -0.0786 -0.0771 -0.0794 -0.0772 -0.0788 -0.0771 -0.0777 -0.0771 -0.0788 -0.0801 -0.0786 -0.0796 -0.0779 -0.08 -0.0786 -0.0819 -0.078 -0.0833 -0.0771 -0.0833 -0.0778 -0.0839 -0.0771 -0.0842 -0.0771 -0.087 -0.0772 -0.0864 -0.0771 -0.0873 -0.0763 -0.0886 -0.0771 -0.091 -0.0765 -0.0901 -0.0764 -0.0904 -0.0763 -0.0948 -0.0754 -0.0941 -0.0757 -0.0932 -0.0755 -0.0965 -0.0749 -0.098 -0.0748 -0.0979 -0.0755 -0.098 -0.0741 -0.1008 -0.0748 -0.1019 -0.0741 -0.1025 -0.074 -0.1033 -0.0732 -0.1065 -0.0741 -0.108 -0.0732 -0.1065 -0.0734 -0.1103 -0.0724 -0.1109 -0.0726 -0.1104 -0.0724 -0.114 -0.0717 -0.1157 -0.0724 -0.1157 -0.071 -0.118 -0.0709 -0.1204 -0.071 -0.1203 -0.0709 -0.1227 -0.0703 -0.1264 -0.0702 -0.1256 -0.0693 -0.1281 -0.0695 -0.1318 -0.0686 -0.1311 -0.0687 -0.1343 -0.0685 -0.1371 -0.0678 -0.1374 -0.0673 -0.1411 -0.067 -0.1435 -0.0664 -0.1427 -0.0662 -0.1504 -0.0656 -0.1517 -0.0656 -0.152 -0.0639 -0.1582 -0.0648 -0.158 -0.0633 -0.1627 -0.0625 -0.1658 -0.0625 -0.1681 -0.0616 -0.1743 -0.0609 -0.1751 -0.0602 -0.1827 -0.0594 -0.1836 -0.0585 -0.1897 -0.0586 -0.1959 -0.0563 -0.1982 -0.0557 -0.206 -0.0555 -0.2098 -0.0532 -0.2182 -0.0524 -0.2244 -0.0509 -0.2336 -0.0493 -0.2413 -0.0479 -0.2508 -0.0455 -0.263 -0.044 -0.2699 -0.0408 -0.2906 -0.0377 -0.3032 -0.0355 -0.317 -0.0309 -0.3477 -0.0254 -0.3718 -0.02 -0.408c-0.0062,-0.1511 -0.0093,-0.3029 -0.0109,-0.4549l-0.0031 -0.2267 0.0039 -0.2924c0.0324,-2.0034 0.391,-3.9262 1.0264,-5.7192 0.0571,-0.1619 0.1172,-0.3238 0.179,-0.4834l0.1681 -0.4172 0.1588 -0.3702 0.1526 -0.3339 0.1489 -0.31 0.1436 -0.2877 0.1402 -0.266 0.1388 -0.2537 0.1357 -0.2415 0.1328 -0.2236 0.1326 -0.219 0.1304 -0.2097 0.1279 -0.1982 0.128 -0.1937 0.125 -0.1827 0.125 -0.1805 0.1233 -0.1705 0.1227 -0.1673 0.1211 -0.1612 0.1217 -0.158 0.1196 -0.152 0.1188 -0.1481 0.1194 -0.145 0.1182 -0.1396 0.1171 -0.1388 0.1165 -0.1318 0.1157 -0.1303 0.1155 -0.1273 0.1151 -0.1233 0.114 -0.1227 0.1141 -0.1172 0.1142 -0.1173 0.1127 -0.1141 0.1117 -0.1095 0.1126 -0.1095 0.1126 -0.1072 0.111 -0.1033 0.112 -0.1042 0.1095 -0.0994 0.1101 -0.0971 0.1112 -0.0988 0.1087 -0.0932 0.1095 -0.0926 0.1095 -0.0926 0.1079 -0.0887 0.108 -0.0864 0.1087 -0.0879 0.1081 -0.0839 0.1078 -0.0827 0.1073 -0.0825 0.1072 -0.0803 0.1064 -0.0777 0.1073 -0.078 0.1056 -0.0771 0.1056 -0.0732 0.1064 -0.0732 0.1058 -0.0726 0.1048 -0.0701 0.1056 -0.0695 0.1049 -0.0693 0.1048 -0.0679 0.105 -0.0656 0.1041 -0.0647 0.1042 -0.0648 0.1039 -0.0625 0.1035 -0.061 0.1034 -0.0617 0.1039 -0.0608 0.1027 -0.0572 0.1025 -0.0577 0.1033 -0.0571 0.1034 -0.0563 0.1019 -0.0541 0.1033 -0.0538 0.1016 -0.054 0.1019 -0.051 0.1019 -0.0509 0.1017 -0.0501 0.101 -0.051 0.1019 -0.0478 0.1011 -0.047 0.1008 -0.0471 0.1011 -0.0478 0.101 -0.0439 0.1003 -0.044 0.101 -0.0439 0.1003 -0.0431 0.1002 -0.0417 0.1002 -0.0402 0.0996 -0.0408 0.1003 -0.0408 0.0994 -0.0386 0.0996 -0.0377 0.0994 -0.038 0.0994 -0.0377 0.0996 -0.0355 0.0986 -0.0347 0.0988 -0.0346 0.0988 -0.0349 0.0985 -0.0323 0.098 -0.0324 0.0988 -0.0316 0.0988 -0.0324 0.0977 -0.0309 0.098 -0.0284 0.098 -0.0293 0.0979 -0.0293 0.098 -0.0293 0.0979 -0.0262 0.0972 -0.0264 0.0971 -0.0268 0.098 -0.0264 0.0965 -0.0245 0.0963 -0.024 0.098 -0.0231 0.0963 -0.0239 0.0965 -0.0231 0.0971 -0.0208 0.0957 -0.0209 0.0972 -0.0208 0.0971 -0.0216 0.0957 -0.0194 0.0955 -0.0184 0.0965 -0.0185 0.0955 -0.0186 0.0957 -0.0177 0.0957 -0.0161 0.0955 -0.0155 0.0948 -0.0163 0.0966 -0.0152 0.0948 -0.0147 0.0955 -0.014 0.0957 -0.013 0.0941 -0.014 0.0948 -0.013 0.0957 -0.0116 0.0941 -0.0109 0.094 -0.0107 0.0957 -0.0107 0.094 -0.011 0.0941 -0.0084 0.094 -0.0085 0.0943 -0.0084 0.0949 -0.0085 0.094 -0.0078 0.0932 -0.0062 0.0941 -0.006 0.0942 -0.0062 0.0932 -0.0056 0.0935 -0.0059 0.094 -0.0031 0.0926 -0.004 0.0932 -0.003 0.0932 -0.0031 0.0935 -0.0031 0.0932 -0.0015 0.0934 -0.0016 0.0926 -0.0009 0.0924 -0.0014 0.074 -0.0008 0.0194 0 0.0918 0.0016 0.0924 0.0015 0.0926 0.0008 0.0926 0.0014 0.0918 0.0017 0.0926 0.0031 0.0917 0.0037 0.0933 0.0031 0.0917 0.0031 0.0918 0.0039 0.0918 0.0062 0.0909 0.0053 0.0918 0.0062 0.0918 0.0062 0.0918 0.0062 0.0909 0.0076 0.0912 0.0085 0.0909 0.0078 0.091 0.0077 0.0926 0.0084 0.0901 0.011 0.0903 0.0099 0.0918 0.0109 0.0901 0.0099 0.0904 0.0109 0.0909 0.013 0.0903 0.0124 0.0902 0.0132 0.0903 0.013 0.0901 0.0132 0.0904 0.0146 0.0909 0.0147 0.0895 0.0146 0.0893 0.0155 0.0904 0.0152 0.0895 0.0171 0.0893 0.017 0.0903 0.0177 0.0887 0.0169 0.0895 0.0177 0.0893 0.02 0.0895 0.0194 0.0887 0.0192 0.0903 0.0194 0.0887 0.02 0.0887 0.0217 0.0886 0.0222 0.0887 0.0217 0.0887 0.0216 0.0887 0.0231 0.0878 0.024 0.0887 0.0239 0.0887 0.0239 0.0881 0.0239 0.0878 0.0254 0.0887 0.0262 0.0879 0.0262 0.0878 0.0262 0.0881 0.0262 0.087 0.0286 0.0881 0.0277 0.0878 0.0295 0.0871 0.0276 0.0872 0.0293 0.087 0.0301 0.0873 0.0309 0.0872 0.0299 0.0879 0.0318 0.087 0.0307 0.0864 0.0332 0.0873 0.0332 0.0864 0.0332 0.0862 0.0324 0.0872 0.0347 0.0864 0.0354 0.0856 0.0347 0.0864 0.0355 0.0862 0.0354 0.0856 0.0372 0.0873 0.0377 0.0856 0.0371 0.0855 0.0378 0.0865 0.0385 0.0855 0.0392 0.0848 0.0402 0.0856 0.04 0.0856 0.0403 0.0849 0.0408 0.0856 0.0431 0.0848 0.0416 0.0856 0.0434 0.085 0.0422 0.0847 0.0442 0.0848 0.0445 0.085 0.0448 0.0839 0.0439z"/>
    <path id="_63140200" class="fil1" d="M76.3576 132.474c2.1818,-8.4243 -3.3144,-16.2883 -9.2664,-15.4491 0,0 0.6715,-4.0196 5.0821,-5.3537 4.4127,-1.3334 5.9058,1.3983 5.9058,1.3983 0,-0.0009 -2.5874,-3.7727 -1.4661,-7.7768 1.1213,-4.0039 4.8123,-5.7493 4.8123,-5.7493l-0.0425 -0.0245c0,0 3.6663,1.7992 4.7274,5.8185 1.0644,4.0227 -1.5747,7.7582 -1.5747,7.7582 0,0 1.5338,-2.7122 5.9227,-1.3149 4.3912,1.3966 5.0058,5.4254 5.0058,5.4254 -6.6084,-1.5232 -12.1285,6.7586 -9.4873,15.3135l-9.6191 -0.0456z"/>
   </g>
   <path id="_63140104" class="fil2" d="M52.5023 109.08c-4.734,2.3064 -10.1956,3.7626 -16.6289,3.7626 -5.0978,0 -9.1037,-1.5781 -11.4094,-4.6127 -1.2137,-1.6988 -1.8207,-4.3697 -1.9419,-6.0683 23.911,0.6067 38.5982,-4.8554 38.5982,-19.9068 0,-11.0456 -8.618,-17.8428 -20.6342,-17.8428 -21.4843,0 -34.5929,18.8142 -34.5929,36.8995 0,15.5362 8.7391,25.1456 25.6105,25.1456 6.676,0 15.2938,-1.2137 22.2125,-4.754l-1.2139 -12.6231zm-7.7679 -26.9465c0,5.5835 -6.7972,7.4041 -20.5136,7.2829 1.2139,-5.4622 5.9479,-12.2593 14.0802,-12.2593 4.0057,0 6.4334,2.0631 6.4334,4.9764z"/>
   <path id="_63140032" class="fil3" d="M227.854 65.2576l21.6056 59.3543 18.4489 0 22.0912 -59.3543 -19.4203 0 -7.6474 27.5526c-1.335,5.0984 -2.3055,9.5892 -3.2769,14.4446l-0.3638 0c-0.9714,-4.7341 -1.9428,-9.3462 -3.399,-14.4446l-8.0111 -27.5526 -20.0272 0zm-65.6434 17.7215c0,-8.8611 0.2425,-13.8376 0.485,-17.7215l-16.0215 0 -0.6067 7.1616 -0.2434 0c-3.0343,-4.9771 -8.1321,-8.4965 -16.2644,-8.4965 -14.6869,0 -26.9465,12.1374 -26.9465,31.3151 0,16.9935 10.4387,28.8884 25.1258,28.8884 6.7972,0 12.5019,-2.7914 16.0219,-7.6466l0.2426 0 0 3.7626c0,11.0658 -6.6753,15.6779 -15.4152,15.6779 -7.0397,0 -13.4724,-2.3058 -17.2352,-4.4911l-3.6413 14.0802c5.3401,2.9125 13.4724,4.4908 21.3622,4.4908 8.7393,0 17.6002,-1.6994 24.0332,-7.2828 6.7971,-5.9472 9.1035,-15.2933 9.1035,-26.7233l0 -33.0148zm-18.4498 15.172c0,1.5784 -0.1212,3.5203 -0.6067,4.9765 -1.2139,4.2483 -4.9765,7.4041 -9.8319,7.4041 -7.6465,0 -12.0162,-6.9184 -12.0162,-15.7787 0,-10.8031 5.3403,-16.8723 12.1374,-16.8723 5.0978,0 8.618,3.2778 9.953,8.1324 0.2432,1.0924 0.3644,2.3063 0.3644,3.3987l0 8.7393zm55.979 -34.7659c-19.1779,0 -31.8016,12.2587 -31.8016,31.5585 0,19.1778 13.3519,30.6072 30.709,30.6072 15.9008,0 31.316,-9.973 31.316,-31.6998 0,-17.964 -12.1381,-30.4659 -30.2234,-30.4659zm-0.6069 13.2301c8.3748,0 11.7736,8.9816 11.7736,17.7215 0,10.8024 -4.4908,17.964 -11.7736,17.964 -7.8898,0 -12.1381,-7.6472 -12.1381,-17.8428 0,-8.7392 3.399,-17.8427 12.1381,-17.8427z"/>
  </g>
 </g>
</svg>
