<?xml version="1.0" encoding="UTF-8" standalone="no"?>
<!-- Created with Inkscape (http://www.inkscape.org/) -->

<svg
   xmlns:dc="http://purl.org/dc/elements/1.1/"
   xmlns:cc="http://creativecommons.org/ns#"
   xmlns:rdf="http://www.w3.org/1999/02/22-rdf-syntax-ns#"
   xmlns:svg="http://www.w3.org/2000/svg"
   xmlns="http://www.w3.org/2000/svg"
   xmlns:xlink="http://www.w3.org/1999/xlink"
   version="1.1"
   width="892.91339"
   height="403.93701"
   id="svg13583"
   xml:space="preserve"><metadata
     id="metadata13589"><rdf:RDF><cc:Work
         rdf:about=""><dc:format>image/svg+xml</dc:format><dc:type
           rdf:resource="http://purl.org/dc/dcmitype/StillImage" /><dc:title></dc:title></cc:Work></rdf:RDF></metadata><defs
     id="defs13587"><linearGradient
       x1="0"
       y1="0"
       x2="1"
       y2="0"
       id="linearGradient13603"
       gradientUnits="userSpaceOnUse"
       gradientTransform="matrix(425.197,0,0,425.197,214.509,878.2399)"
       spreadMethod="pad"><stop
         id="stop13605"
         style="stop-color:#ffffff;stop-opacity:1"
         offset="0" /><stop
         id="stop13607"
         style="stop-color:#ddd0ad;stop-opacity:1"
         offset="1" /></linearGradient><clipPath
       id="clipPath13615"><path
         d="M 0,841.89 0,0 0,841.89 z"
         id="path13617" /></clipPath><linearGradient
       x1="0"
       y1="0"
       x2="1"
       y2="0"
       id="linearGradient14512"
       xlink:href="#linearGradient13603"
       gradientUnits="userSpaceOnUse"
       gradientTransform="matrix(425.197,0,0,425.197,214.509,878.2399)"
       spreadMethod="pad" /></defs><g
     transform="matrix(1.25,0,0,-1.25,65.157579,861.16904)"
     id="g13591"><g
       id="g13611"><g
         clip-path="url(#clipPath13615)"
         id="g13613"><g
           transform="translate(0,841.8902)"
           id="g13619"><path
             d="M 0,0 0,-841.89"
             id="path13621"
             style="fill:none;stroke:#231f20;stroke-width:0.25;stroke-linecap:butt;stroke-linejoin:miter;stroke-miterlimit:4;stroke-opacity:1;stroke-dasharray:none" /></g></g></g><g
       transform="translate(163.2756,479.0556)"
       id="g14117" /><g
       transform="matrix(8.1558831,0,0,8.1558831,-3193.4839,-3184.0541)"
       id="g14674"><g
         transform="translate(391.4962,453.5053)"
         id="g14197"><path
           d="m 0,0 -5.984,-0.113 0,0.722 5.985,-0.147 C -0.002,0.372 -0.002,0.283 -0.002,0.193 -0.002,0.128 -0.001,0.064 0,0 m 10.387,10.881 -0.146,5.775 0.731,0 -0.112,-5.775 c -0.084,0.002 -0.169,0.003 -0.253,0.003 -0.073,0 -0.147,-0.001 -0.22,-0.003 m 10.826,-10.419 5.985,0.147 0,-0.722 L 21.214,0 c 0.001,0.064 0.002,0.128 0.002,0.193 0,0.09 0,0.179 -0.003,0.269"
           id="path14199"
           style="fill:#846d41;fill-opacity:1;fill-rule:nonzero;stroke:none" /></g><g
         transform="translate(391.5701,452.4147)"
         id="g14201"><path
           d="m 0,0 -5.93,-0.727 -0.076,0.719 5.961,0.468 C -0.034,0.306 -0.018,0.153 0,0 M 9.196,11.891 8.445,17.62 9.171,17.696 9.667,11.94 C 9.509,11.926 9.352,11.911 9.196,11.891 M 21.057,2.642 26.996,3.403 27.072,2.685 21.105,2.182 c -0.013,0.154 -0.028,0.307 -0.048,0.46"
           id="path14203"
           style="fill:#846d41;fill-opacity:1;fill-rule:nonzero;stroke:none" /></g><g
         transform="translate(391.7538,451.3356)"
         id="g14205"><path
           d="m 0,0 -5.808,-1.33 -0.151,0.707 5.868,1.076 C -0.064,0.301 -0.033,0.15 0,0 M 7.912,12.77 6.56,18.397 7.275,18.546 8.374,12.868 C 8.219,12.839 8.064,12.806 7.912,12.77 m 12.77,-7.973 5.824,1.368 0.151,-0.707 -5.881,-1.114 c -0.028,0.152 -0.059,0.303 -0.094,0.453"
           id="path14207"
           style="fill:#846d41;fill-opacity:1;fill-rule:nonzero;stroke:none" /></g><g
         transform="translate(392.0478,450.2789)"
         id="g14209"><path
           d="m 0,0 -5.62,-1.915 -0.224,0.688 5.707,1.67 C -0.095,0.294 -0.049,0.146 0,0 m 6.545,13.511 -1.938,5.466 0.695,0.222 1.692,-5.541 C 6.843,13.612 6.693,13.563 6.545,13.511 M 20.088,6.905 25.73,8.863 25.955,8.175 20.228,6.464 c -0.044,0.148 -0.091,0.295 -0.14,0.441"
           id="path14211"
           style="fill:#846d41;fill-opacity:1;fill-rule:nonzero;stroke:none" /></g><g
         transform="translate(392.4504,449.2555)"
         id="g14213"><path
           d="m 0,0 -5.371,-2.473 -0.296,0.66 5.484,2.24 C -0.125,0.284 -0.064,0.141 0,0 m 5.112,14.108 -2.508,5.248 0.668,0.292 2.27,-5.346 C 5.397,14.24 5.254,14.175 5.112,14.108 m 14.166,-5.163 5.399,2.524 0.295,-0.661 -5.51,-2.287 c -0.058,0.142 -0.12,0.284 -0.184,0.424"
           id="path14215"
           style="fill:#846d41;fill-opacity:1;fill-rule:nonzero;stroke:none" /></g><g
         transform="translate(392.9572,448.2765)"
         id="g14217"><path
           d="m 0,0 -5.064,-3.002 -0.363,0.627 5.2,2.783 C -0.154,0.27 -0.078,0.135 0,0 M 3.627,14.555 0.573,19.53 1.207,19.889 4.033,14.792 C 3.896,14.715 3.761,14.636 3.627,14.555 m 14.634,-3.659 5.094,3.059 0.364,-0.627 -5.23,-2.837 c -0.074,0.137 -0.149,0.272 -0.228,0.405"
           id="path14219"
           style="fill:#846d41;fill-opacity:1;fill-rule:nonzero;stroke:none" /></g><g
         transform="translate(408.2608,444.9366)"
         id="g14221"><path
           d="M 0,0 -0.025,0.036 C 0.104,0.128 0.23,0.223 0.353,0.32 L 0.596,0 0,0 z M -14.696,2.416 -17.948,0 l -1.151,0 4.134,2.799 c 0.086,-0.13 0.176,-0.258 0.269,-0.383 m 2.106,14.847 -3.572,4.648 0.593,0.423 3.357,-4.792 c -0.128,-0.091 -0.254,-0.183 -0.378,-0.279 M 2.349,15.152 7.083,18.71 7.511,18.124 2.618,14.772 C 2.531,14.9 2.441,15.027 2.349,15.152"
           id="path14223"
           style="fill:#846d41;fill-opacity:1;fill-rule:nonzero;stroke:none" /></g><g
         transform="translate(409.7388,444.9366)"
         id="g14225"><path
           d="m 0,0 -0.629,0.734 c 0.117,0.103 0.233,0.211 0.345,0.32 L 0.705,0 0,0 z M -15.473,1.556 -17.167,0 l -0.886,0 2.272,1.91 c 0.1,-0.12 0.202,-0.239 0.308,-0.354 m 0.564,14.988 -4.053,4.268 0.545,0.481 3.854,-4.434 c -0.119,-0.103 -0.234,-0.207 -0.346,-0.315 M 0.17,16.002 4.494,20.018 4.98,19.479 0.477,15.651 c -0.1,0.119 -0.202,0.237 -0.307,0.351"
           id="path14227"
           style="fill:#846d41;fill-opacity:1;fill-rule:nonzero;stroke:none" /></g><g
         transform="translate(411.5073,444.9373)"
         id="g14229"><path
           d="m 0,0 -1.604,1.514 c 0.105,0.116 0.208,0.233 0.309,0.353 L 0.866,0 0,0 z M -16.452,0.77 -17.133,0 l -0.717,0 1.054,1.092 c 0.112,-0.11 0.227,-0.218 0.344,-0.322 m -0.987,14.973 -4.491,3.839 0.491,0.534 4.312,-4.026 c -0.107,-0.113 -0.211,-0.228 -0.312,-0.347 m 15.053,1.035 3.868,4.426 0.54,-0.486 -4.065,-4.259 c -0.112,0.109 -0.226,0.215 -0.343,0.319"
           id="path14231"
           style="fill:#846d41;fill-opacity:1;fill-rule:nonzero;stroke:none" /></g><g
         transform="translate(413.7097,444.9373)"
         id="g14233"><path
           d="m 0,0 -3.1,2.37 c 0.092,0.125 0.183,0.253 0.27,0.382 L 1.118,0 0,0 z M -17.785,0.068 -17.834,0 l -0.605,0 0.277,0.354 c 0.123,-0.098 0.249,-0.193 0.377,-0.286 m -2.529,14.802 -4.883,3.365 0.432,0.583 4.725,-3.571 c -0.094,-0.123 -0.185,-0.249 -0.274,-0.377 m 14.861,2.601 3.371,4.785 0.589,-0.427 -3.585,-4.64 c -0.123,0.097 -0.248,0.191 -0.375,0.282"
           id="path14235"
           style="fill:#846d41;fill-opacity:1;fill-rule:nonzero;stroke:none" /></g><g
         transform="translate(416.2409,445.1585)"
         id="g14237"><path
           d="m 0,0 -5.02,3.071 c 0.08,0.134 0.156,0.269 0.229,0.407 L 0.369,0.624 0,0 z m -23.423,13.715 -5.222,2.85 0.369,0.624 5.086,-3.072 c -0.081,-0.132 -0.159,-0.267 -0.233,-0.402 m 14.503,4.135 2.842,5.092 0.63,-0.365 -3.068,-4.969 c -0.133,0.083 -0.267,0.164 -0.404,0.242"
           id="path14239"
           style="fill:#846d41;fill-opacity:1;fill-rule:nonzero;stroke:none" /></g><g
         transform="translate(417.0678,446.659)"
         id="g14241"><path
           d="m 0,0 -5.334,2.548 c 0.064,0.14 0.126,0.283 0.184,0.426 L 0.302,0.658 0,0 z m -24.728,11.228 -5.503,2.301 0.301,0.659 5.391,-2.537 c -0.066,-0.139 -0.129,-0.28 -0.189,-0.423 m 13.986,5.622 2.284,5.343 0.666,-0.299 -2.522,-5.243 c -0.141,0.07 -0.284,0.136 -0.428,0.199"
           id="path14243"
           style="fill:#846d41;fill-opacity:1;fill-rule:nonzero;stroke:none" /></g><g
         transform="translate(417.7328,448.2364)"
         id="g14245"><path
           d="m 0,0 -5.592,1.992 c 0.05,0.146 0.096,0.294 0.139,0.442 L 0.23,0.686 0,0 z m -25.768,8.622 -5.722,1.726 0.231,0.685 5.636,-1.972 c -0.051,-0.145 -0.1,-0.292 -0.145,-0.439 m 13.316,7.043 1.707,5.537 0.693,-0.228 -1.953,-5.462 c -0.147,0.055 -0.296,0.106 -0.447,0.153"
           id="path14247"
           style="fill:#846d41;fill-opacity:1;fill-rule:nonzero;stroke:none" /></g><g
         transform="translate(418.2281,449.8733)"
         id="g14249"><path
           d="m 0,0 -5.787,1.41 c 0.034,0.15 0.065,0.301 0.093,0.454 L 0.157,0.706 0,0 z m -26.53,5.925 -5.877,1.128 0.157,0.706 5.82,-1.382 c -0.036,-0.15 -0.069,-0.301 -0.1,-0.452 m 12.5,8.382 1.114,5.676 0.713,-0.156 -1.365,-5.623 c -0.153,0.037 -0.307,0.072 -0.462,0.103"
           id="path14251"
           style="fill:#846d41;fill-opacity:1;fill-rule:nonzero;stroke:none" /></g><g
         transform="translate(418.5488,451.5526)"
         id="g14253"><path
           d="m 0,0 -5.919,0.809 c 0.02,0.153 0.035,0.305 0.047,0.46 L 0.082,0.718 0,0 z m -27.007,3.164 -5.966,0.518 0.082,0.718 5.937,-0.776 c -0.02,-0.153 -0.039,-0.306 -0.053,-0.46 m 11.549,9.626 0.51,5.756 0.727,-0.081 -0.767,-5.729 c -0.155,0.022 -0.313,0.04 -0.47,0.054"
           id="path14255"
           style="fill:#846d41;fill-opacity:1;fill-rule:nonzero;stroke:none" /></g><g
         transform="translate(409.6309,461.3293)"
         id="g14257"><path
           d="M 0,0 C 0.826,-0.13 1.531,-0.548 2.161,-1.111 L 2.838,-1.715 2.161,-2.319 C 1.531,-2.882 0.826,-3.301 0,-3.43 L 0,-4.783 C 0,-5.271 0.33,-6.049 0.493,-6.521 0.848,-7.549 1.157,-8.779 0.102,-9.525 l -10.018,-7.096 -0.04,0.575 c -0.142,2.025 0.392,2.557 0.924,4.348 0.081,0.27 -0.141,0.846 -0.234,1.106 -0.26,0.72 -0.51,1.402 -0.51,2.18 l 0,2.249 -4.446,-3.153 -0.451,0.748 c -2.458,4.073 -2.458,9.633 0,13.707 l 0.451,0.746 4.446,-3.152 0,2.249 c 0,0.777 0.25,1.459 0.51,2.18 0.093,0.259 0.315,0.836 0.234,1.106 -0.532,1.792 -1.066,2.323 -0.924,4.348 l 0.04,0.575 L 0.102,6.095 C 0.393,5.889 0.609,5.621 0.727,5.283 0.971,4.584 0.724,3.762 0.493,3.091 0.33,2.619 0,1.841 0,1.353 L 0,0 z"
           id="path14259"
           style="fill:#846d41;fill-opacity:1;fill-rule:nonzero;stroke:none" /></g><g
         transform="translate(409.3071,461.0401)"
         id="g14261"><path
           d="M 0,0 C 0.866,-0.059 1.598,-0.464 2.269,-1.063 L 2.675,-1.426 2.269,-1.788 C 1.598,-2.388 0.866,-2.793 0,-2.851 L 0,-4.494 C 0,-5.743 1.702,-7.96 0.239,-8.972 l -9.549,-6.762 c -0.143,2.048 0.364,2.383 0.913,4.233 0.111,0.373 -0.114,0.957 -0.241,1.308 -0.245,0.679 -0.49,1.336 -0.49,2.07 l 0,2.876 -4.673,-3.313 -0.271,0.448 c -2.396,3.97 -2.396,9.402 0,13.372 l 0.271,0.449 4.673,-3.314 0,2.876 c 0,0.735 0.245,1.391 0.49,2.07 0.127,0.351 0.352,0.936 0.241,1.309 -0.549,1.849 -1.056,2.184 -0.913,4.232 L 0.239,6.12 C 1.702,5.108 0,2.891 0,1.642 L 0,0 z"
           id="path14263"
           style="fill:#ffffff;fill-opacity:1;fill-rule:nonzero;stroke:none" /></g><g
         transform="translate(400.6644,466.3109)"
         id="g14265"><path
           d="M 0,0 C 0,1.348 0.995,2.561 0.711,3.517 0.38,4.633 -0.099,5.388 -0.261,6.584 L 8.605,0.449 C 9.672,-0.289 8.156,-2.347 8.156,-3.628 l 0,-2.133 c 0.983,0.088 1.75,-0.326 2.432,-0.936 C 9.906,-7.306 9.139,-7.72 8.156,-7.632 l 0,-2.133 c 0,-1.281 1.516,-3.339 0.449,-4.078 l -8.866,-6.135 c 0.162,1.197 0.641,1.951 0.972,3.068 C 0.995,-15.954 0,-14.741 0,-13.394 l 0,3.817 -5.013,-3.555 c -2.303,3.816 -2.303,9.054 0,12.871 L 0,-3.816 0,0 z"
           id="path14267"
           style="fill:#123258;fill-opacity:1;fill-rule:nonzero;stroke:none" /></g><g
         transform="translate(407.281,467.2579)"
         id="g14269"><path
           d="m 0,0 c -1.909,1.042 -3.727,2.15 -5.278,3.617 0.356,-1.667 1.19,-2.971 2.547,-4.06 0.271,-0.217 0.151,-0.631 -0.369,-0.554 -1.087,0.163 -1.23,1.083 -2.399,1.292 l 0,-4.872 c 1.169,0.21 1.312,1.129 2.399,1.292 0.52,0.078 0.64,-0.336 0.369,-0.553 -1.322,-1.061 -2.148,-2.326 -2.518,-3.932 l -0.029,0.027 0.018,-0.077 -0.018,-0.077 0.029,0.026 c 0.37,-1.606 1.196,-2.871 2.518,-3.932 0.271,-0.217 0.151,-0.632 -0.369,-0.553 -1.087,0.162 -1.23,1.082 -2.399,1.291 l 0,-4.872 c 1.169,0.209 1.312,1.13 2.399,1.293 0.52,0.077 0.64,-0.337 0.369,-0.554 -1.357,-1.089 -2.191,-2.393 -2.547,-4.06 1.551,1.466 3.369,2.575 5.278,3.616 0.456,0.25 0.464,0.65 -0.064,1.069 -0.138,0.109 -0.178,0.32 0.037,0.369 0.62,0.143 0.925,0.379 1.171,0.703 -0.246,0.324 -0.551,0.56 -1.171,0.703 -0.215,0.049 -0.175,0.26 -0.037,0.37 0.528,0.418 0.52,0.819 0.064,1.068 -1.876,1.023 -3.662,2.111 -5.196,3.54 1.533,1.427 3.32,2.516 5.196,3.539 0.456,0.249 0.464,0.65 -0.064,1.068 -0.138,0.11 -0.178,0.321 0.037,0.37 0.62,0.142 0.925,0.379 1.171,0.702 -0.246,0.324 -0.551,0.56 -1.171,0.703 -0.215,0.05 -0.175,0.26 -0.037,0.37 C 0.464,-0.649 0.456,-0.249 0,0 m 0.053,-7.077 c 0.32,0.392 0.564,0.88 0.558,1.424 L -3.141,-7.796 0.611,-9.94 c 0.006,0.545 -0.238,1.032 -0.558,1.425 0.434,0.187 0.832,0.432 1.201,0.719 -0.369,0.288 -0.767,0.532 -1.201,0.719 m -6.697,1.397 c -1.91,1.042 -3.728,2.15 -5.278,3.616 0.355,-1.666 1.19,-2.97 2.546,-4.059 0.271,-0.218 0.148,-0.654 -0.369,-0.554 -1.087,0.21 -1.712,1.181 -2.881,1.292 l 0,-4.871 c 1.169,0.099 1.794,1.089 2.881,1.291 0.517,0.096 0.64,-0.336 0.369,-0.553 -1.356,-1.089 -2.191,-2.393 -2.546,-4.06 1.55,1.466 3.368,2.575 5.278,3.617 0.455,0.249 0.463,0.649 -0.065,1.068 -0.138,0.109 -0.178,0.32 0.037,0.369 0.62,0.144 0.926,0.38 1.172,0.704 -0.246,0.323 -0.552,0.559 -1.172,0.702 -0.215,0.049 -0.175,0.26 -0.037,0.369 0.528,0.42 0.52,0.82 0.065,1.069"
           id="path14271"
           style="fill:#ffffff;fill-opacity:1;fill-rule:nonzero;stroke:none" /></g><g
         transform="translate(408.5693,438.6523)"
         id="g14273"><path
           d="m 0,0 c 3.283,0.997 5.527,3.033 7.193,5.563 l -4.014,0 C 2.678,4.326 1.63,3.941 0.126,4.266 0.53,3.191 0.46,1.35 -1.129,0.92 -3.269,0.342 -4.416,2.232 -3.43,3.22 -2.774,1.958 -1.646,2.632 -1.526,3.47 -1.379,4.491 -3.422,5.126 -4.34,4.055 -5.254,2.99 -5.49,0.804 -2.928,-0.372 -1.349,-1.097 -0.241,-1.613 0.377,-3.053 0.669,-2.355 0.76,-0.949 0,0 m -8.404,-1.505 3.847,0 c -0.991,0.562 -1.399,1.124 -1.924,2.049 -0.524,-0.925 -0.932,-1.487 -1.923,-2.049 m 0.543,7.068 2.761,0 C -5.812,5.172 -6.104,4.781 -6.481,4.141 -6.857,4.781 -7.15,5.172 -7.861,5.563 M -12.837,0 c -3.284,0.997 -5.528,3.033 -7.194,5.563 l 4.015,0 c 0.5,-1.237 1.548,-1.622 3.053,-1.297 -0.404,-1.075 -0.335,-2.916 1.255,-3.346 2.14,-0.578 3.287,1.312 2.3,2.3 -0.655,-1.262 -1.784,-0.588 -1.904,0.25 -0.147,1.021 1.896,1.656 2.814,0.585 0.914,-1.065 1.15,-3.251 -1.411,-4.427 -1.579,-0.725 -2.688,-1.241 -3.305,-2.681 -0.293,0.698 -0.384,2.104 0.377,3.053"
           id="path14275"
           style="fill:#123258;fill-opacity:1;fill-rule:nonzero;stroke:none" /></g><path
         d="m 422.259,462.002 49.957,0 0,-0.466 -49.957,0 0,0.466 z"
         id="path14277"
         style="fill:#846d41;fill-opacity:1;fill-rule:nonzero;stroke:none" /><path
         d="m 422.259,450.814 49.957,0 0,-0.466 -49.957,0 0,0.466 z"
         id="path14279"
         style="fill:#846d41;fill-opacity:1;fill-rule:nonzero;stroke:none" /><g
         transform="translate(422.4798,453.6224)"
         id="g14289"><path
           d="M 0,0 C -0.019,-0.18 -0.037,-0.335 -0.058,-0.47 -0.076,-0.602 -0.099,-0.714 -0.124,-0.807 -0.142,-0.9 -0.174,-1.012 -0.215,-1.146 -0.258,-1.279 -0.31,-1.434 -0.372,-1.614 l 0.484,-0.224 c 0.124,-0.06 0.257,-0.109 0.397,-0.146 0.141,-0.038 0.286,-0.073 0.435,-0.102 0.161,-0.031 0.322,-0.053 0.48,-0.066 0.159,-0.014 0.314,-0.021 0.463,-0.021 0.472,0 0.894,0.064 1.271,0.193 0.376,0.128 0.709,0.316 1.002,0.564 0.322,0.293 0.566,0.619 0.732,0.979 C 5.057,-0.075 5.14,0.323 5.14,0.757 5.14,0.9 5.13,1.037 5.111,1.171 5.091,1.306 5.059,1.44 5.016,1.577 4.972,1.719 4.921,1.852 4.858,1.976 4.798,2.098 4.731,2.21 4.656,2.309 4.513,2.489 4.302,2.674 4.021,2.866 3.737,3.056 3.384,3.261 2.955,3.476 2.763,3.576 2.58,3.673 2.409,3.766 2.237,3.861 2.08,3.955 1.937,4.047 1.713,4.19 1.546,4.352 1.434,4.536 1.322,4.718 1.266,4.923 1.266,5.152 1.26,5.333 1.293,5.494 1.364,5.639 1.434,5.784 1.54,5.91 1.676,6.021 1.801,6.127 1.937,6.203 2.09,6.249 2.243,6.296 2.415,6.321 2.608,6.319 2.775,6.319 2.939,6.299 3.096,6.253 3.253,6.207 3.402,6.139 3.539,6.046 3.638,5.99 3.735,5.893 3.828,5.757 3.921,5.62 4.01,5.453 4.097,5.252 l 0.236,0 C 4.377,5.407 4.412,5.544 4.438,5.659 4.466,5.778 4.489,5.873 4.507,5.947 L 4.743,6.555 4.42,6.754 C 4.153,6.89 3.876,6.99 3.588,7.056 3.3,7.12 2.998,7.151 2.682,7.151 2.272,7.145 1.898,7.087 1.556,6.975 1.217,6.864 0.913,6.698 0.646,6.481 0.478,6.346 0.335,6.201 0.215,6.046 0.098,5.893 0,5.724 -0.075,5.537 -0.142,5.376 -0.194,5.2 -0.232,5.008 -0.267,4.815 -0.286,4.606 -0.286,4.383 -0.286,4.209 -0.273,4.041 -0.25,3.882 -0.226,3.721 -0.192,3.57 -0.149,3.427 0.05,2.868 0.472,2.409 1.117,2.048 L 1.937,1.602 C 2.092,1.521 2.243,1.44 2.392,1.357 2.539,1.277 2.682,1.192 2.818,1.105 3.073,0.943 3.265,0.77 3.394,0.581 3.524,0.395 3.588,0.193 3.588,-0.025 3.588,-0.224 3.547,-0.41 3.462,-0.581 3.379,-0.751 3.259,-0.906 3.104,-1.043 2.98,-1.142 2.825,-1.217 2.643,-1.266 2.458,-1.316 2.247,-1.341 2.012,-1.341 1.596,-1.347 1.246,-1.239 0.96,-1.016 0.677,-0.792 0.46,-0.453 0.31,0 L 0,0 z m 5.674,-1.068 -0.472,-0.943 0.708,0.024 0.67,-0.024 0.261,0.906 c 0.062,0.193 0.124,0.385 0.186,0.573 0.062,0.188 0.124,0.371 0.187,0.545 l 0.211,0.558 0.67,0.075 C 8.201,0.658 8.324,0.664 8.467,0.668 8.61,0.671 8.772,0.671 8.952,0.671 9.134,0.671 9.299,0.668 9.448,0.662 9.599,0.658 9.728,0.652 9.833,0.646 L 10.528,0.571 10.714,0 l 0.411,-1.13 0.26,-0.881 1.093,0.024 1.254,-0.024 -0.472,0.968 C 12.503,0.571 11.733,2.409 10.951,4.47 L 10.342,6.12 10.019,7.002 9.448,6.965 8.989,7.002 8.678,6.12 8.033,4.445 C 7.617,3.408 7.214,2.433 6.82,1.517 6.429,0.6 6.047,-0.261 5.674,-1.068 M 7.822,1.602 8.033,2.11 8.666,3.712 8.977,4.457 9.274,3.712 9.92,2.11 10.131,1.602 9.709,1.54 C 9.61,1.527 9.506,1.521 9.399,1.519 9.291,1.515 9.175,1.515 9.051,1.515 8.765,1.515 8.504,1.527 8.269,1.552 l -0.447,0.05 z m 7.101,-3.589 0.633,-0.024 0.025,0.794 c 0.013,0.299 0.034,0.633 0.064,1.006 0.03,0.372 0.067,0.782 0.11,1.229 l 0.199,1.813 0.124,1.055 0.522,-1.018 0.67,-1.391 0.819,-1.701 c 0.119,-0.248 0.224,-0.469 0.317,-0.664 0.093,-0.194 0.174,-0.366 0.242,-0.515 l 0.248,-0.608 0.261,0.024 0.273,-0.024 0.41,0.98 c 0.118,0.274 0.265,0.602 0.443,0.984 0.178,0.382 0.389,0.817 0.637,1.301 l 0.807,1.564 0.534,1.106 0.099,-1.069 0.211,-1.8 c 0.013,-0.137 0.035,-0.391 0.065,-0.765 0.029,-0.377 0.066,-0.874 0.109,-1.494 l 0.05,-0.807 1.154,0.024 1.044,-0.024 -0.212,1.154 C 24.688,-0.347 24.595,0.209 24.504,0.811 24.411,1.416 24.322,2.067 24.235,2.769 24.148,3.408 24.074,4.002 24.009,4.554 23.948,5.105 23.893,5.62 23.85,6.096 L 23.751,7.002 23.242,6.965 22.72,7.002 22.335,6.071 C 22.207,5.785 22.05,5.448 21.866,5.057 21.682,4.666 21.467,4.221 21.218,3.725 L 20.151,1.651 19.678,0.782 19.207,1.688 c -0.162,0.305 -0.329,0.627 -0.499,0.969 -0.171,0.342 -0.345,0.702 -0.519,1.08 L 17.282,5.661 16.686,7.002 16.19,6.965 15.644,7.002 15.507,5.81 15.122,2.806 14.899,1.217 C 14.845,0.894 14.785,0.532 14.723,0.13 14.661,-0.271 14.586,-0.707 14.501,-1.179 l -0.161,-0.832 0.583,0.024 z m 11.646,8.952 -1.005,0.037 0.062,-0.546 c 0.012,-0.168 0.022,-0.368 0.029,-0.602 0.006,-0.232 0.008,-0.495 0.008,-0.786 l 0,-4.859 C 25.656,-0.145 25.652,-0.447 25.65,-0.693 25.648,-0.942 25.644,-1.138 25.638,-1.279 l -0.074,-0.732 1.03,0.024 1.067,-0.024 -0.049,0.72 c -0.025,0.408 -0.037,0.904 -0.037,1.487 l -0.012,1.499 0,0.521 0.335,-0.521 C 28.09,1.399 28.26,1.128 28.406,0.881 28.556,0.633 28.688,0.406 28.804,0.196 l 0.832,-1.487 0.397,-0.72 1.13,0.024 1.279,-0.024 -0.522,0.695 c -0.292,0.42 -0.598,0.886 -0.921,1.395 -0.32,0.507 -0.656,1.059 -1.003,1.653 L 29.598,2.44 c 0.274,0.068 0.51,0.138 0.704,0.213 0.194,0.075 0.346,0.153 0.451,0.234 0.18,0.116 0.333,0.256 0.459,0.42 0.127,0.161 0.23,0.347 0.311,0.558 0.055,0.141 0.093,0.286 0.115,0.433 0.023,0.147 0.034,0.3 0.034,0.459 -0.006,0.36 -0.075,0.681 -0.207,0.962 -0.13,0.284 -0.327,0.534 -0.588,0.749 -0.217,0.174 -0.478,0.307 -0.784,0.397 -0.309,0.091 -0.662,0.137 -1.066,0.137 L 27.86,6.977 26.569,6.965 z m 0.994,-4.215 0,3.408 0.471,0.037 c 0.503,0 0.882,-0.126 1.134,-0.38 C 29.423,5.56 29.549,5.179 29.549,4.671 29.544,4.416 29.512,4.182 29.45,3.967 29.39,3.75 29.295,3.555 29.164,3.381 29.008,3.172 28.835,3.013 28.642,2.905 28.45,2.8 28.239,2.744 28.009,2.738 L 27.563,2.75 z m 7.573,3.694 0.037,0.558 -1.068,-0.037 -1.043,0.037 0.05,-0.521 0.037,-0.931 0.012,-1.614 0,-2.136 c 0,-0.329 0.011,-0.627 0.032,-0.892 0.02,-0.267 0.056,-0.498 0.105,-0.697 0.056,-0.267 0.149,-0.513 0.283,-0.737 0.133,-0.225 0.307,-0.43 0.524,-0.616 0.372,-0.341 0.807,-0.596 1.302,-0.766 0.496,-0.167 1.051,-0.252 1.665,-0.252 0.268,0 0.526,0.016 0.776,0.05 0.251,0.032 0.497,0.086 0.739,0.161 0.261,0.081 0.501,0.18 0.72,0.3 0.219,0.122 0.422,0.265 0.608,0.432 0.292,0.249 0.526,0.576 0.7,0.984 0.174,0.407 0.287,0.897 0.343,1.475 0.025,0.161 0.044,0.471 0.058,0.928 0.013,0.46 0.023,1.064 0.03,1.815 l 0.024,1.577 0.025,0.882 0.049,0.558 -0.62,-0.037 -0.683,0.037 0.05,-0.571 0.024,-0.869 0.025,-1.564 0,-1.676 c -0.012,-0.54 -0.055,-1.01 -0.132,-1.407 -0.074,-0.4 -0.184,-0.729 -0.327,-0.99 -0.203,-0.378 -0.472,-0.657 -0.805,-0.842 -0.333,-0.184 -0.734,-0.275 -1.206,-0.275 -0.445,0.006 -0.826,0.081 -1.142,0.228 -0.315,0.147 -0.571,0.368 -0.77,0.666 -0.087,0.137 -0.164,0.286 -0.228,0.449 -0.062,0.165 -0.107,0.345 -0.132,0.544 -0.044,0.248 -0.077,0.507 -0.102,0.776 -0.023,0.269 -0.035,0.553 -0.035,0.851 l 0.012,1.602 0.038,1.626 0.025,0.894 z m 8.727,0.521 -1.042,0.037 0.037,-0.708 0.025,-1.005 0.025,-1.539 -0.013,-2.57 -0.012,-1.279 -0.025,-1.13 -0.037,-0.782 1.093,0.024 1.005,-0.024 -0.062,0.794 c -0.019,0.168 -0.031,0.348 -0.039,0.54 -0.006,0.193 -0.011,0.397 -0.011,0.615 l 0,1.242 0.012,0.868 0.572,-0.868 0.794,-1.242 c 0.186,-0.279 0.346,-0.524 0.476,-0.735 0.133,-0.209 0.238,-0.382 0.319,-0.519 l 0.397,-0.695 1.291,0.024 1.254,-0.024 -0.533,0.708 -0.919,1.341 -1.391,2.023 -0.757,1.179 0.472,0.559 1.241,1.378 0.981,1.055 0.757,0.77 L 48.892,6.965 48.06,7.002 47.563,6.27 C 47.433,6.077 47.272,5.86 47.081,5.616 46.889,5.374 46.67,5.103 46.421,4.805 l -0.832,-1.03 -0.782,-0.87 0,0.894 0.05,1.478 0.012,1.005 0.05,0.72 -1.056,-0.037 z"
           id="path14291"
           style="fill:#846d41;fill-opacity:1;fill-rule:nonzero;stroke:none" /></g><g
         transform="translate(422.8374,449.709)"
         id="g14293"><path
           d="m 0,0 -0.507,0.018 0.018,-0.344 0.012,-0.489 0.013,-0.749 -0.007,-1.249 -0.006,-0.622 -0.012,-0.549 -0.018,-0.38 0.531,0.012 0.49,-0.012 -0.031,0.386 c -0.009,0.082 -0.015,0.169 -0.019,0.262 -0.003,0.094 -0.005,0.194 -0.005,0.299 l 0,0.604 0.006,0.423 0.278,-0.423 0.386,-0.604 C 1.22,-3.553 1.297,-3.671 1.36,-3.774 1.425,-3.876 1.476,-3.96 1.515,-4.027 l 0.193,-0.337 0.628,0.012 0.61,-0.012 -0.26,0.344 -0.447,0.652 -0.675,0.984 -0.368,0.573 0.229,0.272 0.604,0.67 0.477,0.513 L 2.874,0.018 2.445,0 2.041,0.018 1.799,-0.338 C 1.736,-0.432 1.657,-0.537 1.565,-0.656 1.471,-0.774 1.365,-0.905 1.244,-1.051 l -0.405,-0.5 -0.38,-0.423 0,0.435 0.024,0.718 0.006,0.489 0.025,0.35 L 0,0 z m 8.321,-3.905 -0.229,-0.459 0.344,0.012 0.326,-0.012 0.127,0.44 c 0.03,0.094 0.06,0.187 0.091,0.279 0.029,0.092 0.06,0.18 0.09,0.265 l 0.103,0.271 0.326,0.037 c 0.051,0.006 0.111,0.009 0.181,0.01 0.069,0.002 0.148,0.002 0.235,0.002 0.089,0 0.169,-0.002 0.242,-0.005 0.073,-10e-4 0.135,-0.004 0.187,-0.007 l 0.338,-0.037 0.09,-0.278 0.2,-0.549 0.127,-0.428 0.531,0.012 0.61,-0.012 -0.23,0.471 c -0.368,0.784 -0.742,1.678 -1.123,2.68 L 10.591,-0.41 10.434,0.018 10.157,0 9.933,0.018 9.782,-0.41 9.468,-1.225 C 9.267,-1.73 9.07,-2.203 8.879,-2.649 8.689,-3.095 8.503,-3.513 8.321,-3.905 m 1.045,1.298 0.102,0.247 0.308,0.778 0.151,0.363 0.145,-0.363 0.314,-0.778 0.103,-0.247 -0.206,-0.031 C 10.235,-2.644 10.185,-2.647 10.133,-2.648 10.08,-2.65 10.024,-2.65 9.964,-2.65 c -0.139,0 -0.266,0.006 -0.381,0.018 l -0.217,0.025 z m 10.126,2.209 0.302,0 -0.278,-0.507 -0.531,-0.936 -0.67,-1.141 c -0.124,-0.211 -0.237,-0.4 -0.339,-0.566 -0.103,-0.165 -0.195,-0.307 -0.277,-0.424 l -0.199,-0.29 0.067,-0.139 0.615,0.043 c 0.076,0.003 0.175,0.005 0.299,0.005 0.124,10e-4 0.272,10e-4 0.444,10e-4 0.404,-0.003 0.749,-0.006 1.036,-0.011 0.286,-0.003 0.512,-0.007 0.678,-0.013 l 0.423,-0.025 -0.018,0.29 0.018,0.32 c -0.097,-0.021 -0.182,-0.04 -0.253,-0.056 -0.072,-0.017 -0.13,-0.029 -0.176,-0.034 -0.078,-0.015 -0.176,-0.027 -0.294,-0.034 -0.116,-0.007 -0.252,-0.012 -0.406,-0.015 -0.151,-0.006 -0.29,-0.011 -0.418,-0.014 -0.13,-0.003 -0.249,-0.004 -0.361,-0.004 l -0.308,0.006 0.266,0.495 0.531,0.93 0.604,1.038 0.609,0.996 0.242,0.393 -0.054,0.138 -0.676,-0.024 C 19.945,0.012 19.516,0.006 19.082,0.006 18.689,0 18.375,0.006 18.14,0.024 l -0.374,0.024 0.012,-0.229 -0.012,-0.272 0.362,0.018 0.718,0.025 0.646,0.012 z M 27.089,0 26.437,0.018 26.642,-0.314 c 0.07,-0.112 0.133,-0.217 0.192,-0.316 0.057,-0.098 0.11,-0.191 0.159,-0.275 l 0.585,-1.129 0.278,-0.513 0,-0.9 -0.018,-0.531 -0.024,-0.386 0.518,0.012 0.502,-0.012 -0.037,0.368 c -0.012,0.151 -0.018,0.368 -0.018,0.652 0,0.105 0.002,0.196 0.005,0.273 0.001,0.077 0.004,0.14 0.007,0.191 l 0.043,0.333 0.253,0.555 0.574,1.123 c 0.075,0.151 0.137,0.274 0.187,0.37 0.049,0.095 0.087,0.161 0.115,0.197 L 30.162,0.018 29.818,0 29.48,0.018 29.365,-0.29 C 29.326,-0.398 29.287,-0.5 29.251,-0.595 29.214,-0.69 29.178,-0.775 29.142,-0.851 29.099,-0.951 29.053,-1.056 29.002,-1.169 28.95,-1.281 28.894,-1.4 28.834,-1.527 l -0.248,-0.495 -0.247,0.483 c -0.063,0.12 -0.122,0.236 -0.175,0.347 -0.053,0.11 -0.1,0.214 -0.139,0.311 -0.051,0.108 -0.098,0.213 -0.14,0.312 -0.042,0.098 -0.081,0.192 -0.114,0.279 L 27.656,0.018 27.089,0 z m 8.805,-4.111 -0.012,-0.253 0.283,0.012 0.26,-0.012 -0.018,0.259 c -0.013,0.212 -0.019,0.52 -0.019,0.924 l -0.012,0.942 0.006,0.663 0.012,0.254 0.327,-0.356 0.742,-0.803 c 0.332,-0.35 0.603,-0.646 0.815,-0.887 0.109,-0.124 0.211,-0.242 0.307,-0.354 0.094,-0.111 0.182,-0.217 0.26,-0.316 l 0.254,-0.326 0.308,0.012 0.278,-0.012 -0.013,0.332 0,0.652 0.006,1.194 0.019,1.263 0.024,0.67 0,0.271 L 39.449,0 l -0.266,0.018 0.012,-0.326 0.018,-0.7 0.025,-0.785 0.012,-0.7 0.012,-0.555 -0.32,0.325 c -0.109,0.112 -0.223,0.233 -0.343,0.362 -0.12,0.129 -0.246,0.266 -0.376,0.411 l -0.73,0.797 c -0.163,0.181 -0.301,0.337 -0.417,0.467 -0.114,0.131 -0.204,0.236 -0.271,0.318 L 36.509,0.018 36.195,0 35.882,0.018 35.9,-0.386 l 0.029,-0.628 0.006,-1.02 -0.012,-1.153 C 35.914,-3.377 35.909,-3.55 35.905,-3.704 35.9,-3.858 35.897,-3.993 35.894,-4.111 m 9.745,0.206 -0.229,-0.459 0.344,0.012 0.326,-0.012 0.127,0.44 c 0.03,0.094 0.06,0.187 0.091,0.279 0.03,0.092 0.06,0.18 0.09,0.265 l 0.102,0.271 0.326,0.037 c 0.052,0.006 0.112,0.009 0.182,0.01 0.069,0.002 0.148,0.002 0.235,0.002 0.088,0 0.169,-0.002 0.242,-0.005 0.073,-10e-4 0.136,-0.004 0.187,-0.007 L 48,-3.109 l 0.09,-0.278 0.2,-0.549 0.126,-0.428 0.531,0.012 0.61,-0.012 -0.229,0.471 c -0.368,0.784 -0.743,1.678 -1.123,2.68 L 47.91,-0.41 47.752,0.018 47.475,0 47.251,0.018 47.1,-0.41 46.786,-1.225 C 46.584,-1.73 46.388,-2.203 46.197,-2.649 46.006,-3.095 45.82,-3.513 45.639,-3.905 m 1.045,1.298 0.102,0.247 0.308,0.778 0.151,0.363 0.145,-0.363 0.314,-0.778 0.102,-0.247 -0.204,-0.031 c -0.049,-0.006 -0.099,-0.009 -0.151,-0.01 -0.053,-0.002 -0.109,-0.002 -0.17,-0.002 -0.138,0 -0.265,0.006 -0.38,0.018 l -0.217,0.025 z"
           id="path14295"
           style="fill:#123258;fill-opacity:1;fill-rule:nonzero;stroke:none" /></g></g></g></svg>