<?xml version="1.0" encoding="UTF-8"?>
<!DOCTYPE svg PUBLIC "-//W3C//DTD SVG 1.1//EN" "http://www.w3.org/Graphics/SVG/1.1/DTD/svg11.dtd">
<!-- Creator: CorelDRAW -->
<svg xmlns="http://www.w3.org/2000/svg" xml:space="preserve" width="300px" height="276px" style="shape-rendering:geometricPrecision; text-rendering:geometricPrecision; image-rendering:optimizeQuality; fill-rule:evenodd; clip-rule:evenodd"
viewBox="0 0 300 275.51"
 xmlns:xlink="http://www.w3.org/1999/xlink"
 xmlns:dc="http://purl.org/dc/elements/1.1/"
 xmlns:cc="http://creativecommons.org/ns#"
 xmlns:rdf="http://www.w3.org/1999/02/22-rdf-syntax-ns#"
 xmlns:svg="http://www.w3.org/2000/svg"
 version="1.1">
 <defs>
  <style type="text/css">
   <![CDATA[
    .str4 {stroke:white;stroke-width:0.397959;stroke-linejoin:round}
    .str0 {stroke:#8C7557;stroke-width:0.612245}
    .str1 {stroke:white;stroke-width:0.918367;stroke-linejoin:round}
    .str3 {stroke:#004492;stroke-width:0.918367;stroke-linejoin:round}
    .str2 {stroke:white;stroke-width:1.07143;stroke-linejoin:round}
    .fil3 {fill:white}
    .fil1 {fill:white}
    .fil2 {fill:#004492;fill-rule:nonzero}
    .fil0 {fill:#8C7557;fill-rule:nonzero}
    .fil4 {fill:white;fill-rule:nonzero}
   ]]>
  </style>
 </defs>
 <g id="Слой_x0020_1">
  <metadata id="CorelCorpID_0Corel-Layer"/>
  <polygon class="fil0 str0" points="150.846,100.055 150.874,203.758 156.328,100.199 158.462,100.308 153.063,203.846 163.927,100.745 166.053,100.962 155.242,204.091 171.49,101.679 173.599,102.01 157.405,204.438 178.992,103.014 181.084,103.458 159.566,204.819 186.411,104.738 188.478,105.29 161.68,205.411 193.734,106.848 195.768,107.51 163.748,206.143 200.932,109.341 202.933,110.103 165.813,206.878 207.996,112.202 209.946,113.072 167.811,207.78 214.896,115.432 216.804,116.403 169.779,208.755 221.62,119.017 223.47,120.084 171.633,209.923 228.145,122.951 229.937,124.114 173.494,211.079 234.455,127.222 236.188,128.477 175.28,212.356 240.536,131.815 242.193,133.162 176.983,213.734 246.363,136.719 247.954,138.151 178.612,215.204 251.933,141.922 253.444,143.433 180.162,216.754 257.215,147.412 258.647,149.003 181.632,218.383 262.204,153.173 263.551,154.83 183.01,220.086 266.889,159.178 268.144,160.911 184.287,221.872 271.252,165.429 272.415,167.221 185.443,223.733 275.277,171.896 276.349,173.746 186.611,225.587 278.963,178.562 279.934,180.471 187.586,227.555 282.294,185.42 283.164,187.37 188.488,229.552 285.263,192.433 286.025,194.429 189.223,231.618 287.856,199.598 288.518,201.632 189.955,233.686 290.076,206.888 290.628,208.955 190.547,235.8 291.908,214.282 292.352,216.374 190.928,237.961 293.352,221.767 293.687,223.876 191.275,240.124 294.404,229.313 294.621,231.439 191.52,242.303 295.058,236.904 295.167,239.038 191.606,244.493 295.311,244.521 295.311,246.655 191.608,246.683 107.949,246.683 4.24592,246.655 4.24592,244.521 107.951,244.493 4.3901,239.038 4.49908,236.904 108.037,242.303 4.93561,231.439 5.15296,229.313 108.282,240.124 5.87051,223.876 6.20112,221.767 108.629,237.961 7.2052,216.374 7.64908,214.282 109.01,235.8 8.92867,208.955 9.48092,206.888 109.602,233.686 11.0394,201.632 11.7006,199.598 110.334,231.618 13.5321,194.434 14.2938,192.433 111.069,229.553 16.3926,187.37 17.2632,185.42 111.971,227.555 19.6231,180.471 20.5941,178.562 112.946,225.587 23.2084,173.746 24.2798,171.896 114.114,223.733 27.142,167.221 28.3053,165.429 115.27,221.872 31.4128,160.911 32.6685,159.178 116.547,220.086 36.0058,154.83 37.3534,153.173 117.925,218.383 40.9102,149.003 42.3416,147.412 119.395,216.754 46.1134,143.433 47.6244,141.922 120.945,215.204 51.6034,138.151 53.194,136.719 122.574,213.734 57.364,133.162 59.0213,131.815 124.277,212.356 63.3692,128.477 65.1018,127.222 126.063,211.079 69.6205,124.114 71.4119,122.951 127.924,209.923 76.087,120.089 77.9366,119.017 129.778,208.755 82.7532,116.403 84.6615,115.432 131.746,207.78 89.6106,113.072 91.5612,112.202 133.743,206.878 96.6239,110.103 98.621,109.343 135.809,206.143 103.789,107.51 105.823,106.848 137.877,205.411 111.079,105.29 113.146,104.738 139.991,204.819 118.473,103.458 120.565,103.014 142.152,204.438 125.958,102.014 128.067,101.679 144.315,204.091 133.504,100.962 135.63,100.745 146.494,203.846 141.095,100.308 143.229,100.199 148.684,203.76 148.712,100.055 "/>
  <path class="fil1" d="M71.284 124.785c-0.00214286,-18.3808 5.36663,-47.4949 19.4605,-62.5678l40.3622 28.1406c-0.783061,-16.8781 1.20276,-35.0893 6.26541,-51.7626 -3.42367,-6.30031 -7.9898,-14.0014 -8.68224,-19.9883 -0.799592,-6.91378 1.23735,-11.5935 3.39367,-16.1134 2.84663,3.99184 7.07173,9.26908 15.9021,15.6557 12.0539,8.71806 21.7953,14.2546 33.6517,21.3566 12.6992,7.60653 34.3766,21.4941 33.9478,31.9356 -0.503878,12.2718 -9.19163,18.1004 -9.09398,39.2516 8.67735,2.99694 17.4569,3.99643 21.5718,14.0917 -4.11061,10.0953 -12.8902,11.0948 -21.5676,14.0917 -0.0976531,21.1512 8.5901,26.9798 9.09398,39.2516 0.428878,10.4415 -21.2486,24.3291 -33.9478,31.9356 -11.8564,7.10204 -21.5979,12.6386 -33.6517,21.3566 -8.83041,6.38663 -13.0555,11.6639 -15.9021,15.6557 -2.15633,-4.5199 -4.19327,-9.19959 -3.39367,-16.1134 0.692449,-5.98684 5.25857,-13.688 8.68224,-19.9883 -5.06265,-16.6733 -7.04847,-34.8845 -6.26541,-51.7626l-40.3622 28.1406c-14.0939,-15.0729 -19.4627,-44.1869 -19.4648,-62.5678z"/>
  <path class="fil2" d="M69.7595 124.785c-0.000612245,-5.33878 0.441122,-11.546 1.40357,-18.0269 0.426429,-2.87173 0.953878,-5.79643 1.58724,-8.72112 0.630918,-2.91276 1.37602,-5.85459 2.24143,-8.77776 3.17694,-10.7274 7.94051,-20.9164 14.6406,-28.0821 0.524082,-0.56051 1.37327,-0.63551 1.98429,-0.208163l0.000918367 -0.00122449 37.8548 26.3923c-0.0364286,-1.38551 -0.0557143,-2.78694 -0.0554082,-4.2 0.000612245,-4.30071 0.171122,-8.61949 0.514898,-12.9104 0.850714,-10.6074 2.76092,-21.3107 5.79673,-31.481l-0.888673 -1.61541c-3.27735,-5.95806 -7.02,-12.7616 -7.66867,-18.3729 -0.423061,-3.66061 -0.0930612,-6.74143 0.630306,-9.51031 0.718163,-2.75082 1.79541,-5.11714 2.90082,-7.43388 0.363061,-0.762551 1.27622,-1.08673 2.03878,-0.723673 0.275204,0.13102 0.494082,0.334592 0.643469,0.575816 1.37878,1.9298 3.08969,4.16357 5.50622,6.67684 2.45541,2.55398 5.65224,5.40796 9.99184,8.54663 10.3004,7.4498 18.8605,12.5455 28.4884,18.2764 2.13092,1.26857 4.31143,2.56653 5.0498,3.00857 6.39245,3.82898 15.0499,9.24276 22.0821,15.0361 7.28357,6.00031 12.8443,12.4748 12.6067,18.2685 -0.221633,5.40153 -1.91173,9.52439 -3.79714,14.1248 -2.41867,5.90173 -5.17653,12.6318 -5.29316,23.9688 1.08184,0.357551 2.10276,0.671327 3.11357,0.982041 7.55755,2.32469 14.6235,4.49847 18.3471,13.6341 0.16102,0.397653 0.142959,0.823163 -0.0165306,1.18745 -3.72398,9.10163 -10.7795,11.273 -18.3269,13.5946 -1.04571,0.321735 -2.10122,0.646224 -3.11296,0.977755 0.11602,11.3394 2.87418,18.0707 5.29316,23.9731 1.88541,4.60041 3.57551,8.72327 3.79714,14.1248 0.237551,5.79367 -5.32316,12.2682 -12.6067,18.2685 -7.03224,5.79337 -15.6897,11.2071 -22.0821,15.0361 -0.738367,0.442041 -2.91888,1.74 -5.0498,3.00857 -9.62786,5.73092 -18.188,10.8266 -28.4884,18.2764 -4.33959,3.13867 -7.53643,5.99265 -9.99184,8.54663 -2.4499,2.54786 -4.1749,4.80888 -5.56347,6.75643 -0.488571,0.686633 -1.44214,0.847347 -2.12878,0.358776 -0.21949,-0.156122 -0.38449,-0.360918 -0.492245,-0.588061l-0.00397959 0.00183673c-1.10541,-2.31673 -2.18265,-4.68306 -2.90082,-7.43388 -0.723367,-2.76888 -1.05337,-5.84969 -0.630306,-9.51031l0.00183673 -0.0159184c0.654796,-5.60908 4.39316,-12.405 7.66684,-18.3569l0.888673 -1.61571c-0.65602,-2.19704 -1.2548,-4.39469 -1.7951,-6.58561 -0.596633,-2.42082 -1.13173,-4.85541 -1.605,-7.2952 -2.23561,-11.5209 -3.15765,-23.3694 -2.85673,-34.7097l-37.8542 26.3917c-0.647755,0.452449 -1.52418,0.331531 -2.02837,-0.255918 -4.13388,-4.4348 -7.52633,-10.0123 -10.26,-16.1522 -2.72418,-6.11908 -4.80245,-12.8066 -6.31408,-19.4777 -0.759184,-3.35143 -1.37388,-6.67622 -1.85357,-9.90459 -0.963061,-6.48092 -1.40571,-12.6879 -1.40633,-18.0269zm4.42867 -17.5843c-0.946224,6.37071 -1.38,12.4209 -1.37969,17.5843 0.000306122,5.16306 0.435612,11.2133 1.38245,17.5843 0.475102,3.19776 1.07449,6.44939 1.80582,9.67745 1.47031,6.48857 3.48643,12.9814 6.12306,18.904 2.41745,5.43061 5.35286,10.3745 8.85857,14.3838l39.2045 -27.3337c0.274592,-0.210612 0.621122,-0.329082 0.99398,-0.313163 0.841837,0.0361224 1.4948,0.748469 1.45867,1.59031 -0.557449,12.0202 0.304286,24.7292 2.69847,37.0681 0.466837,2.40582 0.99,4.78959 1.56949,7.14031 0.587755,2.38439 1.22633,4.71827 1.91541,6.99184 0.134082,0.390612 0.109898,0.834796 -0.103163,1.22602 -0.651122,1.19908 -0.910714,1.6699 -1.19296,2.18327 -3.13898,5.70673 -6.72337,12.2226 -7.30806,17.2329l-0.00183673 0.0159184c-0.375918,3.25286 -0.0878571,5.96969 0.546429,8.39847 0.415714,1.59214 0.993673,3.09337 1.63561,4.55541 1.16847,-1.52235 2.55857,-3.19071 4.2998,-5.00173 2.57602,-2.67918 5.90816,-5.65776 10.3984,-8.90541 10.3065,-7.45439 18.9765,-12.6153 28.7278,-18.4197 1.1599,-0.690306 2.33388,-1.38918 5.03755,-3.00857 6.30643,-3.77724 14.8381,-9.11082 21.7117,-14.7735 6.62204,-5.4551 11.6856,-11.1456 11.4949,-15.7932 -0.199286,-4.86031 -1.79265,-8.74714 -3.57,-13.084 -2.60296,-6.35051 -5.58214,-13.62 -5.52398,-26.2335l0.00122449 0c0.00214286,-0.630306 0.397653,-1.21806 1.02704,-1.4348 1.49143,-0.514898 2.8748,-0.940714 4.24041,-1.36071 6.66796,-2.05102 12.9122,-3.97378 16.1614,-11.2901 -3.25224,-7.31694 -9.49745,-9.23908 -16.1651,-11.2901 -1.44184,-0.443265 -2.90173,-0.892653 -4.2251,-1.34908l0.00153061 -0.00428571c-0.604592,-0.20051 -1.04296,-0.770204 -1.04571,-1.44214 -0.0581633,-12.6135 2.92102,-19.883 5.52398,-26.2335 1.77735,-4.33684 3.37071,-8.22367 3.57,-13.084 0.190714,-4.64755 -4.87286,-10.3381 -11.4949,-15.7932 -6.87367,-5.66265 -15.4053,-10.9962 -21.7117,-14.7735 -2.70367,-1.61939 -3.87765,-2.31827 -5.03755,-3.00857 -9.75122,-5.80439 -18.4212,-10.9653 -28.7278,-18.4197 -4.4902,-3.24765 -7.82235,-6.22622 -10.3984,-8.90541 -1.74122,-1.81102 -3.13133,-3.47939 -4.2998,-5.00173 -0.641939,1.46204 -1.2199,2.96327 -1.63561,4.55541 -0.634286,2.42878 -0.922347,5.14561 -0.546429,8.39847 0.579796,5.01367 4.16786,11.5368 7.3099,17.2488 0.269694,0.490714 0.532959,0.968571 1.18378,2.16643l0.00918367 0.0168367 -0.000612245 0.000306122c0.188571,0.345918 0.243673,0.764388 0.120306,1.17153 -3.07041,10.1124 -4.99745,20.8166 -5.85031,31.4513 -0.344082,4.29122 -0.514592,8.52918 -0.514898,12.671 0,2.36265 0.0547959,4.73051 0.163469,7.09255l0.00183673 0.0394898 -0.000612245 0c0.0143878,0.323571 -0.0743878,0.653265 -0.274286,0.938878 -0.482143,0.69 -1.43265,0.858673 -2.12265,0.376531l-39.2599 -27.3722c-5.87694,6.71969 -10.1388,16.0457 -13.0524,25.8848 -0.831122,2.80745 -1.55694,5.6798 -2.18143,8.56286 -0.622041,2.87112 -1.13724,5.72724 -1.55173,8.51786z"/>
  <path class="fil2" d="M77.2136 107.643c-0.929694,6.2602 -1.35612,12.154 -1.35582,17.1419 0.000306122,4.98765 0.428265,10.8811 1.35857,17.1419 0.47051,3.16684 1.05459,6.345 1.75806,9.45031 1.42929,6.30735 3.38296,12.6052 5.93143,18.3297 1.89122,4.24806 4.09867,8.16612 6.645,11.512l36.7717 -25.6374c0.824082,-0.63398 1.86612,-0.991531 2.98592,-0.943163 2.52582,0.10898 4.48531,2.24541 4.37633,4.77122 -0.546429,11.782 0.3,24.2489 2.65071,36.3624 0.461327,2.37796 0.972551,4.70969 1.53337,6.9848 0.584388,2.37 1.20214,4.63439 1.85112,6.77969 0.383265,1.15959 0.304286,2.46949 -0.325714,3.62633l-1.19296 2.19551c-3.00398,5.46184 -6.43439,11.6976 -6.94929,16.1088l-0.00183673 0.0159184c-0.28898,2.4998 -0.133163,4.62 0.279184,6.5152 0.310102,-0.337041 0.631224,-0.67898 0.965204,-1.02643 2.69633,-2.80439 6.16408,-5.90755 10.8049,-9.26418 10.3166,-7.46143 19.0941,-12.6866 28.9668,-18.5633 0.213061,-0.126735 0.405918,-0.241531 5.02561,-3.00857 6.22102,-3.72612 14.6274,-8.97949 21.341,-14.5102 5.9599,-4.90959 10.5263,-9.81612 10.3828,-13.3179 -0.177245,-4.32031 -1.67357,-7.97082 -3.34286,-12.0438 -2.7101,-6.61194 -5.81204,-14.1811 -5.75112,-27.4053l0.00214286 0c0.00704082,-1.89092 1.19449,-3.65449 3.08296,-4.30469 1.66316,-0.57398 3.00765,-0.987857 4.33592,-1.39653 5.53653,-1.70296 10.7473,-3.30704 13.6353,-8.37245 -2.8901,-5.06633 -8.10184,-6.66918 -13.639,-8.37245 -1.56214,-0.480306 -3.14265,-0.966735 -4.32061,-1.37296l0.00459184 -0.0131633c-1.79908,-0.609796 -3.09765,-2.30969 -3.10561,-4.3151 -0.0609184,-13.2242 3.04102,-20.7934 5.75112,-27.4053 1.66929,-4.07296 3.16561,-7.72347 3.34286,-12.0438 0.143571,-3.50173 -4.42286,-8.40827 -10.3828,-13.3179 -6.71357,-5.53071 -15.12,-10.7841 -21.341,-14.5102 -4.61969,-2.76704 -4.81255,-2.88184 -5.02561,-3.00857 -9.87276,-5.87663 -18.6502,-11.1018 -28.9668,-18.5633 -4.64082,-3.35663 -8.10857,-6.4598 -10.8049,-9.26418 -0.33398,-0.347449 -0.655102,-0.689388 -0.965204,-1.02643 -0.412347,1.8952 -0.568163,4.01541 -0.279184,6.5152 0.510612,4.41612 3.94439,10.6586 6.95112,16.1247l1.18378 2.17867 0.00918367 0.0168367 -0.00153061 0.000918367c0.565714,1.03867 0.730408,2.29378 0.360306,3.51459 -2.99663,9.86969 -4.88082,20.3559 -5.71867,30.8054 -0.344082,4.29153 -0.514592,8.44837 -0.514898,12.4319 0,2.2748 0.0547959,4.59918 0.163469,6.96092l0.00183673 0.0394898 -0.00459184 0.000306122c0.0431633,0.96949 -0.221939,1.95918 -0.820408,2.81602 -1.44612,2.07031 -4.29735,2.57602 -6.36765,1.1299l-36.9416 -25.7559c-4.67969,6.14112 -8.19,14.1704 -10.6953,22.6304 -0.798061,2.69571 -1.50459,5.49765 -2.12173,8.34735 -0.608878,2.81143 -1.11245,5.59898 -1.51561,8.31459z"/>
  <path class="fil3 str1" d="M200.935 76.875c-0.503265,-1.15133 -1.00041,-1.96684 -2.23255,-2.6051 -2.26867,-1.17582 -4.2701,-1.30776 -6.87,-1.84041 0.0814286,-2.85276 2.24755,-6.53265 2.17959,-7.81194 -0.277347,-5.22643 -20.2078,-15.8688 -28.0035,-20.9256 -6.68296,-4.33469 -14.0409,-9.06949 -16.3117,-10.4369 -0.00306122,5.45694 0.303061,7.37847 1.33837,9.30337 3.22714,5.76582 9.45918,11.7921 13.6007,16.8328 1.9298,2.34918 2.04673,5.61612 1.54469,8.73l-21.1065 -11.7582c-1.91541,8.14622 -2.5252,13.2585 -2.72112,20.512 0.247653,7.25357 0.857449,12.3658 2.77286,20.512l21.1065 -11.7582c0.502041,3.11388 0.385102,6.38082 -1.54469,8.73 -4.14153,5.04061 -10.3736,11.0669 -13.6007,16.8328 -1.03531,1.9249 -1.34143,3.84643 -1.33837,9.30337 2.27082,-1.36745 9.62878,-6.10224 16.3117,-10.4369 7.79571,-5.05684 27.7261,-15.6992 28.0035,-20.9256 0.0679592,-1.27929 -2.09816,-4.95918 -2.17959,-7.81194 2.5999,-0.532653 4.60133,-0.664592 6.87,-1.84041 1.23214,-0.638265 1.72929,-1.45378 2.18082,-2.6051z"/>
  <path class="fil3 str1" d="M200.938 173.202c-0.503265,-1.15133 -1.00041,-1.96684 -2.23255,-2.6051 -2.26867,-1.17582 -4.2701,-1.30776 -6.87,-1.84041 0.0814286,-2.85276 2.24755,-6.53265 2.17959,-7.81194 -0.277347,-5.22643 -20.2078,-15.8688 -28.0035,-20.9256 -6.68296,-4.33469 -14.0409,-9.06949 -16.3117,-10.4369 -0.00306122,5.45694 0.303061,7.37847 1.33837,9.30337 3.22714,5.76582 9.45918,11.7921 13.6007,16.8328 1.9298,2.34918 2.04673,5.61612 1.54469,8.73l-21.1065 -11.7582c-1.91541,8.14622 -2.5252,13.2585 -2.72112,20.512 0.247653,7.25357 0.857449,12.3658 2.77286,20.512l21.1065 -11.7582c0.502041,3.11388 0.385102,6.38082 -1.54469,8.73 -4.14153,5.04061 -10.3736,11.0669 -13.6007,16.8328 -1.03531,1.9249 -1.34143,3.84643 -1.33837,9.30337 2.27082,-1.36745 9.62878,-6.10224 16.3117,-10.4369 7.79571,-5.05684 27.7261,-15.6992 28.0035,-20.9256 0.0679592,-1.27929 -2.09816,-4.95918 -2.17959,-7.81194 2.5999,-0.532653 4.60133,-0.664592 6.87,-1.84041 1.23214,-0.638265 1.72929,-1.45378 2.18082,-2.6051z"/>
  <path class="fil3 str1" d="M141.986 124.725c-0.503265,-1.15133 -1.00041,-1.96684 -2.23255,-2.6051 -2.26867,-1.17582 -4.2701,-1.30776 -6.87,-1.84041 0.0814286,-2.85276 2.24755,-6.53265 2.17959,-7.81194 -0.277347,-5.22643 -20.2078,-15.8688 -28.0035,-20.9256 -6.68296,-4.33469 -14.0409,-9.06949 -16.3117,-10.4369 -0.00306122,5.45694 0.303061,7.37847 1.33837,9.30337 3.22714,5.76582 9.45918,11.7921 13.6007,16.8328 1.9298,2.34918 2.04673,5.61612 1.54469,8.73l-21.1065 -11.7582c-1.91541,8.14622 -2.5252,13.2585 -2.72112,20.512 0.247653,7.25357 0.857449,12.3658 2.77286,20.512l21.1065 -11.7582c0.502041,3.11388 0.385102,6.38082 -1.54469,8.73 -4.14153,5.04061 -10.3736,11.0669 -13.6007,16.8328 -1.03531,1.9249 -1.34143,3.84643 -1.33837,9.30337 2.27082,-1.36745 9.62878,-6.10224 16.3117,-10.4369 7.79571,-5.05684 27.7261,-15.6992 28.0035,-20.9256 0.0679592,-1.27929 -2.09816,-4.95918 -2.17959,-7.81194 2.5999,-0.532653 4.60133,-0.664592 6.87,-1.84041 1.23214,-0.638265 1.72929,-1.45378 2.18082,-2.6051z"/>
  <path class="fil3 str2" d="M164.431 124.792c13.0564,-7.37724 22.3209,-11.861 29.2347,-19.6176 2.11929,5.70888 0.853776,9.9802 -1.43633,14.5592 3.77633,0.54949 7.75622,1.20367 9.12245,5.05837 -1.38276,3.85469 -5.36265,4.50888 -9.13898,5.05837 2.2901,4.57898 3.55561,8.85031 1.43633,14.5592 -6.91378,-7.75653 -16.1783,-12.2403 -29.2182,-19.6176z"/>
  <path class="fil2 str3" d="M149.585 260.024l9.04867 0c0.496531,0 0.900306,0.388163 0.900306,0.866939l-0.000612245 3.10806c0.000918367,0.493776 -0.373776,0.871837 -0.899694,0.871837l-9.04867 0c-0.496531,0 -0.899694,-0.388469 -0.899694,-0.867245l0 -3.11265c0,-0.478776 0.403163,-0.866939 0.899694,-0.866939zm-124.938 1.24776l-6.3052 0.302143c-0.495,0.0220408 -0.915306,-0.346224 -0.938571,-0.823163l-0.000306122 -0.0269388c-0.0394898,-1.14827 -0.330612,-1.98612 -0.873061,-2.51357 -0.53602,-0.52102 -1.36745,-0.781837 -2.49276,-0.781837l0 0.00336735 -0.00428571 0 0 -0.00336735c-1.2649,0.000612245 -2.20194,0.412347 -2.81082,1.23367 -0.676224,0.913163 -1.01571,2.33878 -1.01663,4.27316l0.00336735 0 0 0.0116327 -0.00336735 0c0,1.15408 0.0985714,2.11561 0.29602,2.88429 0.175714,0.684796 0.424898,1.19173 0.746939,1.5199 0.333673,0.340408 0.735306,0.596939 1.2049,0.767449 0.493469,0.18 1.07235,0.27 1.73847,0.27 2.01092,0 3.24827,-1.00561 3.70071,-3.01592 0.0985714,-0.440816 0.53051,-0.730714 0.98602,-0.677755l5.79918 0.270918c0.495,0.0223469 0.877347,0.427347 0.854388,0.904286 -0.00244898,0.047449 -0.00857143,0.0933673 -0.0180612,0.138367 -0.0587755,0.353265 -0.132551,0.688776 -0.218571,1.00255 -0.0906122,0.330918 -0.200816,0.656327 -0.328163,0.974082 -0.654184,1.62582 -1.75224,2.92898 -3.2951,3.9052 -1.04724,0.663367 -2.20316,1.1599 -3.46837,1.48776 -1.25449,0.325102 -2.61857,0.488571 -4.08918,0.488571l-0.00795918 0 0 -0.00336735c-1.80551,-0.000918367 -3.44786,-0.239694 -4.9252,-0.716327 -0.247653,-0.0795918 -0.486429,-0.164388 -0.71449,-0.253163 -1.21163,-0.471122 -2.30204,-1.11276 -3.27092,-1.92245 -1.1798,-0.985408 -2.06357,-2.15847 -2.65163,-3.51735 -0.581327,-1.34296 -0.871531,-2.85949 -0.871531,-4.55112l0 -0.00612245 0.00367347 0c0.000612245,-1.58878 0.281939,-3.04163 0.842755,-4.35337 0.0942857,-0.220714 0.194388,-0.433469 0.297857,-0.634592 0.550714,-1.06776 1.29827,-2.03235 2.24112,-2.88888 1.12714,-1.02459 2.45969,-1.7948 3.99643,-2.30755 1.51316,-0.505102 3.21276,-0.758571 5.09878,-0.758571l0.017449 0 0 0.00336735c1.01173,0.000918367 1.94663,0.0636735 2.80102,0.187959 0.776327,0.113265 1.51378,0.281633 2.21112,0.504796 3.62051,1.15898 5.7352,3.70408 6.34194,7.63163 0.0716327,0.472959 -0.268469,0.913163 -0.75949,0.982347 -0.0397959,0.0055102 -0.0789796,0.00765306 -0.118469,0.00795918zm16.7694 -8.38408l8.04551 19.4899c0.182143,0.442959 -0.042551,0.945612 -0.502347,1.12102 -0.108673,0.0416327 -0.219796,0.0603061 -0.330306,0.0603061l0 0.00428571 -6.51031 0c-0.408061,0 -0.752755,-0.263571 -0.862347,-0.622653l-1.32673 -3.40531 -7.13235 0 -1.40296 3.47235c-0.137143,0.342551 -0.476633,0.551633 -0.836633,0.551633l0 0.00397959 -5.29592 0c-0.496837,0 -0.9,-0.388469 -0.9,-0.867245 0,-0.129796 0.0303061,-0.253163 0.0832653,-0.363673l8.25092 -19.5337c0.141429,-0.336122 0.477857,-0.541224 0.832653,-0.541531l0 -0.000306122 7.02061 0c0.412347,0 0.760408,0.266633 0.866939,0.630918zm-6.46347 11.2962l2.87082 0 -1.43357 -3.59449 -1.43724 3.59449zm27.0196 8.80531l-4.61265 -11.5843 0 11.291c0,0.476939 -0.401327,0.863571 -0.896327,0.863571l0 0.00367347 -5.07704 0c-0.496531,0 -0.899694,-0.388469 -0.899694,-0.867245l0 -19.5719c0,-0.478776 0.403163,-0.867245 0.899694,-0.867245l0.0238776 0 9.39949 0c0.417245,0 0.768673,0.273367 0.870612,0.645306l3.67745 9.51704 3.90949 -9.6101c0.138061,-0.341327 0.477857,-0.551633 0.836327,-0.551939l0 -0.000306122 9.44265 0c0.496837,0 0.9,0.388469 0.9,0.867245l0 0.0217347 0 19.5502c0,0.478776 -0.403163,0.867245 -0.9,0.867245l-6.09704 0c-0.496531,0 -0.899694,-0.388469 -0.899694,-0.867245 0,-0.0223469 0.00183673,-0.0453061 0.00367347,-0.0673469l0 -11.3131 -4.75194 11.6954c-0.138673,0.341633 -0.477245,0.550102 -0.836633,0.549796l0 0.00244898 -4.14612 0c-0.389388,0 -0.721224,-0.24 -0.846122,-0.57398zm29.6596 -6.69735l0 6.40408c0,0.478776 -0.403163,0.867245 -0.899694,0.867245l-6.1552 0c-0.496531,0 -0.899694,-0.388469 -0.899694,-0.867245l0 -19.5719c0,-0.478776 0.403163,-0.867245 0.899694,-0.867245l0.0238776 0 10.1617 0 0.0254082 0 0 0.00367347c1.17061,0.000612245 2.2001,0.0486735 3.08571,0.143571l0.00918367 0.000612245 0.0027551 0.000306122c0.138061,0.0146939 0.27949,0.0318367 0.422143,0.0511224 0.741735,0.0961224 1.38704,0.228673 1.93347,0.394592l0.00336735 0.000918367 0.000306122 -0.000918367 0.00673469 0.00214286c0.160102,0.0486735 0.346224,0.11449 0.556531,0.195306 0.198061,0.0762245 0.379286,0.152755 0.542143,0.22898 0.909796,0.426122 1.7452,1.01816 2.49765,1.77612l0.0186735 0.0189796c0.547041,0.550714 0.958163,1.1648 1.23337,1.84163 0.276122,0.678061 0.41449,1.41857 0.41449,2.22031l0.00336735 0c0,1.1048 -0.287143,2.17898 -0.861122,3.22684l-0.00367347 0.00673469 0.00153061 0.000612245c-0.0710204,0.129184 -0.157653,0.271531 -0.259592,0.427041 -0.0903061,0.138367 -0.187347,0.27398 -0.287755,0.404388 -0.520408,0.674694 -1.16449,1.23184 -1.92551,1.66653l-0.047449 0.0244898c-0.491633,0.276122 -0.970714,0.507551 -1.43418,0.689082 -0.488265,0.191633 -0.979592,0.337041 -1.47306,0.434694l0 0.000918367 -0.0205102 0.00397959 -0.00765306 0.00122449 0.000306122 0.00244898c-0.132857,0.0254082 -0.278571,0.0502041 -0.436224,0.0731633 -0.127041,0.0183673 -0.291429,0.0388776 -0.486122,0.0593878 -0.857755,0.092449 -1.95429,0.139592 -3.28867,0.139592l0 -0.00336735 -3.35633 0zm-0.212755 -5.28888l3.03949 0 0.0119388 0 0 0.00336735c0.667041,-0.000306122 1.22847,-0.0578571 1.68061,-0.171735 0.0645918,-0.0159184 0.131633,-0.0352041 0.19898,-0.0560204 0.287755,-0.09 0.511837,-0.203571 0.669796,-0.340102l0.00244898 -0.00183673 -0.00183673 -0.00183673c0.0762245,-0.0658163 0.136224,-0.121531 0.176327,-0.164082 0.045,-0.047449 0.0915306,-0.102245 0.138367,-0.163163l-0.000918367 -0.000306122c0.195612,-0.255306 0.293571,-0.533571 0.293571,-0.831122l0 -0.00489796 0.00336735 0c-0.000306122,-0.250408 -0.0535714,-0.473265 -0.156429,-0.666429l-0.00153061 0.000918367 -0.0492857 -0.0906122 -0.00153061 0.000612245c-0.101633,-0.156429 -0.248265,-0.301531 -0.436224,-0.432857l-0.0379592 -0.0287755c-0.233571,-0.151224 -0.539388,-0.269694 -0.914082,-0.354796 -0.442041,-0.100102 -0.973469,-0.150306 -1.5949,-0.150306l0 -0.00336735 -3.0202 0 0 3.45735zm21.6162 5.84724l-9.12704 -13.2487c-0.273367,-0.398265 -0.160102,-0.93551 0.253163,-1.19908 0.152449,-0.0970408 0.325408,-0.14449 0.495612,-0.144184l0 -0.00153061 6.49102 0c0.351429,0 0.656633,0.193469 0.804796,0.476633l4.77459 7.31878 3.91133 -7.32459c0.158878,-0.297245 0.472959,-0.469286 0.797755,-0.470204l0 -0.000612245 5.39296 0c0.419694,0 0.773265,0.276429 0.872755,0.651429 0.0991837,-0.375 0.451224,-0.651429 0.870918,-0.651429l0.0238776 0 5.91796 0c0.496837,0 0.9,0.388469 0.9,0.867245l0 0.0217347 0 6.82408 6.51367 -7.4048c0.192857,-0.219796 0.476633,-0.32449 0.753673,-0.304592l5.7251 0c0.495,0 0.896327,0.386633 0.896327,0.863571 0,0.214592 -0.0802041,0.41051 -0.214898,0.561429l0.000918367 0.000612245 -5.78816 6.51337 7.42898 12.056c0.252245,0.411429 0.110816,0.942551 -0.315918,1.18561 -0.144184,0.0817347 -0.300918,0.119694 -0.457347,0.119388l0 0.0027551 -6.67776 0c-0.345918,0 -0.645306,-0.18949 -0.795918,-0.465306l-4.48041 -7.41459 -2.58827 2.84663 0 4.16602c0,0.478776 -0.403163,0.867245 -0.9,0.867245l-5.94184 0c-0.496837,0 -0.9,-0.388469 -0.9,-0.867245l0 -19.2692c-0.0229592,0.0590816 -0.0523469,0.115714 -0.0881633,0.168061l-7.84408 14.4046 -0.00857143 0.0165306c-0.145102,0.267551 -0.291122,0.523776 -0.438367,0.765918l0.00244898 0.00153061c-0.127653,0.210612 -0.281939,0.448469 -0.461327,0.711735 -0.817653,1.19847 -1.70571,2.11347 -2.66357,2.74102l-0.00153061 0.000918367 0.00153061 0.00214286c-0.691837,0.450918 -1.51745,0.787041 -2.47653,1.00653 -0.922347,0.211531 -1.97388,0.317449 -3.15398,0.317449l-2.5898 0c-0.496837,0 -0.9,-0.388469 -0.9,-0.867245l0 -3.74388c0,-0.478776 0.403163,-0.867245 0.9,-0.867245l0.0235714 0 2.05622 0 0.0165306 0 0 0.00336735c0.435918,-0.000306122 0.832347,-0.0281633 1.18592,-0.0820408l0.0223469 -0.00306122 0.14449 -0.0254082c0.259592,-0.047449 0.491327,-0.110816 0.69398,-0.188571l-0.000306122 -0.000918367c0.0523469,-0.0208163 0.0997959,-0.0431633 0.140204,-0.0664286 0.0419388,-0.0241837 0.0942857,-0.06 0.152449,-0.104388l0.0122449 -0.00857143c0.218265,-0.171122 0.430408,-0.424592 0.636429,-0.758571zm-1.77949 1.15286c0.049898,-0.00673469 0.0988776,-0.0094898 0.147857,-0.00795918m49.4063 -1.96684l5.49337 -0.786735 0.000306122 0.00214286c0.402245,-0.0572449 0.806327,0.157041 0.962449,0.536327 0.720306,1.73878 2.25796,2.60847 4.61816,2.60847 0.746939,0 1.41551,-0.0982653 2.00602,-0.293265 0.576429,-0.190714 1.08398,-0.473878 1.52051,-0.847347 0.430102,-0.367653 0.752449,-0.795306 0.965204,-1.28204 0.113878,-0.261429 0.19898,-0.545204 0.252551,-0.850102l-8.11561 0c-0.496531,0 -0.899694,-0.388469 -0.899694,-0.867245l0 -3.19561c0,-0.478776 0.403163,-0.867245 0.899694,-0.867245l7.96592 0c-0.0832653,-0.285918 -0.206939,-0.56449 -0.370102,-0.835102l0.00153061 -0.000612245c-0.0691837,-0.112959 -0.14449,-0.224694 -0.225918,-0.334286 -0.0805102,-0.107755 -0.172653,-0.219184 -0.275204,-0.333673l-0.119694 -0.128265 -0.00704082 -0.00673469c-0.284694,-0.300612 -0.637041,-0.539388 -1.05582,-0.716327 -0.0746939,-0.0312245 -0.163776,-0.0645918 -0.264184,-0.0991837 -0.589286,-0.201429 -1.29153,-0.302755 -2.10184,-0.303061l0 0.00336735 -0.00826531 0 0 -0.00336735c-1.09622,0 -2.00296,0.193776 -2.72051,0.581327 -0.684184,0.369184 -1.2098,0.929388 -1.57622,1.67939l-0.000306122 -0.000306122c-0.175102,0.357857 -0.590816,0.565408 -1.00837,0.474796l-5.37398 -1.17949c-0.0728571,-0.0162245 -0.145102,-0.0404082 -0.214592,-0.0746939 -0.44051,-0.218878 -0.613776,-0.740816 -0.386633,-1.16541 0.862041,-1.61449 2.04184,-2.89622 3.53602,-3.84398 0.29051,-0.183673 0.592653,-0.355102 0.904592,-0.512449 1.88847,-0.951735 4.19265,-1.42959 6.91133,-1.43051l0 -0.00336735 0.00612245 0c1.90653,0 3.61653,0.244898 5.12878,0.733776 1.5098,0.488571 2.81541,1.22173 3.915,2.19949 0.0202041,0.015 0.0388776,0.0321429 0.0578571,0.0495918 1.10541,1.00378 1.93714,2.17867 2.49367,3.52439 0.550408,1.33224 0.826837,2.81816 0.826837,4.45653 0,0.945612 -0.110204,1.86306 -0.329694,2.75082 -0.217653,0.880714 -0.549184,1.74061 -0.992755,2.57541 -0.647143,1.215 -1.56398,2.26378 -2.74745,3.14173 -0.240306,0.178469 -0.479388,0.342551 -0.714796,0.49102 -0.221327,0.139898 -0.465612,0.281939 -0.733469,0.426735l-0.047449 0.0266327 -0.00489796 0.00244898 -0.000306122 -0.00122449c-0.960612,0.512143 -2.02531,0.897551 -3.19439,1.15316 -1.16112,0.254388 -2.41867,0.382347 -3.77327,0.382347 -2.32776,0 -4.3399,-0.341633 -6.02939,-1.02214 -0.333673,-0.134388 -0.656327,-0.282857 -0.966122,-0.44449 -0.291735,-0.152449 -0.575204,-0.32051 -0.85102,-0.501735l-0.0526531 -0.0318367 -0.00612245 -0.00397959 0.000612245 -0.00122449c-0.99,-0.659388 -1.81837,-1.37173 -2.48235,-2.13827 -0.57551,-0.663673 -1.0301,-1.37173 -1.36531,-2.12112 -0.254082,-0.657551 -0.328776,-1.43663 0.548878,-1.57347zm47.6578 -12.9043l0 0.0217347 0 19.5502c0,0.478776 -0.403163,0.867245 -0.9,0.867245l-5.94122 0c-0.496837,0 -0.9,-0.388469 -0.9,-0.867245l0 -7.20337 -6.2801 0 0 7.20337c0,0.478776 -0.403163,0.867245 -0.9,0.867245l-5.94153 0c-0.496531,0 -0.899694,-0.388469 -0.899694,-0.867245l0 -19.5719c0,-0.478776 0.403163,-0.867245 0.899694,-0.867245l0.0238776 0 5.91765 0c0.496837,0 0.9,0.388469 0.9,0.867245 0,0.0272449 -0.00122449,0.0538776 -0.00367347,0.0808163l0 6.68235 6.28745 0 0 -6.76316c0,-0.476939 0.401327,-0.863571 0.896327,-0.863571l0 -0.00367347 5.94122 0c0.496837,0 0.9,0.388469 0.9,0.867245zm22.7198 4.59643l-11.4171 0 0 2.27908 8.78847 0c0.496531,0 0.899694,0.388469 0.899694,0.866939l0 0.0220408 0 3.66367c0,0.478469 -0.403163,0.866939 -0.899694,0.866939l-8.78847 0 0 2.53837 11.4171 0c0.496531,0 0.899694,0.388469 0.899694,0.867245l0 0.0217347 0 3.84949c0,0.478776 -0.403163,0.867245 -0.899694,0.867245l-18.4717 0c-0.496837,0 -0.9,-0.388469 -0.9,-0.867245l0 -19.5719c0,-0.478776 0.403163,-0.867245 0.9,-0.867245l0.0235714 0 18.4482 0c0.496531,0 0.899694,0.388469 0.899694,0.867245 0,0.0272449 -0.000918367,0.0538776 -0.00367347,0.0808163l0 3.64867c0,0.476939 -0.401327,0.863571 -0.89602,0.863571l0 0.00336735zm10.665 8.57143l0 6.40408c0,0.478776 -0.403163,0.867245 -0.9,0.867245l-6.1549 0c-0.496837,0 -0.9,-0.388469 -0.9,-0.867245l0 -19.5719c0,-0.478776 0.403163,-0.867245 0.9,-0.867245l0.0238776 0 10.1617 0 0.025102 0 0 0.00367347c1.17092,0.000612245 2.20041,0.0486735 3.08571,0.143571l0.0094898 0.000612245 0.00244898 0.000306122c0.138367,0.0146939 0.279796,0.0318367 0.422143,0.0511224 0.742041,0.0961224 1.38735,0.228673 1.93378,0.394592l0.00306122 0.000918367 0.000306122 -0.000918367 0.00704082 0.00214286c0.160102,0.0486735 0.346224,0.11449 0.556531,0.195306 0.197755,0.0762245 0.379286,0.152755 0.541837,0.22898 0.910102,0.426122 1.74551,1.01816 2.49765,1.77612l0.0186735 0.0189796c0.547347,0.550714 0.958163,1.1648 1.23367,1.84163 0.276122,0.678061 0.414184,1.41857 0.414184,2.22031l0.00367347 0c0,1.1048 -0.287143,2.17898 -0.861429,3.22684l-0.00367347 0.00673469 0.00153061 0.000612245c-0.0707143,0.129184 -0.157653,0.271531 -0.259592,0.427041 -0.0903061,0.138367 -0.187041,0.27398 -0.287449,0.404388 -0.520408,0.674694 -1.1648,1.23184 -1.92582,1.66653l-0.047449 0.0244898c-0.491633,0.276122 -0.970714,0.507551 -1.43388,0.689082 -0.488571,0.191633 -0.979898,0.337041 -1.47337,0.434694l0 0.000918367 -0.0205102 0.00397959 -0.00734694 0.00122449 0.000306122 0.00244898c-0.132857,0.0254082 -0.278571,0.0502041 -0.436224,0.0731633 -0.127041,0.0183673 -0.291735,0.0388776 -0.486429,0.0593878 -0.857755,0.092449 -1.95398,0.139592 -3.28837,0.139592l0 -0.00336735 -3.35633 0zm-0.212755 -5.28888l3.03918 0 0.0119388 0 0 0.00336735c0.667347,-0.000306122 1.22847,-0.0578571 1.68092,-0.171735 0.0645918,-0.0159184 0.131327,-0.0352041 0.198673,-0.0560204 0.288061,-0.09 0.511837,-0.203571 0.669796,-0.340102l0.00244898 -0.00183673 -0.00153061 -0.00183673c0.0762245,-0.0658163 0.135918,-0.121531 0.176327,-0.164082 0.045,-0.047449 0.0912245,-0.102245 0.138061,-0.163163l-0.000612245 -0.000306122c0.195306,-0.255306 0.293265,-0.533571 0.293265,-0.831122l0 -0.00489796 0.00367347 0c-0.000306122,-0.250408 -0.0535714,-0.473265 -0.156735,-0.666429l-0.00122449 0.000918367 -0.0492857 -0.0906122 -0.00153061 0.000612245c-0.101939,-0.156429 -0.248265,-0.301531 -0.436224,-0.432857l-0.0382653 -0.0287755c-0.233571,-0.151224 -0.539082,-0.269694 -0.913776,-0.354796 -0.442041,-0.100102 -0.973776,-0.150306 -1.5949,-0.150306l0 -0.00336735 -3.0202 0 0 3.45735zm15.6646 11.693l0 -19.5719c0,-0.478776 0.403163,-0.867245 0.899694,-0.867245l0.0238776 0 14.7404 0c0.496837,0 0.9,0.388469 0.9,0.867245l0 0.0217347 0 3.84949c0,0.478776 -0.403163,0.867245 -0.9,0.867245l-7.92245 0 0 14.8335c0,0.478776 -0.403163,0.867245 -0.9,0.867245l-5.94184 0c-0.496531,0 -0.899694,-0.388469 -0.899694,-0.867245zm27.9416 1.17061l-0.00734694 0 0 -0.00336735c-1.85357,-0.000918367 -3.50357,-0.267857 -4.94663,-0.799286 -0.217347,-0.079898 -0.450918,-0.17602 -0.700102,-0.288061l-0.00122449 0.0027551c-1.17612,-0.528367 -2.20378,-1.24929 -3.08143,-2.16092 -1.03347,-1.07235 -1.80888,-2.25888 -2.32531,-3.55898 -0.512449,-1.29122 -0.769286,-2.69663 -0.769286,-4.21469l-0.00336735 0c0,-1.53214 0.262041,-2.94704 0.786122,-4.24316 0.526531,-1.30347 1.3151,-2.475 2.36388,-3.5149l0.00428571 -0.00428571 0.00428571 -0.00397959 -0.00153061 -0.00214286 0.00428571 -0.00428571 0.0462245 -0.0416327c0.286837,-0.27949 0.585,-0.536633 0.894184,-0.770816 0.325714,-0.247041 0.676224,-0.479082 1.05092,-0.694286 1.8652,-1.07265 4.16418,-1.61082 6.8948,-1.61082l0.00704082 0 0 0.00336735c1.91296,0.000918367 3.60245,0.276122 5.06449,0.825306l0.00306122 0.000918367 0.000612245 -0.000918367c0.224694,0.0841837 0.460714,0.183367 0.706531,0.296633 1.19173,0.549184 2.21327,1.29673 3.06092,2.23959l0.00306122 0.00397959 0.000306122 -0.000306122 0.00459184 0.00459184 0.00489796 0.00581633c0.270612,0.302143 0.524694,0.613163 0.75949,0.929694 0.231122,0.311327 0.45,0.639184 0.653571,0.980204 1.03071,1.72316 1.54622,3.60551 1.54622,5.6452l0 0.00673469 -0.00336735 0c-0.000918367,1.52847 -0.257449,2.93908 -0.767755,4.22908 -0.0753061,0.190714 -0.167143,0.399796 -0.274286,0.626327 -0.501122,1.05765 -1.17918,2.02898 -2.03235,2.91184 -0.0180612,0.0186735 -0.0364286,0.0358163 -0.0554082,0.0523469 -0.284388,0.288673 -0.580408,0.554388 -0.886531,0.794082 -0.332143,0.26051 -0.682041,0.498673 -1.04694,0.713571 -1.85847,1.09531 -4.1801,1.6448 -6.96092,1.6448zm0.174184 -16.4348c-1.28724,0 -2.23806,0.409286 -2.85276,1.22633 -0.68051,0.903673 -1.02031,2.31918 -1.02031,4.24469 0,1.93102 0.339796,3.3502 1.02031,4.25571 0.615,0.81949 1.56673,1.23 2.85276,1.23l0.00428571 0 0 0.00336735c1.22235,-0.000612245 2.13122,-0.408061 2.72296,-1.21959 0.660612,-0.906429 0.993061,-2.32194 0.994286,-4.24316l-0.00367347 0 0 -0.0116327 0.00367347 -0.00581633c-0.000612245,-1.93102 -0.332755,-3.35296 -0.993673,-4.26276l-0.00153061 0.00122449c-0.592041,-0.812755 -1.49969,-1.22051 -2.7202,-1.22173l-0.00612245 0.00336735z"/>
  <path class="fil4 str4" d="M24.6361 260.407l-6.33582 0.303673c-0.0903061,-2.76551 -1.51133,-4.14551 -4.26276,-4.14551 -3.15153,0 -4.72776,2.12878 -4.72776,6.38204 0,2.45663 0.426429,4.12071 1.28541,4.99684 0.858673,0.876122 2.05378,1.31173 3.59724,1.31173 2.49306,0 4.02398,-1.23337 4.57929,-3.7001l5.86439 0.27398c-0.380816,2.33939 -1.53061,4.12133 -3.4552,5.33969 -1.92459,1.21867 -4.27592,1.83061 -7.06592,1.83061 -3.41663,0 -6.19347,-0.895714 -8.33143,-2.68224 -2.14439,-1.79143 -3.21031,-4.25786 -3.21031,-7.41459 0,-2.95102 1.03347,-5.37398 3.10041,-7.25327 2.07337,-1.88418 4.89551,-2.82857 8.4802,-2.82857 6.20694,0 9.70071,2.5301 10.4822,7.58571zm15.9138 -7.28265l8.0798 19.5719 -6.51031 0 -1.56949 -4.02765 -8.36388 0 -1.62735 4.02765 -5.29622 0 8.26714 -19.5719 7.02031 0zm-6.90429 11.9271l5.48388 0 -2.73857 -6.86663 -2.74531 6.86663zm29.1735 7.6448l-6.3551 -15.96 0 15.96 -5.07673 0 0 -19.5719 9.42306 0 4.52755 11.7168 4.76633 -11.7168 9.44265 0 0 19.5719 -6.09673 0 0 -15.96 -6.48459 15.96 -4.14643 0zm27.9138 -7.26765l0 7.26765 -6.1549 0 0 -19.5719 10.1853 0c2.26714,0 4.00408,0.186122 5.21173,0.553163 1.20153,0.367041 2.28031,1.02276 3.22316,1.97235 0.949286,0.944388 1.42071,2.10459 1.42071,3.48459 0,0.964286 -0.251633,1.90378 -0.75551,2.82398 -0.503571,0.915306 -1.22082,1.63959 -2.13796,2.16306 -0.923571,0.523776 -1.81469,0.876122 -2.68041,1.04755 -0.865408,0.171429 -2.2151,0.259592 -4.05612,0.259592l-4.25602 0zm-0.212755 -3.55837l3.93949 0c1.49847,0 2.55092,-0.264184 3.15857,-0.787959 0.606735,-0.523776 0.910102,-1.1302 0.910102,-1.80582 0,-0.792857 -0.342245,-1.42408 -1.01357,-1.89429 -0.678367,-0.469898 -1.69867,-0.699796 -3.07439,-0.699796l-3.9202 0 0 5.18786zm23.561 4.93347l-9.42337 -13.6794 6.49102 0 5.65745 8.67245 4.63102 -8.67245 5.39296 0 -7.88602 14.482c-0.988163,1.82571 -2.0798,3.13255 -3.27429,3.91531 -1.20153,0.783061 -2.90633,1.17459 -5.12786,1.17459l-2.5901 0 0 -3.74388 2.0798 0c0.981735,0 1.78224,-0.122449 2.40214,-0.362143 0.620204,-0.244898 1.16908,-0.841837 1.64724,-1.78653zm20.4349 -13.6794l0 9.20633 8.09878 -9.20633 5.79337 0 -6.20663 6.98418 7.75684 12.5878 -6.67806 0 -5.12847 -8.48663 -3.63582 3.99857 0 4.48806 -5.94184 0 0 -19.5719 5.94184 0zm15.0781 7.8202l9.04837 0 0 3.11296 -9.04837 0 0 -3.11296zm18.9199 0.108673l0 3.19561 9.08694 0c0,1.52235 -0.529592,2.73582 -1.5952,3.64622 -1.05888,0.905816 -2.42847,1.36071 -4.12041,1.36071 -2.76459,0 -4.57929,-1.05214 -5.45112,-3.15673l-5.50286 0.787959c0.613776,1.62 1.84714,3.03918 3.69429,4.26765 1.84745,1.22847 4.31449,1.84531 7.38857,1.84531 2.5901,0 4.76663,-0.479694 6.54276,-1.42929 1.76939,-0.949286 3.06153,-2.19245 3.87551,-3.71969 0.813673,-1.53184 1.22051,-3.17602 1.22051,-4.93316 0,-3.06888 -1.01418,-5.51571 -3.03582,-7.35122 -2.02806,-1.83061 -4.85663,-2.74531 -8.48663,-2.74531 -5.14714,0 -8.66724,1.77643 -10.56,5.31949l5.37398 1.1798c0.897551,-1.83551 2.59653,-2.75541 5.10857,-2.75541 1.84102,0 3.21,0.464694 4.09469,1.39959 0.891429,0.93 1.34327,1.96255 1.35643,3.08847l-8.9902 0zm39.0548 -7.92888l0 19.5719 -5.94184 0 0 -8.07031 -8.07949 0 0 8.07031 -5.94184 0 0 -19.5719 5.94184 0 0 7.6301 8.07949 0 0 -7.6301 5.94184 0zm23.6195 3.72949l-12.3165 0 0 4.01327 9.68786 0 0 3.68541 -9.68786 0 0 4.27255 12.3165 0 0 3.87122 -18.4717 0 0 -19.5719 18.4717 0 0 3.72949zm9.76531 8.5748l0 7.26765 -6.1552 0 0 -19.5719 10.1856 0c2.26684,0 4.00378,0.186122 5.21173,0.553163 1.20153,0.367041 2.28031,1.02276 3.22316,1.97235 0.949286,0.944388 1.42071,2.10459 1.42071,3.48459 0,0.964286 -0.251939,1.90378 -0.755816,2.82398 -0.503571,0.915306 -1.22051,1.63959 -2.13796,2.16306 -0.923571,0.523776 -1.81469,0.876122 -2.6801,1.04755 -0.865408,0.171429 -2.21541,0.259592 -4.05612,0.259592l-4.25602 0zm-0.212755 -3.55837l3.93918 0c1.49847,0 2.55122,-0.264184 3.15857,-0.787959 0.607041,-0.523776 0.910408,-1.1302 0.910408,-1.80582 0,-0.792857 -0.342551,-1.42408 -1.01388,-1.89429 -0.678367,-0.469898 -1.69837,-0.699796 -3.07439,-0.699796l-3.9199 0 0 5.18786zm17.464 10.826l0 -19.5719 14.7643 0 0 3.87122 -8.82245 0 0 15.7007 -5.94184 0zm27.0419 0.303673c-3.48122,0 -6.1748,-0.993673 -8.07949,-2.97092 -1.90561,-1.97724 -2.8552,-4.37051 -2.8552,-7.18469 0,-2.85827 0.962449,-5.24173 2.89347,-7.15531 1.93102,-1.90898 4.68276,-2.86776 8.25398,-2.86776 3.60398,0 6.32969,1.02276 8.16398,3.06337 1.83398,2.04092 2.75112,4.37571 2.75112,7.00378 0,2.83867 -0.949286,5.23194 -2.83531,7.18439 -1.89214,1.94816 -4.65643,2.92714 -8.29255,2.92714zm0.17449 -16.4348c-3.18429,0 -4.77276,2.11439 -4.77276,6.33796 0,4.23367 1.58847,6.35265 4.77276,6.35265 3.07439,0 4.61755,-2.11439 4.61755,-6.33796 0,-4.23337 -1.54316,-6.35265 -4.61755,-6.35265z"/>
 </g>
</svg>
