<svg xmlns="http://www.w3.org/2000/svg" viewBox="0 0 206.66667 141.33333" height="141.333" width="206.667"><g fill-rule="evenodd"><path d="M37.719 118.181c0-1.536-.211-2.839-.634-3.895-.423-1.064-1.078-1.917-1.965-2.565-.881-.641-2.015-1.106-3.388-1.395-1.381-.296-3.015-.436-4.917-.43h-13.104c-1.578 0-2.86-.085-3.853-.247-.987-.169-1.754-.429-2.29-.789-.528-.359-.895-.824-1.099-1.388-.197-.571-.296-1.254-.282-2.057-.007-.888.077-1.663.254-2.332.182-.662.507-1.219.979-1.663.465-.444 1.134-.775 1.993-1.001.86-.218 1.973-.331 3.326-.331h14.118c1.43 0 2.635.134 3.607.388.972.254 1.754.613 2.332 1.085.585.472 1.001 1.035 1.254 1.684.254.647.381 1.373.373 2.169h3.044c-.007-2.79-.86-4.868-2.544-6.235-1.691-1.374-4.171-2.057-7.432-2.05h-14.794c-2.191-.007-3.995.268-5.411.831-1.409.563-2.452 1.451-3.128 2.677-.684 1.219-1.021 2.811-1.015 4.777-.014 1.226.127 2.304.408 3.234.282.923.782 1.698 1.487 2.325.711.619 1.705 1.092 2.973 1.408 1.268.31 2.889.472 4.854.472h14.752c1.381 0 2.522.099 3.438.296.915.198 1.641.507 2.17.931.528.422.909.965 1.127 1.627.225.662.331 1.458.324 2.388 0 1.261-.254 2.296-.761 3.092-.507.796-1.268 1.388-2.282 1.762-1.015.373-2.283.564-3.805.556h-13.864c-1.444 0-2.65-.134-3.621-.394-.965-.261-1.74-.628-2.311-1.106-.577-.479-.986-1.05-1.233-1.712-.246-.655-.366-1.395-.358-2.198h-3.044c.007 1.888.402 3.452 1.183 4.685.775 1.24 1.874 2.162 3.297 2.775 1.43.606 3.12.909 5.072.909h15.132c2.247.007 4.086-.275 5.502-.845 1.423-.564 2.472-1.458 3.142-2.677.67-1.226 1.001-2.811.993-4.762zm29.758 8.285v-13.526c.007-1.529-.253-2.839-.782-3.938-.521-1.092-1.366-1.938-2.522-2.522-1.156-.592-2.677-.887-4.558-.894h-9.172c-1.424.007-2.593.134-3.523.387-.93.247-1.67.584-2.212 1.007-.543.423-.944.895-1.197 1.416-.254.521-.423 1.057-.493 1.607-.078.549-.106 1.077-.099 1.585h3.128c-.014-.479.029-.93.113-1.346.092-.416.303-.782.627-1.099.324-.317.839-.57 1.543-.747.705-.183 1.663-.275 2.875-.275h8.073c1.211.007 2.191.205 2.951.592.761.388 1.318.902 1.677 1.55s.536 1.374.528 2.169v2.917l-.12-.26c-.085-.162-.261-.352-.521-.564-.268-.211-.655-.402-1.177-.564-.521-.169-1.211-.254-2.071-.261h-12.174c-1.514.007-2.755.219-3.719.634-.959.416-1.663.986-2.114 1.719-.458.733-.683 1.585-.676 2.55v2.536c.007 1.212.282 2.213.824 2.995.543.789 1.339 1.374 2.382 1.761 1.042.38 2.31.57 3.811.57h11.835c.634-.007 1.184-.099 1.656-.268.465-.162.853-.359 1.156-.578.31-.218.535-.416.683-.578l.225-.268v1.691h3.043zm-3.043-6.425c.007 1.31-.374 2.283-1.135 2.931-.761.641-1.93.958-3.515.958h-10.313c-1.198-.007-2.135-.133-2.797-.394-.669-.261-1.134-.627-1.395-1.099-.26-.466-.388-1.008-.373-1.635v-1.521c-.007-.486.056-.916.176-1.296.126-.38.352-.698.676-.959.331-.253.796-.45 1.395-.584.599-.134 1.374-.204 2.318-.204h10.313c1.487-.007 2.635.303 3.438.916.796.62 1.204 1.585 1.211 2.888zm29.419-2.029h-3.044c.007.564-.02 1.128-.091 1.684-.064.564-.205 1.099-.423 1.607-.219.508-.55.951-.993 1.346-.444.394-1.043.705-1.79.937-.753.225-1.697.338-2.832.345h-4.057c-.853 0-1.613-.169-2.29-.521-.669-.345-1.205-.881-1.592-1.606-.394-.726-.592-1.648-.599-2.775v-10.99h15.767v-2.536h-15.767v-4.058h-3.043v4.058h-2.62v2.536h2.62v10.525c.007 1.789.31 3.269.915 4.439.606 1.169 1.473 2.036 2.593 2.606 1.12.578 2.459.86 4.016.86h4.354c1.613-.014 2.959-.204 4.037-.585 1.085-.38 1.944-.88 2.592-1.5.648-.627 1.134-1.31 1.458-2.057.324-.754.542-1.5.648-2.247.099-.747.149-1.437.141-2.065zm40.62-3.973h-3.042c-.007.662-.127 1.31-.352 1.945-.225.627-.5 1.219-.839 1.768-.331.55-.662 1.035-1.001 1.459-.331.415-.613.739-.838.979l-.353.36-20.965-12.512-.345-.141c-.219-.099-.466-.268-.754-.514-.289-.247-.536-.585-.754-1.021-.218-.437-.331-.993-.346-1.663.007-1.444.585-2.558 1.733-3.339 1.149-.782 2.825-1.176 5.03-1.184h9.299c1.416-.007 2.635.183 3.656.564 1.022.38 1.804.972 2.36 1.768.55.804.824 1.825.831 3.079h3.043c.007-.346-.021-.789-.077-1.332-.056-.542-.183-1.127-.381-1.761-.204-.634-.514-1.268-.937-1.895-.422-.628-.993-1.205-1.726-1.726-.725-.521-1.641-.937-2.747-1.254-1.113-.317-2.452-.479-4.023-.486h-8.876c-1.423-.007-2.755.12-3.987.374-1.233.253-2.318.669-3.248 1.233-.937.563-1.669 1.318-2.191 2.247-.528.93-.796 2.071-.803 3.417.007.797.077 1.444.211 1.937.134.493.289.874.466 1.134.176.268.331.451.465.556l.211.177-.479.07c-.303.056-.697.169-1.183.345-.486.169-1.007.437-1.55.789-.542.352-1.063.831-1.542 1.424-.486.599-.888 1.345-1.191 2.247-.31.895-.472 1.98-.479 3.241.007 1.754.282 3.269.817 4.543.536 1.282 1.268 2.332 2.22 3.157.944.831 2.036 1.444 3.276 1.845 1.24.402 2.578.599 4.001.599h13.949c1.367-.007 2.515-.105 3.431-.289.916-.183 1.648-.402 2.191-.641.542-.24.937-.458 1.176-.641l.388-.289 3.551 2.198 1.86-2.789-2.874-1.691c.458-.514.909-1.064 1.346-1.648.444-.578.838-1.205 1.197-1.875.352-.676.641-1.402.853-2.191.211-.789.317-1.641.323-2.571zm-9.467 8.538c0 .014-.155.085-.452.218-.303.134-.718.275-1.261.408-.542.134-1.184.211-1.923.219h-14.71c-1.577-.007-2.867-.303-3.881-.881-1.007-.585-1.755-1.402-2.24-2.466-.486-1.057-.726-2.31-.726-3.755.007-.909.155-1.684.43-2.318.282-.627.641-1.148 1.085-1.55.437-.402.909-.718 1.402-.944.494-.218.965-.38 1.402-.479.444-.099.803-.155 1.085-.176.274-.028.423-.035.43-.028l19.36 11.751zm47.51-4.48h-3.043c.013 1.24-.233 2.254-.72 3.057-.492.796-1.297 1.388-2.402 1.775-1.113.388-2.592.578-4.445.578h-12.85c-1.451.007-2.684-.113-3.684-.352-1-.247-1.803-.655-2.417-1.219-.605-.57-1.043-1.346-1.317-2.318-.275-.972-.41-2.184-.402-3.635v-8.454c-.007-1.494.12-2.748.38-3.748.267-1.008.697-1.804 1.295-2.396.6-.592 1.402-1.007 2.41-1.261 1.007-.261 2.248-.38 3.733-.374h12.85c1.451 0 2.669.127 3.642.381.98.253 1.754.613 2.331 1.085.572.472.987 1.043 1.234 1.705.246.669.366 1.416.358 2.24h3.044c0-2.825-.888-4.931-2.663-6.312-1.776-1.374-4.44-2.064-7.989-2.057h-12.849c-1.959-.007-3.63.19-5.01.585-1.374.395-2.494 1.015-3.346 1.867-.859.852-1.486 1.958-1.881 3.325-.395 1.367-.592 3.023-.585 4.96v8.454c-.007 1.874.19 3.48.585 4.811.395 1.332 1.021 2.416 1.881 3.248.853.839 1.972 1.452 3.346 1.846 1.381.388 3.051.585 5.01.578h12.849c1.938 0 3.586-.176 4.945-.536 1.361-.359 2.459-.887 3.297-1.592.839-.698 1.451-1.571 1.839-2.614.387-1.043.577-2.254.571-3.628zm30.941.169v-4.565c.007-1.099-.141-2.134-.451-3.121-.311-.979-.81-1.853-1.515-2.614-.698-.761-1.643-1.36-2.812-1.796-1.176-.437-2.627-.662-4.353-.67h-8.37c-1.641.007-3.05.219-4.205.634-1.162.416-2.107.994-2.832 1.74-.726.74-1.254 1.606-1.592 2.6-.339.993-.501 2.064-.501 3.226v4.565c-.007 2.67.747 4.706 2.254 6.094 1.502 1.394 3.797 2.099 6.876 2.106h8.328c1.682-.007 3.114-.232 4.289-.662 1.169-.436 2.113-1.029 2.832-1.789.718-.762 1.241-1.628 1.571-2.614.325-.979.487-2.029.48-3.135zm-3.044 0c-.007 1.346-.274 2.438-.795 3.269-.528.838-1.261 1.444-2.212 1.832-.944.38-2.058.57-3.333.563h-7.904c-2.071 0-3.642-.464-4.706-1.402-1.057-.944-1.592-2.36-1.592-4.262v-4.565c0-1.346.239-2.438.712-3.276.472-.831 1.176-1.436 2.112-1.824.931-.38 2.093-.571 3.474-.564h7.947c2.036.007 3.592.5 4.671 1.465 1.077.972 1.62 2.374 1.627 4.199v4.565" fill="#231f20"/><path d="M9.502 140.872v-5.698h-1.264l-2.874 4.86-2.89-4.86h-1.265v5.698h.591v-5.238h.337l3.071 5.238h.304l3.071-5.238h.328v5.238h.591zm13.771 0l-2.956-5.698h-.903l-2.956 5.698h.657l.731-1.429h4.007l.731 1.429h.69zm-1.725-2.003h-3.383l1.691-3.284 1.692 3.284zm14.953 2.003v-5.698h-.591v5.107l-4.384-5.107h-1.314v5.698h.591v-5.255h.328l4.516 5.255h.854zm13.737 0l-2.956-5.698h-.903l-2.956 5.698h.657l.731-1.429h4.007l.73 1.429h.689zm-1.724-2.003h-3.383l1.692-3.284 1.692 3.284zm15.256-.263v-.443h-3.415v.575h2.8v.189c.001.29-.025.526-.075.707-.052.181-.134.32-.248.418-.114.095-.262.161-.449.196-.186.036-.413.052-.682.051h-2.513c-.277.002-.513-.02-.706-.066-.191-.044-.346-.119-.464-.223-.118-.105-.203-.246-.254-.424-.053-.179-.079-.401-.078-.667v-1.724c-.001-.286.022-.527.068-.721.047-.195.127-.349.24-.466.112-.116.267-.2.461-.25.195-.05.439-.075.733-.074h2.513c.278 0 .511.024.698.074.188.049.337.119.448.211.111.091.19.203.238.331.048.13.071.275.07.435h.616c0-.528-.171-.93-.513-1.207-.342-.278-.858-.417-1.548-.419h-2.513c-.38-.002-.705.037-.973.114-.267.076-.484.197-.65.363-.167.165-.289.38-.365.645-.076.266-.115.588-.113.964v1.724c-.002.344.033.64.103.886.071.248.188.45.351.608.162.157.376.274.647.349.27.074.604.111 1.001.111h2.513c.409.002.747-.033 1.015-.105.269-.073.478-.194.631-.365.153-.171.261-.404.324-.696.062-.293.093-.66.09-1.099zm8.162 2.266v-5.698h-.591v5.698h.591zm14.05 0v-5.698h-.591v5.107l-4.384-5.107h-1.314v5.698h.591v-5.255h.329l4.515 5.255h.854zm13.925-2.266v-.443h-3.415v.575h2.8v.189c.001.29-.024.526-.075.707-.052.181-.134.32-.248.418-.114.095-.263.161-.449.196-.186.036-.413.052-.682.051h-2.513c-.277.002-.513-.02-.706-.066-.192-.044-.346-.119-.464-.223-.118-.105-.203-.246-.255-.424-.053-.179-.079-.401-.078-.667v-1.724c-.002-.286.022-.527.068-.721.046-.195.127-.349.239-.466.113-.116.268-.2.461-.25.195-.05.439-.075.733-.074h2.513c.277 0 .51.024.697.074.188.049.337.119.447.211.111.091.191.203.238.331.048.13.071.275.07.435h.616c0-.528-.171-.93-.513-1.207-.342-.278-.858-.417-1.548-.419h-2.513c-.38-.002-.705.037-.973.114-.267.076-.485.197-.65.363-.167.165-.289.38-.365.645-.077.266-.115.588-.114.964v1.724c-.002.344.033.64.104.886.071.248.187.45.35.608.161.157.376.274.647.349.27.074.603.111 1 .111h2.513c.409.002.747-.033 1.016-.105.268-.073.477-.194.631-.365.153-.171.261-.404.324-.696.062-.293.093-.66.09-1.099zm22.754.641h-.591c.003.241-.045.438-.14.594-.096.155-.252.27-.467.345-.216.075-.504.112-.864.112h-2.496c-.282.002-.521-.022-.715-.069-.194-.048-.351-.127-.469-.236-.118-.111-.203-.261-.256-.45-.053-.189-.079-.424-.078-.707v-1.642c-.001-.29.023-.534.074-.728.052-.196.136-.35.252-.466.116-.115.272-.195.468-.245.196-.051.437-.074.725-.073h2.496c.283 0 .519.024.708.074.191.049.341.119.454.211.111.091.191.203.24.331.048.13.071.275.07.435h.591c0-.549-.173-.957-.518-1.226-.344-.267-.862-.401-1.552-.4h-2.496c-.38-.002-.705.037-.973.114-.267.076-.484.197-.65.363-.167.165-.289.38-.365.645-.077.266-.115.588-.114.964v1.642c-.001.364.037.676.114.935.076.259.198.469.365.631.166.163.383.282.65.358.268.075.592.114.973.112h2.496c.376 0 .696-.034.961-.104.264-.07.478-.172.641-.309.163-.136.282-.305.357-.508.075-.203.113-.438.111-.705zm13.967-.328v-1.774c0-.331-.028-.613-.081-.848-.055-.235-.136-.431-.246-.584-.106-.154-.243-.276-.407-.364-.164-.089-.355-.151-.576-.188-.218-.035-.467-.054-.743-.052h-2.496c-.401-.002-.737.037-1.01.112-.272.076-.489.196-.652.357-.163.163-.279.374-.35.632-.073.259-.107.569-.105.935v1.774c-.001.364.037.672.114.922.077.25.2.451.367.602.167.152.385.261.655.33.271.069.598.101.982.1h2.496c.303.002.567-.015.794-.048.227-.031.422-.089.581-.172.161-.083.29-.197.391-.344.1-.148.172-.335.218-.563.047-.228.07-.503.069-.828zm-.592 0c.001.275-.017.504-.06.683-.043.181-.117.321-.225.423-.108.101-.257.172-.448.214-.193.043-.439.062-.737.06h-2.496c-.277.002-.512-.019-.705-.062-.194-.043-.35-.116-.471-.219-.119-.103-.206-.244-.263-.423-.055-.179-.082-.404-.08-.676v-1.823c0-.276.029-.505.088-.688.059-.183.149-.327.271-.434.123-.105.28-.18.472-.225.193-.044.422-.065.688-.064h2.496c.282-.001.519.019.708.062.19.044.34.117.454.223.11.104.192.249.238.432.049.183.072.415.07.695v1.823zm16.152 1.954v-5.698h-1.265l-2.874 4.86-2.89-4.86h-1.264v5.698h.591v-5.238h.336l3.071 5.238h.305l3.071-5.238h.327v5.238h.592zm13.245-3.941c0-.425-.068-.766-.206-1.025-.138-.259-.356-.445-.652-.562-.294-.116-.677-.173-1.146-.17h-3.842v5.698h.591v-2.357h3.26c.358.002.661-.022.914-.068.254-.048.46-.13.62-.247.16-.117.277-.279.351-.485.076-.207.112-.469.112-.785zm-.592 0c.001.212-.021.384-.064.519-.041.133-.112.236-.207.307-.096.071-.222.12-.38.146-.158.028-.35.04-.58.038h-3.433v-2.192h3.49c.278-.002.503.035.677.111.173.076.298.201.379.375.08.173.12.405.118.697zm14.196 3.941l-2.955-5.698h-.903l-2.957 5.698h.657l.73-1.429h4.007l.73 1.429h.69zm-1.724-2.003h-3.384l1.692-3.284 1.692 3.284zm14.952 2.003v-5.698h-.592v5.107l-4.384-5.107h-1.314v5.698h.592v-5.255h.329l4.515 5.255h.854zm13.442-5.698h-.781l-2.512 2.512-2.512-2.512h-.779l2.996 2.972v2.726h.591v-2.718l2.998-2.98" fill="#231f20"/><path d="M70.261 57.286c7.248-17.107 33.843-13 41.656-8.767 19.407 10.514-10.81 30.672-36.949 15.51 25.55 33.592 83.483 3.815 65.774-40.33-7.76 16.666-42.294 10.902-47.072 3.689-6.488-9.797 12.22-26.582 41.348-12.34-30.592-35.165-83.175 1.113-64.757 42.238" fill="#324ba6"/></g></svg>