<?xml version="1.0" encoding="UTF-8" standalone="no"?>
<!-- Created with Inkscape (http://www.inkscape.org/) -->

<svg
   xmlns:dc="http://purl.org/dc/elements/1.1/"
   xmlns:cc="http://creativecommons.org/ns#"
   xmlns:rdf="http://www.w3.org/1999/02/22-rdf-syntax-ns#"
   xmlns:svg="http://www.w3.org/2000/svg"
   xmlns="http://www.w3.org/2000/svg"
   xmlns:sodipodi="http://sodipodi.sourceforge.net/DTD/sodipodi-0.dtd"
   xmlns:inkscape="http://www.inkscape.org/namespaces/inkscape"
   version="1.1"
   id="svg2"
   width="146"
   height="200"
   viewBox="0 0 146 200"
   sodipodi:docname="Oskemen_seal.svg"
   inkscape:version="0.92.1 r15371">
  <metadata
     id="metadata8">
    <rdf:RDF>
      <cc:Work
         rdf:about="">
        <dc:format>image/svg+xml</dc:format>
        <dc:type
           rdf:resource="http://purl.org/dc/dcmitype/StillImage" />
        <dc:title />
      </cc:Work>
    </rdf:RDF>
  </metadata>
  <defs
     id="defs6" />
  <sodipodi:namedview
     pagecolor="#ffffff"
     bordercolor="#666666"
     borderopacity="1"
     objecttolerance="10"
     gridtolerance="10"
     guidetolerance="10"
     inkscape:pageopacity="0"
     inkscape:pageshadow="2"
     inkscape:window-width="1920"
     inkscape:window-height="986"
     id="namedview4"
     showgrid="false"
     inkscape:zoom="5.5194475"
     inkscape:cx="82.673047"
     inkscape:cy="178.36345"
     inkscape:window-x="-4"
     inkscape:window-y="-4"
     inkscape:window-maximized="1"
     inkscape:current-layer="svg2" />
  <path
     style="fill:#015e9d;fill-opacity:1;stroke:#015e9d;stroke-width:0.37897453;stroke-miterlimit:4;stroke-dasharray:none;stroke-opacity:1"
     d="M 0.38292796,24.637446 0.46131784,0.41950776 H 145.63653 L 145.42431,24.66262 Z"
     id="path4491"
     inkscape:connector-curvature="0"
     sodipodi:nodetypes="ccccc" />
  <path
     style="fill:#f6d683;fill-opacity:1;stroke:#f6d683;stroke-width:0.67775559;stroke-miterlimit:4;stroke-dasharray:none;stroke-opacity:1"
     d="M 0.32054237,102.42881 0.39878062,24.811193 H 145.27447 l -0.21179,77.698307 z"
     id="path4491-7"
     inkscape:connector-curvature="0"
     sodipodi:nodetypes="ccccc" />
  <path
     style="fill:#015e9d;fill-opacity:1;stroke:#015e9d;stroke-width:0.2654731;stroke-miterlimit:4;stroke-dasharray:none;stroke-opacity:1"
     d="m 109.50786,160.22514 20.6714,-62.280406 c -1.56958,0.29317 -1.08433,0.771544 -2.43794,-1.885817 -2.07961,3.036947 -2.85248,3.055234 -5.943,7.56e-4 -2.89667,2.914995 -3.39333,2.944165 -6.28289,-0.07003 -3.23744,2.65068 -3.17939,3.071322 -6.67105,-0.06927 -2.761,3.17475 -3.88217,3.237828 -7.02878,0.06927 -1.959739,2.97481 -3.298302,2.829742 -6.770215,0.704042 z"
     id="path4503-7"
     inkscape:connector-curvature="0"
     sodipodi:nodetypes="ccccccccc" />
  <path
     style="fill:#015e9d;fill-opacity:1;stroke:#015e9d;stroke-width:0.26977471;stroke-miterlimit:4;stroke-dasharray:none;stroke-opacity:1"
     d="M 34.587294,159.68134 15.243449,98.71704 c 1.620862,0.293167 2.398254,-0.47529 4.225273,-2.71704 2.505205,2.413531 3.517927,2.293275 6.852463,0.277827 2.991306,2.222306 2.931938,2.251477 5.915899,-0.277827 3.343202,2.650679 3.426322,3.140585 7.032061,0 2.851203,3.174743 2.93602,3.168559 6.185428,0 2.023771,2.974809 2.485224,2.41413 4.210745,2.71283 z"
     id="path4503"
     inkscape:connector-curvature="0"
     sodipodi:nodetypes="ccccccccc" />
  <path
     style="fill:#4ba73a;fill-opacity:1;stroke:#4ba73a;stroke-width:0.37543565;stroke-miterlimit:4;stroke-dasharray:none;stroke-opacity:1"
     d="m 72.823939,199.09653 c -2.009523,-4.098 -4.761201,-6.88344 -8.903075,-6.27447 -16.127695,-0.16208 -34.264529,0.0345 -50.384548,-0.47491 C 5.0515678,192.06303 0.19696635,181.79139 0.53760582,172.654 0.36099522,131.89258 0.39419477,91.129153 0.55936353,50.367837 L 34.672386,160.70645 64.622094,37.071255 l 4.305397,1.9609 3.452216,-9.857095 8.008397,28.284142 4.823601,-6.709931 24.296155,109.475869 36.00615,-113.387802 -0.10857,129.710572 c -0.0932,8.46958 -7.30707,16.79218 -16.18506,15.95235 -16.57652,0.28983 -31.156524,0.16729 -47.734807,0.20875 -3.092418,0.37884 -6.149103,1.79968 -8.661634,6.38752 z"
     id="path4495"
     inkscape:connector-curvature="0"
     sodipodi:nodetypes="ccccccccccccccccc" />
  <text
     xml:space="preserve"
     style="font-style:normal;font-variant:normal;font-weight:normal;font-stretch:normal;font-size:9.97650528px;line-height:125%;font-family:Arial;-inkscape-font-specification:Arial;text-align:center;letter-spacing:0px;word-spacing:0px;writing-mode:lr-tb;text-anchor:middle;fill:#000000;fill-opacity:1;stroke:none;stroke-width:0.37411895px;stroke-linecap:butt;stroke-linejoin:miter;stroke-opacity:1"
     x="72.223206"
     y="10.135745"
     id="text4538"
     transform="scale(1.0153721,0.98486059)"><tspan
       sodipodi:role="line"
       id="tspan4536"
       x="72.223206"
       y="10.135745"
       style="font-style:normal;font-variant:normal;font-weight:bold;font-stretch:normal;line-height:105.99999428%;font-family:Arial;-inkscape-font-specification:'Arial Bold';fill:#ffffff;stroke-width:0.37411895px">ОСКЕМЕН</tspan><tspan
       sodipodi:role="line"
       x="72.223206"
       y="22.606377"
       id="tspan4540"
       style="font-style:normal;font-variant:normal;font-weight:bold;font-stretch:normal;line-height:105.99999428%;font-family:Arial;-inkscape-font-specification:'Arial Bold';fill:#ffffff;stroke-width:0.37411895px">УСТЬ-КАМЕНОГОРСК</tspan></text>
  <path
     id="path4628"
     style="fill:none;fill-rule:evenodd;stroke:#f6d683;stroke-width:1px;stroke-linecap:butt;stroke-linejoin:miter;stroke-opacity:1"
     d="m 54.857906,177.95888 c 6.618466,-3.82281 21.083136,-4.95255 35.363747,0.1963 m 7.942077,-10.01754 c -1.65993,-0.0632 -2.32285,-0.0139 -4.03865,0.211 m 3.74218,13.48566 c -2.78969,4.17348 -8.924829,3.94289 -13.878659,3.61141 -3.06277,-2.92494 -2.848656,-5.94659 -1.344706,-9.55737 m -18.916805,4.78553 c -2.622404,0.70194 -4.5093,0.83206 -7.53245,0.0466 -3.329984,-4.45439 -4.503298,-9.33489 -5.69219,-14.52695 9.906918,-6.08955 31.676382,-6.3443 44.236388,-0.98412 -0.480186,5.00064 -2.339219,11.05667 -5.669208,15.51106 -3.02315,0.78546 -4.91004,0.65534 -7.53245,-0.0466 M 47.100543,168.13765 c 1.659934,-0.0632 2.322852,-0.0139 4.038651,0.211 m -3.742178,13.48566 c 2.789688,4.17348 8.924829,3.94289 13.878661,3.61141 3.062761,-2.92494 3.044572,-6.4364 1.540627,-10.04718 m 56.105766,0.21891 c 8.14695,0.63235 13.37644,-0.77226 18.72266,-3.87904 -5.00959,11.83619 -20.10616,8.89827 -39.77747,10.09589 1.01532,-2.92492 5.48009,-10.18313 0.29439,-13.69785 16.49313,-4.46098 29.72221,2.99158 44.74749,-6.23418 -2.91525,8.10276 -18.90672,13.20513 -23.98707,13.71518 z m -92.579871,1e-5 c -8.146943,0.63235 -13.376433,-0.77226 -18.7226576,-3.87904 5.0095936,11.83619 20.1061636,8.89827 39.7774746,10.09589 -1.015325,-2.92492 -5.480089,-10.18313 -0.294391,-13.69785 -16.493137,-4.46098 -29.722207,2.99158 -44.7474947,-6.23418 2.9152523,8.10276 18.9067207,13.20513 23.9870687,13.71518 z"
     inkscape:connector-curvature="0"
     sodipodi:nodetypes="cccccccccccccccccccccccccccccc" />
  <path
     style="fill:none;fill-rule:evenodd;stroke:#f6d683;stroke-width:1px;stroke-linecap:butt;stroke-linejoin:miter;stroke-opacity:1"
     d="M 72.784687,107.1334 72.739967,99.804079 80,100 78.452971,102 80,104 h -6.721213"
     id="path4781"
     inkscape:connector-curvature="0"
     sodipodi:nodetypes="cccccc" />
  <path
     style="fill:none;fill-rule:evenodd;stroke:#f6d683;stroke-width:0.97186422px;stroke-linecap:butt;stroke-linejoin:miter;stroke-opacity:1"
     d="m 63.542882,150.4024 c -6.788149,3.50861 -10.902484,0.90012 -10.902484,0.90012 v 13.47599"
     id="path4803"
     inkscape:connector-curvature="0"
     sodipodi:nodetypes="ccc" />
  <path
     style="fill:#ffffff;fill-opacity:1;stroke:#ffffff;stroke-width:0.09385891;stroke-miterlimit:4;stroke-dasharray:none;stroke-opacity:1"
     d="m 89.362004,177.33149 c -4.449186,-1.55833 -9.640775,-2.61246 -14.892742,-3.02389 -1.490489,-0.11677 -6.216917,-0.11705 -7.550274,-4.9e-4 -4.779035,0.4179 -8.318823,1.25927 -11.274567,2.67985 l -0.918917,0.44165 -0.0993,-0.15173 c -0.159069,-0.24301 -0.748411,-1.53305 -1.129413,-2.47219 -0.703578,-1.73426 -1.427878,-4.14022 -2.054014,-6.82295 -0.177835,-0.76196 -0.335279,-1.4211 -0.349874,-1.46475 -0.03645,-0.10903 1.311474,-0.8256 2.526522,-1.34315 3.830983,-1.63178 8.523523,-2.62932 14.719571,-3.12908 1.481779,-0.11951 7.686995,-0.11855 9.281988,0.001 6.368675,0.47913 11.953734,1.6228 16.115066,3.29992 l 0.46037,0.18554 -0.03241,0.28991 c -0.192228,1.71968 -0.823969,4.58658 -1.407101,6.38554 -0.696682,2.14927 -2.159909,5.44346 -2.413075,5.43261 -0.06379,-0.003 -0.50561,-0.14144 -0.981832,-0.30824 z"
     id="path5046"
     inkscape:connector-curvature="0" />
  <path
     style="fill:#ffffff;fill-opacity:1;stroke:#ffffff;stroke-width:0.09385891;stroke-miterlimit:4;stroke-dasharray:none;stroke-opacity:1"
     d="m 58.714264,180.69033 c -0.552557,-0.0632 -0.927944,-0.13047 -1.776759,-0.3185 -0.455663,-0.10094 -0.458114,-0.10277 -0.804739,-0.60028 -0.191226,-0.27447 -0.475027,-0.7076 -0.630668,-0.9625 l -0.282983,-0.46346 0.291134,-0.16088 c 1.43231,-0.7915 3.401505,-1.48345 5.786894,-2.03343 0.951595,-0.2194 1.141905,-0.24536 1.195038,-0.16304 0.120729,0.18706 0.473016,1.36535 0.611645,2.04578 0.07669,0.37639 0.160499,1.0315 0.186252,1.4558 l 0.04682,0.77146 -0.477503,0.10847 c -1.450784,0.32957 -3.011092,0.45024 -4.145135,0.32058 z"
     id="path5048"
     inkscape:connector-curvature="0" />
  <path
     style="fill:#ffffff;fill-opacity:1;stroke:#ffffff;stroke-width:0.09385891;stroke-miterlimit:4;stroke-dasharray:none;stroke-opacity:1"
     d="m 55.593578,185.04891 c -2.353843,-0.14818 -4.323526,-0.67475 -5.715834,-1.52805 -0.600658,-0.36812 -1.823373,-1.51248 -1.985841,-1.85858 -0.434372,-0.92534 -1.70596,-4.07707 -1.9982,-4.9527 -0.565696,-1.69499 -0.683161,-2.33445 -0.687106,-3.74051 -0.0029,-1.04754 0.01462,-1.23466 0.159062,-1.69464 0.316143,-1.00679 0.837454,-1.79949 1.559033,-2.37065 l 0.356658,-0.28232 1.420005,0.0413 c 0.781003,0.0227 1.52655,0.0665 1.65677,0.0974 l 0.236764,0.0562 0.259664,1.01389 c 1.157946,4.52138 2.649829,7.99328 4.625374,10.76415 l 0.390997,0.5484 0.751506,0.18906 c 1.272869,0.32022 2.205819,0.41841 3.612142,0.38015 0.858874,-0.0234 1.492129,-0.0802 2.035171,-0.18282 0.433586,-0.0819 0.804429,-0.13281 0.824097,-0.11315 0.05717,0.0572 -0.248146,0.92319 -0.508065,1.44109 -0.328442,0.65445 -0.730063,1.23031 -1.195745,1.71453 l -0.393504,0.40916 -1.747516,0.0725 c -1.92282,0.0797 -2.327727,0.0793 -3.655432,-0.004 z"
     id="path5050"
     inkscape:connector-curvature="0" />
  <path
     style="fill:#ffffff;fill-opacity:1;stroke:#ffffff;stroke-width:0.09385891;stroke-miterlimit:4;stroke-dasharray:none;stroke-opacity:1"
     d="m 85.69077,185.04598 -1.420006,-0.0586 -0.484879,-0.51274 c -0.747551,-0.79049 -1.337577,-1.86328 -1.553607,-2.82476 l -0.06245,-0.27793 0.253878,0.0488 c 0.139633,0.0268 0.48766,0.094 0.773393,0.14912 0.285733,0.0552 1.096175,0.1175 1.800982,0.13852 1.423251,0.0425 2.272346,-0.043 3.614288,-0.3639 l 0.755167,-0.18057 0.289876,-0.39159 c 1.074248,-1.45119 2.508863,-4.1158 3.288199,-6.1074 0.570087,-1.45687 1.116495,-3.1813 1.473672,-4.65083 l 0.297302,-1.22319 0.214671,-0.0413 c 0.118069,-0.0227 0.856077,-0.061 1.640017,-0.0851 l 1.425346,-0.0438 0.444343,0.37741 c 1.177055,0.99974 1.712958,2.38918 1.638448,4.24801 -0.0614,1.53198 -0.497817,3.15495 -1.473941,5.48147 -0.253615,0.60447 -0.62519,1.49576 -0.825722,1.98065 -0.427044,1.03258 -0.459027,1.08558 -1.011697,1.67638 -1.515602,1.62019 -3.783594,2.45326 -7.267512,2.66948 -1.265067,0.0785 -1.732519,0.0775 -3.809771,-0.008 z"
     id="path5052"
     inkscape:connector-curvature="0" />
  <path
     style="fill:#ffffff;fill-opacity:1;stroke:#ffffff;stroke-width:0.09385891;stroke-miterlimit:4;stroke-dasharray:none;stroke-opacity:1"
     d="m 84.132227,180.68476 c -0.304781,-0.0377 -0.881442,-0.13736 -1.281468,-0.22149 l -0.72732,-0.15296 0.0088,-0.49061 c 0.0049,-0.26983 0.06183,-0.75271 0.126628,-1.07305 0.164359,-0.81259 0.581401,-2.07204 0.701359,-2.11807 0.303536,-0.11648 6.886638,1.78555 6.886638,1.98973 0,0.0365 -0.237489,0.423 -0.527753,0.85883 l -0.527753,0.79241 -0.459324,0.10434 c -1.435268,0.32603 -3.088083,0.44837 -4.199827,0.31087 z"
     id="path5054"
     inkscape:connector-curvature="0" />
  <path
     style="fill:#ffffff;fill-opacity:1;stroke:#ffffff;stroke-width:0.09385891;stroke-miterlimit:4;stroke-dasharray:none;stroke-opacity:1"
     d="m 98.643992,181.26733 c 0,-0.0135 0.261846,-0.64075 0.581879,-1.39379 1.275989,-3.00244 1.756909,-4.66211 1.880919,-6.49111 0.1203,-1.77434 -0.41895,-3.46937 -1.46223,-4.59623 l -0.38063,-0.41113 0.607839,-0.14075 c 2.249411,-0.5209 4.734311,-0.86513 7.638601,-1.05818 1.7253,-0.11467 6.39746,-0.10816 9.45516,0.0132 3.16076,0.12543 9.17782,0.13117 10.59809,0.0101 5.24768,-0.44734 9.06851,-1.45762 13.05572,-3.45212 0.55165,-0.27594 1.01624,-0.48847 1.03243,-0.47229 0.059,0.0589 -0.62907,1.01441 -1.24025,1.72234 -2.81433,3.25988 -8.7098,6.57832 -15.44882,8.69584 -2.1238,0.66733 -5.18266,1.38857 -5.88909,1.38857 h -0.2032 v 0.51361 0.5136 l 0.53684,0.0579 c 0.29525,0.0318 1.70573,0.0567 3.1344,0.0552 2.78512,-0.003 3.64161,-0.0658 5.68002,-0.41762 2.48265,-0.42846 4.79953,-1.17261 7.12849,-2.28956 0.58712,-0.28157 1.07739,-0.50205 1.0895,-0.48995 0.0121,0.0121 -0.15882,0.30062 -0.37982,0.64114 -2.54243,3.9173 -6.57582,5.88403 -13.76063,6.70984 -2.40584,0.27652 -5.32502,0.42269 -10.45956,0.52372 -7.36074,0.14483 -12.226724,0.28363 -13.005169,0.37096 -0.104769,0.0118 -0.190489,0.0103 -0.190489,-0.003 z"
     id="path5056"
     inkscape:connector-curvature="0" />
  <path
     style="fill:#ffffff;fill-opacity:1;stroke:#ffffff;stroke-width:0.09385891;stroke-miterlimit:4;stroke-dasharray:none;stroke-opacity:1"
     d="m 46.450127,181.26987 c -0.672589,-0.0823 -5.808014,-0.22831 -13.022491,-0.37026 -7.498159,-0.14754 -11.036327,-0.42927 -14.351641,-1.14277 -4.698633,-1.01121 -7.831974,-2.93936 -9.8515664,-6.06231 -0.230343,-0.35618 -0.4087704,-0.65764 -0.3965052,-0.66991 0.012265,-0.0123 0.4713687,0.19393 1.02023,0.45821 3.3621046,1.61889 6.5525906,2.4413 10.5223576,2.71236 1.187892,0.0811 4.954876,0.0487 5.69734,-0.0491 l 0.329026,-0.0433 v -0.51051 -0.51051 h -0.203195 c -0.645499,0 -3.434085,-0.64013 -5.447643,-1.25053 -6.781338,-2.05574 -12.8820621,-5.42396 -15.8016583,-8.72414 -0.4931536,-0.55744 -1.4061314,-1.78568 -1.4061314,-1.89169 0,-0.0179 0.381843,0.16444 0.84854,0.40521 3.4289831,1.76898 7.2763607,2.91101 11.4119967,3.38747 2.520284,0.29036 6.186571,0.38316 10.078576,0.25511 6.260573,-0.20597 7.941329,-0.23158 10.086249,-0.15366 3.746348,0.1361 6.605882,0.47771 9.431928,1.12679 l 0.607859,0.13961 -0.400053,0.4306 c -1.03737,1.11658 -1.555494,2.75684 -1.446142,4.57815 0.108204,1.80219 0.6173,3.52558 1.99194,6.74311 0.266078,0.62279 0.473821,1.13835 0.461649,1.14568 -0.01217,0.007 -0.08447,0.006 -0.160665,-0.004 z"
     id="path5058"
     inkscape:connector-curvature="0" />
  <path
     style="fill:#ffffff;fill-opacity:1;stroke:#f6d683;stroke-width:0.09385891;stroke-miterlimit:4;stroke-dasharray:none;stroke-opacity:1"
     d="m 73.291443,102.92123 c -1.39e-4,-0.33335 -0.02074,-1.05384 -0.04577,-1.60108 l -0.04552,-0.99499 2.106509,0.0514 c 1.15858,0.0283 2.455816,0.0708 2.882746,0.0945 l 0.776237,0.0431 -0.551114,0.71026 c -0.303113,0.39064 -0.551114,0.74137 -0.551114,0.77939 0,0.038 0.233781,0.36819 0.519514,0.73371 0.285733,0.36552 0.519515,0.69277 0.519515,0.72721 0,0.0363 -1.179962,0.0626 -2.805377,0.0626 h -2.805377 z"
     id="path5068"
     inkscape:connector-curvature="0" />
  <path
     style="fill:#ffffff;fill-opacity:1;stroke:#f6d683;stroke-width:0.09385891;stroke-miterlimit:4;stroke-dasharray:none;stroke-opacity:1"
     d="m 53.134543,158.1907 v -6.08702 l 0.640735,0.18966 c 0.352404,0.10432 0.866723,0.2297 1.142931,0.27863 l 0.502197,0.089 -0.0013,5.37453 -0.0013,5.37454 -0.881862,0.32047 c -0.485024,0.17626 -0.998753,0.37149 -1.141619,0.43386 l -0.259758,0.11339 z"
     id="path5082"
     inkscape:connector-curvature="0" />
  <g
     id="g5471">
    <path
       sodipodi:nodetypes="ccccccccccc"
       inkscape:connector-curvature="0"
       id="path4638-1-9"
       d="m 74.884276,113.1 c 2.672328,14.28394 3.125313,18.15087 8.94264,24.62304 -3.666193,3.44574 -3.716679,7.03144 0.09008,9.50363 -1.155111,1.05367 -1.531749,2.01233 -1.744751,3.21993 -5.59848,-3.29495 -12.893377,-3.38257 -18.629363,-0.0442 -0.200734,-1.17135 -0.60763,-2.12963 -1.855538,-3.18289 4.112586,-2.47122 4.058044,-6.05551 0.09732,-9.4999 6.284674,-6.46962 6.552552,-7.79431 9.733449,-24.61961 l -0.06043,-5.77943 3.355118,0.0157 z"
       style="fill:none;fill-rule:evenodd;stroke:#f6d683;stroke-width:0.96911424px;stroke-linecap:butt;stroke-linejoin:miter;stroke-opacity:1" />
    <path
       sodipodi:nodetypes="ccc"
       inkscape:connector-curvature="0"
       id="path4803-7"
       d="m 82.162638,150.42952 c 6.314359,3.51722 10.141528,0.90233 10.141528,0.90233 V 164.5"
       style="fill:none;fill-rule:evenodd;stroke:#f6d683;stroke-width:0.93848336px;stroke-linecap:butt;stroke-linejoin:miter;stroke-opacity:1" />
    <path
       sodipodi:nodetypes="cc"
       inkscape:connector-curvature="0"
       id="path4822"
       d="m 63.542882,150.4024 v 11.64219"
       style="fill:none;fill-rule:evenodd;stroke:#f6d683;stroke-width:0.82645094px;stroke-linecap:butt;stroke-linejoin:miter;stroke-opacity:1" />
    <path
       sodipodi:nodetypes="cc"
       inkscape:connector-curvature="0"
       id="path4822-3"
       d="m 82.162638,150.42952 v 11.29585"
       style="fill:none;fill-rule:evenodd;stroke:#f6d683;stroke-width:0.8140651px;stroke-linecap:butt;stroke-linejoin:miter;stroke-opacity:1" />
    <path
       sodipodi:nodetypes="cc"
       inkscape:connector-curvature="0"
       id="path4822-3-1"
       d="m 90.118406,152.16752 v 11.29585"
       style="fill:none;fill-rule:evenodd;stroke:#f6d683;stroke-width:0.8140651px;stroke-linecap:butt;stroke-linejoin:miter;stroke-opacity:1" />
    <path
       sodipodi:nodetypes="cc"
       inkscape:connector-curvature="0"
       id="path4822-3-1-4"
       d="m 87.832543,151.95971 v 11.29585"
       style="fill:none;fill-rule:evenodd;stroke:#f6d683;stroke-width:0.8140651px;stroke-linecap:butt;stroke-linejoin:miter;stroke-opacity:1" />
    <path
       sodipodi:nodetypes="cc"
       inkscape:connector-curvature="0"
       id="path4822-3-1-4-1"
       d="m 85.477412,152.23678 v 9.97975"
       style="fill:none;fill-rule:evenodd;stroke:#f6d683;stroke-width:0.76517266px;stroke-linecap:butt;stroke-linejoin:miter;stroke-opacity:1" />
    <path
       sodipodi:nodetypes="cc"
       inkscape:connector-curvature="0"
       id="path4822-3-1-5"
       d="m 55.877322,151.79655 v 11.83999"
       style="fill:none;fill-rule:evenodd;stroke:#f6d683;stroke-width:0.83344185px;stroke-linecap:butt;stroke-linejoin:miter;stroke-opacity:1" />
    <path
       sodipodi:nodetypes="cc"
       inkscape:connector-curvature="0"
       id="path4822-3-1-4-7"
       d="m 58.163185,151.99434 v 11.42438"
       style="fill:none;fill-rule:evenodd;stroke:#f6d683;stroke-width:0.81868333px;stroke-linecap:butt;stroke-linejoin:miter;stroke-opacity:1" />
    <path
       sodipodi:nodetypes="cc"
       inkscape:connector-curvature="0"
       id="path4822-3-1-4-1-6"
       d="m 60.518316,151.86915 v 10.46049"
       style="fill:none;fill-rule:evenodd;stroke:#f6d683;stroke-width:0.78338563px;stroke-linecap:butt;stroke-linejoin:miter;stroke-opacity:1" />
    <path
       sodipodi:nodetypes="ccccc"
       inkscape:connector-curvature="0"
       id="path4931"
       d="m 61.784664,137.71961 c 2.517557,-1.00291 4.487268,-1.60334 7.245125,-3.87644 2.958763,-0.23861 5.433567,-0.27946 8.210911,0.0157 2.747364,2.20253 3.620694,2.3683 6.479891,3.79224 l 0.106314,0.0723"
       style="fill:none;fill-rule:evenodd;stroke:#f6d683;stroke-width:1px;stroke-linecap:butt;stroke-linejoin:miter;stroke-opacity:1" />
    <path
       sodipodi:nodetypes="ccccc"
       inkscape:connector-curvature="0"
       id="path4931-1"
       d="m 61.874755,147.22287 c 2.517557,-1.00291 4.330702,-1.56414 7.088559,-3.83724 2.958763,-0.23861 5.590133,-0.31866 8.367477,-0.0235 2.747364,2.20253 3.620694,2.3683 6.479891,3.79224 l 0.106314,0.0723"
       style="fill:none;fill-rule:evenodd;stroke:#f6d683;stroke-width:1px;stroke-linecap:butt;stroke-linejoin:miter;stroke-opacity:1" />
    <path
       sodipodi:nodetypes="cc"
       inkscape:connector-curvature="0"
       id="path4822-3-0"
       d="m 77.2407,133.85887 v 14.06659"
       style="fill:#ffffff;fill-rule:evenodd;stroke:#f6d683;stroke-width:0.90843558px;stroke-linecap:butt;stroke-linejoin:miter;stroke-opacity:1" />
    <path
       sodipodi:nodetypes="cc"
       inkscape:connector-curvature="0"
       id="path4822-3-0-5"
       d="m 69.029789,133.84317 v 14.75928"
       style="fill:none;fill-rule:evenodd;stroke:#f6d683;stroke-width:0.93053401px;stroke-linecap:butt;stroke-linejoin:miter;stroke-opacity:1" />
    <path
       sodipodi:nodetypes="cc"
       inkscape:connector-curvature="0"
       id="path4984"
       d="m 74.812801,107.33627 c 0.01195,7.42092 0.39707,20.40642 2.427894,26.5226"
       style="fill:none;fill-rule:evenodd;stroke:#f6d683;stroke-width:1px;stroke-linecap:butt;stroke-linejoin:miter;stroke-opacity:1" />
    <path
       sodipodi:nodetypes="cc"
       inkscape:connector-curvature="0"
       id="path4984-1"
       d="m 71.457683,107.32057 c -0.01195,7.42092 -0.39707,20.40642 -2.427894,26.5226"
       style="fill:none;fill-rule:evenodd;stroke:#f6d683;stroke-width:1px;stroke-linecap:butt;stroke-linejoin:miter;stroke-opacity:1" />
    <path
       inkscape:connector-curvature="0"
       id="path5060"
       d="m 69.498708,138.56495 0.01785,-4.24774 0.658051,-0.0578 c 0.854201,-0.075 5.273827,-0.0751 5.991731,-9e-5 l 0.554149,0.0579 0.01785,4.24324 0.01785,4.24323 -0.50273,-0.0495 c -0.694824,-0.0684 -4.053497,-0.0675 -5.542552,0.002 l -1.230051,0.057 z"
       style="fill:#ffffff;fill-opacity:1;stroke:#f6d683;stroke-width:0.09385891;stroke-miterlimit:4;stroke-dasharray:none;stroke-opacity:1" />
    <path
       inkscape:connector-curvature="0"
       id="path5062"
       d="m 75.958536,147.71515 c -1.667314,-0.30008 -3.913408,-0.33931 -5.680022,-0.0992 -0.419075,0.057 -0.769747,0.10383 -0.779271,0.10414 -0.0095,3.2e-4 -0.01732,-0.86929 -0.01732,-1.93248 v -1.93305 l 0.675369,-0.0584 c 0.844899,-0.0731 6.14919,-0.0773 6.407342,-0.005 l 0.190489,0.0533 v 2.00747 c 0,1.10411 -0.02338,2.0031 -0.05195,1.99777 -0.02857,-0.005 -0.36366,-0.0658 -0.744638,-0.13437 z"
       style="fill:#ffffff;fill-opacity:1;stroke:#f6d683;stroke-width:0.09385891;stroke-miterlimit:4;stroke-dasharray:none;stroke-opacity:1" />
    <path
       inkscape:connector-curvature="0"
       id="path5066"
       d="m 69.759,133.23351 c 0,-0.0258 0.07721,-0.33799 0.171588,-0.69379 0.718953,-2.71053 1.323208,-7.38361 1.664526,-12.87281 0.239642,-3.85402 0.336777,-6.28253 0.359485,-8.9876 l 0.02398,-2.85732 h 1.176071 1.17607 l 7.6e-5,1.9222 c 1.11e-4,2.74111 0.165309,7.29066 0.384205,10.58077 0.340473,5.11748 0.861512,9.12165 1.546366,11.88377 l 0.251313,1.01358 -2.528303,-0.0294 c -1.390566,-0.0162 -2.910145,-0.003 -3.376842,0.029 -0.466697,0.0321 -0.84854,0.0373 -0.84854,0.0115 z"
       style="fill:#ffffff;fill-opacity:1;stroke:#f6d683;stroke-width:0.09385891;stroke-miterlimit:4;stroke-dasharray:none;stroke-opacity:1" />
    <path
       inkscape:connector-curvature="0"
       id="path5070"
       d="m 80.75862,135.6375 c -1.235506,-0.67949 -2.849446,-1.80542 -3.064632,-2.13798 -0.226855,-0.35059 -0.779879,-2.80202 -1.104819,-4.89741 -0.332305,-2.14287 -0.68159,-5.40024 -0.764999,-7.13422 l -0.03832,-0.79659 0.274821,1.28147 c 0.870783,4.06039 1.444882,6.1567 2.21949,8.10443 0.761971,1.91595 1.803571,3.76047 3.058508,5.41617 0.222085,0.29301 0.403791,0.55017 0.403791,0.57147 0,0.1015 -0.237225,0.003 -0.983842,-0.40734 z"
       style="fill:#ffffff;fill-opacity:1;stroke:#f6d683;stroke-width:0.09385891;stroke-miterlimit:4;stroke-dasharray:none;stroke-opacity:1" />
    <path
       inkscape:connector-curvature="0"
       id="path5072"
       d="m 80.529153,144.96561 c -0.834875,-0.48281 -1.169524,-0.70572 -2.091631,-1.39318 l -0.707369,-0.52738 -0.0026,-4.07798 -0.0026,-4.07797 0.155854,0.11259 c 1.057675,0.76409 2.043786,1.34779 3.454857,2.045 l 1.636558,0.80863 -0.41388,0.48217 c -1.471593,1.71443 -2.150942,3.48887 -1.932779,5.04837 0.09103,0.65071 0.270332,1.22595 0.523086,1.67818 0.09268,0.16583 0.146834,0.30151 0.120333,0.30151 -0.0265,0 -0.359394,-0.17997 -0.739761,-0.39994 z"
       style="fill:#ffffff;fill-opacity:1;stroke:#f6d683;stroke-width:0.09385891;stroke-miterlimit:4;stroke-dasharray:none;stroke-opacity:1" />
    <path
       inkscape:connector-curvature="0"
       id="path5074"
       d="m 81.188313,149.37439 c -0.758954,-0.39396 -2.149617,-0.92735 -3.128205,-1.19983 -0.63353,-0.17639 -0.787512,-0.23903 -0.59498,-0.24203 l 0.259757,-0.004 v -1.80698 -1.80697 l 0.294391,0.22227 c 0.852106,0.64337 1.914383,1.26954 3.376843,1.99053 0.895296,0.44138 1.63757,0.80929 1.649497,0.81758 0.01193,0.008 -0.106427,0.18194 -0.263008,0.3859 -0.318909,0.41541 -0.806468,1.36709 -0.874406,1.70678 -0.02449,0.12243 -0.07959,0.21897 -0.122447,0.21453 -0.04286,-0.004 -0.311709,-0.12942 -0.597442,-0.27774 z"
       style="fill:#ffffff;fill-opacity:1;stroke:#f6d683;stroke-width:0.09385891;stroke-miterlimit:4;stroke-dasharray:none;stroke-opacity:1" />
    <path
       inkscape:connector-curvature="0"
       id="path5076"
       d="m 63.763306,149.2907 c -0.147257,-0.45771 -0.460808,-1.02729 -0.804018,-1.46052 -0.148468,-0.18742 -0.245606,-0.36149 -0.215861,-0.38683 0.02975,-0.0253 0.506059,-0.22706 1.058476,-0.44826 1.667074,-0.66755 2.958796,-1.35352 4.132261,-2.19446 0.310711,-0.22266 0.583456,-0.40484 0.6061,-0.40484 0.02264,0 0.04117,0.78815 0.04117,1.75144 v 1.75144 l -0.922578,0.25984 c -1.174164,0.3307 -2.027841,0.64817 -3.004786,1.11744 l -0.775644,0.37257 z"
       style="fill:#ffffff;fill-opacity:1;stroke:#f6d683;stroke-width:0.09385891;stroke-miterlimit:4;stroke-dasharray:none;stroke-opacity:1" />
    <path
       inkscape:connector-curvature="0"
       id="path5078"
       d="m 64.412674,145.4175 c 0.584914,-0.85322 0.802219,-1.55049 0.804147,-2.58025 0.0018,-0.93773 -0.116006,-1.41634 -0.581238,-2.36231 -0.374043,-0.76056 -0.894658,-1.48739 -1.534596,-2.14246 l -0.408269,-0.41793 1.091424,-0.43981 c 1.460572,-0.58856 2.847883,-1.30183 3.883614,-1.99669 0.468969,-0.31463 0.866397,-0.57205 0.883174,-0.57205 0.01678,0 0.0305,1.83559 0.0305,4.0791 v 4.07911 l -0.640734,0.48334 c -0.936846,0.7067 -1.775359,1.23332 -2.750267,1.72726 -0.474485,0.24039 -0.888996,0.43708 -0.921137,0.43708 -0.03214,0 0.03238,-0.13247 0.143378,-0.29439 z"
       style="fill:#ffffff;fill-opacity:1;stroke:#f6d683;stroke-width:0.09385891;stroke-miterlimit:4;stroke-dasharray:none;stroke-opacity:1" />
    <path
       inkscape:connector-curvature="0"
       id="path5080"
       d="m 63.88004,136.23045 c 0.05227,-0.0716 0.354841,-0.42227 0.672383,-0.77927 1.970427,-2.21526 3.201322,-4.34894 4.133605,-7.16532 0.475978,-1.43791 0.827288,-2.81174 1.592902,-6.22918 l 0.170702,-0.76196 -0.03831,0.69269 c -0.05746,1.0389 -0.352921,3.91792 -0.55093,5.36831 -0.314253,2.30187 -0.723836,4.39337 -1.107598,5.65584 l -0.171624,0.5646 -0.605968,0.44685 c -0.863451,0.63671 -1.346768,0.95261 -2.080635,1.35992 -0.588058,0.32637 -1.964997,0.9777 -2.066913,0.9777 -0.02346,0 1.17e-4,-0.0586 0.05239,-0.13018 z"
       style="fill:#ffffff;fill-opacity:1;stroke:#f6d683;stroke-width:0.09385891;stroke-miterlimit:4;stroke-dasharray:none;stroke-opacity:1" />
    <path
       inkscape:connector-curvature="0"
       id="path5084"
       d="m 56.320898,157.90448 v -5.19646 h 0.727775 0.727775 l -0.01777,4.99715 -0.01777,4.99715 -0.554148,0.16006 c -0.304782,0.088 -0.624283,0.17772 -0.710003,0.19931 l -0.155854,0.0393 z"
       style="fill:#ffffff;fill-opacity:1;stroke:#f6d683;stroke-width:0.09385891;stroke-miterlimit:4;stroke-dasharray:none;stroke-opacity:1" />
    <path
       inkscape:connector-curvature="0"
       id="path5086"
       d="m 58.60676,157.53433 v -4.9432 l 0.6061,-0.12337 c 0.333355,-0.0678 0.676235,-0.1387 0.761955,-0.15744 l 0.155854,-0.0341 v 4.92482 4.92482 l -0.190489,0.0432 c -0.104768,0.0237 -0.361928,0.0834 -0.571465,0.13262 -0.209538,0.0492 -0.466697,0.10888 -0.571466,0.13263 l -0.190489,0.0432 z"
       style="fill:#ffffff;fill-opacity:1;stroke:#f6d683;stroke-width:0.09385891;stroke-miterlimit:4;stroke-dasharray:none;stroke-opacity:1" />
    <path
       inkscape:connector-curvature="0"
       id="path5088"
       d="m 60.892623,157.01008 c 0,-3.94839 0.01814,-4.99523 0.08659,-4.99705 0.06895,-0.002 1.680808,-0.63576 2.043422,-0.80365 0.06886,-0.0319 0.08658,1.02867 0.08655,5.17978 l -3.4e-5,5.21987 -1.009701,0.16008 c -0.555336,0.088 -1.054055,0.17709 -1.108264,0.19789 -0.08468,0.0325 -0.09856,-0.66589 -0.09856,-4.95692 z"
       style="fill:#ffffff;fill-opacity:1;stroke:#f6d683;stroke-width:0.09385891;stroke-miterlimit:4;stroke-dasharray:none;stroke-opacity:1" />
    <path
       inkscape:connector-curvature="0"
       id="path5090"
       d="m 84.686376,161.86868 c -0.0762,-0.0198 -0.574929,-0.1021 -1.108297,-0.18291 l -0.96976,-0.14693 -0.01776,-5.16983 -0.01776,-5.16984 0.745076,0.33096 c 0.409792,0.18202 0.970369,0.40462 1.245728,0.49466 l 0.500653,0.16371 0.0015,4.86612 c 0.0015,4.59183 -0.0053,4.86566 -0.119676,4.85808 -0.06667,-0.004 -0.183561,-0.0242 -0.259757,-0.044 z"
       style="fill:#ffffff;fill-opacity:1;stroke:#f6d683;stroke-width:0.09385891;stroke-miterlimit:4;stroke-dasharray:none;stroke-opacity:1" />
    <path
       inkscape:connector-curvature="0"
       id="path5092"
       d="m 86.625896,162.23692 -0.692686,-0.15051 -0.01779,-4.83594 -0.01779,-4.83593 0.156328,0.0424 c 0.08598,0.0233 0.358938,0.0754 0.606573,0.11569 0.247635,0.0403 0.52038,0.0879 0.6061,0.10568 l 0.155854,0.0324 v 4.84748 c 0,2.66611 -0.02338,4.84338 -0.05195,4.83838 -0.02857,-0.005 -0.36366,-0.0768 -0.744637,-0.1596 z"
       style="fill:#ffffff;fill-opacity:1;stroke:#f6d683;stroke-width:0.09385891;stroke-miterlimit:4;stroke-dasharray:none;stroke-opacity:1" />
    <path
       inkscape:connector-curvature="0"
       id="path5094"
       d="m 88.929076,162.76237 -0.675369,-0.18255 v -4.93145 -4.93144 l 0.727466,-0.0218 0.727466,-0.0218 -1.46e-4,5.14319 c -8.3e-5,2.82876 -0.02352,5.13986 -0.0521,5.13578 -0.02857,-0.004 -0.355868,-0.0896 -0.72732,-0.18998 z"
       style="fill:#ffffff;fill-opacity:1;stroke:#f6d683;stroke-width:0.09385891;stroke-miterlimit:4;stroke-dasharray:none;stroke-opacity:1" />
    <path
       inkscape:connector-curvature="0"
       id="path5096"
       d="m 91.162987,163.3828 -0.588783,-0.18679 -0.01774,-5.3339 -0.01774,-5.3339 0.537255,-0.16083 c 0.295491,-0.0884 0.591805,-0.17632 0.658476,-0.19525 0.114747,-0.0326 0.12122,0.27116 0.12122,5.68832 0,3.1475 -0.02338,5.71968 -0.05195,5.71594 -0.02857,-0.004 -0.316904,-0.0909 -0.640734,-0.19359 z"
       style="fill:#ffffff;fill-opacity:1;stroke:#f6d683;stroke-width:0.09385891;stroke-miterlimit:4;stroke-dasharray:none;stroke-opacity:1" />
    <path
       inkscape:connector-curvature="0"
       id="path5098"
       d="m 63.94044,156.11118 v -5.34472 l 0.225123,-0.13983 c 0.382152,-0.23737 1.366106,-0.69221 2.164643,-1.00062 4.653838,-1.79739 10.040173,-1.55267 14.474356,0.65761 l 0.903266,0.45024 0.01774,5.3566 0.01775,5.35659 -0.190917,-0.0383 c -0.105004,-0.0211 -0.502626,-0.0707 -0.883603,-0.11017 -4.94377,-0.51274 -9.928385,-0.53546 -14.511765,-0.0662 -0.742905,0.0761 -1.545555,0.15747 -1.783665,0.1809 l -0.432929,0.0426 z"
       style="fill:#f6d683;fill-opacity:1;stroke:#f6d683;stroke-width:0.09385891;stroke-miterlimit:4;stroke-dasharray:none;stroke-opacity:1" />
    <path
       sodipodi:nodetypes="cccc"
       inkscape:connector-curvature="0"
       id="path5100"
       d="m 62.71593,148.68073 c 3.358818,-1.02753 4.392084,-1.61873 6.247384,-2.95224 2.672007,-0.21146 5.866938,-0.19865 8.367477,-0.0235 2.374257,1.72657 2.067478,1.62287 5.65558,3.08086"
       style="fill:none;fill-rule:evenodd;stroke:#f6d683;stroke-width:1px;stroke-linecap:butt;stroke-linejoin:miter;stroke-opacity:1" />
    <path
       sodipodi:nodetypes="cccc"
       inkscape:connector-curvature="0"
       id="path5100-1"
       d="m 62.97135,139.16473 c 3.358818,-1.02753 4.783926,-1.81465 6.198404,-3.00122 2.672008,-0.21146 5.866939,-0.19865 8.367478,-0.0235 2.374257,1.72657 1.761711,1.42101 5.349813,2.879"
       style="fill:none;fill-rule:evenodd;stroke:#f6d683;stroke-width:1px;stroke-linecap:butt;stroke-linejoin:miter;stroke-opacity:1" />
    <path
       sodipodi:nodetypes="cccc"
       inkscape:connector-curvature="0"
       id="path5100-1-3"
       d="m 63.901974,140.72391 c 2.330232,-0.73365 3.853301,-1.37383 5.267779,-2.5604 2.672008,-0.21146 5.86694,-0.19865 8.367479,-0.0235 1.982415,1.38371 1.773596,1.32899 4.431073,2.44412"
       style="fill:none;fill-rule:evenodd;stroke:#f6d683;stroke-width:1px;stroke-linecap:butt;stroke-linejoin:miter;stroke-opacity:1" />
    <path
       sodipodi:nodetypes="cccc"
       inkscape:connector-curvature="0"
       id="path5100-1-3-1"
       d="m 64.440756,142.72391 c 2.477173,-0.88059 2.579814,-0.88403 4.728996,-2.26652 2.672008,-0.21146 5.866941,-0.19865 8.36748,-0.0235 1.688533,1.23677 1.773596,1.28001 3.99025,2.10126"
       style="fill:none;fill-rule:evenodd;stroke:#f6d683;stroke-width:1px;stroke-linecap:butt;stroke-linejoin:miter;stroke-opacity:1" />
    <path
       sodipodi:nodetypes="cccc"
       inkscape:connector-curvature="0"
       id="path5150"
       d="m 62.298957,137.69512 c 2.835463,-0.65317 4.236506,-1.91279 6.730832,-3.43562 3.032841,-0.26903 5.253693,-0.29123 8.317231,0.0876 2.135964,1.72551 3.731317,2.52024 6.039074,3.37591"
       style="fill:none;fill-rule:evenodd;stroke:#f6d683;stroke-width:1px;stroke-linecap:butt;stroke-linejoin:miter;stroke-opacity:1" />
    <path
       sodipodi:nodetypes="cccc"
       inkscape:connector-curvature="0"
       id="path5150-2"
       d="m 62.576031,136.74268 c 2.835463,-0.65317 3.855529,-1.79157 6.349855,-3.3144 3.032841,-0.26903 5.253693,-0.29123 8.317231,0.0876 2.135964,1.72551 3.506194,2.3817 5.813951,3.23737"
       style="fill:none;fill-rule:evenodd;stroke:#f6d683;stroke-width:1px;stroke-linecap:butt;stroke-linejoin:miter;stroke-opacity:1" />
    <path
       sodipodi:nodetypes="cccc"
       inkscape:connector-curvature="0"
       id="path5150-9"
       d="m 62.332775,147.23028 c 2.835463,-0.65317 4.236506,-1.91279 6.730832,-3.43562 3.032841,-0.26903 5.253693,-0.29123 8.317231,0.0876 2.135964,1.72551 3.731317,2.52024 6.039074,3.37591"
       style="fill:none;fill-rule:evenodd;stroke:#f6d683;stroke-width:1px;stroke-linecap:butt;stroke-linejoin:miter;stroke-opacity:1" />
    <path
       sodipodi:nodetypes="cccc"
       inkscape:connector-curvature="0"
       id="path5150-9-8"
       d="m 63.090902,146.14688 c 2.835463,-0.65317 3.501802,-1.6434 5.996128,-3.16623 3.032841,-0.26903 5.253693,-0.29123 8.317231,0.0876 2.135964,1.72551 2.947633,2.29983 5.25539,3.1555"
       style="fill:none;fill-rule:evenodd;stroke:#f6d683;stroke-width:1px;stroke-linecap:butt;stroke-linejoin:miter;stroke-opacity:1" />
    <path
       sodipodi:nodetypes="cccc"
       inkscape:connector-curvature="0"
       id="path5150-9-1"
       d="m 66.057533,132.61917 c 1.852929,-0.90142 1.847656,-1.28585 3.843906,-2.81648 2.427227,-0.27041 4.204606,-0.29272 6.656403,0.088 1.709449,1.73435 1.810704,1.74947 3.461718,2.60952"
       style="fill:none;fill-rule:evenodd;stroke:#f6d683;stroke-width:0.89689118px;stroke-linecap:butt;stroke-linejoin:miter;stroke-opacity:1" />
    <path
       sodipodi:nodetypes="cccc"
       inkscape:connector-curvature="0"
       id="path5150-9-1-2"
       d="m 67.560155,129.86485 c 1.453419,-0.8297 0.968095,-0.53177 2.763705,-2.06647 2.18327,-0.27113 3.463636,-0.2935 5.669005,0.0882 1.292735,1.20019 1.363623,1.46232 3.024925,2.32466"
       style="fill:none;fill-rule:evenodd;stroke:#f6d683;stroke-width:0.85175639px;stroke-linecap:butt;stroke-linejoin:miter;stroke-opacity:1" />
    <path
       sodipodi:nodetypes="cccc"
       inkscape:connector-curvature="0"
       id="path5150-9-1-2-1"
       d="m 68.262413,127.67555 c 1.285188,-0.97901 1.02301,-0.66115 2.379694,-1.883 1.977135,-0.2721 3.204514,-0.29455 5.201663,0.0885 0.829184,1.03501 0.938581,1.22656 2.394049,2.21444"
       style="fill:none;fill-rule:evenodd;stroke:#f6d683;stroke-width:0.81200552px;stroke-linecap:butt;stroke-linejoin:miter;stroke-opacity:1" />
    <path
       sodipodi:nodetypes="cccc"
       inkscape:connector-curvature="0"
       id="path5150-9-1-2-1-1"
       d="m 68.9325,125.38817 c 1.147701,-1.07928 0.09527,-0.0557 1.57886,-1.60133 1.803883,-0.27305 3.124808,-0.29558 4.946949,0.0889 1.270441,1.75134 0.921351,1.40692 2.293967,2.2754"
       style="fill:none;fill-rule:evenodd;stroke:#f6d683;stroke-width:0.77697313px;stroke-linecap:butt;stroke-linejoin:miter;stroke-opacity:1" />
    <path
       sodipodi:nodetypes="cccc"
       inkscape:connector-curvature="0"
       id="path5150-9-1-2-1-1-6"
       d="m 69.395765,122.99736 c 1.125781,-1.0813 0.289371,-0.47213 1.083392,-1.21249 1.76943,-0.27356 3.065127,-0.29613 4.852466,0.0891 1.246177,1.75461 0.438441,0.87077 1.784841,1.74087"
       style="fill:none;fill-rule:evenodd;stroke:#f6d683;stroke-width:0.77023643px;stroke-linecap:butt;stroke-linejoin:miter;stroke-opacity:1" />
    <path
       sodipodi:nodetypes="cc"
       inkscape:connector-curvature="0"
       id="path5150-9-1-2-1-1-6-6"
       d="m 70.379465,119.59907 c 1.76943,-0.27356 3.065127,-0.29613 4.852466,0.0891"
       style="fill:none;fill-rule:evenodd;stroke:#f6d683;stroke-width:0.77023643px;stroke-linecap:butt;stroke-linejoin:miter;stroke-opacity:1" />
    <path
       sodipodi:nodetypes="cc"
       inkscape:connector-curvature="0"
       id="path5150-9-1-2-1-1-6-6-2"
       d="m 70.379465,117.59907 c 1.76943,-0.27356 3.065127,-0.29613 4.852466,0.0891"
       style="fill:none;fill-rule:evenodd;stroke:#f6d683;stroke-width:0.77023643px;stroke-linecap:butt;stroke-linejoin:miter;stroke-opacity:1" />
    <path
       sodipodi:nodetypes="cc"
       inkscape:connector-curvature="0"
       id="path5150-9-1-2-1-1-6-6-2-9"
       d="m 71.090506,115.59907 c 1.510152,-0.27356 2.615988,-0.29613 4.141425,0.0891"
       style="fill:none;fill-rule:evenodd;stroke:#f6d683;stroke-width:0.7115702px;stroke-linecap:butt;stroke-linejoin:miter;stroke-opacity:1" />
    <path
       sodipodi:nodetypes="cc"
       inkscape:connector-curvature="0"
       id="path5150-9-1-2-1-1-6-6-2-9-5"
       d="m 71.090506,113.59907 c 1.510152,-0.27356 2.615988,-0.29613 4.141425,0.0891"
       style="fill:none;fill-rule:evenodd;stroke:#f6d683;stroke-width:0.7115702px;stroke-linecap:butt;stroke-linejoin:miter;stroke-opacity:1" />
    <path
       sodipodi:nodetypes="cc"
       inkscape:connector-curvature="0"
       id="path5150-9-1-2-1-1-6-6-2-9-5-4"
       d="m 71.090507,111.59907 c 1.510151,-0.27356 2.615987,-0.29613 4.141424,0.0891"
       style="fill:none;fill-rule:evenodd;stroke:#f6d683;stroke-width:0.7115702px;stroke-linecap:butt;stroke-linejoin:miter;stroke-opacity:1" />
  </g>
  <text
     xml:space="preserve"
     style="font-style:normal;font-variant:normal;font-weight:normal;font-stretch:normal;font-size:25.52674103px;line-height:125%;font-family:Arial;-inkscape-font-specification:Arial;letter-spacing:0px;word-spacing:0px;writing-mode:lr-tb;fill:#f6d683;fill-opacity:1;stroke:none;stroke-width:0.95725286px;stroke-linecap:butt;stroke-linejoin:miter;stroke-opacity:1"
     x="60.005501"
     y="165.32541"
     id="text5475"
     transform="scale(0.95725285,1.0446561)"><tspan
       sodipodi:role="line"
       id="tspan5473"
       x="60.005501"
       y="165.32541"
       style="font-style:normal;font-variant:normal;font-weight:bold;font-stretch:normal;font-size:12.76337051px;font-family:Cambria;-inkscape-font-specification:'Cambria Bold';fill:#f6d683;fill-opacity:1;stroke-width:0.95725286px">1720</tspan></text>
  <path
     style="fill:#f6d683;fill-rule:evenodd;stroke:#f6d683;stroke-width:1px;stroke-linecap:butt;stroke-linejoin:miter;stroke-opacity:1;fill-opacity:1"
     d="m 51.139194,168.34865 c 0.764218,-0.56255 2.350063,-1.3817 3.816673,-1.90075"
     id="path5477"
     inkscape:connector-curvature="0"
     sodipodi:nodetypes="cc" />
  <path
     style="fill:#f6d683;fill-opacity:1;fill-rule:evenodd;stroke:#f6d683;stroke-width:1px;stroke-linecap:butt;stroke-linejoin:miter;stroke-opacity:1"
     d="m 51.691898,170.76389 c 0.764218,-0.56255 2.350063,-1.3817 3.816673,-1.90075"
     id="path5477-9"
     inkscape:connector-curvature="0"
     sodipodi:nodetypes="cc" />
  <path
     style="fill:#f6d683;fill-opacity:1;fill-rule:evenodd;stroke:#f6d683;stroke-width:1px;stroke-linecap:butt;stroke-linejoin:miter;stroke-opacity:1"
     d="m 52.377622,173.01698 c 0.764218,-0.56255 2.350063,-1.3817 3.816673,-1.90075"
     id="path5477-9-6"
     inkscape:connector-curvature="0"
     sodipodi:nodetypes="cc" />
  <path
     style="fill:#f6d683;fill-opacity:1;fill-rule:evenodd;stroke:#f6d683;stroke-width:1px;stroke-linecap:butt;stroke-linejoin:miter;stroke-opacity:1"
     d="m 53.112327,175.27007 c 0.764218,-0.56255 2.350063,-1.3817 3.816673,-1.90075"
     id="path5477-9-6-1"
     inkscape:connector-curvature="0"
     sodipodi:nodetypes="cc" />
  <path
     style="fill:#f6d683;fill-opacity:1;fill-rule:evenodd;stroke:#f6d683;stroke-width:1px;stroke-linecap:butt;stroke-linejoin:miter;stroke-opacity:1"
     d="m 44.670326,172.68155 c 0.764218,-0.56255 2.350063,-1.3817 3.816673,-1.90075"
     id="path5477-6"
     inkscape:connector-curvature="0"
     sodipodi:nodetypes="cc" />
  <path
     style="fill:#f6d683;fill-opacity:1;fill-rule:evenodd;stroke:#f6d683;stroke-width:1px;stroke-linecap:butt;stroke-linejoin:miter;stroke-opacity:1"
     d="m 45.22303,175.09679 c 0.764218,-0.56255 2.350063,-1.3817 3.816673,-1.90075"
     id="path5477-9-65"
     inkscape:connector-curvature="0"
     sodipodi:nodetypes="cc" />
  <path
     style="fill:#f6d683;fill-opacity:1;fill-rule:evenodd;stroke:#f6d683;stroke-width:1px;stroke-linecap:butt;stroke-linejoin:miter;stroke-opacity:1"
     d="m 45.908754,177.34988 c 0.764218,-0.56255 2.350063,-1.3817 3.816673,-1.90075"
     id="path5477-9-6-2"
     inkscape:connector-curvature="0"
     sodipodi:nodetypes="cc" />
  <path
     style="fill:#f6d683;fill-opacity:1;fill-rule:evenodd;stroke:#f6d683;stroke-width:1px;stroke-linecap:butt;stroke-linejoin:miter;stroke-opacity:1"
     d="m 46.643459,179.60297 c 0.764218,-0.56255 2.350063,-1.3817 3.816673,-1.90075"
     id="path5477-9-6-1-0"
     inkscape:connector-curvature="0"
     sodipodi:nodetypes="cc" />
  <path
     style="fill:#f6d683;fill-opacity:1;fill-rule:evenodd;stroke:#f6d683;stroke-width:1px;stroke-linecap:butt;stroke-linejoin:miter;stroke-opacity:1"
     d="m 94.167427,168.70099 c -0.764217,-0.56255 -2.350062,-1.3817 -3.816672,-1.90075"
     id="path5477-6-1"
     inkscape:connector-curvature="0"
     sodipodi:nodetypes="cc" />
  <path
     style="fill:#f6d683;fill-opacity:1;fill-rule:evenodd;stroke:#f6d683;stroke-width:1px;stroke-linecap:butt;stroke-linejoin:miter;stroke-opacity:1"
     d="m 93.614723,171.11623 c -0.764217,-0.56255 -2.350062,-1.3817 -3.816672,-1.90075"
     id="path5477-9-65-1"
     inkscape:connector-curvature="0"
     sodipodi:nodetypes="cc" />
  <path
     style="fill:#f6d683;fill-opacity:1;fill-rule:evenodd;stroke:#f6d683;stroke-width:1px;stroke-linecap:butt;stroke-linejoin:miter;stroke-opacity:1"
     d="m 92.929,173.36932 c -0.764218,-0.56255 -2.350063,-1.3817 -3.816673,-1.90075"
     id="path5477-9-6-2-9"
     inkscape:connector-curvature="0"
     sodipodi:nodetypes="cc" />
  <path
     style="fill:#f6d683;fill-opacity:1;fill-rule:evenodd;stroke:#f6d683;stroke-width:1px;stroke-linecap:butt;stroke-linejoin:miter;stroke-opacity:1"
     d="m 92.194295,175.62241 c -0.764218,-0.56255 -2.350063,-1.3817 -3.816673,-1.90075"
     id="path5477-9-6-1-0-5"
     inkscape:connector-curvature="0"
     sodipodi:nodetypes="cc" />
  <path
     style="fill:#f6d683;fill-opacity:1;fill-rule:evenodd;stroke:#f6d683;stroke-width:1px;stroke-linecap:butt;stroke-linejoin:miter;stroke-opacity:1"
     d="m 100.63732,173.34928 c -0.764214,-0.56255 -2.350059,-1.3817 -3.816669,-1.90075"
     id="path5477-6-1-3"
     inkscape:connector-curvature="0"
     sodipodi:nodetypes="cc" />
  <path
     style="fill:#f6d683;fill-opacity:1;fill-rule:evenodd;stroke:#f6d683;stroke-width:1px;stroke-linecap:butt;stroke-linejoin:miter;stroke-opacity:1"
     d="m 100.08462,175.76452 c -0.764218,-0.56255 -2.350063,-1.3817 -3.816673,-1.90075"
     id="path5477-9-65-1-2"
     inkscape:connector-curvature="0"
     sodipodi:nodetypes="cc" />
  <path
     style="fill:#f6d683;fill-opacity:1;fill-rule:evenodd;stroke:#f6d683;stroke-width:1px;stroke-linecap:butt;stroke-linejoin:miter;stroke-opacity:1"
     d="m 99.398896,178.01761 c -0.764218,-0.56255 -2.350063,-1.3817 -3.816673,-1.90075"
     id="path5477-9-6-2-9-2"
     inkscape:connector-curvature="0"
     sodipodi:nodetypes="cc" />
  <path
     style="fill:#f6d683;fill-opacity:1;fill-rule:evenodd;stroke:#f6d683;stroke-width:1px;stroke-linecap:butt;stroke-linejoin:miter;stroke-opacity:1"
     d="m 98.664191,180.2707 c -0.764218,-0.56255 -2.350063,-1.3817 -3.816673,-1.90075"
     id="path5477-9-6-1-0-5-4"
     inkscape:connector-curvature="0"
     sodipodi:nodetypes="cc" />
  <text
     xml:space="preserve"
     style="font-style:normal;font-variant:normal;font-weight:normal;font-stretch:normal;font-size:7.90347004px;line-height:125%;font-family:Arial;-inkscape-font-specification:Arial;text-align:center;letter-spacing:0px;word-spacing:0px;writing-mode:lr-tb;text-anchor:middle;fill:#000000;fill-opacity:1;stroke:none;stroke-width:0.29638013px;stroke-linecap:butt;stroke-linejoin:miter;stroke-opacity:1"
     x="64.712143"
     y="7.2039151"
     id="text4538-9"
     transform="scale(0.8043862,1.2431839)"><tspan
       sodipodi:role="line"
       x="64.712143"
       y="7.2039151"
       id="tspan4540-6"
       style="font-style:normal;font-variant:normal;font-weight:bold;font-stretch:normal;line-height:105.99999428%;font-family:Arial;-inkscape-font-specification:'Arial Bold';fill:#ffffff;stroke-width:0.29638013px">―</tspan></text>
</svg>
