<svg xmlns="http://www.w3.org/2000/svg" width="300" height="450" viewBox="0 0 79.375 119.063"><g transform="translate(0 -177.937)"><path d="M.282 181.515H79.01v77.63c-2.968 29.016-26.936 35.127-39.354 35.076-17.456-.073-36.572-6.562-39.374-34.793Z" style="fill:#00aad4;fill-opacity:1;fill-rule:evenodd;stroke:#00aad4;stroke-width:.14112107px;stroke-linecap:butt;stroke-linejoin:miter;stroke-opacity:1"/><path d="M2.655 207.489h73.81l.401 51.43c-3.49 22.55-17.33 32.115-37.296 32.247-26.15.173-35.533-14.703-37.049-31.887Z" style="fill:#00aad4;fill-opacity:1;fill-rule:evenodd;stroke:none;stroke-width:.11773901px;stroke-linecap:butt;stroke-linejoin:miter;stroke-opacity:1"/><path d="m30.273 291.037-.01-22.37 3.08-.008-.09-1.921 12.934.052-.052 1.87 2.885-.001.133 23.074z" style="fill:#ff0;fill-opacity:1;fill-rule:evenodd;stroke:none;stroke-width:.13060714px;stroke-linecap:butt;stroke-linejoin:miter;stroke-opacity:1"/><path d="M2.577 184.748h73.934v20.223H2.577z" style="fill:#00aad4;fill-opacity:1;stroke:#00aad4;stroke-width:.19654427;stroke-miterlimit:4;stroke-dasharray:none;stroke-opacity:1"/><path d="M9.452 202.01c-.444-.105-.53-.177-.53-.437 0-.248.192-.437.93-.916l.932-.605-.033-5.637-.034-5.637H9.5c-1.204 0-1.219.004-1.255.315-.021.18.186.746.48 1.315.58 1.12.643 1.646.253 2.134-.306.382-.882.446-1.2.134-.289-.284-.25-.596.119-.936.176-.163.32-.367.32-.453 0-.158-.638-.733-1.91-1.72-.382-.295-.81-.69-.95-.876-.244-.323-.246-.355-.038-.667.12-.18.364-.382.541-.448.19-.07 2.802-.119 6.31-.116 6.431.005 6.698.03 6.86.64.13.486-.02.65-2.08 2.274-.979.772-1.026.878-.612 1.362.405.473.425.648.109.93-.36.319-.86.26-1.18-.139-.375-.467-.294-1.069.322-2.39.265-.568.447-1.123.405-1.233-.065-.164-.28-.192-1.266-.162l-1.189.036-.033 5.64c-.038 6.385-.162 5.675 1.123 6.426.843.491.998.897.426 1.112-.468.177-4.907.219-5.602.054zm11.638.108c-.497-.106-.938-.704-1.082-1.47-.331-1.762.878-5.524 3.24-10.073.516-.997.865-1.816.821-1.928-.06-.153-.24-.188-.815-.158-.665.034-.743.067-.782.334-.027.191.08.423.3.648.33.338.334.365.14.735-.112.21-.263.42-.337.465-.13.079-1.021-.565-1.558-1.124-.688-.715-.74-1.427-.127-1.72.413-.197 8.8-.4 9.857-.237.806.123 1.245.387 1.45.871.317.755-.198 1.64-1.382 2.37a564.74 564.74 0 0 1-3.728 2.236c-4.706 2.805-5.033 3.094-5.126 4.54-.071 1.095.176 1.5.86 1.41l.472-.063-.009 1.099c-.009 1.151-.179 1.618-.689 1.886-.297.156-1.14.256-1.505.179zm5.024-9.546c1.688-1.012 3.159-1.91 3.268-1.997.39-.312.635-.79.635-1.242 0-.525-.237-.782-.666-.722-.27.038-.297.108-.309.797l-.013.757-1.013.65c-.556.357-1.047.628-1.09.602-.043-.027-.151-.386-.24-.8-.217-1-.547-1.524-.962-1.524-.543 0-1.21 1.066-2.248 3.592-.2.485-.458 1.102-.575 1.371-.168.39-.175.476-.034.423.098-.037 1.559-.895 3.247-1.907zm1.648 9.478c-.873-.23-.804-.64.21-1.254.805-.486.804-.45.056-4.142-.316-1.56-.575-2.928-.575-3.043 0-.228 1.933-1.417 2.061-1.267.043.049.323 1.251.623 2.672 1.007 4.77 1.136 5.146 1.902 5.53.608.306 1.184.829 1.184 1.076 0 .39-.524.482-2.845.498-1.26.009-2.437-.023-2.616-.07zm7.248.004c-.493-.099-.822-.399-.722-.656.04-.105.41-.4.82-.657.409-.256.786-.53.838-.607.145-.216.12-10.389-.027-10.657-.068-.126-.447-.44-.84-.696-1.253-.817-.939-1.001 2.055-1.209 4.124-.285 6.639.273 8.086 1.794.719.754 1.03 1.417 1.215 2.591.406 2.572-1.009 4.505-3.625 4.953-1.519.26-3.254-.311-3.911-1.287-.437-.648-.465-1.587-.062-2.078.16-.196.38-.548.489-.781.183-.395.23-.42.662-.35.603.095.919.417 1.015 1.034.109.7.361.938.996.938 1.043 0 1.604-.815 1.608-2.338.005-1.495-.665-2.498-2.113-3.162-.697-.32-1.945-.403-2.568-.17l-.34.128.037 1.983.037 1.984-.361.533c-.321.472-.356.62-.307 1.292.039.517.145.877.337 1.131.248.33.28.537.287 1.796.011 2.096.077 2.34.764 2.83 1.13.808 1.28.946 1.28 1.17 0 .422-.651.543-3.011.558-1.229.008-2.416-.022-2.639-.067zm13.523.063c-.498-.105-.938-.704-1.082-1.47-.331-1.761.878-5.524 3.239-10.073.517-.996.866-1.815.822-1.928-.06-.152-.24-.187-.815-.158-.666.034-.743.068-.782.335-.027.191.08.423.3.648.329.338.334.364.14.734-.112.212-.263.421-.338.466-.128.078-1.02-.565-1.557-1.124-.688-.715-.74-1.427-.127-1.72.413-.198 8.8-.4 9.857-.238.806.124 1.245.388 1.449.872.318.755-.197 1.64-1.381 2.37-.333.206-2.01 1.212-3.728 2.235-4.707 2.806-5.033 3.094-5.126 4.541-.071 1.095.175 1.5.86 1.409l.472-.062-.009 1.099c-.009 1.151-.18 1.617-.689 1.885-.297.156-1.14.257-1.505.18zm5.024-9.545c1.688-1.012 3.158-1.91 3.268-1.998.39-.311.635-.789.635-1.241 0-.526-.237-.782-.666-.722-.27.037-.297.108-.31.797l-.012.756-1.013.65c-.556.357-1.047.628-1.09.602-.043-.026-.152-.386-.24-.8-.217-.999-.547-1.523-.962-1.523-.543 0-1.21 1.066-2.248 3.592-.2.485-.458 1.102-.575 1.371-.168.39-.175.476-.034.423.098-.037 1.559-.895 3.247-1.907zm1.648 9.478c-.874-.23-.805-.64.21-1.254.805-.486.804-.45.056-4.142-.316-1.56-.575-2.929-.576-3.043 0-.229 1.934-1.418 2.062-1.268.042.05.322 1.252.623 2.673 1.007 4.77 1.136 5.145 1.902 5.53.608.306 1.184.829 1.184 1.075 0 .39-.524.482-2.845.499-1.26.009-2.437-.023-2.616-.07zm8.792-.004c-.672-.113-1.57-.622-1.899-1.077a2.497 2.497 0 0 1-.2-2.567c.394-.77 1.44-1.262 2.135-1.003.293.11.316.171.258.683-.099.86.124.95 2.338.953 1.011.002 1.952-.057 2.155-.136.505-.195.858-.937.858-1.803 0-1.763-1.257-2.89-3.674-3.295-1.164-.195-1.764-.45-1.68-.715.072-.225 1.006-.655 2.822-1.297 1.932-.684 2.404-1.032 2.404-1.773 0-.624-.282-1.015-.947-1.311-1.093-.488-3.285-.195-3.285.44 0 .212.15.338.641.543.573.237.642.308.642.655 0 .404-.108.484-.342.254-.098-.095-.364-.094-.915.004-1.998.356-3.308-.948-2.199-2.19.545-.609 1.786-.881 3.969-.87 3.244.017 4.78.666 5.06 2.142.278 1.451-1.136 2.432-4.163 2.888-.74.112-1.396.249-1.456.304-.16.147.224.312 1.448.621 1.2.304 2.778.978 3.427 1.464.598.448 1.03 1.244 1.2 2.212.346 1.968-.57 3.862-2.241 4.634-.582.268-.807.29-3.223.31-1.429.01-2.839-.02-3.133-.07z" style="fill:#fff;stroke:none;stroke-width:.39929417;stroke-miterlimit:4;stroke-dasharray:none"/><path d="M32.98 278.882c-.092-3.917 3.492-5.32 6.488-5.35 4.104-.04 7.074 2.714 7.012 5.032v12.462s-3.181.46-7.043.46c-3.178 0-6.457-.355-6.457-.355z" style="fill:#00aad4;fill-rule:evenodd;stroke:#00aad4;stroke-width:.13141133px;stroke-linecap:butt;stroke-linejoin:miter;stroke-opacity:1;fill-opacity:1"/><path d="M5.36 272.17h2.873l.13-2.447h1.31c.349 2.095.349 2.446.349 2.446 2.225.087 2.269 0 2.269 0 .436-2.487.436-2.446.436-2.446h1.484c-.873 3.971-.873 4.32-.873 4.32H7.753v1.366h5.149l-.524 5.428 1.44 1.221 1.79-12.875H28.74l.088 22.039-11.302-4.145-5.847-4.364-4.887-6.327zM16.087 267.85h12.742l.13-4.067h-1.55l-.088 2.446h-1.634l-.087-2.446H23.48l.068 2.446h-1.79l-.087-2.446H19.73l-.088 2.446h-1.983l-.044-2.446h-1.507zM73.669 272.17h-2.701l-.131-2.447h-1.31c-.349 2.095-.349 2.446-.349 2.446-2.225.087-2.269 0-2.269 0-.436-2.487-.436-2.446-.436-2.446h-1.484c.873 3.971.873 4.32.873 4.32h5.586v1.366h-5.15l.917 6.213-1.686 1.292-1.936-13.73H50.459l-.088 22.038 10.866-4.887 5.978-4.713 4.804-6.213zM63.399 267.85H50.657l-.13-4.067h1.55l.088 2.446h1.634l.087-2.446h2.119l-.068 2.446h1.79l.086-2.446h1.944l.088 2.446h1.983l.044-2.446h1.507z" style="fill:#ff0;fill-opacity:1;fill-rule:evenodd;stroke:none;stroke-width:.14287499px;stroke-linecap:butt;stroke-linejoin:miter;stroke-opacity:1"/><ellipse cx="39.627" cy="280.61" rx="5.678" ry="5.709" style="fill:none;fill-opacity:1;stroke:#fff;stroke-width:.59615999;stroke-miterlimit:4;stroke-dasharray:none;stroke-opacity:1"/><path d="m42.244 275.554-7.362 7.887M43.64 276.458l-7.872 8.18M44.45 277.808l-7.363 7.887M35.784 276.542l7.87 8.18M37.087 275.586l7.362 7.887M34.837 277.656l7.45 8.067" style="fill:none;fill-rule:evenodd;stroke:#fff;stroke-width:.59615999;stroke-linecap:butt;stroke-linejoin:miter;stroke-miterlimit:4;stroke-dasharray:none;stroke-opacity:1"/><path d="M76.754 250.156s-6.223 2.102-12.587-.009c0 0-7.15-2.404-17.148.258 0 0-9.065 2.39-15.722.05 0 0-8.18-3.012-17.502-.346 0 0-7.683 2-11.235-.44v5.324c3.552 2.44 11.235.44 11.235.44 9.321-2.666 17.502.347 17.502.347 6.657 2.34 15.722-.051 15.722-.051 9.999-2.662 17.148-.258 17.148-.258 6.364 2.112 12.587.01 12.587.01z" style="fill:#000;fill-opacity:1;fill-rule:evenodd;stroke:#000;stroke-width:.13100125px;stroke-linecap:butt;stroke-linejoin:miter;stroke-opacity:1"/><path d="M76.754 250.244s-6.223 2.482-12.587-.01c0 0-7.15-2.839-17.148.304 0 0-9.065 2.823-15.722.06 0 0-8.18-3.558-17.502-.41 0 0-7.683 2.361-11.235-.519v-1.802c3.552 2.88 11.235.52 11.235.52 9.321-3.15 17.502.408 17.502.408 6.657 2.764 15.722-.06 15.722-.06 9.999-3.142 17.148-.304 17.148-.304 6.364 2.493 12.587.01 12.587.01z" style="fill:#ff0;fill-rule:evenodd;stroke:#ff0;stroke-width:.14234929px;stroke-linecap:butt;stroke-linejoin:miter;stroke-opacity:1"/><path d="M76.776 257.085s-6.226 2.482-12.591-.01c0 0-7.152-2.839-17.153.304 0 0-9.067 2.823-15.727.06 0 0-8.183-3.558-17.507-.41 0 0-7.685 2.361-11.238-.519v-1.802c3.553 2.88 11.238.519 11.238.519 9.324-3.149 17.507.409 17.507.409 6.66 2.763 15.727-.06 15.727-.06 10.001-3.142 17.153-.304 17.153-.304 6.365 2.493 12.59.01 12.59.01z" style="fill:#ff0;fill-rule:evenodd;stroke:#ff0;stroke-width:.14236969px;stroke-linecap:butt;stroke-linejoin:miter;stroke-opacity:1"/><path d="m39.674 208.663-6.22 5.98H24.88v8.386l-5.651 6.365 5.651 5.77v8.1h8.661l5.673 5.98 5.847-5.98H53.5v-8.1l6.485-5.818-6.485-6.317v-8.386h-8.439z" style="fill:#ff0;fill-rule:evenodd;stroke:#ff0;stroke-width:.14287499px;stroke-linecap:butt;stroke-linejoin:miter;stroke-opacity:1"/><path d="m39.482 211.239-5.13 5.25h-7.467v7.363l-5.206 5.302 5.206 5.35v7.112h7.542l4.94 5.25 5.09-5.25h7.349v-7.111l5.36-5.107-5.36-5.546v-7.362h-7.348z" style="fill:#00aad4;fill-opacity:1;fill-rule:evenodd;stroke:#00aad4;stroke-width:.14309999;stroke-linecap:butt;stroke-linejoin:miter;stroke-miterlimit:4;stroke-dasharray:none;stroke-opacity:1"/><path d="M39.455 220.84c2.051.96.786 1.701.786 1.701 1.527.262 1.527 1.397 1.527 1.397-.35 1.614-1.527.916-1.527.916-1.746-1.134-2.575.306-2.575.306l-.087 2.4c.785 3.01 1.767 2.397 3.01 2.443 1.232.046 2.297.526 3.099 1.31.936.913 1.662 2.27 1.614 3.577-.03.855-1.221 2.258-1.221 2.258s.996.094 1.396-.143c.548-.325.745-1.064.916-1.678.266-.954.237-1.983.131-2.967-.121-1.137-.852-2.174-.873-3.317-.027-1.52-.145-3.455 1.004-4.45.766-.665 2.744-1.213 3.033-.24.186.626-1.273.413-1.724.938-.81.942-.443 2.466-.393 3.709.058 1.405.944 2.748.786 4.145-.188 1.657-.641 3.626-2.007 4.582-.753.526-2.75.174-2.75.174s-1.188.868-1.876 1.091c-.96.312-3.01.306-3.01.306s-1.9 1.095-2.367.32c-.466-.775.841-.406 1.45-1.542.165-.308-.131-.724 0-1.047.267-.658 1.362-.828 1.484-1.528.06-.346-.14-.772-.437-.96-.664-.419-1.62.32-2.356.044-.386-.145-.505-.852-.916-.83-.35.02-.699.786-.699.786-.13 3.404.67 2.623-.13 3.448-.458.47-1.677.72-1.964.13-.086-.176.331-.25.393-.436.383-1.166-.357-3.666-.357-3.666-.356-.132.207-.626.007-.916-.416-.604-1.649.024-2.138-.523-.38-.427-.1-1.142-.218-1.702-.284-1.36-2.35-3.02-1.17-4.001 1.181-.982 1.13 2.891 2.392 3.565.41.219 1.047.308 1.396 0 .264-.233.24-.713.131-1.048-.105-.323-.58-.423-.698-.742-.683-1.859-.439-4.098.305-5.934.29-.716.878-1.327 1.528-1.745 1.226-.79 4.189-1.266 4.189-1.266z" style="fill:#ff0;fill-opacity:1;fill-rule:evenodd;stroke:none;stroke-width:.14287499px;stroke-linecap:butt;stroke-linejoin:miter;stroke-opacity:1"/><path d="M1.213 182.847v76.071c2.735 27.565 21.4 33.9 38.443 33.97 12.124.051 35.526-5.916 38.423-34.246v-75.795zm1.364 1.901H76.51v20.223H2.577Zm.077 22.74h73.812l.4 51.431c-3.49 22.55-17.33 32.115-37.297 32.247-26.15.173-35.532-14.703-37.048-31.887z" style="fill:#ff0;fill-opacity:1;fill-rule:evenodd;stroke:#ff0;stroke-width:.13778603px;stroke-linecap:butt;stroke-linejoin:miter;stroke-opacity:1"/></g></svg>