<?xml version="1.0" encoding="UTF-8" standalone="no"?>
<!-- Created with Inkscape (http://www.inkscape.org/) -->

<svg
   xmlns:dc="http://purl.org/dc/elements/1.1/"
   xmlns:cc="http://creativecommons.org/ns#"
   xmlns:rdf="http://www.w3.org/1999/02/22-rdf-syntax-ns#"
   xmlns:svg="http://www.w3.org/2000/svg"
   xmlns="http://www.w3.org/2000/svg"
   xmlns:sodipodi="http://sodipodi.sourceforge.net/DTD/sodipodi-0.dtd"
   xmlns:inkscape="http://www.inkscape.org/namespaces/inkscape"
   width="300"
   height="450"
   viewBox="0 0 79.374998 119.0625"
   version="1.1"
   id="svg8"
   inkscape:version="0.92.1 r15371"
   sodipodi:docname="тараз герб.svg">
  <defs
     id="defs2" />
  <sodipodi:namedview
     id="base"
     pagecolor="#ffffff"
     bordercolor="#666666"
     borderopacity="1.0"
     inkscape:pageopacity="0.0"
     inkscape:pageshadow="2"
     inkscape:zoom="1.9778097"
     inkscape:cx="137.7703"
     inkscape:cy="48.928843"
     inkscape:document-units="mm"
     inkscape:current-layer="layer1"
     showgrid="false"
     inkscape:window-width="901"
     inkscape:window-height="777"
     inkscape:window-x="1020"
     inkscape:window-y="68"
     inkscape:window-maximized="0"
     units="px" />
  <metadata
     id="metadata5">
    <rdf:RDF>
      <cc:Work
         rdf:about="">
        <dc:format>image/svg+xml</dc:format>
        <dc:type
           rdf:resource="http://purl.org/dc/dcmitype/StillImage" />
        <dc:title />
      </cc:Work>
    </rdf:RDF>
  </metadata>
  <g
     inkscape:label="レイヤー 1"
     inkscape:groupmode="layer"
     id="layer1"
     transform="translate(0,-177.93746)">
    <path
       style="fill:#00aad4;fill-opacity:1;fill-rule:evenodd;stroke:#00aad4;stroke-width:0.14112107px;stroke-linecap:butt;stroke-linejoin:miter;stroke-opacity:1"
       d="M 0.28219818,181.5152 H 79.009523 v 77.62951 C 76.0417,288.16096 52.074226,294.27222 39.655964,294.22057 22.199793,294.14798 3.0840978,287.65945 0.28219818,259.42803 Z"
       id="path4513-8"
       inkscape:connector-curvature="0"
       sodipodi:nodetypes="cccscc" />
    <path
       style="fill:#00aad4;fill-opacity:1;fill-rule:evenodd;stroke:none;stroke-width:0.11773901px;stroke-linecap:butt;stroke-linejoin:miter;stroke-opacity:1"
       d="M 2.6546282,207.489 H 76.465789 l 0.400399,51.43043 C 73.376044,281.46939 59.536929,291.03351 39.569686,291.16581 13.4196,291.33907 4.0368711,276.46252 2.5211613,259.27899 Z"
       id="path4513-4"
       inkscape:connector-curvature="0"
       sodipodi:nodetypes="cccscc" />
    <path
       style="fill:#ffff00;fill-opacity:1;fill-rule:evenodd;stroke:none;stroke-width:0.13060714px;stroke-linecap:butt;stroke-linejoin:miter;stroke-opacity:1"
       d="m 30.273159,291.03662 -0.01004,-22.36931 3.079161,-0.008 -0.09,-1.92155 12.934766,0.0526 -0.05168,1.86892 2.884556,-2.5e-4 0.133466,23.07404 z"
       id="path4538"
       inkscape:connector-curvature="0"
       sodipodi:nodetypes="ccccccccc" />
    <rect
       style="fill:#00aad4;fill-opacity:1;stroke:#00aad4;stroke-width:0.19654427;stroke-miterlimit:4;stroke-dasharray:none;stroke-opacity:1"
       id="rect4546"
       width="73.934219"
       height="20.222935"
       x="2.5768266"
       y="184.7482" />
    <path
       style="fill:#ffffff;stroke:none;stroke-width:0.39929417;stroke-miterlimit:4;stroke-dasharray:none"
       d="m 9.4522946,202.01003 c -0.4440706,-0.1055 -0.5303891,-0.17671 -0.5303891,-0.43752 0,-0.24724 0.1921061,-0.43622 0.931041,-0.91591 l 0.9310405,-0.60439 -0.03338,-5.63692 -0.03338,-5.63691 H 9.4989689 c -1.2041227,0 -1.218686,0.004 -1.2552316,0.31504 -0.021065,0.17948 0.1858529,0.74525 0.4808911,1.31489 0.58021,1.12022 0.6423343,1.64602 0.2520822,2.13355 -0.3057507,0.38196 -0.8819668,0.44632 -1.1997892,0.13401 -0.2888747,-0.28387 -0.2491474,-0.59618 0.1190775,-0.93612 0.1763268,-0.16278 0.3205942,-0.36649 0.3205942,-0.45269 0,-0.15816 -0.6386596,-0.73264 -1.911398,-1.7193 -0.3812238,-0.29554 -0.8084005,-0.69005 -0.9492768,-0.87668 -0.2440422,-0.3233 -0.2458139,-0.35482 -0.037519,-0.66721 0.1202413,-0.18033 0.3636274,-0.38205 0.5408564,-0.44826 0.1888019,-0.0705 2.8012716,-0.11835 6.3089933,-0.11546 6.432114,0.005 6.699136,0.0302 6.861425,0.64004 0.129325,0.48597 -0.02,0.64918 -2.08056,2.27404 -0.978656,0.77172 -1.026483,0.8781 -0.612265,1.36184 0.404901,0.47286 0.425406,0.64781 0.108913,0.92927 -0.358955,0.31922 -0.859137,0.26069 -1.179299,-0.13799 -0.375569,-0.46769 -0.294734,-1.06914 0.321141,-2.38948 0.265479,-0.56914 0.44779,-1.12418 0.405135,-1.23341 -0.06436,-0.16482 -0.279682,-0.19244 -1.265919,-0.16234 l -1.188365,0.0362 -0.03338,5.63933 c -0.0378,6.38541 -0.161853,5.67579 1.123399,6.42599 0.84253,0.49179 0.997813,0.89774 0.425664,1.11282 -0.468469,0.1761 -4.907421,0.21851 -5.6018462,0.0535 z m 11.6377854,0.10766 c -0.497551,-0.10586 -0.937905,-0.70406 -1.081951,-1.46977 -0.331436,-1.76183 0.878285,-5.52414 3.238932,-10.07327 0.517138,-0.99656 0.866374,-1.81537 0.822361,-1.92808 -0.05951,-0.15238 -0.240648,-0.18749 -0.815416,-0.15806 -0.665471,0.0341 -0.743172,0.0674 -0.781709,0.33497 -0.02751,0.19101 0.07932,0.42239 0.299084,0.6478 0.329704,0.33817 0.334683,0.36432 0.13988,0.7345 -0.111096,0.21112 -0.262576,0.42064 -0.336624,0.46561 -0.128763,0.0782 -1.020718,-0.56539 -1.557857,-1.12407 -0.687695,-0.71528 -0.740188,-1.42711 -0.126857,-1.72026 0.412836,-0.19733 8.79972,-0.39935 9.856781,-0.23743 0.806482,0.12354 1.245343,0.38742 1.449401,0.87153 0.318135,0.75474 -0.197393,1.63957 -1.381177,2.3706 -0.333072,0.20568 -2.01062,1.21141 -3.727885,2.23494 -4.706477,2.80519 -5.0326,3.09406 -5.12635,4.54087 -0.07093,1.0946 0.175831,1.49882 0.859931,1.40865 l 0.472115,-0.0622 -0.0085,1.09902 c -0.0089,1.15123 -0.179228,1.61746 -0.689011,1.88556 -0.296943,0.15617 -1.140968,0.25661 -1.505186,0.17911 z m 5.024003,-9.54545 c 1.688148,-1.01181 3.158567,-1.91075 3.2676,-1.99765 0.391078,-0.3117 0.635303,-0.78906 0.635303,-1.24175 0,-0.52516 -0.236633,-0.78149 -0.66619,-0.72165 -0.269362,0.0375 -0.296763,0.10826 -0.308783,0.79727 l -0.01319,0.75609 -1.012371,0.64976 c -0.556803,0.35736 -1.047558,0.62838 -1.090568,0.60226 -0.04301,-0.0261 -0.151284,-0.38592 -0.240612,-0.79956 -0.215871,-0.9996 -0.546565,-1.52359 -0.961556,-1.52359 -0.542517,0 -1.209669,1.06588 -2.247952,3.59145 -0.199453,0.48516 -0.457914,1.10233 -0.574358,1.3715 -0.16875,0.39007 -0.175689,0.4758 -0.0342,0.42245 0.09763,-0.0368 1.558729,-0.89478 3.246876,-1.90658 z m 1.647791,9.47805 c -0.87328,-0.22974 -0.804226,-0.64018 0.210983,-1.25402 0.80413,-0.48621 0.803641,-0.44949 0.05505,-4.14191 -0.316158,-1.55944 -0.575021,-2.92875 -0.575253,-3.0429 -5.39e-4,-0.22869 1.933014,-1.41778 2.061714,-1.26796 0.04221,0.0491 0.322243,1.25183 0.622295,2.67266 1.00739,4.77026 1.13648,5.14549 1.902707,5.5305 0.607901,0.30545 1.183555,0.82825 1.183555,1.07488 0,0.39047 -0.523658,0.48221 -2.844962,0.49847 -1.259529,0.009 -2.436769,-0.0226 -2.61609,-0.0697 z m 7.248323,0.004 c -0.492779,-0.0991 -0.82266,-0.39895 -0.722127,-0.6564 0.04087,-0.10467 0.409434,-0.40014 0.819021,-0.6566 0.409588,-0.25646 0.787101,-0.52964 0.83892,-0.60705 0.144738,-0.21627 0.119211,-10.38895 -0.02674,-10.65694 -0.06869,-0.12612 -0.447007,-0.43941 -0.840711,-0.69621 -1.252344,-0.81686 -0.938182,-1.00158 2.055615,-1.20864 4.124129,-0.28524 6.6384,0.27232 8.086027,1.79314 0.718556,0.75488 1.029132,1.41763 1.214492,2.5916 0.406075,2.57183 -1.008601,4.50474 -3.624599,4.9524 -1.518992,0.25994 -3.254143,-0.31084 -3.911265,-1.28662 -0.436485,-0.64814 -0.464495,-1.58741 -0.06197,-2.07823 0.160637,-0.19587 0.380719,-0.54726 0.489069,-0.78087 0.183182,-0.39494 0.22962,-0.41953 0.662049,-0.35057 0.602971,0.0961 0.918684,0.41812 1.014782,1.03487 0.109017,0.6997 0.361674,0.93759 0.995786,0.93759 1.043051,0 1.603987,-0.81519 1.608804,-2.33805 0.0049,-1.49519 -0.665026,-2.49741 -2.113096,-3.16196 -0.697464,-0.32008 -1.944771,-0.40233 -2.568331,-0.16936 l -0.340873,0.12735 0.03769,1.98341 0.03768,1.98341 -0.361917,0.53339 c -0.320626,0.47253 -0.355546,0.61994 -0.306075,1.29201 0.03809,0.51743 0.144968,0.8771 0.336167,1.13122 0.248031,0.32967 0.281178,0.53651 0.287717,1.79537 0.01089,2.09688 0.07666,2.34081 0.763306,2.83126 1.130544,0.80749 1.281103,0.9449 1.281103,1.16914 0,0.42212 -0.65216,0.54302 -3.011734,0.5583 -1.228561,0.008 -2.416009,-0.0222 -2.638772,-0.067 z m 13.52272,0.0631 c -0.497545,-0.10586 -0.937904,-0.70406 -1.081955,-1.46977 -0.33143,-1.76183 0.878289,-5.52414 3.238936,-10.07327 0.517137,-0.99657 0.866371,-1.81537 0.822361,-1.92808 -0.0595,-0.15238 -0.240646,-0.18749 -0.815416,-0.15806 -0.665464,0.0341 -0.743175,0.0674 -0.781704,0.33497 -0.02754,0.191 0.07931,0.42239 0.299079,0.6478 0.329702,0.33817 0.334686,0.36432 0.139881,0.7345 -0.111094,0.21111 -0.262575,0.42064 -0.336625,0.46561 -0.128763,0.0782 -1.020713,-0.56539 -1.557857,-1.12407 -0.68769,-0.71528 -0.740183,-1.42711 -0.126856,-1.72026 0.41284,-0.19733 8.799726,-0.39935 9.856782,-0.23743 0.806479,0.12353 1.245348,0.38742 1.449397,0.87153 0.318136,0.75474 -0.197391,1.63957 -1.381174,2.3706 -0.333072,0.20568 -2.01062,1.21141 -3.727884,2.23494 -4.706478,2.80519 -5.032601,3.09406 -5.126355,4.54086 -0.07092,1.09461 0.175834,1.49883 0.859933,1.40866 l 0.472117,-0.0622 -0.0085,1.09902 c -0.0089,1.15123 -0.179231,1.61746 -0.689013,1.88556 -0.296941,0.15617 -1.140971,0.2566 -1.505185,0.17911 z m 5.024003,-9.54546 c 1.688154,-1.0118 3.158574,-1.91074 3.2676,-1.99764 0.391079,-0.31171 0.635304,-0.78906 0.635304,-1.24175 0,-0.52516 -0.236633,-0.7815 -0.666192,-0.72166 -0.269358,0.0375 -0.296763,0.10827 -0.308778,0.79728 l -0.01318,0.75609 -1.01237,0.64976 c -0.556799,0.35736 -1.047557,0.62838 -1.090568,0.60226 -0.04298,-0.0261 -0.151286,-0.38592 -0.240613,-0.79956 -0.21587,-0.9996 -0.546566,-1.52359 -0.961556,-1.52359 -0.542522,0 -1.209665,1.06588 -2.247956,3.59145 -0.199449,0.48516 -0.457914,1.10233 -0.574354,1.37149 -0.16875,0.39007 -0.175689,0.47581 -0.03418,0.42245 0.09763,-0.0368 1.558731,-0.89477 3.246874,-1.90658 z m 1.647789,9.47805 c -0.873277,-0.22973 -0.804228,-0.64017 0.210983,-1.25401 0.80413,-0.48621 0.803644,-0.44949 0.05505,-4.14191 -0.316159,-1.55944 -0.575019,-2.92875 -0.575251,-3.0429 -3.83e-4,-0.22869 1.933011,-1.41778 2.061709,-1.26796 0.04223,0.0491 0.322251,1.25183 0.622302,2.67266 1.007386,4.77026 1.136478,5.14548 1.902706,5.53049 0.607894,0.30546 1.183556,0.82826 1.183556,1.07488 0,0.39047 -0.52366,0.48222 -2.844969,0.49848 -1.259523,0.009 -2.436766,-0.0226 -2.616089,-0.0697 z m 8.791799,-0.004 c -0.671706,-0.11299 -1.568586,-0.62185 -1.898494,-1.07713 -0.535567,-0.7391 -0.614876,-1.75544 -0.200286,-2.56666 0.39406,-0.77106 1.440855,-1.26269 2.135743,-1.00306 0.292615,0.10932 0.31583,0.171 0.257083,0.68317 -0.0985,0.85878 0.124551,0.9497 2.338254,0.95317 1.011566,0.002 1.95223,-0.0578 2.154741,-0.13601 0.505213,-0.19512 0.858843,-0.93751 0.858843,-1.80297 0,-1.76302 -1.257892,-2.89135 -3.674193,-3.29576 -1.163748,-0.19477 -1.764271,-0.45008 -1.680048,-0.71425 0.07194,-0.22564 1.006258,-0.65529 2.821949,-1.2977 1.931995,-0.68356 2.404058,-1.03164 2.404058,-1.77267 0,-0.62378 -0.282469,-1.01509 -0.946717,-1.31151 -1.093716,-0.48807 -3.285123,-0.19416 -3.285123,0.4406 0,0.21211 0.149035,0.33822 0.64118,0.54254 0.5724,0.23764 0.641196,0.30793 0.641196,0.65509 0,0.40413 -0.107989,0.4844 -0.342133,0.25431 -0.09711,-0.0954 -0.363166,-0.0943 -0.914544,0.004 -1.998124,0.35605 -3.307829,-0.94798 -2.198777,-2.18924 0.544914,-0.60987 1.785407,-0.88209 3.9684,-0.87085 3.244585,0.0167 4.779497,0.66638 5.061253,2.14226 0.276982,1.4508 -1.137391,2.43175 -4.163584,2.8877 -0.740577,0.11158 -1.39597,0.2485 -1.456439,0.30426 -0.159365,0.14697 0.223819,0.3113 1.447859,0.62096 1.2009,0.30379 2.778559,0.97755 3.426877,1.46348 0.598245,0.4484 1.029856,1.24402 1.200032,2.21209 0.345945,1.96798 -0.570046,3.86197 -2.241054,4.63383 -0.581867,0.26877 -0.806631,0.29037 -3.222791,0.30973 -1.42851,0.0114 -2.838499,-0.0198 -3.133285,-0.0694 z"
       id="path4559"
       inkscape:connector-curvature="0" />
    <path
       style="fill:#00aad4;fill-rule:evenodd;stroke:#00aad4;stroke-width:0.13141133px;stroke-linecap:butt;stroke-linejoin:miter;stroke-opacity:1;fill-opacity:1"
       d="m 32.980026,278.88186 c -0.09181,-3.9171 3.491579,-5.3199 6.488294,-5.34944 4.10366,-0.0404 7.073417,2.71399 7.011706,5.03177 v 12.46206 c 0,0 -3.181297,0.46045 -7.043125,0.46014 -3.177805,-2.6e-4 -6.456875,-0.35581 -6.456875,-0.35581 z"
       id="path4492"
       inkscape:connector-curvature="0"
       sodipodi:nodetypes="csccscc" />
    <path
       style="fill:#ffff00;fill-opacity:1;fill-rule:evenodd;stroke:none;stroke-width:0.14287499px;stroke-linecap:butt;stroke-linejoin:miter;stroke-opacity:1"
       d="m 5.36,272.16912 h 2.8725701 l 0.130909,-2.44575 h 1.3090788 c 0.3490881,2.09452 0.3490881,2.44575 0.3490881,2.44575 2.225434,0.0873 2.26907,0 2.26907,0 0.43636,-2.48725 0.43636,-2.44575 0.43636,-2.44575 h 1.483622 c -0.872719,3.97087 -0.872719,4.32 -0.872719,4.32 H 7.7525755 v 1.36575 H 12.90162 l -0.523632,5.42746 1.439987,1.22181 1.789075,-12.87502 h 13.134426 l 0.08727,22.03858 -11.301716,-4.14542 -5.84722,-4.3636 -4.887228,-6.32721 z"
       id="path4496"
       inkscape:connector-curvature="0"
       sodipodi:nodetypes="ccccccccccccccccccccc" />
    <path
       style="fill:#ffff00;fill-opacity:1;fill-rule:evenodd;stroke:none;stroke-width:0.14287499px;stroke-linecap:butt;stroke-linejoin:miter;stroke-opacity:1"
       d="m 16.087045,267.84912 h 12.741702 l 0.130909,-4.06575 h -1.551193 l -0.08727,2.44575 h -1.634232 l -0.08727,-2.44575 H 23.48123 l 0.06757,2.44575 h -1.789075 l -0.08727,-2.44575 h -1.943917 l -0.08727,2.44575 h -1.98332 l -0.04364,-2.44575 h -1.507556 z"
       id="path4498"
       inkscape:connector-curvature="0"
       sodipodi:nodetypes="ccccccccccccccccc" />
    <path
       style="fill:#ffff00;fill-opacity:1;fill-rule:evenodd;stroke:none;stroke-width:0.14287499px;stroke-linecap:butt;stroke-linejoin:miter;stroke-opacity:1"
       d="m 73.668707,272.16912 h -2.701198 l -0.130913,-2.44575 h -1.309078 c -0.349089,2.09452 -0.349089,2.44575 -0.349089,2.44575 -2.225432,0.0873 -2.269069,0 -2.269069,0 -0.436358,-2.48725 -0.436358,-2.44575 -0.436358,-2.44575 h -1.483623 c 0.872721,3.97087 0.872721,4.32 0.872721,4.32 h 5.585404 v 1.36575 h -5.149046 l 0.916352,6.21291 -1.68612,1.29147 -1.935664,-13.73013 H 50.458535 l -0.08727,22.03858 10.86541,-4.88723 5.978135,-4.71269 4.804191,-6.21291 z"
       id="path4496-6"
       inkscape:connector-curvature="0"
       sodipodi:nodetypes="ccccccccccccccccccccc" />
    <path
       style="fill:#ffff00;fill-opacity:1;fill-rule:evenodd;stroke:none;stroke-width:0.14287499px;stroke-linecap:butt;stroke-linejoin:miter;stroke-opacity:1"
       d="M 63.398777,267.84912 H 50.657018 l -0.130912,-4.06575 h 1.551193 l 0.08728,2.44575 h 1.634234 l 0.08727,-2.44575 h 2.118474 l -0.06757,2.44575 h 1.78909 l 0.08727,-2.44575 h 1.94393 l 0.08727,2.44575 h 1.983334 l 0.04363,-2.44575 h 1.507561 z"
       id="path4498-6"
       inkscape:connector-curvature="0"
       sodipodi:nodetypes="ccccccccccccccccc" />
    <ellipse
       style="fill:none;fill-opacity:1;stroke:#ffffff;stroke-width:0.59615999;stroke-miterlimit:4;stroke-dasharray:none;stroke-opacity:1"
       id="path4520"
       cx="39.626652"
       cy="280.6098"
       rx="5.6781483"
       ry="5.7090034" />
    <path
       style="fill:none;fill-rule:evenodd;stroke:#ffffff;stroke-width:0.59615999;stroke-linecap:butt;stroke-linejoin:miter;stroke-miterlimit:4;stroke-dasharray:none;stroke-opacity:1"
       d="m 42.244147,275.55443 -7.362057,7.887"
       id="path4522"
       inkscape:connector-curvature="0"
       sodipodi:nodetypes="cc" />
    <path
       style="fill:none;fill-rule:evenodd;stroke:#ffffff;stroke-width:0.59615999;stroke-linecap:butt;stroke-linejoin:miter;stroke-miterlimit:4;stroke-dasharray:none;stroke-opacity:1"
       d="m 43.639086,276.45781 -7.8706,8.18061"
       id="path4522-2"
       inkscape:connector-curvature="0"
       sodipodi:nodetypes="cc" />
    <path
       style="fill:none;fill-rule:evenodd;stroke:#ffffff;stroke-width:0.59615999;stroke-linecap:butt;stroke-linejoin:miter;stroke-miterlimit:4;stroke-dasharray:none;stroke-opacity:1"
       d="m 44.449324,277.80798 -7.362059,7.88699"
       id="path4522-26"
       inkscape:connector-curvature="0"
       sodipodi:nodetypes="cc" />
    <path
       style="fill:none;fill-rule:evenodd;stroke:#ffffff;stroke-width:0.59615999;stroke-linecap:butt;stroke-linejoin:miter;stroke-miterlimit:4;stroke-dasharray:none;stroke-opacity:1"
       d="m 35.783911,276.54233 7.870603,8.18061"
       id="path4522-2-5"
       inkscape:connector-curvature="0"
       sodipodi:nodetypes="cc" />
    <path
       style="fill:none;fill-rule:evenodd;stroke:#ffffff;stroke-width:0.59615999;stroke-linecap:butt;stroke-linejoin:miter;stroke-miterlimit:4;stroke-dasharray:none;stroke-opacity:1"
       d="m 37.087264,275.5864 7.36206,7.88699"
       id="path4522-26-5"
       inkscape:connector-curvature="0"
       sodipodi:nodetypes="cc" />
    <path
       style="fill:none;fill-rule:evenodd;stroke:#ffffff;stroke-width:0.59615999;stroke-linecap:butt;stroke-linejoin:miter;stroke-miterlimit:4;stroke-dasharray:none;stroke-opacity:1"
       d="m 34.837391,277.65609 7.449497,8.06734"
       id="path4522-26-5-2"
       inkscape:connector-curvature="0"
       sodipodi:nodetypes="cc" />
    <path
       style="fill:#000000;fill-opacity:1;fill-rule:evenodd;stroke:#000000;stroke-width:0.13100125px;stroke-linecap:butt;stroke-linejoin:miter;stroke-opacity:1"
       d="m 76.75396,250.15611 c 0,0 -6.223333,2.10232 -12.586898,-0.009 0,0 -7.149417,-2.40386 -17.147895,0.2576 0,0 -9.064751,2.39118 -15.722297,0.0507 0,0 -8.180486,-3.01289 -17.502065,-0.34638 0,0 -7.6830044,1.99934 -11.2348847,-0.43975 v 5.32414 c 3.5518803,2.4391 11.2348847,0.43976 11.2348847,0.43976 9.321579,-2.66651 17.502065,0.34638 17.502065,0.34638 6.657547,2.34044 15.722297,-0.0507 15.722297,-0.0507 9.998478,-2.66147 17.1479,-0.25761 17.1479,-0.25761 6.36356,2.11129 12.586893,0.009 12.586893,0.009 z"
       id="path4601"
       inkscape:connector-curvature="0"
       sodipodi:nodetypes="ccccccccccccc" />
    <path
       style="fill:#ffff00;fill-rule:evenodd;stroke:#ffff00;stroke-width:0.14234929px;stroke-linecap:butt;stroke-linejoin:miter;stroke-opacity:1"
       d="m 76.753965,250.24408 c 0,0 -6.223333,2.48233 -12.586892,-0.0106 0,0 -7.149422,-2.83836 -17.1479,0.30416 0,0 -9.064751,2.8234 -15.722299,0.0599 0,0 -8.180485,-3.55748 -17.502068,-0.40898 0,0 -7.683006,2.36071 -11.2348857,-0.51925 l -2.1e-6,-1.80248 c 3.5518797,2.87997 11.2348848,0.51926 11.2348848,0.51926 9.321582,-3.14851 17.502067,0.40898 17.502067,0.40898 6.657547,2.76349 15.722297,-0.0599 15.722297,-0.0599 9.998478,-3.14253 17.1479,-0.30416 17.1479,-0.30416 6.36356,2.49291 12.586893,0.0106 12.586893,0.0106 z"
       id="path4601-7-5"
       inkscape:connector-curvature="0"
       sodipodi:nodetypes="ccccccccccccc" />
    <path
       style="fill:#ffff00;fill-rule:evenodd;stroke:#ffff00;stroke-width:0.14236969px;stroke-linecap:butt;stroke-linejoin:miter;stroke-opacity:1"
       d="m 76.77556,257.08494 c 0,0 -6.225142,2.48232 -12.590559,-0.0106 0,0 -7.151501,-2.83835 -17.15289,0.30418 0,0 -9.067383,2.82337 -15.726867,0.0599 0,0 -8.182864,-3.55748 -17.507158,-0.409 0,0 -7.6852405,2.36071 -11.2381532,-0.51924 l -2.2e-6,-1.80247 c 3.5529127,2.87996 11.2381524,0.51925 11.2381524,0.51925 9.324293,-3.14849 17.507157,0.40899 17.507157,0.40899 6.659484,2.76347 15.726866,-0.0599 15.726866,-0.0599 10.001388,-3.14252 17.152889,-0.30417 17.152889,-0.30417 6.365418,2.49291 12.590559,0.0106 12.590559,0.0106 z"
       id="path4601-7-5-6"
       inkscape:connector-curvature="0"
       sodipodi:nodetypes="ccccccccccccc" />
    <path
       style="fill:#ffff00;fill-rule:evenodd;stroke:#ffff00;stroke-width:0.14287499px;stroke-linecap:butt;stroke-linejoin:miter;stroke-opacity:1"
       d="m 39.674401,208.66269 -6.220241,5.98068 h -8.574134 v 8.38575 l -5.651191,6.36489 5.651191,5.76936 v 8.1 h 8.661406 l 5.672676,5.98077 5.847219,-5.98077 h 8.438699 v -8.1 l 6.484801,-5.81723 -6.484801,-6.31702 v -8.38575 h -8.438699 z"
       id="path4667"
       inkscape:connector-curvature="0"
       sodipodi:nodetypes="ccccccccccccccccc" />
    <path
       style="fill:#00aad4;fill-opacity:1;fill-rule:evenodd;stroke:#00aad4;stroke-width:0.14309999;stroke-linecap:butt;stroke-linejoin:miter;stroke-miterlimit:4;stroke-dasharray:none;stroke-opacity:1"
       d="m 39.481507,211.23886 -5.130417,5.25067 h -7.465782 v 7.36216 l -5.206424,5.30222 5.206424,5.35088 v 7.1113 h 7.541772 l 4.939385,5.25074 5.091364,-5.25074 h 7.34785 v -7.1113 l 5.36078,-5.10715 -5.36078,-5.54595 v -7.36216 h -7.34785 z"
       id="path4667-6"
       inkscape:connector-curvature="0"
       sodipodi:nodetypes="ccccccccccccccccc" />
    <path
       style="fill:#ffff00;fill-opacity:1;fill-rule:evenodd;stroke:none;stroke-width:0.14287499px;stroke-linecap:butt;stroke-linejoin:miter;stroke-opacity:1"
       d="m 39.455165,220.83965 c 2.050888,0.96 0.785447,1.70181 0.785447,1.70181 1.527258,0.26182 1.527258,1.39635 1.527258,1.39635 -0.349086,1.61453 -1.527258,0.91635 -1.527258,0.91635 -1.745437,-1.13453 -2.574521,0.30545 -2.574521,0.30545 l -0.08727,2.39999 c 0.785446,3.01087 1.767155,2.3971 3.010883,2.44361 1.231377,0.0461 2.295902,0.52593 3.098143,1.30908 0.936338,0.91405 1.661817,2.27049 1.614535,3.57815 -0.03089,0.85497 -1.22181,2.2571 -1.22181,2.2571 0,0 0.996052,0.0946 1.396354,-0.14287 0.548068,-0.32516 0.745157,-1.06403 0.916353,-1.67787 0.265966,-0.95365 0.236261,-1.98283 0.130907,-2.96725 -0.121641,-1.13659 -0.852406,-2.17343 -0.872716,-3.31633 -0.027,-1.52064 -0.145778,-3.45492 1.003628,-4.45087 0.766379,-0.66407 2.743972,-1.21208 3.032694,-0.24 0.186251,0.62706 -1.272596,0.41404 -1.723615,0.93818 -0.810918,0.94239 -0.44354,2.46682 -0.392726,3.70905 0.05748,1.40522 0.94379,2.74797 0.785446,4.14542 -0.187731,1.65679 -0.641201,3.6257 -2.007255,4.58178 -0.752264,0.52649 -2.749065,0.17454 -2.749065,0.17454 0,0 -1.188216,0.86754 -1.87634,1.0909 -0.959497,0.31145 -3.010882,0.30545 -3.010882,0.30545 0,0 -1.899974,1.09513 -2.366382,0.31999 -0.466404,-0.77516 0.840979,-0.40593 1.450029,-1.5418 0.164959,-0.30765 -0.131252,-0.72379 0,-1.04726 0.266847,-0.65767 1.362048,-0.828 1.483623,-1.52726 0.06021,-0.3463 -0.139077,-0.77243 -0.436363,-0.95999 -0.664405,-0.41917 -1.620691,0.31924 -2.356339,0.0436 -0.385738,-0.14452 -0.505051,-0.85146 -0.916358,-0.82908 -0.34978,0.019 -0.698171,0.78545 -0.698171,0.78545 -0.130913,3.40361 0.67048,2.62258 -0.130913,3.44724 -0.457169,0.47044 -1.676937,0.72094 -1.963618,0.13091 -0.08551,-0.17601 0.331549,-0.25048 0.392726,-0.43636 0.383867,-1.16634 -0.356411,-3.66638 -0.356411,-3.66638 -0.356411,-0.13187 0.206874,-0.62566 0.0073,-0.9154 -0.416222,-0.60431 -1.649339,0.0236 -2.138163,-0.52363 -0.380991,-0.42652 -0.101223,-1.14198 -0.218181,-1.7018 -0.284143,-1.3601 -2.350161,-3.01947 -1.169554,-4.00095 1.180613,-0.98148 1.128875,2.89128 2.391363,3.56459 0.410692,0.21903 1.047411,0.30803 1.396348,0 0.263742,-0.23283 0.24003,-0.71281 0.130912,-1.04726 -0.105327,-0.32282 -0.581153,-0.42305 -0.698176,-0.74181 -0.682631,-1.85944 -0.438686,-4.09881 0.305451,-5.9345 0.290433,-0.71647 0.877505,-1.32651 1.52726,-1.74544 1.225951,-0.79042 4.18905,-1.26544 4.18905,-1.26544 z"
       id="path4665"
       inkscape:connector-curvature="0"
       sodipodi:nodetypes="ccccccsaacaaaaaaaaaacaccsaaaaacaaacaaacaaaaaacc" />
    <path
       style="fill:#ffff00;fill-opacity:1;fill-rule:evenodd;stroke:#ffff00;stroke-width:0.13778603px;stroke-linecap:butt;stroke-linejoin:miter;stroke-opacity:1"
       d="m 1.2125686,182.84702 v 76.07133 c 2.735686,27.56424 21.3994924,33.89963 38.4431324,33.97053 12.124791,0.0504 35.525815,-5.91648 38.423495,-34.247 v -75.79486 z m 1.364258,1.90118 H 76.510816 v 20.22305 H 2.5768266 Z m 0.07751,22.74073 H 76.465851 l 0.40049,51.43045 c -3.49015,22.54996 -17.329692,32.11431 -37.296944,32.24661 -26.150091,0.17326 -35.5326764,-14.7034 -37.0483844,-31.88694 z"
       id="path4513-5"
       inkscape:connector-curvature="0" />
  </g>
</svg>
