<?xml version="1.0" encoding="UTF-8" standalone="no"?>
<!-- Created with Inkscape (http://www.inkscape.org/) -->
<svg
   xmlns:dc="http://purl.org/dc/elements/1.1/"
   xmlns:cc="http://web.resource.org/cc/"
   xmlns:rdf="http://www.w3.org/1999/02/22-rdf-syntax-ns#"
   xmlns:svg="http://www.w3.org/2000/svg"
   xmlns="http://www.w3.org/2000/svg"
   xmlns:sodipodi="http://inkscape.sourceforge.net/DTD/sodipodi-0.dtd"
   xmlns:inkscape="http://www.inkscape.org/namespaces/inkscape"
   id="svg1339"
   sodipodi:version="0.32"
   inkscape:version="0.43"
   width="158.28pt"
   height="213pt"
   sodipodi:docbase="C:\Dokumente und Einstellungen\Wassily\Desktop"
   sodipodi:docname="temirtau.svg"
   version="1.0">
  <metadata
     id="metadata1344">
    <rdf:RDF>
      <cc:Work
         rdf:about="">
        <dc:format>image/svg+xml</dc:format>
        <dc:type
           rdf:resource="http://purl.org/dc/dcmitype/StillImage" />
        <dc:creator>
          <cc:Agent>
            <dc:title>Wassily Frese</dc:title>
          </cc:Agent>
        </dc:creator>
      </cc:Work>
    </rdf:RDF>
  </metadata>
  <defs
     id="defs1342" />
  <sodipodi:namedview
     inkscape:window-height="744"
     inkscape:window-width="1280"
     inkscape:pageshadow="2"
     inkscape:pageopacity="0.0"
     borderopacity="1.0"
     bordercolor="#666666"
     pagecolor="#ffffff"
     id="base"
     inkscape:zoom="2.4081154"
     inkscape:cx="99.595807"
     inkscape:cy="137.32381"
     inkscape:window-x="-4"
     inkscape:window-y="-4"
     inkscape:current-layer="svg1339"
     inkscape:showpageshadow="true" />
  <g
     id="g1392"
     transform="translate(2.289605,4.006731)">
    <g
       style="stroke:none;stroke-opacity:1"
       id="g6594">
      <rect
         style="opacity:1;fill:#940019;fill-opacity:1;fill-rule:nonzero;stroke:#ffa500;stroke-width:3;stroke-linecap:butt;stroke-linejoin:miter;stroke-miterlimit:4;stroke-dasharray:none;stroke-dashoffset:1.4;stroke-opacity:0.99553576"
         id="rect1348"
         width="195.37823"
         height="237.69843"
         x="-0.70533657"
         y="-0.7053377"
         rx="5.7000308"
         ry="5.7000308" />
      <path
         style="fill:#940019;fill-opacity:1;fill-rule:evenodd;stroke:#ffa500;stroke-width:3;stroke-linecap:butt;stroke-linejoin:round;stroke-miterlimit:4;stroke-dasharray:none;stroke-opacity:1"
         d="M 80.797222,236.90875 L 97.754663,253.86619 L 114.46273,237.15812 L 80.797222,236.90875 z "
         id="path3098" />
      <path
         id="path5719"
         d="M 80.742859,234.8575 L 97.7003,251.81494 L 114.40837,235.10687 L 80.742859,234.8575 z "
         style="fill:#940019;fill-opacity:1;fill-rule:evenodd;stroke:none;stroke-width:3;stroke-linecap:butt;stroke-linejoin:round;stroke-miterlimit:4;stroke-dasharray:none;stroke-opacity:1" />
    </g>
    <rect
       ry="5.7000308"
       rx="0"
       y="36.716602"
       x="-0.037252191"
       height="148.95898"
       width="194.06485"
       id="rect7482"
       style="opacity:1;fill:#006ab0;fill-opacity:1;fill-rule:nonzero;stroke:#ffa500;stroke-width:2.95046473;stroke-linecap:butt;stroke-linejoin:round;stroke-miterlimit:4;stroke-dasharray:none;stroke-dashoffset:1.4;stroke-opacity:0.99553576" />
    <path
       id="flowRoot6599"
       d="M 9.1404358,13.848985 L 9.1404358,6.4991918 L 6.5155098,6.4991918 L 6.5155098,5.0026823 L 13.545484,5.0026823 L 13.545484,6.4991918 L 10.926592,6.4991918 L 10.926592,13.848985 L 9.1404358,13.848985 M 14.679935,13.848985 L 14.679935,5.0026823 L 21.239233,5.0026823 L 21.239233,6.4991918 L 16.466091,6.4991918 L 16.466091,8.4603435 L 20.907346,8.4603435 L 20.907346,9.9508187 L 16.466091,9.9508187 L 16.466091,12.35851 L 21.408194,12.35851 L 21.408194,13.848985 L 14.679935,13.848985 M 22.910738,13.848985 L 22.910738,5.0026823 L 25.583939,5.0026823 L 27.189066,11.036995 L 28.77609,5.0026823 L 31.455325,5.0026823 L 31.455325,13.848985 L 29.795889,13.848985 L 29.795889,6.8853878 L 28.039904,13.848985 L 26.320125,13.848985 L 24.570174,6.8853878 L 24.570174,13.848985 L 22.910738,13.848985 M 33.187173,13.848985 L 33.187173,5.0026823 L 34.973329,5.0026823 L 34.973329,13.848985 L 33.187173,13.848985 M 36.668972,13.848985 L 36.668972,5.0026823 L 39.53527,5.0026823 C 40.621442,5.0026911 41.329467,5.0469427 41.659349,5.1354371 C 42.166224,5.2682006 42.590637,5.5578473 42.932589,6.0043782 C 43.274525,6.4469018 43.445497,7.020161 43.445505,7.7241573 C 43.445497,8.267251 43.346937,8.7238469 43.149824,9.0939463 C 42.952696,9.4640552 42.701266,9.7557134 42.395535,9.9689217 C 42.093813,10.178115 41.786063,10.316904 41.472285,10.385289 C 41.045855,10.469773 40.428344,10.512013 39.619751,10.51201 L 38.455128,10.51201 L 38.455128,13.848985 L 36.668972,13.848985 M 38.455128,6.4991918 L 38.455128,9.0094659 L 39.432687,9.0094659 C 40.136686,9.0094708 40.607362,8.9632078 40.844716,8.8706767 C 41.082061,8.7781557 41.267113,8.6333323 41.399873,8.4362062 C 41.536645,8.2390909 41.605034,8.0097873 41.60504,7.7482946 C 41.605034,7.426471 41.510496,7.1609615 41.321427,6.9517653 C 41.132347,6.7425829 40.892986,6.6118396 40.603344,6.5595349 C 40.390127,6.5193135 39.961691,6.4991992 39.318035,6.4991918 L 38.455128,6.4991918 M 46.915235,13.848985 L 46.915235,6.4991918 L 44.290309,6.4991918 L 44.290309,5.0026823 L 51.320283,5.0026823 L 51.320283,6.4991918 L 48.701392,6.4991918 L 48.701392,13.848985 L 46.915235,13.848985 M 60.432096,13.848985 L 58.489047,13.848985 L 57.716655,11.839559 L 54.180548,11.839559 L 53.450396,13.848985 L 51.555622,13.848985 L 55.001215,5.0026823 L 56.889955,5.0026823 L 60.432096,13.848985 M 57.143396,10.349083 L 55.924465,7.0664172 L 54.729671,10.349083 L 57.143396,10.349083 M 60.51054,5.0026823 L 62.507898,5.0026823 L 64.571633,9.5947943 L 66.333652,5.0026823 L 68.198254,5.0026823 L 65.21127,11.724907 C 64.885412,12.453048 64.553526,13.008205 64.215608,13.390377 C 63.877683,13.768527 63.441202,13.957602 62.906162,13.957602 C 62.379164,13.957602 61.966819,13.923408 61.669128,13.855019 L 61.669128,12.52747 C 61.922568,12.543563 62.151871,12.551609 62.35704,12.551608 C 62.771394,12.551609 63.067075,12.477186 63.244084,12.328338 C 63.42511,12.17547 63.598094,11.849618 63.763035,11.350779 L 60.51054,5.0026823"
       style="font-size:12.35827255px;font-style:normal;font-variant:normal;font-weight:bold;font-stretch:normal;text-align:start;line-height:125%;writing-mode:lr-tb;text-anchor:start;fill:#ffa500;fill-opacity:0.99553576;font-family:Arial"
       transform="matrix(2.761675,0,0,2.427794,-6.004267,-5.792053)" />
    <path
       sodipodi:nodetypes="ccccccc"
       id="path40742"
       d="M 9.8204443,74.971435 L 81.460734,74.971435 L 69.199554,69.366327 L 69.024394,66.388613 L 20.330014,66.388613 L 20.330014,69.541487 L 9.8204443,74.971435 z "
       style="fill:#ffa500;fill-opacity:1;fill-rule:evenodd;stroke:#ffa500;stroke-width:2;stroke-linecap:butt;stroke-linejoin:miter;stroke-miterlimit:4;stroke-dasharray:none;stroke-opacity:1" />
    <path
       sodipodi:nodetypes="ccccc"
       id="path40740"
       d="M 23.658054,114.20719 L 66.221844,114.20719 L 73.053064,82.503299 L 17.877784,82.503299 L 23.658054,114.20719 z "
       style="fill:#ffa500;fill-opacity:1;fill-rule:evenodd;stroke:#ffa500;stroke-width:2;stroke-linecap:butt;stroke-linejoin:miter;stroke-miterlimit:4;stroke-dasharray:none;stroke-opacity:1" />
    <path
       id="path47744"
       d="M 36.101568,36.715337 L 36.101568,60.045286 L 39.038058,63.226643 L 39.038058,81.784557 L 41.629078,87.440303 L 49.920348,87.440303 L 49.920348,65.524289 L 53.202308,62.873159 L 53.202308,48.910537 L 55.620588,45.905922 L 55.620588,36.361852 L 36.101568,36.361852"
       style="fill:#ffa500;fill-opacity:1;fill-rule:evenodd;stroke:#006ab5;stroke-width:2.22537279;stroke-linecap:butt;stroke-linejoin:miter;stroke-miterlimit:4;stroke-dasharray:none;stroke-opacity:1" />
    <path
       id="path17980"
       d="M 193.94649,187.54067 L 193.94649,146.86528 L 130.17724,146.86528 L 94.749889,129.96934 L 63.751361,147.35627 L 49.413189,139.31406 L -0.58191118,176.27672 L -0.58191118,188.16645 L 193.94649,187.54067 z "
       style="fill:#940019;fill-opacity:1;fill-rule:evenodd;stroke:#ffa500;stroke-width:3.04368758;stroke-linecap:butt;stroke-linejoin:miter;stroke-miterlimit:4;stroke-dasharray:none;stroke-opacity:1" />
    <path
       id="path21474"
       d="M 49.492039,139.40756 L 80.80082,157.4837"
       style="fill:none;fill-opacity:0.75;fill-rule:evenodd;stroke:#ffa500;stroke-width:3;stroke-linecap:butt;stroke-linejoin:miter;stroke-miterlimit:4;stroke-dasharray:none;stroke-opacity:1" />
    <path
       id="path22351"
       d="M 94.964974,129.89444 L 154.14605,158.28071"
       style="fill:none;fill-opacity:0.75;fill-rule:evenodd;stroke:#ffa500;stroke-width:3;stroke-linecap:butt;stroke-linejoin:miter;stroke-miterlimit:4;stroke-dasharray:none;stroke-opacity:0.99553576" />
    <g
       transform="translate(-216.5033,4.823795)"
       id="g35485">
      <path
         style="fill:none;fill-opacity:0.75;fill-rule:evenodd;stroke:#ffa500;stroke-width:6.53635263;stroke-linecap:butt;stroke-linejoin:miter;stroke-miterlimit:4;stroke-dasharray:none;stroke-opacity:1"
         d="M 313.90142,183.76397 L 313.90142,227.49597"
         id="path24982" />
      <path
         style="fill:none;fill-opacity:0.75;fill-rule:evenodd;stroke:#ffa500;stroke-width:4;stroke-linecap:butt;stroke-linejoin:miter;stroke-miterlimit:4;stroke-dasharray:none;stroke-opacity:1"
         d="M 313.54674,203.94159 L 307.44606,207.06287 L 304.1829,209.9004 L 302.05476,215.00795"
         id="path30229" />
      <path
         id="path31104"
         d="M 314.82363,203.94159 L 320.92431,207.06287 L 324.18747,209.9004 L 326.31561,215.00795"
         style="fill:none;fill-opacity:0.75;fill-rule:evenodd;stroke:#ffa500;stroke-width:4;stroke-linecap:butt;stroke-linejoin:miter;stroke-miterlimit:4;stroke-dasharray:none;stroke-opacity:1" />
      <g
         id="g32856">
        <path
           sodipodi:nodetypes="ccccccc"
           id="path31106"
           d="M 314.398,225.36492 L 300.18086,224.65751 L 292.69092,221.39238 L 288.86026,218.69673 L 285.17147,216.28483 L 281.34081,215.2917 L 276.23326,215.2917"
           style="fill:none;fill-opacity:0.75;fill-rule:evenodd;stroke:#ffa500;stroke-width:3;stroke-linecap:butt;stroke-linejoin:miter;stroke-miterlimit:4;stroke-dasharray:none;stroke-opacity:1" />
        <path
           transform="matrix(1.345483,-0.547183,0.483241,1.523516,-201.107,36.30926)"
           d="M 278.92891 218.62579 A 2.6247125 2.7665889 0 1 1  273.67949,218.62579 A 2.6247125 2.7665889 0 1 1  278.92891 218.62579 z"
           sodipodi:ry="2.7665889"
           sodipodi:rx="2.6247125"
           sodipodi:cy="218.62579"
           sodipodi:cx="276.3042"
           id="path31981"
           style="opacity:1;fill:#ffa500;fill-opacity:1;fill-rule:nonzero;stroke:none;stroke-width:3;stroke-linecap:butt;stroke-linejoin:round;stroke-miterlimit:4;stroke-dasharray:none;stroke-dashoffset:1.4;stroke-opacity:1"
           sodipodi:type="arc" />
      </g>
      <g
         id="g32860"
         transform="matrix(-1,0,0,1,629.5698,0)">
        <path
           style="fill:none;fill-opacity:0.75;fill-rule:evenodd;stroke:#ffa500;stroke-width:3;stroke-linecap:butt;stroke-linejoin:miter;stroke-miterlimit:4;stroke-dasharray:none;stroke-opacity:1"
           d="M 314.398,225.36492 L 299.61728,224.56358 L 292.69092,221.39238 L 288.86026,218.69673 L 285.17147,216.28483 L 281.34081,215.2917 L 276.23326,215.2917"
           id="path32862"
           sodipodi:nodetypes="ccccccc" />
        <path
           sodipodi:type="arc"
           style="opacity:1;fill:#ffa500;fill-opacity:1;fill-rule:nonzero;stroke:none;stroke-width:3;stroke-linecap:butt;stroke-linejoin:round;stroke-miterlimit:4;stroke-dasharray:none;stroke-dashoffset:1.4;stroke-opacity:1"
           id="path32864"
           sodipodi:cx="276.3042"
           sodipodi:cy="218.62579"
           sodipodi:rx="2.6247125"
           sodipodi:ry="2.7665889"
           d="M 278.92891 218.62579 A 2.6247125 2.7665889 0 1 1  273.67949,218.62579 A 2.6247125 2.7665889 0 1 1  278.92891 218.62579 z"
           transform="matrix(1.345483,-0.547183,0.483241,1.523516,-201.107,36.30926)" />
      </g>
    </g>
    <path
       id="path37244"
       d="M 26.110284,125.59257 L 63.594444,125.59257"
       style="fill:none;fill-opacity:0.75;fill-rule:evenodd;stroke:#ffa500;stroke-width:2.39499998;stroke-linecap:butt;stroke-linejoin:miter;stroke-miterlimit:4;stroke-dasharray:none;stroke-opacity:1" />
    <path
       id="path37246"
       d="M 20.746194,119.8123 L 71.936244,119.8123"
       style="fill:none;fill-opacity:0.75;fill-rule:evenodd;stroke:#ffa500;stroke-width:2.45798111;stroke-linecap:butt;stroke-linejoin:miter;stroke-miterlimit:4;stroke-dasharray:none;stroke-opacity:1" />
    <g
       transform="translate(-225.9371,-1.727352)"
       id="g49492">
      <path
         transform="matrix(1.159745,0,0,1.159745,-44.83805,-17.19928)"
         d="M 280.69397 99.557259 A 8.1185341 8.1185341 0 1 1  264.45691,99.557259 A 8.1185341 8.1185341 0 1 1  280.69397 99.557259 z"
         sodipodi:ry="8.1185341"
         sodipodi:rx="8.1185341"
         sodipodi:cy="99.557259"
         sodipodi:cx="272.57544"
         id="path43365"
         style="fill:none;fill-opacity:1;fill-rule:nonzero;stroke:#006ab5;stroke-width:2.5070889;stroke-linecap:butt;stroke-linejoin:round;stroke-miterlimit:4;stroke-dasharray:none;stroke-dashoffset:1.4;stroke-opacity:1"
         sodipodi:type="arc" />
      <path
         sodipodi:type="arc"
         style="fill:#006ab5;fill-opacity:1;fill-rule:nonzero;stroke:none;stroke-width:3;stroke-linecap:butt;stroke-linejoin:round;stroke-miterlimit:4;stroke-dasharray:none;stroke-dashoffset:1.4;stroke-opacity:1"
         id="path45986"
         sodipodi:cx="252.71095"
         sodipodi:cy="94.547951"
         sodipodi:rx="2.5910213"
         sodipodi:ry="2.5910213"
         d="M 255.30197 94.547951 A 2.5910213 2.5910213 0 1 1  250.11993,94.547951 A 2.5910213 2.5910213 0 1 1  255.30197 94.547951 z"
         transform="matrix(2.066667,0,0,2.066667,-251.0757,-97.39641)" />
    </g>
    <path
       id="path49496"
       d="M 27.810296,36.681804 L 64.25733,36.681804"
       style="fill:none;fill-opacity:0.75;fill-rule:evenodd;stroke:#ffa500;stroke-width:3;stroke-linecap:butt;stroke-linejoin:miter;stroke-miterlimit:4;stroke-dasharray:none;stroke-opacity:1" />
    <g
       transform="translate(-218.3367,-0.172735)"
       id="g51248">
      <path
         sodipodi:type="arc"
         style="opacity:1;fill:#ffa500;fill-opacity:1;fill-rule:nonzero;stroke:#ffa500;stroke-width:3;stroke-linecap:butt;stroke-linejoin:round;stroke-miterlimit:4;stroke-dasharray:none;stroke-dashoffset:1.4;stroke-opacity:1"
         id="path50371"
         sodipodi:cx="345.38315"
         sodipodi:cy="102.23464"
         sodipodi:rx="27.03299"
         sodipodi:ry="27.03299"
         d="M 372.41614 102.23464 A 27.03299 27.03299 0 1 1  318.35016,102.23464 A 27.03299 27.03299 0 1 1  372.41614 102.23464 z"
         transform="matrix(1.072647,0,0,1.072647,-6.089997,-9.845259)" />
      <path
         style="fill:#ffa500;fill-opacity:1;fill-rule:evenodd;stroke:none;stroke-width:1px;stroke-linecap:butt;stroke-linejoin:miter;stroke-opacity:1"
         d="M 394.87166,97.311704 C 391.51896,71.100879 365.57307,51.368699 335.27817,50.846054 L 335.27817,56.546301 C 343.90779,60.671323 349.87576,66.317293 355.3154,72.265164 L 394.87166,97.311704 z "
         id="path50373"
         sodipodi:nodetypes="ccccc" />
    </g>
    <path
       id="path51252"
       d="M 129.29554,100.04881 L 147.51872,87.742439 L 147.38273,109.06394 L 167.91781,99.476419 L 129.29554,100.04881 z "
       style="fill:#006ab5;fill-opacity:1;fill-rule:evenodd;stroke:#006ab5;stroke-width:1.43499994;stroke-linecap:butt;stroke-linejoin:miter;stroke-miterlimit:4;stroke-dasharray:none;stroke-opacity:1" />
  </g>
  <path
     style="fill:#ffa500;fill-opacity:1;fill-rule:evenodd;stroke:#ffa500;stroke-width:1.16743577px;stroke-linecap:butt;stroke-linejoin:miter;stroke-opacity:1"
     d="M 97.117393,236.04189 L 99.795402,240.82602 L 102.47153,236.04523 L 102.40808,236.15326 L 97.117393,236.04189 z "
     id="path35496" />
</svg>
