<svg width="175" height="50" viewBox="0 0 175 50" xmlns="http://www.w3.org/2000/svg" xmlns:xlink="http://www.w3.org/1999/xlink"><title>47DFC591-87B3-4B66-AD21-8F94A30D3FFC</title><desc>Created with sketchtool.</desc><defs><path id="a" d="M0 50h175v-50h-175v50z"/></defs><g transform="translate(0 0)" fill="none"><path d="M14.458 29.223s-1.542 1.875.667 3.208c2.208 1.334 3.958-.791 3.958-.791v-3.792s-.792.083-2.292.25c-1.5.167-2.333 1.125-2.333 1.125z" fill="#C0130F"/><path d="M42.75 36.39h-11.833v-3.292h2.208v-11.291h-4v-4.167h3.958l7.959 4.583v10.959h1.708v3.208zm-14.958-.5s-4.5 1.917-6.167.792c-1.667-1.125-2-2.709-2-2.709s-3.125 3.063-5.708 3.063c-2.584 0-4.792-1.729-5.459-2.646-.666-.917-.956-1.042-1.123-2.084-.167-1.041-.002-2.556.582-3.361.583-.805 2.458-2.263 3.791-2.638 1.334-.375 4.084-.417 5.25-.417 1.167 0 2 .042 2 .042s.25-2.084-.708-2.834-2.708-1.041-4.25-.875c-1.542.167-3.042.584-3.042.584l-1.25-3.5s2.209-1.667 6.5-1.667c4.292 0 6.334.958 7.125 1.708.792.75 1.625 2.709 1.625 4.667v8.125s1.667-.042 2.167-.208c.5-.167.667-.25.667-.25v4.208zm9.208-27.625c2.255 0 4.083 1.828 4.083 4.083 0 2.256-1.828 4.084-4.083 4.084s-4.083-1.828-4.083-4.084c0-2.255 1.828-4.083 4.083-4.083zm5.5-8.265h-34.5c-4.4 0-8 3.6-8 8v34c0 4.4 3.6 8 8 8h34.5c4.4 0 8-3.6 8-8v-34c0-4.4-3.6-8-8-8z" fill="#C0130F"/><path d="M70.375 27.557l2.477-6.631 2.231 6.631h-4.708zm6-11.125h-6.125l-7 17.208-2.125.042v2.958h9.292v-2.541h-1.292c-.458-.125-.583-.25-.875-1.125-.292-.875.708-2.292.708-2.292h7.292s.875.792 1.083 1.958c.209 1.167-.666 1.709-.666 1.709h-2v2.291h9.541v-3h-1.625l-6.208-17.208z" fill="#636062"/><path d="M94 15.953h-8.25v2.875h2.375v14.937h-2.375v3.375h10.5v-3.25h-2.25v-17.937z" fill="#636062"/><path d="M106.917 34.473c-1.25 0-2.292-.708-2.292-2.792v-6.041h4.125v-3.334h-4.041v-4.416h-3.667s-.562 2.895-1.583 3.916-2.792.5-2.792.5v3.5h2.792v8.084s-.292 3.25 2.583 3.25h8v-4.167h-1.792s-.083 1.5-1.333 1.5" fill="#636062"/><path d="M121.292 26.098h2.042l-2.917 7.125-3.208-11.625h-6.417v4.083l2.042.042 3.75 10.25h2.958s.167 1.208-.167 2.333c-.333 1.125-.958 2.042-2.291 2.042-1.334 0-1.709-1.333-1.709-1.333h-1.541v2.125c0 1.416 1.291 2.708 4.5 2.708 3.208 0 4.166-2.292 4.166-2.292l5.75-15.416h1.709v-4.542h-8.667v4.5z" fill="#636062"/><path d="M148.667 25.682s.083-3.771-3.771-3.771-5.187 2.104-5.187 2.104v-2.416h-8v4.625h1.5v10.916h5.791v-10.25s0-1.333 2.417-1.333 2.458 1.417 2.458 1.417v9s.125 1.5 2.834 1.5c2.708 0 4.083.083 4.083-1.75v-2.334h-2.125v-7.708z" fill="#636062"/><mask id="b"><use xlink:href="#a"/></mask><path d="M153.875 29.973h8.625v-4.292h-8.625v4.292z" fill="#636062" mask="url(#b)"/><path d="M172.625 32.932s.458-11.333 0-11.333h-6.958v4.666h1.25v9.792s.458 2.125 3.916 2.125c3.459 0 4.167-2.125 4.167-2.125v-3.125h-2.375z" fill="#636062" mask="url(#b)"/><path d="M169.833 20.557c1.818 0 3.292-1.474 3.292-3.292 0-1.818-1.474-3.291-3.292-3.291-1.818 0-3.292 1.473-3.292 3.291 0 1.818 1.474 3.292 3.292 3.292" fill="#636062" mask="url(#b)"/></g></svg>