<?xml version="1.0" encoding="UTF-8" standalone="no"?>
<!-- Created with Inkscape (http://www.inkscape.org/) -->

<svg
   xmlns:dc="http://purl.org/dc/elements/1.1/"
   xmlns:cc="http://creativecommons.org/ns#"
   xmlns:rdf="http://www.w3.org/1999/02/22-rdf-syntax-ns#"
   xmlns:svg="http://www.w3.org/2000/svg"
   xmlns="http://www.w3.org/2000/svg"
   version="1.1"
   width="715.74799"
   height="123.66142"
   id="svg3229">
  <defs
     id="defs3231" />
  <metadata
     id="metadata3234">
    <rdf:RDF>
      <cc:Work
         rdf:about="">
        <dc:format>image/svg+xml</dc:format>
        <dc:type
           rdf:resource="http://purl.org/dc/dcmitype/StillImage" />
        <dc:title></dc:title>
      </cc:Work>
    </rdf:RDF>
  </metadata>
  <g
     transform="translate(-18.863424,-423.82964)"
     id="layer1">
    <g
       transform="matrix(3.2056627,0,0,3.2056627,-1954.8769,-1394.5767)"
       id="g3278">
      <g
         transform="matrix(1.25,0,0,-1.25,785.89888,576.98782)"
         id="g3129">
        <path
           d="m 0,0 c 1.749,0 3.046,-0.24 3.925,-0.784 0.481,-0.298 0.846,-0.66 1.081,-1.106 0.234,-0.445 0.352,-1 0.352,-1.664 0,-0.971 -0.387,-1.783 -1.166,-2.429 C 3.764,-6.339 3.29,-6.678 2.761,-6.885 2.675,-6.918 2.61,-6.965 2.61,-7.06 c 0,-0.141 0.132,-0.173 0.241,-0.199 0.871,-0.214 1.6,-0.557 2.167,-1.032 0.844,-0.709 1.263,-1.652 1.263,-2.818 0,-0.842 -0.186,-1.563 -0.559,-2.162 -0.372,-0.6 -0.899,-1.102 -1.579,-1.507 -0.583,-0.34 -1.271,-0.587 -2.065,-0.74 -0.586,-0.114 -1.232,-0.159 -1.918,-0.176 -0.338,-0.009 -0.677,-0.011 -1.015,-0.015 -1.676,-0.009 -3.226,-0.029 -4.374,-0.011 -0.644,0.009 -1.181,0.103 -1.525,0.157 l 0.002,0.004 -0.095,0.028 c -0.138,0.063 -0.232,0.2 -0.231,0.36 0,0.169 0.108,0.315 0.259,0.371 0.095,0.034 0.216,0.024 0.316,0.031 0.645,0.052 1.073,0.203 1.259,0.452 0.234,0.315 0.352,1.138 0.352,2.466 l 0.05,8.037 c 0.008,1.312 -0.106,2.131 -0.316,2.454 -0.163,0.252 -0.532,0.406 -1.102,0.461 l -0.249,0.027 c -0.16,0.052 -0.277,0.202 -0.277,0.38 0,0.174 0.115,0.324 0.273,0.375 l 0.07,0.017 -0.001,0 c 0.285,0.048 0.693,0.098 1.198,0.11 1.069,0.026 2.569,-0.007 4.218,-0.008 C -0.682,0.002 -0.341,0 0,0 m -0.039,-14.7 c 0.741,0.036 1.38,0.276 1.874,0.724 0.646,0.585 0.972,1.458 0.972,2.623 0,1.2 -0.366,2.004 -1.105,2.583 -0.443,0.347 -1.008,0.592 -1.636,0.733 -0.33,0.073 -0.815,0.116 -1.135,0.008 -0.28,-0.094 -0.499,-0.322 -0.581,-0.608 -0.045,-0.157 -0.034,-0.318 -0.034,-0.479 l -0.032,-2.914 c -0.01,-0.922 0.037,-1.546 0.11,-1.861 0.072,-0.315 0.235,-0.547 0.498,-0.668 0.333,-0.154 0.709,-0.157 1.069,-0.141 m -0.16,7.894 c 0.576,0.109 1.064,0.312 1.427,0.611 0.568,0.468 0.85,1.297 0.85,2.302 0,1.036 -0.292,1.797 -0.874,2.283 -0.347,0.289 -0.814,0.532 -1.366,0.637 -0.323,0.061 -0.655,0.061 -0.982,0.035 -0.555,-0.044 -0.54,-0.3 -0.54,-0.836 l 0,-3.85 c 0,-0.189 -0.018,-0.402 0.038,-0.585 0.089,-0.293 0.327,-0.526 0.628,-0.605 0.253,-0.067 0.562,-0.04 0.819,0.008 m -74.552,1.288 0.027,0.27 0.147,0.144 0.291,0.043 c 0.095,0.011 0.192,0.022 0.291,0.035 0.611,0.076 1.114,0.141 1.5,0.193 0.119,0.016 0.298,0.054 0.419,0.054 0.122,0 0.227,-0.074 0.272,-0.181 l 0.023,-0.235 c 0,-2.763 0.008,-5.518 0.008,-8.285 0.02,-0.658 0.155,-1.349 0.918,-1.389 l 0.015,0 0.06,-0.004 0.016,-0.001 0,-0.002 c 0.182,-0.035 0.321,-0.183 0.321,-0.389 0,-0.206 -0.179,-0.409 -0.397,-0.397 l -0.031,0.002 -2.332,0 -0.078,-0.002 c -0.378,0 -0.724,0.145 -0.985,0.384 -0.241,0.191 -0.355,0.505 -0.538,0.573 -0.22,0.082 -0.568,-0.027 -1.088,-0.367 -0.405,-0.259 -1.024,-0.515 -1.348,-0.628 -0.323,-0.114 -0.672,-0.171 -1.044,-0.171 -1.004,0 -1.778,0.296 -2.32,0.887 -0.543,0.591 -0.814,1.373 -0.814,2.345 0,1.852 -0.014,3.683 -0.014,5.523 0,0.437 -0.045,0.725 -0.134,0.862 -0.088,0.138 -0.296,0.231 -0.62,0.28 -0.125,0.02 -0.298,0.026 -0.418,0.083 -0.134,0.065 -0.224,0.2 -0.223,0.358 0.001,0.149 0.099,0.295 0.238,0.36 0.1,0.046 0.232,0.036 0.34,0.041 0.465,0.023 0.99,0.057 1.569,0.129 0.613,0.076 1.115,0.141 1.502,0.193 0.117,0.016 0.296,0.055 0.419,0.055 0.121,0 0.227,-0.075 0.271,-0.182 l 0.023,-0.233 c 0,-2.191 0.011,-4.67 0.011,-6.862 0,-0.68 0.15,-1.182 0.45,-1.506 0.299,-0.324 0.7,-0.486 1.202,-0.486 0.418,0 0.845,0.122 1.283,0.366 0.535,0.293 0.769,0.817 0.778,1.273 -0.009,2.288 -0.015,4.579 -0.01,6.867 m 45.821,-6.729 -0.001,1.844 0,0.012 0,0.011 c 0,0.258 -0.21,0.467 -0.467,0.467 l -0.247,-0.071 -0.915,-0.518 c -0.866,-0.492 -1.321,-1.28 -1.303,-2.098 0.017,-0.81 0.658,-1.469 1.462,-1.469 0.629,0 1.168,0.397 1.376,0.955 0.108,0.288 0.095,0.567 0.095,0.867 m 2.867,4.613 0,-5.43 c 0,-0.486 0.061,-0.838 0.182,-1.057 0.103,-0.185 0.231,-0.291 0.387,-0.319 0.249,-0.041 0.44,-0.258 0.44,-0.519 0,-0.195 -0.107,-0.364 -0.264,-0.455 l 0.001,-10e-4 c -0.444,-0.256 -0.974,-0.45 -1.524,-0.456 -0.5,0 -0.921,0.12 -1.257,0.345 -0.383,0.254 -0.573,0.694 -1.105,0.694 -0.462,0 -0.773,-0.388 -1.12,-0.63 -0.365,-0.256 -0.731,-0.409 -1.315,-0.409 -0.887,0 -1.616,0.313 -2.191,0.936 -0.571,0.624 -0.859,1.308 -0.859,2.053 0,1.215 0.624,2.073 1.871,2.575 0.696,0.275 1.395,0.554 2.089,0.85 0.517,0.221 0.939,0.413 1.264,0.577 l 0.003,0.002 c 0.314,0.143 0.532,0.46 0.532,0.826 l -0.001,0.035 0,0.31 c 0,1.105 -0.331,2.041 -1.293,2.078 -1.712,0.066 -1.857,-1.411 -2.069,-2.511 -0.08,-0.409 -0.427,-0.636 -0.792,-0.636 -0.276,0 -0.568,0.104 -0.875,0.315 -0.373,0.258 -0.375,0.535 -0.375,0.827 0,1.723 1.879,3.066 4.114,3.036 2.566,-0.034 4.157,-0.64 4.157,-3.036 m 5.579,-3.228 0.001,-4.488 0,-0.008 c 0,-0.164 -0.133,-0.297 -0.297,-0.297 l -0.011,10e-4 0,-10e-4 -2.357,0 -0.004,0 c -0.162,0 -0.295,0.133 -0.295,0.297 l 0,0.008 0,2.037 0,0.031 0,0.032 0,2.035 -0.005,0 0,3.625 c 0,0.519 -0.053,0.863 -0.158,1.033 -0.082,0.135 -0.243,0.214 -0.498,0.243 -0.205,0.022 -0.429,-0.012 -0.624,0.067 -0.137,0.057 -0.235,0.188 -0.243,0.345 -0.007,0.149 0.083,0.3 0.218,0.372 l 0.212,0.051 c 0.593,0.083 1.151,0.185 1.676,0.295 0.368,0.076 1.028,0.141 1.93,0.362 0.208,0.045 0.42,0.024 0.442,-0.206 0.028,-0.788 0.392,-0.995 1.399,-0.338 0.405,0.259 0.789,0.408 1.112,0.521 0.324,0.114 0.673,0.171 1.045,0.171 1.004,0 1.778,-0.296 2.32,-0.887 0.542,-0.591 0.814,-1.373 0.814,-2.344 0,-1.176 0.005,-2.228 0.009,-3.31 l -0.006,0 10e-4,-2.033 c 0,-0.715 0.069,-1.57 0.92,-1.614 l 0.015,0 0.061,-0.004 0.015,-0.001 -10e-4,-0.002 c 0.183,-0.035 0.321,-0.183 0.321,-0.389 0,-0.206 -0.177,-0.409 -0.396,-0.396 l -0.031,10e-4 -2.331,0 -0.079,-0.002 c -0.803,0 -1.462,0.658 -1.462,1.469 l 0.004,0.1 0,2.871 c -0.003,0.901 -0.004,1.801 -0.004,2.702 0,0.681 -0.15,1.182 -0.449,1.507 -0.3,0.323 -0.701,0.486 -1.203,0.486 -0.418,0 -0.845,-0.123 -1.283,-0.366 -0.535,-0.293 -0.769,-0.818 -0.778,-1.273 0.004,-0.901 0.002,-1.802 0,-2.703 M -38.396,0.246 c 0.503,0 0.924,-0.171 1.264,-0.51 0.34,-0.341 0.51,-0.762 0.51,-1.264 0,-0.486 -0.17,-0.899 -0.51,-1.239 -0.34,-0.34 -0.761,-0.51 -1.264,-0.51 -0.469,0 -0.882,0.17 -1.238,0.51 -0.357,0.34 -0.535,0.753 -0.535,1.239 0,0.486 0.175,0.904 0.522,1.251 0.349,0.3479999 0.766,0.523 1.251,0.523 m 0.308,-15.899 -0.078,-0.002 c -0.803,0 -1.463,0.658 -1.463,1.469 l 0.004,0.1 0,6.207 c 0,0.654 0.092,1.334 -0.632,1.518 -0.157,0.04 -0.435,0.061 -0.569,0.125 -0.138,0.066 -0.23,0.206 -0.229,0.367 10e-4,0.154 0.101,0.303 0.244,0.369 0.101,0.048 0.248,0.056 0.355,0.071 0.497,0.077 0.97,0.151 1.414,0.247 0.635,0.137 1.306,0.253 1.937,0.408 0.208,0.045 0.419,0.024 0.441,-0.206 l 0.003,-8.268 c 0,-0.715 0.069,-1.57 0.921,-1.614 l 0.014,0 0.061,-0.005 0.015,0 0,-0.002 c 0.183,-0.035 0.32,-0.184 0.32,-0.389 0,-0.206 -0.177,-0.409 -0.396,-0.397 l -0.031,0.002 -2.331,0 z m -4.371,8.619 c 0.004,-0.023 0.006,0.07 0.006,-0.072 0,-0.142 -0.051,-0.396 -0.336,-0.442 -0.285,-0.046 -0.468,0.124 -0.534,0.308 -0.337,0.913 -1.043,1.622 -2.139,1.622 -0.388,0 -0.992,-0.138 -1.267,-0.413 -0.276,-0.275 -0.414,-0.599 -0.414,-0.972 0,-0.34 0.159,-0.66 0.474,-0.959 1.044,-0.99 2.88,-0.982 4.025,-2.053 0.631,-0.583 0.948,-1.337 0.948,-2.26 0,-1.149 -0.486,-2.057 -1.458,-2.72 -0.858,-0.584 -1.871,-0.875 -3.037,-0.875 -0.664,0 -1.284,0.097 -1.858,0.291 -0.518,0.175 -0.915,0.384 -1.19,0.625 l 0,0.001 -0.123,0.185 0,0.002 c -0.07,0.229 -0.143,0.639 -0.218,1.228 -0.04,0.317 -0.071,0.606 -0.094,0.866 l -10e-4,0.175 c 0.031,0.222 0.225,0.397 0.456,0.397 0.197,0 0.366,-0.123 0.434,-0.295 0.579,-1.527 1.354,-2.4 2.91,-2.455 0.453,-0.015 0.822,0.142 1.106,0.426 0.283,0.283 0.425,0.651 0.425,1.105 0,0.405 -0.146,0.769 -0.437,1.093 -0.292,0.324 -0.762,0.615 -1.41,0.874 -1.474,0.568 -3.351,1.736 -3.364,3.549 -0.012,1.77 1.385,2.708 2.944,3.051 1.191,0.262 2.401,0.077 3.537,-0.383 l 0.064,-0.028 0.122,-0.12 0.051,-0.13 c 0.065,-0.193 0.142,-0.475 0.23,-0.843 0.092,-0.39 0.081,-0.399 0.149,-0.778 l -0.001,0 z m -12.384,-5.213 -10e-4,1.844 0,0.012 0,0.011 c 0,0.258 -0.209,0.467 -0.467,0.467 -0.091,0 -0.175,-0.026 -0.247,-0.071 l -0.915,-0.518 c -0.866,-0.492 -1.321,-1.28 -1.303,-2.098 0.017,-0.81 0.659,-1.469 1.462,-1.469 0.63,0 1.168,0.397 1.377,0.955 0.107,0.288 0.094,0.567 0.094,0.867 m 2.867,4.613 0,-5.43 c 0,-0.486 0.061,-0.838 0.182,-1.057 0.103,-0.185 0.231,-0.291 0.386,-0.319 0.251,-0.041 0.442,-0.258 0.442,-0.519 0,-0.195 -0.107,-0.364 -0.265,-0.455 l 0.001,-10e-4 c -0.444,-0.256 -0.973,-0.45 -1.524,-0.456 -0.499,0 -0.92,0.12 -1.257,0.345 -0.382,0.254 -0.573,0.694 -1.105,0.694 -0.461,0 -0.773,-0.388 -1.12,-0.63 -0.365,-0.256 -0.731,-0.409 -1.316,-0.409 -0.886,0 -1.615,0.313 -2.19,0.936 -0.571,0.624 -0.859,1.308 -0.859,2.053 0,1.215 0.624,2.073 1.871,2.575 0.697,0.275 1.395,0.554 2.089,0.85 0.518,0.221 0.94,0.413 1.264,0.577 l 0.003,0.002 0.001,0 c 0.313,0.143 0.53,0.46 0.53,0.826 l 0,0.035 0,0.31 c 0,1.105 -0.331,2.041 -1.292,2.078 -1.714,0.066 -1.857,-1.411 -2.07,-2.511 -0.08,-0.409 -0.427,-0.636 -0.792,-0.636 -0.276,0 -0.567,0.104 -0.874,0.315 -0.374,0.258 -0.376,0.535 -0.376,0.827 0,1.723 1.879,3.066 4.115,3.036 2.565,-0.034 4.156,-0.64 4.156,-3.036 m -15.201,-8.022 -0.079,-0.003 c -0.803,0 -1.462,0.659 -1.462,1.469 l 0.004,0.1 0,6.208 c 0,0.653 0.091,1.334 -0.633,1.517 -0.157,0.04 -0.434,0.062 -0.567,0.126 -0.138,0.065 -0.231,0.206 -0.23,0.367 0.001,0.154 0.101,0.303 0.244,0.369 0.101,0.047 0.247,0.055 0.355,0.071 0.497,0.077 0.97,0.15 1.414,0.246 0.635,0.137 1.306,0.254 1.937,0.408 0.208,0.045 0.419,0.024 0.441,-0.205 0.005,-0.24 0.011,-0.602 0.015,-0.763 0.009,-0.329 0.305,-0.425 0.574,-0.173 0.113,0.107 0.293,0.274 0.365,0.343 0.343,0.293 0.68,0.511 1.073,0.712 0.231,0.117 0.484,0.188 0.77,0.188 0.47,0 0.858,-0.145 1.166,-0.437 0.307,-0.291 0.461,-0.64 0.461,-1.044 0,-0.389 -0.113,-0.746 -0.34,-1.07 -0.227,-0.323 -0.494,-0.542 -0.802,-0.655 -0.129,-0.049 -0.235,-0.073 -0.316,-0.073 -0.145,0 -0.291,0.056 -0.437,0.17 -0.421,0.34 -0.826,0.51 -1.215,0.51 -0.275,0 -0.514,-0.077 -0.716,-0.231 -0.547,-0.416 -0.596,-1.024 -0.596,-1.638 l 0,-4.108 c 0,-0.715 0.07,-1.569 0.921,-1.614 l 0.015,0 0.06,-0.004 0.016,0 0,-0.003 c 0.182,-0.035 0.32,-0.183 0.32,-0.389 0,-0.206 -0.177,-0.408 -0.396,-0.396 l -0.031,0.002 -2.331,0 z m -22.526,15.68 c 1.282,-0.001 2.463,0.02 3.423,0.018 0.703,-0.001 1.287,-0.087 1.709,-0.13 l 0.011,-0.003 c 0.148,-0.015 0.264,-0.139 0.266,-0.29 l 10e-4,-0.005 0,-0.001 0.17,-2.342 c 0.009,-0.128 0.018,-0.24 -0.042,-0.364 -0.086,-0.177 -0.268,-0.301 -0.478,-0.301 -0.196,0 -0.37,0.112 -0.46,0.272 l -0.066,0.165 c -0.189,0.595 -0.406,1.019 -0.647,1.266 -0.356,0.364 -1.232,0.789 -2.624,0.789 l -0.948,0 c -0.468,0 -0.749,-0.036 -0.837,-0.109 -0.089,-0.073 -0.134,-0.322 -0.134,-0.741 l 0,-3.92 c 0,-0.19 -0.018,-0.402 0.037,-0.585 0.089,-0.294 0.327,-0.526 0.629,-0.606 0.16,-0.042 0.333,-0.03 0.497,-0.03 l 0.611,0 c 1.036,0 1.663,0.093 1.882,0.279 0.175,0.15 0.322,0.558 0.44,1.225 l 0.047,0.232 c 0.068,0.177 0.239,0.304 0.437,0.304 0.208,0 0.383,-0.134 0.446,-0.317 l -0.001,-4.692 c -0.064,-0.178 -0.238,-0.31 -0.44,-0.311 -0.183,10e-4 -0.341,0.107 -0.418,0.258 -0.043,0.086 -0.05,0.182 -0.066,0.276 -0.11,0.64 -0.258,1.042 -0.445,1.203 -0.235,0.203 -0.862,0.304 -1.882,0.304 l -0.666,0 c -0.169,0 -0.329,0.007 -0.494,-0.049 -0.279,-0.094 -0.498,-0.322 -0.58,-0.607 -0.045,-0.157 -0.034,-0.318 -0.034,-0.48 l -0.032,-2.74 c -0.01,-0.922 0.037,-1.546 0.109,-1.861 0.072,-0.315 0.236,-0.546 0.498,-0.668 0.191,-0.088 0.434,-0.134 0.717,-0.158 0.283,-0.024 0.734,-0.052 1.348,-0.037 1.913,0.047 2.776,0.504 3.544,2.484 0.084,0.184 0.147,0.508 0.568,0.517 0.254,0 0.467,-0.177 0.522,-0.412 0.032,-0.139 -0.007,-0.278 -0.032,-0.415 -0.061,-0.332 -0.131,-0.689 -0.208,-1.07 -0.149,-0.744 -0.278,-1.292 -0.381,-1.653 l -0.005,-0.008 c -0.038,-0.107 -0.135,-0.186 -0.252,-0.197 l -0.004,-10e-4 c -0.376,-0.094 -0.862,-0.139 -1.477,-0.141 -1.097,-0.002 -2.522,-0.05 -4.086,-0.059 -1.677,-0.009 -3.226,-0.029 -4.374,-0.012 -0.645,0.011 -1.182,0.104 -1.526,0.158 l 0.002,0.004 -0.094,0.028 c -0.138,0.063 -0.232,0.2 -0.231,0.36 0,0.169 0.108,0.314 0.259,0.371 0.095,0.034 0.216,0.023 0.316,0.031 0.645,0.051 1.073,0.204 1.259,0.452 0.234,0.314 0.352,1.137 0.352,2.466 l 0.05,8.037 c 0.008,1.312 -0.107,2.13 -0.316,2.453 -0.164,0.253 -0.532,0.407 -1.102,0.462 l -0.249,0.028 c -0.16,0.05 -0.277,0.201 -0.277,0.379 0,0.175 0.115,0.324 0.272,0.375 l 0.07,0.016 0,0.001 c 0.284,0.048 0.693,0.098 1.198,0.111 1.069,0.025 2.569,-0.008 4.218,-0.009 m 102.871,-12.42 -0.002,1.844 0,0.012 0,0.011 c 0,0.258 -0.209,0.467 -0.467,0.467 l -0.247,-0.07 -0.915,-0.519 c -0.866,-0.491 -1.321,-1.28 -1.303,-2.098 0.017,-0.81 0.659,-1.469 1.462,-1.469 0.629,0 1.168,0.398 1.377,0.955 0.107,0.289 0.095,0.567 0.095,0.867 m 2.867,4.612 0,-5.429 c 0,-0.486 0.06,-0.838 0.181,-1.057 0.103,-0.185 0.232,-0.292 0.387,-0.32 0.25,-0.04 0.441,-0.257 0.441,-0.518 0,-0.195 -0.107,-0.364 -0.265,-0.455 l 0.001,-10e-4 c -0.444,-0.255 -0.973,-0.45 -1.523,-0.455 -0.5,0 -0.921,0.12 -1.257,0.343 -0.383,0.254 -0.574,0.695 -1.106,0.695 -0.461,0 -0.773,-0.388 -1.12,-0.631 -0.365,-0.254 -0.731,-0.407 -1.315,-0.407 -0.887,0 -1.616,0.311 -2.191,0.935 -0.571,0.624 -0.858,1.308 -0.858,2.053 0,1.215 0.623,2.073 1.87,2.575 0.697,0.275 1.395,0.555 2.089,0.85 0.518,0.221 0.94,0.414 1.265,0.577 l 0.002,0.002 0.001,0 c 0.313,0.144 0.531,0.459 0.531,0.826 l -10e-4,0.036 0,0.308 c 0,1.106 -0.331,2.042 -1.292,2.079 -1.713,0.066 -1.857,-1.412 -2.07,-2.511 -0.08,-0.409 -0.426,-0.636 -0.792,-0.636 -0.275,0 -0.568,0.104 -0.874,0.315 -0.374,0.258 -0.376,0.535 -0.376,0.826 0,1.724 1.879,3.067 4.115,3.037 2.566,-0.034 4.157,-0.64 4.157,-3.037 m 5.578,-3.151 0.002,-4.487 0,-0.009 c 0,-0.163 -0.133,-0.296 -0.297,-0.296 l -0.012,0 -2.357,0 -0.003,0 c -0.162,0 -0.296,0.133 -0.296,0.296 l 0.001,0.009 -0.001,0 0,2.037 0,0.031 0,0.032 0,2.034 -0.005,0 0,3.626 c 0,0.518 -0.052,0.862 -0.157,1.033 -0.082,0.134 -0.244,0.215 -0.499,0.243 -0.205,0.022 -0.429,-0.012 -0.623,0.068 -0.138,0.056 -0.235,0.187 -0.243,0.344 -0.007,0.149 0.082,0.299 0.217,0.372 l 0.213,0.05 c 0.592,0.084 1.15,0.186 1.675,0.295 0.368,0.077 1.028,0.142 1.931,0.363 0.207,0.045 0.419,0.023 0.441,-0.206 0.029,-0.788 0.392,-0.996 1.4,-0.338 0.405,0.259 0.788,0.408 1.112,0.521 0.324,0.113 0.672,0.17 1.044,0.17 1.005,0 1.778,-0.296 2.321,-0.886 0.542,-0.591 0.813,-1.373 0.813,-2.345 0,-1.176 0.005,-2.227 0.01,-3.31 l -0.006,0 0,-2.032 c 0,-0.715 0.07,-1.57 0.921,-1.615 l 0.015,0 0.059,-0.004 0.016,0 0,-0.002 c 0.183,-0.035 0.321,-0.183 0.321,-0.389 0,-0.207 -0.178,-0.409 -0.396,-0.397 l -0.031,0.002 -2.332,0 -0.078,-0.002 c -0.804,0 -1.463,0.659 -1.463,1.469 l 0.004,0.1 0,2.87 c -0.002,0.902 -0.004,1.802 -0.004,2.703 0,0.68 -0.149,1.182 -0.449,1.506 -0.299,0.324 -0.701,0.486 -1.202,0.486 -0.418,0 -0.846,-0.121 -1.283,-0.366 -0.536,-0.292 -0.769,-0.817 -0.779,-1.272 0.004,-0.902 0.003,-1.802 0,-2.704 m 9.2,7.892 c 0,-4.067 0.002,-8.314 0.002,-12.381 l 10e-4,0 -10e-4,-0.009 c 0,-0.163 0.131,-0.294 0.293,-0.294 l 0.002,0 2.336,0 0.011,0 c 0.163,0 0.294,0.132 0.294,0.294 l 0,0.009 c 0,1.366 0.006,2.736 0.013,4.105 0.002,0.467 0.425,0.558 0.641,0.203 l 2.577,-3.685 c 0.347,-0.496 0.612,-0.873 1.312,-0.889 l 0.077,0.002 2.793,0 0.031,-0.002 c 0.212,-0.012 0.386,0.189 0.386,0.393 0,0.204 -0.135,0.35 -0.313,0.385 l 0,0.002 -0.015,10e-4 -0.058,0.004 -0.015,0 c -0.782,0.027 -1.486,0.998 -2.18,1.847 -0.312,0.38 -1.686,2.219 -2.424,3.24 -0.478,0.571 -0.282,0.895 0.205,1.381 l 1.638,1.698 c 1.067,1.187 1.724,0.772 1.726,1.413 0.008,0.228 -0.179,0.439 -0.546,0.423 -0.891,0.004 -2.161,0.024 -2.856,-0.007 -0.545,0 -0.556,-0.728 -0.089,-0.825 0.596,-0.114 0.362,-0.633 0.126,-0.929 -0.708,-0.939 -1.417,-1.879 -2.126,-2.818 -0.23,-0.315 -0.437,-0.409 -0.611,-0.349 -0.134,0.047 -0.263,0.163 -0.269,0.508 0.016,2.993 0.052,6.166 -10e-4,9.152 -0.022,0.228 -0.231,0.248 -0.437,0.204 -0.625,-0.153 -1.316,-0.268 -1.945,-0.404 -0.441,-0.096 -0.909,-0.168 -1.401,-0.244 -0.107,-0.016 -0.252,-0.024 -0.353,-0.07 -0.141,-0.067 -0.24,-0.214 -0.241,-0.366 -0.001,-0.16 0.09,-0.299 0.227,-0.364 0.133,-0.063 0.407,-0.085 0.563,-0.124 0.717,-0.182 0.627,-0.856 0.627,-1.504"
           id="path3131"
           style="fill:#2f4889;fill-opacity:1;fill-rule:nonzero;stroke:none" />
        <g
           transform="translate(-122.2484,-21.8168)"
           id="g3133">
          <path
             d="m 0,0 c 0.603,-0.233 1.245,-0.35 1.889,-0.351 0.644,0 1.288,0.115 1.893,0.348 6.956,3.994 12.66,13.835 13.027,21.816 -0.403,6.5 -10.152,6.922 -14.916,6.893 C -2.773,28.735 -12.629,28.171 -13.023,21.81 -12.654,13.832 -6.953,3.995 0,0"
             id="path3135"
             style="fill:#fb255b;fill-opacity:1;fill-rule:nonzero;stroke:none" />
          <g
             transform="translate(2.225,28.2329)"
             id="g3137">
            <path
               d="M 0,0 C -0.166,0 -0.327,0 -0.485,-0.001 -0.599,-0.001 -0.717,0 -0.837,0 -5.421,0 -14.281,-0.554 -14.65,-6.27 c 0.167,-3.473 1.057,-7.224 3.209,-10.741 4.087,6.421 25.709,10.726 24.543,12.86 C 10.805,-0.353 4.151,0 0,0"
               id="path3139"
               style="fill:#eb7a8c;fill-opacity:1;fill-rule:nonzero;stroke:none" />
            <g
               transform="translate(-0.3866,-21.9739)"
               id="g3141">
              <path
                 d="m 0,0 0.035,0.039 c 3.135,3.434 5.581,6.114 8.716,9.547 0.97,1.062 1.623,1.634 0.711,2.743 l -1.9,2.309 -4.657,1.204 -2.905,0 -2.904,0 -4.657,-1.204 c -0.714,-0.867 -1.223,-1.485 -1.936,-2.352 -0.678,-0.822 -0.054,-1.791 0.664,-2.578 L -0.034,0.039 0,0 z"
                 id="path3143"
                 style="fill:#ffffff;fill-opacity:1;fill-rule:nonzero;stroke:none" />
              <g
                 transform="translate(7.4493,14.24)"
                 id="g3145">
                <path
                   d="m 0,0 c -0.996,-0.695 -2.242,-0.997 -3.507,-1.264 0.656,0.058 0.998,0.088 1.655,0.147 0.428,0.038 0.758,0.092 1.058,-0.212 l 1.449,-1.46 c -0.294,0.533 -0.588,1.067 -0.882,1.601 -0.183,0.333 -0.189,0.324 -0.024,0.666 C -0.167,-0.349 -0.083,-0.174 0,0"
                   id="path3147"
                   style="fill:#fc255c;fill-opacity:1;fill-rule:nonzero;stroke:none" />
                <g
                   transform="translate(-15.2694,-4.1776)"
                   id="g3149">
                  <path
                     d="m 0,0 c 0.775,-0.172 0.899,-0.199 1.674,-0.371 0.509,-0.112 1.314,-0.005 1.543,0.462 l 0.83,1.692 C 3.975,0.628 3.352,-0.77 4.68,-1.036 L 7.12,-1.888 C 6.058,-1.804 5.085,-1.519 4.644,-1.771 4.125,-2.066 4.437,-2.554 4.592,-2.914 L 6.767,-7.955 C 5.385,-5.428 4.179,-3.482 2.444,-1.827 1.738,-1.155 0.913,-0.684 0,0"
                     id="path3151"
                     style="fill:#fc255c;fill-opacity:1;fill-rule:nonzero;stroke:none" />
                  <g
                     transform="translate(0.3714,4.1776)"
                     id="g3153">
                    <path
                       d="M 0,0 C 0.863,-0.625 2.178,-0.95 3.508,-1.264 2.835,-1.205 2.162,-1.145 1.49,-1.085 1.073,-1.048 1.074,-1.048 0.778,-1.346 l -1.433,-1.443 c 0.314,0.57 0.627,1.141 0.942,1.712 0.127,0.229 0.123,0.22 0.011,0.456 C 0.198,-0.414 0.098,-0.208 0,0"
                       id="path3155"
                       style="fill:#fc255c;fill-opacity:1;fill-rule:nonzero;stroke:none" />
                    <g
                       transform="translate(7.4763,-4.6475)"
                       id="g3157">
                      <path
                         d="M 0,0 -0.031,-0.132 -0.055,0 c -0.128,0.601 -0.257,1.203 -0.386,1.804 -0.15,0.706 -0.092,0.691 -0.781,0.9 -0.604,0.184 -1.207,0.367 -1.81,0.549 2.003,-0.346 4.006,-0.346 6.009,0 C 0.208,2.413 0.606,2.837 0,0"
                         id="path3159"
                         style="fill:#fc255c;fill-opacity:1;fill-rule:nonzero;stroke:none" />
                      <g
                         transform="translate(8.0142,0.4698)"
                         id="g3161">
                        <path
                           d="m 0,0 c -0.776,-0.172 -0.898,-0.199 -1.674,-0.371 -0.509,-0.112 -1.314,-0.005 -1.543,0.462 l -0.829,1.692 c 0.071,-1.155 0.695,-2.553 -0.633,-2.819 l -2.44,-0.852 c 1.061,0.084 2.034,0.369 2.475,0.117 0.519,-0.295 0.207,-0.783 0.052,-1.143 l -2.175,-5.041 c 1.382,2.527 2.589,4.473 4.323,6.128 C -1.738,-1.155 -0.913,-0.684 0,0"
                           id="path3163"
                           style="fill:#fc255c;fill-opacity:1;fill-rule:nonzero;stroke:none" />
                      </g>
                    </g>
                  </g>
                </g>
              </g>
            </g>
          </g>
        </g>
      </g>
    </g>
  </g>
</svg>
