<svg clip-rule="evenodd" fill-rule="evenodd" height="145.033mm" image-rendering="optimizeQuality" shape-rendering="geometricPrecision" text-rendering="geometricPrecision" viewBox="0 0 49741.37 14293.56" width="504.714mm" xmlns="http://www.w3.org/2000/svg"><path d="m7134.29 0c-5335.97 2-7128.29 1279.72-7134.29 3381.03v20.77c6.14 5843.72 5235.76 10891.77 7146.73 10891.77 1912.11 0 7146.87-5053.91 7146.87-10902.01 0-2107.6-1789.57-3389.55-7134.44-3391.55h-24.87z" fill="#e1056d" fill-rule="nonzero"/><path d="m46705.17 5866.35v2.86c0 62.19-49.93 112.98-112.16 112.98h-5-893.21-.52c-61.66 0-112.59-50.79-112.59-112.98v-2943.64c0-196.82-21.68-327.22-61.17-391.78-31.11-50.6-92.1-81.19-189.11-91.96-77.32-8.72-162.51 4.72-236.18-25.72-52.41-21.35-88.9-71.22-92.1-131.07-2.99-55.48 31.12-113.32 82.39-140.71 23.53-12.28 52.07-16.62 80.66-19 224.55-31.73 996.09-170.75 1366.33-248.91 78.68-16.81 159.19-9.42 167.11 78.48 10.76 298.35 148.61 377.2 530.62 127.26 153.79-98.01 298.55-154.99 421.24-197.35 123.21-42.83 254.8-63.84 396.17-63.84 380.55 0 673.85 111.26 879.39 335.66 205.73 224.22 308.79 520.2 308.79 888.3v2024.22c0 271.3 27.21 595.53 349.78 612.49h6.03c7.25 0 14.64 0 22.55 1.33l6.04.66-.85.53c69.75 12.61 122.02 69.41 122.02 146.89 0 78.51-67.37 155.31-149.76 151.13l-12.23-1.35h-883.44c-9.77 1.35-19.34 1.35-29.92 1.35-304.75 0-554.02-249.81-554.02-557.23v-2149.76c0-257.53-56.46-448.29-170.43-570.98-113.64-122.36-265.06-183.86-455.83-183.86-158.51 0-319.89 45.55-485.79 138.84-202.88 110.39-291.27 308.93-294.78 481.36v2725.79zm-2119.03-2963.79v2057.82c0 183.91 23.34 317.51 69.89 400.22 38.16 70.95 87.57 110.92 145.89 122.03 94.47 15.14 166.95 97.49 166.95 196.15 0 73.81-40.02 138.31-99.86 171.77v.7c-168.09 97.49-368.59 170.77-577.04 172.44-189.43 0-349.1-44.88-476.35-129.74-145.38-96.35-217.13-263.38-418.86-263.38-175.47 0-292.97 146.89-424.71 238.99-138.36 96.14-276.54 154.13-498.24 154.13-336.65 0-612.47-117.64-830.5-353.96-216.65-236.51-325.71-496.04-325.71-778.25 0-460.07 236.66-785.43 709.31-976.07 263.85-103.67 528.76-209.57 792.14-322.02 195.84-84.05 355.34-156.33 478.36-218.5l1.19-.67c118.83-54.31 201.68-174.33 201.68-313.17v-13.44-116.95c0-419.2-125.87-773.87-490.46-787.97-648.79-25.07-703.05 535.01-783.57 951.86-30.44 154.81-162.05 241.18-300.55 241.18-104.54 0-214.97-39.5-331.14-119.36-142.16-98.14-142.16-202.86-142.16-313.79 0-652.69 712.01-1162.11 1559.28-1150.53 972.02 12.96 1574.46 242.71 1574.46 1150.53zm-1085.85 1748.41-1.13-699.06.67-4.39v-4.19c0-98-79.2-176.81-176.68-176.81-34.78 0-67.22 9.9-93.95 26.87l-346.77 196.17c-328.22 186.57-500.03 485.08-494.13 795.34 6.72 306.61 249.75 556.36 553.97 556.36 238.85 0 443.07-150.61 522.25-362.2 40.82-108.92 35.77-214.3 35.77-328.08zm-5127.84-1975.82c1.68 8.72 2.34-26.91 2.34 27.4 0 53.8-19.49 150.61-127.2 167.57-107.93 17.3-177.54-47.4-202.41-116.16-128.06-346.23-395.51-615.67-811.16-615.67-146.7 0-375.82 52.6-480.21 156.79-104.01 104.26-155.8 227.09-155.8 367.98 0 129.25 59.7 250.42 179 364.39 395.5 374.82 1091.36 371.64 1526.04 777.53 238.83 221.41 359 506.48 359 856.24 0 435.47-184.21 779.89-552.84 1031-325.56 221.21-709.29 331.47-1151.15 331.47-251.62 0-486.13-36.45-703.97-110.25-196.63-66.56-346.38-145.08-450.95-236.52v-.47c-21.36-18.34-38.12-42.68-46.7-70.75-26.25-87.09-54.32-242.42-82.38-465.59-15.63-120.21-27.4-229.61-35.77-328.29-1.19-22.19-3.19-43.54-.86-65.88 12.24-84.71 86.05-150.42 173.14-150.42 74.28 0 138.98 46.21 164.53 111.26 219.55 579.04 513.18 909.17 1103.13 930.52 171.96 6.18 311.46-53.46 418.52-161.38 107.79-107.25 161.53-246.76 161.53-418.52 0-153.62-55.6-291.97-165.71-414.52-110.46-123.02-289.13-233.28-534.5-331.42-558.22-215.17-1269.9-657.57-1274.95-1345.04-3.99-670.8 525.44-1025.95 1116.1-1155.89 451.3-99.19 910.17-29.05 1339.79 144.56 8.38 3.67 17.16 7.2 25.01 11.58 19.02 9.77 35.31 26.07 45.6 45.08 8.71 14.58 14.58 34.11 19.63 49.21 24.38 73.28 54.13 179.86 86.9 319.38 35.64 147.88 31.25 151.07 56.98 294.81h-.67zm2211.61-2003.2c0 370.93-300.36 671.65-671.48 671.65-371.1 0-671.65-300.73-671.65-671.65 0-370.98 300.55-671.85 671.65-671.85 371.11 0 671.48 300.87 671.48 671.85zm328.27 5310.38c101.01 0 162.38-72.76 162.38-150.75 0-77.87-60.31-138.37-155.79-150.61-320.9-40.5-349.28-340.52-349.28-611.15 0 0-.34-2332.15-.34-3133.89 0-86.9-89.09-94.48-167.77-78.01-238.83 58.99-492.79 102.88-733.64 154.81-168.94 36.45-347.95 64.52-536.19 93.1-40.17 6.24-96.35 9.23-134.8 26.91-53.98 25.54-91.96 82.33-91.96 139.99-.66 61.03 34.79 114.64 86.73 139.84 51.12 23.73 155.84 32.12 214.97 47.4 274.82 69.42 240.05 327.41 240.05 575.18v2352.17c0 321.22 247.75 594.86 552.83 594.86 9.57 0 691.99.14 912.83.14zm-19150.15-5982.23c376.02 0 511.29 4.52 613 37.64 75.62 24.73 138.51 83.05 146.71 174.81 22.53 255 60.69 831.37 60.69 831.37 24.02 236.98-103.72 257.15-183.71 257.15-74.14 0-154.47-54.27-186.25-167.91-63.84-227.41-179.67-389.27-271.62-482.89-134.79-138.5-466.74-298.69-993.84-298.69h-492.65c-164.57 0-242.37 121.82-242.37 321.84v1485.55c0 72.09.67 187.25 21.35 256.66 33.59 110.92 123.67 199.35 238.18 229.75 60.5 15.97 126.35 11.11 188.24 11.11h243.38c392.31 0 553.15-35.46 636.21-105.39 66.36-56.99 121.82-211.59 166.23-464.4 4.66-28.06 8.52-61.02 18.49-87.9 25.34-66.9 90.05-115.32 165.71-115.32 78.48 0 168.76 49.08 168.76 150.09l-.67 1680.18c0 85.39-73.81 150.76-166.43 150.76-69.41 0-129.74-39.97-158.99-97.49-15.83-32.12-19.02-69.43-24.54-104.72-42.02-242.52-98.01-394.99-168.57-455.64-89.1-76.85-249.48-115.36-636.21-115.36h-263.91c-270.44 0-425.76 181.05-427.24 531.69-1.01 234.32 1.13 764.43 0 1019.23-1.71 349.95 9.05 503.76 36.79 623.44 27.39 119.35 89.61 207.27 188.76 252.82 72.43 33.43 164.7 51.07 271.77 60.3 106.59 9.11 277.87 18.83 510.67 13.44 725.27-17.83 1085.12-185.39 1376.09-935.53 31.93-70.07 63.04-196.48 215.12-196.15 106.72 0 196.01 78.14 152.8 308.27-23.54 125.55-183.38 935.04-223.88 1071.36-23.21 79.81-94.3 142.18-207.92 142.18-419.2-.48-3564.85 0-4058.36 0-94.48 0-178.15-49.22-178.15-150.09 0-88.77 52.26-151.27 178.15-151.27 188.43 0 325.76-160.2 395.98-254.01 89.11-119.3 143.74-431.94 143.74-934.84v-3045.84c3.21-497.37-31.1-806.97-110.43-929.47-62.18-95.48-152.28-220.22-431.96-220.22-100.52 0-175.47-65.56-175.47-148.41 0-117.16 103.87-148.09 171.91-148.09h3294.45zm7213.24 5982.23c-304.89 0-552.79-259.34-552.79-594.86v-2352.11c0-247.96 34.44-505.63-240.04-575.38-59.18-15.11-164.56-23.52-214.97-47.4-52.61-25.01-87.44-77.81-87.44-139.51.87-57.98 38.5-114.63 92.83-139.5 38.3-17.62 94.1-21.48 134.97-27.4 188.25-28.91 1030.35-189.1 1269.67-247.57 78.66-17.48 159.18-9.1 166.94 78.33 1.81 90.44 4.2 227.08 5.53 288.59 3.53 125.06 115.64 160.85 218.17 66.04 42.56-41.17 110.77-104.54 138.32-129.93 129.6-111.77 257.2-194.45 406.27-269.91 87.72-45.23 183.05-72.13 291.3-72.13 178.67 0 325.37 55.46 442.54 165.75 116.17 110.92 174.81 242.52 174.81 396.19 0 147.4-43.17 282.2-129.27 404.54-85.7 123.21-187.04 206.07-303.88 249.29-49.08 18.29-88.77 27.39-119.35 27.39-55.12 0-110.25-21.2-166.04-63.89-159.67-129.07-312.45-193.78-460.08-193.78-104.52 0-194.96 29.07-271.76 87.24-206.91 157.66-225.22 388.73-225.22 621.39v1556.11c0 271.44 24.03 571.12 349.11 612.15 116.49 14.64 155.13 71.75 155.13 149.75 0 77.85-66.23 150.61-149.74 150.61h-924.99zm-2833.35-3845.23c0-30.06-2.71-73.76 10.25-102.54 10.44-23.53 30.59-43.17 55.99-53.94 29.72-13.43 77.61-13.11 109.73-16.62 35.97-4.39 72.61-8.45 110.29-13.49 232.08-28.54 422.38-53.07 569.27-72.94 44.36-5.53 111.97-20.16 158.51-20.16 46.02 0 85.71 28.08 102.67 68.9 11.63 27.4 10.1 58.36 10.1 88.28v3140.08c8.25 249.28 59.99 511.14 349.44 526.3h5.72c7.71 0 15.62 0 23.01 1.52h6.05l-.48 1.14c69.41 13.15 122.02 69.42 122.02 147.43 0 77.85-66.74 150.6-150.6 150.6l-895.36-.82c-9.58 0-19.53.82-29.77.82-143.18 0-273.97-54.93-372.64-145.7-91.58-72.61-134.99-191.49-204.4-217.16-83.51-30.93-214.98 10.57-412.13 138.98-153.79 98.34-388.6 195.83-511.14 237.84-122.17 43.23-254.82 64.56-395.98 64.56-380.22 0-673.19-111.44-878.73-336-206.07-223.55-310.99-520.24-310.99-888.16v-2093.3c0-165.76-20.02-274.68-53.27-326.61-33.64-52.27-112.1-87.24-235.32-105.87-47.54-7.39-112.97-10.58-158.52-31.92-50.41-24.2-84.71-75.47-84.71-135.99.66-55.84 37.82-111.3 90.28-135.65 37.83-17.66 88.38-14.14 129.08-15.81 176-8.57 375.35-21.34 594.85-48.73 231.46-28.75 422.38-53.8 569.12-73.81 44.56-5.39 112.11-20.15 158.34-20.15 46.4 0 86.05 28.25 103.05 68.22 12.26 28.07 10.58 59.84 10.58 89.1v2600.06c0 257.86 58.85 448.44 172.95 570.98 113.31 122.36 265.06 184.06 455.16 184.06 158.32 0 320.56-46.21 486.26-138.17 202.88-110.91 291.3-310.26 294.83-482.89-3.53-866.8-5.57-1735.28-3.53-2602.44zm8623.47 765.47v2057.82c0 183.91 23.05 317.51 69.41 400.22 38.5 70.95 87.77 110.92 146.61 122.03 94.1 15.14 166.71 97.49 166.71 196.15 0 73.81-40.36 138.31-99.82 171.77v.7c-168.29 97.49-368.78 170.77-577.23 172.44-189.77 0-349.11-44.88-476.69-129.74-144.7-96.35-216.79-263.38-418.52-263.38-175.48 0-293.12 146.89-424.72 238.99-138.35 96.14-276.68 154.13-498.55 154.13-336.15 0-612.49-117.64-830.51-353.96-216.12-236.51-325.37-496.04-325.37-778.25 0-460.07 236.47-785.43 709.3-976.07 263.86-103.67 528.96-209.57 792.49-322.02 195.35-84.05 355.01-156.33 478.22-218.5l1.18-.67c118.97-54.31 201.69-174.33 201.69-313.17v-13.44-116.95c0-419.2-126.22-773.87-490.46-787.97-649.13-25.07-703.26 535.01-783.77 951.86-30.45 154.81-162.04 241.18-300.37 241.18-104.9 0-215.15-39.5-331.66-119.36-141.83-98.14-141.83-202.86-141.83-313.79 0-652.69 711.68-1162.11 1559.29-1150.53 972.01 12.96 1574.59 242.71 1574.59 1150.53zm-1085.79 1748.41-1.19-699.06.52-4.39v-4.19c0-98-78.99-176.81-176.67-176.81-34.64 0-67.05 9.9-93.64 26.87l-347.09 196.17c-328.43 186.57-500.38 485.08-494.14 795.34 6.72 306.61 249.9 556.36 553.98 556.36 238.85 0 443.06-150.61 522.25-362.2 40.83-108.92 35.97-214.3 35.97-328.08zm-1020.95 4794.04c0-245.76 33.92-500.91-237.85-569.79-58.31-15.49-162.51-23.4-213.12-47.08-51.93-24.87-86.37-78.13-85.71-138.32 0-57.17 37.64-113.48 91.24-138.35 37.64-17.48 93.15-20.7 133.13-26.74 186.91-28.54 1031.85-187.72 1268.18-245.57 78.18-17.1 157.99-9.05 165.91 77.33 20.19 1131.39 6.71 2333.82.67 3468.4 2.38 130.42 51.12 174.49 101.86 192.63 65.57 22.49 144.22-12.77 231.46-132.79 268.77-356.01 536.87-711.68 805.64-1067.83 89.58-111.78 177.29-306.75-47.59-351.95-177.68-35.83-173.1-314.32 33.45-314.32h1082.79c155.66 0 206.74 72.94 206.74 159.47 0 225.26-250.1 85.43-653.98 535.73l-620.92 643.22c-185.4 184.24-258.86 306.93-77.81 522.91 280.2 387.58 800.58 1084.99 918.22 1228.53 263.91 321.71 548.45 704.24 844.61 714.01h5.39c7.37 0 14.76.48 22.01 1.34l6.05.66v.53c66.89 13.1 118.16 68.9 118.16 146.22 0 77.33-63.17 147.9-145.02 147.9h-1070.22c-261.99 0-395.99-147.9-528.1-335.67l-994.56-1411.02c-81.18-135.3-241.17-100.53-242.71 76.62-2.18 519.24-4.52 1037.77-4.52 1555.95v3.35c0 61.02-49.4 111.62-111.62 111.62l-3.68-.66v.66h-885.3-1.53c-60.65 0-110.58-49.93-110.58-111.62l.52-3.35h-.52c0-1540.99-.67-3150.35-.67-4692.03zm-3573.46 4691.03v2.86c0 62.18-49.89 112.92-112.11 112.92h-4.86-893.21-.67c-61.5 0-112.91-50.75-112.91-112.92v-2943.49c0-196.96-21.2-327.24-60.51-391.93-31.31-50.46-92.14-80.85-189.29-91.96-77.28-8.57-162.51 5.06-236.12-25.39-52.61-21.35-89.11-71.43-92.31-131.13-2.85-55.47 31.26-113.26 82.39-140.66 23.87-12.3 52.6-16.68 81.18-19 224.22-31.78 995.7-170.77 1365.99-249.29 79-16.77 159.19-9.38 167.06 78.68 11.09 298.54 148.74 377.01 530.81 127.39 153.27-98.28 298.7-154.95 421.05-197.48 123.07-42.7 254.47-64.04 396.03-64.04 380.88 0 674 111.44 879.2 335.66 206.11 224.23 308.46 520.38 308.46 888.69 0 445.24 1.19 2024.02 1.19 2024.02 0 271.29 26.88 595.34 349.09 612.48h6.2c7.24 0 14.64 0 22.39 1.19l6.2.67-.52.52c69.42 12.92 121.73 69.57 121.73 146.89 0 78.47-67.76 155.47-149.8 151.08l-12.24-1.14h-883.63c-9.58 1.14-19.48 1.14-29.74 1.14-304.54 0-553.67-249.75-553.67-556.84v-2149.76c0-257.86-56.99-448.5-170.76-570.98-113.3-122.55-265.05-184.25-456.02-184.25-158.14 0-319.85 45.88-485.56 139.02-202.87 110.25-291.16 308.94-295.01 481.56v2725.46zm-8302.75-3276.63c218.64-41.69 402.89-119.3 540.54-232.94 215.64-178.18 322.37-493.31 322.37-875.2 0-394.51-110.39-683.62-331.61-868.14-130.79-110.11-308.27-202.56-517.2-242.91-122.68-22.53-247.89-22.53-372.3-12.96-210.45 16.83-204.21 114.65-204.21 318.19v1463.86c0 71.75-7.43 152.95 13.97 222.7 33.6 111.3 123.84 199.87 238.47 230.6 95.48 24.87 212.49 14.29 309.98-3.19zm60.51 3001.8c280.68-13.29 523.24-105.73 710.48-275.67 244.91-221.83 368.58-553.96 368.58-997.55 0-455.82-138.98-761.56-419.18-981.78-167.57-131.61-382.07-225.75-619.91-279.01-125.54-28.07-308.94-44.7-429.96-3.54-106.05 35.98-189.23 122.88-220.16 231.61-16.96 59.37-12.78 121.35-12.78 182.2l-12.28 1108.19c-4.2 350.44 14.29 588.28 41.69 707.44 27.24 119.88 88.76 208.45 188.57 254.48 126.41 58.71 268.3 60.04 404.95 53.64zm15.1-5590.95c662.94 0 1154.21 91.96 1486.88 298.55 182.86 113.77 321.03 251.27 410.13 420.72 89.05 169.23 133.45 380.2 133.45 632.82 0 369.25-146.93 678.04-441.9 923.61-162.71 134.78-341.86 264.57-542.4 342.7-32.78 13.11-57.13 30.59-57.13 66.91 0 53.78 49.89 65.89 91.58 75.79 329.62 81.2 605.97 211.65 821.08 392.66 319.89 268.95 478.56 627.79 478.56 1071.88 0 319.85-70.1 594.34-211.46 821.94-141.5 228.08-340.71 418.66-599.05 572.78-220.5 128.94-481.56 223.22-782.44 281.87-221.83 42.88-499.71 79.52-1097.09 79.52-619.86-.19-2022.02-.19-2075.29-.52-56.98-.14-176.67-22.01-177.48-142.03-.34-102.54 79-149.56 155.94-156.81 465.45-43.88 562.74-513.66 562.74-1077.41v-3153.23c0-498.89-31.92-811.34-110.92-934.23-62.18-95.44-137.97-186.53-353.14-217.84-84.05-12.23-253.81-24-253.81-162.32 0-139.5 141.7-137.36 176.01-137.36 409.79 0 1371.04-1.14 1996.3 0zm6091.53 2889.37v2057.8c0 183.92 23.06 317.51 69.41 400.23 38.5 70.94 87.76 110.92 146.61 122.02 94.11 15.15 166.72 97.49 166.72 196.16 0 73.81-40.36 138.31-99.82 171.76v.71c-168.29 97.49-368.79 170.77-577.24 172.43-189.77 0-349.1-44.88-476.69-129.74-144.7-96.34-216.79-263.38-418.52-263.38-175.47 0-293.12 146.89-424.71 239-138.36 96.14-276.68 154.12-498.56 154.12-336.14 0-612.48-117.63-830.5-353.95-216.13-236.52-325.38-496.04-325.38-778.26 0-460.06 236.47-785.42 709.31-976.06 263.85-103.67 528.95-209.58 792.49-322.03 195.34-84.05 355-156.33 478.21-218.5l1.19-.66c118.97-54.31 201.69-174.33 201.69-313.17v-13.44-116.96c0-419.19-126.23-773.86-490.47-787.97-649.12-25.06-703.25 535.01-783.77 951.86-30.44 154.81-162.05 241.18-300.36 241.18-104.91 0-215.16-39.49-331.66-119.36-141.83-98.14-141.83-202.85-141.83-313.77 0-652.7 711.68-1162.12 1559.28-1150.55 972.02 12.96 1574.59 242.71 1574.59 1150.55zm-1085.78 1748.39-1.19-699.05.52-4.39v-4.2c0-98-79-176.81-176.67-176.81-34.65 0-67.05 9.91-93.64 26.88l-347.09 196.17c-328.43 186.56-500.38 485.07-494.14 795.34 6.72 306.6 249.89 556.35 553.97 556.35 238.85 0 443.07-150.6 522.25-362.2 40.83-108.91 35.98-214.3 35.98-328.08zm1070.91-1748.39v2057.8c0 183.92 23.07 317.51 69.43 400.23 38.5 70.94 87.75 110.92 146.61 122.02 94.1 15.15 166.7 97.49 166.7 196.16 0 73.81-40.36 138.31-99.82 171.76v.71c-168.28 97.49-368.78 170.77-577.23 172.43-189.76 0-349.1-44.88-476.69-129.74-144.7-96.34-216.79-263.38-418.51-263.38-175.48 0-293.13 146.89-424.72 239-138.37 96.14-276.68 154.12-498.56 154.12-336.14 0-612.48-117.63-830.52-353.95-216.12-236.52-325.36-496.04-325.36-778.26 0-460.06 236.47-785.42 709.3-976.06 263.86-103.67 528.96-209.58 792.49-322.03 195.34-84.05 355.01-156.33 478.22-218.5l1.19-.66c118.95-54.31 201.67-174.33 201.67-313.17v-13.44-116.96c0-419.19-126.2-773.86-490.45-787.97-649.12-25.06-703.25 535.01-783.77 951.86-30.45 154.81-162.05 241.18-300.36 241.18-104.92 0-215.17-39.49-331.66-119.36-141.85-98.14-141.85-202.85-141.85-313.77 0-652.7 711.69-1162.12 1559.3-1150.55 972.02 12.96 1574.58 242.71 1574.58 1150.55zm-1085.79 1748.39-1.19-699.05.53-4.39v-4.2c0-98-79-176.81-176.68-176.81-34.62 0-67.03 9.91-93.62 26.88l-347.11 196.17c-328.41 186.56-500.36 485.07-494.12 795.34 6.72 306.6 249.89 556.35 553.98 556.35 238.83 0 443.04-150.6 522.24-362.2 40.83-108.91 35.96-214.3 35.96-328.08z" fill="#1d3f88" fill-rule="nonzero"/><path d="m2758.05 6093.53c-354-385.93-661.75-861.09-327.8-1265.18 352.48-425.43 603.62-728.97 956.25-1154.55l2300.03-590.33h2867.17l2299.18 590.33 937.9 1133.21c450.82 544.73 127.92 824.78-350.96 1346.51-1547.67 1685.17-4320.07 4705.66-4320.07 4705.66zm8235.95-117.58s-611.15 129.4-923.32 197.29c-359.01 78.52-552.45-25.4-655.66-242.51-99.53-208.6-407.27-829.37-407.27-829.37s84.19 635.73 101.86 848.66c12.91 157.66 55.79 348.43-412.65 535.2-330.13 131.26-1197.95 417.33-1197.95 417.33s653.36-81.86 824.45-100.35c641.27-69.75 589.8 257.2 457.88 512.81-279.69 541.25-1262.32 2363.93-1262.32 2363.93 960.25-1363.99 1843.55-3098.1 3474.98-3703zm-4219.58 3703s-982.6-1822.68-1262.27-2363.93c-132.12-255.62-183.58-582.56 457.83-512.81 171.29 18.49 824.26 100.35 824.26 100.35s-867.63-286.07-1197.9-417.33c-468.45-186.77-425.43-377.54-412.47-535.2 17.48-212.93 101.86-848.66 101.86-848.66s-307.94 620.77-407.27 829.37c-103.21 217.11-296.83 321.03-655.71 242.51-312.32-67.89-923.27-197.29-923.27-197.29 1631.24 604.9 2514.68 2339.01 3474.93 3703zm-1122.77-5018.78 969.97 233.99c183.58 44.21 321.56 195.49 349.15 382.36l176.14 868.47 175.62-868.47c27.72-186.87 165.76-338.15 349.48-382.36l969.82-233.99zm3406.18-119.5 941.77-158.19c149.41-25.2 301.36 24.2 407.6 132.32l712.69 727.26c-91.63-166.38-297.17-494.65-450.49-736.5-111.26-175.67-91.58-403.27 47.93-557.74l78.47-87.04-1737.96 679.9zm-3822.36 0-941.76-158.19c-149.27-25.2-301.22 24.2-407.46 132.32l-712.64 727.26c91.44-166.38 296.98-494.65 450.44-736.5 111.44-175.67 91.44-403.27-48.07-557.74l-78.47-87.04 1737.96 679.9z" fill="#fefefe"/></svg>