<svg xmlns="http://www.w3.org/2000/svg" xmlns:xlink="http://www.w3.org/1999/xlink" width="164" height="58" viewBox="0 0 164 58"><defs><path id="8qbda" d="M157.052 92.635l23.582 23.583 23.581-23.583-23.581-23.582zm6.906 10.283l-2.382-2.382-7.892-7.896 7.892-7.895 2.382-2.382v-6.4h6.397l10.274-10.279 7.891 7.896 2.382 2.382h6.398v6.4l2.381 2.383 7.892 7.895-7.892 7.895-2.381 2.383v6.401h-6.398l-2.382 2.383-7.891 7.895-7.892-7.895-2.382-2.383h-6.397zM180.628 64l-9.575 9.578h-9.477v9.48L152 92.634l9.576 9.579v9.479h9.477l9.576 9.578 9.575-9.578h9.477v-9.48l9.576-9.578-9.576-9.578v-9.479h-9.477z"/><path id="8qbdb" d="M153.68 92.631l10.273-10.276v-6.399h6.398l10.273-10.276 10.273 10.276h6.398v6.4L207.57 92.63l-10.274 10.276v6.4h-6.398l-10.273 10.276-10.273-10.276h-6.398v-6.4zm10.27 6.903c3.978-4.797 9.975-7.858 16.667-7.859 5.165 0 9.377-4.213 9.377-9.38 0-2.44-.939-4.668-2.474-6.34l-6.903-6.906-6.904 6.907-9.762 9.766-6.903 6.907 6.903 6.906zm33.345-13.806c-3.978 4.797-9.977 7.858-16.671 7.858-5.167.001-9.38 4.215-9.38 9.382 0 2.44.94 4.667 2.476 6.339h-.002l6.906 6.906 6.906-6.906 9.765-9.767 6.906-6.906z"/><path id="8qbdc" d="M239.692 111.695h-4.763l9.05-18.105h4.763l9.05 18.105h-4.764l-1.428-2.86h-10.48zM210.16 93.59h18.338a4.539 4.539 0 0 1 4.525 4.526 4.538 4.538 0 0 1-4.525 4.526 4.539 4.539 0 0 1 4.525 4.526 4.539 4.539 0 0 1-4.525 4.527H210.16zm0-20.01h4.764v7.623h13.336V73.58h4.763v18.104h-4.763v-7.622h-13.336v7.622h-4.764zm41.44 15.246h-10.48l-1.428 2.858h-4.763l9.05-18.104h4.763l9.05 18.104h-4.764zm-9.05-2.849h7.62l-3.81-7.633zm17.147-12.397h4.763v15.246h13.337v2.858h-18.1zm24.775 18.104h-4.766v-7.622l-9.053-10.482h4.765l6.671 7.623 6.671-7.623h4.765l-9.053 10.482zm10.472-18.104h4.766v7.623l10.485-7.623h5.241l-12.295 9.052 12.295 9.052h-5.241l-10.485-7.622v7.622h-4.766zm10.003 38.115h-5.239l-10.479-7.623v7.623h-4.764V93.59h4.764v7.623l10.48-7.623h5.238l-12.289 9.052zm-45.25-18.105h4.763l13.337 13.34V93.59h4.763v18.105h-4.763l-13.337-13.34v13.34h-4.763zm-44.773 2.859v4.764h10.955a2.389 2.389 0 0 0 2.381-2.382 2.389 2.389 0 0 0-2.381-2.382zm0 7.623v4.774h10.955a2.391 2.391 0 0 0 2.381-2.387 2.392 2.392 0 0 0-2.381-2.387zm35.247 1.915l-3.81-7.633-3.811 7.633z"/></defs><g><g transform="translate(-152 -64)"><g><use fill="#00805f" xlink:href="#8qbda"/></g><g><use fill="#faae17" xlink:href="#8qbdb"/></g><g><use fill="#008060" xlink:href="#8qbdc"/></g></g></g></svg>