<svg xmlns="http://www.w3.org/2000/svg" width="317.509mm" height="61.247mm" viewBox="0 0 15970 3080" shape-rendering="geometricPrecision" text-rendering="geometricPrecision" image-rendering="optimizeQuality" fill-rule="evenodd" clip-rule="evenodd"><defs><style type="text/css"><![CDATA[
    .fil0 {fill:#FEFEFE}
    .fil1 {fill:#DC373C}
   ]]></style></defs><g id="Слой_x0020_1"><path class="fil0" d="M0 0h5418v3080h-5418z"/><path class="fil1" d="M0 3080h5418v-3080h-5418v3080zm5072-272h-102v-2193l-591-215v2407l-4052 1v-102h2964v-2167l1088-261 693 265v2265z"/><path class="fil0" d="M1949 1031h370v93h-231v69h214v89h-214v86h238v99h-377v-436zm-589 0h181l70 265 70-265h181v436h-113v-333l-87 333h-102l-87-333v333h-113v-436zm-398 219c0 44 9 75 25 95 17 19 40 28 69 28 30 0 53-9 69-28s24-53 24-101c0-41-8-71-25-90s-40-29-69-29c-28 0-50 10-67 29-17 20-26 51-26 96zm-137-1c0-71 20-126 61-166 40-40 97-60 169-60 74 0 131 20 172 59 40 39 60 93 60 163 0 51-9 93-26 126-18 32-43 58-76 76s-75 27-125 27-91-8-125-23c-32-16-59-41-80-75-20-34-30-76-30-127zm1467 329h419v107h-141v329h-138v-329h-140v-107zm-177 0h139v436h-139v-436zm-321 98v238h34c29 0 49-3 62-9 12-6 21-17 28-32 7-16 10-41 10-76 0-46-7-78-23-95-15-17-41-26-77-26h-34zm-138-98h205c40 0 73 5 98 16s45 26 61 46c17 20 28 43 36 70 7 26 11 54 11 84 0 47-6 83-17 109-10 25-25 47-45 64-19 17-40 29-62 35-30 7-57 12-82 12h-205v-436zm-423 0h370v93h-231v69h214v89h-214v86h238v99h-377v-436zm-314 176h58c6 0 18-2 36-6 9-1 17-6 22-13 6-7 9-16 9-26 0-14-4-24-14-32-9-8-26-11-51-11h-60v88zm-139 260v-436h230c42 0 75 3 97 11 23 7 41 20 55 39s20 43 20 71c0 24-5 45-15 62-11 18-25 32-44 43-11 7-28 13-48 17 16 6 28 11 36 16 5 4 12 12 22 23 9 12 16 21 19 27l67 127h-156l-74-134c-9-17-17-28-25-33-10-7-21-10-34-10h-11v177h-139zm-160-178l120 35c-7 33-20 61-38 83-17 23-39 39-65 51-25 11-58 16-98 16-49 0-89-6-119-20-31-14-58-38-80-73s-34-79-34-133c0-72 20-128 59-166 39-39 95-59 167-59 56 0 100 11 132 34 33 22 57 56 72 102l-122 27c-4-14-8-24-13-30-8-10-17-18-28-24-11-5-24-8-38-8-31 0-54 13-72 37-12 18-18 47-18 86 0 48 7 81 22 99s36 27 63 27 47-7 60-22c14-14 23-35 30-62zm1088 289h138v165l145-165h183l-162 164 170 272h-170l-95-180-71 73v107h-138v-436zm-488 0h130l167 241v-241h130v436h-130l-167-240v240h-130v-436zm-209 269l-49-156-49 156h98zm29 95h-157l-22 72h-140l167-436h151l168 436h-145l-22-72zm-578-22h70c24 0 41-4 50-12 10-8 15-19 15-34 0-12-5-23-14-31-10-7-27-11-51-11h-70v88zm0-171h60c22 0 36-4 45-11 8-7 12-18 12-31s-4-23-12-30c-9-8-24-11-44-11h-61v83zm-139-171h258c43 0 76 10 99 31s35 47 35 77c0 26-8 48-25 67-11 12-27 22-48 29 32 7 56 20 71 38 15 19 22 42 22 70 0 22-5 43-16 61-10 18-25 32-44 43-11 6-29 11-52 14-31 4-52 6-62 6h-238v-436zm0-1094h138v152h151v-152h139v436h-139v-177h-151v177h-138v-436z"/><path class="fil1" d="M15478 2819h222v-781h270v-183h-759v183h267v781zm-1202-964v964h254l200-347c20-34 39-71 59-109 21-38 40-77 58-117 19-40 36-79 51-117h5c-7 62-11 127-13 194-3 67-3 138-3 212v284h204v-964h-228l-212 379c-20 35-40 72-61 110l-60 117c-20 40-38 79-56 117h-4c2-43 4-89 6-136 2-48 3-97 4-148 1-50 1-101 1-153v-286h-205zm-663 178h217v609h-328c13-23 25-49 36-77 13-27 23-57 32-86 14-49 25-100 33-153 7-54 10-108 10-164v-129zm-206-178v258c0 58-2 114-9 167-6 54-16 105-29 153-11 38-24 75-40 111-16 35-34 70-54 104l-83 5 9 409h169l12-243h578l12 243h168l11-409-98-5v-793h-646zm-332 379h-363v-200h385v-179h-607v964h627v-179h-405v-228h363v-178zm-1216-213c8-2 20-4 35-5s34-2 56-2c56 1 99 13 130 37 30 25 45 60 45 105 0 32-8 60-23 83-16 24-37 41-66 54-29 12-63 18-102 19-17 0-31-1-43-1-12-2-23-3-32-5v-285zm-221 798h221v-346c10 2 22 4 35 5s27 1 41 1c66 0 127-8 181-25 55-17 101-42 140-77 30-26 52-59 67-99 16-39 23-82 23-130 0-47-9-90-28-128s-44-70-77-94c-33-26-74-45-124-58s-109-20-177-20-127 2-176 6c-50 4-92 8-126 14v951zm-884-964v964h220v-403h42c40 0 72 9 98 25 25 17 46 40 61 69 16 28 29 61 40 98 11 35 23 72 34 108 12 36 26 70 42 103h240c-23-48-43-98-61-149s-36-102-53-154c-13-39-29-73-48-105-19-31-43-57-71-79-29-21-64-37-106-48l344-429h-271l-271 402h-20v-402h-220zm-685 964h217l-53-964h-293l-103 321c-11 36-23 73-34 112s-21 79-31 118c-11 40-21 78-29 116h-6c-11-57-24-114-38-173s-29-116-45-172l-97-322h-297l-63 964h206l19-366c3-40 4-83 6-128s4-90 6-136 3-91 5-135h3c7 42 17 85 27 129 9 43 19 86 30 128 10 42 21 82 32 121l105 372h174l120-377c13-38 26-77 39-119s26-85 38-128c12-42 23-85 35-126h2c0 47 1 93 1 139 2 46 3 91 4 134s3 85 4 123l16 369zm-1802-964l332 668c3 8 6 16 7 23 2 7 0 15-3 23-6 15-15 29-28 42-12 14-27 24-45 33s-39 14-62 14c-15 0-30-1-41-2-12-2-22-3-32-5l-16 174 30 9c10 2 23 4 35 5 13 1 28 2 45 2 58-1 108-12 150-34 43-23 80-54 112-94 25-29 48-65 70-105 22-41 43-85 64-132 20-47 41-96 61-145l185-476h-236l-106 343c-12 42-22 78-31 110-8 31-15 58-22 78h-4c-11-29-23-58-34-89-10-29-23-61-37-95l-143-347h-251zm-527 156c38 1 72 9 102 26 29 17 54 41 74 70 20 30 35 64 45 103 11 39 16 81 16 124 0 47-6 91-16 131-10 39-26 74-46 103-20 30-45 53-74 69-30 16-64 25-101 25s-71-8-101-24c-29-16-54-38-76-66-20-29-36-63-47-102-11-40-16-84-16-131s5-91 16-130c11-40 26-75 47-104 20-30 45-53 75-69s64-24 102-25zm4-173c-73 0-138 13-197 39-59 25-109 60-151 105-43 46-75 99-98 160-22 62-34 128-34 201 0 55 7 108 20 157 14 49 34 95 60 135 25 41 57 76 95 106s81 53 129 69 102 25 160 25c73 0 139-12 198-35s110-56 153-100 76-97 99-159c23-63 34-134 35-214 0-53-7-105-20-153-13-49-32-94-58-134-26-41-57-77-95-107s-81-53-131-69c-49-17-104-25-165-26zm-555 981l-292-493 278-471h-255l-83 176c-9 19-16 37-23 53-8 17-15 34-22 51-7 18-15 36-22 57h-3c-12-27-23-54-36-79-11-25-25-53-39-82l-86-176h-256l275 477-286 487h255l80-174c11-23 21-43 31-63 8-19 17-38 25-56s15-36 22-54h3l27 54c9 18 18 37 28 56 10 20 21 40 33 63l89 174h257zm2014-2276v963h219v-403h43c39 0 72 9 97 26 25 16 46 39 61 68 16 28 30 61 41 98 10 36 22 72 34 108 11 35 25 70 42 103h240c-23-48-44-97-62-149-18-51-35-102-53-154-13-39-29-73-48-105-19-31-43-57-71-79-28-21-64-37-106-47l344-429h-271l-271 401h-20v-401h-219zm-1009 0v963h223v-403h367v403h223v-963h-223v370h-367v-370h-223zm-699 553l59-204c5-19 10-39 15-61l15-64c5-22 10-42 15-61h3c5 19 10 39 15 60 5 22 11 43 17 65 6 21 12 41 17 61l62 204h-218zm250 163l76 247h242l-308-963h-292l-300 963h230l70-247h282zm-1172-213c13-2 26-3 39-4s26-2 38-2c27 0 53 4 79 11 26 6 49 17 69 32 17 12 29 27 39 45 9 18 14 39 14 64 0 23-5 45-13 64-9 19-20 35-35 49-19 16-41 28-66 36s-52 12-79 12c-16 0-30 0-45-1-14-1-28-2-40-4v-302zm-221-503v959c25 4 57 7 97 10 39 3 87 4 141 4 51 1 101-3 151-10 48-8 95-19 138-35s80-38 112-65c29-26 52-56 69-93 16-36 25-78 25-124 0-36-5-68-14-97-10-29-23-55-40-77s-37-42-60-58c-25-18-53-33-83-44-30-12-62-21-95-26-33-6-67-8-100-8-13 0-26 0-41 1-14 0-28 1-42 2-13 1-26 2-37 4v-166h433v-177h-654z"/></g></svg>