<svg width="172" height="48" viewBox="0 0 172 48" fill="none" xmlns="http://www.w3.org/2000/svg">
<g clip-path="url(#clip0)">
<path d="M35.9714 6.5459L29.4688 9.70599C28.7182 10.0702 28.0875 10.6307 27.6479 11.3244C27.2083 12.0181 26.9773 12.8172 26.981 13.6316V34.9082L33.4836 31.7481C34.2342 31.3839 34.8649 30.8234 35.3045 30.1297C35.7441 29.436 35.9751 28.6369 35.9714 27.8225" fill="#F15525"/>
<path d="M22.4811 25.0942L15.9785 28.2543C15.228 28.6185 14.5972 29.1791 14.1576 29.8727C13.718 30.5664 13.487 31.3656 13.4908 32.1799V41.4835L19.9934 38.2744C20.7439 37.9102 21.3747 37.3496 21.8143 36.6559C22.2539 35.9623 22.4848 35.1631 22.4811 34.3488" fill="#F15525"/>
<path d="M42.7168 0H6.7453C4.95715 0.00259579 3.24301 0.693085 1.97861 1.92012C0.714197 3.14715 0.00267486 4.81062 0 6.5459L0 41.4541C0.00267486 43.1894 0.714197 44.8529 1.97861 46.0799C3.24301 47.3069 4.95715 47.9974 6.7453 48H42.7168C44.505 47.9974 46.2191 47.3069 47.4835 46.0799C48.7479 44.8529 49.4595 43.1894 49.4621 41.4541V6.5459C49.4595 4.81062 48.7479 3.14715 47.4835 1.92012C46.2191 0.693085 44.505 0.00259579 42.7168 0V0ZM42.7168 2.1787C43.9104 2.1787 45.055 2.63881 45.899 3.45782C46.7429 4.27683 47.2171 5.38765 47.2171 6.5459V41.4541C47.2171 42.6124 46.7429 43.7232 45.899 44.5422C45.055 45.3612 43.9104 45.8213 42.7168 45.8213H6.7453C5.55176 45.8213 4.40711 45.3612 3.56315 44.5422C2.71919 43.7232 2.24506 42.6124 2.24506 41.4541V6.5459C2.24506 5.38765 2.71919 4.27683 3.56315 3.45782C4.40711 2.63881 5.55176 2.1787 6.7453 2.1787H42.7168Z" fill="#F15525"/>
<path d="M65.4404 39.56C65.4404 38.9025 64.9247 38.5786 63.9842 38.5786H61.9616V40.4629H63.9842C64.9247 40.4629 65.4404 40.1783 65.4404 39.4815V39.56ZM61.9616 35.7915V37.5972H63.7111C64.5808 37.5972 65.0662 37.3028 65.0662 36.6943C65.0662 36.0859 64.5707 35.7915 63.7111 35.7915H61.9616ZM66.745 39.6778C66.745 40.7966 65.8348 41.4541 64.1055 41.4541H60.6772V34.9082H63.8426C65.4606 34.9082 66.3303 35.5756 66.3303 36.606C66.3401 36.9016 66.2636 37.1937 66.1097 37.449C65.9559 37.7042 65.7309 37.9121 65.4606 38.0487C65.8366 38.1329 66.1705 38.3416 66.4049 38.639C66.6393 38.9363 66.7596 39.3037 66.745 39.6778Z" fill="#F15525"/>
<path d="M72.0747 38.9908L70.7903 36.1251L69.5262 38.9908H72.0747ZM72.4792 39.9722H69.1217L68.4543 41.4835H67.1699L70.2038 34.9376H71.4376L74.4714 41.4835H73.1567L72.4792 39.9722Z" fill="#F15525"/>
<path d="M82.1167 34.9082V41.4541H81.0953L77.3738 37.028V41.4541H76.1299V34.9082H77.1614L80.8728 39.3441V34.9082" fill="#F15525"/>
<path d="M86.0911 38.716L85.0191 39.7857V41.4541H83.7651V34.9082H85.0191V38.2646L88.3564 34.9082H89.7621L86.9305 37.8328L89.934 41.4541H88.4676" fill="#F15525"/>
<path d="M96.6791 0L91.8047 2.36516C91.2428 2.63919 90.771 3.05997 90.4423 3.58012C90.1135 4.10028 89.9409 4.69916 89.9439 5.30934V6.5459L94.8284 4.18074C95.3902 3.90671 95.8621 3.48593 96.1908 2.96578C96.5195 2.44562 96.6922 1.84675 96.6892 1.23656" fill="#F15525"/>
<path d="M71.5688 8.92087C71.0078 9.19581 70.5366 9.61679 70.208 10.1367C69.8793 10.6567 69.7063 11.2551 69.7081 11.8651V21.4238C69.7097 21.8468 69.6861 22.2695 69.6373 22.6898C69.6299 23.3282 69.3694 23.9393 68.9099 24.3962C68.4504 24.8531 67.8272 25.1207 67.1697 25.1433H60.6772V30.541H64.8235C66.1787 30.541 67.5338 30.541 68.8687 30.541C69.7892 30.5256 70.7037 30.3936 71.5891 30.1484C72.5023 29.9355 73.3521 29.5198 74.0716 28.9339C74.7911 28.3481 75.3606 27.6082 75.7353 26.7724C76.2076 25.6217 76.4313 24.3891 76.3927 23.1511V22.6604C76.3927 22.6604 76.3927 22.6113 76.3927 22.5819V6.5459" fill="#F15525"/>
<path d="M101.18 6.5459H94.4342L89.9441 15.9771H89.9239L85.4338 6.5459H78.6885L86.5664 23.0726V30.5508H93.3117V23.053" fill="#F15525"/>
<path d="M121.415 23.21V22.9156C121.386 22.2202 121.267 21.5312 121.062 20.8645C120.777 19.9235 120.214 19.0841 119.443 18.4502L119.059 18.1558C118.119 17.514 117.057 17.0603 115.934 16.8211C114.367 16.4776 112.779 16.193 111.212 15.8397C110.256 15.7174 109.319 15.4834 108.42 15.1429C108.179 15.0462 107.962 14.8982 107.787 14.7097C107.612 14.5211 107.483 14.2969 107.409 14.0536C107.304 13.6444 107.304 13.2164 107.409 12.8072C107.527 12.4479 107.749 12.1291 108.048 11.8889C108.348 11.6487 108.712 11.4974 109.098 11.4529C109.763 11.3119 110.44 11.2331 111.121 11.2173H111.727C112.327 11.2394 112.923 11.3183 113.507 11.4529C113.782 11.4812 114.049 11.564 114.29 11.6963C114.531 11.8285 114.741 12.0073 114.908 12.2217C115.075 12.4361 115.195 12.6814 115.26 12.9425C115.325 13.2035 115.334 13.4748 115.287 13.7395C115.287 13.9456 115.287 13.9751 115.287 14.2008H121.355C121.368 13.5982 121.348 12.9954 121.294 12.395C121.233 11.4437 120.917 10.5244 120.378 9.7276C119.839 8.93083 119.095 8.2841 118.22 7.85116C116.612 7.06904 114.85 6.63064 113.052 6.56554C112.526 6.56554 112.041 6.51647 111.475 6.50665H111.121C110.595 6.50665 110.109 6.50665 109.543 6.56554C107.745 6.63034 105.983 7.06875 104.375 7.85116C103.497 8.27296 102.746 8.90891 102.196 9.69679C101.647 10.4847 101.317 11.3975 101.24 12.3459C101.219 12.7186 101.219 13.0921 101.24 13.4647C101.24 13.6708 101.24 13.8867 101.24 14.1026V14.1517C101.283 14.7806 101.398 15.4027 101.584 16.0066C101.849 16.9523 102.394 17.8018 103.152 18.4502L103.536 18.7446C104.476 19.3862 105.538 19.8399 106.661 20.0793C108.228 20.4326 109.806 20.7074 111.394 21.0607C112.373 21.1831 113.333 21.4169 114.256 21.7575C114.498 21.8536 114.714 22.0015 114.889 22.1901C115.065 22.3787 115.194 22.6032 115.267 22.8469C115.314 23.0367 115.341 23.2307 115.348 23.4259C115.357 23.5762 115.357 23.727 115.348 23.8773C115.348 23.9362 115.348 24.0049 115.348 24.0638C115.266 24.4763 115.05 24.8524 114.731 25.1368C114.413 25.4212 114.008 25.5989 113.578 25.6438C112.913 25.7853 112.236 25.8642 111.555 25.8794H110.949C110.345 25.8587 109.746 25.7798 109.159 25.6438C108.888 25.6185 108.625 25.5403 108.386 25.414C108.147 25.2877 107.936 25.1159 107.767 24.9088C107.598 24.7017 107.474 24.4636 107.402 24.2088C107.33 23.954 107.312 23.6877 107.348 23.4259C107.348 23.2198 107.348 23.1904 107.348 22.9745H101.281C101.264 23.5735 101.281 24.1731 101.331 24.7704C101.408 25.7189 101.738 26.6317 102.287 27.4196C102.837 28.2074 103.588 28.8434 104.466 29.2652C106.074 30.0479 107.836 30.4863 109.634 30.5508C110.16 30.5508 110.645 30.5999 111.212 30.6097H111.566C112.091 30.6097 112.577 30.6097 113.143 30.5508C114.941 30.4863 116.703 30.0479 118.311 29.2652C119.19 28.8442 119.942 28.2084 120.491 27.4204C121.041 26.6324 121.37 25.7191 121.446 24.7704C121.494 24.2779 121.514 23.7832 121.507 23.2885" fill="#F15525"/>
<path d="M131.367 22.9156L134.906 14.5148L138.446 22.9156H131.367ZM141.662 30.5508H148.397L138.284 6.5459H131.528L121.416 30.5508H128.151L129.526 27.2828H140.276L141.662 30.5508Z" fill="#F15525"/>
<path d="M165.255 6.5459V20.0793C164.962 19.5788 157.387 6.5459 157.387 6.5459H150.682V30.5508H157.427V17.0076C157.508 17.145 165.022 30.0699 165.295 30.541H172.041V6.5459" fill="#F15525"/>
</g>
<defs>
<clipPath id="clip0">
<path d="M0 0H172V48H0V0Z" fill="white"/>
</clipPath>
</defs>
</svg>
