<svg xmlns="http://www.w3.org/2000/svg" viewBox="0 0 538.58267 538.58267" height="15.2cm" width="15.2cm"><path d="M3.543 535.04H535.04V3.542H3.543V535.04z" fill="#007ba5" fill-rule="evenodd"/><path d="M111.855 472.575l9.722 13.27h-16.352l-4.448-6.09c-5 2.15-10.517 3.305-16.226 3.305-21.15 0-39.578-15.76-39.578-39.589 0-23.84 18.428-39.6 39.578-39.6 21.14 0 39.558 15.76 39.558 39.6 0 12.127-4.777 22.167-12.254 29.104m-27.261-2.425c2.912 0 5.666-.456 8.218-1.314l-6.195-8.726 10.686-7.647 6.45 9.055c4.109-4.745 6.545-11.067 6.545-18.047 0-14.806-10.951-26.689-25.704-26.689s-25.705 11.883-25.705 26.69c0 14.795 10.952 26.678 25.705 26.678m77.451-51.472h-.2l-12.35 33.33h24.476l-11.926-33.33zm22.114 61.395l-6.481-17.273h-31.985l-6.577 17.273H124.31l29.41-73.215h16.862l29.315 73.215H184.16zm187.566-63.291c-14.203 0-25.715 11.947-25.715 26.69 0 14.742 11.512 26.688 25.715 26.688 14.192 0 25.704-11.946 25.704-26.689 0-14.742-11.512-26.689-25.704-26.689m0-12.91c21.817 0 39.515 17.729 39.515 39.6 0 21.859-17.698 39.588-39.515 39.588-21.828 0-39.515-17.73-39.515-39.589 0-21.87 17.687-39.6 39.515-39.6m-76.043 46.94l-7.499 8.208v21.054H273.79v-73.215h14.393v34.453h.212c9.871-11.492 19.742-22.972 29.613-34.453H335.8l-31.158 34.145 33.933 39.07h-18.608l-24.285-29.262zm183.53 29.262v-50.031h-.2L456.59 460.65h-.212l-22.008-30.608h-.2v50.031h-14.405v-73.215h14.86l22.166 32.377 22.072-32.377h14.742v73.215h-14.393zm-275.184 0v-12.02l42.003-49.884h-40.976v-11.31h57.223v12.03l-42.523 49.873h43.031v11.311h-58.758z" fill="#fff" fill-rule="evenodd"/><path d="M308.958 213.822l19.773 24.328c7.848-11.269 12.444-24.984 12.444-39.78 0-38.318-30.84-69.381-68.883-69.381-38.053 0-68.894 31.063-68.894 69.381s30.84 69.381 68.894 69.381a68.305 68.305 0 0 0 27.536-5.772l-19.826-24.21 28.956-23.947zM272.292 91.38c58.674 0 106.227 47.903 106.227 106.99 0 26.573-9.627 50.879-25.545 69.583l27.303 33.584h-48.051l-8.039-9.808c-15.346 8.674-33.054 13.62-51.895 13.62-58.674 0-106.238-47.892-106.238-106.979 0-59.087 47.564-106.99 106.238-106.99" fill="#f9b000" fill-rule="evenodd"/></svg>