<?xml version="1.0" encoding="UTF-8" ?>
<!DOCTYPE svg PUBLIC "-//W3C//DTD SVG 1.1//EN" "http://www.w3.org/Graphics/SVG/1.1/DTD/svg11.dtd">
<svg width="228pt" height="110pt" viewBox="0 0 228 110" version="1.1" xmlns="http://www.w3.org/2000/svg">
<g id="#56e2e3ff">
<path fill="#56e2e3" opacity="1.00" d=" M 118.43 13.59 C 124.02 9.39 129.27 4.75 134.75 0.41 C 165.74 0.45 196.74 0.40 227.73 0.44 C 211.54 13.78 195.18 26.91 179.07 40.36 C 172.10 35.87 165.15 31.33 158.18 26.83 C 164.65 22.41 171.31 18.30 177.71 13.78 C 174.85 13.89 171.60 13.23 169.18 15.18 C 164.20 18.58 159.29 22.07 154.29 25.42 C 154.27 21.55 154.27 17.68 154.27 13.81 C 152.75 13.80 151.24 13.80 149.72 13.80 C 149.70 22.86 149.71 31.93 149.72 41.00 C 151.23 41.00 152.75 41.00 154.27 41.00 C 154.27 36.93 154.27 32.86 154.28 28.79 C 159.69 32.36 165.02 36.04 170.39 39.65 C 172.61 41.38 175.52 41.07 178.16 41.07 C 175.20 43.36 172.34 45.75 169.44 48.10 C 165.14 47.40 162.10 50.73 158.97 53.04 C 154.70 56.29 150.40 59.50 146.11 62.71 C 146.11 57.87 146.11 53.02 146.10 48.17 C 143.37 48.18 140.64 48.18 137.92 48.17 C 137.90 56.72 137.93 65.26 137.90 73.81 C 136.36 75.13 134.78 76.43 133.44 77.95 C 133.47 75.00 133.67 71.98 132.92 69.10 C 132.30 66.96 130.02 66.21 128.36 65.08 C 130.03 63.98 132.50 63.27 132.86 60.99 C 133.40 57.83 133.49 54.44 132.48 51.37 C 131.22 48.55 127.75 48.24 125.05 48.18 C 115.17 48.13 105.29 48.19 95.40 48.19 C 95.41 59.79 95.43 71.40 95.39 83.01 C 105.90 83.15 116.42 83.07 126.94 83.07 C 115.74 91.81 104.87 101.00 93.86 109.99 L 94.90 110.00 L 0.87 110.00 C 17.72 95.94 34.85 82.23 51.74 68.23 C 51.75 73.18 51.75 78.13 51.75 83.08 C 54.41 83.07 57.07 83.07 59.74 83.07 C 59.73 78.67 59.74 74.28 59.74 69.88 C 62.35 69.98 65.07 69.53 67.59 70.31 C 72.55 74.00 76.41 78.99 81.36 82.70 C 85.19 83.55 89.19 82.95 93.08 83.04 C 87.80 78.67 82.47 74.35 77.17 70.00 C 81.16 69.69 87.52 70.89 89.08 65.93 C 89.73 61.10 90.03 55.97 88.76 51.22 C 86.21 47.06 80.46 48.45 76.39 48.13 C 82.06 43.52 87.64 38.80 93.42 34.31 C 97.59 34.31 101.75 34.32 105.93 34.30 C 107.06 36.50 108.18 38.70 109.30 40.90 C 111.00 40.95 112.70 40.99 114.40 41.03 C 111.37 35.51 108.30 30.02 105.25 24.52 C 108.86 21.51 112.59 18.64 116.13 15.56 C 116.14 24.04 116.16 32.52 116.15 41.00 C 117.54 41.00 118.93 41.00 120.32 41.00 C 120.32 33.98 120.32 26.96 120.32 19.95 C 127.31 26.22 134.30 32.49 141.21 38.86 C 142.55 40.23 144.36 40.90 146.16 41.46 C 146.26 32.24 146.19 23.03 146.20 13.81 C 144.81 13.80 143.43 13.80 142.04 13.79 C 142.03 20.65 142.06 27.51 142.02 34.37 C 134.07 27.54 126.59 20.15 118.43 13.59 Z" />
<path fill="#56e2e3" opacity="1.00" d=" M 97.48 30.83 C 99.02 29.59 100.57 28.35 102.11 27.11 C 102.76 28.35 103.42 29.60 104.07 30.84 C 101.87 30.83 99.67 30.82 97.48 30.83 Z" />
<path fill="#56e2e3" opacity="1.00" d=" M 68.31 54.78 C 70.66 53.67 73.47 54.36 76.00 54.18 C 77.78 54.43 80.18 53.73 81.41 55.43 C 81.87 57.79 81.86 60.26 81.43 62.62 C 80.85 63.95 79.26 63.78 78.07 63.91 C 71.97 64.03 65.86 63.89 59.75 63.94 C 59.74 63.39 59.73 62.31 59.72 61.77 C 62.59 59.45 65.37 57.02 68.31 54.78 Z" />
<path fill="#56e2e3" opacity="1.00" d=" M 103.47 62.20 C 103.37 59.41 103.40 56.61 103.49 53.82 C 110.02 54.00 116.56 53.65 123.09 53.97 C 126.40 53.77 125.74 57.84 125.62 59.98 C 125.68 61.95 123.52 62.14 122.03 62.14 C 115.85 62.27 109.66 62.09 103.47 62.20 Z" />
<path fill="#56e2e3" opacity="1.00" d=" M 103.36 68.03 C 109.92 67.91 116.49 67.78 123.05 68.03 C 126.45 67.79 126.00 71.93 125.81 74.16 C 125.96 75.74 124.49 76.79 123.03 76.72 C 116.49 76.98 109.94 76.74 103.40 76.80 C 103.40 73.88 103.39 70.95 103.36 68.03 Z" />
</g>
<g id="#323031ff">
<path fill="#323031" opacity="1.00" d=" M 51.74 13.80 C 59.16 13.85 66.59 13.70 74.01 13.84 C 76.12 13.79 78.73 14.60 79.15 16.99 C 79.72 20.51 80.35 26.31 75.41 26.73 C 80.32 28.08 80.12 33.90 79.17 37.91 C 77.98 40.61 74.65 40.92 72.08 40.98 C 65.30 41.06 58.52 40.97 51.73 41.00 C 51.73 31.93 51.73 22.87 51.74 13.80 M 56.29 17.45 C 56.29 19.95 56.28 22.45 56.27 24.95 C 62.09 24.78 67.96 25.38 73.74 24.67 C 75.52 22.99 75.80 16.92 72.01 17.48 C 66.77 17.35 61.53 17.51 56.29 17.45 M 56.40 37.33 C 62.23 36.98 68.15 37.78 73.92 36.89 C 75.65 34.98 75.53 30.92 73.97 28.86 C 68.15 28.04 62.22 28.77 56.36 28.47 C 56.23 31.42 56.29 34.38 56.40 37.33 Z" />
<path fill="#323031" opacity="1.00" d=" M 94.28 13.93 C 95.93 13.86 97.57 13.79 99.22 13.72 C 101.25 17.31 103.25 20.91 105.25 24.52 C 108.30 30.02 111.37 35.51 114.40 41.03 C 112.70 40.99 111.00 40.95 109.30 40.90 C 108.18 38.70 107.06 36.50 105.93 34.30 C 101.75 34.32 97.59 34.31 93.42 34.31 C 91.44 34.31 89.47 34.32 87.50 34.33 C 86.35 36.56 85.20 38.78 84.05 41.00 C 82.57 41.00 81.08 40.99 79.60 40.99 C 84.47 31.95 89.49 23.00 94.28 13.93 M 89.44 30.71 C 92.12 30.80 94.80 30.85 97.48 30.83 C 99.67 30.82 101.87 30.83 104.07 30.84 C 103.42 29.60 102.76 28.35 102.11 27.11 C 100.34 23.73 98.57 20.35 96.76 16.99 C 94.24 21.52 91.94 26.17 89.44 30.71 Z" />
<path fill="#323031" opacity="1.00" d=" M 116.21 13.92 C 116.76 13.84 117.87 13.67 118.43 13.59 C 126.59 20.15 134.07 27.54 142.02 34.37 C 142.06 27.51 142.03 20.65 142.04 13.79 C 143.43 13.80 144.81 13.80 146.20 13.81 C 146.19 23.03 146.26 32.24 146.16 41.46 C 144.36 40.90 142.55 40.23 141.21 38.86 C 134.30 32.49 127.31 26.22 120.32 19.95 C 120.32 26.96 120.32 33.98 120.32 41.00 C 118.93 41.00 117.54 41.00 116.15 41.00 C 116.16 32.52 116.14 24.04 116.13 15.56 C 116.15 15.15 116.19 14.33 116.21 13.92 Z" />
<path fill="#323031" opacity="1.00" d=" M 149.72 13.80 C 151.24 13.80 152.75 13.80 154.27 13.81 C 154.27 17.68 154.27 21.55 154.29 25.42 C 159.29 22.07 164.20 18.58 169.18 15.18 C 171.60 13.23 174.85 13.89 177.71 13.78 C 171.31 18.30 164.65 22.41 158.18 26.83 C 165.15 31.33 172.10 35.87 179.07 40.36 C 178.84 40.54 178.38 40.90 178.16 41.07 C 175.52 41.07 172.61 41.38 170.39 39.65 C 165.02 36.04 159.69 32.36 154.28 28.79 C 154.27 32.86 154.27 36.93 154.27 41.00 C 152.75 41.00 151.23 41.00 149.72 41.00 C 149.71 31.93 149.70 22.86 149.72 13.80 Z" />
<path fill="#323031" opacity="1.00" d=" M 51.76 48.17 C 59.97 48.16 68.18 48.21 76.39 48.13 C 80.46 48.45 86.21 47.06 88.76 51.22 C 90.03 55.97 89.73 61.10 89.08 65.93 C 87.52 70.89 81.16 69.69 77.17 70.00 C 82.47 74.35 87.80 78.67 93.08 83.04 C 89.19 82.95 85.19 83.55 81.36 82.70 C 76.41 78.99 72.55 74.00 67.59 70.31 C 65.07 69.53 62.35 69.98 59.74 69.88 C 59.74 74.28 59.73 78.67 59.74 83.07 C 57.07 83.07 54.41 83.07 51.75 83.08 C 51.75 78.13 51.75 73.18 51.74 68.23 C 51.75 61.55 51.74 54.86 51.76 48.17 M 59.79 54.20 C 59.75 56.72 59.73 59.25 59.72 61.77 C 59.73 62.31 59.74 63.39 59.75 63.94 C 65.86 63.89 71.97 64.03 78.07 63.91 C 79.26 63.78 80.85 63.95 81.43 62.62 C 81.86 60.26 81.87 57.79 81.41 55.43 C 80.18 53.73 77.78 54.43 76.00 54.18 C 73.47 54.36 70.66 53.67 68.31 54.78 L 69.01 54.25 C 65.93 54.21 62.86 54.21 59.79 54.20 Z" />
<path fill="#323031" opacity="1.00" d=" M 95.40 48.19 C 105.29 48.19 115.17 48.13 125.05 48.18 C 127.75 48.24 131.22 48.55 132.48 51.37 C 133.49 54.44 133.40 57.83 132.86 60.99 C 132.50 63.27 130.03 63.98 128.36 65.08 C 130.02 66.21 132.30 66.96 132.92 69.10 C 133.67 71.98 133.47 75.00 133.44 77.95 C 132.32 80.79 129.70 82.21 126.94 83.07 C 116.42 83.07 105.90 83.15 95.39 83.01 C 95.43 71.40 95.41 59.79 95.40 48.19 M 103.47 62.20 C 109.66 62.09 115.85 62.27 122.03 62.14 C 123.52 62.14 125.68 61.95 125.62 59.98 C 125.74 57.84 126.40 53.77 123.09 53.97 C 116.56 53.65 110.02 54.00 103.49 53.82 C 103.40 56.61 103.37 59.41 103.47 62.20 M 103.36 68.03 C 103.39 70.95 103.40 73.88 103.40 76.80 C 109.94 76.74 116.49 76.98 123.03 76.72 C 124.49 76.79 125.96 75.74 125.81 74.16 C 126.00 71.93 126.45 67.79 123.05 68.03 C 116.49 67.78 109.92 67.91 103.36 68.03 Z" />
<path fill="#323031" opacity="1.00" d=" M 137.92 48.17 C 140.64 48.18 143.37 48.18 146.10 48.17 C 146.11 53.02 146.11 57.87 146.11 62.71 C 150.40 59.50 154.70 56.29 158.97 53.04 C 162.10 50.73 165.14 47.40 169.44 48.10 C 172.02 48.12 174.59 48.17 177.17 48.20 C 169.49 53.68 161.78 59.14 154.10 64.64 C 162.72 70.78 171.37 76.86 179.96 83.04 C 175.48 82.82 170.79 83.76 166.45 82.52 C 159.51 77.84 152.95 72.59 146.11 67.75 C 146.10 72.86 146.11 77.97 146.10 83.07 C 143.37 83.07 140.64 83.07 137.92 83.08 C 137.91 79.99 137.90 76.90 137.90 73.81 C 137.93 65.26 137.90 56.72 137.92 48.17 Z" />
</g>
</svg>
