<svg width="103" height="17" viewBox="0 0 103 17" fill="none" xmlns="http://www.w3.org/2000/svg"> <path d="M46.0544 4.90727L48.2015 3.3081H41.0133V12.8875H48.2015V11.2883H43.0671V8.84249H47.4547V7.24332H43.0671V4.90727H46.0544Z" fill="#21A038"/> <path d="M35.5832 7.0395H33.0938V4.90727H37.0769L39.224 3.3081H31.04V12.8875H35.3187C37.7148 12.8875 39.0995 11.79 39.0995 9.87725C39.0995 8.0429 37.8548 7.0395 35.5832 7.0395ZM35.2409 11.2883H33.0938V8.63868H35.2409C36.5479 8.63868 37.1547 9.07766 37.1547 9.97132C37.1547 10.865 36.5012 11.2883 35.2409 11.2883Z" fill="#21A038"/> <path d="M54.0205 3.3081H50.1153V12.8875H52.169V10.1751H54.0361C56.5255 10.1751 58.0814 8.85817 58.0814 6.74162C58.0814 4.62506 56.5255 3.3081 54.0205 3.3081ZM53.9739 8.57596H52.1535V4.90727H53.9739C55.2964 4.90727 56.0121 5.56575 56.0121 6.74162C56.0121 7.91748 55.2964 8.57596 53.9739 8.57596Z" fill="#21A038"/> <path d="M27.5237 10.8179C26.9792 11.1158 26.3724 11.2726 25.75 11.2726C23.8985 11.2726 22.5604 9.93996 22.5604 8.10562C22.5604 6.27127 23.8985 4.93863 25.75 4.93863C26.419 4.92295 27.0725 5.14244 27.6171 5.5344L29.0952 4.43692L29.0018 4.34285C28.1461 3.57462 26.9947 3.18267 25.6878 3.18267C24.2719 3.18267 22.9805 3.66869 22.047 4.54667C21.1134 5.45601 20.5844 6.72594 20.6156 8.0429C20.6 9.37555 21.1134 10.6612 22.047 11.6018C23.0272 12.5269 24.3341 13.0442 25.6722 13.0129C27.1503 13.0129 28.4417 12.4955 29.313 11.5548L27.9905 10.5671L27.5237 10.8179Z" fill="#21A038"/> <path d="M82.7734 3.32378V12.9031H84.8272V8.98359H89.1992V12.9031H91.253V3.32378H89.1992V7.259H84.8272V3.32378H82.7734ZM79.2415 12.9031H81.4042L77.39 3.32378H75.3051L71.2131 12.9031H73.2825L74.1071 10.9747H78.4636L79.2415 12.9031ZM74.7295 9.37555L76.3165 5.5344L77.8101 9.37555H74.7295ZM95.8585 9.03063H97.1343L100.277 12.8875H102.922L98.7213 7.93316L102.393 3.3081H100.044L96.9943 7.41578H95.8585V3.3081H93.8047V12.8875H95.8585V9.03063ZM64.4295 7.05518V4.92295H69.7973V3.32378H62.3757V12.9031H66.6544C69.0505 12.9031 70.4352 11.8057 70.4352 9.89293C70.4352 8.05858 69.1905 7.05518 66.9189 7.05518H64.4295ZM64.4295 11.304V8.65435H66.5766C67.8835 8.65435 68.4903 9.09334 68.4903 9.987C68.4903 10.8807 67.8524 11.3196 66.5766 11.3196H64.4295V11.304Z" fill="#21A038"/> <path d="M14.1897 3.24538C14.5631 3.73141 14.8743 4.26447 15.1388 4.82888L7.9506 10.1751L4.93217 8.2624V5.97339L7.93504 7.87044L14.1897 3.24538Z" fill="#21A038"/> <path d="M1.86707 8.10562C1.86707 7.99587 1.86707 7.9018 1.88263 7.79205L0.0622355 7.69798C0.0622355 7.82341 0.0466766 7.96451 0.0466766 8.08994C0.0466766 10.2849 0.933535 12.276 2.36495 13.7184L3.65634 12.4171C2.55166 11.3196 1.86707 9.79886 1.86707 8.10562Z" fill="url(#paint0_linear_454_8887)"/> <path d="M7.93505 1.99113C8.04396 1.99113 8.13732 1.99113 8.24623 2.00681L8.33958 0.172462C8.21511 0.172462 8.07508 0.156784 7.95061 0.156784C5.77236 0.156784 3.79638 1.05044 2.36496 2.49283L3.65635 3.79412C4.74547 2.68097 6.27025 1.99113 7.93505 1.99113Z" fill="url(#paint1_linear_454_8887)"/> <path d="M7.93505 14.2201C7.82614 14.2201 7.73278 14.2201 7.62387 14.2044L7.53052 16.0388C7.65499 16.0388 7.79502 16.0544 7.91949 16.0544C10.0977 16.0544 12.0737 15.1608 13.5051 13.7184L12.2137 12.4171C11.1246 13.5459 9.61541 14.2201 7.93505 14.2201Z" fill="url(#paint2_linear_454_8887)"/> <path d="M11.358 3.05725L12.8983 1.91274C11.5447 0.815267 9.81767 0.141106 7.93504 0.141106V1.97545C9.21087 1.99113 10.3934 2.38308 11.358 3.05725Z" fill="url(#paint3_linear_454_8887)"/> <path d="M15.839 8.10561C15.839 7.61959 15.7923 7.14925 15.7145 6.6789L14.0186 7.94883C14.0186 7.99587 14.0186 8.05858 14.0186 8.10561C14.0186 9.9086 13.2406 11.5235 12.0115 12.6366L13.2406 14.0006C14.8276 12.5582 15.839 10.4417 15.839 8.10561Z" fill="#21A038"/> <path d="M7.93505 14.2201C6.14578 14.2201 4.54321 13.4362 3.43853 12.1976L2.0849 13.4362C3.53188 15.051 5.61677 16.0544 7.93505 16.0544V14.2201Z" fill="url(#paint4_linear_454_8887)"/> <path d="M3.87417 3.57463L2.64502 2.21062C1.04245 3.66869 0.0466766 5.76957 0.0466766 8.10562H1.86707C1.86707 6.3183 2.64502 4.68778 3.87417 3.57463Z" fill="url(#paint5_linear_454_8887)"/> <defs> <linearGradient id="paint0_linear_454_8887" x1="2.1707" y1="13.4952" x2="0.311989" y2="8.08129" gradientUnits="userSpaceOnUse"> <stop offset="0.1444" stop-color="#F2E913"/> <stop offset="0.3037" stop-color="#E7E518"/> <stop offset="0.5823" stop-color="#CADB26"/> <stop offset="0.891" stop-color="#A3CD39"/> </linearGradient> <linearGradient id="paint1_linear_454_8887" x1="2.88386" y1="2.28584" x2="7.60262" y2="0.473823" gradientUnits="userSpaceOnUse"> <stop offset="0.0592" stop-color="#0FA8E0"/> <stop offset="0.5385" stop-color="#0099F9"/> <stop offset="0.9234" stop-color="#0291EB"/> </linearGradient> <linearGradient id="paint2_linear_454_8887" x1="7.42363" y1="14.4944" x2="13.0491" y2="13.2133" gradientUnits="userSpaceOnUse"> <stop offset="0.1226" stop-color="#A3CD39"/> <stop offset="0.2846" stop-color="#86C339"/> <stop offset="0.8693" stop-color="#21A038"/> </linearGradient> <linearGradient id="paint3_linear_454_8887" x1="7.56102" y1="1.30945" x2="12.2382" y2="2.76364" gradientUnits="userSpaceOnUse"> <stop offset="0.0566" stop-color="#0291EB"/> <stop offset="0.79" stop-color="#0C8ACB"/> </linearGradient> <linearGradient id="paint4_linear_454_8887" x1="2.54776" y1="13.7268" x2="7.57157" y2="15.6183" gradientUnits="userSpaceOnUse"> <stop offset="0.1324" stop-color="#F2E913"/> <stop offset="0.2977" stop-color="#EBE716"/> <stop offset="0.5306" stop-color="#D9E01F"/> <stop offset="0.8023" stop-color="#BBD62D"/> <stop offset="0.9829" stop-color="#A3CD39"/> </linearGradient> <linearGradient id="paint5_linear_454_8887" x1="1.4415" y1="8.32718" x2="3.45094" y2="3.05983" gradientUnits="userSpaceOnUse"> <stop offset="0.0698" stop-color="#A3CD39"/> <stop offset="0.2599" stop-color="#81C55F"/> <stop offset="0.9216" stop-color="#0FA8E0"/> </linearGradient> </defs> </svg>