<svg xmlns="http://www.w3.org/2000/svg" viewBox="0 0 158 49"><path d="M39.52 20.788h-11.067v27.088h5.96v-8.126h4.527c6.076 0 10.952-3.252 10.952-9.52 0-5.611-3.908-9.442-10.371-9.442zm-.387 13.66h-4.721v-8.281h4.604c2.98 0 4.837 1.432 4.837 4.102 0 2.399-1.742 4.18-4.721 4.18zm-14.143-13.66h-7.52l-10.713 10.862v-10.862h-5.757v27.084h5.757v-11.415l10.412 11.419h7.902l-12.657-13.89 12.575-13.198zm82.02-19.664l-.002.001-.002-.001-.003.003-20.536 12.954 5.197 3.294 15.344-9.685 15.344 9.685 5.215-3.29-20.555-12.958-.002-.003zm38.226 19.664h-5.658l-11.751 27.084h6.459l2.118-5.117h11.87l2.112 5.117h6.614l-11.765-27.084zm-6.674 16.723l3.774-9.205 3.779 9.205h-7.554zm-19.238 5.208h-9.313v-15.027h-6.03v15.027h-9.313v-21.931h-6.029v27.082h36.718v-27.082h-6.031v21.931zm-54.139-11.917h-5.485v-10.014h-5.959v27.088h11.057c6.347 0 10.294-3.341 10.294-8.661 0-5.034-3.195-8.445-9.907-8.413zm-.464 11.696h-5.021v-6.455h4.982c2.979 0 4.489.84 4.489 3.211 0 2.333-1.509 3.244-4.45 3.244zm13.441 5.378h5.958v-27.088h-5.958v27.088z"/></svg>