<svg version="1" xmlns="http://www.w3.org/2000/svg" viewBox="0 0 200 150" enable-background="new 0 0 200 150"><linearGradient id="a" gradientUnits="userSpaceOnUse" x1="59.139" y1="178.788" x2="63.581" y2="150.745" gradientTransform="matrix(.708 0 0 -.708 -9.333 179)"><stop offset="0" stop-color="#9C9E9E"/><stop offset="1" stop-color="#BEC0C1"/></linearGradient><path fill="url(#a)" d="M30.1 70.8l-10.3-1.9c-2.7-.5-3.8-2.4-1.3-4.5l9.9-8.3c1.9-1.6 4.9-2.9 8.2-2.4l11.8 2c2.9.5 4.1 2.4 1.4 4.8l-8.6 7.7c-3.2 2.7-6.6 3.4-11.1 2.6z"/><linearGradient id="b" gradientUnits="userSpaceOnUse" x1="60.423" y1="172.082" x2="62.597" y2="156.613" gradientTransform="matrix(.708 0 0 -.708 -9.333 179)"><stop offset="0" stop-color="#7A7A7A"/><stop offset="1" stop-color="#A6A6A6"/></linearGradient><path fill="url(#b)" d="M30 71l-10.3-1.9c-.8-.1-1.4-.4-1.9-.8-.4-.4-.8-.7-.9-1.2-.1-.4-.1-.9.1-1.5.3-.5.6-1.1 1.3-1.6l9.9-8.3c1.1-.9 2.4-1.7 4-2.1 1.3-.4 2.9-.5 4.4-.3l11.8 2c.9.1 1.6.4 2.1.8s.8.7.9 1.1c.1.4.1.9-.1 1.6-.3.5-.7 1.1-1.4 1.7l-8.8 7.8c-1.6 1.4-3.2 2.4-5 2.8-1.7.4-3.7.3-6.1-.1zm-10.2-2.3l10.3 1.9c2.2.4 4.1.4 6 0 1.7-.4 3.4-1.3 4.9-2.6l8.6-7.7c.6-.6 1.1-1.1 1.3-1.6.1-.4.3-.9.1-1.2-.1-.4-.4-.6-.8-.9-.4-.4-1.1-.5-1.9-.7l-11.7-2c-1.5-.3-2.9-.1-4.1.3-1.5.4-2.8 1.2-3.8 2.1l-9.9 8.2c-.5.4-.9.9-1.1 1.4-.1.4-.3.8-.1 1.1.1.4.4.7.7.9.2.3.7.5 1.5.8z"/><linearGradient id="c" gradientUnits="userSpaceOnUse" x1="49.026" y1="116.839" x2="54.247" y2="153.982" gradientTransform="matrix(.708 0 0 -.708 -9.333 179)"><stop offset="0" stop-color="#1E2F4F"/><stop offset="1" stop-color="#2E4776"/></linearGradient><path fill="url(#c)" d="M29.2 73.9l-9.5-1.9c-3.1-.6-5 1.5-4.4 4.6l2.8 12.3c.7 3.1 3.8 6.2 6.9 6.9l9.3 1.7c3.1.6 5-1.2 4.4-4.4l-2.9-12.3c-.6-3.1-2.6-6.2-6.6-6.9z"/><linearGradient id="d" gradientUnits="userSpaceOnUse" x1="46.88" y1="110.545" x2="54.615" y2="150.34" gradientTransform="matrix(.708 0 0 -.708 -9.333 179)"><stop offset="0" stop-color="#0B1C3F"/><stop offset="1" stop-color="#1C325B"/></linearGradient><path fill="url(#d)" d="M29.1 74.1l-9.5-1.9c-.7-.1-1.3-.1-1.8 0-.6.1-1.1.4-1.5.8-.4.4-.6.9-.8 1.6-.1.6-.1 1.2.1 2l2.8 12.3c.4 1.6 1.3 3 2.5 4.2s2.8 2.1 4.2 2.4l9.3 1.7c.8.1 1.4.1 2 0 .6-.1 1.1-.4 1.4-.8.4-.4.6-.9.7-1.5.1-.5.1-1.2-.1-1.9l-2.8-12.3c-.4-1.6-1.1-3.2-2.2-4.5-1.1-1-2.5-1.8-4.3-2.1zm-9.4-2.4l9.5 1.9c1.9.4 3.4 1.2 4.5 2.2 1.3 1.3 2 3 2.4 4.8l2.7 12.4c.1.8.1 1.5.1 2.1-.1.7-.4 1.2-.9 1.7-.4.4-1.1.8-1.6.9-.6.1-1.4.1-2.1 0l-9.3-1.8c-1.6-.3-3.2-1.2-4.5-2.5-1.3-1.3-2.2-2.9-2.6-4.5l-2.8-12.3c-.1-.8-.1-1.6-.1-2.2.1-.7.4-1.3.9-1.7.4-.4 1.1-.8 1.7-.9.6-.2 1.3-.2 2.1-.1z"/><linearGradient id="e" gradientUnits="userSpaceOnUse" x1="95.965" y1="124.871" x2="73.695" y2="155.523" gradientTransform="matrix(.708 0 0 -.708 -9.333 179)"><stop offset="0" stop-color="#002D60"/><stop offset="1" stop-color="#005BAF"/></linearGradient><path fill="url(#e)" d="M42.8 71.1l9-8.4c3.1-2.9 5.8-1.6 6.5 2.1l2.5 12.1c.7 3.1-1.2 6.9-3.8 9.1l-9.1 8.4c-3 2.8-5.4 1.6-6.2-1.8l-2.7-12.2c-1-4.2 1.7-7.3 3.8-9.3z"/><linearGradient id="f" gradientUnits="userSpaceOnUse" x1="95.357" y1="125.751" x2="70.502" y2="159.961" gradientTransform="matrix(.708 0 0 -.708 -9.333 179)"><stop offset="0" stop-color="#002242"/><stop offset="1" stop-color="#00417F"/></linearGradient><path fill="url(#f)" d="M42.7 70.9l9-8.4c.9-.9 1.9-1.4 2.8-1.6.5-.1 1.1-.1 1.6.1.5.1.9.4 1.3.9.6.7 1.1 1.6 1.4 2.9l2.5 12.1c.4 1.6.1 3.2-.6 4.9-.7 1.7-1.9 3.4-3.2 4.6l-9.4 8.3c-.9.9-1.8 1.4-2.7 1.6-.5.1-1.1.1-1.6-.1-.4-.1-.9-.4-1.2-.8-.4-.6-.9-1.5-1.1-2.6l-2.8-12.3c-.5-2.1 0-4.1.9-5.6.8-1.7 2-3 3.1-4zm9.3-8l-9 8.4c-1.1 1-2.3 2.3-3.1 3.7-.8 1.4-1.2 3.3-.8 5.3l2.9 12.3c.3 1.1.6 1.8 1.1 2.4.3.4.6.5 1.1.7.4.1.8.1 1.3 0 .7-.1 1.6-.6 2.4-1.5l9.1-8.4c1.3-1.2 2.4-2.8 3.1-4.4.6-1.5.9-3.1.6-4.5l-2.5-12.1c-.3-1.1-.7-2.1-1.2-2.7-.4-.4-.7-.6-1.1-.7-.4-.1-.9-.1-1.3-.1-.9.3-1.7.8-2.6 1.6z"/><path fill="#DCDCDC" d="M26.3 102.6l11.6-2.4c5.5-1.1 12.8.4 16.8 1.1 5.5.9 4.9 1.8 1.2 2.7l-11.9 2.4c-5.5 1.2-12.8-.9-17.6-1.5-3.8-.4-3.4-1.6-.1-2.3z"/><path stroke="#231F20" stroke-width=".216" stroke-miterlimit="22.926" fill="none" d="M50 61.2"/><path fill="#0E59A9" d="M158.9 63.8h5.3v11.8h-5.3zM178.6 75.6v-7.3h6.4v-4.5h-18.1v4.5h6.5v7.3z"/><path fill="#333" d="M100.4 67.8c.4-.1 1.1-.1 2.4-.1 2.4 0 3.9 1.1 3.9 3.2s-1.6 3.4-4.2 3.4h-2.1v-6.5zm8.7 7.8c1.6-.9 2.9-2.8 2.9-5.1 0-2.1-.8-3.8-2.1-4.9-1.6-1.4-4.1-1.9-7.6-1.9-2.9 0-5.4.1-7.1.5v11.4h13.9zM80.2 67.9c.4-.1 1.1-.1 2.1-.1 2.7 0 4.1 1.3 4.1 3.4 0 2.4-1.7 3.8-4.6 3.8-.8 0-1.3 0-1.8-.1l.2-7zm10.3 7.7c.9-1.2 1.3-2.8 1.3-4.6 0-2.4-.9-4.2-2.5-5.4-1.6-1.3-3.9-1.9-7.1-1.9-3.2 0-5.5.1-7.1.5v11.4h15.4zM154.2 75.6v-2.1h-8.3v-5.3h9v-4.4h-14.3v11.8zM137 75.6v-.3c0-6.5-3.9-11.8-11.1-11.8-6.9 0-11.3 5.2-11.4 12.1h5.5c0-4.4 2.1-7.9 5.7-7.9s5.6 3.6 5.6 7.8v.1h5.7z"/><linearGradient id="g" gradientUnits="userSpaceOnUse" x1="241.3" y1="129.541" x2="241.3" y2="146.081" gradientTransform="matrix(.708 0 0 -.708 -9.333 179)"><stop offset="0" stop-color="#1259A7"/><stop offset="1" stop-color="#0C427C"/></linearGradient><path fill="url(#g)" d="M158.9 75.6h5.3v11.8h-5.3z"/><linearGradient id="h" gradientUnits="userSpaceOnUse" x1="261.656" y1="129.541" x2="261.656" y2="146.081" gradientTransform="matrix(.708 0 0 -.708 -9.333 179)"><stop offset="0" stop-color="#1259A7"/><stop offset="1" stop-color="#0C427C"/></linearGradient><path fill="url(#h)" d="M173.4 75.6h5.3v11.8h-5.3z"/><linearGradient id="i" gradientUnits="userSpaceOnUse" x1="160.029" y1="129.543" x2="160.029" y2="146.069" gradientTransform="matrix(.708 0 0 -.708 -9.333 179)"><stop offset="0" stop-color="#333"/><stop offset="1"/></linearGradient><path fill="url(#i)" d="M95.1 87.2h5.3v-9.3h1.6c2.1 0 3.2.8 3.9 3.8.7 2.9 1.2 4.9 1.6 5.4h5.4c-.4-.9-1.1-4-1.9-6.6-.6-2.1-1.5-3.7-3.1-4.4v-.1c.4-.1.8-.4 1.2-.6h-14v11.8z"/><linearGradient id="j" gradientUnits="userSpaceOnUse" x1="129.949" y1="129.543" x2="129.949" y2="146.084" gradientTransform="matrix(.708 0 0 -.708 -9.333 179)"><stop offset="0" stop-color="#333"/><stop offset="1"/></linearGradient><path fill="url(#j)" d="M74.9 87.2h5.3v-8.4c.5.1 1.1.1 1.8.1 3.1 0 5.9-.8 7.6-2.5.4-.3.6-.6.9-.9h-15.6v11.7z"/><linearGradient id="k" gradientUnits="userSpaceOnUse" x1="221.297" y1="129.543" x2="221.297" y2="146.081" gradientTransform="matrix(.708 0 0 -.708 -9.333 179)"><stop offset="0" stop-color="#333"/><stop offset="1"/></linearGradient><path fill="url(#k)" d="M140.6 87.2h5.3v-9.4h8.3v-2.2h-13.6z"/><linearGradient id="l" gradientUnits="userSpaceOnUse" x1="190.763" y1="128.974" x2="190.763" y2="146.056" gradientTransform="matrix(.708 0 0 -.708 -9.333 179)"><stop offset="0" stop-color="#333"/><stop offset="1"/></linearGradient><path fill="url(#l)" d="M125.5 87.6c6.7 0 11.4-4.5 11.5-12.1h-5.6c0 4.6-2.1 7.9-5.6 7.9-3.6 0-5.7-3.4-5.7-7.9h-5.5v.1c-.1 6.8 4 12 10.9 12z"/></svg>