<svg width="105" height="15" viewBox="0 0 105 15" xmlns="http://www.w3.org/2000/svg" xmlns:sketch="http://www.bohemiancoding.com/sketch/ns"><title>rocketfirm</title><desc>Created with Sketch.</desc><g sketch:type="MSLayerGroup" fill="none"><path d="M5 11.67l-1.72-3.16h-1.39v3.16h-1.89v-8.89h4.17c.423-.004.844.071 1.24.22.707.258 1.268.808 1.54 1.51.142.363.213.75.21 1.14.001.341-.057.679-.17 1-.102.285-.255.549-.45.78-.177.224-.39.416-.63.57-.22.133-.46.231-.71.29l2 3.38h-2.2zm-1.12-4.82c.362.025.72-.089 1-.32.256-.219.396-.544.38-.88.016-.336-.124-.661-.38-.88-.281-.23-.638-.344-1-.32h-2v2.4h2zM13.11 11.83c-.633.005-1.26-.111-1.85-.34-1.113-.429-1.997-1.302-2.44-2.41-.237-.588-.356-1.216-.35-1.85-.006-.634.113-1.262.35-1.85.451-1.096 1.334-1.957 2.44-2.38 1.204-.459 2.536-.459 3.74 0 1.113.429 1.997 1.302 2.44 2.41.237.588.356 1.216.35 1.85.006.634-.113 1.262-.35 1.85-.45 1.096-1.333 1.958-2.44 2.38-.596.232-1.231.347-1.87.34m0-1.68c.382.004.761-.075 1.11-.23.322-.144.611-.351.85-.61.243-.267.43-.58.55-.92.258-.752.258-1.568 0-2.32-.121-.343-.308-.659-.55-.93-.237-.262-.526-.47-.85-.61-.714-.294-1.516-.294-2.23 0-.325.138-.615.347-.85.61-.238.273-.421.588-.54.93-.26.752-.26 1.568 0 2.32.119.339.302.651.54.92.238.261.527.468.85.61.349.155.728.233 1.11.23M23.67 11.83c-.638.008-1.273-.104-1.87-.33-1.128-.417-2.033-1.282-2.5-2.39-.251-.591-.377-1.228-.37-1.87-.007-.642.119-1.279.37-1.87.473-1.1 1.377-1.957 2.5-2.37.597-.225 1.232-.337 1.87-.33.448-.019.897.032 1.33.15.354.118.69.282 1 .49.295.191.561.424.79.69.213.253.404.524.57.81l-1.63.8c-.195-.375-.485-.692-.84-.92-.37-.247-.806-.376-1.25-.37-.381-.003-.759.072-1.11.22-.336.14-.639.347-.89.61-.253.269-.45.585-.58.93-.142.37-.213.764-.21 1.16-.003.4.068.796.21 1.17.128.346.325.663.58.93.252.262.555.469.89.61.351.148.729.222 1.11.22.444.003.879-.125 1.25-.37.359-.228.649-.55.84-.93l1.63.79c-.165.287-.356.558-.57.81-.23.268-.496.504-.79.7-.309.209-.645.374-1 .49-.428.131-.873.195-1.32.19" id="Shape" fill="#000" sketch:type="MSShapeGroup"/><path d="M34.53 11.67l-2.69-3.55-.7.82v2.73h-1.89v-8.89h1.89v3.97l3.15-3.97h2.33l-3.53 4.18 3.77 4.71h-2.33zM38.53 11.67v-8.89h6.29v1.67h-4.4v1.88h4.31v1.67h-4.31v2.01h4.4v1.66h-6.29zM49.22 11.67v-7.22h-2.6v-1.67h7.07v1.67h-2.58v7.22h-1.89zM73.56 11.67v-8.89h6.29v1.67h-4.4v1.88h4.31v1.67h-4.31v3.67h-1.89z" id="Shape" fill="#000" sketch:type="MSShapeGroup"/><path fill="#000" sketch:type="MSShapeGroup" d="M81.97 2.78h1.89v8.89h-1.89z"/><path d="M91.18 11.67l-1.75-3.16h-1.43v3.16h-1.85v-8.89h4.17c.427-.005.851.07 1.25.22.703.26 1.261.81 1.53 1.51.141.363.213.75.21 1.14.001.341-.057.679-.17 1-.19.563-.572 1.041-1.08 1.35-.22.134-.459.232-.71.29l2 3.38h-2.17zm-1.18-4.82c.362.025.72-.089 1-.32.256-.219.396-.544.38-.88.016-.336-.124-.661-.38-.88-.281-.23-.638-.344-1-.32h-2v2.4h2zM102.92 11.67v-6.22l-2.5 6.22h-.83l-2.51-6.22v6.22h-1.89v-8.89h2.65l2.15 5.37 2.16-5.37h2.66v8.89h-1.89z" id="Shape" fill="#000" sketch:type="MSShapeGroup"/><path d="M70.57 7.23c0-3.999-3.241-7.24-7.24-7.24s-7.24 3.241-7.24 7.24 3.241 7.24 7.24 7.24c1.921.003 3.764-.759 5.122-2.118 1.358-1.358 2.12-3.201 2.118-5.122m-8.82 4.77c-.36.07-.32-.1-.21-.25l.15-.17c.77-.87 1.37-1.19.37-1.19-.546.118-1.117.017-1.59-.28-.258-.487-.356-1.044-.28-1.59 0-1-.32-.39-1.2.37l-.17.15c-.15.11-.32.15-.25-.21.199-1.019.697-1.955 1.43-2.69.76-.38 1.558-.678 2.38-.89 2.29-1.65 4.48-2.31 4.95-2 .47.31-.32 2.65-2 4.95-.214.823-.516 1.621-.9 2.38-.733.728-1.666 1.222-2.68 1.42M65.08 6.78c-.005.334-.145.652-.388.882-.243.23-.568.352-.902.338-.506-.017-.952-.337-1.13-.811-.178-.474-.051-1.009.319-1.354.371-.345.913-.432 1.373-.221.46.211.747.679.727 1.185" fill="#EF4423" sketch:type="MSShapeGroup"/></g></svg>