<svg width="386" height="213" xmlns="http://www.w3.org/2000/svg" viewBox="0 0 231 231" enable-background="new 0 0 231 231"><path d="M65.3 135.4c-2.9 0-3.6 1.1-8.3 1.1-6.3 0-7.1-6.9-7.1-11.3v-22.2h12.4c3.9 0 6.9-2.5 6.9-6.3s-3.2-6.4-6.9-6.4h-12.6v-11.7c0-3.7-3-6.7-6.7-6.7s-6.7 3-6.7 6.7v11.4l-.4.4h-2.1c-3.9 0-6.7 2.8-6.7 6.5s2.6 6.2 6.7 6.2h2.2v22.2c0 15.4 5.9 25.8 21 25.8 3.3 0 6.9-.5 9.8-1.4 3.2-.8 5.5-3.8 5.5-7 0-3.8-3.3-7.3-7-7.3zm38.8-45.5c-17 0-30.8 13.9-30.8 30.9 0 16.9 13.9 30.8 30.8 30.8 17 0 30.9-13.9 30.9-30.8 0-17.1-13.8-30.9-30.9-30.9zm0 47.9c-9.5 0-17-7.7-17-17 0-9.5 7.5-17.2 17-17.2s17.2 7.7 17.2 17.2c0 9.4-7.8 17-17.2 17zm67.6-47.9c-5.8 0-11.9 2.2-16.4 7.2v-.1c0-3.9-3.2-7-7-7-3.9 0-7 3.2-7 7v69.6c0 3.9 3.2 7 7 7 3.9 0 7-3.2 7-7v-22.2c4.8 5.4 11.7 7.4 16.4 7.4 17.3 0 28.3-14.2 28.3-30.2 0-17.6-11.9-31.7-28.3-31.7zm-1.6 47.9c-9.7 0-16.1-8.3-16.1-17.2 0-9.7 7.4-17.2 16.1-17.2 8.5 0 15.6 7.6 15.6 17.2s-7.1 17.2-15.6 17.2zm35.5-34.6c0 .1.2.2.3.2.1 0 .3-.1.3-.2l1.7-6 6-1.7c.1 0 .2-.2.2-.3 0-.1-.1-.3-.2-.3l-6-1.7-1.7-6c0-.1-.2-.2-.3-.2-.1 0-.3.1-.3.2l-1.7 6-6 1.7c-.1 0-.2.2-.2.3 0 .1.1.3.2.3l6 1.7 1.7 6zm0 0l-10.8-17.2c0 .1.1.1.2.1l.2-.1 1-3.5 3.5-1c.1 0 .1-.1.1-.2l-.1-.2-3.5-1-1-3.5c0-.1-.1-.1-.2-.1l-.2.1-1 3.5-3.5 1c-.1 0-.1.1-.1.2l.1.2 3.5 1 1 3.5zm0 0" fill="#1AA060"/></svg>