<svg width="1000" height="201" viewBox="0 0 1000 201" xmlns="http://www.w3.org/2000/svg" xmlns:sketch="http://www.bohemiancoding.com/sketch/ns"><title>Слой_x0020_1</title><desc>Created with Sketch.</desc><g sketch:type="MSShapeGroup" fill="none"><g id="Group"><path d="M988.751 91.426c-23.662 0-51.849-.129-51.849-.129s3.75 20.432 27.411 20.432h15.645c-.259.517-.517.905-.646 1.552-2.974 7.242-8.404 13.578-14.999 17.716-6.594 4.267-14.611 6.336-22.498 5.949-7.887-.388-15.516-3.233-21.722-8.147-5.818-4.526-10.344-10.733-12.671-17.587 16.292-2.069 21.852-19.915 21.852-19.915h-23.403c.388-1.681.776-3.362 1.293-4.914 2.457-7.5 7.241-14.225 13.576-18.88 12.542-9.699 31.161-10.216 44.35-1.293 6.724 4.655 12.542 5.043 17.714 4.009 5.043-1.035 8.792-4.009 8.792-4.009-7.629-11.38-19.395-19.785-32.583-23.406-13.189-3.621-27.541-2.328-39.953 3.621-12.283 5.949-22.369 16.294-27.929 28.837-2.198 5.043-3.75 10.604-4.396 16.164h-13.706v-24.441c0-23.536-20.429-21.079-20.429-21.079v45.519h-41.117c1.164-2.069 28.058-50.304 35.169-62.977 8.017-14.225-6.336-28.45-6.336-28.45l-51.849 91.426 12.93 20.044h51.202v5.949c0 23.536 20.429 21.079 20.429 21.079v-27.027h14.74c.259 1.293.646 2.586 1.034 3.879 4.008 13.19 12.801 24.699 24.308 31.941 11.508 7.371 25.731 10.345 39.178 8.276 13.576-2.069 26.248-9.052 35.169-19.397 6.077-6.854 10.215-15.389 12.413-24.311h.129l-10.99-20.432h-.259z" id="Shape" fill="#EE0784"/><path d="M911.43 191.388h11.249v1.81c0 3.233-.646 3.75-5.043 3.75h-10.603c-4.008 0-5.301-.776-5.301-4.914v-7.371c0-4.785.646-5.561 5.172-5.561h11.378c3.62 0 4.267.647 4.267 2.845v1.81h3.491v-2.328c0-3.492-2.327-5.561-6.594-5.561h-14.094c-4.913 0-7.241 2.716-7.241 8.406v7.112c0 7.371 2.974 8.664 9.31 8.664h10.603c5.043 0 8.017-1.164 8.017-7.112v-4.785h-14.74v3.233h.129zM950.22 186.086h-9.439c-4.525 0-5.172-.647-5.172-3.362 0-2.586.129-3.621 4.008-3.621h10.603c4.784 0 5.043.129 5.172 3.621v.517h3.491v-.517c.129-2.457-.388-4.009-1.422-5.173-1.552-1.552-4.008-1.681-7.241-1.681h-10.603c-5.431 0-7.629 1.94-7.629 6.724 0 4.526 1.164 6.466 8.146 6.595l10.861.129c4.655.129 4.913.776 4.913 3.492 0 3.492-.905 4.009-4.267 4.009h-10.732c-2.457 0-4.008 0-4.525-.647-.517-.517-.776-1.552-.646-3.879v-.517h-3.491v.517c-.259 2.845.259 4.785 1.293 5.949 1.552 1.552 3.879 1.94 7.499 1.94h10.861c5.818 0 7.758-1.81 7.758-7.242 0-5.043-1.293-6.724-9.18-6.724l-.259-.129zM993.794 175.999l-11.249 18.751-10.861-18.492-.129-.259h-6.206v23.923h3.491v-20.561h.517l11.896 20.561h2.327l12.154-20.561h.517v20.561h3.62v-23.923h-6.077zM885.7 182.724v5.173h-4.784v2.069h4.784v5.173h2.327v-5.173h4.913v-2.069h-4.913v-5.173h-2.327zM812.904 164.102s.129 4.526 5.431 4.526h5.948v16.682c0 1.552 1.164 2.716 2.715 2.716 1.552 0 2.715-1.164 2.715-2.716v-16.682h6.077c5.172 0 5.431-4.526 5.431-4.526h-28.317zM864.365 168.628c5.301 0 5.431-4.526 5.431-4.526h-21.334c-1.552 0-2.715 1.164-2.715 2.716v18.492c0 1.552 1.293 2.716 2.715 2.716h21.334s-.129-4.526-5.431-4.526h-13.318v-5.431h11.12s-.129-4.526-5.431-4.526h-5.689v-4.914h13.318zM810.189 183.499h-13.318v-13.966c0-6.207-5.431-5.561-5.431-5.561v21.467c.129 1.422 1.293 2.586 2.715 2.586h21.464s-.129-4.526-5.431-4.526z" id="Shape" fill="#636462"/></g><g><path d="M0 169.145h587.923c147.401 0 152.056-128.152 152.056-128.152h-739.979v128.152z" id="Shape" fill="#EE0784"/><path d="M311.74 68.796s.517 13.32 15.775 13.32h17.455v48.752c0 4.267 3.62 7.888 7.887 7.888 4.396 0 8.017-3.621 8.017-7.888v-48.752h17.714c15.257 0 15.775-13.32 15.775-13.32h-82.622zm167.572 13.32c15.257 0 15.775-13.32 15.775-13.32h-62.71c-4.396 0-7.887 3.492-7.887 7.888v54.183c0 4.267 3.491 7.888 7.887 7.888h62.71s-.517-13.32-15.775-13.32h-39.048v-15.906h32.583s-.517-13.32-15.775-13.32h-16.938v-14.225h39.048l.129.129zm102.793 43.45h-39.048v-40.735c0-18.234-15.775-16.294-15.775-16.294v62.718c.259 4.138 3.75 7.371 7.887 7.371h62.71s-.517-13.32-15.775-13.32v.259zm-291.958 0h-39.048v-40.735c0-18.234-15.775-16.294-15.775-16.294v62.848c.259 4.138 3.62 7.371 7.887 7.371h62.71s-.517-13.32-15.775-13.32v.129zm-123.739-50.692c-1.939-3.492-5.043-6.207-10.99-6.336h-1.034c-5.689.129-8.663 2.845-10.603 6.207l-35.299 63.494s13.835 2.586 20.3-8.018c.388-.647 1.552-2.716 3.103-5.431h37.238s-.517-13.32-15.775-13.32h-14.223c5.689-10.345 12.154-22.242 15.387-28.191.129-.129.388-.388.517-.388.388 0 .646.517.776.647 6.336 11.38 23.532 43.062 25.601 46.554 6.336 10.604 20.171 8.018 20.171 8.018l-35.169-63.494v.259z" fill="#FEFEFE"/></g></g></svg>