<?xml version="1.0" encoding="utf-8"?>
<!-- Generator: Adobe Illustrator 15.0.0, SVG Export Plug-In . SVG Version: 6.00 Build 0)  -->
<!DOCTYPE svg PUBLIC "-//W3C//DTD SVG 1.1//EN" "http://www.w3.org/Graphics/SVG/1.1/DTD/svg11.dtd" [
	<!ENTITY ns_extend "http://ns.adobe.com/Extensibility/1.0/">
	<!ENTITY ns_ai "http://ns.adobe.com/AdobeIllustrator/10.0/">
	<!ENTITY ns_graphs "http://ns.adobe.com/Graphs/1.0/">
	<!ENTITY ns_vars "http://ns.adobe.com/Variables/1.0/">
	<!ENTITY ns_imrep "http://ns.adobe.com/ImageReplacement/1.0/">
	<!ENTITY ns_sfw "http://ns.adobe.com/SaveForWeb/1.0/">
	<!ENTITY ns_custom "http://ns.adobe.com/GenericCustomNamespace/1.0/">
	<!ENTITY ns_adobe_xpath "http://ns.adobe.com/XPath/1.0/">
]>
<svg version="1.1" id="Layer_1" xmlns:x="&ns_extend;" xmlns:i="&ns_ai;" xmlns:graph="&ns_graphs;"
	 xmlns="http://www.w3.org/2000/svg" xmlns:xlink="http://www.w3.org/1999/xlink" x="0px" y="0px" width="195.27px"
	 height="93.17px" viewBox="0 0 195.27 93.17" enable-background="new 0 0 195.27 93.17" xml:space="preserve">
<metadata>
	<sfw  xmlns="&ns_sfw;">
		<slices></slices>
		<sliceSourceBounds  y="93.113" x="110.552" width="195.27" height="93.17" bottomLeftOrigin="true"></sliceSourceBounds>
	</sfw>
</metadata>
<path fill-rule="evenodd" clip-rule="evenodd" fill="#FFFFFF" d="M1.269,93.17c-0.522,0-0.996-0.356-1.124-0.885l-0.111-0.453
	c-0.148-0.604,0.208-1.216,0.81-1.388l0.222-0.066c8.995-2.569,19.065-4.573,30.785-6.12c8.869-1.175,18.323-2.037,28.904-2.64
	c11.37-0.651,23.433-0.968,36.882-0.97c13.449,0.002,25.511,0.318,36.882,0.97c10.579,0.603,20.033,1.465,28.901,2.64
	c11.721,1.547,21.789,3.551,30.787,6.12l0.223,0.066c0.6,0.172,0.955,0.783,0.807,1.388l-0.107,0.451
	c-0.131,0.528-0.604,0.887-1.127,0.887c-0.077,0-0.153-0.007-0.231-0.024l-0.229-0.046c-16.903-3.414-34.887-5.702-54.982-6.984
	c-7.996-0.513-16.332-0.85-24.77-1.004c-5.264-0.094-10.429-0.103-16.153-0.103c-5.726,0-10.894,0.009-16.156,0.103
	c-8.438,0.154-16.771,0.491-24.772,1.004C36.615,87.397,18.63,89.686,1.729,93.1l-0.228,0.046C1.422,93.163,1.345,93.17,1.269,93.17
	"/>
<path fill-rule="evenodd" clip-rule="evenodd" fill="#FFFFFF" d="M100.839,65.83c-0.795,0-2.906,0-3.097-1.551
	c-0.062-0.493,0.074-0.964,0.374-1.326c0.378-0.456,0.959-0.704,1.777-0.753c0.495-0.033,0.991-0.062,1.484-0.088l0.769-0.042
	c0.43-0.021,0.792-0.046,1.096-0.072c-0.739-0.726-0.714-1.379-0.552-1.811c0.434-1.15,1.999-1.15,2.836-1.15l0.17,0.002
	c1.511-0.104,2.654-0.216,3.413-0.339c-0.155-0.095-0.337-0.202-0.552-0.323c-0.986-0.585-1.068-1.24-0.968-1.688
	c0.146-0.662,0.702-1.045,1.655-1.139l3.149-0.218c0.481-0.036,0.887-0.093,1.223-0.161c-0.55-0.137-1.073-0.436-1.206-1.115
	c-0.254-1.291,0.989-1.953,4.907-3.667c1.126-0.46,1.948-0.838,2.547-1.142c-0.824-0.13-2.104-0.486-2.347-1.668
	c-0.273-1.317,0.86-2.571,4.127-4.483c-0.363,0.06-0.671,0.088-0.938,0.088c-0.677,0-1.182-0.204-1.5-0.613
	c-0.275-0.354-0.363-0.803-0.246-1.263c0.043-0.174,0.126-0.33,0.241-0.467c1.408-1.654,2.433-3.11,3.244-4.617
	c-0.05,0.005-0.102,0.009-0.153,0.009c-0.406,0-0.778-0.169-1.045-0.471c-0.253-0.286-0.363-0.631-0.399-0.99
	c-7.024,5.749-12.633,11.851-17.133,18.638c-0.153,0.232-0.387,0.4-0.658,0.475c-5.438,1.496-9.797,3.89-14.012,6.204
	c-3.358,1.843-6.532,3.583-9.92,4.661c-1.487,0.473-2.893,0.702-4.293,0.702c-1.697,0-3.23-0.326-4.916-0.72
	c-2.528-0.59-4.727-1.67-6.727-2.752c-0.167-0.09-0.306-0.218-0.407-0.367c-0.019-0.009-0.034-0.02-0.049-0.028
	c-5.236-3.111-8.587-7.267-9.694-12.022c-1.779-7.641,2.214-16.081,11.25-23.765c8.826-7.509,21.469-13.457,35.604-16.75
	c4.146-0.966,8.34-1.676,12.465-2.118c0.043-0.004,0.083-0.007,0.124-0.007c0.563,0,1.052,0.407,1.144,0.972
	c0.099,0.607-0.295,1.186-0.896,1.318c-5.09,1.12-10.236,2.741-15.295,4.82C72.372,24.328,56.2,42.987,61.391,55.627
	c0.615,1.494,1.528,2.871,2.71,4.095c7.947-1.419,16.151-3.677,23.175-6.376c21.934-10.523,31.856-29.603,38.673-46.882
	c0.522-1.177,1.041-2.348,2.128-2.348c1.255,0,1.559,1.452,1.721,2.233c0.009,0.04,0.016,0.079,0.02,0.119
	c0.236,2.321-0.084,5.235-1.061,9.399c2.633-3.979,5.291-8.432,6.978-13.069c0.014-0.035,0.027-0.07,0.045-0.106
	C136.559,1.078,137.298,0,138.386,0c1.527,0,1.784,1.938,1.868,2.576c0.013,0.11,0.013,0.222-0.006,0.33
	c-1.056,6.692-3.478,13.192-7.089,19.118c2.987-3.409,5.844-7.241,8.435-11.342c0.015-0.024,0.031-0.051,0.049-0.075
	c1.358-1.813,2.229-2.521,3.106-2.521c0.46,0,0.874,0.198,1.165,0.559c0.507,0.629,0.688,1.654,0.009,4.828
	c-0.016,0.068-0.035,0.139-0.063,0.205c-3.65,8.723-8.667,15.17-14.913,19.174c-1.464,1.375-2.343,2.406-2.845,3.104
	c0.416-0.171,0.966-0.424,1.686-0.81c2.771-1.489,5.291-3.183,7.703-5.178c1.858-2.035,2.677-2.449,3.389-2.449
	c0.477,0,0.904,0.223,1.178,0.605c0.503,0.699,0.405,1.779-0.353,3.971c-0.032,0.097-0.08,0.189-0.136,0.272
	c-2.735,4.03-5.718,7.035-9.385,9.46c-0.24,0.18-0.466,0.35-0.681,0.512c0.352-0.153,0.726-0.323,1.126-0.508
	c1.083-0.688,1.913-1.008,2.607-1.008c0.622,0,1.142,0.265,1.464,0.737c0.622,0.908,0.237,2.211-0.167,3.245
	c-0.039,0.095-0.09,0.187-0.151,0.271c-0.198,0.266-0.376,0.513-0.54,0.739c-1.496,2.061-2.233,2.893-6.576,5.185
	c-0.065,0.037-0.132,0.063-0.205,0.086c-0.746,0.227-1.421,0.436-2.036,0.629c0.194,0.018,0.364,0.042,0.518,0.07
	c0.22,0.042,0.415,0.102,0.581,0.179l0.241,0.077c17.456-10.698,26.797-24.99,22.741-34.865c-0.324-0.79-0.743-1.564-1.242-2.297
	c-0.318-0.469-0.249-1.1,0.163-1.491c0.22-0.214,0.51-0.321,0.798-0.321c0.245,0,0.49,0.079,0.7,0.237
	c3.788,2.873,6.179,6.333,7.098,10.28c1.78,7.642-2.216,16.083-11.25,23.769c-8.825,7.508-21.469,13.454-35.604,16.748
	C106.905,65.231,103.125,65.83,100.839,65.83"/>
<path fill-rule="evenodd" clip-rule="evenodd" fill="#FFFFFF" d="M182.39,89.56c-0.082,0-0.163-0.009-0.243-0.028
	c-2.683-0.572-5.509-1.115-8.392-1.61c-0.299-0.051-0.565-0.218-0.743-0.464l-4.994-6.901h-10.99l-2.923,4.105
	c-0.218,0.308-0.571,0.488-0.943,0.488c-0.038,0-0.079-0.003-0.116-0.007c-4.366-0.442-8.978-0.827-13.705-1.146
	c-0.136-0.009-0.269-0.041-0.391-0.097c-0.61-0.266-1.178-0.638-1.689-1.102l-9.316-8.312v7.664c0,0.314-0.129,0.616-0.356,0.836
	c-0.216,0.207-0.501,0.321-0.802,0.321c-0.016,0-0.034,0-0.05,0c-4.363-0.188-8.92-0.33-13.55-0.429
	c-0.364-0.007-0.705-0.183-0.916-0.479l-1.332-1.844H99.949l-1.193,1.683c-0.219,0.304-0.57,0.486-0.944,0.486h-0.178
	c-2.311,0-4.623,0.012-6.934,0.029h-0.009c-0.437,0-0.836-0.242-1.034-0.634c-0.198-0.392-0.157-0.862,0.104-1.217l6.99-9.402
	h-9.082v10.144c0,0.632-0.509,1.15-1.143,1.159c-2.169,0.031-4.338,0.07-6.505,0.124h-0.027c-0.302,0-0.593-0.119-0.811-0.333
	c-0.223-0.215-0.35-0.515-0.35-0.827V71.501H58.039l6.938,1.239c0.978,0.174,1.757,0.345,2.455,0.539
	c0.765,0.209,1.395,0.45,1.932,0.734c0.617,0.328,1.124,0.717,1.507,1.161c0.353,0.412,0.63,0.843,0.819,1.287
	c0.178,0.407,0.3,0.82,0.363,1.224c0.054,0.347,0.079,0.64,0.079,0.919c0,0.676-0.116,1.371-0.345,2.06
	c-0.295,0.88-0.892,1.647-1.778,2.281c-0.047,0.037-0.112,0.083-0.177,0.129c-0.181,0.124-0.393,0.196-0.611,0.205
	c-2.811,0.116-5.616,0.253-8.335,0.409c-6.67,0.381-12.774,0.855-18.666,1.454c-0.039,0.004-0.076,0.007-0.117,0.007
	c-0.37,0-0.722-0.179-0.941-0.484l-2.951-4.109H27.219l-4.983,6.903c-0.175,0.246-0.443,0.416-0.743,0.464
	c-2.859,0.493-5.661,1.032-8.324,1.6c-0.082,0.018-0.162,0.028-0.241,0.028c-0.39,0-0.761-0.2-0.976-0.534
	c-0.261-0.405-0.243-0.931,0.042-1.317l14.816-19.948c0.703-0.918,1.531-1.571,2.474-1.949c0.873-0.353,1.969-0.518,3.448-0.518
	c1.399,0,2.504,0.165,3.385,0.504c0.978,0.381,1.827,1.036,2.528,1.951l7.889,10.612l13.401-0.009l-8.419-1.498
	c-0.157-0.02-0.355-0.06-0.549-0.102c-0.37-0.076-0.701-0.167-1.025-0.268c-0.372-0.112-0.735-0.24-1.096-0.381
	c-0.478-0.189-0.912-0.423-1.292-0.699c-0.446-0.295-0.849-0.674-1.156-1.096c-0.268-0.367-0.486-0.755-0.647-1.15
	c-0.168-0.416-0.274-0.839-0.319-1.261c-0.032-0.293-0.05-0.59-0.05-0.887c0-0.688,0.14-1.401,0.412-2.121
	c0.358-0.943,1.138-1.737,2.316-2.357c0.885-0.482,1.86-0.79,2.887-0.911c0.876-0.105,1.663-0.154,2.409-0.154h43.611
	c0.639,0,1.158,0.518,1.158,1.157v2.968l1.363-1.832c0.703-0.918,1.531-1.571,2.473-1.949c0.872-0.353,1.969-0.518,3.447-0.518
	c1.399,0,2.507,0.165,3.385,0.504c0.978,0.381,1.83,1.036,2.53,1.954l7.889,10.611v-9.127c0-1.384,0.759-2.521,2.143-3.205
	c1-0.495,2.259-0.737,3.847-0.737c0.915,0,2.265,0.049,3.402,0.458c0.883,0.319,1.58,0.722,2.128,1.229l9.271,8.263v-8.619
	c0-0.64,0.52-1.157,1.158-1.157h6.362c0.641,0,1.161,0.518,1.161,1.157v11.743l7.882-10.607c0.703-0.918,1.531-1.571,2.474-1.949
	c0.871-0.353,1.966-0.518,3.446-0.518c1.398,0,2.507,0.165,3.386,0.504c0.978,0.381,1.829,1.036,2.527,1.951l14.867,19.969
	c0.288,0.387,0.309,0.912,0.048,1.317C183.148,89.364,182.776,89.56,182.39,89.56 M164.03,74.748l-1.496-2.114l-1.511,2.114H164.03z
	 M106.956,74.748l-1.498-2.114l-1.512,2.114H106.956z M34.227,74.748l-1.498-2.114l-1.509,2.114H34.227z"/>
<path fill="#FFFFFF" d="M111.462,89.366c-0.203,0-0.378-0.02-0.541-0.06c-0.176-0.042-0.34-0.105-0.486-0.191
	c-0.047-0.028-0.092-0.06-0.135-0.09c-0.214,0.2-0.496,0.31-0.789,0.31h-0.847c-0.032,0-0.065,0-0.097-0.004
	c-0.032,0.004-0.063,0.004-0.094,0.004h-0.895c-0.372,0-0.72-0.178-0.939-0.481l-0.116-0.16h-0.97l-0.109,0.156
	c-0.218,0.304-0.57,0.485-0.946,0.485h-3.811c-0.131,0-0.25-0.004-0.363-0.013c-0.256-0.018-0.501-0.093-0.725-0.218
	c-0.288-0.154-0.466-0.365-0.572-0.563c-0.154,0.462-0.586,0.794-1.1,0.794h-0.847c-0.557,0-1.021-0.391-1.133-0.912
	c-0.007,0.006-0.013,0.015-0.02,0.021c-0.163,0.202-0.372,0.376-0.623,0.511c-0.215,0.116-0.45,0.207-0.7,0.266
	c-0.203,0.049-0.405,0.084-0.617,0.105c-0.191,0.021-0.387,0.033-0.581,0.036l-0.446,0.004l-0.452-0.004
	c-0.189-0.003-0.383-0.016-0.58-0.036c-0.209-0.021-0.414-0.057-0.613-0.105c-0.142-0.032-0.277-0.077-0.405-0.127
	c-0.199,0.151-0.446,0.241-0.709,0.241h-1.066c-0.198,0-0.392-0.048-0.565-0.145l-0.683-0.381c-0.207,0.316-0.565,0.525-0.973,0.525
	h-0.847c-0.569,0-1.042-0.409-1.141-0.947c-0.183,0.032-0.376,0.05-0.581,0.05h-0.976c-0.116,0.516-0.578,0.897-1.128,0.897h-0.847
	c-0.64,0-1.161-0.517-1.161-1.156v-2.156c0-0.149,0.021-0.297,0.059-0.442c0.066-0.248,0.24-0.598,0.685-0.852
	c0.202-0.114,0.43-0.188,0.675-0.218c0.143-0.02,0.279-0.028,0.404-0.028l2.356,0.002c0.118,0.003,0.236,0.012,0.358,0.026
	c0.125,0.014,0.254,0.038,0.385,0.073c0.163,0.042,0.32,0.104,0.468,0.183c0.025-0.016,0.052-0.031,0.079-0.044
	c0.214-0.114,0.437-0.186,0.673-0.214c0.142-0.018,0.282-0.026,0.415-0.026h2.131c0.092,0,0.189,0.002,0.293,0.007
	c0.132,0.007,0.265,0.02,0.398,0.042c0.163,0.026,0.322,0.072,0.477,0.134c0.161,0.062,0.309,0.144,0.442,0.242
	c0.031-0.018,0.063-0.035,0.097-0.053c0.196-0.11,0.435-0.2,0.687-0.258c0.194-0.048,0.399-0.081,0.604-0.104
	c0.198-0.023,0.393-0.035,0.584-0.037c0.158-0.002,0.311-0.004,0.455-0.004l0.453,0.004c0.185,0.002,0.378,0.014,0.574,0.037
	c0.214,0.022,0.419,0.056,0.617,0.104c0.049,0.012,0.1,0.024,0.147,0.038c0.168-0.098,0.366-0.152,0.577-0.152h4.356
	c0.13,0,0.256,0.022,0.374,0.06c0.083-0.018,0.168-0.031,0.256-0.04c0.133-0.013,0.264-0.02,0.383-0.02h2.882
	c0.405,0,0.761,0.207,0.968,0.52c0.178-0.181,0.376-0.313,0.6-0.4c0.245-0.1,0.536-0.149,0.892-0.149
	c0.34,0,0.624,0.048,0.872,0.143c0.308,0.119,0.572,0.321,0.786,0.599l0.014,0.018c0.097-0.156,0.228-0.297,0.387-0.407
	c0.176-0.121,0.372-0.211,0.583-0.269c0.156-0.042,0.32-0.068,0.485-0.077c0.104-0.004,0.177-0.006,0.222-0.006
	c0.214,0,0.395,0.018,0.541,0.048c0.207,0.04,0.381,0.1,0.54,0.183c0.172,0.091,0.318,0.2,0.442,0.328
	c0.079,0.081,0.153,0.174,0.219,0.266l0.331,0.484l0.329-0.479c0.108-0.167,0.256-0.326,0.428-0.451
	c0.148-0.11,0.318-0.198,0.5-0.262c0.154-0.049,0.311-0.081,0.471-0.099c0.111-0.012,0.223-0.018,0.345-0.018
	c0.357,0,0.665,0.053,0.939,0.16c0.583,0.225,0.946,0.737,0.946,1.333v2.233c0,0.64-0.52,1.156-1.16,1.156h-0.847
	c-0.292,0-0.574-0.109-0.789-0.308c-0.052,0.037-0.108,0.075-0.166,0.107c-0.163,0.091-0.335,0.154-0.524,0.189
	C111.804,89.349,111.647,89.366,111.462,89.366"/>
<path fill-rule="evenodd" clip-rule="evenodd" fill="#FFCB05" d="M1.383,91.493c10.01-2.859,20.306-4.723,30.62-6.089
	c9.565-1.261,19.186-2.079,28.817-2.631c12.258-0.699,24.539-0.964,36.814-0.966c12.28,0.002,24.558,0.267,36.816,0.966
	c9.631,0.552,19.252,1.37,28.819,2.631c10.312,1.366,20.606,3.229,30.617,6.089l0.224,0.064l-0.109,0.453l-0.227-0.047
	c-18.173-3.674-36.646-5.825-55.138-7.006c-8.267-0.528-16.544-0.856-24.824-1.006c-5.393-0.097-10.786-0.104-16.179-0.104
	c-5.391,0-10.784,0.007-16.176,0.104C73.18,84.102,64.9,84.43,56.636,84.958C38.142,86.139,19.67,88.29,1.498,91.964l-0.227,0.047
	L1.16,91.558L1.383,91.493z"/>
<path fill-rule="evenodd" clip-rule="evenodd" fill="#FFCB05" d="M100.159,10.179c4.186-0.975,8.312-1.67,12.324-2.097
	c-5.034,1.107-10.249,2.728-15.487,4.877C71.303,23.514,54.877,42.817,60.319,56.067c0.694,1.688,1.709,3.196,3.009,4.522
	c-4.834-2.873-8.084-6.685-9.159-11.289C50.705,34.419,71.298,16.901,100.159,10.179 M105.732,60.198
	c5.388-0.365,6.956-0.827,3.395-2.829c-0.636-0.378-0.511-0.592,0.234-0.664l3.113-0.218c3.641-0.251,4.623-1.87,2.287-2.355
	c-2.401-0.058-1.165-0.85,3.022-2.68c5.296-2.16,5.965-3.361,2.704-3.296c-3.153-0.316-2.261-1.846,2.681-4.593
	c1.419-1.399,1.322-2.281,0.013-2.015c-2.214,0.622-3.244,0.638-3.095,0.046c1.433-1.686,2.762-3.493,3.805-5.647
	c1.262-2.694-0.665-1.458-1.069-1.135c-0.625,0.497-0.933,0.321-0.786-0.832c0.5-2.104-0.748-1.225-1.419-0.512
	c-6.324,5.114-12.531,11.259-17.862,19.301c-9.981,2.743-16.557,8.518-23.977,10.876c-3.401,1.08-5.729,0.627-8.596-0.042
	c-2.384-0.556-4.499-1.595-6.438-2.642c8.422-1.465,16.913-3.825,23.993-6.551c21.318-10.212,31.569-27.949,39.29-47.521
	c0.886-1.993,1.244-2.191,1.64-0.304c0.322,3.144-0.538,7.435-1.964,12.633c-0.353,1.516-0.018,1.606,1.005,0.269
	c3.613-5.258,7.037-10.575,9.118-16.292c1.226-2.549,1.984-2.706,2.278-0.468c-1.41,8.929-5.207,17.253-10.947,24.414
	c-1.971,2.218-1.714,2.53,0.769,0.933c5.054-4.719,9.705-10.532,13.647-16.771c2.453-3.28,3.192-2.635,2.219,1.927
	c-3.789,9.057-8.772,15.027-14.557,18.706c-4.638,4.329-5.702,7.345,0.101,4.229c2.44-1.309,5.103-2.987,7.958-5.356
	c2.83-3.112,3.602-2.812,2.316,0.908c-2.316,3.41-5.099,6.521-9.067,9.143c-7.121,5.377-6.792,5.852,1.644,1.993
	c1.89-1.214,3.459-1.52,2.266,1.531c-1.795,2.411-1.854,3.021-6.729,5.595c-8.8,2.673-11.407,4.012-4.921,2.967
	c1.784-0.136,2.921-0.139,3.521-0.021c0.159,0.033,0.281,0.07,0.364,0.119l0.827,0.264c17.926-10.837,28.115-25.731,23.664-36.57
	c-0.365-0.889-0.819-1.723-1.354-2.508c3.458,2.622,5.792,5.856,6.667,9.622c3.468,14.88-17.129,32.399-45.986,39.12
	c-8.937,2.083-12.516,1.967-12.612,1.168c-0.05-0.4,0.2-0.729,1.072-0.783c0.748-0.049,1.496-0.084,2.246-0.128
	c5.329-0.269,2.865-1.152,1.939-1.967C103.388,60.59,103.653,60.17,105.732,60.198"/>
<path fill-rule="evenodd" clip-rule="evenodd" fill="#00AAB5" d="M69.521,66.615h27.498v3.727H86.51v11.303
	c-2.174,0.031-4.346,0.07-6.517,0.123V70.342H55.135c-0.342,0-0.684,0.018-1.025,0.053c-0.261,0.024-0.516,0.093-0.75,0.214
	c-0.054,0.026-0.196,0.109-0.232,0.167c-0.029,0.104-0.067,0.251-0.067,0.358c0,0.17,0.122,0.33,0.236,0.444
	c0.25,0.262,1.318,0.484,1.66,0.55l9.818,1.756c0.786,0.139,1.579,0.299,2.35,0.513c0.576,0.158,1.167,0.36,1.698,0.643
	c0.435,0.23,0.847,0.519,1.169,0.893c0.256,0.297,0.48,0.625,0.635,0.988c0.131,0.301,0.23,0.62,0.279,0.943
	c0.041,0.244,0.068,0.495,0.068,0.741c0,0.576-0.104,1.144-0.286,1.691c-0.242,0.718-0.75,1.276-1.354,1.707
	c-0.054,0.042-0.106,0.08-0.161,0.119c-2.786,0.114-5.57,0.251-8.355,0.411c-6.246,0.356-12.488,0.825-18.711,1.457l-3.301-4.594
	H26.626l-5.33,7.385c-2.8,0.481-5.591,1.017-8.368,1.608l14.813-19.946c0.528-0.687,1.177-1.243,1.979-1.568
	c0.899-0.363,2.052-0.431,3.014-0.431c0.961,0,2.063,0.076,2.966,0.427c0.823,0.32,1.492,0.873,2.025,1.574l8.229,11.067
	l16.545-0.011c0.35,0,0.836-0.016,1.167-0.139c0.151-0.055,0.365-0.147,0.476-0.266c0.042-0.044,0.107-0.121,0.12-0.186
	c0.022-0.103,0.043-0.224,0.043-0.329c0-0.079-0.019-0.159-0.041-0.233c-0.017-0.037-0.093-0.105-0.125-0.132
	c-0.153-0.13-0.398-0.24-0.585-0.313c-0.388-0.154-0.847-0.247-1.257-0.319L51.72,75.703c-0.182-0.024-0.369-0.063-0.551-0.102
	c-0.298-0.063-0.595-0.143-0.888-0.232c-0.343-0.104-0.679-0.225-1.012-0.354c-0.365-0.144-0.714-0.326-1.032-0.557
	c-0.344-0.229-0.658-0.504-0.901-0.841c-0.205-0.279-0.378-0.58-0.509-0.903c-0.121-0.302-0.207-0.616-0.241-0.944
	c-0.028-0.253-0.043-0.51-0.043-0.768c0-0.585,0.128-1.161,0.335-1.707c0.307-0.808,1.038-1.361,1.773-1.747
	c0.775-0.42,1.606-0.682,2.485-0.785c0.752-0.09,1.513-0.147,2.27-0.147H69.521z M28.967,75.905h7.5l-3.566-5.033l-0.006-0.009
	c-0.05-0.074-0.104-0.147-0.162-0.22c-0.056,0.07-0.113,0.146-0.163,0.22l-0.006,0.011L28.967,75.905z M158.77,75.905h7.504
	l-3.568-5.033l-0.007-0.009c-0.049-0.074-0.104-0.147-0.159-0.22c-0.059,0.07-0.115,0.146-0.165,0.22l-0.007,0.011L158.77,75.905z
	 M101.692,75.905h7.504l-3.568-5.033l-0.004-0.009c-0.051-0.074-0.105-0.147-0.164-0.22c-0.057,0.072-0.113,0.146-0.161,0.22
	l-0.009,0.011L101.692,75.905z M153.161,83.99l3.269-4.594h12.18l5.341,7.383c2.823,0.483,5.637,1.022,8.439,1.621L167.53,68.445
	c-0.535-0.701-1.205-1.254-2.027-1.574c-0.902-0.351-2.005-0.427-2.964-0.427c-0.963,0-2.117,0.067-3.016,0.431
	c-0.804,0.325-1.451,0.882-1.977,1.568l-10.306,13.87c0.226-0.515,0.345-1.126,0.333-1.782V66.615h-6.361v11.206l-11.214-9.998
	c-0.491-0.453-1.114-0.766-1.737-0.99c-0.91-0.33-2.049-0.389-3.009-0.389c-1.099,0-2.335,0.123-3.334,0.615
	c-0.881,0.438-1.496,1.15-1.496,2.167v12.63l-9.97-13.411c-0.536-0.701-1.206-1.254-2.027-1.574
	c-0.904-0.351-2.005-0.427-2.966-0.427c-0.96,0-2.113,0.067-3.015,0.431c-0.802,0.325-1.451,0.882-1.975,1.568l-9.778,13.153
	c2.315-0.021,4.628-0.029,6.945-0.029h0.176l1.54-2.171h12.181l1.676,2.325c4.527,0.093,9.053,0.233,13.576,0.429V71.901
	l11.257,10.038c0.414,0.379,0.873,0.68,1.373,0.899C144.002,83.149,148.589,83.528,153.161,83.99"/>
<path fill="#00AAB5" d="M83.853,86.9c0.095,0,0.191-0.007,0.292-0.014c0.099-0.009,0.187-0.035,0.26-0.081
	c0.034-0.024,0.061-0.049,0.082-0.079c0.018-0.031,0.033-0.062,0.045-0.093c0.009-0.033,0.015-0.063,0.018-0.095
	c0.002-0.032,0.004-0.059,0.004-0.083c0-0.056-0.009-0.117-0.027-0.185c-0.016-0.068-0.061-0.121-0.134-0.163
	c-0.073-0.04-0.161-0.066-0.262-0.075c-0.104-0.009-0.191-0.013-0.264-0.013h-1.367c-0.029,0-0.063,0-0.097,0.002
	c-0.033,0.002-0.067,0.011-0.101,0.033c-0.032,0.016-0.047,0.035-0.052,0.055s-0.007,0.042-0.007,0.063V86.9H83.853z M81.396,88.176
	v-2.155c0-0.047,0.006-0.095,0.02-0.144c0.011-0.05,0.056-0.095,0.135-0.139c0.073-0.039,0.155-0.067,0.25-0.079
	c0.092-0.013,0.178-0.02,0.257-0.02h2.135c0.062,0,0.129,0.002,0.204,0.002c0.074,0.003,0.15,0.007,0.23,0.018
	c0.08,0.009,0.159,0.026,0.238,0.047c0.078,0.02,0.153,0.048,0.22,0.088c0.077,0.039,0.138,0.088,0.183,0.141
	c0.045,0.057,0.082,0.112,0.104,0.174c0.023,0.062,0.039,0.121,0.045,0.181c0.008,0.062,0.01,0.116,0.01,0.171
	c0,0.051-0.004,0.108-0.014,0.172c-0.006,0.063-0.024,0.128-0.049,0.193c-0.024,0.062-0.065,0.123-0.117,0.183
	c-0.052,0.058-0.122,0.105-0.212,0.147c-0.086,0.04-0.187,0.068-0.306,0.09c-0.122,0.022-0.245,0.033-0.378,0.033h-2.106v0.897
	H81.396z M86.067,86.073c0-0.056,0.009-0.11,0.025-0.17c0.018-0.059,0.072-0.112,0.162-0.162c0.081-0.042,0.169-0.07,0.266-0.082
	c0.097-0.013,0.187-0.02,0.272-0.02h2.131c0.077,0,0.158,0.002,0.243,0.007c0.085,0.004,0.171,0.013,0.257,0.026
	c0.085,0.016,0.168,0.039,0.247,0.068c0.08,0.032,0.151,0.077,0.215,0.132c0.105,0.088,0.17,0.178,0.193,0.277
	c0.02,0.097,0.031,0.188,0.031,0.281s-0.009,0.187-0.028,0.284c-0.021,0.099-0.075,0.195-0.165,0.288
	c-0.029,0.03-0.065,0.062-0.108,0.092c-0.043,0.031-0.097,0.058-0.162,0.082c-0.068,0.026-0.149,0.046-0.244,0.063
	c-0.092,0.016-0.205,0.021-0.333,0.021h-0.576v0.021l1.707,0.893h-1.065l-1.478-0.822c-0.045-0.024-0.092-0.058-0.14-0.1
	c-0.047-0.039-0.072-0.079-0.072-0.114v-0.057c0-0.051,0.033-0.091,0.097-0.126c0.065-0.03,0.159-0.046,0.284-0.046h0.847
	c0.072,0,0.151-0.007,0.241-0.021c0.088-0.012,0.159-0.042,0.221-0.093c0.02-0.02,0.038-0.044,0.054-0.075
	c0.015-0.032,0.024-0.063,0.034-0.097c0.004-0.035,0.009-0.065,0.011-0.095c0.002-0.032,0.002-0.059,0.002-0.081
	c0-0.102-0.013-0.178-0.045-0.233c-0.03-0.051-0.068-0.092-0.115-0.118c-0.067-0.038-0.146-0.062-0.237-0.068
	c-0.09-0.005-0.168-0.009-0.238-0.009H87.23c-0.047,0-0.088,0.002-0.125,0.007c-0.031,0.002-0.067,0.015-0.101,0.035
	c-0.047,0.021-0.074,0.041-0.078,0.065c-0.008,0.024-0.012,0.049-0.012,0.075v1.973h-0.847V86.073z M91.524,86.911
	c0,0.102,0.006,0.191,0.02,0.267c0.016,0.076,0.037,0.145,0.063,0.202c0.025,0.055,0.055,0.104,0.086,0.139
	c0.032,0.039,0.068,0.07,0.105,0.097c0.066,0.048,0.14,0.086,0.226,0.114c0.085,0.028,0.178,0.051,0.277,0.063
	c0.097,0.014,0.203,0.022,0.313,0.026c0.11,0.005,0.226,0.005,0.34,0.005c0.116,0,0.228,0,0.335-0.005
	c0.111-0.004,0.217-0.013,0.316-0.026c0.101-0.013,0.193-0.035,0.279-0.063s0.162-0.066,0.23-0.114
	c0.041-0.026,0.074-0.058,0.108-0.097c0.032-0.04,0.06-0.086,0.085-0.141c0.026-0.058,0.045-0.124,0.061-0.203
	c0.017-0.074,0.023-0.165,0.023-0.264c0-0.112-0.007-0.204-0.023-0.281c-0.015-0.079-0.034-0.147-0.061-0.2
	c-0.025-0.058-0.056-0.104-0.09-0.141c-0.034-0.035-0.067-0.066-0.104-0.091c-0.131-0.09-0.3-0.149-0.505-0.171
	c-0.205-0.024-0.423-0.033-0.656-0.033c-0.236,0-0.455,0.009-0.653,0.033c-0.202,0.021-0.37,0.081-0.502,0.171
	c-0.085,0.064-0.153,0.149-0.203,0.256C91.548,86.562,91.524,86.716,91.524,86.911 M92.96,85.613c0.133,0,0.277,0,0.432,0.002
	c0.158,0.003,0.316,0.014,0.477,0.029c0.159,0.018,0.314,0.044,0.468,0.079c0.151,0.035,0.291,0.09,0.414,0.158
	c0.116,0.06,0.208,0.134,0.275,0.22c0.07,0.084,0.122,0.172,0.159,0.264c0.035,0.093,0.058,0.186,0.067,0.279
	c0.009,0.095,0.011,0.183,0.011,0.267s-0.004,0.17-0.016,0.264c-0.009,0.093-0.032,0.186-0.065,0.277
	c-0.036,0.091-0.086,0.181-0.156,0.265c-0.067,0.085-0.159,0.158-0.275,0.222c-0.123,0.066-0.263,0.119-0.414,0.154
	c-0.154,0.037-0.309,0.063-0.468,0.081c-0.161,0.018-0.32,0.026-0.479,0.028c-0.16,0.003-0.302,0.003-0.43,0.003
	c-0.133,0-0.277,0-0.435-0.003c-0.155-0.002-0.313-0.011-0.473-0.028c-0.163-0.018-0.318-0.044-0.468-0.081
	c-0.153-0.035-0.291-0.088-0.415-0.154c-0.129-0.07-0.228-0.149-0.299-0.239c-0.07-0.091-0.122-0.181-0.154-0.275
	c-0.031-0.093-0.051-0.183-0.058-0.272c-0.004-0.089-0.009-0.17-0.009-0.24c0-0.088,0.004-0.178,0.013-0.271
	c0.009-0.095,0.03-0.187,0.064-0.275c0.033-0.092,0.084-0.18,0.155-0.264c0.067-0.081,0.164-0.158,0.289-0.22
	c0.124-0.068,0.262-0.123,0.415-0.158c0.15-0.035,0.306-0.062,0.464-0.079c0.158-0.016,0.315-0.026,0.473-0.029
	C92.677,85.613,92.823,85.613,92.96,85.613 M97.081,88.176v-2.155h-1.752V85.64h4.355v0.381h-1.756v2.155H97.081z M100.688,88.176
	c-0.099,0-0.191-0.002-0.277-0.009c-0.086-0.006-0.165-0.028-0.236-0.07c-0.077-0.039-0.125-0.088-0.142-0.143
	c-0.015-0.055-0.025-0.105-0.025-0.154v-1.797c0-0.051,0.014-0.1,0.041-0.147c0.029-0.047,0.066-0.086,0.113-0.117
	c0.071-0.044,0.159-0.074,0.258-0.083c0.101-0.011,0.193-0.016,0.282-0.016h2.882v0.381h-2.427c-0.039,0-0.079,0.002-0.12,0.007
	c-0.041,0.002-0.078,0.013-0.112,0.03c-0.034,0.02-0.054,0.04-0.061,0.062c-0.008,0.02-0.01,0.044-0.01,0.062v0.511h2.663v0.381
	h-2.663v0.594c0,0.046,0.023,0.079,0.066,0.099c0.024,0.016,0.061,0.024,0.11,0.026c0.05,0.005,0.108,0.007,0.178,0.007h2.399v0.378
	H100.688z M105.172,87.195h1.728l-0.731-1.032c-0.014-0.02-0.029-0.044-0.051-0.065c-0.023-0.026-0.049-0.04-0.077-0.04
	c-0.03,0-0.056,0.014-0.077,0.04c-0.022,0.021-0.041,0.046-0.052,0.065L105.172,87.195z M105.3,85.899
	c0.082-0.108,0.176-0.183,0.279-0.225c0.106-0.042,0.26-0.062,0.46-0.062c0.191,0,0.342,0.02,0.453,0.062
	c0.108,0.042,0.202,0.116,0.284,0.225l1.696,2.276h-0.892l-0.464-0.64h-2.162l-0.456,0.64h-0.892L105.3,85.899z M112.104,87.901
	c-0.034,0.051-0.067,0.092-0.099,0.13c-0.032,0.037-0.073,0.067-0.12,0.097c-0.047,0.026-0.103,0.046-0.172,0.057
	c-0.068,0.014-0.151,0.021-0.251,0.021c-0.108,0-0.196-0.009-0.265-0.024c-0.072-0.016-0.131-0.04-0.176-0.068
	c-0.047-0.026-0.086-0.058-0.117-0.095c-0.03-0.035-0.057-0.072-0.083-0.116l-1.149-1.692c-0.009-0.013-0.022-0.03-0.045-0.05
	c-0.02-0.022-0.042-0.033-0.063-0.033c-0.034,0-0.056,0.011-0.061,0.035c-0.006,0.021-0.01,0.037-0.01,0.042l0.019,1.973h-0.847
	v-2.232c0-0.081,0.031-0.144,0.097-0.189c0.063-0.044,0.138-0.074,0.219-0.099c0.081-0.022,0.16-0.033,0.241-0.037
	c0.078-0.005,0.135-0.005,0.168-0.005c0.129,0,0.236,0.007,0.325,0.024c0.088,0.016,0.161,0.042,0.219,0.07
	c0.056,0.03,0.105,0.065,0.144,0.105s0.071,0.081,0.101,0.123l1.163,1.694c0.02,0.026,0.041,0.048,0.061,0.065
	c0.021,0.018,0.041,0.026,0.061,0.026c0.023,0,0.043-0.009,0.062-0.026c0.02-0.018,0.041-0.039,0.061-0.065l1.163-1.694
	c0.047-0.07,0.099-0.128,0.157-0.172c0.056-0.041,0.12-0.072,0.189-0.097c0.068-0.023,0.14-0.037,0.212-0.046
	c0.071-0.007,0.148-0.009,0.229-0.009c0.211,0,0.383,0.024,0.521,0.079c0.137,0.051,0.205,0.137,0.205,0.251v2.232h-0.847
	l0.028-1.973c0-0.033-0.012-0.056-0.03-0.064c-0.021-0.009-0.037-0.013-0.047-0.013c-0.023,0-0.045,0.011-0.065,0.033
	c-0.021,0.02-0.036,0.037-0.045,0.05L112.104,87.901z"/>
</svg>
